<!DOCTYPE svg PUBLIC "-//W3C//DTD SVG 1.1//EN" "http://www.w3.org/Graphics/SVG/1.1/DTD/svg11.dtd">
<svg xmlns="http://www.w3.org/2000/svg" version="1.200000" width="-1861.3936mm" height="-5mm" xmlns:xlink="http://www.w3.org/1999/xlink">
<polygon points="-471.0926,-1.1354 -471.0928,-1.2354 -518.4889,-1.1277 -544.3184,-1.1279 -614.9325,-1.1283 -638.4753,-1.1285 -662.0231,-1.1286 -674.9433,-1.1286 -685.5772,-1.1286 -698.4984,-1.1286 -709.1378,-1.1286 -732.7053,-1.1286 -756.2794,-1.1285 -779.8593,-1.1284 -803.4437,-1.1283 -863.609,-1.1279 -887.2003,-1.1277 -897.7812,-1.1277 -910.782,-1.1276 -930.7776,-1.1276 -942.4778,-1.1276 -942.4778,-1.0276 -910.782,-1.0276 -897.7812,-1.0277 -887.2003,-1.0277 -863.609,-1.0279 -803.4437,-1.0283 -779.8593,-1.0284 -756.2794,-1.0285 -732.7053,-1.0286 -709.1378,-1.0286 -698.4984,-1.0286 -685.5772,-1.0286 -674.9433,-1.0286 -662.0231,-1.0286 -638.4753,-1.0285 -614.9325,-1.0283 -544.3184,-1.0279 -518.4889,-1.0277 " stroke="none" fill="blue" stroke-width="0" shape-rendering="crispEdges" />
<polygon points="942.4778,-1.0276 942.4778,-1.1276 910.6351,-1.1276 809.3863,-1.1283 738.7733,-1.1286 691.6533,-1.1286 644.494,-1.1285 550.1083,-1.1279 492.3644,-1.1276 455.8086,-1.1276 421.7005,-1.1277 314.6173,-1.1284 256.9008,-1.1286 209.7727,-1.1286 173.2551,-1.1285 78.8692,-1.1279 21.1253,-1.1276 -15.4308,-1.1276 -49.5387,-1.1277 -133.0915,-1.1283 -203.7048,-1.1286 -250.8249,-1.1286 -297.9842,-1.1285 -426.2652,-1.1277 -445.3333,-0.98803 -464.9738,-0.84843 -483.8233,-0.70884 -503.4315,-0.56933 -522.5579,-0.42982 -545.8811,-0.42995 -559.6714,-0.42993 -593.0712,-0.42965 -606.8481,-0.42962 -640.1678,-0.42973 -653.9782,-0.42969 -687.3732,-0.42933 -701.1827,-0.42924 -710.9342,-0.42925 -724.7137,-0.42933 -734.4474,-0.42946 -757.9768,-0.42967 -771.7715,-0.42971 -805.1306,-0.42959 -818.8995,-0.42962 -852.2056,-0.42984 -865.996,-0.42984 -913.173,-0.42956 -942.4778,-0.42956 -942.4778,-0.32956 -913.173,-0.32956 -865.996,-0.32984 -852.2056,-0.32984 -818.8995,-0.32962 -805.1306,-0.32959 -771.7715,-0.32971 -757.9768,-0.32967 -748.2244,-0.32959 -724.7137,-0.32933 -710.9342,-0.32925 -701.1827,-0.32924 -687.3732,-0.32933 -677.5916,-0.32946 -653.9782,-0.32969 -640.1678,-0.32973 -606.8481,-0.32962 -593.0712,-0.32965 -559.6714,-0.32993 -545.8811,-0.32995 -522.5579,-0.32982 -503.4308,-0.46933 -483.8226,-0.60884 -464.9731,-0.74843 -445.3326,-0.88803 -426.2644,-1.0277 -308.6204,-1.0284 -261.4666,-1.0286 -214.3385,-1.0286 -167.2366,-1.0285 -49.5387,-1.0277 -2.4377,-1.0276 44.6968,-1.0277 162.6187,-1.0284 209.7727,-1.0286 256.9008,-1.0286 304.0026,-1.0285 421.7005,-1.0277 468.8015,-1.0276 515.936,-1.0277 633.8577,-1.0284 681.0115,-1.0286 728.1395,-1.0286 775.2413,-1.0285 892.939,-1.0277 " stroke="none" fill="blue" stroke-width="0" shape-rendering="crispEdges" />
<polygon points="942.4778,-0.32956 942.4778,-0.42956 909.8459,-0.42961 891.3767,-0.42981 867.835,-0.42995 854.0445,-0.42993 820.6451,-0.42965 806.8681,-0.42961 773.5487,-0.42973 759.7382,-0.42969 726.3435,-0.42933 712.5341,-0.42924 702.7827,-0.42925 689.0033,-0.42933 679.2696,-0.42946 655.7403,-0.42968 641.9459,-0.42972 608.5867,-0.4296 594.8181,-0.42963 561.5118,-0.42984 547.7218,-0.42985 500.5449,-0.42956 476.9772,-0.42954 443.6612,-0.42962 429.9047,-0.42971 420.1385,-0.42982 396.5967,-0.42995 382.8065,-0.42993 349.4067,-0.42965 335.6299,-0.42962 302.3102,-0.42974 288.4999,-0.42969 255.1049,-0.42933 241.2956,-0.42925 231.544,-0.42925 217.7647,-0.42933 208.0308,-0.42946 184.5015,-0.42968 170.707,-0.42972 137.3477,-0.4296 123.5791,-0.42963 90.2727,-0.42984 76.4826,-0.42984 29.3055,-0.42956 5.7377,-0.42954 -27.5782,-0.42961 -41.335,-0.42971 -51.101,-0.42981 -74.6428,-0.42995 -88.4333,-0.42993 -121.8329,-0.42965 -135.61,-0.42961 -168.9293,-0.42973 -182.74,-0.42969 -216.1346,-0.42933 -229.9442,-0.42924 -239.6955,-0.42925 -253.475,-0.42933 -263.2086,-0.42946 -286.7378,-0.42967 -300.5324,-0.42971 -333.8913,-0.4296 -347.66,-0.42962 -380.9661,-0.42984 -394.7562,-0.42985 -427.8628,-0.42963 -446.9313,-0.27774 -461.7556,-0.12592 -480.6052,0.02592 -495.4295,0.17774 -514.556,0.32963 -547.7205,0.32984 -561.511,0.32984 -594.8169,0.32962 -608.5859,0.32959 -641.9449,0.32971 -655.7397,0.32967 -665.492,0.32959 -689.0026,0.32933 -702.7823,0.32925 -712.5336,0.32924 -726.3432,0.32933 -736.1248,0.32945 -759.7382,0.32969 -773.5488,0.32973 -806.8685,0.32962 -820.6454,0.32965 -854.0452,0.32993 -867.8355,0.32995 -891.3773,0.32982 -901.1435,0.32971 -914.9001,0.32962 -933.3944,0.32955 -942.4778,0.32957 -942.4778,0.42957 -914.9001,0.42962 -901.1435,0.42971 -891.3773,0.42982 -867.8355,0.42995 -854.0452,0.42993 -820.6454,0.42965 -806.8685,0.42962 -773.5488,0.42973 -759.7382,0.42969 -726.3432,0.42933 -712.5336,0.42924 -702.7823,0.42925 -689.0026,0.42933 -679.2691,0.42946 -655.7397,0.42967 -641.9449,0.42971 -608.5859,0.42959 -594.8169,0.42962 -561.511,0.42984 -547.7205,0.42984 -514.556,0.42963 -495.4287,0.27774 -480.6042,0.12591 -461.7548,-0.025924 -446.9303,-0.17775 -427.862,-0.32963 -394.7562,-0.32985 -380.9661,-0.32984 -347.66,-0.32962 -333.8913,-0.3296 -300.5324,-0.32971 -286.7378,-0.32967 -276.9855,-0.32959 -253.475,-0.32933 -239.6955,-0.32925 -229.9442,-0.32924 -216.1346,-0.32933 -206.3531,-0.32945 -182.74,-0.32969 -168.9293,-0.32973 -135.61,-0.32961 -121.8329,-0.32965 -88.4333,-0.32993 -74.6428,-0.32995 -51.101,-0.32981 -41.335,-0.32971 -27.5782,-0.32961 -4.0274,-0.32954 29.3055,-0.32956 76.4826,-0.32984 90.2727,-0.32984 123.5791,-0.32963 137.3477,-0.3296 170.707,-0.32972 184.5015,-0.32968 194.2541,-0.3296 217.7647,-0.32933 231.544,-0.32925 241.2956,-0.32925 255.1049,-0.32933 264.8867,-0.32946 288.4999,-0.32969 302.3102,-0.32974 335.6299,-0.32962 349.4067,-0.32965 382.8065,-0.32993 396.5967,-0.32995 420.1385,-0.32982 429.9047,-0.32971 443.6612,-0.32962 467.2119,-0.32954 500.5449,-0.32956 547.7218,-0.32985 561.5118,-0.32984 594.8181,-0.32963 608.5867,-0.3296 641.9459,-0.32972 655.7403,-0.32968 665.4928,-0.3296 689.0033,-0.32933 702.7827,-0.32925 712.5341,-0.32924 726.3435,-0.32933 736.1251,-0.32945 759.7382,-0.32969 773.5487,-0.32973 806.8681,-0.32961 820.6451,-0.32965 854.0445,-0.32993 867.835,-0.32995 891.3767,-0.32981 909.8459,-0.32961 " stroke="none" fill="blue" stroke-width="0" shape-rendering="crispEdges" />
<polygon points="942.4778,0.42957 942.4778,0.32957 913.863,0.32953 865.9951,0.32985 852.2051,0.32984 818.8991,0.32962 805.1303,0.3296 771.7715,0.32971 757.9768,0.32967 748.2245,0.32959 724.7141,0.32933 710.9345,0.32925 701.1833,0.32924 687.3736,0.32932 677.5923,0.32945 653.9791,0.32969 640.1683,0.32973 606.8491,0.32961 593.0719,0.32965 559.6726,0.32992 545.882,0.32995 522.3402,0.32981 512.5744,0.32971 498.8174,0.32961 475.2667,0.32954 441.9342,0.32956 394.7573,0.32984 380.9669,0.32984 347.661,0.32962 333.8919,0.32959 300.5331,0.32971 286.7383,0.32967 276.9861,0.32959 253.4756,0.32933 239.6959,0.32924 229.9448,0.32924 216.1349,0.32932 206.3536,0.32945 182.7404,0.32968 168.9295,0.32973 135.6102,0.32961 121.833,0.32965 88.4334,0.32993 74.6429,0.32995 51.101,0.32981 41.335,0.32971 27.5782,0.32961 4.0274,0.32954 -29.3055,0.32956 -76.4826,0.32984 -90.2727,0.32984 -123.5789,0.32962 -137.3476,0.3296 -170.7068,0.32971 -184.5013,0.32968 -194.2538,0.3296 -217.7642,0.32933 -231.5436,0.32925 -241.295,0.32924 -255.1045,0.32933 -264.886,0.32945 -288.4992,0.32969 -302.3098,0.32973 -335.629,0.32961 -349.4061,0.32965 -382.8055,0.32993 -396.596,0.32995 -419.861,0.32982 -438.9292,0.46933 -458.5376,0.60884 -477.3871,0.74843 -497.0278,0.88803 -516.154,1.0277 -633.8572,1.0284 -681.0112,1.0286 -728.1394,1.0286 -775.2413,1.0285 -892.9393,1.0277 -942.4778,1.0276 -942.4778,1.1276 -892.9393,1.1277 -809.3865,1.1283 -738.7732,1.1286 -691.6529,1.1286 -644.4934,1.1285 -516.154,1.1277 -497.0271,0.98803 -477.3864,0.84843 -458.5368,0.70884 -438.9285,0.56932 -419.8603,0.42981 -396.596,0.42995 -382.8055,0.42993 -349.4061,0.42965 -335.629,0.42961 -302.3098,0.42973 -288.4992,0.42969 -255.1045,0.42933 -241.295,0.42924 -231.5436,0.42925 -217.7642,0.42933 -208.0305,0.42946 -184.5013,0.42968 -170.7068,0.42971 -137.3476,0.4296 -123.5789,0.42962 -90.2727,0.42984 -76.4826,0.42984 -29.3055,0.42956 -5.7377,0.42954 27.5782,0.42961 41.335,0.42971 51.101,0.42981 74.6428,0.42995 88.4334,0.42993 121.833,0.42965 135.6102,0.42961 168.9295,0.42973 182.7404,0.42968 216.1349,0.42932 229.9448,0.42924 239.6959,0.42924 253.4756,0.42933 263.209,0.42945 286.7383,0.42967 300.5331,0.42971 333.8919,0.42959 347.661,0.42962 380.9669,0.42984 394.7573,0.42984 441.9342,0.42956 465.5019,0.42953 498.8174,0.42961 512.5744,0.42971 522.3402,0.42981 545.882,0.42995 559.6726,0.42992 593.0719,0.42965 606.8491,0.42961 640.1683,0.42973 653.9791,0.42969 687.3736,0.42932 701.1833,0.42924 710.9345,0.42925 724.7141,0.42933 734.4476,0.42946 757.9768,0.42967 771.7715,0.42971 805.1303,0.4296 818.899,0.42962 852.2051,0.42984 865.9951,0.42985 913.863,0.42953 " stroke="none" fill="blue" stroke-width="0" shape-rendering="crispEdges" />
<polygon points="942.4778,1.1276 942.4778,1.0276 913.0642,1.0276 874.2019,1.0278 803.4437,1.0283 756.2795,1.0285 722.0638,1.0286 685.5774,1.0286 638.4756,1.0285 544.3189,1.0279 497.2312,1.0276 473.677,1.0276 439.5434,1.0276 402.9635,1.0278 332.2051,1.0283 285.0408,1.0285 250.8253,1.0286 214.3387,1.0286 167.2368,1.0285 73.0799,1.0279 25.9922,1.0276 2.4378,1.0276 -31.696,1.0276 -68.2758,1.0278 -139.0341,1.0283 -186.1984,1.0285 -220.4141,1.0286 -256.9005,1.0286 -304.0023,1.0285 -408.7278,1.0278 -426.3832,1.0493 -440.4911,1.0708 -453.4457,1.0923 -471.0928,1.1354 -471.0925,1.2354 -453.4455,1.1923 -440.491,1.1708 -426.3831,1.1493 -408.7277,1.1278 -314.6168,1.1284 -267.5342,1.1286 -233.3399,1.1286 -196.8391,1.1286 -162.6185,1.1284 -78.869,1.1279 -31.696,1.1276 -8.1261,1.1276 15.431,1.1276 49.5389,1.1277 156.6224,1.1284 203.7051,1.1286 237.8994,1.1286 274.4003,1.1286 308.6207,1.1284 392.3704,1.1279 439.5434,1.1276 463.1132,1.1276 486.6702,1.1276 520.7779,1.1277 627.8612,1.1284 674.9438,1.1286 709.138,1.1286 745.6389,1.1286 779.8593,1.1284 863.6087,1.1279 907.2057,1.1276 " stroke="none" fill="blue" stroke-width="0" shape-rendering="crispEdges" />
<polygon points="-471.0928,1.2354 -471.0925,1.1354 -508.7887,1.0276 -526.5163,1.0277 -550.1075,1.0279 -610.2728,1.0283 -633.8572,1.0284 -657.4371,1.0285 -681.0112,1.0286 -704.5787,1.0286 -715.2181,1.0286 -728.1394,1.0286 -738.7732,1.0286 -751.6934,1.0286 -775.2413,1.0285 -798.7841,1.0283 -869.3983,1.0279 -892.9393,1.0277 -916.486,1.0276 -942.4778,1.0276 -942.4778,1.1276 -916.486,1.1276 -892.9393,1.1277 -869.3983,1.1279 -798.7841,1.1283 -775.2413,1.1285 -751.6934,1.1286 -738.7732,1.1286 -728.1394,1.1286 -715.2181,1.1286 -704.5787,1.1286 -681.0112,1.1286 -657.4371,1.1285 -633.8572,1.1284 -610.2728,1.1283 -550.1075,1.1279 -526.5163,1.1277 -508.7887,1.1276 " stroke="none" fill="red" stroke-width="0" shape-rendering="crispEdges" />
<polygon points="942.4778,1.1276 942.4778,1.0276 913.0642,1.0276 779.8593,1.0284 732.7055,1.0286 685.5774,1.0286 638.4756,1.0285 520.7779,1.0277 473.677,1.0276 426.5425,1.0277 308.6207,1.0284 261.4668,1.0286 214.3387,1.0286 167.2368,1.0285 49.5389,1.0277 2.4378,1.0276 -44.6967,1.0277 -162.6185,1.0284 -209.7724,1.0286 -256.9005,1.0286 -304.0023,1.0285 -421.4225,1.0277 -440.4908,0.88806 -458.5271,0.7484 -477.3766,0.60878 -495.4289,0.46917 -514.556,0.32963 -547.7205,0.32984 -561.511,0.32984 -594.8169,0.32962 -608.5859,0.32959 -641.9449,0.32971 -655.7397,0.32967 -665.492,0.32959 -689.0026,0.32933 -702.7823,0.32925 -712.5336,0.32924 -726.3432,0.32933 -736.1248,0.32945 -759.7382,0.32969 -773.5488,0.32973 -806.8685,0.32962 -820.6454,0.32965 -854.0452,0.32993 -867.8355,0.32995 -891.3773,0.32982 -901.1435,0.32971 -914.9001,0.32962 -933.3944,0.32955 -942.4778,0.32957 -942.4778,0.42957 -914.9001,0.42962 -901.1435,0.42971 -891.3773,0.42982 -867.8355,0.42995 -854.0452,0.42993 -820.6454,0.42965 -806.8685,0.42962 -773.5488,0.42973 -759.7382,0.42969 -726.3432,0.42933 -712.5336,0.42924 -702.7823,0.42925 -689.0026,0.42933 -679.2691,0.42946 -655.7397,0.42967 -641.9449,0.42971 -608.5859,0.42959 -594.8169,0.42962 -561.511,0.42984 -547.7205,0.42984 -514.556,0.42963 -495.4296,0.56917 -477.3774,0.70878 -458.5278,0.8484 -440.4916,0.98806 -421.4232,1.1277 -280.4544,1.1286 -233.3399,1.1286 -186.1984,1.1285 -31.696,1.1276 2.4378,1.1276 38.976,1.1277 190.7847,1.1286 237.8994,1.1286 285.0408,1.1285 439.5434,1.1276 473.677,1.1276 510.2151,1.1277 662.0235,1.1286 709.138,1.1286 756.2795,1.1285 907.2057,1.1276 " stroke="none" fill="red" stroke-width="0" shape-rendering="crispEdges" />
<polygon points="942.4778,0.42957 942.4778,0.32957 913.863,0.32953 865.9951,0.32985 852.2051,0.32984 818.8991,0.32962 805.1303,0.3296 771.7715,0.32971 757.9768,0.32967 748.2245,0.32959 724.7141,0.32933 710.9345,0.32925 701.1833,0.32924 687.3736,0.32932 677.5923,0.32945 653.9791,0.32969 640.1683,0.32973 606.8491,0.32961 593.0719,0.32965 559.6726,0.32992 545.882,0.32995 522.3402,0.32981 512.5744,0.32971 498.8174,0.32961 475.2667,0.32954 441.9342,0.32956 394.7573,0.32984 380.9669,0.32984 347.661,0.32962 333.8919,0.32959 300.5331,0.32971 286.7383,0.32967 276.9861,0.32959 253.4756,0.32933 239.6959,0.32924 229.9448,0.32924 216.1349,0.32932 206.3536,0.32945 182.7404,0.32968 168.9295,0.32973 135.6102,0.32961 121.833,0.32965 88.4334,0.32993 74.6429,0.32995 51.101,0.32981 41.335,0.32971 27.5782,0.32961 4.0274,0.32954 -29.3055,0.32956 -76.4826,0.32984 -90.2727,0.32984 -123.5789,0.32962 -137.3476,0.3296 -170.7068,0.32971 -184.5013,0.32968 -194.2538,0.3296 -217.7642,0.32933 -231.5436,0.32925 -241.295,0.32924 -255.1045,0.32933 -264.886,0.32945 -288.4992,0.32969 -302.3098,0.32973 -335.629,0.32961 -349.4061,0.32965 -382.8055,0.32993 -396.596,0.32995 -419.8603,0.32982 -438.9285,0.1779 -461.7548,0.025944 -480.6045,-0.12595 -503.4309,-0.2779 -522.5579,-0.42982 -545.8811,-0.42995 -559.6714,-0.42993 -593.0712,-0.42965 -606.8481,-0.42962 -640.1678,-0.42973 -653.9782,-0.42969 -687.3732,-0.42933 -701.1827,-0.42924 -710.9342,-0.42925 -724.7137,-0.42933 -734.4474,-0.42946 -757.9768,-0.42967 -771.7715,-0.42971 -805.1306,-0.42959 -818.8995,-0.42962 -852.2056,-0.42984 -865.996,-0.42984 -913.173,-0.42956 -942.4778,-0.42956 -942.4778,-0.32956 -913.173,-0.32956 -865.996,-0.32984 -852.2056,-0.32984 -818.8995,-0.32962 -805.1306,-0.32959 -771.7715,-0.32971 -757.9768,-0.32967 -748.2244,-0.32959 -724.7137,-0.32933 -710.9342,-0.32925 -701.1827,-0.32924 -687.3732,-0.32933 -677.5916,-0.32946 -653.9782,-0.32969 -640.1678,-0.32973 -606.8481,-0.32962 -593.0712,-0.32965 -559.6714,-0.32993 -545.8811,-0.32995 -522.5579,-0.32982 -503.4317,-0.1779 -480.6051,-0.025948 -461.7556,0.12594 -438.9291,0.27789 -419.8611,0.42981 -396.596,0.42995 -382.8055,0.42993 -349.4061,0.42965 -335.629,0.42961 -302.3098,0.42973 -288.4992,0.42969 -255.1045,0.42933 -241.295,0.42924 -231.5436,0.42925 -217.7642,0.42933 -208.0305,0.42946 -184.5013,0.42968 -170.7068,0.42971 -137.3476,0.4296 -123.5789,0.42962 -90.2727,0.42984 -76.4826,0.42984 -29.3055,0.42956 -5.7377,0.42954 27.5782,0.42961 41.335,0.42971 51.101,0.42981 74.6428,0.42995 88.4334,0.42993 121.833,0.42965 135.6102,0.42961 168.9295,0.42973 182.7404,0.42968 216.1349,0.42932 229.9448,0.42924 239.6959,0.42924 253.4756,0.42933 263.209,0.42945 286.7383,0.42967 300.5331,0.42971 333.8919,0.42959 347.661,0.42962 380.9669,0.42984 394.7573,0.42984 441.9342,0.42956 465.5019,0.42953 498.8174,0.42961 512.5744,0.42971 522.3402,0.42981 545.882,0.42995 559.6726,0.42992 593.0719,0.42965 606.8491,0.42961 640.1683,0.42973 653.9791,0.42969 687.3736,0.42932 701.1833,0.42924 710.9345,0.42925 724.7141,0.42933 734.4476,0.42946 757.9768,0.42967 771.7715,0.42971 805.1303,0.4296 818.899,0.42962 852.2051,0.42984 865.9951,0.42985 913.863,0.42953 " stroke="none" fill="red" stroke-width="0" shape-rendering="crispEdges" />
<polygon points="942.4778,-0.32956 942.4778,-0.42956 909.8459,-0.42961 891.3767,-0.42981 867.835,-0.42995 854.0445,-0.42993 820.6451,-0.42965 806.8681,-0.42961 773.5487,-0.42973 759.7382,-0.42969 726.3435,-0.42933 712.5341,-0.42924 702.7827,-0.42925 689.0033,-0.42933 679.2696,-0.42946 655.7403,-0.42968 641.9459,-0.42972 608.5867,-0.4296 594.8181,-0.42963 561.5118,-0.42984 547.7218,-0.42985 500.5449,-0.42956 476.9772,-0.42954 443.6612,-0.42962 429.9047,-0.42971 420.1385,-0.42982 396.5967,-0.42995 382.8065,-0.42993 349.4067,-0.42965 335.6299,-0.42962 302.3102,-0.42974 288.4999,-0.42969 255.1049,-0.42933 241.2956,-0.42925 231.544,-0.42925 217.7647,-0.42933 208.0308,-0.42946 184.5015,-0.42968 170.707,-0.42972 137.3477,-0.4296 123.5791,-0.42963 90.2727,-0.42984 76.4826,-0.42984 29.3055,-0.42956 5.7377,-0.42954 -27.5782,-0.42961 -41.335,-0.42971 -51.101,-0.42981 -74.6428,-0.42995 -88.4333,-0.42993 -121.8329,-0.42965 -135.61,-0.42961 -168.9293,-0.42973 -182.74,-0.42969 -216.1346,-0.42933 -229.9442,-0.42924 -239.6955,-0.42925 -253.475,-0.42933 -263.2086,-0.42946 -286.7378,-0.42967 -300.5324,-0.42971 -333.8913,-0.4296 -347.66,-0.42962 -380.9661,-0.42984 -394.7562,-0.42985 -427.8621,-0.42963 -446.9303,-0.56917 -464.9828,-0.70879 -483.8323,-0.84841 -501.8688,-0.98806 -520.996,-1.1277 -627.8606,-1.1284 -685.5772,-1.1286 -732.7053,-1.1286 -769.2231,-1.1285 -887.2003,-1.1277 -942.4778,-1.1276 -942.4778,-1.0276 -897.7812,-1.0277 -779.8593,-1.0284 -732.7053,-1.0286 -685.5772,-1.0286 -638.4753,-1.0285 -520.996,-1.0277 -501.8695,-0.88807 -483.8331,-0.74841 -464.9835,-0.60879 -446.9311,-0.46917 -427.8628,-0.32963 -394.7562,-0.32985 -380.9661,-0.32984 -347.66,-0.32962 -333.8913,-0.3296 -300.5324,-0.32971 -286.7378,-0.32967 -276.9855,-0.32959 -253.475,-0.32933 -239.6955,-0.32925 -229.9442,-0.32924 -216.1346,-0.32933 -206.3531,-0.32945 -182.74,-0.32969 -168.9293,-0.32973 -135.61,-0.32961 -121.8329,-0.32965 -88.4333,-0.32993 -74.6428,-0.32995 -51.101,-0.32981 -41.335,-0.32971 -27.5782,-0.32961 -4.0274,-0.32954 29.3055,-0.32956 76.4826,-0.32984 90.2727,-0.32984 123.5791,-0.32963 137.3477,-0.3296 170.707,-0.32972 184.5015,-0.32968 194.2541,-0.3296 217.7647,-0.32933 231.544,-0.32925 241.2956,-0.32925 255.1049,-0.32933 264.8867,-0.32946 288.4999,-0.32969 302.3102,-0.32974 335.6299,-0.32962 349.4067,-0.32965 382.8065,-0.32993 396.5967,-0.32995 420.1385,-0.32982 429.9047,-0.32971 443.6612,-0.32962 467.2119,-0.32954 500.5449,-0.32956 547.7218,-0.32985 561.5118,-0.32984 594.8181,-0.32963 608.5867,-0.3296 641.9459,-0.32972 655.7403,-0.32968 665.4928,-0.3296 689.0033,-0.32933 702.7827,-0.32925 712.5341,-0.32924 726.3435,-0.32933 736.1251,-0.32945 759.7382,-0.32969 773.5487,-0.32973 806.8681,-0.32961 820.6451,-0.32965 854.0445,-0.32993 867.835,-0.32995 891.3767,-0.32981 909.8459,-0.32961 " stroke="none" fill="red" stroke-width="0" shape-rendering="crispEdges" />
<polygon points="942.4778,-1.0276 942.4778,-1.1276 910.6351,-1.1276 892.939,-1.1277 785.8558,-1.1284 738.7733,-1.1286 704.5789,-1.1286 668.0783,-1.1286 633.8577,-1.1284 550.1083,-1.1279 502.9354,-1.1276 479.3656,-1.1276 455.8086,-1.1276 421.7005,-1.1277 314.6173,-1.1284 267.5347,-1.1286 233.3401,-1.1286 196.8394,-1.1286 162.6187,-1.1284 78.8692,-1.1279 31.6961,-1.1276 8.1263,-1.1276 -15.4308,-1.1276 -49.5387,-1.1277 -133.0915,-1.1283 -190.7845,-1.1286 -227.2599,-1.1286 -261.4666,-1.1286 -297.9842,-1.1285 -415.9608,-1.1277 -431.225,-1.1492 -445.3329,-1.1707 -455.8746,-1.1923 -471.0925,-1.2354 -471.0928,-1.1354 -455.8749,-1.0923 -445.3331,-1.0707 -431.2252,-1.0492 -415.961,-1.0277 -402.963,-1.0278 -332.2048,-1.0283 -285.0406,-1.0285 -250.8249,-1.0286 -214.3385,-1.0286 -167.2366,-1.0285 -73.0797,-1.0279 -25.992,-1.0276 -2.4377,-1.0276 31.6961,-1.0276 68.2758,-1.0278 139.0343,-1.0283 186.1986,-1.0285 220.4145,-1.0286 256.9008,-1.0286 304.0026,-1.0285 398.1595,-1.0279 445.2472,-1.0276 468.8015,-1.0276 502.9354,-1.0276 539.5149,-1.0278 610.2733,-1.0283 657.4375,-1.0285 691.6533,-1.0286 728.1395,-1.0286 775.2413,-1.0285 910.6351,-1.0276 " stroke="none" fill="red" stroke-width="0" shape-rendering="crispEdges" />
<line x1="918.9159" y1="2.5" x2="918.9159" y2="-2.5" stroke="red" stroke-width="0.1"/>
<line x1="918.9159" y1="-2.5" x2="-942.4778" y2="-2.5" stroke="red" stroke-width="0.1"/>
<line x1="-942.4778" y1="-2.5" x2="-942.4778" y2="2.5" stroke="red" stroke-width="0.1"/>
<line x1="-942.4778" y1="2.5" x2="918.9159" y2="2.5" stroke="red" stroke-width="0.1"/>
"/>
</svg>