<!DOCTYPE svg PUBLIC "-//W3C//DTD SVG 1.1//EN" "http://www.w3.org/Graphics/SVG/1.1/DTD/svg11.dtd">
<svg xmlns="http://www.w3.org/2000/svg" version="1.200000" width="-1861.3936mm" height="-5mm" xmlns:xlink="http://www.w3.org/1999/xlink">
<polygon points="-471.0905,-0.85462 -471.0906,-0.95462 -520.0223,-0.87262 -525.4935,-0.87267 -592.1129,-0.87338 -605.4053,-0.87351 -615.6458,-0.87359 -628.9302,-0.87368 -639.1874,-0.87374 -652.4671,-0.8738 -662.7366,-0.87383 -686.292,-0.87388 -709.8536,-0.87389 -723.1389,-0.87387 -733.423,-0.87385 -746.7204,-0.8738 -757.003,-0.87374 -770.3191,-0.87365 -780.5957,-0.87356 -793.9359,-0.87342 -804.2004,-0.87329 -817.5672,-0.87311 -864.8399,-0.87245 -875.035,-0.87232 -888.4613,-0.87217 -898.6311,-0.87208 -912.0626,-0.87198 -931.6365,-0.87188 -942.4778,-0.87186 -942.4778,-0.77186 -931.6365,-0.77188 -912.0626,-0.77198 -898.6311,-0.77208 -888.4613,-0.77217 -875.035,-0.77232 -864.8399,-0.77245 -851.427,-0.77263 -817.5672,-0.77311 -804.2004,-0.77329 -793.9359,-0.77342 -780.5957,-0.77356 -770.3191,-0.77365 -757.003,-0.77374 -746.7204,-0.7738 -733.423,-0.77385 -723.1389,-0.77387 -709.8536,-0.77389 -686.292,-0.77388 -662.7366,-0.77383 -652.4671,-0.7738 -639.1874,-0.77374 -628.9302,-0.77368 -615.6458,-0.77359 -605.4053,-0.77351 -592.1129,-0.77338 -581.8917,-0.77328 -545.0642,-0.77288 -520.0223,-0.77262 " stroke="none" fill="blue" stroke-width="0" shape-rendering="crispEdges" />
<polygon points="942.4778,-0.77186 942.4778,-0.87186 910.2096,-0.87196 808.1669,-0.87287 761.0983,-0.87313 713.9911,-0.87321 666.8433,-0.87312 643.2467,-0.87298 619.6331,-0.87276 548.7439,-0.87186 515.0038,-0.87153 491.4285,-0.87141 467.87,-0.87141 444.3272,-0.87151 420.7971,-0.87171 336.8796,-0.87265 289.8348,-0.87301 242.752,-0.8732 195.6286,-0.87322 172.0441,-0.87313 148.4423,-0.87297 53.9812,-0.872 30.3966,-0.87189 6.8354,-0.87187 -16.7023,-0.87197 -40.2198,-0.87215 -134.2178,-0.87327 -167.9721,-0.87357 -215.0618,-0.87382 -262.1772,-0.87389 -275.4652,-0.87386 -299.0521,-0.87377 -322.6572,-0.87359 -393.5271,-0.87277 -427.0556,-0.87246 -446.1244,-0.54345 -461.7571,-0.21448 -480.6068,0.11451 -496.2396,0.44347 -515.3658,0.77247 -538.7359,0.77267 -585.943,0.77322 -633.1448,0.77371 -656.7296,0.77384 -680.3016,0.77389 -703.863,0.77388 -750.9643,0.77372 -798.04,0.77337 -868.6007,0.77253 -915.6445,0.77203 -942.4778,0.77185 -942.4778,0.87185 -892.1188,0.87225 -831.7627,0.873 -784.7458,0.87349 -750.9643,0.87372 -703.863,0.87388 -667.0142,0.87387 -643.4274,0.87377 -619.8224,0.87359 -548.9527,0.87278 -515.3658,0.87247 -496.2379,0.54346 -480.6047,0.21449 -461.7553,-0.1145 -446.1223,-0.44347 -427.0539,-0.77247 -403.7432,-0.77266 -356.5361,-0.77321 -309.3341,-0.7737 -275.4652,-0.77386 -238.6156,-0.77388 -191.5139,-0.77372 -144.4379,-0.77337 -73.8763,-0.77253 -26.8321,-0.77204 -3.294,-0.7719 20.2592,-0.77187 43.8287,-0.77194 67.4137,-0.77211 114.6139,-0.77262 161.8106,-0.77307 195.6286,-0.77322 232.5251,-0.77322 279.6271,-0.77307 326.7057,-0.77274 420.7971,-0.77171 444.3272,-0.77151 467.87,-0.77141 491.4285,-0.77141 515.0038,-0.77153 538.5951,-0.77174 633.0212,-0.77289 666.8433,-0.77312 703.7601,-0.77321 750.8784,-0.77316 797.973,-0.77294 910.2096,-0.77196 " stroke="none" fill="blue" stroke-width="0" shape-rendering="crispEdges" />
<polygon points="942.4778,0.87185 942.4778,0.77185 913.4996,0.77185 875.0656,0.7721 804.2631,0.77287 780.6682,0.77307 757.085,0.77319 723.2814,0.77324 686.3989,0.77317 639.3073,0.77293 605.5968,0.77265 545.2014,0.77197 511.579,0.77162 488.0548,0.77147 464.5096,0.77141 451.0479,0.77142 427.4725,0.77154 403.8813,0.77175 333.0579,0.77265 309.4557,0.7729 285.8649,0.77307 252.0537,0.77319 215.156,0.7732 168.0493,0.77307 134.3126,0.77286 50.3856,0.77209 26.8489,0.77194 3.2997,0.77188 -20.2648,0.77192 -43.8457,0.77207 -67.4421,0.77231 -138.2774,0.77329 -161.8825,0.77356 -185.4753,0.77375 -209.0555,0.77386 -232.6251,0.7739 -266.4651,0.77387 -303.2917,0.77375 -326.8331,0.7736 -350.3662,0.77339 -407.5991,0.77278 -425.6229,0.78909 -439.7312,0.80545 -453.0624,0.82181 -471.0949,0.85463 -471.0947,0.95463 -453.0623,0.92181 -439.7311,0.90545 -425.6227,0.88909 -407.599,0.87278 -337.0743,0.87351 -313.5495,0.87369 -279.7425,0.87384 -242.908,0.8739 -209.0555,0.87386 -185.4753,0.87375 -161.8825,0.87356 -138.2774,0.87329 -67.4421,0.87231 -43.8457,0.87207 -20.2648,0.87192 3.2997,0.87188 26.8489,0.87194 50.3856,0.87209 144.5059,0.87293 181.3803,0.87312 215.156,0.8732 252.0537,0.87319 275.6336,0.87312 299.2299,0.87298 322.8433,0.87277 403.8813,0.87175 427.4725,0.87154 451.0479,0.87142 474.6063,0.87142 498.149,0.87152 521.6792,0.87172 615.7713,0.87275 652.6422,0.87302 699.7258,0.8732 733.5138,0.87324 757.085,0.87319 780.6682,0.87307 804.2631,0.87287 864.8941,0.8722 888.4989,0.87199 913.4996,0.87185 " stroke="none" fill="blue" stroke-width="0" shape-rendering="crispEdges" />
<polygon points="-471.0949,0.95463 -471.0947,0.85463 -507.2083,0.77241 -525.3419,0.77255 -538.7359,0.77267 -548.9527,0.77278 -562.3366,0.77293 -596.2028,0.77334 -609.5479,0.77349 -619.8224,0.77359 -633.1448,0.77371 -643.4274,0.77377 -656.7296,0.77384 -667.0142,0.77387 -680.3016,0.77389 -690.5837,0.77389 -703.863,0.77388 -727.4167,0.77382 -750.9643,0.77372 -761.2202,0.77366 -774.5059,0.77357 -784.7458,0.77349 -798.04,0.77337 -808.2597,0.77327 -821.5657,0.77312 -831.7627,0.773 -868.6007,0.77253 -892.1188,0.77225 -902.2563,0.77215 -915.6445,0.77203 -933.7657,0.7719 -942.4778,0.77185 -942.4778,0.87185 -933.7657,0.8719 -915.6445,0.87203 -902.2563,0.87215 -892.1188,0.87225 -878.7538,0.8724 -821.5657,0.87312 -808.2597,0.87327 -798.04,0.87337 -784.7458,0.87349 -774.5059,0.87357 -761.2202,0.87366 -750.9643,0.87372 -727.4167,0.87382 -703.863,0.87388 -690.5837,0.87389 -680.3016,0.87389 -667.0142,0.87387 -656.7296,0.87384 -643.4274,0.87377 -633.1448,0.87371 -619.8224,0.87359 -609.5479,0.87349 -596.2028,0.87334 -548.9527,0.87278 -538.7359,0.87267 -525.3419,0.87255 -507.2083,0.87241 " stroke="none" fill="red" stroke-width="0" shape-rendering="crispEdges" />
<polygon points="942.4778,0.87185 942.4778,0.77185 913.4996,0.77185 875.0656,0.7721 827.8655,0.77261 780.6682,0.77307 746.8499,0.77322 709.9528,0.77322 662.8503,0.77307 615.7713,0.77275 521.6792,0.77172 498.149,0.77152 474.6063,0.77142 451.0479,0.77142 427.4725,0.77154 403.8813,0.77175 309.4557,0.7729 275.6336,0.77312 238.7176,0.77321 191.5998,0.77316 144.5059,0.77293 73.9144,0.7723 26.8489,0.77194 3.2997,0.77188 -20.2648,0.77192 -43.8457,0.77207 -67.4421,0.77231 -114.6644,0.77297 -161.8825,0.77356 -185.4753,0.77375 -209.0555,0.77386 -256.1868,0.77389 -303.2917,0.77375 -337.0743,0.77351 -420.6616,0.77266 -439.7296,0.44361 -461.7555,0.11453 -480.6051,-0.21451 -502.631,-0.54358 -521.7582,-0.87264 -581.8917,-0.87328 -628.9302,-0.87368 -662.7366,-0.87383 -709.8536,-0.87389 -746.7204,-0.8738 -770.3191,-0.87365 -793.9359,-0.87342 -888.4613,-0.87217 -912.0626,-0.87198 -942.4778,-0.87186 -942.4778,-0.77186 -898.6311,-0.77208 -875.035,-0.77232 -827.8131,-0.77297 -780.5957,-0.77356 -757.003,-0.77374 -733.423,-0.77385 -686.292,-0.77388 -639.1874,-0.77374 -605.4053,-0.77351 -521.7582,-0.77264 -502.6327,-0.4436 -480.6066,-0.11452 -461.7572,0.21452 -439.7311,0.5436 -420.6633,0.87265 -360.5879,0.87329 -313.5495,0.87369 -279.7425,0.87384 -232.6251,0.8739 -195.7583,0.8738 -172.1593,0.87365 -148.5422,0.87342 -77.6371,0.87244 -43.8457,0.87207 -20.2648,0.87192 3.2997,0.87188 26.8489,0.87194 50.3856,0.87209 134.3126,0.87286 181.3803,0.87312 228.4867,0.87321 275.6336,0.87312 299.2299,0.87298 322.8433,0.87277 417.3465,0.87162 440.9402,0.87146 464.5096,0.87141 488.0548,0.87147 521.6792,0.87172 605.5968,0.87265 652.6422,0.87302 699.7258,0.8732 746.8499,0.87322 770.4349,0.87313 794.0372,0.87296 888.4989,0.87199 913.4996,0.87185 " stroke="none" fill="red" stroke-width="0" shape-rendering="crispEdges" />
<polygon points="942.4778,-0.77186 942.4778,-0.87186 910.2096,-0.87196 808.1669,-0.87287 774.4292,-0.87308 737.549,-0.87319 690.4236,-0.87319 666.8433,-0.87312 643.2467,-0.87298 619.6331,-0.87276 538.5951,-0.87174 515.0038,-0.87153 491.4285,-0.87141 467.87,-0.87141 444.3272,-0.87151 420.7971,-0.87171 326.7057,-0.87274 289.8348,-0.87301 242.752,-0.8732 208.9643,-0.87324 185.3935,-0.87319 161.8106,-0.87307 138.216,-0.87287 67.4137,-0.87211 43.8287,-0.87194 20.2592,-0.87187 -3.294,-0.8719 -26.8321,-0.87204 -50.358,-0.87226 -134.2178,-0.87327 -157.7323,-0.87349 -191.5139,-0.87372 -228.3396,-0.87385 -262.1772,-0.87389 -285.7493,-0.87383 -309.3341,-0.8737 -332.9311,-0.87348 -393.5271,-0.87277 -417.1378,-0.87254 -432.015,-0.88892 -446.1224,-0.90531 -456.2701,-0.92174 -471.0905,-0.95462 -471.0907,-0.85462 -456.2703,-0.82174 -446.1226,-0.80531 -432.0151,-0.78892 -417.1379,-0.77254 -403.7432,-0.77266 -332.9311,-0.77348 -309.3341,-0.7737 -285.7493,-0.77383 -262.1772,-0.77389 -238.6156,-0.77388 -215.0618,-0.77382 -167.9721,-0.77357 -144.4379,-0.77337 -120.9118,-0.77313 -50.358,-0.77226 -26.8321,-0.77204 -3.294,-0.7719 20.2592,-0.77187 43.8287,-0.77194 67.4137,-0.77211 138.216,-0.77287 161.8106,-0.77307 185.3935,-0.77319 219.1967,-0.77324 256.0788,-0.77316 303.1698,-0.77293 336.8796,-0.77265 420.7971,-0.77171 444.3272,-0.77151 467.87,-0.77141 491.4285,-0.77141 515.0038,-0.77153 538.5951,-0.77174 609.419,-0.77265 633.0212,-0.77289 656.6121,-0.77307 690.4236,-0.77319 727.3219,-0.7732 774.4292,-0.77308 797.973,-0.77294 821.5089,-0.77276 868.5647,-0.7723 910.2096,-0.77196 " stroke="none" fill="red" stroke-width="0" shape-rendering="crispEdges" />
<line x1="918.9159" y1="2.5" x2="918.9159" y2="-2.5" stroke="red" stroke-width="0.1"/>
<line x1="918.9159" y1="-2.5" x2="-942.4778" y2="-2.5" stroke="red" stroke-width="0.1"/>
<line x1="-942.4778" y1="-2.5" x2="-942.4778" y2="2.5" stroke="red" stroke-width="0.1"/>
<line x1="-942.4778" y1="2.5" x2="918.9159" y2="2.5" stroke="red" stroke-width="0.1"/>
"/>
</svg>