<!DOCTYPE svg PUBLIC "-//W3C//DTD SVG 1.1//EN" "http://www.w3.org/Graphics/SVG/1.1/DTD/svg11.dtd">
<svg xmlns="http://www.w3.org/2000/svg" version="1.200000" width="-1845.6857mm" height="-1500mm" xmlns:xlink="http://www.w3.org/1999/xlink">
<polygon points="-633.0078,205.0104 -628.3185,210.8636 -634.6737,206.8808 -645.2621,223.7765 -654.8696,242.1131 -664.6257,263.5807 -675.3059,297.251 -682.5579,331.6625 -682.7175,363.7493 -680.7272,393.2865 -678.1616,420.2232 -667.3173,448.5797 -656.2696,473.0909 -644.659,492.1387 -630.4636,511.2785 -615.3867,529.8398 -601.518,540.7055 -586.3601,550.296 -569.8712,558.834 -552.021,565.6922 -533.0535,571.9364 -513.3927,575.9829 -492.1211,578.4419 -471.5792,579.3848 -450.8744,578.4596 -429.7276,576.0361 -410.2849,572.0948 -390.7968,565.7231 -373.394,559.0805 -356.7326,550.5348 -341.5797,541.0068 -328.4094,530.963 -312.2917,511.4558 -297.5881,490.0942 -283.246,458.9635 -271.8414,426.3433 -262.2684,384.243 -261.2341,348.933 -266.3396,306.1267 -276.9839,271.8739 -291.6093,238.4968 -309.5799,213.2266 -328.0644,191.2288 -348.0521,177.115 -365.0761,166.6746 -385.3127,157.9891 -401.3213,151.8748 -415.9638,147.1358 -432.5182,144.2518 -447.3574,141.9538 -456.1175,141.3987 -470.645,141.3057 -485.4024,141.4404 -493.8937,141.9963 -509.2748,144.44 -524.886,147.187 -540.6357,152.1112 -556.8343,158.3115 -576.3041,166.5991 -589.1759,173.1953 -600.6093,179.227 NaN,NaN -621.9634,214.8463 -622.6307,215.9111 -623.6292,216.7168 -628.3185,210.8636 NaN,NaN -632.5518,231.742 -622.6307,215.9111 -593.6099,192.4938 -582.3169,186.5353 -570.4261,180.3994 -551.4614,172.3163 -536.1023,166.4097 -522.2858,161.9599 -506.8906,159.2493 -492.8918,156.9629 -485.2645,156.4398 -470.7298,156.3054 -457.0096,156.3721 -449.6522,156.7772 -435.0239,159.041 -420.573,161.4101 -406.669,165.8891 -391.1776,171.795 -372.9109,179.4659 -356.5705,189.4615 -339.541,200.8874 -321.758,221.9841 -305.3408,244.5339 -291.2923,276.3759 -281.2307,307.9306 -276.2294,348.5556 -276.8987,380.9333 -286.0056,421.4062 -296.8902,452.7317 -309.952,481.601 -323.9327,501.9961 -337.5274,519.0524 -349.5842,528.321 -363.6113,537.205 -378.7491,545.069 -395.4939,551.4775 -413.2858,557.398 -431.4478,561.1351 -451.5665,563.4755 -470.9043,564.4 -490.4182,563.5389 -510.4065,561.2832 -528.3689,557.6866 -546.6756,551.6769 -562.9939,545.5034 -578.3617,537.6064 -592.4064,528.79 -603.7464,520.3791 -618.4268,502.3278 -631.8718,484.2972 -642.5965,466.9227 -653.359,443.0874 -663.2293,418.7994 -665.7617,392.2693 -667.7175,363.7493 -667.8771,334.7404 -661.001,301.7643 -650.9666,269.78 -641.5752,249.06 " stroke="none" fill="blue" stroke-width="0" shape-rendering="crispEdges" />
<polygon points="649.525,222.2819 642.5348,225 647.6567,219.5212 639.5752,211.9663 628.5738,202.7314 611.1077,190.3983 592.5115,177.5038 575.5292,167.0318 553.7346,156.2926 537.4087,149.991 527.5563,146.8035 510.7654,143.9564 488.2859,142.0816 471.9309,142.123 456.1727,142.2049 431.9621,144.4895 409.7992,149.7486 392.4793,156.1373 372.9108,164.4917 348.921,176.7613 329.6022,190.0124 309.9771,212.8953 292.4344,237.2188 278.0423,262.9797 267.0699,297.2369 259.8408,331.6789 259.6825,363.8738 261.6884,393.4292 264.269,420.3185 271.4245,443.6237 281.5099,466.9711 290.8031,483.6736 301.7799,500.1388 315.5807,518.1479 327.577,530.3794 340.9716,540.6953 356.1297,550.2711 372.6227,558.7975 390.4701,565.6448 409.4445,571.8811 429.0993,575.9217 450.363,578.3797 470.8997,579.3208 491.5975,578.3984 512.7378,575.9779 532.1756,572.0435 551.6678,565.6838 569.0703,559.0547 585.7438,550.5203 600.9,541.0114 614.0715,530.9969 626.2345,518.787 640.362,500.4913 651.9953,481.6842 664.0394,452.7585 674.2829,421.7605 680.4212,383.8288 681.3386,348.8929 681.3408,317.9435 678.7456,298.0118 NaN,NaN 637.413,230.4788 636.1722,229.3188 635.5447,227.7181 642.5348,225 NaN,NaN 629.3316,222.9238 636.1722,229.3188 663.8776,299.9973 666.3408,317.9435 666.343,348.5278 665.6078,381.4699 660.0376,417.0627 650.1741,447.0354 639.2244,473.8163 628.4668,491.3534 615.5627,508.2459 604.9709,519.073 592.9084,528.3176 578.8763,537.1848 563.7246,545.0396 546.9796,551.4353 529.1791,557.3459 511.0191,561.0767 490.9073,563.4143 471.5733,564.3359 452.0659,563.4767 432.0823,561.2213 414.1222,557.6291 395.8089,551.627 379.4912,545.4624 364.1194,537.576 350.0727,528.7718 338.2504,519.84 327.4803,509.0156 314.2507,491.8033 303.8964,476.3548 295.2704,461.0004 285.7341,439.1253 279.2002,418.884 276.6534,392.4046 274.6825,363.8738 274.5242,334.7445 281.3744,301.7517 291.1498,270.273 304.6066,245.9844 321.4487,222.5598 338.1205,202.3591 355.7602,190.1114 378.806,178.2847 397.7115,170.1952 413.31,164.332 433.39,159.4214 456.2506,157.2047 471.9946,157.1229 487.0555,157.031 508.3296,158.7573 522.9546,161.0802 532.0314,163.994 547.1236,169.7571 567.6631,179.8038 583.9644,189.8305 602.4707,202.6621 618.9386,214.2276 " stroke="none" fill="blue" stroke-width="0" shape-rendering="crispEdges" />
<polygon points="-670.2083,-394.029 -670.2305,-393.2283 -670.4139,-392.4656 -677.7059,-394.2198 NaN,NaN -671.4375,-349.5535 -670.2305,-393.2283 -665.9207,-411.1438 -663.182,-422.2599 -653.7141,-443.658 -640.7915,-469.4607 -625.7687,-489.5059 -608.6472,-509.1273 -586.2474,-530.7876 -567.7752,-541.3064 -548.1197,-550.1214 -528.3478,-555.9298 -507.247,-561.4601 -487.6489,-563.6131 -468.7119,-564.6828 -449.4402,-563.7547 -431.5136,-561.3843 -413.2105,-557.6373 -395.4399,-551.7388 -378.667,-545.3353 -363.4701,-537.4304 -349.4026,-528.5432 -337.3677,-519.3241 -326.758,-508.4716 -313.8625,-491.5339 -303.1883,-474.0651 -292.2702,-447.2343 -282.418,-417.202 -276.9091,-381.576 -276.1967,-348.7582 -281.2509,-307.9492 -291.3334,-276.4617 -303.4655,-246.7643 -319.7955,-224.4706 -341.0346,-202.2778 -358.3221,-190.5253 -381.027,-178.9119 -402.1889,-168.4241 -417.6644,-162.5604 -433.7024,-159.2022 -449.1178,-156.5305 -456.4364,-156.1064 -471.5689,-156.0816 -486.8213,-156.0915 -494.4795,-156.5583 -508.5108,-158.8004 -523.8696,-161.4413 -536.1432,-165.7177 -551.5908,-171.6396 -570.6189,-179.7354 -586.3141,-189.3917 -604.5771,-201.9773 -621.225,-221.9836 -638.1564,-245.4896 -651.6725,-270.059 -661.551,-301.7026 -668.9862,-331.2684 NaN,NaN -684.9979,-395.9739 -677.7059,-394.2198 -685.2035,-394.4106 -686.2994,-347.5232 -683.5316,-327.6036 -675.8497,-297.1694 -664.8011,-262.8036 -650.3206,-236.7128 -632.6588,-212.2744 -613.0822,-189.6216 -594.1193,-176.5824 -576.4882,-165.9314 -556.9556,-157.6318 -540.9768,-151.5178 -526.4108,-146.6581 -510.8411,-143.9825 -495.367,-141.5846 -486.831,-141.0915 -471.5303,-141.0816 -455.4791,-141.1369 -446.5508,-141.7518 -430.5502,-144.5371 -412.3205,-148.5446 -395.5276,-154.9843 -374.1635,-165.5743 -349.796,-178.1841 -330.1741,-191.9313 -307.6274,-215.6992 -289.5752,-241.1022 -277.0303,-271.9425 -266.3612,-306.134 -261.2009,-349.1138 -262.0915,-383.9084 -268.1683,-421.8864 -278.3954,-452.9343 -290.4039,-481.9111 -301.953,-500.6534 -316.0831,-519.0095 -328.2698,-531.2501 -341.4117,-541.2375 -356.585,-550.7569 -373.3233,-559.3511 -390.7535,-565.988 -410.2169,-572.3355 -429.5691,-576.2578 -448.7495,-578.7388 -469.5672,-579.6584 -489.3449,-578.5169 -511.0525,-575.9693 -532.6229,-570.3077 -554.2837,-563.7963 -575.3309,-554.2645 -596.6838,-541.5617 -619.9579,-518.9796 -637.8127,-498.4469 -654.2058,-476.173 -667.4594,-449.6636 -677.7465,-425.8481 -680.5047,-414.6521 " stroke="none" fill="blue" stroke-width="0" shape-rendering="crispEdges" />
<polygon points="574.8744,-539.3703 574.513,-539.5293 574.1992,-539.7051 577.864,-546.2487 NaN,NaN 536.3247,-556.3309 574.513,-539.5293 583.327,-534.5929 592.4974,-527.4053 608.6855,-509.0941 626.3962,-487.2202 643.9225,-454.9528 656.7918,-421.6071 665.8533,-381.2104 666.4189,-348.7729 661.409,-307.733 651.2825,-276.2265 637.1633,-244.5403 620.7029,-222.0613 602.8927,-201.1281 585.8753,-189.8128 563.2521,-178.3828 544.4963,-170.4634 527.4806,-164.4584 507.3163,-159.6098 492.0851,-156.9657 484.6793,-156.4725 470.7216,-156.3291 456.9425,-156.4367 449.296,-156.924 435.2775,-159.1567 419.8765,-161.8002 406.3291,-166.2003 390.9619,-172.087 371.9832,-180.1627 356.2579,-189.8656 339.615,-200.4798 327.147,-210.3911 314.8129,-223.469 303.3953,-240.3949 295.0409,-255.9138 286.911,-272.6594 280.157,-297.284 275.2011,-321.8309 275.3506,-350.8814 277.0911,-382.175 286.2545,-422.2482 299.257,-455.2869 317.0528,-487.7416 334.2403,-509.131 356.3148,-530.5325 374.8014,-541.1867 394.3375,-549.9944 414.1238,-555.8704 435.2563,-561.4793 452.8565,-563.7461 471.6768,-564.8378 490.1564,-563.7436 508.16,-561.3869 523.5596,-558.7265 NaN,NaN 581.5289,-552.7923 577.864,-546.2487 580.8537,-553.1271 539.0905,-571.0737 526.1071,-573.5086 510.0908,-576.2621 491.0026,-578.7198 470.7926,-579.8117 450.8889,-578.6165 431.4057,-575.9766 409.8069,-570.2358 388.145,-563.6565 367.1819,-554.1074 345.8528,-541.2818 322.5093,-518.479 303.8884,-494.9319 285.286,-460.7468 271.6234,-425.5547 262.114,-383.0025 260.3506,-350.8814 260.5001,-318.8509 265.7102,-293.2478 273.4197,-266.1031 281.8489,-248.7743 291.0006,-231.9467 303.9434,-213.132 317.8414,-198.6265 331.5502,-187.8323 348.4369,-177.0659 366.1135,-166.3589 385.6062,-158.0757 401.768,-151.9106 417.3397,-147.0162 432.9524,-144.338 448.3638,-141.953 456.8268,-141.4372 470.8904,-141.3301 485.7535,-141.511 494.6659,-142.1893 510.8506,-145.0322 532.4832,-150.3172 550.3435,-156.65 570.0495,-165.0113 594.3423,-177.4309 614.3253,-191.4175 632.8566,-213.2699 650.8727,-238.4532 665.5811,-271.6933 676.3018,-305.9425 681.4153,-349.1039 680.4831,-384.5224 670.7761,-427.0329 657.0799,-462.1557 638.0511,-496.6629 619.872,-519.0871 601.6681,-539.2754 590.6567,-547.6801 " stroke="none" fill="blue" stroke-width="0" shape-rendering="crispEdges" />
<polygon points="-633.0078,205.0104 -628.3185,210.8636 -634.6737,206.8808 -645.2621,223.7765 -654.8696,242.1131 -664.6257,263.5807 -675.3059,297.251 -682.5579,331.6625 -682.7175,363.7493 -680.7272,393.2865 -678.1616,420.2232 -667.3173,448.5797 -656.2696,473.0909 -644.659,492.1387 -630.4636,511.2785 -615.3867,529.8398 -601.518,540.7055 -586.3601,550.296 -569.8712,558.834 -552.021,565.6922 -533.0535,571.9364 -513.3927,575.9829 -492.1211,578.4419 -471.5792,579.3848 -450.8744,578.4596 -429.7276,576.0361 -410.2849,572.0948 -390.7968,565.7231 -373.394,559.0805 -356.7326,550.5348 -341.5797,541.0068 -328.4094,530.963 -312.2917,511.4558 -297.5881,490.0942 -283.246,458.9635 -271.8414,426.3433 -262.2684,384.243 -261.2341,348.933 -266.3396,306.1267 -276.9839,271.8739 -291.6093,238.4968 -309.5799,213.2266 -328.0644,191.2288 -348.0521,177.115 -365.0761,166.6746 -385.3127,157.9891 -401.3213,151.8748 -415.9638,147.1358 -432.5182,144.2518 -447.3574,141.9538 -456.1175,141.3987 -470.645,141.3057 -485.4024,141.4404 -493.8937,141.9963 -509.2748,144.44 -524.886,147.187 -540.6357,152.1112 -556.8343,158.3115 -576.3041,166.5991 -589.1759,173.1953 -600.6093,179.227 NaN,NaN -621.9634,214.8463 -622.6307,215.9111 -623.6292,216.7168 -628.3185,210.8636 NaN,NaN -632.5518,231.742 -622.6307,215.9111 -593.6099,192.4938 -582.3169,186.5353 -570.4261,180.3994 -551.4614,172.3163 -536.1023,166.4097 -522.2858,161.9599 -506.8906,159.2493 -492.8918,156.9629 -485.2645,156.4398 -470.7298,156.3054 -457.0096,156.3721 -449.6522,156.7772 -435.0239,159.041 -420.573,161.4101 -406.669,165.8891 -391.1776,171.795 -372.9109,179.4659 -356.5705,189.4615 -339.541,200.8874 -321.758,221.9841 -305.3408,244.5339 -291.2923,276.3759 -281.2307,307.9306 -276.2294,348.5556 -276.8987,380.9333 -286.0056,421.4062 -296.8902,452.7317 -309.952,481.601 -323.9327,501.9961 -337.5274,519.0524 -349.5842,528.321 -363.6113,537.205 -378.7491,545.069 -395.4939,551.4775 -413.2858,557.398 -431.4478,561.1351 -451.5665,563.4755 -470.9043,564.4 -490.4182,563.5389 -510.4065,561.2832 -528.3689,557.6866 -546.6756,551.6769 -562.9939,545.5034 -578.3617,537.6064 -592.4064,528.79 -603.7464,520.3791 -618.4268,502.3278 -631.8718,484.2972 -642.5965,466.9227 -653.359,443.0874 -663.2293,418.7994 -665.7617,392.2693 -667.7175,363.7493 -667.8771,334.7404 -661.001,301.7643 -650.9666,269.78 -641.5752,249.06 " stroke="none" fill="red" stroke-width="0" shape-rendering="crispEdges" />
<polygon points="649.525,222.2819 642.5348,225 647.6567,219.5212 639.5752,211.9663 628.5738,202.7314 611.1077,190.3983 592.5115,177.5038 575.5292,167.0318 553.7346,156.2926 537.4087,149.991 527.5563,146.8035 510.7654,143.9564 488.2859,142.0816 471.9309,142.123 456.1727,142.2049 431.9621,144.4895 409.7992,149.7486 392.4793,156.1373 372.9108,164.4917 348.921,176.7613 329.6022,190.0124 309.9771,212.8953 292.4344,237.2188 278.0423,262.9797 267.0699,297.2369 259.8408,331.6789 259.6825,363.8738 261.6884,393.4292 264.269,420.3185 271.4245,443.6237 281.5099,466.9711 290.8031,483.6736 301.7799,500.1388 315.5807,518.1479 327.577,530.3794 340.9716,540.6953 356.1297,550.2711 372.6227,558.7975 390.4701,565.6448 409.4445,571.8811 429.0993,575.9217 450.363,578.3797 470.8997,579.3208 491.5975,578.3984 512.7378,575.9779 532.1756,572.0435 551.6678,565.6838 569.0703,559.0547 585.7438,550.5203 600.9,541.0114 614.0715,530.9969 626.2345,518.787 640.362,500.4913 651.9953,481.6842 664.0394,452.7585 674.2829,421.7605 680.4212,383.8288 681.3386,348.8929 681.3408,317.9435 678.7456,298.0118 NaN,NaN 637.413,230.4788 636.1722,229.3188 635.5447,227.7181 642.5348,225 NaN,NaN 629.3316,222.9238 636.1722,229.3188 663.8776,299.9973 666.3408,317.9435 666.343,348.5278 665.6078,381.4699 660.0376,417.0627 650.1741,447.0354 639.2244,473.8163 628.4668,491.3534 615.5627,508.2459 604.9709,519.073 592.9084,528.3176 578.8763,537.1848 563.7246,545.0396 546.9796,551.4353 529.1791,557.3459 511.0191,561.0767 490.9073,563.4143 471.5733,564.3359 452.0659,563.4767 432.0823,561.2213 414.1222,557.6291 395.8089,551.627 379.4912,545.4624 364.1194,537.576 350.0727,528.7718 338.2504,519.84 327.4803,509.0156 314.2507,491.8033 303.8964,476.3548 295.2704,461.0004 285.7341,439.1253 279.2002,418.884 276.6534,392.4046 274.6825,363.8738 274.5242,334.7445 281.3744,301.7517 291.1498,270.273 304.6066,245.9844 321.4487,222.5598 338.1205,202.3591 355.7602,190.1114 378.806,178.2847 397.7115,170.1952 413.31,164.332 433.39,159.4214 456.2506,157.2047 471.9946,157.1229 487.0555,157.031 508.3296,158.7573 522.9546,161.0802 532.0314,163.994 547.1236,169.7571 567.6631,179.8038 583.9644,189.8305 602.4707,202.6621 618.9386,214.2276 " stroke="none" fill="red" stroke-width="0" shape-rendering="crispEdges" />
<polygon points="-670.2083,-394.029 -670.2305,-393.2283 -670.4139,-392.4656 -677.7059,-394.2198 NaN,NaN -671.4375,-349.5535 -670.2305,-393.2283 -665.9207,-411.1438 -663.182,-422.2599 -653.7141,-443.658 -640.7915,-469.4607 -625.7687,-489.5059 -608.6472,-509.1273 -586.2474,-530.7876 -567.7752,-541.3064 -548.1197,-550.1214 -528.3478,-555.9298 -507.247,-561.4601 -487.6489,-563.6131 -468.7119,-564.6828 -449.4402,-563.7547 -431.5136,-561.3843 -413.2105,-557.6373 -395.4399,-551.7388 -378.667,-545.3353 -363.4701,-537.4304 -349.4026,-528.5432 -337.3677,-519.3241 -326.758,-508.4716 -313.8625,-491.5339 -303.1883,-474.0651 -292.2702,-447.2343 -282.418,-417.202 -276.9091,-381.576 -276.1967,-348.7582 -281.2509,-307.9492 -291.3334,-276.4617 -303.4655,-246.7643 -319.7955,-224.4706 -341.0346,-202.2778 -358.3221,-190.5253 -381.027,-178.9119 -402.1889,-168.4241 -417.6644,-162.5604 -433.7024,-159.2022 -449.1178,-156.5305 -456.4364,-156.1064 -471.5689,-156.0816 -486.8213,-156.0915 -494.4795,-156.5583 -508.5108,-158.8004 -523.8696,-161.4413 -536.1432,-165.7177 -551.5908,-171.6396 -570.6189,-179.7354 -586.3141,-189.3917 -604.5771,-201.9773 -621.225,-221.9836 -638.1564,-245.4896 -651.6725,-270.059 -661.551,-301.7026 -668.9862,-331.2684 NaN,NaN -684.9979,-395.9739 -677.7059,-394.2198 -685.2035,-394.4106 -686.2994,-347.5232 -683.5316,-327.6036 -675.8497,-297.1694 -664.8011,-262.8036 -650.3206,-236.7128 -632.6588,-212.2744 -613.0822,-189.6216 -594.1193,-176.5824 -576.4882,-165.9314 -556.9556,-157.6318 -540.9768,-151.5178 -526.4108,-146.6581 -510.8411,-143.9825 -495.367,-141.5846 -486.831,-141.0915 -471.5303,-141.0816 -455.4791,-141.1369 -446.5508,-141.7518 -430.5502,-144.5371 -412.3205,-148.5446 -395.5276,-154.9843 -374.1635,-165.5743 -349.796,-178.1841 -330.1741,-191.9313 -307.6274,-215.6992 -289.5752,-241.1022 -277.0303,-271.9425 -266.3612,-306.134 -261.2009,-349.1138 -262.0915,-383.9084 -268.1683,-421.8864 -278.3954,-452.9343 -290.4039,-481.9111 -301.953,-500.6534 -316.0831,-519.0095 -328.2698,-531.2501 -341.4117,-541.2375 -356.585,-550.7569 -373.3233,-559.3511 -390.7535,-565.988 -410.2169,-572.3355 -429.5691,-576.2578 -448.7495,-578.7388 -469.5672,-579.6584 -489.3449,-578.5169 -511.0525,-575.9693 -532.6229,-570.3077 -554.2837,-563.7963 -575.3309,-554.2645 -596.6838,-541.5617 -619.9579,-518.9796 -637.8127,-498.4469 -654.2058,-476.173 -667.4594,-449.6636 -677.7465,-425.8481 -680.5047,-414.6521 " stroke="none" fill="red" stroke-width="0" shape-rendering="crispEdges" />
<polygon points="574.8744,-539.3703 574.513,-539.5293 574.1992,-539.7051 577.864,-546.2487 NaN,NaN 536.3247,-556.3309 574.513,-539.5293 583.327,-534.5929 592.4974,-527.4053 608.6855,-509.0941 626.3962,-487.2202 643.9225,-454.9528 656.7918,-421.6071 665.8533,-381.2104 666.4189,-348.7729 661.409,-307.733 651.2825,-276.2265 637.1633,-244.5403 620.7029,-222.0613 602.8927,-201.1281 585.8753,-189.8128 563.2521,-178.3828 544.4963,-170.4634 527.4806,-164.4584 507.3163,-159.6098 492.0851,-156.9657 484.6793,-156.4725 470.7216,-156.3291 456.9425,-156.4367 449.296,-156.924 435.2775,-159.1567 419.8765,-161.8002 406.3291,-166.2003 390.9619,-172.087 371.9832,-180.1627 356.2579,-189.8656 339.615,-200.4798 327.147,-210.3911 314.8129,-223.469 303.3953,-240.3949 295.0409,-255.9138 286.911,-272.6594 280.157,-297.284 275.2011,-321.8309 275.3506,-350.8814 277.0911,-382.175 286.2545,-422.2482 299.257,-455.2869 317.0528,-487.7416 334.2403,-509.131 356.3148,-530.5325 374.8014,-541.1867 394.3375,-549.9944 414.1238,-555.8704 435.2563,-561.4793 452.8565,-563.7461 471.6768,-564.8378 490.1564,-563.7436 508.16,-561.3869 523.5596,-558.7265 NaN,NaN 581.5289,-552.7923 577.864,-546.2487 580.8537,-553.1271 539.0905,-571.0737 526.1071,-573.5086 510.0908,-576.2621 491.0026,-578.7198 470.7926,-579.8117 450.8889,-578.6165 431.4057,-575.9766 409.8069,-570.2358 388.145,-563.6565 367.1819,-554.1074 345.8528,-541.2818 322.5093,-518.479 303.8884,-494.9319 285.286,-460.7468 271.6234,-425.5547 262.114,-383.0025 260.3506,-350.8814 260.5001,-318.8509 265.7102,-293.2478 273.4197,-266.1031 281.8489,-248.7743 291.0006,-231.9467 303.9434,-213.132 317.8414,-198.6265 331.5502,-187.8323 348.4369,-177.0659 366.1135,-166.3589 385.6062,-158.0757 401.768,-151.9106 417.3397,-147.0162 432.9524,-144.338 448.3638,-141.953 456.8268,-141.4372 470.8904,-141.3301 485.7535,-141.511 494.6659,-142.1893 510.8506,-145.0322 532.4832,-150.3172 550.3435,-156.65 570.0495,-165.0113 594.3423,-177.4309 614.3253,-191.4175 632.8566,-213.2699 650.8727,-238.4532 665.5811,-271.6933 676.3018,-305.9425 681.4153,-349.1039 680.4831,-384.5224 670.7761,-427.0329 657.0799,-462.1557 638.0511,-496.6629 619.872,-519.0871 601.6681,-539.2754 590.6567,-547.6801 " stroke="none" fill="red" stroke-width="0" shape-rendering="crispEdges" />
<line x1="942.4778" y1="750" x2="942.4778" y2="-750" stroke="red" stroke-width="0.1"/>
<line x1="942.4778" y1="-750" x2="-903.2079" y2="-750" stroke="red" stroke-width="0.1"/>
<line x1="-903.2079" y1="-750" x2="-903.2079" y2="750" stroke="red" stroke-width="0.1"/>
<line x1="-903.2079" y1="750" x2="942.4778" y2="750" stroke="red" stroke-width="0.1"/>
"/>
</svg>