<!DOCTYPE svg PUBLIC "-//W3C//DTD SVG 1.1//EN" "http://www.w3.org/Graphics/SVG/1.1/DTD/svg11.dtd">
<svg xmlns="http://www.w3.org/2000/svg" version="1.200000" width="-1845.6857mm" height="-1500mm" xmlns:xlink="http://www.w3.org/1999/xlink">
<polygon points="-713.5285,-435.15 -706.8583,-431.7208 -714.1882,-433.3095 -720.3071,-405.0781 -722.6275,-377.7626 -723.8718,-348.7593 -723.8787,-317.4273 -713.9828,-285.1538 -703.0166,-258.8349 -691.4497,-240.9241 -673.7981,-221.3028 -653.9696,-202.6365 -635.1508,-192.1684 -616.6459,-183.083 -593.6439,-173.1532 -575.6632,-167.1698 -555.1993,-162.2115 -538.0509,-158.7238 -516.5488,-155.7508 -499.4793,-154.1682 -477.1855,-153.2739 -459.6914,-153.552 -436.9829,-154.9003 -418.4886,-157.348 -395.7114,-161.1493 -375.2828,-166.6025 -352.9299,-173.1271 -329.2516,-183.3977 -307.852,-193.0339 -290.2988,-202.5324 -269.2377,-221.6496 -250.8714,-243.2413 -238.322,-271.2822 -227.1732,-302.8713 -220.3347,-345.1308 -221.6598,-380.9521 -228.9762,-417.2822 -239.9185,-446.598 -253.6923,-472.8253 -270.2934,-492.83 -285.1141,-507.9812 -296.6636,-518.2128 -311.7478,-528.5358 -325.4906,-536.4771 -339.8648,-542.0251 -355.6191,-547.5224 -375.727,-553.6096 -393.367,-557.5183 -413.7622,-561.1885 -432.3472,-563.374 -452.8402,-564.7732 -472.0501,-565.1839 -493.1874,-564.3457 -512.6137,-562.8791 -534.9427,-559.4704 -554.2849,-555.9561 -577.9898,-549.4196 -596.8354,-543.4794 -613.1741,-537.5617 -631.9757,-526.4935 -655.1291,-507.839 -671.3576,-490.7535 -686.372,-474.6327 -701.0269,-458.856 NaN,NaN -699.5285,-430.1321 -699.727,-429.2164 -700.1882,-428.2915 -706.8583,-431.7208 NaN,NaN -705.6475,-401.9007 -699.727,-429.2164 -690.0368,-448.6473 -675.3953,-464.4096 -660.4527,-480.4539 -645.6884,-496.1826 -624.286,-513.6145 -608.0604,-523.4602 -592.3227,-529.1744 -573.9844,-534.9643 -551.6014,-541.1981 -532.6645,-544.6444 -511.4808,-547.9219 -492.5831,-549.3579 -472.3644,-550.1872 -453.8555,-549.8076 -434.0878,-548.4754 -416.4147,-546.4249 -396.5941,-542.8696 -380.0687,-539.2517 -360.5588,-533.3591 -345.1783,-527.9977 -332.9787,-523.4799 -320.1784,-516.1291 -306.5962,-506.9726 -295.8262,-497.4812 -281.7733,-483.1754 -266.9585,-465.8247 -253.9556,-441.3102 -243.6732,-414.2828 -236.6472,-380.3359 -235.1488,-347.4845 -241.321,-307.8553 -252.0762,-277.2674 -262.3163,-252.9373 -279.4087,-232.6746 -297.4511,-215.7174 -314.0111,-206.7111 -335.2531,-197.1448 -357.1339,-187.5259 -379.1755,-181.0886 -398.1832,-175.9443 -420.4726,-172.2162 -437.8765,-169.8736 -459.9399,-168.5499 -476.5911,-168.2621 -498.1011,-169.1048 -514.5048,-170.6109 -535.0655,-173.4237 -551.685,-176.794 -570.9485,-181.4096 -587.7038,-186.9269 -610.039,-196.5496 -628.011,-205.3602 -643.6976,-213.5675 -662.6816,-231.3737 -678.8972,-249.136 -689.1763,-264.6182 -699.6886,-289.7008 -708.8787,-317.4273 -708.8855,-348.1194 -707.6784,-376.528 " stroke="none" fill="blue" stroke-width="0" shape-rendering="crispEdges" />
<polygon points="673.689,213.9737 667.5884,218.3363 671.4668,211.917 662.653,206.5919 650.4558,200.0529 634.6636,191.8569 612.8184,182.0485 590.1377,172.1887 572.2449,166.1624 552.2175,160.8594 534.9925,157.3366 516.6238,154.9951 499.6813,153.4723 477.3124,152.6144 459.8976,152.9057 437.1173,154.266 415.4629,157.2798 392.68,161.0552 372.2462,166.0284 349.6632,172.5885 326.0748,182.8105 307.5327,191.9972 290.0609,201.5273 269.1,221.0816 250.726,242.7481 238.0323,270.8035 226.7996,302.5481 220.1084,345.083 220.7813,379.4597 224.2632,410.1409 232.4985,437.1323 243.9258,461.1064 254.8687,476.4821 270.3984,493.3355 285.0416,508.2637 296.521,518.437 311.594,528.7271 325.3598,536.6643 339.7094,542.1938 355.4829,547.6954 375.6531,553.8254 393.3187,557.7456 413.6918,561.4157 432.3017,563.6012 451.7835,565.0967 471.086,565.5014 490.2751,565.1131 509.8781,563.6246 528.3262,561.4792 548.8678,557.8069 566.2608,553.9857 586.7391,547.8052 602.6233,542.2941 616.0694,537.2337 630.4639,529.088 645.2439,519.115 657.0789,508.7326 671.9695,493.5791 688.033,474.7479 701.2342,452.4391 712.5921,428.9283 720.7163,397.0721 724.3946,366.1235 724.4453,334.2524 715.8353,298.2655 706.2765,267.8043 697.2835,247.2416 NaN,NaN 663.71,224.7557 662.4013,223.9649 661.4878,222.699 667.5884,218.3363 NaN,NaN 654.8963,219.4306 662.4013,223.9649 683.5524,253.2798 691.9668,272.3022 701.2676,301.841 709.4453,334.2524 709.4959,364.3828 706.1641,393.4342 699.0795,422.4161 688.2913,444.8576 676.6136,465.0217 661.2612,483.0752 647.142,497.4961 636.8396,506.6906 623.0003,516.0767 610.7836,523.1959 597.7014,528.1246 582.3899,533.4495 563.0374,539.3362 546.218,543.0428 526.5888,546.5802 508.7335,548.6683 489.9668,550.1163 471.3912,550.5045 452.9271,550.1404 434.0398,548.7022 416.3471,546.6526 396.5501,543.0978 380.0105,539.4722 360.4208,533.5315 345.0154,528.1635 332.8357,523.6601 320.0094,516.3101 306.4559,507.1989 295.7483,497.7582 281.4045,483.144 267.0354,467.7088 257.4465,454.6111 246.8252,432.6887 239.1659,408.4344 235.7774,379.1156 234.9331,347.3693 240.9436,307.5428 251.7594,276.8505 262.1815,252.4316 279.4281,231.9595 297.2475,214.6937 314.1979,205.4351 332.072,196.5594 353.8518,186.9918 375.8081,180.5994 395.1337,175.8532 417.5467,172.1344 438.0159,169.2391 460.1583,167.9034 476.7442,167.6036 498.3428,168.4124 514.7442,169.8768 531.9971,172.0345 548.3892,175.3627 567.4783,180.3849 584.1578,185.9452 606.6814,195.7356 627.7544,205.1709 643.3781,213.2781 " stroke="none" fill="blue" stroke-width="0" shape-rendering="crispEdges" />
<polygon points="-624.3199,200.9946 -624.821,201.3014 -625.2608,201.4978 -628.3185,194.6494 NaN,NaN -660.3678,223.0698 -624.821,201.3014 -613.7198,196.3449 -603.6207,192.306 -588.2453,186.9862 -570.9858,181.2406 -551.7128,176.5946 -535.1194,173.1997 -514.5421,170.3481 -492.6968,169.0653 -470.8999,168.1324 -449.5511,168.9711 -427.2628,170.1989 -406.7764,173.0061 -390.4169,176.3319 -370.7745,181.0646 -354.0708,186.6447 -332.0778,196.1765 -314.2305,204.9752 -297.1412,214.2831 -279.335,231.3699 -261.994,251.9081 -251.4048,276.365 -240.5329,307.1469 -234.6791,347.0666 -236.0568,380.4543 -245.8815,416.7783 -263.5684,450.183 -282.1923,479.3124 -297.3894,496.9332 -311.9209,511.5267 -325.1171,520.2787 -332.1626,523.3219 -345.0038,528.145 -360.4124,533.4959 -380.019,539.423 -396.5581,543.0371 -416.3639,546.5828 -434.0536,548.6283 -452.9361,550.0672 -471.3941,550.4356 -489.9666,550.0552 -508.7253,548.6151 -526.578,546.5356 -546.2119,543.001 -563.0253,539.2956 -582.3512,533.4172 -597.6513,528.0864 -610.7346,523.1445 -618.4817,519.6411 -631.6711,510.5812 -645.4588,496.5061 -660.3712,480.4766 -675.8628,462.3007 -693.8169,433.7809 -703.8434,406.7068 -706.8523,378.4947 -707.5484,346.0214 -701.3134,306.0597 -690.6021,276.1857 -679.2144,250.507 -668.9091,234.8726 NaN,NaN -631.3762,187.801 -628.3185,194.6494 -632.3171,188.3042 -672.5248,214.2831 -681.4758,226.6824 -692.9312,244.4368 -704.7429,271.1819 -716.1405,303.789 -722.5447,346.3574 -721.7546,380.2039 -717.8816,411.9918 -706.4931,441.8007 -687.276,472.0342 -671.3517,490.6956 -656.0993,507.0787 -640.0784,523.0036 -624.6391,533.3191 -616.0325,537.1778 -602.5811,542.2532 -586.7003,547.7729 -566.2486,553.9452 -548.8589,557.7656 -528.3086,561.4354 -509.8641,563.5718 -490.2688,565.0521 -471.0853,565.4324 -451.7917,565.0235 -432.3187,563.5276 -413.7164,561.3473 -393.3364,557.6871 -375.6742,553.78 -355.4895,547.665 -339.7149,542.1817 -326.0161,537.0047 -316.7156,532.7051 -301.2813,522.1001 -285.9994,506.6937 -269.548,487.3822 -250.2776,457.1369 -231.3829,420.6238 -221.0673,381.0145 -219.8453,344.84 -226.3928,302.1412 -237.7073,270.2511 -250.5501,242.2107 -269.0574,220.4443 -289.9707,201.1079 -307.604,191.5183 -326.1291,182.4065 -349.3397,172.4103 -367.2646,166.481 -387.4424,161.6298 -404.7574,158.1426 -426.4384,155.2216 -448.9795,153.982 -471.542,153.1462 -493.592,154.092 -516.612,155.4916 -538.1302,158.505 -555.2473,162.017 -575.724,167.0086 -593.1573,172.8133 -609.1979,178.3814 -619.8352,182.6481 " stroke="none" fill="blue" stroke-width="0" shape-rendering="crispEdges" />
<polygon points="662.7197,-483.6876 662.0251,-484.2875 661.5134,-484.9943 667.5884,-489.3924 NaN,NaN 625.7509,-515.6166 662.0251,-484.2875 675.822,-465.2301 686.1092,-443.5061 696.4908,-415.878 706.1705,-378.7448 708.5127,-347.8071 708.4891,-317.972 699.2721,-290.2517 688.8467,-265.0511 678.7594,-249.7317 662.6109,-231.9702 643.5784,-214.012 628.058,-205.9275 610.0311,-197.0846 587.6108,-187.4087 566.3525,-181.3472 546.8508,-176.6536 524.8906,-173.05 504.0952,-170.1676 482.3144,-168.8764 465.5154,-168.5766 444.0456,-169.3946 427.6581,-170.8684 406.9726,-173.6718 390.5336,-176.986 370.9407,-181.6722 354.1615,-187.2239 336.112,-193.7272 318.6111,-202.3107 302.5376,-210.5897 289.8227,-218.2481 277.8574,-228.7378 265.4438,-243.1431 256.9691,-256.2259 247.6058,-271.9344 239.275,-290.8998 233.8026,-314.4132 231.8027,-337.2521 233.0619,-364.8257 236.5438,-394.2741 246.5917,-426.0595 264.3211,-453.5769 282.0037,-478.7423 297.8119,-496.948 319.0889,-514.0705 335.7337,-523.9734 350.5268,-529.2516 368.8168,-535.0569 391.5526,-541.3851 410.0446,-544.7435 431.6,-548.0841 451.0747,-549.3707 471.5476,-550.2071 491.604,-549.3488 511.5237,-547.9912 532.643,-544.6798 551.5919,-541.1992 573.9079,-534.9499 592.2422,-529.1112 608.0163,-523.3082 617.7684,-519.2685 NaN,NaN 673.6635,-493.7906 667.5884,-489.3924 672.4572,-495.0973 631.9836,-529.2604 623.5011,-533.1298 613.1891,-537.3881 596.7902,-543.4051 577.9339,-549.3995 554.2997,-555.9528 534.9472,-559.5018 512.5417,-562.9566 492.2263,-564.3359 470.9334,-565.1945 450.0645,-564.3366 429.3008,-562.9069 407.3402,-559.4977 387.5275,-555.835 364.2736,-549.3524 345.3656,-543.3358 328.0144,-536.8347 309.6355,-525.7167 286.4701,-506.7646 269.7282,-487.3627 251.6484,-461.6021 232.272,-430.5256 221.6464,-396.0251 218.0759,-365.4736 216.8643,-335.8936 219.2108,-310.9376 225.5577,-284.8306 234.7238,-264.2497 244.4161,-248.0149 254.1202,-233.3057 268.0477,-217.3902 282.0973,-205.3905 295.6704,-197.254 312.0361,-188.8285 331.0295,-179.6144 349.4708,-172.9762 367.4551,-167.0828 387.5826,-162.2792 404.9636,-158.807 426.3236,-155.9279 443.4826,-154.4052 465.789,-153.5791 483.2175,-153.9036 506.1564,-155.3099 527.3328,-158.2502 550.366,-162.0713 570.5052,-166.9334 593.5594,-173.6387 616.641,-183.6194 635.1821,-192.7272 653.8826,-203.1113 673.749,-221.9231 691.3441,-241.5693 702.7127,-259.33 713.5623,-285.6922 723.4891,-317.972 723.4655,-348.9958 720.6814,-382.5439 710.5272,-421.1677 699.6338,-449.9936 687.9721,-474.0265 " stroke="none" fill="blue" stroke-width="0" shape-rendering="crispEdges" />
<polygon points="-713.5285,-435.15 -706.8583,-431.7208 -714.1882,-433.3095 -720.3071,-405.0781 -722.6275,-377.7626 -723.8718,-348.7593 -723.8787,-317.4273 -713.9828,-285.1538 -703.0166,-258.8349 -691.4497,-240.9241 -673.7981,-221.3028 -653.9696,-202.6365 -635.1508,-192.1684 -616.6459,-183.083 -593.6439,-173.1532 -575.6632,-167.1698 -555.1993,-162.2115 -538.0509,-158.7238 -516.5488,-155.7508 -499.4793,-154.1682 -477.1855,-153.2739 -459.6914,-153.552 -436.9829,-154.9003 -418.4886,-157.348 -395.7114,-161.1493 -375.2828,-166.6025 -352.9299,-173.1271 -329.2516,-183.3977 -307.852,-193.0339 -290.2988,-202.5324 -269.2377,-221.6496 -250.8714,-243.2413 -238.322,-271.2822 -227.1732,-302.8713 -220.3347,-345.1308 -221.6598,-380.9521 -228.9762,-417.2822 -239.9185,-446.598 -253.6923,-472.8253 -270.2934,-492.83 -285.1141,-507.9812 -296.6636,-518.2128 -311.7478,-528.5358 -325.4906,-536.4771 -339.8648,-542.0251 -355.6191,-547.5224 -375.727,-553.6096 -393.367,-557.5183 -413.7622,-561.1885 -432.3472,-563.374 -452.8402,-564.7732 -472.0501,-565.1839 -493.1874,-564.3457 -512.6137,-562.8791 -534.9427,-559.4704 -554.2849,-555.9561 -577.9898,-549.4196 -596.8354,-543.4794 -613.1741,-537.5617 -631.9757,-526.4935 -655.1291,-507.839 -671.3576,-490.7535 -686.372,-474.6327 -701.0269,-458.856 NaN,NaN -699.5285,-430.1321 -699.727,-429.2164 -700.1882,-428.2915 -706.8583,-431.7208 NaN,NaN -705.6475,-401.9007 -699.727,-429.2164 -690.0368,-448.6473 -675.3953,-464.4096 -660.4527,-480.4539 -645.6884,-496.1826 -624.286,-513.6145 -608.0604,-523.4602 -592.3227,-529.1744 -573.9844,-534.9643 -551.6014,-541.1981 -532.6645,-544.6444 -511.4808,-547.9219 -492.5831,-549.3579 -472.3644,-550.1872 -453.8555,-549.8076 -434.0878,-548.4754 -416.4147,-546.4249 -396.5941,-542.8696 -380.0687,-539.2517 -360.5588,-533.3591 -345.1783,-527.9977 -332.9787,-523.4799 -320.1784,-516.1291 -306.5962,-506.9726 -295.8262,-497.4812 -281.7733,-483.1754 -266.9585,-465.8247 -253.9556,-441.3102 -243.6732,-414.2828 -236.6472,-380.3359 -235.1488,-347.4845 -241.321,-307.8553 -252.0762,-277.2674 -262.3163,-252.9373 -279.4087,-232.6746 -297.4511,-215.7174 -314.0111,-206.7111 -335.2531,-197.1448 -357.1339,-187.5259 -379.1755,-181.0886 -398.1832,-175.9443 -420.4726,-172.2162 -437.8765,-169.8736 -459.9399,-168.5499 -476.5911,-168.2621 -498.1011,-169.1048 -514.5048,-170.6109 -535.0655,-173.4237 -551.685,-176.794 -570.9485,-181.4096 -587.7038,-186.9269 -610.039,-196.5496 -628.011,-205.3602 -643.6976,-213.5675 -662.6816,-231.3737 -678.8972,-249.136 -689.1763,-264.6182 -699.6886,-289.7008 -708.8787,-317.4273 -708.8855,-348.1194 -707.6784,-376.528 " stroke="none" fill="red" stroke-width="0" shape-rendering="crispEdges" />
<polygon points="673.689,213.9737 667.5884,218.3363 671.4668,211.917 662.653,206.5919 650.4558,200.0529 634.6636,191.8569 612.8184,182.0485 590.1377,172.1887 572.2449,166.1624 552.2175,160.8594 534.9925,157.3366 516.6238,154.9951 499.6813,153.4723 477.3124,152.6144 459.8976,152.9057 437.1173,154.266 415.4629,157.2798 392.68,161.0552 372.2462,166.0284 349.6632,172.5885 326.0748,182.8105 307.5327,191.9972 290.0609,201.5273 269.1,221.0816 250.726,242.7481 238.0323,270.8035 226.7996,302.5481 220.1084,345.083 220.7813,379.4597 224.2632,410.1409 232.4985,437.1323 243.9258,461.1064 254.8687,476.4821 270.3984,493.3355 285.0416,508.2637 296.521,518.437 311.594,528.7271 325.3598,536.6643 339.7094,542.1938 355.4829,547.6954 375.6531,553.8254 393.3187,557.7456 413.6918,561.4157 432.3017,563.6012 451.7835,565.0967 471.086,565.5014 490.2751,565.1131 509.8781,563.6246 528.3262,561.4792 548.8678,557.8069 566.2608,553.9857 586.7391,547.8052 602.6233,542.2941 616.0694,537.2337 630.4639,529.088 645.2439,519.115 657.0789,508.7326 671.9695,493.5791 688.033,474.7479 701.2342,452.4391 712.5921,428.9283 720.7163,397.0721 724.3946,366.1235 724.4453,334.2524 715.8353,298.2655 706.2765,267.8043 697.2835,247.2416 NaN,NaN 663.71,224.7557 662.4013,223.9649 661.4878,222.699 667.5884,218.3363 NaN,NaN 654.8963,219.4306 662.4013,223.9649 683.5524,253.2798 691.9668,272.3022 701.2676,301.841 709.4453,334.2524 709.4959,364.3828 706.1641,393.4342 699.0795,422.4161 688.2913,444.8576 676.6136,465.0217 661.2612,483.0752 647.142,497.4961 636.8396,506.6906 623.0003,516.0767 610.7836,523.1959 597.7014,528.1246 582.3899,533.4495 563.0374,539.3362 546.218,543.0428 526.5888,546.5802 508.7335,548.6683 489.9668,550.1163 471.3912,550.5045 452.9271,550.1404 434.0398,548.7022 416.3471,546.6526 396.5501,543.0978 380.0105,539.4722 360.4208,533.5315 345.0154,528.1635 332.8357,523.6601 320.0094,516.3101 306.4559,507.1989 295.7483,497.7582 281.4045,483.144 267.0354,467.7088 257.4465,454.6111 246.8252,432.6887 239.1659,408.4344 235.7774,379.1156 234.9331,347.3693 240.9436,307.5428 251.7594,276.8505 262.1815,252.4316 279.4281,231.9595 297.2475,214.6937 314.1979,205.4351 332.072,196.5594 353.8518,186.9918 375.8081,180.5994 395.1337,175.8532 417.5467,172.1344 438.0159,169.2391 460.1583,167.9034 476.7442,167.6036 498.3428,168.4124 514.7442,169.8768 531.9971,172.0345 548.3892,175.3627 567.4783,180.3849 584.1578,185.9452 606.6814,195.7356 627.7544,205.1709 643.3781,213.2781 " stroke="none" fill="red" stroke-width="0" shape-rendering="crispEdges" />
<polygon points="-624.3199,200.9946 -624.821,201.3014 -625.2608,201.4978 -628.3185,194.6494 NaN,NaN -660.3678,223.0698 -624.821,201.3014 -613.7198,196.3449 -603.6207,192.306 -588.2453,186.9862 -570.9858,181.2406 -551.7128,176.5946 -535.1194,173.1997 -514.5421,170.3481 -492.6968,169.0653 -470.8999,168.1324 -449.5511,168.9711 -427.2628,170.1989 -406.7764,173.0061 -390.4169,176.3319 -370.7745,181.0646 -354.0708,186.6447 -332.0778,196.1765 -314.2305,204.9752 -297.1412,214.2831 -279.335,231.3699 -261.994,251.9081 -251.4048,276.365 -240.5329,307.1469 -234.6791,347.0666 -236.0568,380.4543 -245.8815,416.7783 -263.5684,450.183 -282.1923,479.3124 -297.3894,496.9332 -311.9209,511.5267 -325.1171,520.2787 -332.1626,523.3219 -345.0038,528.145 -360.4124,533.4959 -380.019,539.423 -396.5581,543.0371 -416.3639,546.5828 -434.0536,548.6283 -452.9361,550.0672 -471.3941,550.4356 -489.9666,550.0552 -508.7253,548.6151 -526.578,546.5356 -546.2119,543.001 -563.0253,539.2956 -582.3512,533.4172 -597.6513,528.0864 -610.7346,523.1445 -618.4817,519.6411 -631.6711,510.5812 -645.4588,496.5061 -660.3712,480.4766 -675.8628,462.3007 -693.8169,433.7809 -703.8434,406.7068 -706.8523,378.4947 -707.5484,346.0214 -701.3134,306.0597 -690.6021,276.1857 -679.2144,250.507 -668.9091,234.8726 NaN,NaN -631.3762,187.801 -628.3185,194.6494 -632.3171,188.3042 -672.5248,214.2831 -681.4758,226.6824 -692.9312,244.4368 -704.7429,271.1819 -716.1405,303.789 -722.5447,346.3574 -721.7546,380.2039 -717.8816,411.9918 -706.4931,441.8007 -687.276,472.0342 -671.3517,490.6956 -656.0993,507.0787 -640.0784,523.0036 -624.6391,533.3191 -616.0325,537.1778 -602.5811,542.2532 -586.7003,547.7729 -566.2486,553.9452 -548.8589,557.7656 -528.3086,561.4354 -509.8641,563.5718 -490.2688,565.0521 -471.0853,565.4324 -451.7917,565.0235 -432.3187,563.5276 -413.7164,561.3473 -393.3364,557.6871 -375.6742,553.78 -355.4895,547.665 -339.7149,542.1817 -326.0161,537.0047 -316.7156,532.7051 -301.2813,522.1001 -285.9994,506.6937 -269.548,487.3822 -250.2776,457.1369 -231.3829,420.6238 -221.0673,381.0145 -219.8453,344.84 -226.3928,302.1412 -237.7073,270.2511 -250.5501,242.2107 -269.0574,220.4443 -289.9707,201.1079 -307.604,191.5183 -326.1291,182.4065 -349.3397,172.4103 -367.2646,166.481 -387.4424,161.6298 -404.7574,158.1426 -426.4384,155.2216 -448.9795,153.982 -471.542,153.1462 -493.592,154.092 -516.612,155.4916 -538.1302,158.505 -555.2473,162.017 -575.724,167.0086 -593.1573,172.8133 -609.1979,178.3814 -619.8352,182.6481 " stroke="none" fill="red" stroke-width="0" shape-rendering="crispEdges" />
<polygon points="662.7197,-483.6876 662.0251,-484.2875 661.5134,-484.9943 667.5884,-489.3924 NaN,NaN 625.7509,-515.6166 662.0251,-484.2875 675.822,-465.2301 686.1092,-443.5061 696.4908,-415.878 706.1705,-378.7448 708.5127,-347.8071 708.4891,-317.972 699.2721,-290.2517 688.8467,-265.0511 678.7594,-249.7317 662.6109,-231.9702 643.5784,-214.012 628.058,-205.9275 610.0311,-197.0846 587.6108,-187.4087 566.3525,-181.3472 546.8508,-176.6536 524.8906,-173.05 504.0952,-170.1676 482.3144,-168.8764 465.5154,-168.5766 444.0456,-169.3946 427.6581,-170.8684 406.9726,-173.6718 390.5336,-176.986 370.9407,-181.6722 354.1615,-187.2239 336.112,-193.7272 318.6111,-202.3107 302.5376,-210.5897 289.8227,-218.2481 277.8574,-228.7378 265.4438,-243.1431 256.9691,-256.2259 247.6058,-271.9344 239.275,-290.8998 233.8026,-314.4132 231.8027,-337.2521 233.0619,-364.8257 236.5438,-394.2741 246.5917,-426.0595 264.3211,-453.5769 282.0037,-478.7423 297.8119,-496.948 319.0889,-514.0705 335.7337,-523.9734 350.5268,-529.2516 368.8168,-535.0569 391.5526,-541.3851 410.0446,-544.7435 431.6,-548.0841 451.0747,-549.3707 471.5476,-550.2071 491.604,-549.3488 511.5237,-547.9912 532.643,-544.6798 551.5919,-541.1992 573.9079,-534.9499 592.2422,-529.1112 608.0163,-523.3082 617.7684,-519.2685 NaN,NaN 673.6635,-493.7906 667.5884,-489.3924 672.4572,-495.0973 631.9836,-529.2604 623.5011,-533.1298 613.1891,-537.3881 596.7902,-543.4051 577.9339,-549.3995 554.2997,-555.9528 534.9472,-559.5018 512.5417,-562.9566 492.2263,-564.3359 470.9334,-565.1945 450.0645,-564.3366 429.3008,-562.9069 407.3402,-559.4977 387.5275,-555.835 364.2736,-549.3524 345.3656,-543.3358 328.0144,-536.8347 309.6355,-525.7167 286.4701,-506.7646 269.7282,-487.3627 251.6484,-461.6021 232.272,-430.5256 221.6464,-396.0251 218.0759,-365.4736 216.8643,-335.8936 219.2108,-310.9376 225.5577,-284.8306 234.7238,-264.2497 244.4161,-248.0149 254.1202,-233.3057 268.0477,-217.3902 282.0973,-205.3905 295.6704,-197.254 312.0361,-188.8285 331.0295,-179.6144 349.4708,-172.9762 367.4551,-167.0828 387.5826,-162.2792 404.9636,-158.807 426.3236,-155.9279 443.4826,-154.4052 465.789,-153.5791 483.2175,-153.9036 506.1564,-155.3099 527.3328,-158.2502 550.366,-162.0713 570.5052,-166.9334 593.5594,-173.6387 616.641,-183.6194 635.1821,-192.7272 653.8826,-203.1113 673.749,-221.9231 691.3441,-241.5693 702.7127,-259.33 713.5623,-285.6922 723.4891,-317.972 723.4655,-348.9958 720.6814,-382.5439 710.5272,-421.1677 699.6338,-449.9936 687.9721,-474.0265 " stroke="none" fill="red" stroke-width="0" shape-rendering="crispEdges" />
<line x1="942.4778" y1="750" x2="942.4778" y2="-750" stroke="red" stroke-width="0.1"/>
<line x1="942.4778" y1="-750" x2="-903.2079" y2="-750" stroke="red" stroke-width="0.1"/>
<line x1="-903.2079" y1="-750" x2="-903.2079" y2="750" stroke="red" stroke-width="0.1"/>
<line x1="-903.2079" y1="750" x2="942.4778" y2="750" stroke="red" stroke-width="0.1"/>
"/>
</svg>