<!DOCTYPE svg PUBLIC "-//W3C//DTD SVG 1.1//EN" "http://www.w3.org/Graphics/SVG/1.1/DTD/svg11.dtd">
<svg xmlns="http://www.w3.org/2000/svg" version="1.200000" width="-1861.3936mm" height="-5mm" xmlns:xlink="http://www.w3.org/1999/xlink">
<polygon points="-1.6953,-0.25339 -1.6952,-0.35339 -67.6977,-0.38822 -74.2137,-0.39042 -82.5121,-0.3934 -93.7405,-0.39795 -104.1598,-0.40251 -115.8742,-0.40863 -125.3926,-0.4139 -133.4771,-0.41863 -142.1856,-0.4237 -150.6159,-0.42878 -158.3632,-0.43353 -167.6944,-0.43977 -178.5429,-0.44732 -188.684,-0.45614 -198.5972,-0.46491 -206.487,-0.47296 -214.5748,-0.48302 -222.1337,-0.4945 -228.0962,-0.50546 -234.819,-0.51926 -241.9665,-0.53382 -248.0159,-0.54624 -254.8192,-0.55916 -262.9148,-0.57498 -269.8105,-0.58756 -275.3001,-0.59814 -282.7136,-0.61251 -290.0474,-0.62831 -295.2985,-0.63959 -300.9193,-0.65201 -307.8489,-0.67099 -313.1017,-0.69065 -316.4863,-0.70892 -319.7738,-0.73514 -322.8796,-0.76207 -325.3747,-0.7893 -327.1438,-0.81351 -328.839,-0.83499 -332.1076,-0.85388 -336.5318,-0.87695 -340.7794,-0.89433 -345.1935,-0.91032 -351.3467,-0.93052 -356.7444,-0.94913 -361.5893,-0.96398 -366.7665,-0.98122 -372.5245,-1.0007 -376.9678,-1.018 -381.3699,-1.0359 -385.926,-1.0586 -389.8463,-1.0797 -393.5131,-1.1067 -396.7429,-1.1315 -398.841,-1.1511 -399.7077,-1.1676 -400.6226,-1.1413 -400.9092,-1.128 -400.1252,-1.0755 -398.8429,-1.0512 -396.7438,-1.0315 -393.5139,-1.0067 -389.847,-0.97972 -385.9265,-0.95859 -381.3704,-0.93594 -376.9682,-0.91804 -372.5248,-0.90075 -366.7669,-0.88122 -361.5896,-0.86398 -356.7447,-0.84913 -351.3471,-0.83052 -345.1938,-0.81032 -340.7798,-0.79433 -336.5323,-0.77695 -332.1081,-0.75388 -328.8396,-0.73499 -327.145,-0.71352 -325.376,-0.68931 -322.8807,-0.66208 -319.7747,-0.63514 -316.4871,-0.60892 -313.1023,-0.59065 -307.8493,-0.57099 -300.9196,-0.55201 -295.2987,-0.53959 -290.0476,-0.52831 -282.7138,-0.51251 -275.3003,-0.49814 -269.8106,-0.48756 -262.915,-0.47498 -254.8193,-0.45916 -248.016,-0.44624 -241.9667,-0.43382 -234.8192,-0.41926 -228.0964,-0.40546 -222.1339,-0.3945 -214.575,-0.38302 -206.4871,-0.37296 -198.5973,-0.36491 -188.6841,-0.35614 -178.543,-0.34732 -167.6944,-0.33977 -158.3633,-0.33353 -150.6159,-0.32878 -142.1857,-0.3237 -133.4772,-0.31863 -125.3927,-0.3139 -115.8743,-0.30863 -104.1599,-0.30251 -93.7405,-0.29795 -82.5122,-0.2934 -74.2138,-0.29042 -67.6978,-0.28822 NaN,NaN -401.2144,-1.1484 -401.1234,-1.1423 -401.1144,-1.1484 -400.123,-1.1755 -399.7077,-1.1676 -399.6709,-1.1687 -397.0596,-1.1943 -392.099,-1.2279 -386.0463,-1.2609 -377.1055,-1.2927 -364.5982,-1.3279 -352.8304,-1.3537 -342.9566,-1.3713 -330.1599,-1.3892 -318.1539,-1.4017 -307.9874,-1.4103 -294.595,-1.42 -280.9068,-1.4298 -267.9054,-1.437 -256.3495,-1.4431 -246.7411,-1.4475 -236.5715,-1.4515 -226.3381,-1.4551 -215.7776,-1.4584 -205.062,-1.4614 -191.1085,-1.4651 -166.6906,-1.4704 -155.3117,-1.4723 -142.4654,-1.4745 -130.8648,-1.476 -118.3923,-1.4777 -106.6258,-1.4789 -94.4427,-1.4802 -82.5576,-1.4811 -70.5962,-1.482 -46.8385,-1.4832 -34.8364,-1.4836 -23.1595,-1.4839 -11.1529,-1.4841 0.44677,-1.4842 12.4238,-1.4841 23.9837,-1.484 35.8964,-1.4837 47.4516,-1.4833 59.2636,-1.4828 70.8485,-1.4821 82.5203,-1.4814 105.6572,-1.4795 128.6601,-1.4769 140.5503,-1.4752 151.5094,-1.4737 163.5838,-1.4714 174.1783,-1.4695 196.6303,-1.4644 209.2331,-1.4607 218.8161,-1.4579 228.1956,-1.4548 237.1757,-1.4516 245.8822,-1.4482 254.1605,-1.4447 263.4271,-1.4404 274.4307,-1.4351 284.3002,-1.4291 295.3527,-1.4224 305.924,-1.4138 315.6096,-1.4059 323.0921,-1.3987 331.2754,-1.3901 339.0724,-1.3801 345.4246,-1.3711 353.2701,-1.3579 361.313,-1.3437 367.2668,-1.3307 373.5051,-1.3154 378.9411,-1.2986 383.4184,-1.2819 388.2864,-1.2586 392.6143,-1.2364 395.8006,-1.2121 398.39,-1.1877 399.7657,-1.172 399.9393,-1.1743 401.0659,-1.1969 400.7555,-1.242 400.2108,-1.2668 398.3912,-1.2877 395.8016,-1.3121 392.6151,-1.3364 388.2869,-1.3586 383.4189,-1.3819 378.9415,-1.3986 373.5055,-1.4154 367.2671,-1.4307 361.3132,-1.4437 353.2703,-1.4579 345.4248,-1.4711 339.0726,-1.4801 331.2756,-1.4901 323.0922,-1.4987 315.6097,-1.5059 305.9241,-1.5138 295.3528,-1.5224 284.3003,-1.5291 274.4308,-1.5351 263.4271,-1.5404 254.1606,-1.5447 245.8822,-1.5482 237.1757,-1.5516 228.1956,-1.5548 218.8161,-1.5579 209.2331,-1.5607 196.6303,-1.5644 174.1783,-1.5695 163.5838,-1.5714 151.5094,-1.5737 140.5503,-1.5752 128.6601,-1.5769 105.6572,-1.5795 82.5203,-1.5814 70.8485,-1.5821 59.2636,-1.5828 47.4516,-1.5833 35.8964,-1.5837 23.9837,-1.584 12.4238,-1.5841 0.44677,-1.5842 -11.1529,-1.5841 -23.1595,-1.5839 -34.8364,-1.5836 -46.8385,-1.5832 -70.5962,-1.582 -82.5576,-1.5811 -94.4427,-1.5802 -106.6258,-1.5789 -118.3923,-1.5777 -130.8648,-1.576 -142.4654,-1.5745 -155.3117,-1.5723 -166.6906,-1.5704 -191.1085,-1.5651 -205.062,-1.5614 -215.7776,-1.5584 -226.3381,-1.5551 -236.5716,-1.5515 -246.7411,-1.5475 -256.3496,-1.5431 -267.9055,-1.537 -280.9069,-1.5298 -294.5951,-1.52 -307.9875,-1.5103 -318.1539,-1.5017 -330.16,-1.4892 -342.9568,-1.4713 -352.8306,-1.4537 -364.5984,-1.4279 -377.1058,-1.3927 -386.0467,-1.3609 -392.0996,-1.3279 -397.0603,-1.2943 -399.6718,-1.2687 -400.6254,-1.2413 -401.1667,-1.2161 NaN,NaN 401.2644,-1.1681 401.1827,-1.18 401.1644,-1.1681 400.7503,-1.1421 400.2062,-1.1669 399.7657,-1.172 397.6301,-1.1438 394.3727,-1.1186 389.5832,-1.0871 383.1271,-1.0506 374.7363,-1.0159 366.3119,-0.9838 356.4495,-0.94921 347.3801,-0.91819 339.699,-0.88958 334.0403,-0.8618 329.3216,-0.83401 326.8128,-0.8061 323.6365,-0.77362 319.921,-0.73973 316.155,-0.71216 307.845,-0.67745 299.8325,-0.6523 293.0488,-0.63431 282.6272,-0.61261 271.0831,-0.59018 261.5944,-0.57144 249.1041,-0.54658 235.1468,-0.52012 224.6395,-0.50145 212.6217,-0.48243 199.8603,-0.46732 188.7887,-0.45733 175.0316,-0.44676 161.977,-0.43686 152.4236,-0.43054 141.6231,-0.42369 130.7674,-0.41739 120.9626,-0.41187 109.1682,-0.40586 95.1596,-0.399 82.8146,-0.39445 70.2601,-0.39007 41.1533,-0.51121 11.921,-0.63367 -16.3534,-0.75742 -44.5469,-0.88264 -72.9729,-1.009 -83.7696,-1.0125 -94.5792,-1.0168 -105.4277,-1.0215 -116.7254,-1.0273 -126.6473,-1.0328 -136.0395,-1.0387 -144.8518,-1.0449 -152.8528,-1.0509 -160.3809,-1.0576 -169.3086,-1.0661 -177.9411,-1.075 -187.3154,-1.0858 -196.4525,-1.0969 -203.0616,-1.1058 -209.9832,-1.1177 -217.698,-1.1338 -222.7981,-1.1471 -227.7982,-1.1634 -228.761,-1.1676 -229.1087,-1.1667 -233.8209,-1.1432 -236.0163,-1.1216 -235.9665,-1.1042 -232.951,-1.0858 -227.7986,-1.0634 -222.7985,-1.0471 -217.6983,-1.0338 -209.9834,-1.0177 -203.0617,-1.0058 -196.4526,-0.99687 -187.3155,-0.98583 -177.9412,-0.97495 -169.3087,-0.96611 -160.381,-0.95756 -152.8529,-0.95088 -144.8519,-0.94488 -136.0396,-0.93869 -126.6473,-0.93284 -116.7255,-0.92735 -105.4277,-0.92147 -94.5792,-0.91679 -83.7696,-0.91253 -72.973,-0.90899 -44.5473,-0.78264 -16.3538,-0.65742 11.9205,-0.53367 41.1528,-0.41121 70.2597,-0.29008 82.8147,-0.29445 95.1597,-0.299 109.1683,-0.30586 120.9627,-0.31187 130.7675,-0.31739 141.6232,-0.32369 152.4237,-0.33054 161.9771,-0.33686 175.0317,-0.34676 188.7888,-0.35733 199.8604,-0.36732 212.6218,-0.38243 224.6397,-0.40145 235.147,-0.42012 249.1043,-0.44658 261.5946,-0.47144 271.0833,-0.49018 282.6274,-0.51261 293.049,-0.53431 299.8327,-0.5523 307.8453,-0.57745 316.1554,-0.61216 319.9218,-0.63973 323.6374,-0.67362 326.8138,-0.70611 329.3227,-0.73402 334.0409,-0.7618 339.6995,-0.78958 347.3805,-0.81819 356.4499,-0.84921 366.3122,-0.8838 374.7367,-0.91587 383.1275,-0.9506 389.5838,-0.98714 394.3733,-1.0186 397.6309,-1.0438 399.9406,-1.0743 401.2154,-1.0999 NaN,NaN -236.2951,-1.2189 -236.1296,-1.1611 -235.9621,-1.2041 -232.9504,-1.1858 -228.761,-1.1676 -221.6474,-1.1865 -211.7123,-1.2084 -199.4172,-1.2312 -188.0287,-1.245 -177.9817,-1.256 -166.1534,-1.2665 -154.8844,-1.2745 -143.6175,-1.2808 -131.4725,-1.2867 -117.9576,-1.293 -105.2004,-1.2978 -92.9076,-1.3021 -79.7465,-1.3057 -68.3295,-1.3086 -54.9358,-1.3111 -44.131,-1.3129 -30.6505,-1.3144 -20.2496,-1.3153 -6.8118,-1.3158 3.3564,-1.3159 16.6321,-1.3155 26.7135,-1.3149 39.7131,-1.3136 49.8372,-1.3121 62.4476,-1.31 72.7338,-1.3077 84.8397,-1.3048 95.4021,-1.3016 106.8822,-1.2978 117.8337,-1.2934 128.5578,-1.2889 140.0139,-1.2831 149.8388,-1.2779 159.0063,-1.2724 167.6207,-1.2662 175.7462,-1.2596 182.8828,-1.2522 191.9075,-1.2418 200.2971,-1.2313 207.7587,-1.2209 215.6104,-1.2074 222.6109,-1.1906 227.401,-1.1765 231.3758,-1.1946 235.1228,-1.215 234.8569,-1.2411 232.0829,-1.2613 227.6389,-1.2758 222.6112,-1.2906 215.6106,-1.3074 207.7589,-1.3209 200.2972,-1.3313 191.9076,-1.3418 182.8829,-1.3522 175.7463,-1.3596 167.6208,-1.3662 159.0064,-1.3724 149.8388,-1.3779 140.014,-1.3831 128.5579,-1.3889 117.8338,-1.3934 106.8822,-1.3978 95.4021,-1.4016 84.8397,-1.4048 72.7338,-1.4077 62.4476,-1.41 49.8373,-1.4121 39.7131,-1.4136 26.7135,-1.4149 16.6321,-1.4155 3.3564,-1.4159 -6.8118,-1.4158 -20.2496,-1.4153 -30.6505,-1.4144 -44.131,-1.4129 -54.9358,-1.4111 -68.3295,-1.4086 -79.7465,-1.4057 -92.9076,-1.4021 -105.2005,-1.3978 -117.9577,-1.393 -131.4726,-1.3867 -143.6175,-1.3808 -154.8844,-1.3745 -166.1535,-1.3665 -177.9817,-1.356 -188.0288,-1.345 -199.4174,-1.3312 -211.7125,-1.3084 -221.6476,-1.2865 -229.1089,-1.2667 -233.8214,-1.2432 NaN,NaN 236.0886,-1.1203 235.4723,-1.1807 234.8552,-1.1411 232.0822,-1.1613 227.6386,-1.1758 227.401,-1.1765 225.6882,-1.1687 215.7692,-1.1385 203.064,-1.1124 189.2676,-1.0896 177.3162,-1.0757 163.8389,-1.0616 153.6202,-1.0522 142.7635,-1.0439 131.2761,-1.0362 119.6655,-1.0294 107.3167,-1.0233 93.9735,-1.017 81.0739,-1.0123 59.2363,-1.0146 40.0486,-1.0181 23.7849,-1.0226 -1.6909,-1.0337 -1.6909,-0.93372 23.7849,-0.92259 40.0486,-0.91809 59.2363,-0.91455 81.0738,-0.91234 93.9735,-0.917 107.3167,-0.92332 119.6655,-0.92942 131.2761,-0.9362 142.7635,-0.94388 153.6202,-0.95224 163.839,-0.96157 177.3163,-0.97573 189.2677,-0.98965 203.0642,-1.0124 215.7694,-1.0385 225.6886,-1.0687 231.3762,-1.0946 NaN,NaN 236.0881,-1.2203 235.1228,-1.215 235.4723,-1.1807 NaN,NaN -236.2941,-1.1189 -236.0163,-1.1216 -236.1296,-1.1611 NaN,NaN 401.2134,-1.1999 401.0659,-1.1969 401.1827,-1.18 NaN,NaN -401.1621,-1.1162 -400.9092,-1.128 -401.1234,-1.1423 " stroke="none" fill="blue" stroke-width="0" shape-rendering="crispEdges" />
<polygon points="7.0591,1.4917 7.0591,1.5917 447.6063,1.5374 NaN,NaN 888.1535,1.5831 782.6776,1.5721 790.9687,1.5737 801.9277,1.5752 813.8179,1.5769 836.8207,1.5795 859.9574,1.5814 881.0539,1.5827 NaN,NaN 768.3001,1.5695 745.8482,1.5644 733.2452,1.5607 723.6626,1.5579 714.2852,1.5548 705.3054,1.5516 696.5986,1.5482 688.3206,1.5447 679.0537,1.5404 668.0479,1.5351 647.1257,1.5224 636.8706,1.5141 447.6063,1.5374 782.6776,1.5721 NaN,NaN 626.8687,1.5059 636.8706,1.5141 888.1536,1.4831 881.054,1.4827 859.9574,1.4814 836.8207,1.4795 813.8179,1.4769 801.9277,1.4752 790.9688,1.4737 778.8943,1.4714 768.3001,1.4695 745.8482,1.4644 733.2453,1.4607 723.6626,1.4579 714.2853,1.4548 705.3055,1.4516 696.5987,1.4482 688.3207,1.4447 679.0538,1.4404 668.0479,1.4351 647.1258,1.4224 636.5543,1.4138 626.8688,1.4059 619.3865,1.3987 611.2032,1.3901 603.406,1.3801 597.0538,1.3711 589.2081,1.3579 581.1647,1.3437 575.2108,1.3307 568.9723,1.3154 563.5361,1.2986 559.0586,1.2819 554.1903,1.2586 549.8621,1.2364 546.6759,1.2121 544.0864,1.1878 542.7099,1.172 542.5368,1.1743 541.4101,1.1969 541.7207,1.242 542.2655,1.2668 544.0852,1.2877 546.675,1.3121 549.8613,1.3364 554.1898,1.3586 559.0581,1.3819 563.5358,1.3986 568.972,1.4154 575.2106,1.4307 581.1645,1.4437 589.2079,1.4579 597.0536,1.4711 603.4059,1.4801 611.2031,1.4901 619.3863,1.4987 NaN,NaN 541.2117,1.1681 541.2934,1.18 541.3117,1.1681 541.7259,1.1422 542.27,1.1669 542.7099,1.172 544.8456,1.1438 548.103,1.1186 552.8929,1.0871 559.3483,1.0506 567.7396,1.0159 576.1642,0.98379 586.0246,0.94921 595.0933,0.91819 602.775,0.88958 608.4327,0.8618 613.1511,0.83401 615.6613,0.8061 618.8367,0.77362 622.5513,0.73973 626.3182,0.71217 634.6284,0.67745 642.6419,0.6523 649.4296,0.6343 659.8521,0.6126 671.3956,0.59017 680.885,0.57143 693.3753,0.54657 707.3303,0.52012 717.8374,0.50145 729.8559,0.48243 742.6167,0.46732 753.6884,0.45733 767.4481,0.44677 780.5029,0.43686 790.0553,0.43054 800.8564,0.4237 811.7109,0.4174 821.5131,0.41189 833.3065,0.40588 847.316,0.39901 859.6602,0.39446 872.3677,0.39005 885.0493,0.38692 896.8178,0.38432 909.701,0.38235 919.6647,0.38092 927.8354,0.37996 942.4778,0.37873 942.4778,0.27873 927.8354,0.27996 919.6646,0.28092 909.7009,0.28235 896.8178,0.28432 885.0493,0.28692 872.3676,0.29005 859.6602,0.29446 847.316,0.29901 833.3065,0.30588 821.5131,0.31189 811.7108,0.3174 800.8563,0.3237 790.0553,0.33054 780.5028,0.33686 767.448,0.34677 753.6883,0.35733 742.6167,0.36732 729.8558,0.38243 717.8373,0.40145 707.3301,0.42012 693.3752,0.44657 680.8848,0.47143 671.3954,0.49017 659.8519,0.5126 649.4294,0.5343 642.6416,0.5523 634.6281,0.57745 626.3178,0.61217 622.5505,0.63974 618.8357,0.67362 615.6603,0.7061 613.15,0.73402 608.4321,0.7618 602.7745,0.78958 595.0929,0.81819 586.0243,0.84921 576.1638,0.88379 567.7392,0.91587 559.3479,0.9506 552.8923,0.98714 548.1023,1.0186 544.8448,1.0438 542.5355,1.0743 541.2607,1.0999 NaN,NaN 541.2627,1.1999 541.4101,1.1969 541.2934,1.18 " stroke="none" fill="blue" stroke-width="0" shape-rendering="crispEdges" />
<polygon points="-942.4778,0.27873 -942.4778,0.37873 -919.5178,0.38011 -913.5268,0.38095 -904.6266,0.38235 -893.9232,0.38425 -882.075,0.38681 -871.1717,0.38986 -859.9638,0.3934 -848.7359,0.39794 -838.3158,0.4025 -826.6021,0.40862 -817.0829,0.41389 -808.9956,0.41862 -800.2865,0.4237 -791.8571,0.42877 -784.1093,0.43353 -774.7789,0.43977 -763.9334,0.44732 -753.7929,0.45613 -743.8794,0.46491 -735.9891,0.47296 -727.901,0.48302 -720.3426,0.49449 -714.38,0.50546 -707.6575,0.51926 -700.5109,0.53382 -694.4618,0.54624 -687.6587,0.55916 -679.5638,0.57498 -672.6684,0.58756 -667.1788,0.59814 -659.7655,0.61252 -652.4315,0.62832 -647.1802,0.6396 -641.5597,0.65202 -634.6307,0.67099 -629.3783,0.69066 -625.9944,0.70892 -622.7075,0.73514 -619.6017,0.76208 -617.1062,0.78931 -615.337,0.81352 -613.6419,0.835 -610.3729,0.85389 -605.9487,0.87696 -601.7015,0.89434 -597.2867,0.91032 -591.133,0.93053 -585.7355,0.94914 -580.8901,0.96398 -575.7125,0.98122 -569.9549,1.0007 -565.5116,1.018 -561.1092,1.0359 -556.5531,1.0586 -552.633,1.0797 -548.9659,1.1067 -545.7359,1.1315 -543.6377,1.1511 -542.7713,1.1676 -541.8562,1.1413 -541.5695,1.128 -542.3534,1.0755 -543.6358,1.0512 -545.735,1.0316 -548.9651,1.0067 -552.6322,0.97973 -556.5525,0.9586 -561.1087,0.93594 -565.5112,0.91805 -569.9545,0.90075 -575.7122,0.88122 -580.8898,0.86399 -585.7352,0.84914 -591.1327,0.83053 -597.2864,0.81033 -601.7011,0.79434 -605.9483,0.77696 -610.3724,0.7539 -613.6413,0.735 -615.3357,0.71353 -617.1048,0.68932 -619.6006,0.66208 -622.7066,0.63515 -625.9936,0.60893 -629.3778,0.59066 -634.6303,0.57099 -641.5595,0.55202 -647.1799,0.5396 -652.4312,0.52832 -659.7653,0.51252 -667.1786,0.49814 -672.6682,0.48756 -679.5636,0.47498 -687.6585,0.45916 -694.4616,0.44624 -700.5106,0.43382 -707.6573,0.41926 -714.3798,0.40546 -720.3424,0.39449 -727.9009,0.38302 -735.989,0.37296 -743.8793,0.36491 -753.7928,0.35613 -763.9333,0.34732 -774.7788,0.33977 -784.1092,0.33353 -791.857,0.32877 -800.2865,0.3237 -808.9955,0.31862 -817.0829,0.31389 -826.602,0.30862 -838.3158,0.3025 -848.7359,0.29794 -859.9638,0.2934 -871.1716,0.28986 -882.075,0.28681 -893.9232,0.28425 -904.6266,0.28235 -913.5268,0.28095 -919.5177,0.28011 NaN,NaN -541.2642,1.1484 -541.3552,1.1423 -541.3642,1.1484 -542.3556,1.1755 -542.7713,1.1676 -542.8082,1.1687 -545.4195,1.1943 -550.3799,1.2279 -556.4331,1.2609 -565.3736,1.2927 -577.8813,1.3279 -589.6488,1.3537 -599.522,1.3713 -612.3182,1.3892 -624.3237,1.4017 -634.4894,1.4103 -647.8813,1.42 -661.57,1.4298 -674.5733,1.437 -686.1297,1.4431 -695.7378,1.4475 -705.9078,1.4515 -716.1411,1.4551 -726.6997,1.4584 -737.4152,1.4614 -751.369,1.4651 -762.4584,1.4675 -775.7871,1.4704 -787.1659,1.4723 -800.0124,1.4745 -811.613,1.476 -824.0856,1.4777 -835.8522,1.4789 -848.0353,1.4802 -859.9205,1.4811 -869.961,1.4818 -877.465,1.4823 -882.627,1.4826 -942.4777,1.3861 -942.4779,1.4861 -882.6272,1.5826 -877.465,1.5823 -869.961,1.5818 -859.9205,1.5811 -848.0353,1.5802 -835.8522,1.5789 -824.0856,1.5777 -811.613,1.576 -800.0124,1.5745 -787.1659,1.5723 -775.787,1.5704 -762.4583,1.5675 -751.369,1.5651 -737.4152,1.5614 -726.6997,1.5584 -716.141,1.5551 -705.9078,1.5515 -695.7378,1.5475 -686.1297,1.5431 -674.5732,1.537 -661.57,1.5298 -647.8813,1.52 -634.4893,1.5103 -624.3237,1.5017 -612.3181,1.4892 -599.5218,1.4713 -589.6486,1.4537 -577.8811,1.4279 -565.3734,1.3927 -556.4327,1.3609 -550.3794,1.3279 -545.4188,1.2943 -542.8072,1.2687 -541.8533,1.2413 -541.3119,1.2161 NaN,NaN -541.3166,1.1162 -541.5695,1.128 -541.3552,1.1423 " stroke="none" fill="blue" stroke-width="0" shape-rendering="crispEdges" />
<polygon points="942.4777,1.4861 942.4779,1.3861 894.3631,1.3127 888.7893,1.3117 880.03,1.31 869.7439,1.3077 857.6381,1.3048 847.0758,1.3016 835.5958,1.2978 824.6442,1.2934 813.9203,1.2889 802.4641,1.2831 792.6394,1.2778 783.4724,1.2724 774.8581,1.2662 766.7325,1.2596 759.596,1.2522 750.5712,1.2418 742.1811,1.2313 734.7194,1.2209 726.8678,1.2074 719.8672,1.1906 715.0767,1.1765 711.1019,1.1946 707.3549,1.215 707.6208,1.2411 710.395,1.2613 714.8391,1.2758 719.8669,1.2906 726.8676,1.3074 734.7193,1.3209 742.1809,1.3313 750.5711,1.3418 759.5959,1.3522 766.7324,1.3596 774.858,1.3662 783.4723,1.3724 792.6393,1.3778 802.4641,1.3831 813.9202,1.3889 824.6442,1.3934 835.5958,1.3978 847.0758,1.4016 857.6381,1.4048 869.7439,1.4077 880.03,1.41 888.7893,1.4117 894.363,1.4127 NaN,NaN 706.389,1.1203 707.0054,1.1807 707.6225,1.1411 710.3957,1.1613 714.8394,1.1758 715.0767,1.1765 716.7895,1.1687 726.7087,1.1385 739.4135,1.1124 753.21,1.0896 765.1621,1.0757 778.6393,1.0616 788.8577,1.0522 799.7148,1.0439 811.2018,1.0362 822.8115,1.0294 835.16,1.0233 848.5035,1.017 861.4029,1.0123 873.4779,1.0083 886.6885,1.005 897.902,1.0026 911.2326,1.0007 921.0886,0.99951 929.7068,0.9987 942.4778,0.99799 942.4778,0.89799 929.7068,0.8987 921.0886,0.89951 911.2326,0.90066 897.902,0.90259 886.6885,0.90502 873.4778,0.90827 861.4029,0.91234 848.5035,0.917 835.16,0.92332 822.8115,0.92942 811.2017,0.93621 799.7147,0.94389 788.8577,0.95224 778.6392,0.96157 765.162,0.97573 753.2099,0.98965 739.4134,1.0124 726.7085,1.0385 716.7892,1.0687 711.1014,1.0946 NaN,NaN 706.3895,1.2203 707.3549,1.215 707.0054,1.1807 " stroke="none" fill="blue" stroke-width="0" shape-rendering="crispEdges" />
<polygon points="-942.4778,0.89799 -942.4778,0.99799 -917.7968,0.99933 -912.2346,1 -903.3445,1.0014 -893.0698,1.0032 -880.8055,1.0059 -870.337,1.0088 -858.7076,1.0125 -847.8982,1.0168 -837.0495,1.0215 -825.7519,1.0273 -815.8298,1.0328 -806.4368,1.0387 -797.6243,1.0449 -789.6235,1.0509 -782.0953,1.0576 -773.1678,1.0661 -764.5362,1.075 -755.1617,1.0858 -746.0245,1.0969 -739.4156,1.1058 -732.4939,1.1177 -724.7791,1.1338 -719.6793,1.1471 -714.6794,1.1634 -713.7166,1.1676 -713.3694,1.1667 -708.6571,1.1432 -706.4615,1.1216 -706.5113,1.1042 -709.5266,1.0858 -714.679,1.0634 -719.679,1.0471 -724.7789,1.0338 -732.4937,1.0177 -739.4154,1.0058 -746.0244,0.99687 -755.1616,0.98583 -764.5361,0.97495 -773.1677,0.96611 -782.0952,0.95756 -789.6234,0.95087 -797.6242,0.94487 -806.4367,0.93868 -815.8298,0.93284 -825.7519,0.92734 -837.0494,0.92147 -847.8982,0.91679 -858.7076,0.91253 -870.337,0.9088 -880.8054,0.90589 -893.0698,0.90321 -903.3445,0.90143 -912.2345,0.90001 -917.7968,0.89933 NaN,NaN -706.1828,1.2189 -706.3483,1.1611 -706.5157,1.2041 -709.5272,1.1858 -713.7166,1.1676 -720.8306,1.1865 -730.7656,1.2084 -743.0605,1.2312 -754.4489,1.245 -764.4961,1.256 -776.3243,1.2665 -787.5935,1.2745 -798.8606,1.2808 -811.0057,1.2867 -824.5205,1.293 -837.2779,1.2978 -837.8079,1.3023 -728.5731,1.3036 -720.8304,1.2865 -713.3691,1.2667 -708.6566,1.2432 NaN,NaN -730.7655,1.3084 -743.0604,1.3312 -754.4488,1.345 -764.496,1.356 -776.3242,1.3665 -787.5934,1.3745 -798.8605,1.3808 -811.0056,1.3867 -824.5205,1.393 -837.2779,1.3978 -843.4242,1.3499 -849.5706,1.4021 -683.2301,1.4041 -514.1692,1.4051 -343.1162,1.4054 7.0347,1.4039 7.0347,1.3039 -343.1162,1.3054 -514.1692,1.3051 -683.2301,1.3041 -728.5731,1.3036 NaN,NaN -849.5706,1.3021 -843.4242,1.3499 -837.8079,1.3023 NaN,NaN -706.1838,1.1189 -706.4615,1.1216 -706.3483,1.1611 " stroke="none" fill="blue" stroke-width="0" shape-rendering="crispEdges" />
<polygon points="-1.2537,-0.2534 -1.2537,-0.3534 -439.7305,-0.32084 NaN,NaN -878.2072,-0.38828 -742.544,-0.36741 -729.8561,-0.38243 -717.8384,-0.40145 -707.3316,-0.42013 -693.3746,-0.44658 -680.8836,-0.47144 -671.3949,-0.49018 -659.8505,-0.51261 -649.4286,-0.53431 -642.6438,-0.5523 -634.6306,-0.57745 -626.3199,-0.61216 -622.5531,-0.63973 -618.8379,-0.67362 -615.6618,-0.7061 -613.1524,-0.73402 -608.4341,-0.7618 -602.7761,-0.78958 -595.0945,-0.81819 -586.0255,-0.84921 -576.1639,-0.88379 -567.7387,-0.91587 -559.3472,-0.9506 -552.8916,-0.98714 -548.1015,-1.0186 -544.8438,-1.0438 -542.5346,-1.0743 -541.5271,-1.1318 -541.7252,-1.1421 -542.2681,-1.1669 -542.7102,-1.172 -544.8451,-1.1438 -548.1023,-1.1186 -552.8923,-1.0871 -559.3478,-1.0506 -567.7392,-1.0159 -576.1643,-0.98379 -586.0258,-0.94921 -595.0948,-0.91819 -602.7765,-0.88958 -608.4346,-0.8618 -613.153,-0.83401 -615.6629,-0.8061 -618.8389,-0.77362 -622.554,-0.73973 -626.3207,-0.71216 -634.6311,-0.67745 -642.6441,-0.6523 -649.4288,-0.63431 -659.8508,-0.61261 -671.3951,-0.59018 -680.8838,-0.57144 -693.3748,-0.54658 -707.3318,-0.52013 -717.8386,-0.50145 -729.8562,-0.48243 -742.6171,-0.46733 -753.688,-0.45733 -767.4474,-0.44677 -780.5025,-0.43686 -790.0551,-0.43054 -800.8561,-0.4237 -811.7109,-0.4174 -821.5135,-0.41188 -833.307,-0.40588 -847.3164,-0.39901 -859.6608,-0.39446 -870.5752,-0.39051 NaN,NaN -542.5366,-1.1742 -541.3113,-1.1499 -541.3034,-1.1446 -541.2113,-1.1499 -541.2587,-1.218 -541.7207,-1.242 -542.2669,-1.2669 -544.0852,-1.2878 -546.6749,-1.3121 -549.8613,-1.3364 -554.1897,-1.3586 -559.0581,-1.3819 -563.5357,-1.3986 -568.972,-1.4154 -575.2105,-1.4307 -581.1644,-1.4437 -589.2076,-1.4579 -597.0534,-1.4711 -603.4056,-1.4801 -611.2028,-1.4901 -619.3861,-1.4987 -626.8686,-1.5059 -636.5541,-1.5138 -647.1255,-1.5224 -668.0476,-1.5351 -679.053,-1.5404 -688.3198,-1.5447 -696.5979,-1.5482 -705.3047,-1.5516 -714.2846,-1.5548 -723.6624,-1.5579 -733.2452,-1.5607 -745.8481,-1.5644 -768.3,-1.5695 -778.8943,-1.5714 -790.9687,-1.5737 -801.9277,-1.5752 -813.8179,-1.5769 -836.8207,-1.5795 -859.9574,-1.5814 -871.6292,-1.5821 -883.2141,-1.5828 -895.026,-1.5833 -906.5812,-1.5837 -918.4939,-1.584 -927.9187,-1.5842 -935.1834,-1.5843 -942.4778,-1.5843 -942.4778,-1.4843 -939.8958,-1.4843 -927.9187,-1.4842 -918.494,-1.484 -906.5812,-1.4837 -895.026,-1.4833 -883.2141,-1.4828 -871.6292,-1.4821 -859.9574,-1.4814 -836.8207,-1.4795 -813.8179,-1.4769 -801.9277,-1.4752 -790.9687,-1.4737 -778.8943,-1.4714 -768.3001,-1.4695 -745.8481,-1.4644 -733.2452,-1.4607 -723.6624,-1.4579 -714.2846,-1.4548 -705.3047,-1.4516 -696.598,-1.4482 -688.3199,-1.4447 -679.0531,-1.4404 -668.0477,-1.4351 -647.1256,-1.4224 -636.5542,-1.4138 -626.8687,-1.4059 -619.3862,-1.3987 -611.2029,-1.3901 -603.4058,-1.3801 -597.0535,-1.3711 -589.2078,-1.3579 -581.1646,-1.3437 -575.2107,-1.3307 -568.9722,-1.3154 -563.536,-1.2986 -559.0585,-1.2819 -554.1901,-1.2586 -549.8618,-1.2364 -546.6757,-1.2121 -544.0861,-1.1878 -542.7102,-1.172 NaN,NaN -541.2639,-1.1182 -541.3034,-1.1446 -541.5271,-1.1318 NaN,NaN -742.6169,-0.36733 -753.6879,-0.35733 -767.4473,-0.34677 -780.5024,-0.33686 -790.055,-0.33054 -800.8561,-0.3237 -811.7108,-0.3174 -821.5134,-0.31188 -833.307,-0.30588 -847.3164,-0.29901 -859.6608,-0.29446 -870.5752,-0.29051 -878.2072,-0.28828 -439.7305,-0.32084 -742.544,-0.36741 " stroke="none" fill="blue" stroke-width="0" shape-rendering="crispEdges" />
<polygon points="942.4778,-1.4843 942.4778,-1.5843 912.0287,-1.5839 905.0643,-1.5836 895.6395,-1.5832 883.8441,-1.5826 871.8817,-1.582 859.9203,-1.5811 848.0351,-1.5802 835.8519,-1.5789 824.0854,-1.5777 811.6128,-1.576 800.0122,-1.5745 787.1657,-1.5723 775.7869,-1.5704 762.4583,-1.5675 751.369,-1.5651 737.4152,-1.5614 726.6998,-1.5584 716.1404,-1.5551 705.9072,-1.5515 695.7374,-1.5475 686.1292,-1.5431 674.573,-1.537 661.5705,-1.5298 647.8821,-1.52 634.49,-1.5103 624.3237,-1.5017 612.3178,-1.4892 599.521,-1.4713 589.6474,-1.4537 577.8795,-1.4279 565.3718,-1.3927 556.4309,-1.3609 550.378,-1.3279 545.4173,-1.2943 542.805,-1.2686 541.8517,-1.2413 541.4865,-1.1946 542.3551,-1.1755 542.7706,-1.1676 542.8079,-1.1687 545.4182,-1.1943 550.3787,-1.2279 556.4314,-1.2609 565.3722,-1.2927 577.8798,-1.3279 589.6476,-1.3537 599.5212,-1.3713 612.318,-1.3892 624.3238,-1.4017 634.49,-1.4103 647.8822,-1.42 661.5706,-1.4298 674.5731,-1.437 686.1292,-1.4431 695.7374,-1.4475 705.9072,-1.4515 716.1405,-1.4551 726.6999,-1.4584 737.4153,-1.4614 751.369,-1.4651 762.4583,-1.4675 775.787,-1.4704 787.1657,-1.4723 800.0123,-1.4745 811.6128,-1.476 824.0854,-1.4777 835.852,-1.4789 848.0351,-1.4802 859.9203,-1.4811 871.8817,-1.482 883.8441,-1.4826 895.6395,-1.4832 905.0643,-1.4836 912.0287,-1.4839 NaN,NaN 541.8563,-1.1414 541.3637,-1.1662 541.3475,-1.1769 541.2637,-1.1662 541.3126,-1.0984 542.3532,-1.0755 543.6362,-1.0512 545.735,-1.0316 548.9652,-1.0067 552.6325,-0.97973 556.5528,-0.9586 561.109,-0.93594 565.5116,-0.91805 569.955,-0.90075 575.7126,-0.88122 580.8903,-0.86399 585.7359,-0.84914 591.1334,-0.83053 597.2873,-0.81033 601.7023,-0.79434 605.9493,-0.77697 610.3735,-0.7539 613.6423,-0.73501 615.3371,-0.71354 617.1064,-0.68933 619.6025,-0.66208 622.7087,-0.63515 625.9957,-0.60893 629.3793,-0.59066 634.6317,-0.571 641.5606,-0.55202 647.1808,-0.5396 652.4326,-0.52832 659.7669,-0.51252 667.1799,-0.49815 672.6698,-0.48757 679.5657,-0.47498 687.6603,-0.45917 694.4631,-0.44624 700.5125,-0.43382 707.6597,-0.41926 714.3816,-0.40546 720.3438,-0.3945 727.9024,-0.38302 735.9902,-0.37296 743.8797,-0.36491 753.793,-0.35614 763.9335,-0.34732 774.7787,-0.33977 784.109,-0.33353 791.8568,-0.32877 800.2862,-0.3237 808.9952,-0.31862 817.0827,-0.31389 826.6019,-0.30862 838.3155,-0.3025 848.7356,-0.29793 859.9634,-0.29339 870.4306,-0.29 879.1145,-0.2874 885.5099,-0.2857 942.4781,-0.60123 942.4775,-0.70123 885.5094,-0.3857 879.1145,-0.3874 870.4306,-0.39 859.9635,-0.39339 848.7357,-0.39793 838.3155,-0.4025 826.6019,-0.40862 817.0827,-0.41389 808.9953,-0.41862 800.2862,-0.4237 791.8568,-0.42877 784.1091,-0.43353 774.7787,-0.43977 763.9336,-0.44732 753.7931,-0.45614 743.8798,-0.46491 735.9903,-0.47296 727.9026,-0.48302 720.344,-0.4945 714.3818,-0.50546 707.6599,-0.51926 700.5128,-0.53382 694.4633,-0.54624 687.6605,-0.55917 679.5659,-0.57498 672.67,-0.58757 667.1801,-0.59815 659.7671,-0.61252 652.4328,-0.62832 647.181,-0.6396 641.5608,-0.65202 634.632,-0.671 629.3797,-0.69066 625.9962,-0.70893 622.7094,-0.73514 619.6034,-0.76208 617.1075,-0.78932 615.3384,-0.81353 613.6436,-0.835 610.3741,-0.8539 605.9499,-0.87696 601.7027,-0.89434 597.2877,-0.91033 591.1337,-0.93053 585.7362,-0.94914 580.8906,-0.96399 575.713,-0.98122 569.9554,-1.0008 565.512,-1.018 561.1094,-1.0359 556.5533,-1.0586 552.6331,-1.0797 548.966,-1.1067 545.7358,-1.1315 543.6371,-1.1512 542.7706,-1.1676 NaN,NaN 541.3148,-1.1984 541.3475,-1.1769 541.4865,-1.1946 " stroke="none" fill="blue" stroke-width="0" shape-rendering="crispEdges" />
<polygon points="-942.478,-0.70123 -942.4776,-0.60123 -880.4277,-0.90617 -872.2406,-0.9086 -861.4034,-0.91234 -848.5038,-0.917 -835.1604,-0.92332 -822.8117,-0.92942 -811.202,-0.93621 -799.7148,-0.94388 -788.8576,-0.95224 -778.6391,-0.96157 -765.1623,-0.97573 -753.21,-0.98965 -739.4137,-1.0124 -726.7089,-1.0385 -716.7898,-1.0687 -711.1018,-1.0946 -708.9852,-1.151 -710.3959,-1.1613 -714.8397,-1.1758 -715.0778,-1.1765 -716.7903,-1.1687 -726.7092,-1.1385 -739.4139,-1.1124 -753.2102,-1.0896 -765.1624,-1.0757 -778.6392,-1.0616 -788.8577,-1.0522 -799.7149,-1.0439 -811.2021,-1.0362 -822.8118,-1.0294 -835.1604,-1.0233 -848.5039,-1.017 -861.4034,-1.0123 -872.2406,-1.0086 -880.4278,-1.0062 NaN,NaN -711.1023,-1.1946 -708.7456,-1.1574 -706.3888,-1.2203 -707.6216,-1.2411 -710.3956,-1.2613 -714.8394,-1.2758 -719.8672,-1.2906 -726.8679,-1.3074 -734.7195,-1.3209 -742.181,-1.3313 -750.5713,-1.3418 -759.5962,-1.3522 -766.7327,-1.3596 -774.8583,-1.3662 -783.4726,-1.3724 -792.6394,-1.3778 -802.4641,-1.3831 -813.9203,-1.3889 -824.6443,-1.3934 -835.5959,-1.3978 -847.0759,-1.4016 -857.6383,-1.4048 -869.744,-1.4077 -880.0302,-1.41 -892.6405,-1.4121 -902.7646,-1.4136 -915.7642,-1.4149 -925.1889,-1.4155 -933.7523,-1.4161 -938.4647,-1.4163 -942.4778,-1.4164 -942.4778,-1.3164 -938.4647,-1.3163 -933.7523,-1.3161 -925.1889,-1.3155 -915.7642,-1.3149 -902.7646,-1.3136 -892.6405,-1.3121 -880.0302,-1.31 -869.744,-1.3077 -857.6383,-1.3048 -847.0759,-1.3016 -835.5959,-1.2978 -824.6443,-1.2934 -813.9204,-1.2889 -802.4642,-1.2831 -792.6395,-1.2778 -783.4726,-1.2724 -774.8584,-1.2662 -766.7327,-1.2596 -759.5963,-1.2522 -750.5714,-1.2418 -742.1812,-1.2313 -734.7196,-1.2209 -726.8681,-1.2074 -719.8674,-1.1906 -715.0778,-1.1765 NaN,NaN -706.3905,-1.1203 -707.6224,-1.1411 -707.7871,-1.1423 NaN,NaN -708.9852,-1.151 -707.7871,-1.1423 -708.7456,-1.1574 " stroke="none" fill="blue" stroke-width="0" shape-rendering="crispEdges" />
<polygon points="942.4778,-1.3164 942.4778,-1.4164 913.4602,-1.415 907.7717,-1.4143 898.347,-1.4129 887.5423,-1.4111 874.1484,-1.4086 862.7314,-1.4057 849.5703,-1.4021 837.2774,-1.3978 824.5201,-1.393 811.0052,-1.3867 798.8602,-1.3808 787.5935,-1.3745 776.3244,-1.3665 764.4959,-1.356 754.449,-1.345 743.0606,-1.3312 730.7653,-1.3084 720.8304,-1.2865 713.3695,-1.2667 708.6568,-1.2432 707.7325,-1.1968 709.5279,-1.1858 713.718,-1.1676 720.8307,-1.1865 730.7656,-1.2084 743.0608,-1.2312 754.4491,-1.245 764.4961,-1.256 776.3245,-1.2665 787.5936,-1.2745 798.8603,-1.2808 811.0052,-1.2867 824.5202,-1.293 837.2775,-1.2978 849.5703,-1.3021 862.7315,-1.3057 874.1484,-1.3086 887.5423,-1.3111 898.347,-1.3129 907.7717,-1.3143 913.4602,-1.315 NaN,NaN 713.37,-1.1667 708.6578,-1.1432 707.4197,-1.1811 706.1816,-1.1189 706.5141,-1.1042 709.5275,-1.0858 714.6797,-1.0634 719.6798,-1.0471 724.7796,-1.0338 732.4943,-1.0177 734.3657,-1.0144 848.3233,-1.0127 847.8981,-1.0168 837.0494,-1.0215 825.7519,-1.0273 815.8298,-1.0328 806.4368,-1.0387 797.6244,-1.0449 789.6236,-1.0509 782.0954,-1.0576 773.1679,-1.0661 764.5363,-1.075 755.1621,-1.0858 746.025,-1.0969 739.416,-1.1058 732.4945,-1.1177 724.7798,-1.1338 719.68,-1.1471 714.68,-1.1634 713.718,-1.1676 NaN,NaN 706.1861,-1.2188 706.5147,-1.2042 706.7017,-1.2031 NaN,NaN 858.7075,-0.91252 853.3028,-0.96466 847.8981,-0.91679 837.0493,-0.92147 825.7518,-0.92734 815.8297,-0.93284 806.4368,-0.93868 797.6243,-0.94487 789.6235,-0.95087 782.0953,-0.95756 773.1678,-0.96611 764.5362,-0.97495 755.1619,-0.98583 746.0248,-0.99687 739.4159,-1.0058 734.3657,-1.0144 691.0163,-1.0151 521.1206,-1.0187 349.352,-1.023 -1.249,-1.0337 -1.249,-0.93372 349.352,-0.92295 521.1206,-0.91867 691.0163,-0.91512 NaN,NaN 858.7075,-1.0125 848.3233,-1.0127 853.3028,-0.96466 NaN,NaN 706.7017,-1.2031 707.4197,-1.1811 707.7325,-1.1968 " stroke="none" fill="blue" stroke-width="0" shape-rendering="crispEdges" />
<polygon points="7.0259,0.35349 7.0258,0.25349 -53.6286,0.28543 -60.6838,0.28735 -70.1086,0.29004 -82.8148,0.29445 -95.1596,0.299 -109.1678,0.30586 -120.9622,0.31187 -130.7682,0.31739 -141.6239,0.32369 -152.4241,0.33053 -161.9778,0.33686 -175.0323,0.34676 -188.7883,0.35732 -199.86,0.36732 -212.6218,0.38243 -224.6396,0.40145 -235.1471,0.42012 -249.1053,0.44659 -261.5955,0.47144 -271.0838,0.49018 -282.628,0.51262 -293.0493,0.53431 -299.8315,0.5523 -307.844,0.57745 -316.1543,0.61216 -319.9203,0.63973 -323.6363,0.67362 -326.8129,0.70611 -329.3207,0.73401 -334.0392,0.7618 -339.698,0.78958 -347.379,0.81819 -356.4487,0.84921 -366.3121,0.8838 -374.7371,0.91587 -383.1281,0.9506 -389.5843,0.98714 -394.3741,1.0186 -397.632,1.0438 -399.9418,1.0743 -400.9494,1.1318 -400.7515,1.1421 -400.2088,1.1669 -399.766,1.172 -397.6307,1.1438 -394.3733,1.1186 -389.5837,1.0871 -383.1276,1.0506 -374.7366,1.0159 -366.3117,0.9838 -356.4484,0.94921 -347.3786,0.91819 -339.6976,0.88958 -334.0387,0.8618 -329.3201,0.83401 -326.8118,0.8061 -323.6353,0.77362 -319.9194,0.73972 -316.1536,0.71216 -307.8435,0.67745 -299.8312,0.6523 -293.049,0.63431 -282.6278,0.61262 -271.0836,0.59018 -261.5953,0.57144 -249.1051,0.54659 -235.1469,0.52012 -224.6394,0.50145 -212.6217,0.48243 -199.8599,0.46732 -188.7882,0.45732 -175.0322,0.44676 -161.9778,0.43686 -152.424,0.43053 -141.6239,0.42369 -130.7681,0.41739 -120.9621,0.41187 -109.1678,0.40586 -95.1596,0.399 -82.8147,0.39445 -70.1086,0.39004 -60.6838,0.38735 -53.6286,0.38543 NaN,NaN -399.9397,1.1742 -401.1653,1.1499 -401.1731,1.1446 -401.2653,1.1499 -401.2179,1.218 -400.756,1.242 -400.2099,1.2669 -398.3918,1.2877 -395.8021,1.3121 -392.6156,1.3364 -388.2874,1.3586 -383.419,1.3819 -378.9414,1.3986 -373.5052,1.4154 -367.2668,1.4307 -361.3128,1.4437 -353.2694,1.4579 -345.4238,1.4711 -339.0717,1.4801 -331.2744,1.4901 -323.0912,1.4987 -315.6089,1.5059 -305.9235,1.5138 -295.352,1.5224 -284.2997,1.5291 -274.4299,1.5351 -263.4243,1.5404 -254.1574,1.5447 -245.8794,1.5482 -237.1726,1.5516 -228.1928,1.5548 -218.8153,1.5579 -209.2326,1.5607 -196.6297,1.5644 -174.1778,1.5695 -163.5836,1.5714 -151.5092,1.5737 -140.5502,1.5752 -128.6601,1.5769 -105.6573,1.5795 -82.5206,1.5814 -70.8488,1.5821 -59.264,1.5828 -47.452,1.5833 -35.8969,1.5837 -23.9841,1.584 -12.4244,1.5841 -0.44718,1.5842 11.1523,1.5841 23.1591,1.5839 34.8358,1.5836 46.8381,1.5832 70.5959,1.582 82.5572,1.5811 94.4425,1.5802 106.6255,1.5789 118.3921,1.5777 130.8647,1.576 142.4653,1.5745 155.3118,1.5723 166.6907,1.5704 191.1087,1.5651 205.0624,1.5614 215.7779,1.5584 226.3373,1.5551 236.5706,1.5515 246.7404,1.5475 256.3487,1.5431 267.9049,1.537 280.9074,1.5298 294.5959,1.52 307.9881,1.5103 318.1541,1.5017 330.1598,1.4892 342.9563,1.4713 352.8298,1.4537 364.5975,1.4279 377.1051,1.3927 386.0459,1.3609 392.0991,1.3279 397.0599,1.2943 399.6724,1.2686 400.6262,1.2412 400.9915,1.1946 400.1233,1.1755 399.7074,1.1676 399.6695,1.1687 397.0589,1.1943 392.0984,1.2279 386.0454,1.2609 377.1047,1.2927 364.5972,1.3279 352.8296,1.3537 342.9561,1.3713 330.1597,1.3892 318.154,1.4017 307.988,1.4103 294.5958,1.42 280.9074,1.4298 267.9048,1.437 256.3486,1.4431 246.7404,1.4475 236.5706,1.4515 226.3373,1.4551 215.7779,1.4584 205.0624,1.4614 191.1087,1.4651 166.6907,1.4704 155.3118,1.4723 142.4653,1.4745 130.8647,1.476 118.3921,1.4777 106.6255,1.4789 94.4424,1.4802 82.5572,1.4811 70.5959,1.482 46.8381,1.4832 34.8358,1.4836 23.1591,1.4839 11.1523,1.4841 -0.44718,1.4842 -12.4244,1.4841 -23.9841,1.484 -35.8969,1.4837 -47.452,1.4833 -59.264,1.4828 -70.8488,1.4821 -82.5206,1.4814 -105.6573,1.4795 -128.6601,1.4769 -140.5502,1.4752 -151.5092,1.4737 -163.5836,1.4714 -174.1778,1.4695 -196.6297,1.4644 -209.2326,1.4607 -218.8153,1.4579 -228.1928,1.4548 -237.1726,1.4516 -245.8794,1.4482 -254.1574,1.4447 -263.4242,1.4404 -274.4299,1.4351 -284.2996,1.4291 -295.3519,1.4224 -305.9235,1.4138 -315.6089,1.4059 -323.0911,1.3987 -331.2743,1.3901 -339.0715,1.3801 -345.4237,1.3711 -353.2692,1.3579 -361.3127,1.3437 -367.2666,1.3307 -373.505,1.3154 -378.9411,1.2986 -383.4187,1.2819 -388.2869,1.2586 -392.615,1.2364 -395.8013,1.2121 -398.3909,1.1877 -399.766,1.172 NaN,NaN -401.2127,1.1182 -401.1731,1.1446 -400.9494,1.1318 NaN,NaN 400.6216,1.1414 401.1145,1.1662 401.1307,1.1768 401.2145,1.1662 401.1656,1.0984 400.1252,1.0755 398.8426,1.0512 396.7438,1.0315 393.514,1.0067 389.8471,0.97972 385.9266,0.95859 381.3704,0.93594 376.9682,0.91804 372.5247,0.90075 366.7668,0.88122 361.5895,0.86398 356.7445,0.84913 351.3468,0.83053 345.1934,0.81032 340.7791,0.79433 336.5317,0.77695 332.1072,0.75389 328.8387,0.735 327.1439,0.71352 325.3746,0.68931 322.8791,0.66208 319.7731,0.63514 316.4857,0.60892 313.1012,0.59065 307.8484,0.57099 300.919,0.55201 295.2983,0.5396 290.0471,0.52832 282.713,0.51251 275.2997,0.49814 269.81,0.48756 262.9144,0.47498 254.819,0.45916 248.0159,0.44624 241.9666,0.43382 234.8194,0.41926 228.0968,0.40546 222.1343,0.3945 214.5756,0.38302 206.4877,0.37296 198.5977,0.36491 188.6844,0.35614 178.5435,0.34732 167.6956,0.33977 158.3646,0.33353 150.6171,0.32877 142.187,0.3237 133.4783,0.31863 125.393,0.3139 115.8745,0.30863 104.1601,0.30251 93.7406,0.29794 82.5121,0.29341 73.2042,0.29023 45.8373,0.41109 19.8526,0.53297 -4.9468,0.65596 -31.4174,0.78025 -58.667,0.9054 -68.9992,0.90827 -81.0737,0.91234 -93.9734,0.917 -107.3165,0.92332 -119.6654,0.92941 -131.2761,0.9362 -142.7636,0.94388 -153.6203,0.95224 -163.8392,0.96157 -177.3163,0.97573 -189.2675,0.98965 -203.0637,1.0124 -215.7689,1.0385 -225.6877,1.0687 -231.3754,1.0946 -233.4919,1.151 -232.0811,1.1613 -227.6374,1.1758 -227.3989,1.1765 -225.6873,1.1687 -215.7686,1.1385 -203.0634,1.1124 -189.2673,1.0896 -177.3162,1.0757 -163.8391,1.0616 -153.6202,1.0522 -142.7635,1.0439 -131.2761,1.0362 -119.6653,1.0294 -107.3165,1.0233 -93.9734,1.017 -81.0737,1.0123 -68.9992,1.0083 -58.667,1.0054 -31.417,0.88025 -4.9463,0.75596 19.8531,0.63297 45.8378,0.51109 73.2047,0.39023 82.5121,0.39341 93.7405,0.39794 104.16,0.40251 115.8744,0.40863 125.393,0.4139 133.4783,0.41863 142.187,0.4237 150.617,0.42877 158.3645,0.43353 167.6955,0.43977 178.5435,0.44732 188.6843,0.45614 198.5977,0.46491 206.4876,0.47296 214.5755,0.48302 222.1341,0.4945 228.0966,0.50546 234.8192,0.51926 241.9664,0.53382 248.0157,0.54624 254.8188,0.55916 262.9142,0.57498 269.8098,0.58756 275.2995,0.59814 282.7128,0.61251 290.0469,0.62832 295.2981,0.6396 300.9188,0.65201 307.8481,0.67099 313.1008,0.69065 316.4852,0.70892 319.7723,0.73514 322.8782,0.76207 325.3735,0.78931 327.1425,0.81351 328.8375,0.83499 332.1067,0.85389 336.5311,0.87695 340.7787,0.89433 345.193,0.91032 351.3465,0.93052 356.7442,0.94913 361.5892,0.96398 366.7664,0.98122 372.5244,1.0007 376.9678,1.018 381.37,1.0359 385.9261,1.0586 389.8465,1.0797 393.5132,1.1067 396.7431,1.1315 398.8416,1.1511 399.7074,1.1676 NaN,NaN 401.1634,1.1984 401.1307,1.1768 400.9915,1.1946 NaN,NaN -231.3749,1.1946 -233.7316,1.1574 -236.0884,1.2203 -234.8556,1.2411 -232.0814,1.2613 -227.6377,1.2758 -222.6102,1.2906 -215.6094,1.3074 -207.7579,1.3209 -200.2966,1.3313 -191.9064,1.3418 -182.8816,1.3522 -175.7452,1.3596 -167.6196,1.3662 -159.0053,1.3724 -149.8385,1.3778 -140.0138,1.3831 -128.5576,1.3889 -117.8337,1.3934 -106.8821,1.3978 -95.4021,1.4016 -84.8398,1.4048 -72.734,1.4077 -62.4479,1.41 -49.8375,1.4121 -39.7135,1.4136 -26.7138,1.4149 -16.6326,1.4155 -3.3567,1.4159 6.8113,1.4158 20.2493,1.4153 30.65,1.4144 44.1307,1.4129 54.9352,1.4111 68.3292,1.4086 79.7461,1.4057 92.9073,1.4021 105.2001,1.3978 117.9575,1.393 131.4725,1.3867 143.6175,1.3808 154.8842,1.3745 166.1533,1.3665 177.9819,1.356 188.0289,1.345 199.4171,1.3312 211.7124,1.3084 221.6473,1.2865 229.1082,1.2667 233.8209,1.2432 234.7452,1.1968 232.9497,1.1858 228.7595,1.1676 221.6471,1.1865 211.7122,1.2084 199.4169,1.2312 188.0287,1.245 177.9818,1.256 166.1532,1.2665 154.8841,1.2745 143.6175,1.2808 131.4724,1.2867 117.9575,1.293 105.2001,1.2978 92.9073,1.3021 79.7461,1.3057 68.3292,1.3086 54.9352,1.3111 44.1306,1.3129 30.65,1.3144 20.2492,1.3153 6.8113,1.3158 -3.3567,1.3159 -16.6326,1.3155 -26.7138,1.3149 -39.7135,1.3136 -49.8375,1.3121 -62.4479,1.31 -72.7339,1.3077 -84.8397,1.3048 -95.402,1.3016 -106.8821,1.2978 -117.8336,1.2934 -128.5576,1.2889 -140.0137,1.2831 -149.8384,1.2778 -159.0053,1.2724 -167.6195,1.2662 -175.7451,1.2596 -182.8815,1.2522 -191.9063,1.2418 -200.2965,1.2313 -207.7578,1.2209 -215.6092,1.2074 -222.6099,1.1906 -227.3989,1.1765 NaN,NaN -236.0867,1.1203 -234.8549,1.1411 -234.6902,1.1423 NaN,NaN 229.1077,1.1667 233.8199,1.1432 235.058,1.1811 236.2961,1.1189 235.9636,1.1042 232.9502,1.0858 227.798,1.0634 222.7978,1.0471 217.6976,1.0338 209.9829,1.0177 203.0613,1.0058 196.4522,0.99687 187.3152,0.98583 177.9411,0.97495 169.3087,0.96612 160.381,0.95756 152.853,0.95088 144.8519,0.94488 136.0397,0.93869 126.6474,0.93284 116.7255,0.92735 105.4277,0.92147 94.5792,0.91679 83.7696,0.91253 64.1201,0.91516 46.6751,0.91875 31.1031,0.92307 7.0226,0.93392 7.0226,1.0339 31.1031,1.0231 46.6751,1.0188 64.1202,1.0152 83.7696,1.0125 94.5792,1.0168 105.4277,1.0215 116.7255,1.0273 126.6473,1.0328 136.0396,1.0387 144.8519,1.0449 152.8529,1.0509 160.381,1.0576 169.3087,1.0661 177.941,1.075 187.3151,1.0858 196.4521,1.0969 203.0612,1.1058 209.9827,1.1177 217.6974,1.1338 222.7975,1.1471 227.7977,1.1634 228.7595,1.1676 NaN,NaN 236.2917,1.2188 235.963,1.2042 235.776,1.2031 NaN,NaN -234.6902,1.1423 -233.7316,1.1574 -233.4919,1.151 NaN,NaN 234.7452,1.1968 235.776,1.2031 235.058,1.1811 " stroke="none" fill="blue" stroke-width="0" shape-rendering="crispEdges" />
<polygon points="-1.6909,-0.93372 -1.6909,-1.0337 -69.3708,-1.0075 -75.468,-1.0096 -83.7696,-1.0125 -94.5792,-1.0168 -105.4277,-1.0215 -116.7254,-1.0273 -126.6473,-1.0328 -136.0395,-1.0387 -144.8518,-1.0449 -152.8528,-1.0509 -160.3809,-1.0576 -169.3086,-1.0661 -177.9411,-1.075 -187.3154,-1.0858 -196.4525,-1.0969 -203.0616,-1.1058 -209.9832,-1.1177 -217.698,-1.1338 -222.7981,-1.1471 -227.7982,-1.1634 -228.761,-1.1676 -229.1087,-1.1667 -233.8209,-1.1432 -236.0163,-1.1216 -235.9665,-1.1042 -232.951,-1.0858 -227.7986,-1.0634 -222.7985,-1.0471 -217.6983,-1.0338 -209.9834,-1.0177 -203.0617,-1.0058 -196.4526,-0.99687 -187.3155,-0.98583 -177.9412,-0.97495 -169.3087,-0.96611 -160.381,-0.95756 -152.8529,-0.95088 -144.8519,-0.94488 -136.0396,-0.93869 -126.6473,-0.93284 -116.7255,-0.92735 -105.4277,-0.92147 -94.5792,-0.91679 -83.7696,-0.91253 -75.468,-0.90955 -69.3708,-0.90753 NaN,NaN -236.2951,-1.2189 -236.1296,-1.1611 -235.9621,-1.2041 -232.9504,-1.1858 -228.761,-1.1676 -221.6474,-1.1865 -211.7123,-1.2084 -199.4172,-1.2312 -188.0287,-1.245 -177.9817,-1.256 -166.1534,-1.2665 -154.8844,-1.2745 -143.6175,-1.2808 -131.4725,-1.2867 -117.9576,-1.293 -105.2004,-1.2978 -92.9076,-1.3021 -79.7465,-1.3057 -68.3295,-1.3086 -54.9358,-1.3111 -44.131,-1.3129 -30.6505,-1.3144 -20.2496,-1.3153 -6.8118,-1.3158 3.3564,-1.3159 16.6321,-1.3155 26.7135,-1.3149 39.7131,-1.3136 49.8372,-1.3121 62.4476,-1.31 72.7338,-1.3077 84.8397,-1.3048 95.4021,-1.3016 106.8822,-1.2978 117.8337,-1.2934 128.5578,-1.2889 140.0139,-1.2831 149.8388,-1.2779 159.0063,-1.2724 167.6207,-1.2662 175.7462,-1.2596 182.8828,-1.2522 191.9075,-1.2418 200.2971,-1.2313 207.7587,-1.2209 215.6104,-1.2074 222.6109,-1.1906 227.401,-1.1765 231.3758,-1.1946 235.1228,-1.215 234.8569,-1.2411 232.0829,-1.2613 227.6389,-1.2758 222.6112,-1.2906 215.6106,-1.3074 207.7589,-1.3209 200.2972,-1.3313 191.9076,-1.3418 182.8829,-1.3522 175.7463,-1.3596 167.6208,-1.3662 159.0064,-1.3724 149.8388,-1.3779 140.014,-1.3831 128.5579,-1.3889 117.8338,-1.3934 106.8822,-1.3978 95.4021,-1.4016 84.8397,-1.4048 72.7338,-1.4077 62.4476,-1.41 49.8373,-1.4121 39.7131,-1.4136 26.7135,-1.4149 16.6321,-1.4155 3.3564,-1.4159 -6.8118,-1.4158 -20.2496,-1.4153 -30.6505,-1.4144 -44.131,-1.4129 -54.9358,-1.4111 -68.3295,-1.4086 -79.7465,-1.4057 -92.9076,-1.4021 -105.2005,-1.3978 -117.9577,-1.393 -131.4726,-1.3867 -143.6175,-1.3808 -154.8844,-1.3745 -166.1535,-1.3665 -177.9817,-1.356 -188.0288,-1.345 -199.4174,-1.3312 -211.7125,-1.3084 -221.6476,-1.2865 -229.1089,-1.2667 -233.8214,-1.2432 NaN,NaN 236.0886,-1.1203 235.4723,-1.1807 234.8552,-1.1411 232.0822,-1.1613 227.6386,-1.1758 227.401,-1.1765 225.6882,-1.1687 215.7692,-1.1385 203.064,-1.1124 189.2676,-1.0896 177.3162,-1.0757 163.8389,-1.0616 153.6202,-1.0522 142.7635,-1.0439 131.2761,-1.0362 119.6655,-1.0294 107.3167,-1.0233 93.9735,-1.017 81.0738,-1.0123 69.1552,-1.0083 40.0513,-0.88199 11.7922,-0.75703 -16.4821,-0.63326 -43.7043,-0.51104 -72.1345,-0.39002 -82.5121,-0.3934 -93.7405,-0.39795 -104.1598,-0.40251 -115.8742,-0.40863 -125.3926,-0.4139 -133.4771,-0.41863 -142.1856,-0.4237 -150.6159,-0.42878 -158.3632,-0.43353 -167.6944,-0.43977 -178.5429,-0.44732 -188.684,-0.45614 -198.5972,-0.46491 -206.487,-0.47296 -214.5748,-0.48302 -222.1337,-0.4945 -228.0962,-0.50546 -234.819,-0.51926 -241.9665,-0.53382 -248.0159,-0.54624 -254.8192,-0.55916 -262.9148,-0.57498 -269.8105,-0.58756 -275.3001,-0.59814 -282.7136,-0.61251 -290.0474,-0.62831 -295.2985,-0.63959 -300.9193,-0.65201 -307.8489,-0.67099 -313.1017,-0.69065 -316.4863,-0.70892 -319.7738,-0.73514 -322.8796,-0.76207 -325.3747,-0.7893 -327.1438,-0.81351 -328.839,-0.83499 -332.1076,-0.85388 -336.5318,-0.87695 -340.7794,-0.89433 -345.1935,-0.91032 -351.3467,-0.93052 -356.7444,-0.94913 -361.5893,-0.96398 -366.7665,-0.98122 -372.5245,-1.0007 -376.9678,-1.018 -381.3699,-1.0359 -385.926,-1.0586 -389.8463,-1.0797 -393.5131,-1.1067 -396.7429,-1.1315 -398.841,-1.1511 -399.7077,-1.1676 -400.6226,-1.1413 -400.9092,-1.128 -400.1252,-1.0755 -398.8429,-1.0512 -396.7438,-1.0315 -393.5139,-1.0067 -389.847,-0.97972 -385.9265,-0.95859 -381.3704,-0.93594 -376.9682,-0.91804 -372.5248,-0.90075 -366.7669,-0.88122 -361.5896,-0.86398 -356.7447,-0.84913 -351.3471,-0.83052 -345.1938,-0.81032 -340.7798,-0.79433 -336.5323,-0.77695 -332.1081,-0.75388 -328.8396,-0.73499 -327.145,-0.71352 -325.376,-0.68931 -322.8807,-0.66208 -319.7747,-0.63514 -316.4871,-0.60892 -313.1023,-0.59065 -307.8493,-0.57099 -300.9196,-0.55201 -295.2987,-0.53959 -290.0476,-0.52831 -282.7138,-0.51251 -275.3003,-0.49814 -269.8106,-0.48756 -262.915,-0.47498 -254.8193,-0.45916 -248.016,-0.44624 -241.9667,-0.43382 -234.8192,-0.41926 -228.0964,-0.40546 -222.1339,-0.3945 -214.575,-0.38302 -206.4871,-0.37296 -198.5973,-0.36491 -188.6841,-0.35614 -178.543,-0.34732 -167.6944,-0.33977 -158.3633,-0.33353 -150.6159,-0.32878 -142.1857,-0.3237 -133.4772,-0.31863 -125.3927,-0.3139 -115.8743,-0.30863 -104.1599,-0.30251 -93.7405,-0.29795 -82.5122,-0.2934 -72.1345,-0.29002 -43.7039,-0.41105 -16.4817,-0.53326 11.7927,-0.65703 40.0517,-0.78199 69.1556,-0.90831 81.0739,-0.91234 93.9735,-0.917 107.3167,-0.92332 119.6655,-0.92942 131.2761,-0.9362 142.7635,-0.94388 153.6202,-0.95224 163.839,-0.96157 177.3163,-0.97573 189.2677,-0.98965 203.0642,-1.0124 215.7694,-1.0385 225.6886,-1.0687 231.3762,-1.0946 NaN,NaN -401.2144,-1.1484 -401.1234,-1.1423 -401.1144,-1.1484 -400.123,-1.1755 -399.7077,-1.1676 -399.6709,-1.1687 -397.0596,-1.1943 -392.099,-1.2279 -386.0463,-1.2609 -377.1055,-1.2927 -364.5982,-1.3279 -352.8304,-1.3537 -342.9566,-1.3713 -330.1599,-1.3892 -318.1539,-1.4017 -307.9874,-1.4103 -294.595,-1.42 -280.9068,-1.4298 -267.9054,-1.437 -256.3495,-1.4431 -246.7411,-1.4475 -236.5715,-1.4515 -226.3381,-1.4551 -215.7776,-1.4584 -205.062,-1.4614 -191.1085,-1.4651 -166.6906,-1.4704 -155.3117,-1.4723 -142.4654,-1.4745 -130.8648,-1.476 -118.3923,-1.4777 -106.6258,-1.4789 -94.4427,-1.4802 -82.5576,-1.4811 -70.5962,-1.482 -46.8385,-1.4832 -34.8364,-1.4836 -23.1595,-1.4839 -11.1529,-1.4841 0.44677,-1.4842 12.4238,-1.4841 23.9837,-1.484 35.8964,-1.4837 47.4516,-1.4833 59.2636,-1.4828 70.8485,-1.4821 82.5203,-1.4814 105.6572,-1.4795 128.6601,-1.4769 140.5503,-1.4752 151.5094,-1.4737 163.5838,-1.4714 174.1783,-1.4695 196.6303,-1.4644 209.2331,-1.4607 218.8161,-1.4579 228.1956,-1.4548 237.1757,-1.4516 245.8822,-1.4482 254.1605,-1.4447 263.4271,-1.4404 274.4307,-1.4351 284.3002,-1.4291 295.3527,-1.4224 305.924,-1.4138 315.6096,-1.4059 323.0921,-1.3987 331.2754,-1.3901 339.0724,-1.3801 345.4246,-1.3711 353.2701,-1.3579 361.313,-1.3437 367.2668,-1.3307 373.5051,-1.3154 378.9411,-1.2986 383.4184,-1.2819 388.2864,-1.2586 392.6143,-1.2364 395.8006,-1.2121 398.39,-1.1877 399.7657,-1.172 399.9393,-1.1743 401.0659,-1.1969 400.7555,-1.242 400.2108,-1.2668 398.3912,-1.2877 395.8016,-1.3121 392.6151,-1.3364 388.2869,-1.3586 383.4189,-1.3819 378.9415,-1.3986 373.5055,-1.4154 367.2671,-1.4307 361.3132,-1.4437 353.2703,-1.4579 345.4248,-1.4711 339.0726,-1.4801 331.2756,-1.4901 323.0922,-1.4987 315.6097,-1.5059 305.9241,-1.5138 295.3528,-1.5224 284.3003,-1.5291 274.4308,-1.5351 263.4271,-1.5404 254.1606,-1.5447 245.8822,-1.5482 237.1757,-1.5516 228.1956,-1.5548 218.8161,-1.5579 209.2331,-1.5607 196.6303,-1.5644 174.1783,-1.5695 163.5838,-1.5714 151.5094,-1.5737 140.5503,-1.5752 128.6601,-1.5769 105.6572,-1.5795 82.5203,-1.5814 70.8485,-1.5821 59.2636,-1.5828 47.4516,-1.5833 35.8964,-1.5837 23.9837,-1.584 12.4238,-1.5841 0.44677,-1.5842 -11.1529,-1.5841 -23.1595,-1.5839 -34.8364,-1.5836 -46.8385,-1.5832 -70.5962,-1.582 -82.5576,-1.5811 -94.4427,-1.5802 -106.6258,-1.5789 -118.3923,-1.5777 -130.8648,-1.576 -142.4654,-1.5745 -155.3117,-1.5723 -166.6906,-1.5704 -191.1085,-1.5651 -205.062,-1.5614 -215.7776,-1.5584 -226.3381,-1.5551 -236.5716,-1.5515 -246.7411,-1.5475 -256.3496,-1.5431 -267.9055,-1.537 -280.9069,-1.5298 -294.5951,-1.52 -307.9875,-1.5103 -318.1539,-1.5017 -330.16,-1.4892 -342.9568,-1.4713 -352.8306,-1.4537 -364.5984,-1.4279 -377.1058,-1.3927 -386.0467,-1.3609 -392.0996,-1.3279 -397.0603,-1.2943 -399.6718,-1.2687 -400.6254,-1.2413 -401.1667,-1.2161 NaN,NaN 401.2644,-1.1681 401.1827,-1.18 401.1644,-1.1681 400.7503,-1.1421 400.2062,-1.1669 399.7657,-1.172 397.6301,-1.1438 394.3727,-1.1186 389.5832,-1.0871 383.1271,-1.0506 374.7363,-1.0159 366.3119,-0.9838 356.4495,-0.94921 347.3801,-0.91819 339.699,-0.88958 334.0403,-0.8618 329.3216,-0.83401 326.8128,-0.8061 323.6365,-0.77362 319.921,-0.73973 316.155,-0.71216 307.845,-0.67745 299.8325,-0.6523 293.0488,-0.63431 282.6272,-0.61261 271.0831,-0.59018 261.5944,-0.57144 249.1041,-0.54658 235.1468,-0.52012 224.6395,-0.50145 212.6217,-0.48243 199.8603,-0.46732 188.7887,-0.45733 175.0316,-0.44676 161.977,-0.43686 152.4236,-0.43054 141.6231,-0.42369 130.7674,-0.41739 120.9626,-0.41187 109.1682,-0.40586 95.1596,-0.399 82.8146,-0.39445 60.3445,-0.38392 41.1559,-0.37511 24.3369,-0.36708 -1.6953,-0.35339 -1.6952,-0.25339 24.337,-0.26708 41.156,-0.27511 60.3446,-0.28392 82.8147,-0.29445 95.1597,-0.299 109.1683,-0.30586 120.9627,-0.31187 130.7675,-0.31739 141.6232,-0.32369 152.4237,-0.33054 161.9771,-0.33686 175.0317,-0.34676 188.7888,-0.35733 199.8604,-0.36732 212.6218,-0.38243 224.6397,-0.40145 235.147,-0.42012 249.1043,-0.44658 261.5946,-0.47144 271.0833,-0.49018 282.6274,-0.51261 293.049,-0.53431 299.8327,-0.5523 307.8453,-0.57745 316.1554,-0.61216 319.9218,-0.63973 323.6374,-0.67362 326.8138,-0.70611 329.3227,-0.73402 334.0409,-0.7618 339.6995,-0.78958 347.3805,-0.81819 356.4499,-0.84921 366.3122,-0.8838 374.7367,-0.91587 383.1275,-0.9506 389.5838,-0.98714 394.3733,-1.0186 397.6309,-1.0438 399.9406,-1.0743 401.2154,-1.0999 NaN,NaN 401.2134,-1.1999 401.0659,-1.1969 401.1827,-1.18 NaN,NaN -401.1621,-1.1162 -400.9092,-1.128 -401.1234,-1.1423 NaN,NaN 236.0881,-1.2203 235.1228,-1.215 235.4723,-1.1807 NaN,NaN -236.2941,-1.1189 -236.0163,-1.1216 -236.1296,-1.1611 " stroke="none" fill="red" stroke-width="0" shape-rendering="crispEdges" />
<polygon points="7.0347,1.3039 7.0347,1.4039 450.6989,1.3583 NaN,NaN 894.363,1.4127 888.7893,1.4117 880.03,1.41 869.7439,1.4077 857.6381,1.4048 847.0758,1.4016 835.5958,1.3978 824.6442,1.3934 813.9202,1.3889 802.4641,1.3831 792.6393,1.3778 783.4723,1.3724 774.858,1.3662 766.7324,1.3596 759.5959,1.3522 750.5711,1.3418 742.1809,1.3313 740.2218,1.3286 450.6989,1.3583 NaN,NaN 734.7193,1.3209 740.2218,1.3286 894.3631,1.3127 888.7893,1.3117 880.03,1.31 869.7439,1.3077 857.6381,1.3048 847.0758,1.3016 835.5958,1.2978 824.6442,1.2934 813.9203,1.2889 802.4641,1.2831 792.6394,1.2778 783.4724,1.2724 774.8581,1.2662 766.7325,1.2596 759.596,1.2522 750.5712,1.2418 742.1811,1.2313 734.7194,1.2209 726.8678,1.2074 719.8672,1.1906 715.0767,1.1765 711.1019,1.1946 707.3549,1.215 707.6208,1.2411 710.395,1.2613 714.8391,1.2758 719.8669,1.2906 726.8676,1.3074 NaN,NaN 706.389,1.1203 707.0054,1.1807 707.6225,1.1411 710.3957,1.1613 714.8394,1.1758 715.0767,1.1765 716.7895,1.1687 726.7087,1.1385 739.4135,1.1124 753.21,1.0896 765.1621,1.0757 778.6393,1.0616 788.8577,1.0522 799.7148,1.0439 811.2018,1.0362 822.8115,1.0294 835.16,1.0233 848.5035,1.017 861.4029,1.0123 873.4779,1.0083 886.6885,1.005 897.902,1.0026 911.2326,1.0007 921.0886,0.99951 929.7068,0.9987 942.4778,0.99799 942.4778,0.89799 929.7068,0.8987 921.0886,0.89951 911.2326,0.90066 897.902,0.90259 886.6885,0.90502 873.4778,0.90827 861.4029,0.91234 848.5035,0.917 835.16,0.92332 822.8115,0.92942 811.2017,0.93621 799.7147,0.94389 788.8577,0.95224 778.6392,0.96157 765.162,0.97573 753.2099,0.98965 739.4134,1.0124 726.7085,1.0385 716.7892,1.0687 711.1014,1.0946 NaN,NaN 706.3895,1.2203 707.3549,1.215 707.0054,1.1807 " stroke="none" fill="red" stroke-width="0" shape-rendering="crispEdges" />
<polygon points="-942.4778,0.89799 -942.4778,0.99799 -917.7968,0.99933 -912.2346,1 -903.3445,1.0014 -893.0698,1.0032 -880.8055,1.0059 -870.337,1.0088 -858.7076,1.0125 -847.8982,1.0168 -837.0495,1.0215 -825.7519,1.0273 -815.8298,1.0328 -806.4368,1.0387 -797.6243,1.0449 -789.6235,1.0509 -782.0953,1.0576 -773.1678,1.0661 -764.5362,1.075 -755.1617,1.0858 -746.0245,1.0969 -739.4156,1.1058 -732.4939,1.1177 -724.7791,1.1338 -719.6793,1.1471 -714.6794,1.1634 -713.7166,1.1676 -713.3694,1.1667 -708.6571,1.1432 -706.4615,1.1216 -706.5113,1.1042 -709.5266,1.0858 -714.679,1.0634 -719.679,1.0471 -724.7789,1.0338 -732.4937,1.0177 -739.4154,1.0058 -746.0244,0.99687 -755.1616,0.98583 -764.5361,0.97495 -773.1677,0.96611 -782.0952,0.95756 -789.6234,0.95087 -797.6242,0.94487 -806.4367,0.93868 -815.8298,0.93284 -825.7519,0.92734 -837.0494,0.92147 -847.8982,0.91679 -858.7076,0.91253 -870.337,0.9088 -880.8054,0.90589 -893.0698,0.90321 -903.3445,0.90143 -912.2345,0.90001 -917.7968,0.89933 NaN,NaN -706.1828,1.2189 -706.3483,1.1611 -706.5157,1.2041 -709.5272,1.1858 -713.7166,1.1676 -720.8306,1.1865 -730.7656,1.2084 -743.0605,1.2312 -754.4489,1.245 -764.4961,1.256 -776.3243,1.2665 -787.5935,1.2745 -798.8606,1.2808 -811.0057,1.2867 -824.5205,1.293 -837.2779,1.2978 -849.5706,1.3021 -861.7987,1.3056 -871.3065,1.3081 -878.8223,1.3098 -942.4779,1.4096 -942.4777,1.5096 -878.8221,1.4098 -871.3065,1.4081 -861.7987,1.4056 -849.5706,1.4021 -837.2779,1.3978 -824.5205,1.393 -811.0056,1.3867 -798.8605,1.3808 -787.5934,1.3745 -776.3242,1.3665 -764.496,1.356 -754.4488,1.345 -743.0604,1.3312 -730.7655,1.3084 -720.8304,1.2865 -713.3691,1.2667 -708.6566,1.2432 NaN,NaN -706.1838,1.1189 -706.4615,1.1216 -706.3483,1.1611 " stroke="none" fill="red" stroke-width="0" shape-rendering="crispEdges" />
<polygon points="942.4779,1.5096 942.4777,1.4096 888.1536,1.4831 881.054,1.4827 859.9574,1.4814 848.3082,1.4805 836.8207,1.4795 825.0707,1.4782 813.8179,1.4769 801.9277,1.4752 790.9688,1.4737 778.8943,1.4714 768.3001,1.4695 745.8482,1.4644 733.2453,1.4607 723.6626,1.4579 714.2853,1.4548 705.3055,1.4516 696.5987,1.4482 688.3207,1.4447 679.0538,1.4404 668.0479,1.4351 658.1782,1.4291 647.1258,1.4224 636.5543,1.4138 626.8688,1.4059 619.3865,1.3987 611.2032,1.3901 603.406,1.3801 597.0538,1.3711 589.2081,1.3579 581.1647,1.3437 575.2108,1.3307 568.9723,1.3154 563.5361,1.2986 559.0586,1.2819 554.1903,1.2586 549.8621,1.2364 546.6759,1.2121 544.0864,1.1878 542.7099,1.172 542.5368,1.1743 541.4101,1.1969 541.7207,1.242 542.2655,1.2668 544.0852,1.2877 546.675,1.3121 549.8613,1.3364 554.1898,1.3586 559.0581,1.3819 563.5358,1.3986 568.972,1.4154 575.2106,1.4307 581.1645,1.4437 589.2079,1.4579 597.0536,1.4711 603.4059,1.4801 611.2031,1.4901 619.3863,1.4987 626.8687,1.5059 636.5542,1.5138 647.1257,1.5224 658.1781,1.5291 668.0479,1.5351 679.0537,1.5404 688.3206,1.5447 696.5986,1.5482 705.3054,1.5516 714.2852,1.5548 723.6626,1.5579 733.2452,1.5607 745.8482,1.5644 768.3001,1.5695 778.8943,1.5714 790.9687,1.5737 801.9277,1.5752 813.8179,1.5769 825.0707,1.5782 836.8207,1.5795 848.3082,1.5805 859.9574,1.5814 881.0539,1.5827 888.1535,1.5831 NaN,NaN 541.2117,1.1681 541.2934,1.18 541.3117,1.1681 541.7259,1.1422 542.27,1.1669 542.7099,1.172 544.8456,1.1438 548.103,1.1186 552.8929,1.0871 559.3483,1.0506 567.7396,1.0159 576.1642,0.98379 586.0246,0.94921 595.0933,0.91819 602.775,0.88958 608.4327,0.8618 613.1511,0.83401 615.6613,0.8061 618.8367,0.77362 622.5513,0.73973 626.3182,0.71217 634.6284,0.67745 642.6419,0.6523 649.4296,0.6343 659.8521,0.6126 671.3956,0.59017 680.885,0.57143 693.3753,0.54657 707.3303,0.52012 717.8374,0.50145 729.8559,0.48243 742.6167,0.46732 753.6884,0.45733 767.4481,0.44677 780.5029,0.43686 790.0553,0.43054 800.8564,0.4237 811.7109,0.4174 821.5131,0.41189 833.3065,0.40588 847.316,0.39901 859.6602,0.39446 872.3677,0.39005 885.0493,0.38692 896.8178,0.38432 909.701,0.38235 919.6647,0.38092 927.8354,0.37996 942.4778,0.37873 942.4778,0.27873 927.8354,0.27996 919.6646,0.28092 909.7009,0.28235 896.8178,0.28432 885.0493,0.28692 872.3676,0.29005 859.6602,0.29446 847.316,0.29901 833.3065,0.30588 821.5131,0.31189 811.7108,0.3174 800.8563,0.3237 790.0553,0.33054 780.5028,0.33686 767.448,0.34677 753.6883,0.35733 742.6167,0.36732 729.8558,0.38243 717.8373,0.40145 707.3301,0.42012 693.3752,0.44657 680.8848,0.47143 671.3954,0.49017 659.8519,0.5126 649.4294,0.5343 642.6416,0.5523 634.6281,0.57745 626.3178,0.61217 622.5505,0.63974 618.8357,0.67362 615.6603,0.7061 613.15,0.73402 608.4321,0.7618 602.7745,0.78958 595.0929,0.81819 586.0243,0.84921 576.1638,0.88379 567.7392,0.91587 559.3479,0.9506 552.8923,0.98714 548.1023,1.0186 544.8448,1.0438 542.5355,1.0743 541.2607,1.0999 NaN,NaN 541.2627,1.1999 541.4101,1.1969 541.2934,1.18 " stroke="none" fill="red" stroke-width="0" shape-rendering="crispEdges" />
<polygon points="-942.4778,0.27873 -942.4778,0.37873 -919.5178,0.38011 -913.5268,0.38095 -904.6266,0.38235 -893.9232,0.38425 -882.075,0.38681 -871.1717,0.38986 -859.9638,0.3934 -848.7359,0.39794 -838.3158,0.4025 -826.6021,0.40862 -817.0829,0.41389 -800.2865,0.4237 -791.8571,0.42877 -784.1093,0.43353 -774.7789,0.43977 -763.9334,0.44732 -753.7929,0.45613 -743.8794,0.46491 -735.9891,0.47296 -727.901,0.48302 -720.3426,0.49449 -714.38,0.50546 -707.6575,0.51926 -700.5109,0.53382 -694.4618,0.54624 -687.6587,0.55916 -679.5638,0.57498 -672.6684,0.58756 -667.1788,0.59814 -659.7655,0.61252 -652.4315,0.62832 -647.1802,0.6396 -641.5597,0.65202 -634.6307,0.67099 -629.3783,0.69066 -625.9944,0.70892 -622.7075,0.73514 -619.6017,0.76208 -617.1062,0.78931 -615.337,0.81352 -613.6419,0.835 -610.3729,0.85389 -605.9487,0.87696 -601.7015,0.89434 -597.2867,0.91032 -591.133,0.93053 -585.7355,0.94914 -580.8901,0.96398 -575.7125,0.98122 -569.9549,1.0007 -565.5116,1.018 -561.1092,1.0359 -556.5531,1.0586 -552.633,1.0797 -548.9659,1.1067 -545.7359,1.1315 -543.6377,1.1511 -542.7713,1.1676 -541.8562,1.1413 -541.5695,1.128 -542.3534,1.0755 -543.6358,1.0512 -545.735,1.0316 -548.9651,1.0067 -552.6322,0.97973 -556.5525,0.9586 -561.1087,0.93594 -565.5112,0.91805 -569.9545,0.90075 -575.7122,0.88122 -580.8898,0.86399 -585.7352,0.84914 -591.1327,0.83053 -597.2864,0.81033 -601.7011,0.79434 -605.9483,0.77696 -610.3724,0.7539 -613.6413,0.735 -615.3357,0.71353 -617.1048,0.68932 -619.6006,0.66208 -622.7066,0.63515 -625.9936,0.60893 -629.3778,0.59066 -634.6303,0.57099 -641.5595,0.55202 -647.1799,0.5396 -652.4312,0.52832 -659.7653,0.51252 -667.1786,0.49814 -672.6682,0.48756 -679.5636,0.47498 -687.6585,0.45916 -694.4616,0.44624 -700.5106,0.43382 -707.6573,0.41926 -714.3798,0.40546 -720.3424,0.39449 -727.9009,0.38302 -735.989,0.37296 -743.8793,0.36491 -753.7928,0.35613 -763.9333,0.34732 -774.7788,0.33977 -784.1092,0.33353 -791.857,0.32877 -800.2865,0.3237 -817.0829,0.31389 -826.602,0.30862 -838.3158,0.3025 -848.7359,0.29794 -859.9638,0.2934 -871.1716,0.28986 -882.075,0.28681 -893.9232,0.28425 -904.6266,0.28235 -913.5268,0.28095 -919.5177,0.28011 NaN,NaN -541.2642,1.1484 -541.3552,1.1423 -541.3642,1.1484 -542.3556,1.1755 -542.7713,1.1676 -542.8082,1.1687 -545.4195,1.1943 -550.3799,1.2279 -556.4331,1.2609 -565.3736,1.2927 -577.8813,1.3279 -589.6488,1.3537 -599.522,1.3713 -612.3182,1.3892 -624.3237,1.4017 -634.4894,1.4103 -647.8813,1.42 -661.57,1.4298 -674.5733,1.437 -686.1297,1.4431 -695.7378,1.4475 -705.9078,1.4515 -716.1411,1.4551 -726.6997,1.4584 -737.4152,1.4614 -751.369,1.4651 -775.7871,1.4704 -787.1659,1.4723 -800.0124,1.4745 -811.613,1.476 -824.0856,1.4777 -835.8522,1.4789 -848.0353,1.4802 -848.161,1.4812 -691.3992,1.4836 -609.1241,1.4847 -599.5218,1.4713 -589.6486,1.4537 -577.8811,1.4279 -565.3734,1.3927 -556.4327,1.3609 -550.3794,1.3279 -545.4188,1.2943 -542.8072,1.2687 -541.8533,1.2413 -541.3119,1.2161 NaN,NaN -612.3181,1.4892 -624.3237,1.5017 -634.4893,1.5103 -647.8813,1.52 -661.57,1.5298 -674.5732,1.537 -686.1297,1.5431 -695.7378,1.5475 -705.9078,1.5515 -716.141,1.5551 -726.6997,1.5584 -737.4152,1.5614 -751.369,1.5651 -775.787,1.5704 -787.1659,1.5723 -800.0124,1.5745 -811.613,1.576 -824.0856,1.5777 -835.8522,1.5789 -848.0353,1.5802 -853.9779,1.5306 -859.9205,1.5811 -691.3992,1.5836 -520.3414,1.5859 -346.9418,1.588 7.0591,1.5917 7.0591,1.4917 -346.9418,1.488 -520.3414,1.4859 -609.1241,1.4847 NaN,NaN -859.9205,1.4811 -853.9779,1.5306 -848.161,1.4812 NaN,NaN -541.3166,1.1162 -541.5695,1.128 -541.3552,1.1423 " stroke="none" fill="red" stroke-width="0" shape-rendering="crispEdges" />
<polygon points="-1.249,-0.93372 -1.249,-1.0337 -440.8384,-0.96995 NaN,NaN -880.4278,-1.0062 -749.73,-0.9954 -739.4137,-1.0124 -726.7089,-1.0385 -716.7898,-1.0687 -711.1018,-1.0946 -708.9852,-1.151 -710.3959,-1.1613 -714.8397,-1.1758 -715.0778,-1.1765 -716.7903,-1.1687 -726.7092,-1.1385 -739.4139,-1.1124 -753.2102,-1.0896 -765.1624,-1.0757 -778.6392,-1.0616 -788.8577,-1.0522 -799.7149,-1.0439 -811.2021,-1.0362 -822.8118,-1.0294 -835.1604,-1.0233 -848.5039,-1.017 -861.4034,-1.0123 -872.2406,-1.0086 NaN,NaN -711.1023,-1.1946 -708.7456,-1.1574 -706.3888,-1.2203 -707.6216,-1.2411 -710.3956,-1.2613 -714.8394,-1.2758 -719.8672,-1.2906 -726.8679,-1.3074 -734.7195,-1.3209 -742.181,-1.3313 -750.5713,-1.3418 -759.5962,-1.3522 -766.7327,-1.3596 -774.8583,-1.3662 -783.4726,-1.3724 -792.6394,-1.3778 -802.4641,-1.3831 -813.9203,-1.3889 -824.6443,-1.3934 -835.5959,-1.3978 -847.0759,-1.4016 -857.6383,-1.4048 -869.744,-1.4077 -880.0302,-1.41 -892.6405,-1.4121 -902.7646,-1.4136 -915.7642,-1.4149 -925.1889,-1.4155 -933.7523,-1.4161 -942.4778,-1.4164 -942.4778,-1.3164 -933.7523,-1.3161 -925.1889,-1.3155 -915.7642,-1.3149 -902.7646,-1.3136 -892.6405,-1.3121 -880.0302,-1.31 -869.744,-1.3077 -857.6383,-1.3048 -847.0759,-1.3016 -835.5959,-1.2978 -824.6443,-1.2934 -813.9204,-1.2889 -802.4642,-1.2831 -792.6395,-1.2778 -783.4726,-1.2724 -774.8584,-1.2662 -766.7327,-1.2596 -759.5963,-1.2522 -750.5714,-1.2418 -742.1812,-1.2313 -734.7196,-1.2209 -726.8681,-1.2074 -719.8674,-1.1906 -715.0778,-1.1765 NaN,NaN -706.3905,-1.1203 -707.6224,-1.1411 -707.7871,-1.1423 NaN,NaN -753.21,-0.98965 -765.1623,-0.97573 -778.6391,-0.96157 -788.8576,-0.95224 -799.7148,-0.94388 -811.202,-0.93621 -822.8117,-0.92942 -835.1604,-0.92332 -848.5038,-0.917 -861.4034,-0.91234 -872.2406,-0.9086 -880.4277,-0.90617 -440.8384,-0.96995 -749.73,-0.9954 NaN,NaN -708.9852,-1.151 -707.7871,-1.1423 -708.7456,-1.1574 " stroke="none" fill="red" stroke-width="0" shape-rendering="crispEdges" />
<polygon points="942.4778,-1.3164 942.4778,-1.4164 913.4602,-1.415 907.7717,-1.4143 898.347,-1.4129 887.5423,-1.4111 874.1484,-1.4086 862.7314,-1.4057 849.5703,-1.4021 837.2774,-1.3978 824.5201,-1.393 811.0052,-1.3867 798.8602,-1.3808 787.5935,-1.3745 776.3244,-1.3665 764.4959,-1.356 754.449,-1.345 743.0606,-1.3312 730.7653,-1.3084 720.8304,-1.2865 713.3695,-1.2667 708.6568,-1.2432 707.7325,-1.1968 709.5279,-1.1858 713.718,-1.1676 720.8307,-1.1865 730.7656,-1.2084 743.0608,-1.2312 754.4491,-1.245 764.4961,-1.256 776.3245,-1.2665 787.5936,-1.2745 798.8603,-1.2808 811.0052,-1.2867 824.5202,-1.293 837.2775,-1.2978 849.5703,-1.3021 862.7315,-1.3057 874.1484,-1.3086 887.5423,-1.3111 898.347,-1.3129 907.7717,-1.3143 913.4602,-1.315 NaN,NaN 713.37,-1.1667 708.6578,-1.1432 707.4197,-1.1811 706.1816,-1.1189 706.5141,-1.1042 709.5275,-1.0858 714.6797,-1.0634 719.6798,-1.0471 724.7796,-1.0338 732.4943,-1.0177 739.4159,-1.0058 746.0248,-0.99687 755.1619,-0.98583 764.5362,-0.97495 773.1678,-0.96611 782.0953,-0.95756 789.6235,-0.95087 797.6243,-0.94487 806.4368,-0.93868 815.8297,-0.93284 825.7518,-0.92734 837.0493,-0.92147 847.8981,-0.91679 858.7075,-0.91252 869.5931,-0.90897 878.274,-0.90638 885.0819,-0.90451 942.4775,-0.58577 942.4781,-0.68577 885.0825,-1.0045 878.274,-1.0064 869.5931,-1.009 858.7075,-1.0125 847.8981,-1.0168 837.0494,-1.0215 825.7519,-1.0273 815.8298,-1.0328 806.4368,-1.0387 797.6244,-1.0449 789.6236,-1.0509 782.0954,-1.0576 773.1679,-1.0661 764.5363,-1.075 755.1621,-1.0858 746.025,-1.0969 739.416,-1.1058 732.4945,-1.1177 724.7798,-1.1338 719.68,-1.1471 714.68,-1.1634 713.718,-1.1676 NaN,NaN 706.1861,-1.2188 706.5147,-1.2042 706.7017,-1.2031 NaN,NaN 706.7017,-1.2031 707.4197,-1.1811 707.7325,-1.1968 " stroke="none" fill="red" stroke-width="0" shape-rendering="crispEdges" />
<polygon points="-942.4776,-0.68577 -942.478,-0.58577 -878.2072,-0.28828 -870.5752,-0.29051 -859.6608,-0.29446 -847.3164,-0.29901 -833.307,-0.30588 -821.5134,-0.31188 -811.7108,-0.3174 -800.8561,-0.3237 -790.055,-0.33054 -780.5024,-0.33686 -767.4473,-0.34677 -753.6879,-0.35733 -742.6169,-0.36733 -729.8561,-0.38243 -717.8384,-0.40145 -707.3316,-0.42013 -693.3746,-0.44658 -680.8836,-0.47144 -671.3949,-0.49018 -659.8505,-0.51261 -649.4286,-0.53431 -642.6438,-0.5523 -634.6306,-0.57745 -626.3199,-0.61216 -622.5531,-0.63973 -618.8379,-0.67362 -615.6618,-0.7061 -613.1524,-0.73402 -608.4341,-0.7618 -602.7761,-0.78958 -595.0945,-0.81819 -586.0255,-0.84921 -576.1639,-0.88379 -567.7387,-0.91587 -559.3472,-0.9506 -552.8916,-0.98714 -548.1015,-1.0186 -544.8438,-1.0438 -542.5346,-1.0743 -541.5271,-1.1318 -541.7252,-1.1421 -542.2681,-1.1669 -542.7102,-1.172 -544.8451,-1.1438 -548.1023,-1.1186 -552.8923,-1.0871 -559.3478,-1.0506 -567.7392,-1.0159 -576.1643,-0.98379 -586.0258,-0.94921 -595.0948,-0.91819 -602.7765,-0.88958 -608.4346,-0.8618 -613.153,-0.83401 -615.6629,-0.8061 -618.8389,-0.77362 -622.554,-0.73973 -626.3207,-0.71216 -634.6311,-0.67745 -642.6441,-0.6523 -649.4288,-0.63431 -659.8508,-0.61261 -671.3951,-0.59018 -680.8838,-0.57144 -693.3748,-0.54658 -707.3318,-0.52013 -717.8386,-0.50145 -729.8562,-0.48243 -742.6171,-0.46733 -753.688,-0.45733 -767.4474,-0.44677 -780.5025,-0.43686 -790.0551,-0.43054 -800.8561,-0.4237 -811.7109,-0.4174 -821.5135,-0.41188 -833.307,-0.40588 -847.3164,-0.39901 -859.6608,-0.39446 -870.5752,-0.39051 -878.2072,-0.38828 NaN,NaN -542.5366,-1.1742 -541.3113,-1.1499 -541.3034,-1.1446 -541.2113,-1.1499 -541.2587,-1.218 -541.7207,-1.242 -542.2669,-1.2669 -544.0852,-1.2878 -546.6749,-1.3121 -549.8613,-1.3364 -554.1897,-1.3586 -559.0581,-1.3819 -563.5357,-1.3986 -568.972,-1.4154 -575.2105,-1.4307 -581.1644,-1.4437 -589.2076,-1.4579 -597.0534,-1.4711 -603.4056,-1.4801 -611.2028,-1.4901 -619.3861,-1.4987 -626.8686,-1.5059 -636.5541,-1.5138 -647.1255,-1.5224 -658.1779,-1.5291 -668.0476,-1.5351 -679.053,-1.5404 -688.3198,-1.5447 -696.5979,-1.5482 -705.3047,-1.5516 -714.2846,-1.5548 -723.6624,-1.5579 -733.2452,-1.5607 -745.8481,-1.5644 -768.3,-1.5695 -778.8943,-1.5714 -790.9687,-1.5737 -801.9277,-1.5752 -813.8179,-1.5769 -825.0707,-1.5782 -836.8207,-1.5795 -848.3082,-1.5805 -859.9574,-1.5814 -871.6292,-1.5821 -883.2141,-1.5828 -895.026,-1.5833 -906.5812,-1.5837 -918.4939,-1.584 -927.9187,-1.5842 -935.1834,-1.5843 -939.8958,-1.5843 -942.4778,-1.5843 -942.4778,-1.4843 -939.8958,-1.4843 -935.1834,-1.4843 -927.9187,-1.4842 -918.494,-1.484 -906.5812,-1.4837 -895.026,-1.4833 -883.2141,-1.4828 -871.6292,-1.4821 -859.9574,-1.4814 -848.3082,-1.4805 -836.8207,-1.4795 -825.0707,-1.4782 -813.8179,-1.4769 -801.9277,-1.4752 -790.9687,-1.4737 -778.8943,-1.4714 -768.3001,-1.4695 -745.8481,-1.4644 -733.2452,-1.4607 -723.6624,-1.4579 -714.2846,-1.4548 -705.3047,-1.4516 -696.598,-1.4482 -688.3199,-1.4447 -679.0531,-1.4404 -668.0477,-1.4351 -658.178,-1.4291 -647.1256,-1.4224 -636.5542,-1.4138 -626.8687,-1.4059 -619.3862,-1.3987 -611.2029,-1.3901 -603.4058,-1.3801 -597.0535,-1.3711 -589.2078,-1.3579 -581.1646,-1.3437 -575.2107,-1.3307 -568.9722,-1.3154 -563.536,-1.2986 -559.0585,-1.2819 -554.1901,-1.2586 -549.8618,-1.2364 -546.6757,-1.2121 -544.0861,-1.1878 -542.7102,-1.172 NaN,NaN -541.2639,-1.1182 -541.3034,-1.1446 -541.5271,-1.1318 " stroke="none" fill="red" stroke-width="0" shape-rendering="crispEdges" />
<polygon points="942.4778,-1.4843 942.4778,-1.5843 912.0287,-1.5839 905.0643,-1.5836 895.6395,-1.5832 871.8817,-1.582 848.0351,-1.5802 835.8519,-1.5789 824.0854,-1.5777 811.6128,-1.576 800.0122,-1.5745 787.1657,-1.5723 775.7869,-1.5704 751.369,-1.5651 737.4152,-1.5614 726.6998,-1.5584 716.1404,-1.5551 705.9072,-1.5515 695.7374,-1.5475 686.1292,-1.5431 674.573,-1.537 661.5705,-1.5298 647.8821,-1.52 634.49,-1.5103 624.3237,-1.5017 612.3178,-1.4892 599.521,-1.4713 589.6474,-1.4537 577.8795,-1.4279 565.3718,-1.3927 556.4309,-1.3609 550.378,-1.3279 545.4173,-1.2943 542.805,-1.2686 541.8517,-1.2413 541.4865,-1.1946 542.3551,-1.1755 542.7706,-1.1676 542.8079,-1.1687 545.4182,-1.1943 550.3787,-1.2279 556.4314,-1.2609 565.3722,-1.2927 577.8798,-1.3279 589.6476,-1.3537 599.5212,-1.3713 612.318,-1.3892 624.3238,-1.4017 634.49,-1.4103 647.8822,-1.42 661.5706,-1.4298 674.5731,-1.437 686.1292,-1.4431 695.7374,-1.4475 705.9072,-1.4515 716.1405,-1.4551 726.6999,-1.4584 737.4153,-1.4614 751.369,-1.4651 775.787,-1.4704 787.1657,-1.4723 800.0123,-1.4745 811.6128,-1.476 824.0854,-1.4777 835.852,-1.4789 848.0351,-1.4802 871.8817,-1.482 895.6395,-1.4832 905.0643,-1.4836 912.0287,-1.4839 NaN,NaN 541.8563,-1.1414 541.3637,-1.1662 541.3475,-1.1769 541.2637,-1.1662 541.3126,-1.0984 542.3532,-1.0755 543.6362,-1.0512 545.735,-1.0316 548.9652,-1.0067 552.6325,-0.97973 556.5528,-0.9586 561.109,-0.93594 565.5116,-0.91805 569.955,-0.90075 575.7126,-0.88122 580.8903,-0.86399 585.7359,-0.84914 591.1334,-0.83053 597.2873,-0.81033 601.7023,-0.79434 605.9493,-0.77697 610.3735,-0.7539 613.6423,-0.73501 615.3371,-0.71354 617.1064,-0.68933 619.6025,-0.66208 622.7087,-0.63515 625.9957,-0.60893 629.3793,-0.59066 634.6317,-0.571 641.5606,-0.55202 647.1808,-0.5396 652.4326,-0.52832 659.7669,-0.51252 667.1799,-0.49815 672.6698,-0.48757 679.5657,-0.47498 687.6603,-0.45917 694.4631,-0.44624 700.5125,-0.43382 707.6597,-0.41926 714.3816,-0.40546 720.3438,-0.3945 726.0983,-0.38576 849.2886,-0.39279 848.7357,-0.39793 838.3155,-0.4025 826.6019,-0.40862 817.0827,-0.41389 800.2862,-0.4237 791.8568,-0.42877 784.1091,-0.43353 774.7787,-0.43977 763.9336,-0.44732 753.7931,-0.45614 743.8798,-0.46491 735.9903,-0.47296 727.9026,-0.48302 720.344,-0.4945 714.3818,-0.50546 707.6599,-0.51926 700.5128,-0.53382 694.4633,-0.54624 687.6605,-0.55917 679.5659,-0.57498 672.67,-0.58757 667.1801,-0.59815 659.7671,-0.61252 652.4328,-0.62832 647.181,-0.6396 641.5608,-0.65202 634.632,-0.671 629.3797,-0.69066 625.9962,-0.70893 622.7094,-0.73514 619.6034,-0.76208 617.1075,-0.78932 615.3384,-0.81353 613.6436,-0.835 610.3741,-0.8539 605.9499,-0.87696 601.7027,-0.89434 597.2877,-0.91033 591.1337,-0.93053 585.7362,-0.94914 580.8906,-0.96399 575.713,-0.98122 569.9554,-1.0008 565.512,-1.018 561.1094,-1.0359 556.5533,-1.0586 552.6331,-1.0797 548.966,-1.1067 545.7358,-1.1315 543.6371,-1.1512 542.7706,-1.1676 NaN,NaN 541.3148,-1.1984 541.3475,-1.1769 541.4865,-1.1946 NaN,NaN 859.9634,-0.29339 854.3495,-0.34566 848.7356,-0.29793 838.3155,-0.3025 826.6019,-0.30862 817.0827,-0.31389 800.2862,-0.3237 791.8568,-0.32877 784.109,-0.33353 774.7787,-0.33977 763.9335,-0.34732 753.793,-0.35614 743.8797,-0.36491 735.9902,-0.37296 727.9024,-0.38302 726.0983,-0.38576 691.8499,-0.38381 521.9532,-0.37501 349.7676,-0.36712 -1.2537,-0.3534 -1.2537,-0.2534 349.7676,-0.26712 521.9532,-0.27501 691.8499,-0.28381 NaN,NaN 859.9634,-0.39339 849.2886,-0.39279 854.3495,-0.34566 " stroke="none" fill="red" stroke-width="0" shape-rendering="crispEdges" />
<polygon points="7.0226,1.0339 7.0226,0.93392 -53.0738,0.90373 -59.5745,0.90552 -68.9992,0.90827 -81.0737,0.91234 -93.9734,0.917 -107.3165,0.92332 -119.6654,0.92941 -131.2761,0.9362 -142.7636,0.94388 -153.6203,0.95224 -163.8392,0.96157 -177.3163,0.97573 -189.2675,0.98965 -203.0637,1.0124 -215.7689,1.0385 -225.6877,1.0687 -231.3754,1.0946 -233.4919,1.151 -232.0811,1.1613 -227.6374,1.1758 -227.3989,1.1765 -225.6873,1.1687 -215.7686,1.1385 -203.0634,1.1124 -189.2673,1.0896 -177.3162,1.0757 -163.8391,1.0616 -153.6202,1.0522 -142.7635,1.0439 -131.2761,1.0362 -119.6653,1.0294 -107.3165,1.0233 -93.9734,1.017 -81.0737,1.0123 -68.9992,1.0083 -59.5744,1.0055 -53.0738,1.0037 NaN,NaN -231.3749,1.1946 -233.7316,1.1574 -236.0884,1.2203 -234.8556,1.2411 -232.0814,1.2613 -227.6377,1.2758 -222.6102,1.2906 -215.6094,1.3074 -207.7579,1.3209 -200.2966,1.3313 -191.9064,1.3418 -182.8816,1.3522 -175.7452,1.3596 -167.6196,1.3662 -159.0053,1.3724 -149.8385,1.3778 -140.0138,1.3831 -128.5576,1.3889 -117.8337,1.3934 -106.8821,1.3978 -95.4021,1.4016 -84.8398,1.4048 -72.734,1.4077 -62.4479,1.41 -49.8375,1.4121 -39.7135,1.4136 -26.7138,1.4149 -16.6326,1.4155 -3.3567,1.4159 6.8113,1.4158 20.2493,1.4153 30.65,1.4144 44.1307,1.4129 54.9352,1.4111 68.3292,1.4086 79.7461,1.4057 92.9073,1.4021 105.2001,1.3978 117.9575,1.393 131.4725,1.3867 143.6175,1.3808 154.8842,1.3745 166.1533,1.3665 177.9819,1.356 188.0289,1.345 199.4171,1.3312 211.7124,1.3084 221.6473,1.2865 229.1082,1.2667 233.8209,1.2432 234.7452,1.1968 232.9497,1.1858 228.7595,1.1676 221.6471,1.1865 211.7122,1.2084 199.4169,1.2312 188.0287,1.245 177.9818,1.256 166.1532,1.2665 154.8841,1.2745 143.6175,1.2808 131.4724,1.2867 117.9575,1.293 105.2001,1.2978 92.9073,1.3021 79.7461,1.3057 68.3292,1.3086 54.9352,1.3111 44.1306,1.3129 30.65,1.3144 20.2492,1.3153 6.8113,1.3158 -3.3567,1.3159 -16.6326,1.3155 -26.7138,1.3149 -39.7135,1.3136 -49.8375,1.3121 -62.4479,1.31 -72.7339,1.3077 -84.8397,1.3048 -95.402,1.3016 -106.8821,1.2978 -117.8336,1.2934 -128.5576,1.2889 -140.0137,1.2831 -149.8384,1.2778 -159.0053,1.2724 -167.6195,1.2662 -175.7451,1.2596 -182.8815,1.2522 -191.9063,1.2418 -200.2965,1.2313 -207.7578,1.2209 -215.6092,1.2074 -222.6099,1.1906 -227.3989,1.1765 NaN,NaN -236.0867,1.1203 -234.8549,1.1411 -234.6902,1.1423 NaN,NaN 229.1077,1.1667 233.8199,1.1432 235.058,1.1811 236.2961,1.1189 235.9636,1.1042 232.9502,1.0858 227.798,1.0634 222.7978,1.0471 217.6976,1.0338 209.9829,1.0177 203.0613,1.0058 196.4522,0.99687 187.3152,0.98583 177.9411,0.97495 169.3087,0.96612 160.381,0.95756 152.853,0.95088 144.8519,0.94488 136.0397,0.93869 126.6474,0.93284 116.7255,0.92735 105.4277,0.92147 94.5792,0.91679 83.7696,0.91253 74.0423,0.90923 46.6787,0.78272 20.2774,0.65704 -5.0769,0.53275 -31.9664,0.40937 -59.7731,0.28723 -70.1086,0.29004 -82.8148,0.29445 -95.1596,0.299 -109.1678,0.30586 -120.9622,0.31187 -130.7682,0.31739 -141.6239,0.32369 -152.4241,0.33053 -161.9778,0.33686 -175.0323,0.34676 -188.7883,0.35732 -199.86,0.36732 -212.6218,0.38243 -224.6396,0.40145 -235.1471,0.42012 -249.1053,0.44659 -261.5955,0.47144 -271.0838,0.49018 -282.628,0.51262 -293.0493,0.53431 -299.8315,0.5523 -307.844,0.57745 -316.1543,0.61216 -319.9203,0.63973 -323.6363,0.67362 -326.8129,0.70611 -329.3207,0.73401 -334.0392,0.7618 -339.698,0.78958 -347.379,0.81819 -356.4487,0.84921 -366.3121,0.8838 -374.7371,0.91587 -383.1281,0.9506 -389.5843,0.98714 -394.3741,1.0186 -397.632,1.0438 -399.9418,1.0743 -400.9494,1.1318 -400.7515,1.1421 -400.2088,1.1669 -399.766,1.172 -397.6307,1.1438 -394.3733,1.1186 -389.5837,1.0871 -383.1276,1.0506 -374.7366,1.0159 -366.3117,0.9838 -356.4484,0.94921 -347.3786,0.91819 -339.6976,0.88958 -334.0387,0.8618 -329.3201,0.83401 -326.8118,0.8061 -323.6353,0.77362 -319.9194,0.73972 -316.1536,0.71216 -307.8435,0.67745 -299.8312,0.6523 -293.049,0.63431 -282.6278,0.61262 -271.0836,0.59018 -261.5953,0.57144 -249.1051,0.54659 -235.1469,0.52012 -224.6394,0.50145 -212.6217,0.48243 -199.8599,0.46732 -188.7882,0.45732 -175.0322,0.44676 -161.9778,0.43686 -152.424,0.43053 -141.6239,0.42369 -130.7681,0.41739 -120.9621,0.41187 -109.1678,0.40586 -95.1596,0.399 -82.8147,0.39445 -70.1086,0.39004 -59.7731,0.38723 -31.9669,0.50937 -5.0774,0.63275 20.2769,0.75704 46.6782,0.88271 74.0418,1.0092 83.7696,1.0125 94.5792,1.0168 105.4277,1.0215 116.7255,1.0273 126.6473,1.0328 136.0396,1.0387 144.8519,1.0449 152.8529,1.0509 160.381,1.0576 169.3087,1.0661 177.941,1.075 187.3151,1.0858 196.4521,1.0969 203.0612,1.1058 209.9827,1.1177 217.6974,1.1338 222.7975,1.1471 227.7977,1.1634 228.7595,1.1676 NaN,NaN 236.2917,1.2188 235.963,1.2042 235.776,1.2031 NaN,NaN -399.9397,1.1742 -401.1653,1.1499 -401.1731,1.1446 -401.2653,1.1499 -401.2179,1.218 -400.756,1.242 -400.2099,1.2669 -398.3918,1.2877 -395.8021,1.3121 -392.6156,1.3364 -388.2874,1.3586 -383.419,1.3819 -378.9414,1.3986 -373.5052,1.4154 -367.2668,1.4307 -361.3128,1.4437 -353.2694,1.4579 -345.4238,1.4711 -339.0717,1.4801 -331.2744,1.4901 -323.0912,1.4987 -315.6089,1.5059 -305.9235,1.5138 -295.352,1.5224 -284.2997,1.5291 -274.4299,1.5351 -263.4243,1.5404 -254.1574,1.5447 -245.8794,1.5482 -237.1726,1.5516 -228.1928,1.5548 -218.8153,1.5579 -209.2326,1.5607 -196.6297,1.5644 -174.1778,1.5695 -163.5836,1.5714 -151.5092,1.5737 -140.5502,1.5752 -128.6601,1.5769 -105.6573,1.5795 -82.5206,1.5814 -70.8488,1.5821 -59.264,1.5828 -47.452,1.5833 -35.8969,1.5837 -23.9841,1.584 -12.4244,1.5841 -0.44718,1.5842 11.1523,1.5841 23.1591,1.5839 34.8358,1.5836 46.8381,1.5832 70.5959,1.582 82.5572,1.5811 94.4425,1.5802 106.6255,1.5789 118.3921,1.5777 130.8647,1.576 142.4653,1.5745 155.3118,1.5723 166.6907,1.5704 191.1087,1.5651 205.0624,1.5614 215.7779,1.5584 226.3373,1.5551 236.5706,1.5515 246.7404,1.5475 256.3487,1.5431 267.9049,1.537 280.9074,1.5298 294.5959,1.52 307.9881,1.5103 318.1541,1.5017 330.1598,1.4892 342.9563,1.4713 352.8298,1.4537 364.5975,1.4279 377.1051,1.3927 386.0459,1.3609 392.0991,1.3279 397.0599,1.2943 399.6724,1.2686 400.6262,1.2412 400.9915,1.1946 400.1233,1.1755 399.7074,1.1676 399.6695,1.1687 397.0589,1.1943 392.0984,1.2279 386.0454,1.2609 377.1047,1.2927 364.5972,1.3279 352.8296,1.3537 342.9561,1.3713 330.1597,1.3892 318.154,1.4017 307.988,1.4103 294.5958,1.42 280.9074,1.4298 267.9048,1.437 256.3486,1.4431 246.7404,1.4475 236.5706,1.4515 226.3373,1.4551 215.7779,1.4584 205.0624,1.4614 191.1087,1.4651 166.6907,1.4704 155.3118,1.4723 142.4653,1.4745 130.8647,1.476 118.3921,1.4777 106.6255,1.4789 94.4424,1.4802 82.5572,1.4811 70.5959,1.482 46.8381,1.4832 34.8358,1.4836 23.1591,1.4839 11.1523,1.4841 -0.44718,1.4842 -12.4244,1.4841 -23.9841,1.484 -35.8969,1.4837 -47.452,1.4833 -59.264,1.4828 -70.8488,1.4821 -82.5206,1.4814 -105.6573,1.4795 -128.6601,1.4769 -140.5502,1.4752 -151.5092,1.4737 -163.5836,1.4714 -174.1778,1.4695 -196.6297,1.4644 -209.2326,1.4607 -218.8153,1.4579 -228.1928,1.4548 -237.1726,1.4516 -245.8794,1.4482 -254.1574,1.4447 -263.4242,1.4404 -274.4299,1.4351 -284.2996,1.4291 -295.3519,1.4224 -305.9235,1.4138 -315.6089,1.4059 -323.0911,1.3987 -331.2743,1.3901 -339.0715,1.3801 -345.4237,1.3711 -353.2692,1.3579 -361.3127,1.3437 -367.2666,1.3307 -373.505,1.3154 -378.9411,1.2986 -383.4187,1.2819 -388.2869,1.2586 -392.615,1.2364 -395.8013,1.2121 -398.3909,1.1877 -399.766,1.172 NaN,NaN -401.2127,1.1182 -401.1731,1.1446 -400.9494,1.1318 NaN,NaN 400.6216,1.1414 401.1145,1.1662 401.1307,1.1768 401.2145,1.1662 401.1656,1.0984 400.1252,1.0755 398.8426,1.0512 396.7438,1.0315 393.514,1.0067 389.8471,0.97972 385.9266,0.95859 381.3704,0.93594 376.9682,0.91804 372.5247,0.90075 366.7668,0.88122 361.5895,0.86398 356.7445,0.84913 351.3468,0.83053 345.1934,0.81032 340.7791,0.79433 336.5317,0.77695 332.1072,0.75389 328.8387,0.735 327.1439,0.71352 325.3746,0.68931 322.8791,0.66208 319.7731,0.63514 316.4857,0.60892 313.1012,0.59065 307.8484,0.57099 300.919,0.55201 295.2983,0.5396 290.0471,0.52832 282.713,0.51251 275.2997,0.49814 269.81,0.48756 262.9144,0.47498 254.819,0.45916 248.0159,0.44624 241.9666,0.43382 234.8194,0.41926 228.0968,0.40546 222.1343,0.3945 214.5756,0.38302 206.4877,0.37296 198.5977,0.36491 188.6844,0.35614 178.5435,0.34732 167.6956,0.33977 158.3646,0.33353 150.6171,0.32877 142.187,0.3237 133.4783,0.31863 125.393,0.3139 115.8745,0.30863 104.1601,0.30251 93.7406,0.29794 82.5121,0.29341 63.2853,0.28383 45.8409,0.27505 30.6862,0.26718 7.0259,0.25349 7.0258,0.35349 30.6861,0.36718 45.8409,0.37505 63.2853,0.38383 82.5121,0.39341 93.7405,0.39794 104.16,0.40251 115.8744,0.40863 125.393,0.4139 133.4783,0.41863 142.187,0.4237 150.617,0.42877 158.3645,0.43353 167.6955,0.43977 178.5435,0.44732 188.6843,0.45614 198.5977,0.46491 206.4876,0.47296 214.5755,0.48302 222.1341,0.4945 228.0966,0.50546 234.8192,0.51926 241.9664,0.53382 248.0157,0.54624 254.8188,0.55916 262.9142,0.57498 269.8098,0.58756 275.2995,0.59814 282.7128,0.61251 290.0469,0.62832 295.2981,0.6396 300.9188,0.65201 307.8481,0.67099 313.1008,0.69065 316.4852,0.70892 319.7723,0.73514 322.8782,0.76207 325.3735,0.78931 327.1425,0.81351 328.8375,0.83499 332.1067,0.85389 336.5311,0.87695 340.7787,0.89433 345.193,0.91032 351.3465,0.93052 356.7442,0.94913 361.5892,0.96398 366.7664,0.98122 372.5244,1.0007 376.9678,1.018 381.37,1.0359 385.9261,1.0586 389.8465,1.0797 393.5132,1.1067 396.7431,1.1315 398.8416,1.1511 399.7074,1.1676 NaN,NaN 401.1634,1.1984 401.1307,1.1768 400.9915,1.1946 NaN,NaN -234.6902,1.1423 -233.7316,1.1574 -233.4919,1.151 NaN,NaN 235.776,1.2031 235.058,1.1811 234.7452,1.1968 " stroke="none" fill="red" stroke-width="0" shape-rendering="crispEdges" />
<line x1="918.9159" y1="2.5" x2="918.9159" y2="-2.5" stroke="red" stroke-width="0.1"/>
<line x1="918.9159" y1="-2.5" x2="-942.4778" y2="-2.5" stroke="red" stroke-width="0.1"/>
<line x1="-942.4778" y1="-2.5" x2="-942.4778" y2="2.5" stroke="red" stroke-width="0.1"/>
<line x1="-942.4778" y1="2.5" x2="918.9159" y2="2.5" stroke="red" stroke-width="0.1"/>
"/>
</svg>