<!DOCTYPE svg PUBLIC "-//W3C//DTD SVG 1.1//EN" "http://www.w3.org/Graphics/SVG/1.1/DTD/svg11.dtd">
<svg xmlns="http://www.w3.org/2000/svg" version="1.200000" width="-1845.6857mm" height="-1500mm" xmlns:xlink="http://www.w3.org/1999/xlink">
<polygon points="754.1893,298.932 746.7658,300 752.9666,295.781 752.3364,294.8549 744.2426,283.5987 732.4573,268.3841 716.2554,250.4433 698.7306,232.3523 675.1035,211.5941 654.4492,199.7052 633.7994,190.7601 612.5184,183.4927 590.5094,176.3048 572.0445,171.5945 551.8608,167.3922 533.8393,164.5857 514.9379,162.5781 497.0737,161.4029 475.4985,160.8209 457.2637,161.1796 435.4056,162.2975 414.4233,164.5559 392.5277,167.4927 372.4936,171.283 350.833,176.2327 328.1907,183.6203 309.2278,190.5887 289.0822,199.2509 268.6148,211.2005 244.0405,232.7256 226.3185,251.055 210.3929,268.644 195.5407,296.0831 184.5153,322.6784 183.7911,355.0598 183.9686,385.2334 188.5295,422.6396 198.869,453.5671 211.3338,481.3653 224.8846,498.7085 239.883,515.5337 251.6697,526.3837 265.8079,536.231 280.5348,544.7739 296.3891,552.0262 313.3213,558.5145 332.5103,565.3898 351.1638,570.4608 369.7192,575.0104 389.524,578.5861 407.8167,581.3132 428.4002,583.393 449.9786,584.474 471.0466,585.0152 492.3186,584.4782 513.698,583.4178 534.3069,581.3567 552.729,578.6304 572.3022,575.1259 591.1407,570.5408 609.4043,565.6175 629.0149,558.6312 645.676,552.2723 661.3336,545.1652 676.2084,536.6103 690.0417,527.0935 706.862,509.1466 721.7768,492.3415 734.5528,476.4988 746.9718,452.2581 757.9464,426.4236 758.8729,393.9467 759.156,364.4722 759.3497,335.3878 NaN,NaN 740.565,304.2191 739.9349,303.2929 739.5996,302.8271 739.3422,301.068 746.7658,300 NaN,NaN 732.0658,292.358 739.5996,302.8271 744.35,335.2879 744.1567,364.3281 743.8738,393.7788 744.137,420.5669 733.5803,445.5002 722.8725,467.0876 710.5574,482.3854 695.8416,498.9706 681.5222,514.7477 668.7033,523.6228 655.1223,531.5116 640.326,538.2588 623.9648,544.5069 605.4985,551.1349 587.5824,555.9689 569.656,560.3612 550.5264,563.793 532.8074,566.4319 512.9534,568.4363 491.9331,569.4832 471.4303,570.0201 450.7224,569.4924 429.902,568.4683 410.0258,566.4767 392.1784,563.8228 373.2896,560.4415 355.081,555.9813 337.5685,551.2683 318.6775,544.5034 302.6011,538.373 288.0432,531.7884 274.3303,523.8872 261.8026,515.3236 251.075,505.5468 236.605,489.3473 225.0139,475.2127 213.072,448.7429 203.4167,420.804 198.9683,385.145 198.7909,355.139 198.3788,328.4058 208.7839,303.1271 221.5139,278.71 237.1119,261.4714 253.9718,243.967 276.2094,224.1358 295.0142,213.0281 314.405,204.6669 332.8624,197.8743 354.178,190.8549 375.2899,186.02 394.5234,182.3594 416.037,179.4688 436.1743,177.2778 457.5654,176.1765 475.0979,175.8155 496.0941,176.3709 513.3605,177.495 531.5391,179.4083 548.8084,182.0783 568.3495,186.1323 585.853,190.5638 607.6855,197.6928 627.8643,204.5359 647.0513,212.754 665.212,222.8706 687.9586,242.7908 705.132,260.5067 720.6011,277.5726 " stroke="none" fill="blue" stroke-width="0" shape-rendering="crispEdges" />
<polygon points="658.4794,-529.8422 658.2893,-529.923 658.1147,-530.0082 661.402,-536.7494 NaN,NaN 615.2648,-548.2084 658.2893,-529.923 663.8315,-527.2204 671.6786,-521.0919 687.6716,-504.4942 704.5696,-486.7677 722.1568,-456.2487 736.3998,-422.9071 743.9168,-383.9559 743.9414,-355.2448 743.9413,-325.497 737.0697,-306.1048 727.3219,-284.9849 716.5195,-271.4689 701.1154,-254.5876 683.9776,-236.9489 665.6706,-223.5594 646.7129,-212.6172 627.6939,-204.5664 609.339,-197.9153 587.6247,-190.9028 566.9431,-186.27 547.5958,-182.6621 526.3246,-179.8459 505.9833,-177.6734 484.8191,-176.6024 467.1188,-176.2486 446.2275,-176.8127 428.9072,-177.9501 408.6341,-180.0662 391.2981,-182.7219 371.8782,-186.3186 354.3003,-190.7154 336.1087,-195.737 317.9491,-202.3096 301.2963,-208.7128 285.6829,-216.0108 271.7339,-224.0568 259.1716,-232.6268 248.627,-242.5766 234.5349,-258.701 223.3121,-273.1335 214.1604,-285.6563 206.0618,-297.4303 199.7134,-317.4312 197.7403,-335.7208 197.9119,-364.9332 198.1738,-394.8621 198.571,-424.1258 205.5833,-443.4285 215.4078,-463.7273 226.8822,-477.3326 242.285,-493.96 259.0716,-511.1773 277.246,-524.1178 295.5589,-534.4805 313.7066,-541.967 333.504,-548.5854 355.7343,-555.7284 376.0511,-560.2191 396.2165,-564.3703 416.9843,-567.0577 435.7993,-569.095 453.4253,-570.2042 471.3924,-570.5637 489.3744,-570.185 507.0128,-569.0559 525.658,-567.0248 546.8073,-564.2646 566.5486,-560.1801 587.4114,-555.5364 602.8531,-551.4979 NaN,NaN 664.6893,-543.4906 661.402,-536.7494 664.3246,-543.6565 619.1075,-562.7078 606.6439,-566.011 590.6697,-570.1782 569.573,-574.8721 548.7472,-579.1387 527.2765,-581.9373 507.9652,-584.0256 489.685,-585.1818 471.0866,-585.5605 452.477,-585.1742 434.1832,-584.0077 415.0449,-581.9318 393.1914,-579.0621 372.7915,-574.8606 351.1452,-570.0092 328.7354,-562.8072 307.9463,-555.8169 288.1451,-547.5203 268.4836,-536.2924 248.3304,-521.6476 231.2752,-504.1475 215.2996,-486.8638 201.891,-470.2307 191.3941,-448.2932 183.5724,-424.3294 183.1743,-394.9934 182.912,-364.9936 182.8412,-333.9842 185.4815,-312.6928 193.7049,-288.9269 202.0517,-276.803 211.4773,-263.9174 223.2579,-248.8102 238.3987,-231.6047 250.7359,-220.2236 264.2612,-211.0507 279.3454,-202.4154 295.9142,-194.7116 312.8604,-188.1992 332.1191,-181.2773 350.6718,-176.1608 369.1493,-171.569 389.034,-167.8938 407.0809,-165.1468 427.9291,-162.982 445.8285,-161.818 467.4216,-161.2516 485.5853,-161.622 507.5781,-162.7584 528.3005,-164.9766 550.3495,-167.917 570.2432,-171.6375 592.2374,-176.6297 614.4574,-183.8156 633.5786,-190.769 654.2384,-199.6416 674.5794,-211.4916 694.7375,-226.4978 712.2053,-244.4874 728.3451,-262.2409 740.9531,-278.7249 751.2996,-301.3603 758.9413,-325.497 758.9412,-355.3277 758.633,-386.8596 750.1847,-428.8213 735.11,-463.8128 715.4268,-497.1177 698.4343,-514.9424 680.7416,-533.0444 670.4062,-540.7027 " stroke="none" fill="blue" stroke-width="0" shape-rendering="crispEdges" />
<polygon points="754.1893,298.932 746.7658,300 752.9666,295.781 752.3364,294.8549 744.2426,283.5987 732.4573,268.3841 716.2554,250.4433 698.7306,232.3523 675.1035,211.5941 654.4492,199.7052 633.7994,190.7601 612.5184,183.4927 590.5094,176.3048 572.0445,171.5945 551.8608,167.3922 533.8393,164.5857 514.9379,162.5781 497.0737,161.4029 475.4985,160.8209 457.2637,161.1796 435.4056,162.2975 414.4233,164.5559 392.5277,167.4927 372.4936,171.283 350.833,176.2327 328.1907,183.6203 309.2278,190.5887 289.0822,199.2509 268.6148,211.2005 244.0405,232.7256 226.3185,251.055 210.3929,268.644 195.5407,296.0831 184.5153,322.6784 183.7911,355.0598 183.9686,385.2334 188.5295,422.6396 198.869,453.5671 211.3338,481.3653 224.8846,498.7085 239.883,515.5337 251.6697,526.3837 265.8079,536.231 280.5348,544.7739 296.3891,552.0262 313.3213,558.5145 332.5103,565.3898 351.1638,570.4608 369.7192,575.0104 389.524,578.5861 407.8167,581.3132 428.4002,583.393 449.9786,584.474 471.0466,585.0152 492.3186,584.4782 513.698,583.4178 534.3069,581.3567 552.729,578.6304 572.3022,575.1259 591.1407,570.5408 609.4043,565.6175 629.0149,558.6312 645.676,552.2723 661.3336,545.1652 676.2084,536.6103 690.0417,527.0935 706.862,509.1466 721.7768,492.3415 734.5528,476.4988 746.9718,452.2581 757.9464,426.4236 758.8729,393.9467 759.156,364.4722 759.3497,335.3878 NaN,NaN 740.565,304.2191 739.9349,303.2929 739.5996,302.8271 739.3422,301.068 746.7658,300 NaN,NaN 732.0658,292.358 739.5996,302.8271 744.35,335.2879 744.1567,364.3281 743.8738,393.7788 744.137,420.5669 733.5803,445.5002 722.8725,467.0876 710.5574,482.3854 695.8416,498.9706 681.5222,514.7477 668.7033,523.6228 655.1223,531.5116 640.326,538.2588 623.9648,544.5069 605.4985,551.1349 587.5824,555.9689 569.656,560.3612 550.5264,563.793 532.8074,566.4319 512.9534,568.4363 491.9331,569.4832 471.4303,570.0201 450.7224,569.4924 429.902,568.4683 410.0258,566.4767 392.1784,563.8228 373.2896,560.4415 355.081,555.9813 337.5685,551.2683 318.6775,544.5034 302.6011,538.373 288.0432,531.7884 274.3303,523.8872 261.8026,515.3236 251.075,505.5468 236.605,489.3473 225.0139,475.2127 213.072,448.7429 203.4167,420.804 198.9683,385.145 198.7909,355.139 198.3788,328.4058 208.7839,303.1271 221.5139,278.71 237.1119,261.4714 253.9718,243.967 276.2094,224.1358 295.0142,213.0281 314.405,204.6669 332.8624,197.8743 354.178,190.8549 375.2899,186.02 394.5234,182.3594 416.037,179.4688 436.1743,177.2778 457.5654,176.1765 475.0979,175.8155 496.0941,176.3709 513.3605,177.495 531.5391,179.4083 548.8084,182.0783 568.3495,186.1323 585.853,190.5638 607.6855,197.6928 627.8643,204.5359 647.0513,212.754 665.212,222.8706 687.9586,242.7908 705.132,260.5067 720.6011,277.5726 " stroke="none" fill="red" stroke-width="0" shape-rendering="crispEdges" />
<polygon points="658.4794,-529.8422 658.2893,-529.923 658.1147,-530.0082 661.402,-536.7494 NaN,NaN 615.2648,-548.2084 658.2893,-529.923 663.8315,-527.2204 671.6786,-521.0919 687.6716,-504.4942 704.5696,-486.7677 722.1568,-456.2487 736.3998,-422.9071 743.9168,-383.9559 743.9414,-355.2448 743.9413,-325.497 737.0697,-306.1048 727.3219,-284.9849 716.5195,-271.4689 701.1154,-254.5876 683.9776,-236.9489 665.6706,-223.5594 646.7129,-212.6172 627.6939,-204.5664 609.339,-197.9153 587.6247,-190.9028 566.9431,-186.27 547.5958,-182.6621 526.3246,-179.8459 505.9833,-177.6734 484.8191,-176.6024 467.1188,-176.2486 446.2275,-176.8127 428.9072,-177.9501 408.6341,-180.0662 391.2981,-182.7219 371.8782,-186.3186 354.3003,-190.7154 336.1087,-195.737 317.9491,-202.3096 301.2963,-208.7128 285.6829,-216.0108 271.7339,-224.0568 259.1716,-232.6268 248.627,-242.5766 234.5349,-258.701 223.3121,-273.1335 214.1604,-285.6563 206.0618,-297.4303 199.7134,-317.4312 197.7403,-335.7208 197.9119,-364.9332 198.1738,-394.8621 198.571,-424.1258 205.5833,-443.4285 215.4078,-463.7273 226.8822,-477.3326 242.285,-493.96 259.0716,-511.1773 277.246,-524.1178 295.5589,-534.4805 313.7066,-541.967 333.504,-548.5854 355.7343,-555.7284 376.0511,-560.2191 396.2165,-564.3703 416.9843,-567.0577 435.7993,-569.095 453.4253,-570.2042 471.3924,-570.5637 489.3744,-570.185 507.0128,-569.0559 525.658,-567.0248 546.8073,-564.2646 566.5486,-560.1801 587.4114,-555.5364 602.8531,-551.4979 NaN,NaN 664.6893,-543.4906 661.402,-536.7494 664.3246,-543.6565 619.1075,-562.7078 606.6439,-566.011 590.6697,-570.1782 569.573,-574.8721 548.7472,-579.1387 527.2765,-581.9373 507.9652,-584.0256 489.685,-585.1818 471.0866,-585.5605 452.477,-585.1742 434.1832,-584.0077 415.0449,-581.9318 393.1914,-579.0621 372.7915,-574.8606 351.1452,-570.0092 328.7354,-562.8072 307.9463,-555.8169 288.1451,-547.5203 268.4836,-536.2924 248.3304,-521.6476 231.2752,-504.1475 215.2996,-486.8638 201.891,-470.2307 191.3941,-448.2932 183.5724,-424.3294 183.1743,-394.9934 182.912,-364.9936 182.8412,-333.9842 185.4815,-312.6928 193.7049,-288.9269 202.0517,-276.803 211.4773,-263.9174 223.2579,-248.8102 238.3987,-231.6047 250.7359,-220.2236 264.2612,-211.0507 279.3454,-202.4154 295.9142,-194.7116 312.8604,-188.1992 332.1191,-181.2773 350.6718,-176.1608 369.1493,-171.569 389.034,-167.8938 407.0809,-165.1468 427.9291,-162.982 445.8285,-161.818 467.4216,-161.2516 485.5853,-161.622 507.5781,-162.7584 528.3005,-164.9766 550.3495,-167.917 570.2432,-171.6375 592.2374,-176.6297 614.4574,-183.8156 633.5786,-190.769 654.2384,-199.6416 674.5794,-211.4916 694.7375,-226.4978 712.2053,-244.4874 728.3451,-262.2409 740.9531,-278.7249 751.2996,-301.3603 758.9413,-325.497 758.9412,-355.3277 758.633,-386.8596 750.1847,-428.8213 735.11,-463.8128 715.4268,-497.1177 698.4343,-514.9424 680.7416,-533.0444 670.4062,-540.7027 " stroke="none" fill="red" stroke-width="0" shape-rendering="crispEdges" />
<line x1="942.4778" y1="750" x2="942.4778" y2="-750" stroke="red" stroke-width="0.1"/>
<line x1="942.4778" y1="-750" x2="-903.2079" y2="-750" stroke="red" stroke-width="0.1"/>
<line x1="-903.2079" y1="-750" x2="-903.2079" y2="750" stroke="red" stroke-width="0.1"/>
<line x1="-903.2079" y1="750" x2="942.4778" y2="750" stroke="red" stroke-width="0.1"/>
"/>
</svg>