<!DOCTYPE svg PUBLIC "-//W3C//DTD SVG 1.1//EN" "http://www.w3.org/Graphics/SVG/1.1/DTD/svg11.dtd">
<svg xmlns="http://www.w3.org/2000/svg" version="1.200000" width="-1861.3936mm" height="-5mm" xmlns:xlink="http://www.w3.org/1999/xlink">
<polygon points="-474.2845,-0.46681 -474.2845,-0.36681 -422.141,-0.39637 -418.3438,-0.3917 -413.6314,-0.38752 -405.937,-0.38528 -399.0897,-0.39095 -392.128,-0.40345 -386.5004,-0.42487 -378.206,-0.44881 -371.7633,-0.47311 -362.1408,-0.48613 -351.4134,-0.4948 -339.4728,-0.49498 -328.9176,-0.49035 -317.2399,-0.48453 -306.2489,-0.48127 -294.2437,-0.4851 -282.6224,-0.49811 -271.4334,-0.51824 -261.8081,-0.54378 -254.2286,-0.5762 -249.8585,-0.60715 -249.3083,-0.67198 -249.8613,-0.70711 -254.2293,-0.67619 -261.8085,-0.64377 -271.4337,-0.61824 -282.6226,-0.59811 -294.2438,-0.5851 -306.2489,-0.58127 -317.2399,-0.58453 -328.9175,-0.59035 -339.4727,-0.59498 -351.4134,-0.5948 -362.1409,-0.58613 -371.7634,-0.57311 -378.2064,-0.54881 -386.5007,-0.52487 -392.1284,-0.50345 -399.0899,-0.49095 -405.9371,-0.48528 -413.6314,-0.48752 -418.3437,-0.4917 -422.1409,-0.49637 NaN,NaN -248.7756,-0.63815 -248.9531,-0.66883 -248.9735,-0.69868 -249.0397,-0.69767 -249.0267,-0.70516 -249.3083,-0.67198 NaN,NaN -249.0412,-0.79765 -248.9918,-0.72536 -248.924,-0.7645 -248.7588,-0.73673 -248.9816,-0.71048 -248.9735,-0.69868 -247.1949,-0.72588 -242.5949,-0.75058 -234.2629,-0.77134 -222.4081,-0.79211 -210.6223,-0.80508 -200.9188,-0.81511 -188.9062,-0.8261 -176.6161,-0.83794 -166.5018,-0.84745 -155.1465,-0.85948 -141.288,-0.87547 -127.6626,-0.89634 -116.3907,-0.9153 -103.9012,-0.9433 -92.7821,-0.97791 -84.225,-1.0112 -80.8405,-1.0438 -79.8875,-1.1011 -80.325,-1.1082 -82.8512,-1.1244 -84.226,-1.1112 -92.7825,-1.0779 -103.9015,-1.0433 -116.391,-1.0153 -127.6627,-0.99634 -141.2882,-0.97547 -155.1466,-0.95948 -166.502,-0.94745 -176.6162,-0.93794 -188.9063,-0.9261 -200.9189,-0.91511 -210.6224,-0.90508 -222.4082,-0.89211 -234.2631,-0.87134 -242.5952,-0.85058 -247.1954,-0.82587 NaN,NaN -80.842,-1.1438 -79.7104,-1.1117 -78.5793,-1.1797 -80.3244,-1.2082 -83.9493,-1.2315 -88.5716,-1.2544 -92.9159,-1.2718 -98.365,-1.2883 -104.3975,-1.3043 -110.2901,-1.3183 -117.2713,-1.3329 -124.5863,-1.3471 -130.8231,-1.358 -138.0019,-1.3695 -146.2465,-1.381 -153.698,-1.3906 -163.1955,-1.4014 -172.4646,-1.4119 -179.4231,-1.4189 -187.5448,-1.4265 -195.8962,-1.4336 -203.6125,-1.4397 -213.193,-1.4464 -224.2308,-1.4541 -234.9586,-1.4603 -245.2923,-1.4661 -256.9909,-1.4716 -266.7235,-1.4761 -277.3482,-1.4804 -286.5425,-1.4839 -295.0584,-1.487 -303.7728,-1.4898 -312.8897,-1.4927 -323.1134,-1.4956 -332.7687,-1.4981 -345.4942,-1.5012 -355.6294,-1.5032 -368.1151,-1.5056 -378.6404,-1.5072 -390.9523,-1.5089 -401.7887,-1.5101 -413.9894,-1.5114 -425.0656,-1.5122 -437.2162,-1.5129 -448.4662,-1.5134 -460.6286,-1.5137 -471.9899,-1.5137 -484.2283,-1.5136 -495.6397,-1.5132 -508.0236,-1.5126 -519.4232,-1.5119 -532.0296,-1.5107 -543.3531,-1.5096 -556.27,-1.5079 -567.448,-1.5063 -580.7788,-1.5039 -591.7344,-1.5019 -605.604,-1.4987 -616.2491,-1.4961 -627.5627,-1.493 -637.7938,-1.4899 -647.6671,-1.4867 -657.3594,-1.4831 -668.1939,-1.4787 -680.4422,-1.4734 -692.5604,-1.4672 -706.249,-1.4602 -720.1134,-1.4513 -732.8409,-1.4431 -742.8637,-1.4359 -754.3075,-1.4264 -766.7627,-1.4141 -776.4602,-1.4034 -787.5706,-1.3903 -801.1098,-1.3723 -813.7698,-1.3514 -824.8766,-1.3297 -836.525,-1.3022 -847.5645,-1.2685 -856.0343,-1.2365 -860.7441,-1.2029 -862.1915,-1.1366 -861.9598,-1.1312 -859.8383,-1.1143 -859.4535,-1.1121 -856.0335,-1.1365 -847.5641,-1.1685 -836.5247,-1.2022 -824.8763,-1.2297 -813.7696,-1.2514 -801.1096,-1.2723 -787.5704,-1.2903 -776.4601,-1.3034 -766.7626,-1.3141 -754.3074,-1.3264 -742.8636,-1.3359 -732.8408,-1.3431 -720.1133,-1.3513 -706.249,-1.3602 -692.5603,-1.3672 -680.4422,-1.3734 -668.1938,-1.3787 -657.3594,-1.3831 -647.6671,-1.3867 -637.7938,-1.3899 -627.5627,-1.393 -616.2491,-1.3961 -605.604,-1.3987 -591.7344,-1.4019 -580.7788,-1.4039 -567.448,-1.4063 -556.27,-1.4079 -543.3531,-1.4096 -532.0296,-1.4107 -519.4232,-1.4119 -508.0236,-1.4126 -495.6397,-1.4132 -484.2283,-1.4136 -471.9899,-1.4137 -460.6286,-1.4137 -448.4662,-1.4134 -437.2162,-1.4129 -425.0656,-1.4122 -413.9894,-1.4114 -401.7887,-1.4101 -390.9523,-1.4089 -378.6404,-1.4072 -368.1151,-1.4056 -355.6294,-1.4032 -345.4942,-1.4012 -332.7687,-1.3981 -323.1135,-1.3956 -312.8898,-1.3927 -303.7729,-1.3898 -295.0585,-1.387 -286.5425,-1.3839 -277.3483,-1.3804 -266.7236,-1.3761 -256.9909,-1.3716 -245.2923,-1.3661 -234.9587,-1.3603 -224.2308,-1.3541 -213.1931,-1.3464 -203.6126,-1.3397 -195.8963,-1.3336 -187.5449,-1.3265 -179.4231,-1.3189 -172.4647,-1.3119 -163.1956,-1.3014 -153.6981,-1.2906 -146.2466,-1.281 -138.002,-1.2695 -130.8233,-1.258 -124.5865,-1.2471 -117.2715,-1.2329 -110.2903,-1.2183 -104.3978,-1.2043 -98.3652,-1.1883 -92.9162,-1.1718 -88.572,-1.1544 -83.9498,-1.1315 -82.8512,-1.1244 NaN,NaN -78.581,-1.0797 -79.7104,-1.1117 -79.8875,-1.1011 NaN,NaN -860.743,-1.103 -861.9598,-1.1312 -862.2574,-1.1336 -863.6389,-1.0703 -863.1392,-1.0406 -859.8389,-1.0143 -855.6635,-0.99046 -851.5976,-0.97403 -845.7227,-0.95694 -839.2838,-0.94143 -833.4729,-0.92935 -826.0436,-0.91574 -818.0766,-0.90158 -811.6343,-0.89114 -804.466,-0.88024 -796.1397,-0.86902 -788.7388,-0.85947 -778.6897,-0.84891 -769.187,-0.83915 -761.8039,-0.83263 -753.7551,-0.82478 -745.4415,-0.81729 -738.6463,-0.81004 -729.2994,-0.80071 -719.426,-0.7905 -710.6185,-0.78165 -702.64,-0.76986 -695.7896,-0.75184 -691.8573,-0.73389 -690.4539,-0.70708 -690.2386,-0.67694 -689.6265,-0.64417 -689.4882,-0.61727 -688.7075,-0.59273 -684.4689,-0.57251 -679.6726,-0.55223 -675.2115,-0.53687 -670.1377,-0.51932 -664.1394,-0.49931 -657.3314,-0.48204 -651.3597,-0.46838 -645.569,-0.45741 -639.5066,-0.45092 -631.3677,-0.44994 -623.312,-0.45664 -613.4482,-0.4675 -601.4075,-0.48133 -588.6203,-0.49516 -578.7342,-0.50645 -569.9637,-0.51225 -563.405,-0.51093 -561.8843,-0.52253 -559.1134,-0.54992 -558.2936,-0.56163 -562.1869,-0.61068 -569.9637,-0.61225 -578.7343,-0.60645 -588.6204,-0.59516 -601.4076,-0.58133 -613.4483,-0.5675 -623.3121,-0.55664 -631.3678,-0.54994 -639.5066,-0.55092 -645.5689,-0.55741 -651.3595,-0.56838 -657.3312,-0.58204 -664.1391,-0.59931 -670.1373,-0.61932 -675.2112,-0.63687 -679.6722,-0.65223 -684.4684,-0.6725 -688.707,-0.69273 -689.485,-0.71722 -689.6069,-0.74224 -690.2332,-0.77679 -690.44,-0.80611 -691.8554,-0.83387 -695.7891,-0.85183 -702.6397,-0.86986 -710.6184,-0.88165 -719.4259,-0.8905 -729.2993,-0.90071 -738.6462,-0.91004 -745.4414,-0.91729 -753.755,-0.92478 -761.8038,-0.93263 -769.1869,-0.93915 -778.6895,-0.94891 -788.7387,-0.95947 -796.1396,-0.96902 -804.4659,-0.98024 -811.6341,-0.99114 -818.0764,-1.0016 -826.0434,-1.0157 -833.4727,-1.0293 -839.2836,-1.0414 -845.7225,-1.0569 -851.5973,-1.074 -855.6631,-1.0905 -859.4535,-1.1121 NaN,NaN -863.6329,-1.1701 -863.1384,-1.1406 -862.2574,-1.1336 -862.1915,-1.1366 NaN,NaN -557.2268,-0.54818 -557.3246,-0.54942 -557.3268,-0.54818 -562.1871,-0.51068 -563.405,-0.51093 -564.9543,-0.49911 -564.9755,-0.48133 -560.3816,-0.47253 -557.5806,-0.4718 -557.276,-0.47615 NaN,NaN -559.1124,-0.44992 -561.8835,-0.42253 -564.9421,-0.39986 -565.0215,-0.4426 -565.0941,-0.38156 -560.3816,-0.37253 -550.5428,-0.36998 -540.287,-0.37034 -510.9424,-0.49994 -480.6237,-0.63422 -450.2882,-0.76943 -421.0531,-0.90431 -388.0483,-1.0437 -374.9814,-1.0539 -365.4969,-1.0626 -358.0965,-1.0697 -357.2137,-1.0895 -358.7278,-1.0951 -363.2128,-1.1083 -367.9618,-1.1217 -376.2611,-1.1369 -383.6896,-1.1458 -384.6821,-1.1463 -388.0484,-1.1437 -421.0535,-1.0043 -450.2887,-0.86943 -480.6241,-0.73422 -510.9429,-0.59994 -540.2875,-0.47034 -550.5428,-0.46998 -557.5806,-0.4718 NaN,NaN -565.0939,-0.48156 -565.0215,-0.4426 -564.9755,-0.48133 NaN,NaN -374.9815,-1.1539 -365.497,-1.1626 -358.0967,-1.1697 -355.7404,-1.1224 -353.384,-1.1751 -355.3287,-1.1825 -358.7275,-1.1951 -363.2125,-1.2083 -367.9617,-1.2217 -376.2609,-1.2369 -383.6896,-1.2458 -392.6361,-1.2506 -402.348,-1.2552 -414.2155,-1.2603 -424.7658,-1.2639 -436.3684,-1.267 -447.5851,-1.2692 -459.1707,-1.2705 -470.8653,-1.271 -482.7307,-1.2705 -494.69,-1.2693 -507.2038,-1.2667 -519.1801,-1.2636 -532.8188,-1.2584 -544.5153,-1.2534 -555.3628,-1.2479 -566.4109,-1.2319 -576.0358,-1.2157 -581.3195,-1.2017 -586.0402,-1.1872 -586.0522,-1.1712 -581.4151,-1.1649 -574.523,-1.1577 -565.0254,-1.1487 -558.7343,-1.143 -555.3627,-1.1479 -544.5153,-1.1534 -532.8188,-1.1584 -519.1801,-1.1636 -507.2038,-1.1667 -494.69,-1.1693 -482.7307,-1.1705 -470.8653,-1.171 -459.1707,-1.1705 -447.5851,-1.1692 -436.3685,-1.167 -424.7658,-1.1639 -414.2155,-1.1603 -402.3481,-1.1552 -392.6362,-1.1506 -384.6821,-1.1463 NaN,NaN -353.3844,-1.0751 -355.7404,-1.1224 -357.2137,-1.0895 -355.3291,-1.0825 NaN,NaN -566.4108,-1.1319 -576.0355,-1.1157 -581.3192,-1.1017 -586.0232,-1.0886 -586.0804,-1.134 -586.1277,-1.0713 -581.4153,-1.0649 -574.5231,-1.0577 -565.0255,-1.0487 -554.5602,-1.0392 -543.6169,-1.0319 -524.1071,-1.0329 -506.5771,-1.0355 -491.7797,-1.0401 -467.9379,-1.0519 -467.938,-1.1519 -491.7798,-1.1401 -506.5771,-1.1355 -524.1071,-1.1329 -543.6169,-1.1319 -554.5601,-1.1392 -558.7343,-1.143 NaN,NaN -586.1275,-1.1713 -586.0804,-1.134 -586.0522,-1.1712 NaN,NaN -557.2775,-0.57614 -558.2936,-0.56163 -557.3246,-0.54942 NaN,NaN -249.0267,-0.70516 -248.9816,-0.71048 -248.9918,-0.72536 " stroke="none" fill="blue" stroke-width="0" shape-rendering="crispEdges" />
<polygon points="478.8232,-1.5881 462.0288,-1.5881 454.4156,-1.588 446.8328,-1.5878 425.021,-1.5873 401.3018,-1.5863 389.7118,-1.5855 377.5085,-1.5848 365.7358,-1.5838 353.6283,-1.5828 341.615,-1.5814 329.6431,-1.5801 317.317,-1.5783 305.5278,-1.5766 292.7966,-1.5742 281.2479,-1.5721 267.9907,-1.569 256.7548,-1.5664 242.8099,-1.5623 231.9793,-1.5591 221.4756,-1.5555 211.1709,-1.5513 200.6742,-1.5462 191.0572,-1.5405 178.4051,-1.5315 165.3467,-1.5218 153.7615,-1.5112 140.6962,-1.4958 129.0778,-1.476 120.2416,-1.4526 112.2396,-1.4248 106.9462,-1.3925 104.3437,-1.3607 104.5073,-1.295 104.6757,-1.3306 106.3924,-1.3003 107.081,-1.2933 112.2399,-1.3248 120.2418,-1.3526 129.078,-1.376 140.6963,-1.3958 153.7616,-1.4112 165.3468,-1.4218 178.4051,-1.4315 191.0572,-1.4405 200.6742,-1.4462 211.1709,-1.4513 221.4757,-1.4555 231.9793,-1.4591 242.81,-1.4623 256.7549,-1.4664 267.9907,-1.469 281.2479,-1.4721 292.7966,-1.4742 305.5279,-1.4766 317.317,-1.4783 329.6431,-1.4801 341.615,-1.4814 353.6283,-1.4828 365.7358,-1.4838 377.5085,-1.4848 389.7118,-1.4855 401.3018,-1.4863 425.021,-1.4873 446.8328,-1.4878 454.4156,-1.488 462.0288,-1.4881 478.8232,-1.4881 486.3807,-1.488 495.8055,-1.4879 508.0198,-1.4876 519.2851,-1.4873 531.4132,-1.4869 542.7052,-1.4863 554.7134,-1.4857 577.9112,-1.484 589.3451,-1.4829 600.9934,-1.4819 612.5471,-1.4804 623.9414,-1.4791 635.6531,-1.4772 646.7311,-1.4755 658.6448,-1.4732 669.3304,-1.4711 691.697,-1.4655 704.181,-1.4616 713.7744,-1.4585 723.047,-1.4552 731.9296,-1.4515 740.5802,-1.4476 748.5968,-1.4434 757.8529,-1.4378 768.3838,-1.4312 788.591,-1.4145 796.9359,-1.4058 805.3762,-1.3958 812.5862,-1.3843 818.696,-1.3727 824.8369,-1.358 830.248,-1.3408 834.5594,-1.3184 836.4953,-1.3043 838.2346,-1.3327 838.3225,-1.3366 837.7654,-1.3949 834.5601,-1.4184 830.2486,-1.4408 824.8372,-1.458 818.6962,-1.4727 812.5864,-1.4843 805.3764,-1.4958 796.936,-1.5058 788.5911,-1.5145 768.3839,-1.5312 757.853,-1.5378 748.5969,-1.5434 740.5802,-1.5476 731.9297,-1.5515 723.0471,-1.5552 713.7745,-1.5585 704.181,-1.5616 691.697,-1.5655 669.3304,-1.5711 658.6448,-1.5732 646.7311,-1.5755 635.6531,-1.5772 623.9414,-1.5791 612.5471,-1.5804 600.9934,-1.5819 589.3451,-1.5829 577.9112,-1.584 554.7134,-1.5857 542.7052,-1.5863 531.4132,-1.5869 519.2851,-1.5873 508.0199,-1.5876 495.8055,-1.5879 486.3807,-1.588 NaN,NaN 838.9936,-1.2663 838.3785,-1.3307 837.7631,-1.295 836.4953,-1.3043 836.2319,-1.2999 832.905,-1.2698 828.3028,-1.2363 822.4729,-1.2028 816.9814,-1.1739 811.3487,-1.1451 804.7521,-1.1127 797.768,-1.078 792.1524,-1.049 786.7312,-1.0197 780.7885,-0.98602 775.9843,-0.95577 771.8293,-0.92801 766.513,-0.89479 761.0414,-0.86154 756.1429,-0.83278 750.1496,-0.80052 743.837,-0.76716 737.9708,-0.73788 729.3053,-0.70142 718.4004,-0.6725 707.5203,-0.65283 696.2597,-0.64382 683.2765,-0.64204 672.7932,-0.65069 661.5526,-0.65454 649.8996,-0.6492 639.6739,-0.63458 632.0577,-0.61136 623.6913,-0.58409 616.8651,-0.55732 609.6686,-0.53724 600.7057,-0.52597 589.4723,-0.52228 578.8858,-0.52427 566.8626,-0.52964 557.2564,-0.53673 545.294,-0.53832 533.0818,-0.52951 520.1064,-0.51807 509.948,-0.50386 495.9922,-0.48839 484.3151,-0.4741 472.9652,-0.47157 461.719,-0.46876 452.2334,-0.47071 447.0852,-0.48551 443.3993,-0.50398 439.9895,-0.52247 437.0983,-0.5422 429.4848,-0.5547 420.496,-0.5553 412.0199,-0.55457 401.2925,-0.5464 389.09,-0.53663 378.6484,-0.52958 366.6485,-0.5233 354.4134,-0.52404 346.0841,-0.53165 340.3107,-0.55152 336.3428,-0.57305 334.2053,-0.5981 331.5139,-0.62028 327.3399,-0.64237 322.3457,-0.65644 316.8891,-0.66887 309.988,-0.67565 301.6297,-0.67579 290.8326,-0.66329 280.8161,-0.64841 271.1666,-0.63341 262.0263,-0.62091 252.9619,-0.61205 247.988,-0.61322 241.7215,-0.62241 234.5386,-0.6355 228.3316,-0.65149 223.259,-0.67115 217.9804,-0.69347 213.8834,-0.7101 209.7652,-0.72952 204.8897,-0.75104 201.0238,-0.77017 196.8776,-0.7903 192.2687,-0.81308 188.2523,-0.83116 184.7318,-0.84987 180.44,-0.87262 176.5833,-0.89377 172.7062,-0.9166 168.8888,-0.94025 165.8968,-0.95903 162.4942,-0.97837 158.7345,-1.0011 155.0834,-1.0208 150.8811,-1.043 146.2555,-1.0665 142.9135,-1.0847 138.847,-1.1037 134.4446,-1.1259 130.6362,-1.1449 126.4869,-1.1662 121.9054,-1.1895 118.5329,-1.208 115.2949,-1.2281 111.7887,-1.2507 109.0475,-1.2736 107.081,-1.2933 106.9468,-1.2925 104.5852,-1.2637 104.6666,-1.231 106.3907,-1.2003 109.0465,-1.1736 111.7879,-1.1507 115.2942,-1.1281 118.5323,-1.108 121.9048,-1.0895 126.4864,-1.0662 130.6357,-1.0449 134.4441,-1.0259 138.8465,-1.0037 142.913,-0.9847 146.2549,-0.96654 150.8806,-0.94303 155.0829,-0.9208 158.7339,-0.9011 162.4936,-0.87837 165.8962,-0.85904 168.8882,-0.84025 172.7056,-0.8166 176.5827,-0.79377 180.4394,-0.77262 184.7312,-0.74987 188.2518,-0.73116 192.2682,-0.71308 196.8771,-0.6903 201.0233,-0.67017 204.8892,-0.65104 209.7648,-0.62952 213.883,-0.6101 217.9799,-0.59347 223.2586,-0.57115 228.3312,-0.55149 234.5384,-0.5355 241.7213,-0.52241 247.9879,-0.51322 252.9618,-0.51205 262.0264,-0.52091 271.1667,-0.53341 280.8162,-0.54841 290.8327,-0.56329 301.6299,-0.57579 309.988,-0.57565 316.889,-0.56887 322.3455,-0.55644 327.3396,-0.54237 331.5134,-0.52028 334.2045,-0.49811 336.3416,-0.47305 340.3101,-0.45152 346.0837,-0.43166 354.4133,-0.42404 366.6485,-0.4233 378.6484,-0.42958 389.0901,-0.43663 401.2926,-0.4464 412.0199,-0.45457 420.496,-0.4553 429.4848,-0.4547 437.0982,-0.4422 439.9888,-0.42247 443.3987,-0.40398 447.0847,-0.38551 452.2332,-0.37071 461.719,-0.36876 472.9653,-0.37157 484.3151,-0.3741 495.9923,-0.38839 509.9481,-0.40386 520.1065,-0.41807 533.0819,-0.42951 545.294,-0.43832 557.2563,-0.43673 566.8625,-0.42964 578.8857,-0.42427 589.4723,-0.42228 600.7057,-0.42597 609.6687,-0.43724 616.8654,-0.45732 623.6917,-0.48409 632.0581,-0.51136 639.6742,-0.53458 649.8998,-0.5492 661.5527,-0.55454 672.7932,-0.55069 683.2764,-0.54204 696.2598,-0.54382 707.5204,-0.55283 718.4006,-0.5725 729.3056,-0.60142 737.9712,-0.63788 743.8375,-0.66717 750.1501,-0.70052 756.1435,-0.73278 761.042,-0.76154 766.5137,-0.79479 771.8299,-0.82801 775.9849,-0.85578 780.7891,-0.88602 786.7318,-0.91975 792.153,-0.949 797.7685,-0.978 804.7526,-1.0127 811.3492,-1.0451 816.9819,-1.0739 822.4735,-1.1028 828.3034,-1.1363 832.9058,-1.1698 836.2328,-1.1999 838.2362,-1.2327 NaN,NaN 104.3449,-1.2607 104.5852,-1.2637 104.5073,-1.295 NaN,NaN 838.9892,-1.3662 838.3225,-1.3366 838.3785,-1.3307 " stroke="none" fill="blue" stroke-width="0" shape-rendering="crispEdges" />
<polygon points="-370.1167,0.4875 -370.1169,0.4375 -370.117,0.4875 -371.9661,0.48269 -376.0089,0.47727 -382.0961,0.47253 -384.866,0.47181 -385.0553,0.49855 -380.2906,0.51068 -376.7415,0.5114 NaN,NaN -382.8685,0.5335 -384.737,0.55416 -385.1507,0.52615 -385.1708,0.51486 -385.2507,0.52615 -385.2008,0.59818 -380.2907,0.61068 -372.5139,0.61225 -363.7437,0.60645 -353.8577,0.59516 -341.0698,0.58133 -329.029,0.5675 -319.1654,0.55664 -311.1102,0.54994 -302.9715,0.55092 -296.9099,0.55742 -291.1194,0.56838 -285.1478,0.58204 -278.3395,0.59932 -272.3411,0.61933 -267.2674,0.63687 -262.8067,0.65223 -258.0106,0.67251 -253.7736,0.69271 -253.0034,0.71628 -252.8665,0.74313 -252.2514,0.77638 -252.0344,0.80659 -250.6239,0.83389 -246.6899,0.85184 -239.839,0.86986 -231.8601,0.88165 -223.0522,0.8905 -213.179,0.90071 -203.8321,0.91004 -197.0368,0.91729 -188.7232,0.92478 -180.6743,0.93263 -173.291,0.93915 -163.7883,0.94891 -153.7392,0.95947 -146.3383,0.96902 -138.012,0.98024 -130.8437,0.99114 -124.4015,1.0016 -116.4344,1.0157 -109.0051,1.0293 -103.1943,1.0414 -96.7554,1.0569 -90.8807,1.074 -86.8149,1.0905 -83.0243,1.1121 -81.7346,1.1029 -79.2076,1.0743 -79.336,1.0407 -82.6389,1.0143 -86.8143,0.99046 -90.8803,0.97403 -96.7551,0.95694 -103.194,0.94143 -109.0049,0.92935 -116.4342,0.91574 -124.4013,0.90158 -130.8436,0.89114 -138.0118,0.88024 -146.3381,0.86902 -153.7391,0.85947 -163.7882,0.84891 -173.2909,0.83915 -180.6742,0.83263 -188.7231,0.82478 -197.0368,0.81729 -203.832,0.81004 -213.1789,0.80071 -223.0521,0.7905 -231.86,0.78165 -239.8388,0.76986 -246.6897,0.75184 -250.6235,0.73389 -252.0325,0.70661 -252.2374,0.67736 -252.8611,0.64328 -252.9838,0.61822 -253.7705,0.59276 -258.0101,0.57251 -262.8063,0.55224 -267.2671,0.53687 -272.3407,0.51933 -278.3392,0.49932 -285.1475,0.48205 -291.1191,0.46838 -296.9097,0.45742 -302.9714,0.45092 -311.1102,0.44994 -319.1655,0.45664 -329.0291,0.4675 -341.0699,0.48133 -353.8578,0.49516 -363.7438,0.50645 -372.514,0.51225 -376.7415,0.5114 NaN,NaN -385.2005,0.49818 -385.1708,0.51486 -385.0553,0.49855 NaN,NaN -78.8413,1.1702 -79.0901,1.105 -79.342,1.1405 -82.6397,1.1143 -83.0243,1.1121 -86.444,1.1365 -94.9136,1.1685 -105.953,1.2022 -117.6014,1.2297 -128.7081,1.2514 -141.3681,1.2723 -154.9074,1.2903 -166.0177,1.3034 -175.7153,1.3141 -188.1705,1.3264 -199.6142,1.3359 -209.6369,1.3431 -222.3643,1.3513 -236.2287,1.3602 -249.9172,1.3672 -262.0354,1.3734 -274.2845,1.3787 -285.119,1.3831 -294.8112,1.3867 -304.6846,1.3899 -314.9156,1.393 -326.2286,1.3961 -336.8736,1.3987 -350.7433,1.4019 -361.6989,1.4039 -375.0298,1.4063 -386.2078,1.4079 -399.1247,1.4096 -410.4483,1.4107 -423.0547,1.4119 -434.4544,1.4126 -446.8383,1.4132 -458.2498,1.4136 -470.4882,1.4137 -481.8497,1.4137 -494.0119,1.4134 -505.2621,1.4129 -517.4125,1.4122 -528.4889,1.4114 -540.6894,1.4101 -551.5259,1.4089 -563.8376,1.4072 -574.3631,1.4056 -586.8486,1.4032 -596.9839,1.4012 -609.7093,1.3981 -619.3646,1.3956 -629.5885,1.3927 -638.7055,1.3898 -647.4198,1.387 -655.9358,1.3839 -665.13,1.3804 -675.7543,1.3761 -685.4869,1.3716 -697.1854,1.3661 -707.5191,1.3603 -718.2468,1.3541 -729.2847,1.3464 -738.865,1.3397 -746.5811,1.3336 -754.9324,1.3265 -763.0542,1.3189 -770.0125,1.3119 -779.2817,1.3014 -788.7794,1.2906 -796.2307,1.281 -804.4752,1.2695 -811.654,1.258 -817.8908,1.247 -825.2056,1.2329 -832.1869,1.2183 -838.0796,1.2043 -844.112,1.1883 -849.561,1.1718 -853.9053,1.1544 -858.5275,1.1315 -859.6261,1.1244 -861.6356,1.1438 -862.781,1.162 -862.1533,1.2082 -858.5281,1.2315 -853.9058,1.2544 -849.5614,1.2718 -844.1123,1.2883 -838.0799,1.3043 -832.1872,1.3183 -825.2058,1.3329 -817.891,1.347 -811.6542,1.358 -804.4754,1.3695 -796.2309,1.381 -788.7795,1.3906 -779.2818,1.4014 -770.0126,1.4119 -763.0543,1.4189 -754.9325,1.4265 -746.5812,1.4336 -738.8651,1.4397 -729.2847,1.4464 -718.2469,1.4541 -707.5191,1.4603 -697.1855,1.4661 -685.4869,1.4716 -675.7543,1.4761 -665.13,1.4804 -655.9358,1.4839 -647.4199,1.487 -638.7055,1.4898 -629.5886,1.4927 -619.3646,1.4956 -609.7093,1.4981 -596.9839,1.5012 -586.8487,1.5032 -574.3631,1.5056 -563.8376,1.5072 -551.5259,1.5089 -540.6894,1.5101 -528.4889,1.5114 -517.4125,1.5122 -505.2621,1.5129 -494.0119,1.5134 -481.8497,1.5137 -470.4882,1.5137 -458.2498,1.5136 -446.8383,1.5132 -434.4544,1.5126 -423.0547,1.5119 -410.4483,1.5107 -399.1247,1.5096 -386.2078,1.5079 -375.0297,1.5063 -361.6988,1.5039 -350.7433,1.5019 -336.8736,1.4987 -326.2285,1.4961 -314.9156,1.493 -304.6846,1.4899 -294.8112,1.4867 -285.1189,1.4831 -274.2844,1.4787 -262.0354,1.4734 -249.9172,1.4672 -236.2286,1.4602 -222.3642,1.4513 -209.6368,1.4431 -199.6141,1.4359 -188.1704,1.4264 -175.7152,1.4141 -166.0176,1.4034 -154.9073,1.3903 -141.368,1.3723 -128.7079,1.3514 -117.6012,1.3297 -105.9528,1.3022 -94.9132,1.2685 -86.4436,1.2365 -81.7339,1.2029 NaN,NaN -863.8979,1.0797 -863.025,1.144 -862.1517,1.1082 -859.6261,1.1244 -858.2518,1.1112 -849.6951,1.0779 -838.5764,1.0433 -826.087,1.0153 -814.8151,0.99634 -801.1897,0.97547 -787.3313,0.95948 -775.9758,0.94745 -765.8614,0.93794 -753.5714,0.9261 -741.5591,0.91511 -731.8555,0.90508 -720.0693,0.89211 -708.2139,0.87134 -699.8813,0.85058 -695.28,0.82587 -694.3353,0.76183 -695.2815,0.72588 -699.8818,0.75058 -708.2142,0.77134 -720.0695,0.79211 -731.8556,0.80508 -741.5592,0.81511 -753.5715,0.8261 -765.8615,0.83794 -775.9759,0.84745 -787.3314,0.85948 -801.1898,0.87547 -814.8153,0.89634 -826.0872,0.9153 -838.5766,0.9433 -849.6954,0.97791 -858.2521,1.0112 -861.6366,1.0438 NaN,NaN -693.4495,0.79549 -693.5451,0.76595 -693.586,0.73406 -693.707,0.73742 -693.6509,0.71545 -694.3353,0.76183 NaN,NaN -693.7097,0.63746 -693.6236,0.70472 -693.5283,0.66737 -693.4204,0.69983 -693.6131,0.71289 -693.586,0.73406 -692.6157,0.70713 -688.247,0.67619 -680.6681,0.64378 -671.0438,0.61825 -659.8552,0.59811 -648.2341,0.5851 -636.2294,0.58127 -625.2384,0.58453 -613.5605,0.59035 -603.0053,0.59498 -591.0645,0.5948 -580.3372,0.58613 -570.7147,0.57311 -564.2722,0.54881 -555.9777,0.52487 -550.3501,0.50345 -543.3879,0.49095 -536.5401,0.48528 -528.8455,0.48752 -522.5535,0.49777 -514.0441,0.51107 -507.714,0.52236 -497.4761,0.53084 -486.9589,0.5382 -474.4013,0.53601 -462.0331,0.52514 -448.3535,0.51186 -437.9679,0.49868 -424.9231,0.48434 -413.4539,0.4728 -402.2601,0.47038 -391.9348,0.46998 -384.866,0.47181 -384.7418,0.45427 -382.8696,0.43351 -370.117,0.3875 -370.1169,0.4375 -370.1167,0.3875 -371.9659,0.38269 -376.0087,0.37727 -382.096,0.37253 -391.9348,0.36998 -402.2601,0.37038 -413.4539,0.3728 -424.9232,0.38434 -437.968,0.39868 -448.3537,0.41186 -462.0332,0.42514 -474.4014,0.43601 -486.9589,0.4382 -497.476,0.43084 -507.7139,0.42236 -514.0439,0.41107 -522.5533,0.39777 -528.8454,0.38752 -536.5401,0.38528 -543.388,0.39095 -550.3503,0.40345 -555.9781,0.42487 -564.2724,0.44881 -570.715,0.47311 -580.3373,0.48613 -591.0645,0.4948 -603.0053,0.49498 -613.5604,0.49035 -625.2384,0.48453 -636.2293,0.48127 -648.2341,0.4851 -659.8553,0.49811 -671.044,0.51825 -680.6684,0.54378 -688.2474,0.57619 -692.6165,0.60713 NaN,NaN -863.8963,1.1797 -862.781,1.162 -863.025,1.144 NaN,NaN -78.8425,1.0702 -79.2076,1.0743 -79.0901,1.105 NaN,NaN -693.6236,0.70472 -693.6509,0.71545 -693.6131,0.71289 " stroke="none" fill="blue" stroke-width="0" shape-rendering="crispEdges" />
<polygon points="438.0524,0.4875 438.0524,0.4875 438.0523,0.4375 NaN,NaN 414.8712,0.53673 438.0524,0.4875 442.6358,0.48353 449.2731,0.48007 458.1628,0.4741 469.5124,0.47157 480.7585,0.46876 490.2441,0.47071 495.3921,0.48551 499.0776,0.50398 502.4873,0.52247 505.3784,0.5422 512.9924,0.5547 521.9815,0.5553 530.458,0.55457 541.1855,0.5464 553.388,0.53663 563.8293,0.52958 575.8291,0.5233 588.0642,0.52404 596.3935,0.53166 602.1668,0.55152 606.1348,0.57305 608.2719,0.5981 610.9634,0.62028 615.1373,0.64237 620.1316,0.65644 625.5883,0.66887 632.4895,0.67565 640.8478,0.67579 651.6451,0.66329 661.6617,0.64841 671.3113,0.63341 680.4527,0.62091 689.5173,0.61205 694.4913,0.61322 700.7579,0.6224 707.9409,0.6355 714.1469,0.65149 719.2193,0.67114 724.4981,0.69347 728.5952,0.71009 732.7133,0.72952 737.589,0.75104 741.4551,0.77017 745.6011,0.7903 750.2101,0.81308 754.2268,0.83115 757.7472,0.84987 762.0391,0.87262 765.896,0.89376 769.7728,0.9166 773.5899,0.94024 776.5818,0.95903 779.984,0.97837 783.7436,1.0011 787.3947,1.0208 791.5968,1.043 796.2224,1.0665 799.5643,1.0847 803.6309,1.1037 808.0333,1.1259 811.8417,1.1449 815.991,1.1662 820.5727,1.1895 823.9453,1.208 827.1833,1.2281 830.6897,1.2507 833.431,1.2736 835.3973,1.2933 835.5312,1.2925 835.6653,1.296 836.0864,1.3003 837.0287,1.317 838.1387,1.2609 837.8081,1.2308 836.0874,1.2003 833.4318,1.1736 830.6903,1.1507 827.1839,1.1281 823.9458,1.108 820.5732,1.0895 815.9915,1.0662 811.8422,1.0449 808.0338,1.0259 803.6313,1.0037 799.5648,0.9847 796.2229,0.96654 791.5973,0.94303 787.3952,0.9208 783.7442,0.9011 779.9846,0.87837 776.5824,0.85903 773.5905,0.84025 769.7734,0.8166 765.8965,0.79377 762.0396,0.77262 757.7477,0.74987 754.2272,0.73115 750.2106,0.71308 745.6016,0.6903 741.4556,0.67017 737.5894,0.65104 732.7137,0.62952 728.5956,0.6101 724.4985,0.59347 719.2197,0.57114 714.1472,0.55149 707.9411,0.5355 700.7581,0.52241 694.4913,0.51322 689.5172,0.51205 680.4525,0.52091 671.3111,0.53341 661.6615,0.54841 651.645,0.56329 640.8478,0.57579 632.4896,0.57565 625.5885,0.56887 620.1319,0.55644 615.1378,0.54237 610.9642,0.52028 608.2731,0.49811 606.1354,0.47305 602.1671,0.45152 596.3936,0.43166 588.0642,0.42404 575.829,0.4233 563.8292,0.42958 553.3879,0.43663 541.1854,0.4464 530.458,0.45457 521.9815,0.4553 512.9926,0.4547 505.3791,0.4422 502.4878,0.42247 499.0781,0.40398 495.3924,0.38551 490.2441,0.37071 480.7584,0.36876 469.5124,0.37157 458.1627,0.3741 449.273,0.38007 442.6357,0.38353 438.0523,0.3875 438.0523,0.4375 438.0522,0.3875 414.8712,0.43673 406.6081,0.43783 397.1833,0.43832 385.2209,0.43674 375.6151,0.42964 363.5917,0.42427 353.0053,0.42228 341.7719,0.42597 332.8092,0.43724 325.6126,0.45732 318.7864,0.48409 310.42,0.51136 302.8039,0.53458 292.5782,0.5492 280.9251,0.55454 269.6846,0.55069 259.2015,0.54203 246.2178,0.54382 234.9571,0.55283 224.0767,0.5725 213.1712,0.60142 204.5054,0.63788 198.6395,0.66716 192.3265,0.70052 186.3328,0.73278 181.4345,0.76154 175.963,0.79479 170.6465,0.82801 166.4913,0.85578 161.6875,0.88602 155.7451,0.91975 150.3238,0.949 144.7084,0.978 137.7246,1.0127 131.1282,1.0451 125.4955,1.0739 120.004,1.1028 114.1744,1.1363 109.5723,1.1698 106.2452,1.2 104.2411,1.2327 103.9858,1.2779 104.7152,1.295 105.9835,1.3042 106.2468,1.2999 109.5732,1.2698 114.1751,1.2363 120.0046,1.2028 125.496,1.1739 131.1287,1.1451 137.7251,1.1127 144.7089,1.078 150.3243,1.049 155.7457,1.0197 161.6881,0.98602 166.492,0.95577 170.6471,0.92801 175.9637,0.89479 181.4351,0.86154 186.3334,0.83278 192.327,0.80052 198.64,0.76716 204.5059,0.73788 213.1716,0.70142 224.077,0.67249 234.9573,0.65283 246.2179,0.64382 259.2015,0.64203 269.6846,0.65069 280.9251,0.65454 292.5782,0.6492 302.804,0.63458 310.4203,0.61136 318.7868,0.58409 325.613,0.55732 332.8094,0.53724 341.772,0.52597 353.0054,0.52228 363.5917,0.52427 375.6151,0.52964 385.2208,0.53674 397.1833,0.53832 406.6081,0.53783 NaN,NaN 104.2455,1.3327 103.865,1.2993 103.4864,1.3662 104.7145,1.395 107.9188,1.4184 112.2304,1.4408 117.6421,1.458 123.7829,1.4727 129.8926,1.4843 137.1028,1.4958 145.5429,1.5058 153.8874,1.5145 174.0945,1.5312 184.6265,1.5378 193.8828,1.5434 201.8992,1.5476 210.5499,1.5515 219.4323,1.5552 228.7038,1.5585 238.2971,1.5616 250.7811,1.5655 273.1476,1.5711 283.8331,1.5732 295.7468,1.5755 306.8247,1.5772 318.5363,1.5791 329.9306,1.5804 341.4843,1.5819 353.1326,1.5829 364.5664,1.584 387.7642,1.5857 399.7725,1.5863 411.0644,1.5869 423.1926,1.5873 434.4578,1.5876 446.6722,1.5879 457.9389,1.588 470.2089,1.5881 481.5062,1.588 493.8029,1.5879 505.1616,1.5876 517.4568,1.5873 541.176,1.5863 552.766,1.5855 564.9692,1.5848 576.742,1.5838 588.8494,1.5828 600.8627,1.5814 612.8347,1.5801 625.1608,1.5783 636.95,1.5766 649.6813,1.5742 661.23,1.5721 674.4873,1.569 685.7231,1.5664 699.6681,1.5623 710.4987,1.5591 721.0019,1.5555 731.3065,1.5513 741.8033,1.5462 751.4203,1.5405 764.0724,1.5315 777.1312,1.5218 788.7165,1.5112 801.7817,1.4958 813.4002,1.476 822.2366,1.4526 830.2388,1.4248 835.5324,1.3925 836.8364,1.3267 835.6653,1.296 835.3973,1.2933 830.2382,1.3248 822.2362,1.3526 813.4,1.376 801.7815,1.3958 788.7164,1.4112 777.1311,1.4218 764.0724,1.4315 751.4202,1.4405 741.8033,1.4462 731.3065,1.4513 721.0018,1.4555 710.4987,1.4591 699.6681,1.4623 685.7231,1.4664 674.4872,1.469 661.2299,1.4721 649.6813,1.4742 636.95,1.4766 625.1608,1.4783 612.8347,1.4801 600.8627,1.4814 588.8494,1.4828 576.742,1.4838 564.9692,1.4848 552.766,1.4855 541.176,1.4863 517.4568,1.4873 505.1616,1.4876 493.8029,1.4879 481.5062,1.488 470.2089,1.4881 457.9389,1.488 446.6722,1.4879 434.4578,1.4876 423.1926,1.4873 411.0644,1.4869 399.7725,1.4863 387.7642,1.4857 364.5664,1.484 353.1326,1.4829 341.4843,1.4819 329.9306,1.4804 318.5363,1.4791 306.8247,1.4772 295.7468,1.4755 283.8331,1.4732 273.1476,1.4711 250.7811,1.4655 238.2971,1.4616 228.7038,1.4585 219.4324,1.4552 210.55,1.4515 201.8993,1.4476 193.8828,1.4434 184.6266,1.4378 174.0946,1.4312 153.8875,1.4145 145.543,1.4058 137.1029,1.3958 129.8927,1.3843 123.7831,1.3727 117.6423,1.358 112.2307,1.3408 107.9194,1.3184 105.9835,1.3042 NaN,NaN 103.4888,1.2663 103.865,1.2993 103.9858,1.2779 NaN,NaN 838.1296,1.3605 837.8064,1.3308 837.0287,1.317 836.8364,1.3267 " stroke="none" fill="blue" stroke-width="0" shape-rendering="crispEdges" />
<polygon points="-467.9379,-1.1519 -467.9379,-1.0519 -393.7795,-1.0369 -374.9814,-1.0539 -365.4969,-1.0626 -358.0965,-1.0697 -357.2137,-1.0895 -358.7278,-1.0951 -363.2128,-1.1083 -367.9618,-1.1217 -376.2611,-1.1369 -383.6896,-1.1458 -383.8367,-1.1459 -393.7796,-1.1369 NaN,NaN -374.9815,-1.1539 -365.497,-1.1626 -358.0967,-1.1697 -355.7404,-1.1224 -353.384,-1.1751 -355.3287,-1.1825 -358.7275,-1.1951 -363.2125,-1.2083 -367.9617,-1.2217 -376.2609,-1.2369 -383.6896,-1.2458 -392.6361,-1.2506 -402.348,-1.2552 -414.2155,-1.2603 -424.7658,-1.2639 -436.3684,-1.267 -447.5851,-1.2692 -459.1707,-1.2705 -470.8653,-1.271 -482.7307,-1.2705 -494.69,-1.2693 -507.2038,-1.2667 -519.1801,-1.2636 -532.8188,-1.2584 -544.5153,-1.2534 -555.3628,-1.2479 -566.4109,-1.2319 -576.0358,-1.2157 -581.3195,-1.2017 -586.0402,-1.1872 -586.0522,-1.1712 -581.4151,-1.1649 -574.523,-1.1577 -565.0254,-1.1487 -558.7343,-1.143 -555.3627,-1.1479 -544.5153,-1.1534 -532.8188,-1.1584 -519.1801,-1.1636 -507.2038,-1.1667 -494.69,-1.1693 -482.7307,-1.1705 -470.8653,-1.171 -459.1707,-1.1705 -447.5851,-1.1692 -436.3685,-1.167 -424.7658,-1.1639 -414.2155,-1.1603 -402.3481,-1.1552 -392.6362,-1.1506 -383.8367,-1.1459 NaN,NaN -353.3844,-1.0751 -355.7404,-1.1224 -357.2137,-1.0895 -355.3291,-1.0825 NaN,NaN -566.4108,-1.1319 -576.0355,-1.1157 -581.3192,-1.1017 -586.0232,-1.0886 -586.0804,-1.134 -586.1277,-1.0713 -581.4153,-1.0649 -574.5231,-1.0577 -565.0255,-1.0487 -554.5602,-1.0392 -543.6169,-1.0319 -534.0576,-1.0261 -508.7962,-0.9021 -485.2342,-0.776 -461.8993,-0.6504 -441.8892,-0.52423 -419.377,-0.39568 -413.6314,-0.38752 -405.937,-0.38528 -399.0897,-0.39095 -392.128,-0.40345 -386.5004,-0.42487 -378.206,-0.44881 -371.7633,-0.47311 -362.1408,-0.48613 -351.4134,-0.4948 -339.4728,-0.49498 -328.9176,-0.49035 -317.2399,-0.48453 -306.2489,-0.48127 -294.2437,-0.4851 -282.6224,-0.49811 -271.4334,-0.51824 -261.8081,-0.54378 -254.2286,-0.5762 -249.8585,-0.60715 -249.3083,-0.67198 -249.8613,-0.70711 -254.2293,-0.67619 -261.8085,-0.64377 -271.4337,-0.61824 -282.6226,-0.59811 -294.2438,-0.5851 -306.2489,-0.58127 -317.2399,-0.58453 -328.9175,-0.59035 -339.4727,-0.59498 -351.4134,-0.5948 -362.1409,-0.58613 -371.7634,-0.57311 -378.2064,-0.54881 -386.5007,-0.52487 -392.1284,-0.50345 -399.0899,-0.49095 -405.9371,-0.48528 -413.6314,-0.48752 -419.3769,-0.49568 -441.8886,-0.62423 -461.8987,-0.7504 -485.2337,-0.876 -508.7956,-1.0021 -534.0571,-1.1261 -543.6168,-1.1319 -554.5601,-1.1392 -558.7343,-1.143 NaN,NaN -586.1275,-1.1713 -586.0804,-1.134 -586.0522,-1.1712 NaN,NaN -248.7756,-0.63815 -248.9531,-0.66883 -248.9735,-0.69868 -249.0397,-0.69767 -249.0267,-0.70516 -249.3083,-0.67198 NaN,NaN -249.0412,-0.79765 -248.9918,-0.72536 -248.924,-0.7645 -248.7588,-0.73673 -248.9816,-0.71048 -248.9735,-0.69868 -247.1949,-0.72588 -242.5949,-0.75058 -234.2629,-0.77134 -222.4081,-0.79211 -210.6223,-0.80508 -200.9188,-0.81511 -188.9062,-0.8261 -176.6161,-0.83794 -166.5018,-0.84745 -155.1465,-0.85948 -141.288,-0.87547 -127.6626,-0.89634 -116.3907,-0.9153 -103.9012,-0.9433 -92.7821,-0.97791 -84.225,-1.0112 -80.8405,-1.0438 -79.8875,-1.1011 -80.325,-1.1082 -82.8512,-1.1244 -84.226,-1.1112 -92.7825,-1.0779 -103.9015,-1.0433 -116.391,-1.0153 -127.6627,-0.99634 -141.2882,-0.97547 -155.1466,-0.95948 -166.502,-0.94745 -176.6162,-0.93794 -188.9063,-0.9261 -200.9189,-0.91511 -210.6224,-0.90508 -222.4082,-0.89211 -234.2631,-0.87134 -242.5952,-0.85058 -247.1954,-0.82587 NaN,NaN -80.842,-1.1438 -79.7104,-1.1117 -78.5793,-1.1797 -80.3244,-1.2082 -83.9493,-1.2315 -88.5716,-1.2544 -92.9159,-1.2718 -98.365,-1.2883 -104.3975,-1.3043 -110.2901,-1.3183 -117.2713,-1.3329 -124.5863,-1.3471 -130.8231,-1.358 -138.0019,-1.3695 -146.2465,-1.381 -153.698,-1.3906 -163.1955,-1.4014 -172.4646,-1.4119 -179.4231,-1.4189 -187.5448,-1.4265 -195.8962,-1.4336 -203.6125,-1.4397 -213.193,-1.4464 -224.2308,-1.4541 -234.9586,-1.4603 -245.2923,-1.4661 -256.9909,-1.4716 -266.7235,-1.4761 -277.3482,-1.4804 -286.5425,-1.4839 -295.0584,-1.487 -303.7728,-1.4898 -312.8897,-1.4927 -323.1134,-1.4956 -332.7687,-1.4981 -345.4942,-1.5012 -355.6294,-1.5032 -368.1151,-1.5056 -378.6404,-1.5072 -390.9523,-1.5089 -401.7887,-1.5101 -413.9894,-1.5114 -425.0656,-1.5122 -437.2162,-1.5129 -448.4662,-1.5134 -460.6286,-1.5137 -471.9899,-1.5137 -484.2283,-1.5136 -495.6397,-1.5132 -508.0236,-1.5126 -519.4232,-1.5119 -532.0296,-1.5107 -543.3531,-1.5096 -556.27,-1.5079 -567.448,-1.5063 -580.7788,-1.5039 -591.7344,-1.5019 -605.604,-1.4987 -616.2491,-1.4961 -627.5627,-1.493 -637.7938,-1.4899 -647.6671,-1.4867 -657.3594,-1.4831 -668.1939,-1.4787 -680.4422,-1.4734 -692.5604,-1.4672 -706.249,-1.4602 -720.1134,-1.4513 -732.8409,-1.4431 -742.8637,-1.4359 -754.3075,-1.4264 -766.7627,-1.4141 -776.4602,-1.4034 -787.5706,-1.3903 -801.1098,-1.3723 -813.7698,-1.3514 -824.8766,-1.3297 -836.525,-1.3022 -847.5645,-1.2685 -856.0343,-1.2365 -860.7441,-1.2029 -862.1915,-1.1366 -861.9598,-1.1312 -859.8383,-1.1143 -859.4535,-1.1121 -856.0335,-1.1365 -847.5641,-1.1685 -836.5247,-1.2022 -824.8763,-1.2297 -813.7696,-1.2514 -801.1096,-1.2723 -787.5704,-1.2903 -776.4601,-1.3034 -766.7626,-1.3141 -754.3074,-1.3264 -742.8636,-1.3359 -732.8408,-1.3431 -720.1133,-1.3513 -706.249,-1.3602 -692.5603,-1.3672 -680.4422,-1.3734 -668.1938,-1.3787 -657.3594,-1.3831 -647.6671,-1.3867 -637.7938,-1.3899 -627.5627,-1.393 -616.2491,-1.3961 -605.604,-1.3987 -591.7344,-1.4019 -580.7788,-1.4039 -567.448,-1.4063 -556.27,-1.4079 -543.3531,-1.4096 -532.0296,-1.4107 -519.4232,-1.4119 -508.0236,-1.4126 -495.6397,-1.4132 -484.2283,-1.4136 -471.9899,-1.4137 -460.6286,-1.4137 -448.4662,-1.4134 -437.2162,-1.4129 -425.0656,-1.4122 -413.9894,-1.4114 -401.7887,-1.4101 -390.9523,-1.4089 -378.6404,-1.4072 -368.1151,-1.4056 -355.6294,-1.4032 -345.4942,-1.4012 -332.7687,-1.3981 -323.1135,-1.3956 -312.8898,-1.3927 -303.7729,-1.3898 -295.0585,-1.387 -286.5425,-1.3839 -277.3483,-1.3804 -266.7236,-1.3761 -256.9909,-1.3716 -245.2923,-1.3661 -234.9587,-1.3603 -224.2308,-1.3541 -213.1931,-1.3464 -203.6126,-1.3397 -195.8963,-1.3336 -187.5449,-1.3265 -179.4231,-1.3189 -172.4647,-1.3119 -163.1956,-1.3014 -153.6981,-1.2906 -146.2466,-1.281 -138.002,-1.2695 -130.8233,-1.258 -124.5865,-1.2471 -117.2715,-1.2329 -110.2903,-1.2183 -104.3978,-1.2043 -98.3652,-1.1883 -92.9162,-1.1718 -88.572,-1.1544 -83.9498,-1.1315 -82.8512,-1.1244 NaN,NaN -78.581,-1.0797 -79.7104,-1.1117 -79.8875,-1.1011 NaN,NaN -860.743,-1.103 -861.9598,-1.1312 -862.2574,-1.1336 -863.6389,-1.0703 -863.1392,-1.0406 -859.8389,-1.0143 -855.6635,-0.99046 -851.5976,-0.97403 -845.7227,-0.95694 -839.2838,-0.94143 -833.4729,-0.92935 -826.0436,-0.91574 -818.0766,-0.90158 -811.6343,-0.89114 -804.466,-0.88024 -796.1397,-0.86902 -788.7388,-0.85947 -778.6897,-0.84891 -769.187,-0.83915 -761.8039,-0.83263 -753.7551,-0.82478 -745.4415,-0.81729 -738.6463,-0.81004 -729.2994,-0.80071 -719.426,-0.7905 -710.6185,-0.78165 -702.64,-0.76986 -695.7896,-0.75184 -691.8573,-0.73389 -690.4539,-0.70708 -690.2386,-0.67694 -689.6265,-0.64417 -689.4882,-0.61727 -688.7075,-0.59273 -684.4689,-0.57251 -679.6726,-0.55223 -675.2115,-0.53687 -670.1377,-0.51932 -664.1394,-0.49931 -657.3314,-0.48204 -651.3597,-0.46838 -645.569,-0.45741 -639.5066,-0.45092 -631.3677,-0.44994 -623.312,-0.45664 -613.4482,-0.4675 -601.4075,-0.48133 -588.6203,-0.49516 -578.7342,-0.50645 -569.9637,-0.51225 -563.405,-0.51093 -561.8843,-0.52253 -559.1134,-0.54992 -558.2936,-0.56163 -562.1869,-0.61068 -569.9637,-0.61225 -578.7343,-0.60645 -588.6204,-0.59516 -601.4076,-0.58133 -613.4483,-0.5675 -623.3121,-0.55664 -631.3678,-0.54994 -639.5066,-0.55092 -645.5689,-0.55741 -651.3595,-0.56838 -657.3312,-0.58204 -664.1391,-0.59931 -670.1373,-0.61932 -675.2112,-0.63687 -679.6722,-0.65223 -684.4684,-0.6725 -688.707,-0.69273 -689.485,-0.71722 -689.6069,-0.74224 -690.2332,-0.77679 -690.44,-0.80611 -691.8554,-0.83387 -695.7891,-0.85183 -702.6397,-0.86986 -710.6184,-0.88165 -719.4259,-0.8905 -729.2993,-0.90071 -738.6462,-0.91004 -745.4414,-0.91729 -753.755,-0.92478 -761.8038,-0.93263 -769.1869,-0.93915 -778.6895,-0.94891 -788.7387,-0.95947 -796.1396,-0.96902 -804.4659,-0.98024 -811.6341,-0.99114 -818.0764,-1.0016 -826.0434,-1.0157 -833.4727,-1.0293 -839.2836,-1.0414 -845.7225,-1.0569 -851.5973,-1.074 -855.6631,-1.0905 -859.4535,-1.1121 NaN,NaN -863.6329,-1.1701 -863.1384,-1.1406 -862.2574,-1.1336 -862.1915,-1.1366 NaN,NaN -557.2268,-0.54818 -557.3246,-0.54942 -557.3268,-0.54818 -562.1871,-0.51068 -563.405,-0.51093 -564.9543,-0.49911 -564.9755,-0.48133 -560.3816,-0.47253 -557.5806,-0.4718 -557.276,-0.47615 NaN,NaN -559.1124,-0.44992 -561.8835,-0.42253 -564.9421,-0.39986 -565.0215,-0.4426 -565.0941,-0.38156 -560.3816,-0.37253 -550.5428,-0.36998 -531.4019,-0.36823 -513.1615,-0.36651 -497.589,-0.36779 -474.2845,-0.36681 -474.2845,-0.46681 -497.589,-0.46779 -513.1615,-0.46651 -531.4019,-0.46823 -550.5428,-0.46998 -557.5806,-0.4718 NaN,NaN -565.0939,-0.48156 -565.0215,-0.4426 -564.9755,-0.48133 NaN,NaN -557.2775,-0.57614 -558.2936,-0.56163 -557.3246,-0.54942 NaN,NaN -249.0267,-0.70516 -248.9816,-0.71048 -248.9918,-0.72536 " stroke="none" fill="red" stroke-width="0" shape-rendering="crispEdges" />
<polygon points="478.8232,-1.5881 462.0288,-1.5881 454.4156,-1.588 446.8328,-1.5878 425.021,-1.5873 401.3018,-1.5863 389.7118,-1.5855 377.5085,-1.5848 365.7358,-1.5838 353.6283,-1.5828 341.615,-1.5814 329.6431,-1.5801 317.317,-1.5783 305.5278,-1.5766 292.7966,-1.5742 281.2479,-1.5721 267.9907,-1.569 256.7548,-1.5664 242.8099,-1.5623 231.9793,-1.5591 221.4756,-1.5555 211.1709,-1.5513 200.6742,-1.5462 191.0572,-1.5405 178.4051,-1.5315 165.3467,-1.5218 153.7615,-1.5112 140.6962,-1.4958 129.0778,-1.476 120.2416,-1.4526 112.2396,-1.4248 106.9462,-1.3925 104.3437,-1.3607 104.5073,-1.295 104.6757,-1.3306 106.3924,-1.3003 107.081,-1.2933 112.2399,-1.3248 120.2418,-1.3526 129.078,-1.376 140.6963,-1.3958 153.7616,-1.4112 165.3468,-1.4218 178.4051,-1.4315 191.0572,-1.4405 200.6742,-1.4462 211.1709,-1.4513 221.4757,-1.4555 231.9793,-1.4591 242.81,-1.4623 256.7549,-1.4664 267.9907,-1.469 281.2479,-1.4721 292.7966,-1.4742 305.5279,-1.4766 317.317,-1.4783 329.6431,-1.4801 341.615,-1.4814 353.6283,-1.4828 365.7358,-1.4838 377.5085,-1.4848 389.7118,-1.4855 401.3018,-1.4863 425.021,-1.4873 446.8328,-1.4878 454.4156,-1.488 462.0288,-1.4881 478.8232,-1.4881 486.3807,-1.488 495.8055,-1.4879 508.0198,-1.4876 519.2851,-1.4873 531.4132,-1.4869 542.7052,-1.4863 554.7134,-1.4857 577.9112,-1.484 589.3451,-1.4829 600.9934,-1.4819 612.5471,-1.4804 623.9414,-1.4791 635.6531,-1.4772 646.7311,-1.4755 658.6448,-1.4732 669.3304,-1.4711 691.697,-1.4655 704.181,-1.4616 713.7744,-1.4585 723.047,-1.4552 731.9296,-1.4515 740.5802,-1.4476 748.5968,-1.4434 757.8529,-1.4378 768.3838,-1.4312 788.591,-1.4145 796.9359,-1.4058 805.3762,-1.3958 812.5862,-1.3843 818.696,-1.3727 824.8369,-1.358 830.248,-1.3408 834.5594,-1.3184 836.4953,-1.3043 838.2346,-1.3327 838.3225,-1.3366 837.7654,-1.3949 834.5601,-1.4184 830.2486,-1.4408 824.8372,-1.458 818.6962,-1.4727 812.5864,-1.4843 805.3764,-1.4958 796.936,-1.5058 788.5911,-1.5145 768.3839,-1.5312 757.853,-1.5378 748.5969,-1.5434 740.5802,-1.5476 731.9297,-1.5515 723.0471,-1.5552 713.7745,-1.5585 704.181,-1.5616 691.697,-1.5655 669.3304,-1.5711 658.6448,-1.5732 646.7311,-1.5755 635.6531,-1.5772 623.9414,-1.5791 612.5471,-1.5804 600.9934,-1.5819 589.3451,-1.5829 577.9112,-1.584 554.7134,-1.5857 542.7052,-1.5863 531.4132,-1.5869 519.2851,-1.5873 508.0199,-1.5876 495.8055,-1.5879 486.3807,-1.588 NaN,NaN 838.9936,-1.2663 838.3785,-1.3307 837.7631,-1.295 836.4953,-1.3043 836.2319,-1.2999 832.905,-1.2698 828.3028,-1.2363 822.4729,-1.2028 816.9814,-1.1739 811.3487,-1.1451 804.7521,-1.1127 797.768,-1.078 792.1524,-1.049 786.7312,-1.0197 780.7885,-0.98602 775.9843,-0.95577 771.8293,-0.92801 766.513,-0.89479 761.0414,-0.86154 756.1429,-0.83278 750.1496,-0.80052 743.837,-0.76716 737.9708,-0.73788 729.3053,-0.70142 718.4004,-0.6725 707.5203,-0.65283 696.2597,-0.64382 683.2765,-0.64204 672.7932,-0.65069 661.5526,-0.65454 649.8996,-0.6492 639.6739,-0.63458 632.0577,-0.61136 623.6913,-0.58409 616.8651,-0.55732 609.6686,-0.53724 600.7057,-0.52597 589.4723,-0.52228 578.8858,-0.52427 566.8626,-0.52964 557.2564,-0.53673 545.294,-0.53832 533.0818,-0.52951 520.1064,-0.51807 509.948,-0.50386 495.9922,-0.48839 484.3151,-0.4741 472.9652,-0.47157 461.719,-0.46876 452.2334,-0.47071 447.0852,-0.48551 443.3993,-0.50398 439.9895,-0.52247 437.0983,-0.5422 429.4848,-0.5547 420.496,-0.5553 412.0199,-0.55457 401.2925,-0.5464 389.09,-0.53663 378.6484,-0.52958 366.6485,-0.5233 354.4134,-0.52404 346.0841,-0.53165 340.3107,-0.55152 336.3428,-0.57305 334.2053,-0.5981 331.5139,-0.62028 327.3399,-0.64237 322.3457,-0.65644 316.8891,-0.66887 309.988,-0.67565 301.6297,-0.67579 290.8326,-0.66329 280.8161,-0.64841 271.1666,-0.63341 262.0263,-0.62091 252.9619,-0.61205 247.988,-0.61322 241.7215,-0.62241 234.5386,-0.6355 228.3316,-0.65149 223.259,-0.67115 217.9804,-0.69347 213.8834,-0.7101 209.7652,-0.72952 204.8897,-0.75104 201.0238,-0.77017 196.8776,-0.7903 192.2687,-0.81308 188.2523,-0.83116 184.7318,-0.84987 180.44,-0.87262 176.5833,-0.89377 172.7062,-0.9166 168.8888,-0.94025 165.8968,-0.95903 162.4942,-0.97837 158.7345,-1.0011 155.0834,-1.0208 150.8811,-1.043 146.2555,-1.0665 142.9135,-1.0847 138.847,-1.1037 134.4446,-1.1259 130.6362,-1.1449 126.4869,-1.1662 121.9054,-1.1895 118.5329,-1.208 115.2949,-1.2281 111.7887,-1.2507 109.0475,-1.2736 107.081,-1.2933 106.9468,-1.2925 104.5852,-1.2637 104.6666,-1.231 106.3907,-1.2003 109.0465,-1.1736 111.7879,-1.1507 115.2942,-1.1281 118.5323,-1.108 121.9048,-1.0895 126.4864,-1.0662 130.6357,-1.0449 134.4441,-1.0259 138.8465,-1.0037 142.913,-0.9847 146.2549,-0.96654 150.8806,-0.94303 155.0829,-0.9208 158.7339,-0.9011 162.4936,-0.87837 165.8962,-0.85904 168.8882,-0.84025 172.7056,-0.8166 176.5827,-0.79377 180.4394,-0.77262 184.7312,-0.74987 188.2518,-0.73116 192.2682,-0.71308 196.8771,-0.6903 201.0233,-0.67017 204.8892,-0.65104 209.7648,-0.62952 213.883,-0.6101 217.9799,-0.59347 223.2586,-0.57115 228.3312,-0.55149 234.5384,-0.5355 241.7213,-0.52241 247.9879,-0.51322 252.9618,-0.51205 262.0264,-0.52091 271.1667,-0.53341 280.8162,-0.54841 290.8327,-0.56329 301.6299,-0.57579 309.988,-0.57565 316.889,-0.56887 322.3455,-0.55644 327.3396,-0.54237 331.5134,-0.52028 334.2045,-0.49811 336.3416,-0.47305 340.3101,-0.45152 346.0837,-0.43166 354.4133,-0.42404 366.6485,-0.4233 378.6484,-0.42958 389.0901,-0.43663 401.2926,-0.4464 412.0199,-0.45457 420.496,-0.4553 429.4848,-0.4547 437.0982,-0.4422 439.9888,-0.42247 443.3987,-0.40398 447.0847,-0.38551 452.2332,-0.37071 461.719,-0.36876 472.9653,-0.37157 484.3151,-0.3741 495.9923,-0.38839 509.9481,-0.40386 520.1065,-0.41807 533.0819,-0.42951 545.294,-0.43832 557.2563,-0.43673 566.8625,-0.42964 578.8857,-0.42427 589.4723,-0.42228 600.7057,-0.42597 609.6687,-0.43724 616.8654,-0.45732 623.6917,-0.48409 632.0581,-0.51136 639.6742,-0.53458 649.8998,-0.5492 661.5527,-0.55454 672.7932,-0.55069 683.2764,-0.54204 696.2598,-0.54382 707.5204,-0.55283 718.4006,-0.5725 729.3056,-0.60142 737.9712,-0.63788 743.8375,-0.66717 750.1501,-0.70052 756.1435,-0.73278 761.042,-0.76154 766.5137,-0.79479 771.8299,-0.82801 775.9849,-0.85578 780.7891,-0.88602 786.7318,-0.91975 792.153,-0.949 797.7685,-0.978 804.7526,-1.0127 811.3492,-1.0451 816.9819,-1.0739 822.4735,-1.1028 828.3034,-1.1363 832.9058,-1.1698 836.2328,-1.1999 838.2362,-1.2327 NaN,NaN 104.3449,-1.2607 104.5852,-1.2637 104.5073,-1.295 NaN,NaN 838.9892,-1.3662 838.3225,-1.3366 838.3785,-1.3307 " stroke="none" fill="red" stroke-width="0" shape-rendering="crispEdges" />
<polygon points="-370.1167,0.4875 -370.1169,0.4375 -370.117,0.4875 -371.9661,0.48269 -376.0089,0.47727 -382.0961,0.47253 -384.866,0.47181 -385.0553,0.49855 -380.2906,0.51068 -376.7415,0.5114 NaN,NaN -382.8685,0.5335 -384.737,0.55416 -385.1507,0.52615 -385.1708,0.51486 -385.2507,0.52615 -385.2008,0.59818 -380.2907,0.61068 -372.5139,0.61225 -363.7437,0.60645 -353.8577,0.59516 -341.0698,0.58133 -329.029,0.5675 -319.1654,0.55664 -311.1102,0.54994 -302.9715,0.55092 -296.9099,0.55742 -291.1194,0.56838 -285.1478,0.58204 -278.3395,0.59932 -272.3411,0.61933 -267.2674,0.63687 -262.8067,0.65223 -258.0106,0.67251 -253.7736,0.69271 -253.0034,0.71628 -252.8665,0.74313 -252.2514,0.77638 -252.0344,0.80659 -250.6239,0.83389 -246.6899,0.85184 -239.839,0.86986 -231.8601,0.88165 -223.0522,0.8905 -213.179,0.90071 -203.8321,0.91004 -197.0368,0.91729 -188.7232,0.92478 -180.6743,0.93263 -173.291,0.93915 -163.7883,0.94891 -153.7392,0.95947 -146.3383,0.96902 -138.012,0.98024 -130.8437,0.99114 -124.4015,1.0016 -116.4344,1.0157 -109.0051,1.0293 -103.1943,1.0414 -96.7554,1.0569 -90.8807,1.074 -86.8149,1.0905 -83.0243,1.1121 -81.7346,1.1029 -79.2076,1.0743 -79.336,1.0407 -82.6389,1.0143 -86.8143,0.99046 -90.8803,0.97403 -96.7551,0.95694 -103.194,0.94143 -109.0049,0.92935 -116.4342,0.91574 -124.4013,0.90158 -130.8436,0.89114 -138.0118,0.88024 -146.3381,0.86902 -153.7391,0.85947 -163.7882,0.84891 -173.2909,0.83915 -180.6742,0.83263 -188.7231,0.82478 -197.0368,0.81729 -203.832,0.81004 -213.1789,0.80071 -223.0521,0.7905 -231.86,0.78165 -239.8388,0.76986 -246.6897,0.75184 -250.6235,0.73389 -252.0325,0.70661 -252.2374,0.67736 -252.8611,0.64328 -252.9838,0.61822 -253.7705,0.59276 -258.0101,0.57251 -262.8063,0.55224 -267.2671,0.53687 -272.3407,0.51933 -278.3392,0.49932 -285.1475,0.48205 -291.1191,0.46838 -296.9097,0.45742 -302.9714,0.45092 -311.1102,0.44994 -319.1655,0.45664 -329.0291,0.4675 -341.0699,0.48133 -353.8578,0.49516 -363.7438,0.50645 -372.514,0.51225 -376.7415,0.5114 NaN,NaN -385.2005,0.49818 -385.1708,0.51486 -385.0553,0.49855 NaN,NaN -78.8413,1.1702 -79.0901,1.105 -79.342,1.1405 -82.6397,1.1143 -83.0243,1.1121 -86.444,1.1365 -94.9136,1.1685 -105.953,1.2022 -117.6014,1.2297 -128.7081,1.2514 -141.3681,1.2723 -154.9074,1.2903 -166.0177,1.3034 -175.7153,1.3141 -188.1705,1.3264 -199.6142,1.3359 -209.6369,1.3431 -222.3643,1.3513 -236.2287,1.3602 -249.9172,1.3672 -262.0354,1.3734 -274.2845,1.3787 -285.119,1.3831 -294.8112,1.3867 -304.6846,1.3899 -314.9156,1.393 -326.2286,1.3961 -336.8736,1.3987 -350.7433,1.4019 -361.6989,1.4039 -375.0298,1.4063 -386.2078,1.4079 -399.1247,1.4096 -410.4483,1.4107 -423.0547,1.4119 -434.4544,1.4126 -446.8383,1.4132 -458.2498,1.4136 -470.4882,1.4137 -481.8497,1.4137 -494.0119,1.4134 -505.2621,1.4129 -517.4125,1.4122 -528.4889,1.4114 -540.6894,1.4101 -551.5259,1.4089 -563.8376,1.4072 -574.3631,1.4056 -586.8486,1.4032 -596.9839,1.4012 -609.7093,1.3981 -619.3646,1.3956 -629.5885,1.3927 -638.7055,1.3898 -647.4198,1.387 -655.9358,1.3839 -665.13,1.3804 -675.7543,1.3761 -685.4869,1.3716 -697.1854,1.3661 -707.5191,1.3603 -718.2468,1.3541 -729.2847,1.3464 -738.865,1.3397 -746.5811,1.3336 -754.9324,1.3265 -763.0542,1.3189 -770.0125,1.3119 -779.2817,1.3014 -788.7794,1.2906 -796.2307,1.281 -804.4752,1.2695 -811.654,1.258 -817.8908,1.247 -825.2056,1.2329 -832.1869,1.2183 -838.0796,1.2043 -844.112,1.1883 -849.561,1.1718 -853.9053,1.1544 -858.5275,1.1315 -859.6261,1.1244 -861.6356,1.1438 -862.781,1.162 -862.1533,1.2082 -858.5281,1.2315 -853.9058,1.2544 -849.5614,1.2718 -844.1123,1.2883 -838.0799,1.3043 -832.1872,1.3183 -825.2058,1.3329 -817.891,1.347 -811.6542,1.358 -804.4754,1.3695 -796.2309,1.381 -788.7795,1.3906 -779.2818,1.4014 -770.0126,1.4119 -763.0543,1.4189 -754.9325,1.4265 -746.5812,1.4336 -738.8651,1.4397 -729.2847,1.4464 -718.2469,1.4541 -707.5191,1.4603 -697.1855,1.4661 -685.4869,1.4716 -675.7543,1.4761 -665.13,1.4804 -655.9358,1.4839 -647.4199,1.487 -638.7055,1.4898 -629.5886,1.4927 -619.3646,1.4956 -609.7093,1.4981 -596.9839,1.5012 -586.8487,1.5032 -574.3631,1.5056 -563.8376,1.5072 -551.5259,1.5089 -540.6894,1.5101 -528.4889,1.5114 -517.4125,1.5122 -505.2621,1.5129 -494.0119,1.5134 -481.8497,1.5137 -470.4882,1.5137 -458.2498,1.5136 -446.8383,1.5132 -434.4544,1.5126 -423.0547,1.5119 -410.4483,1.5107 -399.1247,1.5096 -386.2078,1.5079 -375.0297,1.5063 -361.6988,1.5039 -350.7433,1.5019 -336.8736,1.4987 -326.2285,1.4961 -314.9156,1.493 -304.6846,1.4899 -294.8112,1.4867 -285.1189,1.4831 -274.2844,1.4787 -262.0354,1.4734 -249.9172,1.4672 -236.2286,1.4602 -222.3642,1.4513 -209.6368,1.4431 -199.6141,1.4359 -188.1704,1.4264 -175.7152,1.4141 -166.0176,1.4034 -154.9073,1.3903 -141.368,1.3723 -128.7079,1.3514 -117.6012,1.3297 -105.9528,1.3022 -94.9132,1.2685 -86.4436,1.2365 -81.7339,1.2029 NaN,NaN -863.8979,1.0797 -863.025,1.144 -862.1517,1.1082 -859.6261,1.1244 -858.2518,1.1112 -849.6951,1.0779 -838.5764,1.0433 -826.087,1.0153 -814.8151,0.99634 -801.1897,0.97547 -787.3313,0.95948 -775.9758,0.94745 -765.8614,0.93794 -753.5714,0.9261 -741.5591,0.91511 -731.8555,0.90508 -720.0693,0.89211 -708.2139,0.87134 -699.8813,0.85058 -695.28,0.82587 -694.3353,0.76183 -695.2815,0.72588 -699.8818,0.75058 -708.2142,0.77134 -720.0695,0.79211 -731.8556,0.80508 -741.5592,0.81511 -753.5715,0.8261 -765.8615,0.83794 -775.9759,0.84745 -787.3314,0.85948 -801.1898,0.87547 -814.8153,0.89634 -826.0872,0.9153 -838.5766,0.9433 -849.6954,0.97791 -858.2521,1.0112 -861.6366,1.0438 NaN,NaN -693.4495,0.79549 -693.5451,0.76595 -693.586,0.73406 -693.707,0.73742 -693.6509,0.71545 -694.3353,0.76183 NaN,NaN -693.7097,0.63746 -693.6236,0.70472 -693.5283,0.66737 -693.4204,0.69983 -693.6131,0.71289 -693.586,0.73406 -692.6157,0.70713 -688.247,0.67619 -680.6681,0.64378 -671.0438,0.61825 -659.8552,0.59811 -648.2341,0.5851 -636.2294,0.58127 -625.2384,0.58453 -613.5605,0.59035 -603.0053,0.59498 -591.0645,0.5948 -580.3372,0.58613 -570.7147,0.57311 -564.2722,0.54881 -555.9777,0.52487 -550.3501,0.50345 -543.3879,0.49095 -536.5401,0.48528 -528.8455,0.48752 -522.5535,0.49777 -514.0441,0.51107 -507.714,0.52236 -497.4761,0.53084 -486.9589,0.5382 -474.4013,0.53601 -462.0331,0.52514 -448.3535,0.51186 -437.9679,0.49868 -424.9231,0.48434 -413.4539,0.4728 -402.2601,0.47038 -391.9348,0.46998 -384.866,0.47181 -384.7418,0.45427 -382.8696,0.43351 -370.117,0.3875 -370.1169,0.4375 -370.1167,0.3875 -371.9659,0.38269 -376.0087,0.37727 -382.096,0.37253 -391.9348,0.36998 -402.2601,0.37038 -413.4539,0.3728 -424.9232,0.38434 -437.968,0.39868 -448.3537,0.41186 -462.0332,0.42514 -474.4014,0.43601 -486.9589,0.4382 -497.476,0.43084 -507.7139,0.42236 -514.0439,0.41107 -522.5533,0.39777 -528.8454,0.38752 -536.5401,0.38528 -543.388,0.39095 -550.3503,0.40345 -555.9781,0.42487 -564.2724,0.44881 -570.715,0.47311 -580.3373,0.48613 -591.0645,0.4948 -603.0053,0.49498 -613.5604,0.49035 -625.2384,0.48453 -636.2293,0.48127 -648.2341,0.4851 -659.8553,0.49811 -671.044,0.51825 -680.6684,0.54378 -688.2474,0.57619 -692.6165,0.60713 NaN,NaN -863.8963,1.1797 -862.781,1.162 -863.025,1.144 NaN,NaN -78.8425,1.0702 -79.2076,1.0743 -79.0901,1.105 NaN,NaN -693.6236,0.70472 -693.6509,0.71545 -693.6131,0.71289 " stroke="none" fill="red" stroke-width="0" shape-rendering="crispEdges" />
<polygon points="438.0524,0.4875 438.0524,0.4875 438.0523,0.4375 NaN,NaN 414.8712,0.53673 438.0524,0.4875 442.6358,0.48353 449.2731,0.48007 458.1628,0.4741 469.5124,0.47157 480.7585,0.46876 490.2441,0.47071 495.3921,0.48551 499.0776,0.50398 502.4873,0.52247 505.3784,0.5422 512.9924,0.5547 521.9815,0.5553 530.458,0.55457 541.1855,0.5464 553.388,0.53663 563.8293,0.52958 575.8291,0.5233 588.0642,0.52404 596.3935,0.53166 602.1668,0.55152 606.1348,0.57305 608.2719,0.5981 610.9634,0.62028 615.1373,0.64237 620.1316,0.65644 625.5883,0.66887 632.4895,0.67565 640.8478,0.67579 651.6451,0.66329 661.6617,0.64841 671.3113,0.63341 680.4527,0.62091 689.5173,0.61205 694.4913,0.61322 700.7579,0.6224 707.9409,0.6355 714.1469,0.65149 719.2193,0.67114 724.4981,0.69347 728.5952,0.71009 732.7133,0.72952 737.589,0.75104 741.4551,0.77017 745.6011,0.7903 750.2101,0.81308 754.2268,0.83115 757.7472,0.84987 762.0391,0.87262 765.896,0.89376 769.7728,0.9166 773.5899,0.94024 776.5818,0.95903 779.984,0.97837 783.7436,1.0011 787.3947,1.0208 791.5968,1.043 796.2224,1.0665 799.5643,1.0847 803.6309,1.1037 808.0333,1.1259 811.8417,1.1449 815.991,1.1662 820.5727,1.1895 823.9453,1.208 827.1833,1.2281 830.6897,1.2507 833.431,1.2736 835.3973,1.2933 835.5312,1.2925 835.6653,1.296 836.0864,1.3003 837.0287,1.317 838.1387,1.2609 837.8081,1.2308 836.0874,1.2003 833.4318,1.1736 830.6903,1.1507 827.1839,1.1281 823.9458,1.108 820.5732,1.0895 815.9915,1.0662 811.8422,1.0449 808.0338,1.0259 803.6313,1.0037 799.5648,0.9847 796.2229,0.96654 791.5973,0.94303 787.3952,0.9208 783.7442,0.9011 779.9846,0.87837 776.5824,0.85903 773.5905,0.84025 769.7734,0.8166 765.8965,0.79377 762.0396,0.77262 757.7477,0.74987 754.2272,0.73115 750.2106,0.71308 745.6016,0.6903 741.4556,0.67017 737.5894,0.65104 732.7137,0.62952 728.5956,0.6101 724.4985,0.59347 719.2197,0.57114 714.1472,0.55149 707.9411,0.5355 700.7581,0.52241 694.4913,0.51322 689.5172,0.51205 680.4525,0.52091 671.3111,0.53341 661.6615,0.54841 651.645,0.56329 640.8478,0.57579 632.4896,0.57565 625.5885,0.56887 620.1319,0.55644 615.1378,0.54237 610.9642,0.52028 608.2731,0.49811 606.1354,0.47305 602.1671,0.45152 596.3936,0.43166 588.0642,0.42404 575.829,0.4233 563.8292,0.42958 553.3879,0.43663 541.1854,0.4464 530.458,0.45457 521.9815,0.4553 512.9926,0.4547 505.3791,0.4422 502.4878,0.42247 499.0781,0.40398 495.3924,0.38551 490.2441,0.37071 480.7584,0.36876 469.5124,0.37157 458.1627,0.3741 449.273,0.38007 442.6357,0.38353 438.0523,0.3875 438.0523,0.4375 438.0522,0.3875 414.8712,0.43673 406.6081,0.43783 397.1833,0.43832 385.2209,0.43674 375.6151,0.42964 363.5917,0.42427 353.0053,0.42228 341.7719,0.42597 332.8092,0.43724 325.6126,0.45732 318.7864,0.48409 310.42,0.51136 302.8039,0.53458 292.5782,0.5492 280.9251,0.55454 269.6846,0.55069 259.2015,0.54203 246.2178,0.54382 234.9571,0.55283 224.0767,0.5725 213.1712,0.60142 204.5054,0.63788 198.6395,0.66716 192.3265,0.70052 186.3328,0.73278 181.4345,0.76154 175.963,0.79479 170.6465,0.82801 166.4913,0.85578 161.6875,0.88602 155.7451,0.91975 150.3238,0.949 144.7084,0.978 137.7246,1.0127 131.1282,1.0451 125.4955,1.0739 120.004,1.1028 114.1744,1.1363 109.5723,1.1698 106.2452,1.2 104.2411,1.2327 103.9858,1.2779 104.7152,1.295 105.9835,1.3042 106.2468,1.2999 109.5732,1.2698 114.1751,1.2363 120.0046,1.2028 125.496,1.1739 131.1287,1.1451 137.7251,1.1127 144.7089,1.078 150.3243,1.049 155.7457,1.0197 161.6881,0.98602 166.492,0.95577 170.6471,0.92801 175.9637,0.89479 181.4351,0.86154 186.3334,0.83278 192.327,0.80052 198.64,0.76716 204.5059,0.73788 213.1716,0.70142 224.077,0.67249 234.9573,0.65283 246.2179,0.64382 259.2015,0.64203 269.6846,0.65069 280.9251,0.65454 292.5782,0.6492 302.804,0.63458 310.4203,0.61136 318.7868,0.58409 325.613,0.55732 332.8094,0.53724 341.772,0.52597 353.0054,0.52228 363.5917,0.52427 375.6151,0.52964 385.2208,0.53674 397.1833,0.53832 406.6081,0.53783 NaN,NaN 104.2455,1.3327 103.865,1.2993 103.4864,1.3662 104.7145,1.395 107.9188,1.4184 112.2304,1.4408 117.6421,1.458 123.7829,1.4727 129.8926,1.4843 137.1028,1.4958 145.5429,1.5058 153.8874,1.5145 174.0945,1.5312 184.6265,1.5378 193.8828,1.5434 201.8992,1.5476 210.5499,1.5515 219.4323,1.5552 228.7038,1.5585 238.2971,1.5616 250.7811,1.5655 273.1476,1.5711 283.8331,1.5732 295.7468,1.5755 306.8247,1.5772 318.5363,1.5791 329.9306,1.5804 341.4843,1.5819 353.1326,1.5829 364.5664,1.584 387.7642,1.5857 399.7725,1.5863 411.0644,1.5869 423.1926,1.5873 434.4578,1.5876 446.6722,1.5879 457.9389,1.588 470.2089,1.5881 481.5062,1.588 493.8029,1.5879 505.1616,1.5876 517.4568,1.5873 541.176,1.5863 552.766,1.5855 564.9692,1.5848 576.742,1.5838 588.8494,1.5828 600.8627,1.5814 612.8347,1.5801 625.1608,1.5783 636.95,1.5766 649.6813,1.5742 661.23,1.5721 674.4873,1.569 685.7231,1.5664 699.6681,1.5623 710.4987,1.5591 721.0019,1.5555 731.3065,1.5513 741.8033,1.5462 751.4203,1.5405 764.0724,1.5315 777.1312,1.5218 788.7165,1.5112 801.7817,1.4958 813.4002,1.476 822.2366,1.4526 830.2388,1.4248 835.5324,1.3925 836.8364,1.3267 835.6653,1.296 835.3973,1.2933 830.2382,1.3248 822.2362,1.3526 813.4,1.376 801.7815,1.3958 788.7164,1.4112 777.1311,1.4218 764.0724,1.4315 751.4202,1.4405 741.8033,1.4462 731.3065,1.4513 721.0018,1.4555 710.4987,1.4591 699.6681,1.4623 685.7231,1.4664 674.4872,1.469 661.2299,1.4721 649.6813,1.4742 636.95,1.4766 625.1608,1.4783 612.8347,1.4801 600.8627,1.4814 588.8494,1.4828 576.742,1.4838 564.9692,1.4848 552.766,1.4855 541.176,1.4863 517.4568,1.4873 505.1616,1.4876 493.8029,1.4879 481.5062,1.488 470.2089,1.4881 457.9389,1.488 446.6722,1.4879 434.4578,1.4876 423.1926,1.4873 411.0644,1.4869 399.7725,1.4863 387.7642,1.4857 364.5664,1.484 353.1326,1.4829 341.4843,1.4819 329.9306,1.4804 318.5363,1.4791 306.8247,1.4772 295.7468,1.4755 283.8331,1.4732 273.1476,1.4711 250.7811,1.4655 238.2971,1.4616 228.7038,1.4585 219.4324,1.4552 210.55,1.4515 201.8993,1.4476 193.8828,1.4434 184.6266,1.4378 174.0946,1.4312 153.8875,1.4145 145.543,1.4058 137.1029,1.3958 129.8927,1.3843 123.7831,1.3727 117.6423,1.358 112.2307,1.3408 107.9194,1.3184 105.9835,1.3042 NaN,NaN 103.4888,1.2663 103.865,1.2993 103.9858,1.2779 NaN,NaN 838.1296,1.3605 837.8064,1.3308 837.0287,1.317 836.8364,1.3267 " stroke="none" fill="red" stroke-width="0" shape-rendering="crispEdges" />
<line x1="918.9159" y1="2.5" x2="918.9159" y2="-2.5" stroke="red" stroke-width="0.1"/>
<line x1="918.9159" y1="-2.5" x2="-942.4778" y2="-2.5" stroke="red" stroke-width="0.1"/>
<line x1="-942.4778" y1="-2.5" x2="-942.4778" y2="2.5" stroke="red" stroke-width="0.1"/>
<line x1="-942.4778" y1="2.5" x2="918.9159" y2="2.5" stroke="red" stroke-width="0.1"/>
"/>
</svg>