<!DOCTYPE svg PUBLIC "-//W3C//DTD SVG 1.1//EN" "http://www.w3.org/Graphics/SVG/1.1/DTD/svg11.dtd">
<svg xmlns="http://www.w3.org/2000/svg" version="1.200000" width="-1845.6857mm" height="-1500mm" xmlns:xlink="http://www.w3.org/1999/xlink">
<polygon points="769.6805,298.5228 762.3274,300 768.1609,295.2861 756.2866,280.5916 745.0854,267.3472 731.7717,252.2331 712.354,233.7988 694.3177,219.27 675.2688,207.9182 655.255,198.7625 633.396,190.3546 612.389,184.0725 590.6107,177.8647 571.9143,173.6927 551.6797,169.9558 533.3478,167.4537 514.242,165.6182 496.0301,164.5841 474.7757,164.1001 456.2337,164.4619 434.7425,165.4714 414.029,167.4376 392.4925,170.0332 372.6162,173.3571 351.3168,177.6796 329.0043,184.0393 309.8716,190.1416 288.1798,198.455 267.935,207.9727 248.9439,219.3128 230.5622,234.0555 211.2376,252.3112 195.3861,274.3444 179.9855,303.1448 167.9049,331.1015 162.7635,367.3847 163.6368,402.8317 168.4842,434.9372 178.2943,461.8645 191.9435,490.0861 204.9288,507.002 215.2995,518.8139 229.5579,531.4288 243.5007,541.3205 257.6521,548.6534 273.9744,556.0812 292.9634,564.3332 311.422,570.507 329.6041,576.221 349.3435,580.9824 366.9485,584.8172 387.7373,588.2039 405.0684,590.5459 426.5852,592.5526 449.1172,593.4634 471.0391,594.0468 493.2597,593.4648 515.4974,592.5758 537.1002,590.5823 554.5398,588.2431 575.1386,584.9129 592.9784,581.0555 612.3866,576.4088 630.9438,570.608 648.9097,564.6383 668.4017,556.2041 685.3982,548.2517 706.665,532.8742 727.8288,512.3188 747.5237,488.1845 763.3939,455.9984 776.7036,422.5474 783.3332,396.5121 785.2116,377.4396 NaN,NaN 756.4939,304.7139 755.3474,303.2951 754.9743,301.4773 762.3274,300 NaN,NaN 744.6196,290.0194 755.3474,303.2951 770.2772,376.038 768.7882,392.8455 762.7632,417.01 749.9041,449.4391 735.8873,478.7191 717.3505,501.5855 697.8111,520.766 679.0391,534.6663 662.4257,542.4459 644.179,550.4038 626.4555,556.2953 608.8927,561.8213 589.7999,566.3962 572.7427,570.1055 552.5404,573.377 535.7148,575.6464 514.8978,577.5878 492.8598,578.4701 471.4377,579.0521 449.7162,578.4754 427.9736,577.617 407.0748,575.6807 390.1417,573.3978 370.1396,570.1606 352.8482,566.3976 334.1004,561.9108 316.1584,556.2745 298.9411,550.5757 280.1811,542.4256 264.4909,535.3031 252.1496,529.065 239.4608,520.1624 226.5633,508.9079 216.7558,497.7758 205.4398,483.54 192.3602,456.6541 183.3121,432.6714 178.6312,402.4215 177.6308,369.3758 181.6793,337.0401 193.2266,310.1927 207.6078,283.0409 221.5479,263.2061 239.9831,245.728 256.6557,232.1786 274.3294,221.5415 293.5553,212.4587 314.4321,204.4316 333.1302,198.4607 354.3031,192.3793 375.0961,188.1507 394.289,184.9253 415.4527,182.3699 435.4482,180.4548 456.5318,179.459 474.4372,179.0962 495.1845,179.5603 512.8122,180.5499 531.326,182.3168 548.9591,184.707 568.6573,188.3348 586.4991,192.2902 608.1059,198.4481 628.0192,204.3578 649.0414,212.415 667.6346,220.8302 684.9204,230.9614 702.0388,244.6891 720.5166,262.1489 733.6332,277.0348 " stroke="none" fill="blue" stroke-width="0" shape-rendering="crispEdges" />
<polygon points="703.5752,-522.172 702.3845,-522.7519 701.4648,-523.7037 706.8583,-528.9152 NaN,NaN 683.3737,-532.0105 702.3845,-522.7519 710.4886,-514.3647 722.5389,-499.1298 736.2865,-471.8248 751.1911,-441.1676 762.2411,-403.1671 765.2222,-367.3995 761.9885,-336.0671 755.5853,-315.8931 745.4083,-293.1398 733.3597,-275.3579 720.6837,-261.1573 704.1839,-246.6316 686.9264,-232.8228 667.5135,-221.0135 648.52,-212.2393 627.6375,-204.3223 609.1098,-198.5042 587.5963,-192.4449 567.1565,-188.3786 547.8851,-185.2066 526.9072,-182.7122 506.7635,-180.8183 485.8698,-179.847 467.8051,-179.4908 447.1617,-179.9617 429.4544,-180.9635 409.3622,-182.8089 391.6477,-185.1851 372.3103,-188.3454 354.3907,-192.2634 336.1502,-196.6879 317.706,-202.4716 300.8247,-208.1184 283.5674,-215.2486 268.8057,-222.2484 256.1214,-229.0272 244.7022,-237.7065 230.8109,-250.1889 219.9745,-261.8853 208.3688,-275.4984 194.7867,-300.0661 184.5685,-323.1415 179.4631,-351.7789 176.2877,-383.9779 177.3888,-417.3784 183.7099,-440.4798 193.0332,-465.3328 204.6118,-483.2156 216.4589,-498.2558 226.3206,-509.3271 234.5026,-517.8202 246.7714,-526.2442 257.9163,-531.5582 273.7761,-538.7504 293.9226,-546.8836 316.8833,-555.886 337.68,-561.7427 358.0541,-567.2883 379.5214,-571.3424 398.2322,-574.5711 420.059,-576.9775 437.6716,-578.5284 454.4647,-579.5524 471.3271,-579.7408 488.383,-579.5352 505.0075,-578.507 522.5882,-576.9529 544.6969,-574.5003 563.0824,-571.3154 584.9955,-567.1561 604.8741,-561.7218 626.2871,-555.6513 648.6339,-546.834 668.4809,-538.8038 NaN,NaN 712.2519,-534.1267 706.8583,-528.9152 710.1415,-535.6584 689.5931,-545.6603 674.1067,-552.7089 654.1184,-560.7954 630.378,-570.0827 608.8135,-576.1953 587.7921,-581.8931 565.6319,-586.0971 546.3495,-589.4089 523.9068,-591.8948 505.9252,-593.4789 488.562,-594.5341 471.1513,-594.7398 453.5494,-594.5245 436.3542,-593.4705 418.4059,-591.8861 395.6807,-589.3525 376.7224,-586.0789 354.1143,-581.7617 333.5901,-576.1744 311.4077,-569.8509 288.3032,-560.7912 267.5789,-552.4104 251.3575,-545.0483 238.1649,-538.5295 223.6949,-528.2217 215.1103,-519.2935 204.6579,-507.5151 191.9584,-491.271 178.9817,-470.5821 169.2102,-444.3213 162.3961,-417.8442 161.3613,-382.4935 164.7149,-349.042 170.8607,-317.0508 181.6967,-292.7415 196.9578,-265.7625 208.991,-251.6695 220.8021,-239.0164 235.6992,-225.7088 249.0593,-215.7936 262.387,-208.6911 277.8525,-201.3799 296.0675,-193.8928 313.2296,-188.1551 332.6158,-182.1103 351.1951,-177.6077 369.8933,-173.5413 389.6588,-170.3176 407.9936,-167.8714 428.6107,-165.9872 446.8245,-164.9655 468.1031,-164.4938 486.5723,-164.8634 508.1693,-165.8843 528.6836,-167.8177 550.3246,-170.4063 570.099,-173.67 591.6651,-178.0073 613.6131,-184.1962 632.9671,-190.301 654.8423,-198.6367 675.3428,-208.2189 696.3028,-221.1145 714.1237,-235.3978 731.9096,-251.2085 745.8206,-267.0078 759.1139,-287.0442 769.9145,-311.4577 776.9155,-334.5884 780.1652,-368.7067 776.6334,-407.3933 764.6811,-447.7266 749.6511,-478.6355 734.2866,-508.4566 721.2757,-524.7878 " stroke="none" fill="blue" stroke-width="0" shape-rendering="crispEdges" />
<polygon points="769.6805,298.5228 762.3274,300 768.1609,295.2861 756.2866,280.5916 745.0854,267.3472 731.7717,252.2331 712.354,233.7988 694.3177,219.27 675.2688,207.9182 655.255,198.7625 633.396,190.3546 612.389,184.0725 590.6107,177.8647 571.9143,173.6927 551.6797,169.9558 533.3478,167.4537 514.242,165.6182 496.0301,164.5841 474.7757,164.1001 456.2337,164.4619 434.7425,165.4714 414.029,167.4376 392.4925,170.0332 372.6162,173.3571 351.3168,177.6796 329.0043,184.0393 309.8716,190.1416 288.1798,198.455 267.935,207.9727 248.9439,219.3128 230.5622,234.0555 211.2376,252.3112 195.3861,274.3444 179.9855,303.1448 167.9049,331.1015 162.7635,367.3847 163.6368,402.8317 168.4842,434.9372 178.2943,461.8645 191.9435,490.0861 204.9288,507.002 215.2995,518.8139 229.5579,531.4288 243.5007,541.3205 257.6521,548.6534 273.9744,556.0812 292.9634,564.3332 311.422,570.507 329.6041,576.221 349.3435,580.9824 366.9485,584.8172 387.7373,588.2039 405.0684,590.5459 426.5852,592.5526 449.1172,593.4634 471.0391,594.0468 493.2597,593.4648 515.4974,592.5758 537.1002,590.5823 554.5398,588.2431 575.1386,584.9129 592.9784,581.0555 612.3866,576.4088 630.9438,570.608 648.9097,564.6383 668.4017,556.2041 685.3982,548.2517 706.665,532.8742 727.8288,512.3188 747.5237,488.1845 763.3939,455.9984 776.7036,422.5474 783.3332,396.5121 785.2116,377.4396 NaN,NaN 756.4939,304.7139 755.3474,303.2951 754.9743,301.4773 762.3274,300 NaN,NaN 744.6196,290.0194 755.3474,303.2951 770.2772,376.038 768.7882,392.8455 762.7632,417.01 749.9041,449.4391 735.8873,478.7191 717.3505,501.5855 697.8111,520.766 679.0391,534.6663 662.4257,542.4459 644.179,550.4038 626.4555,556.2953 608.8927,561.8213 589.7999,566.3962 572.7427,570.1055 552.5404,573.377 535.7148,575.6464 514.8978,577.5878 492.8598,578.4701 471.4377,579.0521 449.7162,578.4754 427.9736,577.617 407.0748,575.6807 390.1417,573.3978 370.1396,570.1606 352.8482,566.3976 334.1004,561.9108 316.1584,556.2745 298.9411,550.5757 280.1811,542.4256 264.4909,535.3031 252.1496,529.065 239.4608,520.1624 226.5633,508.9079 216.7558,497.7758 205.4398,483.54 192.3602,456.6541 183.3121,432.6714 178.6312,402.4215 177.6308,369.3758 181.6793,337.0401 193.2266,310.1927 207.6078,283.0409 221.5479,263.2061 239.9831,245.728 256.6557,232.1786 274.3294,221.5415 293.5553,212.4587 314.4321,204.4316 333.1302,198.4607 354.3031,192.3793 375.0961,188.1507 394.289,184.9253 415.4527,182.3699 435.4482,180.4548 456.5318,179.459 474.4372,179.0962 495.1845,179.5603 512.8122,180.5499 531.326,182.3168 548.9591,184.707 568.6573,188.3348 586.4991,192.2902 608.1059,198.4481 628.0192,204.3578 649.0414,212.415 667.6346,220.8302 684.9204,230.9614 702.0388,244.6891 720.5166,262.1489 733.6332,277.0348 " stroke="none" fill="red" stroke-width="0" shape-rendering="crispEdges" />
<polygon points="703.5752,-522.172 702.3845,-522.7519 701.4648,-523.7037 706.8583,-528.9152 NaN,NaN 683.3737,-532.0105 702.3845,-522.7519 710.4886,-514.3647 722.5389,-499.1298 736.2865,-471.8248 751.1911,-441.1676 762.2411,-403.1671 765.2222,-367.3995 761.9885,-336.0671 755.5853,-315.8931 745.4083,-293.1398 733.3597,-275.3579 720.6837,-261.1573 704.1839,-246.6316 686.9264,-232.8228 667.5135,-221.0135 648.52,-212.2393 627.6375,-204.3223 609.1098,-198.5042 587.5963,-192.4449 567.1565,-188.3786 547.8851,-185.2066 526.9072,-182.7122 506.7635,-180.8183 485.8698,-179.847 467.8051,-179.4908 447.1617,-179.9617 429.4544,-180.9635 409.3622,-182.8089 391.6477,-185.1851 372.3103,-188.3454 354.3907,-192.2634 336.1502,-196.6879 317.706,-202.4716 300.8247,-208.1184 283.5674,-215.2486 268.8057,-222.2484 256.1214,-229.0272 244.7022,-237.7065 230.8109,-250.1889 219.9745,-261.8853 208.3688,-275.4984 194.7867,-300.0661 184.5685,-323.1415 179.4631,-351.7789 176.2877,-383.9779 177.3888,-417.3784 183.7099,-440.4798 193.0332,-465.3328 204.6118,-483.2156 216.4589,-498.2558 226.3206,-509.3271 234.5026,-517.8202 246.7714,-526.2442 257.9163,-531.5582 273.7761,-538.7504 293.9226,-546.8836 316.8833,-555.886 337.68,-561.7427 358.0541,-567.2883 379.5214,-571.3424 398.2322,-574.5711 420.059,-576.9775 437.6716,-578.5284 454.4647,-579.5524 471.3271,-579.7408 488.383,-579.5352 505.0075,-578.507 522.5882,-576.9529 544.6969,-574.5003 563.0824,-571.3154 584.9955,-567.1561 604.8741,-561.7218 626.2871,-555.6513 648.6339,-546.834 668.4809,-538.8038 NaN,NaN 712.2519,-534.1267 706.8583,-528.9152 710.1415,-535.6584 689.5931,-545.6603 674.1067,-552.7089 654.1184,-560.7954 630.378,-570.0827 608.8135,-576.1953 587.7921,-581.8931 565.6319,-586.0971 546.3495,-589.4089 523.9068,-591.8948 505.9252,-593.4789 488.562,-594.5341 471.1513,-594.7398 453.5494,-594.5245 436.3542,-593.4705 418.4059,-591.8861 395.6807,-589.3525 376.7224,-586.0789 354.1143,-581.7617 333.5901,-576.1744 311.4077,-569.8509 288.3032,-560.7912 267.5789,-552.4104 251.3575,-545.0483 238.1649,-538.5295 223.6949,-528.2217 215.1103,-519.2935 204.6579,-507.5151 191.9584,-491.271 178.9817,-470.5821 169.2102,-444.3213 162.3961,-417.8442 161.3613,-382.4935 164.7149,-349.042 170.8607,-317.0508 181.6967,-292.7415 196.9578,-265.7625 208.991,-251.6695 220.8021,-239.0164 235.6992,-225.7088 249.0593,-215.7936 262.387,-208.6911 277.8525,-201.3799 296.0675,-193.8928 313.2296,-188.1551 332.6158,-182.1103 351.1951,-177.6077 369.8933,-173.5413 389.6588,-170.3176 407.9936,-167.8714 428.6107,-165.9872 446.8245,-164.9655 468.1031,-164.4938 486.5723,-164.8634 508.1693,-165.8843 528.6836,-167.8177 550.3246,-170.4063 570.099,-173.67 591.6651,-178.0073 613.6131,-184.1962 632.9671,-190.301 654.8423,-198.6367 675.3428,-208.2189 696.3028,-221.1145 714.1237,-235.3978 731.9096,-251.2085 745.8206,-267.0078 759.1139,-287.0442 769.9145,-311.4577 776.9155,-334.5884 780.1652,-368.7067 776.6334,-407.3933 764.6811,-447.7266 749.6511,-478.6355 734.2866,-508.4566 721.2757,-524.7878 " stroke="none" fill="red" stroke-width="0" shape-rendering="crispEdges" />
<line x1="942.4778" y1="750" x2="942.4778" y2="-750" stroke="red" stroke-width="0.1"/>
<line x1="942.4778" y1="-750" x2="-903.2079" y2="-750" stroke="red" stroke-width="0.1"/>
<line x1="-903.2079" y1="-750" x2="-903.2079" y2="750" stroke="red" stroke-width="0.1"/>
<line x1="-903.2079" y1="750" x2="942.4778" y2="750" stroke="red" stroke-width="0.1"/>
"/>
</svg>