<!DOCTYPE svg PUBLIC "-//W3C//DTD SVG 1.1//EN" "http://www.w3.org/Graphics/SVG/1.1/DTD/svg11.dtd">
<svg xmlns="http://www.w3.org/2000/svg" version="1.200000" width="-1845.6857mm" height="-1500mm" xmlns:xlink="http://www.w3.org/1999/xlink">
<polygon points="479.1456,730.633 487.1773,717.9644 459.8523,701.9758 448.5614,701.8689 432.8154,701.4163 413.9614,700.9732 393.9852,699.9078 375.5315,698.9775 355.8612,697.1021 334.2004,694.1131 314.3567,691.1737 291.6503,686.6933 271.1432,682.1737 255.0383,678.6871 242.1211,675.3429 227.6016,670.6758 219.3739,667.4145 206.8675,661.8155 192.7218,653.3983 174.887,638.9478 159.1765,623.1481 139.5686,596.5937 123.419,560.1449 109.1631,523.6964 101.0905,492.2883 94.6989,451.1535 93.3896,418.2358 94.8937,385.0853 98.4912,349.7389 105.1641,307.4649 111.6506,277.6072 117.4817,251.9542 125.2629,229.5232 135.8938,206.7795 143.9328,192.349 159.2565,171.3163 178.821,148.293 197.8609,130.9421 220.878,115.8228 243.0747,101.763 260.073,93.3984 278.3441,85.93 299.9672,79.5564 315.889,76.075 337.4335,72.0279 358.919,68.5388 376.1434,66.4629 393.2569,65.1545 410.813,63.8533 428.2535,63.196 449.6784,62.6785 471.0795,62.1696 492.7684,62.5914 514.1082,63.0214 531.4034,63.6053 549.2225,64.8769 566.0607,66.1181 583.5798,68.2021 599.6986,70.2344 619.7597,73.7932 635.1052,76.8821 648.913,80 662.8653,84.0537 677.4546,89.128 691.0074,94.5658 706.9205,102.7158 724.2578,111.403 740.6234,123.6461 755.4707,135.0953 769.9986,150.4927 785.4042,171.6329 798.1248,191.4772 806.3427,206.1654 816.9275,228.7836 824.7799,251.3481 829.8853,271.3335 836.3273,301.1215 842.5826,333.1643 846.1818,368.3683 847.4037,408.8473 846.9853,448.0135 843.8445,483.6206 837.6219,522.0265 830.5773,550.0447 823.911,568.2001 811.7943,589.844 799.0499,608.0859 783.5616,623.8711 768.1612,638.3487 750.5896,652.7406 736.3467,661.3726 723.3896,667.246 715.3154,670.4788 700.7501,675.1954 687.7369,678.5855 671.4943,682.1147 653.2238,685.6793 630.8593,690.116 611.9934,692.516 590.5644,695.4825 570.6174,697.3933 549.8804,699.287 529.8818,700.3563 516.9316,703.0657 503.8527,692.5959 492.0418,680.9948 479.215,670.0225 467.0328,657.7319 447.4515,644.0855 429.8706,643.0053 409.9828,641.2692 392.0061,638.7218 373.1281,635.6748 355.3125,631.3642 333.0744,624.0492 314.4025,617.0877 296.6001,609.5459 278.676,599.9628 263.6068,590.4625 251.8241,581.2383 236.3208,564.905 223.5865,550.3683 214.6536,538.736 203.7113,521.1259 194.671,500.3488 188.4276,473.3694 181.918,443.8903 176.4396,403.8694 174.7628,368.1487 179.2508,325.0392 185.1728,292.241 191.6757,262.3833 197.5,242.969 209.8533,218.1316 221.9011,202.3098 237.7044,185.0622 254.5243,167.9863 276.3572,148.9337 294.9987,137.6715 314.2698,129.2465 332.6209,122.365 353.8848,115.3269 374.8623,110.7796 394.3077,107.4651 415.7201,104.7753 436.1185,102.8252 453.4422,101.7088 471.1018,101.2958 488.7242,101.5979 506.1181,102.6212 526.5632,104.492 547.867,107.0873 567.3405,110.3581 588.3569,114.8725 606.1403,119.4827 624.668,126.4339 640.8673,132.6679 655.8171,140.0629 670.4137,149.2579 690.0234,167.8087 705.5821,184.6526 720.1619,201.3899 731.9081,216.7515 744.4413,241.3282 751.5845,269.8138 758.131,299.7259 763.6009,340.5899 768.0663,382.4584 763.0442,426.6171 756.7347,459.2085 750.2435,488.6967 744.7892,506.632 732.3566,530.961 723.2676,543.0526 710.3909,557.8242 694.806,574.2753 679.4892,589.9604 664.4154,599.5647 647.436,608.1653 629.5836,615.7865 609.4703,622.5759 587.5207,629.8315 569.3868,634.2515 549.4387,638.3907 531.4799,640.9438 520.1155,644.5311 506.5193,633.734 493.3564,622.2695 478.9937,610.3661 465.4104,597.6857 445.187,582.3181 428.0931,580.3757 407.953,576.8094 391.4979,572.2779 373.0398,566.5039 355.8441,558.6202 339.3628,550.6528 324.5462,541.1575 310.6495,530.9184 299.1461,520.4134 288.5958,508.3387 276.6155,490.8977 267.1445,474.3624 258.2583,453.2404 249.4935,428.1677 244.1027,406.5034 242.2573,377.398 241.1064,350.1642 241.2102,330.0783 248.6112,300.3867 256.9266,271.8023 265.8527,253.9565 281.3564,230.4555 297.5875,207.0914 314.6296,193.6547 330.6774,181.6394 347.4355,170.0613 362.1949,162.8364 374.9392,157.4169 382.9001,154.8597 397.6478,151.3563 410.6057,148.9405 426.534,147.2117 448.7146,145.8762 470.8568,144.6427 493.6738,145.7466 515.5624,146.9351 531.3014,148.532 544.6986,150.9755 559.6449,154.582 568.6425,157.7835 583.6374,164.867 604.6238,177.7839 623.1953,190.7553 639.2782,203.2423 661.2207,230.3893 676.5316,253.5458 685.8139,271.2806 693.1906,286.8517 700.4055,315.4829 701.3679,331.9349 701.3946,352.6584 699.5939,382.1395 695.3148,416.5837 686.4132,442.1208 676.6532,467.6073 666.1721,490.3457 654.3865,507.6316 643.9033,519.7756 632.4176,530.3832 618.3255,540.838 603.8719,550.1755 586.7816,558.4969 570.2885,566.1216 551.2351,572.1532 535.0967,576.6331 522.4936,581.8618 508.463,570.0735 494.6314,558.1569 479.6404,544.1307 465.1564,530.0267 445.3845,511.0827 428.8061,507.5442 409.9592,501.5313 393.8912,493.1792 377.167,483.7625 362.9673,472.6007 349.4411,459.9398 338.6035,446.1539 329.2257,429.8929 321.1303,412.9946 316.4405,387.323 313.3752,360.9028 313.2464,335.4414 318.0532,309.352 328.2486,280.3658 337.7853,262.1109 346.5384,248.1868 359.8269,233.8451 370.5453,224.6319 380.465,220.1681 395.8052,214.0595 414.0132,207.8073 430.951,204.2458 449.6916,201.5762 470.0313,199.8989 488.0197,200.483 506.9682,202.7024 530.2546,209.5223 549.9249,216.0288 563.6504,221.0703 583.5496,237.559 599.5828,254.3383 609.7718,279.3946 620.1328,308.4136 627.7931,345.1643 626.452,375.0633 622.2845,403.6603 614.3646,426.074 604.4609,445.2695 593.787,459.0453 580.0023,472.0859 566.2218,483.0411 548.8142,492.95 533.5068,501.0067 523.4968,509.6434 509.1576,492.1586 495.8429,474.987 483.6161,452.9487 468.8457,430.8174 451.8844,400.3025 438.1283,383.0421 426.2749,362.0247 422.5361,338.3375 422.9414,317.5521 435.2524,299.7817 448.0825,291.6389 467.1484,288.62 483.0506,289.2689 498.5595,291.433 509.8217,299.1066 520.8632,314.4569 521.0154,337.1579 516.8083,359.5231 506.1082,378.6962 497.3809,391.5373 489.1609,396.5132 479.6913,393.4603 475.0887,407.7367 484.5583,410.7896 502.7949,405.5262 517.913,387.9507 529.8777,366.8844 535.7111,340.1638 535.8632,314.4569 522.5111,291.1079 507.4675,279.3645 485.8284,274.5283 467.8299,273.6354 445.8459,276.8066 427.6668,286.8412 410.8576,308.665 407.5777,337.2202 411.4406,364.2482 424.9292,390.1684 440.1069,409.5918 455.7141,438.0673 471.1315,461.2634 482.719,482.2509 497.268,501.3039 511.8968,519.1534 538.4013,515.1857 555.738,506.2564 573.6388,496.079 589.2807,483.872 604.0783,469.9581 616.2732,454.5144 627.6552,433.0281 636.4122,408.701 641.2846,377.298 642.7771,345.8565 634.8353,305.4409 623.9105,274.3849 613.4796,248.6919 594.6028,227.4187 573.2509,209.5451 555.4548,202.0854 534.9738,195.284 511.1869,188.3079 489.8425,185.5942 470.5422,184.9076 448.4945,186.624 428.8465,189.3941 410.9403,193.1254 390.9745,199.8587 374.9238,206.2291 364.399,210.949 350.2677,222.2856 335.5682,237.9567 325.1464,254.0326 314.9629,273.4024 303.9153,304.3401 298.504,332.6734 298.3752,360.9028 301.5373,389.0246 306.3728,415.6809 315.6159,436.1995 325.5981,453.6277 337.6098,469.1604 352.6659,483.5039 367.8777,495.54 386.474,506.217 403.0372,514.8387 424.1729,521.8107 442.22,525.7451 454.274,540.3502 469.1727,554.8744 484.3823,569.1093 498.6683,581.4342 512.8441,593.346 537.9158,591.3658 555.2264,586.6124 574.8119,580.4233 593.0331,572.1321 610.437,563.6625 626.4272,553.4618 641.3435,542.4385 654.0508,530.8223 665.712,517.4669 678.5458,498.8246 690.2501,473.9418 700.4176,447.4944 709.4783,421.5228 714.4707,384.0576 716.3662,353.5813 716.3679,331.9261 715.3805,314.6181 707.7517,283.2493 699.4205,264.9671 689.8243,246.5956 673.7443,222.1335 650.9532,193.8246 632.5018,178.9914 613.2201,165.4915 591.5064,152.0967 575.0854,144.2377 564.7269,140.4692 548.2572,136.4037 534.0066,133.7779 517.0984,132.014 494.4929,130.769 471.5817,129.6603 447.9068,130.898 425.6326,132.2388 408.995,134.0272 394.9223,136.6059 379.4422,140.2637 370.3883,143.124 356.3563,149.0194 340.8498,156.5844 322.1996,169.265 305.6433,181.6444 288.3016,195.3112 269.1293,221.7665 253.3332,245.6945 243.5285,265.0577 234.2253,296.1387 226.6563,326.4471 226.1081,349.9398 227.2704,378.0248 229.1327,407.4517 234.9189,431.7146 244.0921,458.1718 253.3146,480.1703 263.5785,498.3163 276.2213,516.8164 287.8204,530.2484 300.5007,541.9639 315.6192,553.2119 331.2575,563.2743 349.2773,572.1064 366.7871,580.1385 386.9772,586.5804 403.9661,591.2698 425.4546,595.1418 443.4806,597.2207 455.7596,609.1689 468.7516,621.3252 483.7767,633.8121 496.6662,645.0441 510.782,656.2736 533.2506,655.8389 551.5484,653.2416 572.4237,648.9409 591.0693,644.4057 614.1635,636.8228 634.3809,629.9987 653.3096,621.9675 671.1821,612.9517 687.5243,602.6267 705.4483,584.846 721.2793,568.1413 734.5714,552.9129 744.3355,539.989 758.1192,513.5102 764.5676,493.1486 771.3812,462.4461 777.7706,429.4692 782.9694,384.1609 778.5227,339.0608 772.9985,297.7371 766.2402,266.6188 758.9913,237.6815 745.315,210.0243 732.1353,192.3546 716.9007,174.8093 701.0435,157.6323 680.7288,138.3676 663.9095,127.4331 647.5531,119.2403 630.0814,112.4448 611.4096,105.4387 592.1526,100.3607 570.4957,95.6937 550.3574,92.2955 528.3825,89.6027 507.4874,87.6838 489.6086,86.624 471.3644,86.2981 453.0967,86.7128 435.1593,87.8559 414.2952,89.8432 392.4404,92.5818 372.3472,95.9919 350.7122,100.6662 327.9336,108.1162 309.0075,115.1998 288.997,123.9245 268.6374,136.0727 244.7055,156.6465 227.0281,174.5258 210.8438,192.174 197.9331,209.0262 184.1008,236.2264 177.3314,257.9971 170.519,289.0369 164.4899,322.3717 159.8441,366.5883 161.4545,404.538 167.0551,445.9133 173.7778,476.5918 180.0572,503.7304 189.9259,527.0387 201.8821,546.6029 211.6664,559.4738 225.0293,574.7794 240.9419,591.562 254.3006,602.2265 270.6473,612.6332 289.5147,622.767 308.5299,630.8903 327.8288,638.1021 350.622,645.612 369.5818,650.2496 389.5985,653.5273 407.8769,656.1207 428.5582,657.9477 446.5294,659.0571 457.7886,669.5448 468.5233,680.5433 482.2733,692.378 493.3304,703.286 507.5312,714.7547 530.7648,715.3302 550.6811,714.2656 571.9778,712.3314 591.9946,710.4142 614.0458,707.375 632.7519,704.9961 656.1312,700.3948 674.3667,696.8371 690.9203,693.2438 704.5249,689.7127 719.9248,684.7531 728.9386,681.1819 742.5319,675.038 758.3247,665.5923 777.6276,649.9843 793.826,634.8091 809.7537,618.5944 824.0526,598.4888 836.988,575.5481 844.6338,555.2805 852.1635,525.7064 858.6497,486.0303 861.9266,449.3398 862.4028,409.0161 861.175,367.918 857.5056,331.6467 851.0521,298.2614 844.5465,268.1637 839.3142,247.6391 831.0996,223.8692 819.9385,199.8289 811.2238,184.1687 798.0371,163.5454 782.1257,141.6648 766.4091,124.8311 749.8404,111.812 733.244,99.3926 713.7168,89.3437 697.8451,81.215 683.069,75.2183 667.8009,69.889 653.1081,65.5985 638.4233,62.2536 622.7217,59.0886 602.3202,55.4652 585.4646,53.321 567.8327,51.2231 550.3317,49.918 532.4712,48.6433 514.6187,48.0301 493.0711,47.5944 471.3712,47.1724 449.3267,47.6826 427.8913,48.2003 410.2486,48.8639 392.1523,50.1953 375,51.5065 357.1302,53.6459 335.0334,57.2212 313.1213,61.3325 296.766,64.9019 274.1151,71.5385 254.4241,79.5027 236.465,88.2978 212.872,103.138 189.6262,118.4046 168.756,137.1711 147.8461,161.5796 131.8166,183.5062 122.8135,199.4375 111.6792,223.1606 103.3183,247.0147 97.0295,274.257 90.5061,304.2802 83.6753,347.3959 79.9713,383.5617 78.4052,417.5506 79.7102,451.7375 86.2657,494.5741 94.6312,527.4144 109.4419,565.5892 125.8533,602.6674 147.0636,631.9956 164.2116,649.4851 183.2561,665.0345 199.1386,674.671 213.1937,681.0822 222.0616,684.6153 237.5155,689.6183 251.2652,693.2048 267.9638,696.8329 288.4219,701.3417 311.4517,705.8897 331.9962,708.9503 353.8105,711.9613 374.103,713.9093 393.2239,714.8885 413.1626,715.9519 432.4603,716.4121 448.1303,716.8628 459.7085,716.9751 " stroke="none" fill="blue" stroke-width="0" shape-rendering="crispEdges" />
<polygon points="469.2714,-718.0691 461.437,-730.8606 440.7649,-717.0722 428.7458,-716.6188 413.0953,-716.1558 393.1808,-715.0872 374.0385,-714.1044 353.7682,-712.152 331.9727,-709.138 311.4497,-706.0745 288.439,-701.526 268.0045,-697.0176 251.2813,-693.389 237.4173,-689.7669 221.9583,-684.7623 213.0625,-681.2335 198.9888,-674.8192 183.8635,-665.7288 167.9179,-655.5591 152.6392,-641.6254 135.8117,-624.2744 120.3183,-597.9345 106.2117,-563.5 94.3261,-526.9041 86.458,-484.4593 79.8746,-441.3048 79.4754,-401.0635 81.0874,-367.2037 84.8566,-330.7322 91.2905,-297.8057 97.8451,-267.5292 103.1784,-246.7251 111.5083,-222.7768 122.646,-198.9221 130.7325,-184.2834 139.3501,-168.9058 153.0778,-147.6897 165.6556,-133.9251 177.0997,-123.3119 193.1216,-111.2502 216.4067,-96.6119 234.9466,-87.2823 253.0549,-78.5014 273.9979,-71.2284 296.6487,-64.6837 312.941,-61.2067 334.8468,-57.1705 357.1536,-53.6066 378.9599,-51.0766 396.1616,-49.8404 417.8409,-48.4646 435.3815,-47.9119 453.457,-47.352 471.245,-47.3868 489.2675,-47.4148 507.3198,-48.0354 529.497,-49.4515 551.2725,-50.8963 574.1638,-53.4342 595.9658,-56.0118 617.8536,-59.522 635.1631,-62.8025 651.9911,-66.5003 668.6331,-71.7726 689.9603,-79.2827 707.6465,-87.8898 726.675,-97.5227 749.6716,-112.0247 765.7368,-124.2 777.05,-134.8068 789.9302,-149.0735 803.1312,-169.5912 811.6291,-184.6795 819.9586,-199.7698 831.1442,-223.7399 839.3988,-247.5077 844.6544,-267.9624 851.2089,-298.0722 857.7305,-331.3952 861.4538,-367.7149 862.7055,-408.9284 862.2864,-449.3326 859.0142,-486.1511 852.4623,-526.1925 844.9077,-555.8578 837.3102,-576.0101 824.274,-599.0843 809.9346,-619.1539 794.0224,-635.2069 777.828,-650.3334 758.5783,-665.9576 742.8224,-675.3449 729.1725,-681.489 720.1437,-685.027 704.7175,-689.9813 690.8786,-693.5744 674.4736,-697.1128 653.8544,-701.6446 630.6688,-706.2032 610.4217,-709.2039 588.4024,-712.2297 568.1101,-714.1594 549.318,-715.1101 529.1613,-716.1796 510.0863,-716.6293 488.0762,-715.1637 475.639,-703.9976 461.8651,-692.1647 450.631,-680.76 437.7967,-668.8777 427.3713,-658.1267 407.8091,-656.3131 389.5558,-653.7025 369.5256,-650.4025 350.5863,-645.7456 327.7971,-638.2083 308.5151,-630.9735 289.2273,-622.6704 268.9771,-610.6732 248.5355,-596.4222 231.6543,-579.4049 215.7021,-562.5497 201.9036,-546.5548 189.9542,-526.9873 180.2281,-504.1954 174.2445,-484.6076 167.5853,-454.3544 161.1095,-420.4892 159.4483,-382.9508 161.3363,-345.8141 166.9173,-304.1348 173.4228,-273.6787 180.2301,-244.6839 189.9913,-221.6493 201.7428,-201.3134 211.3278,-188.3395 223.4999,-173.289 239.9616,-155.6241 253.8706,-144.3169 270.0016,-134.0844 288.9242,-123.7667 309.0549,-115.0369 327.9829,-108.0143 350.5074,-100.6988 369.0889,-96.1629 389.0254,-92.8521 407.1655,-90.2536 428.1348,-88.3734 449.825,-87.411 471.4103,-86.9691 492.8104,-87.4941 514.7725,-88.5637 533.7389,-90.5974 551.9177,-93.2602 572.1666,-97.4112 590.7519,-101.9936 612.8242,-109.1933 634.0292,-116.2787 654.364,-125.143 674.3566,-136.4485 694.7565,-151.1922 712.1688,-168.7984 728.3688,-186.3293 741.1063,-202.2835 752.7949,-222.6363 762.4835,-245.6575 768.234,-265.8943 774.8006,-296.4321 780.8878,-330.4054 782.7226,-368.1301 777.731,-412.7608 772.1112,-454.0985 765.4092,-484.4123 758.2334,-513.5858 744.1342,-540.4938 730.6598,-556.3318 714.6964,-573.2086 697.4695,-590.4724 673.0998,-611.1687 652.4345,-623.2716 633.6238,-631.2817 614.3836,-638.4572 591.3308,-646.0178 572.3984,-650.6011 552.7772,-653.7913 534.2787,-656.4055 513.8172,-658.2036 491.8836,-657.6649 477.9357,-646.3258 461.9025,-633.7645 447.2993,-620.9472 431.634,-606.7878 417.8378,-593.2326 394.2689,-587.9429 373.2988,-580.0859 350.0296,-570.817 329.1247,-559.0466 306.757,-543.3949 284.2453,-518.8329 265.4952,-489.1084 248.6184,-456.3315 236.0036,-424.9429 228.0249,-383.7335 226.1643,-353.3234 226.3031,-331.0479 230.6177,-305.1131 238.4422,-273.9334 245.7543,-257.0649 253.8776,-239.6907 266.9234,-217.2912 280.0968,-201.4 292.2953,-190.4507 308.6752,-178.0632 325.6772,-165.4706 340.928,-156.5864 356.4427,-149.0597 370.8573,-143.0823 385.5265,-139.2822 401.2472,-135.625 420.1362,-132.8364 436.5015,-131.1283 454.2876,-129.5252 471.2973,-129.4555 488.8494,-129.6275 506.3151,-131.3062 526.4177,-134.1419 548.3835,-138.1728 564.6825,-142.237 585.5276,-149.3136 602.229,-157.2985 620.4587,-169.6149 636.9477,-181.8572 655.6474,-196.8988 673.6953,-222.3572 689.7763,-246.7176 699.2826,-264.9536 707.5871,-283.1832 715.1388,-312.5662 716.4366,-328.4321 716.4459,-350.2051 714.5233,-381.1429 706.3258,-422.9127 694.0275,-455.4944 676.7852,-490.1233 657.5023,-520.1666 634.4934,-544.7819 612.7822,-559.6308 591.4611,-571.4946 568.9718,-580.3306 547.1483,-588.3727 524.0859,-593.3948 505.5679,-596.6752 488.715,-598.7694 471.9273,-596.1477 463.0066,-582.4688 454.3271,-567.7146 446.423,-553.6985 431.6696,-536.2033 415.9722,-517.7431 391.9892,-507.7459 370.4218,-493.3362 346.5277,-472.1235 327.5229,-445.4418 312.4126,-416.2012 302.6468,-379.7556 298.9135,-347.1653 299.1463,-318.511 305.5049,-293.865 316.3954,-267.34 326.0544,-252.295 335.6688,-238.0506 350.3884,-222.4351 364.5809,-211.1151 377.6351,-205.4348 393.7256,-199.074 414.578,-192.2543 432.583,-188.5483 453.437,-186.0105 472.8865,-185.3921 494.593,-187.1444 514.2161,-189.949 532.4724,-193.8152 551.7711,-200.3493 567.7528,-206.6972 579.5948,-212.3288 592.7151,-223.1934 607.5736,-239.2032 617.9122,-255.4344 628.3632,-280.9977 639.4128,-312.6142 642.738,-346.0617 641.2769,-377.421 636.3852,-409.1738 625.4668,-435.4845 609.7378,-459.6753 593.0182,-477.7582 571.2765,-494.1655 549.0551,-508.7021 525.2718,-518.1616 505.3927,-524.9249 488.71,-529.0014 471.4051,-525.6541 462.4074,-503.6054 458.4832,-482.0763 450.9901,-459.3409 436.2447,-428.5596 424.3737,-390.0494 411.9482,-364.8822 406.7862,-338.857 407.9571,-310.6753 422.0679,-289.4084 438.2838,-278.3374 457.8362,-274.819 476.1776,-274.1479 499.321,-278.1258 516.9326,-289.2431 532.9444,-312.8658 534.6714,-339.1283 530.0513,-366.8467 516.4803,-391.7992 499.585,-409.4033 481.1812,-415.1683 468.2623,-412.2983 463.0082,-407.2734 473.3757,-396.433 478.6298,-401.4579 482.6376,-400.2392 494.5799,-395.2629 505.2691,-381.8338 516.8221,-359.7764 519.8394,-336.8898 517.984,-313.9552 504.8685,-298.157 491.6775,-291.0323 473.9888,-288.9874 458.4953,-289.8045 440.9931,-293.0907 431.0038,-301.4562 420.6153,-318.7232 421.7862,-338.857 426.6446,-361.8797 437.7605,-383.2823 450.5677,-424.1041 464.5025,-452.8282 472.7173,-477.3445 477.1555,-500.8679 485.2533,-519.8898 486.8008,-514.1234 501.7902,-510.364 520.4214,-503.9675 543.5064,-494.7661 562.9899,-481.6623 583.9764,-465.7897 598.6728,-449.5479 612.8614,-427.3541 622.5054,-403.4861 626.4365,-375.2388 627.7534,-345.3817 624.4899,-314.134 614.2354,-286.0382 604.0293,-261.1147 594.9762,-247.346 581.7772,-233.4581 570.0703,-223.917 561.5801,-220.3682 546.2405,-214.2925 527.669,-208.0253 511.151,-204.6325 492.4824,-201.9952 471.6892,-200.3443 453.9514,-201.0017 434.4157,-203.4359 417.6221,-206.9422 398.4198,-213.3205 383.1601,-219.3802 370.5698,-224.8676 359.9272,-234.0115 346.6135,-248.3079 338.537,-260.6127 329.0184,-275.443 319.4064,-299.4997 313.6807,-322.2192 313.9135,-347.1653 317.5468,-378.0257 326.8929,-412.2872 340.8113,-438.4835 358.7261,-463.3943 380.3109,-482.0577 400.2902,-495.2521 421.6661,-503.8658 442.7968,-526.1442 457.8881,-544.0263 467.337,-560.2485 475.9352,-574.8628 484.4875,-587.9477 487.5763,-583.8127 503.7105,-581.7906 521.4615,-578.6261 543.9532,-573.7169 563.7397,-566.2726 585.9752,-557.5338 605.4514,-546.5442 626.0111,-532.4105 646.4876,-509.9845 664.1345,-482.0634 680.5926,-448.8233 692.2864,-417.631 699.7969,-378.2909 701.4728,-349.3059 701.4366,-328.4481 700.1907,-313.8129 693.0729,-286.9699 685.6694,-271.2527 676.478,-253.6569 661.1884,-230.6383 643.4114,-205.5753 627.699,-193.6667 611.5184,-181.6595 593.8358,-169.7305 579.1213,-162.8768 559.8932,-156.4519 544.7762,-152.7326 523.7197,-148.8973 504.2246,-146.1598 487.4206,-144.5593 471.1747,-144.455 454.3497,-144.5251 437.8719,-146.0655 421.6939,-147.7553 403.4433,-150.4634 388.9488,-153.8866 374.6209,-157.6025 362.2577,-162.8867 347.4838,-170.0779 333.2437,-178.4224 317.6292,-190.0976 301.3434,-202.4146 290.135,-212.546 278.5102,-226.8173 266.8689,-247.1891 259.3519,-263.3977 252.2057,-279.8971 245.1782,-308.7174 241.1019,-333.4964 241.1642,-353.3507 242.9965,-382.81 250.7257,-422.0691 262.5132,-450.6804 278.8255,-482.2307 296.9256,-510.8198 317.7774,-533.2189 337.642,-546.6993 357.3715,-557.7366 378.8116,-566.1357 399.531,-573.8962 421.0777,-578.5867 441.6068,-595.5832 457.3574,-609.8191 471.7969,-622.4907 487.1796,-634.5127 501.3448,-646.0251 512.8095,-643.2375 532.9644,-641.4632 550.6698,-638.9401 569.9901,-635.7957 587.7846,-631.443 609.6952,-624.2087 628.3784,-617.2288 646.5525,-609.473 665.4854,-598.2451 687.7186,-579.0741 704.0681,-562.6237 719.7613,-546.0254 732.7045,-530.7798 744.9025,-506.7091 750.8176,-480.9359 757.4648,-450.8609 762.8665,-410.7494 767.8154,-366.4636 765.9074,-331.1733 760.0404,-299.1038 753.5696,-269.0495 748.0579,-249.7687 738.9827,-228.4861 728.1169,-209.7852 716.6875,-195.7393 701.1598,-178.9866 684.0932,-161.7418 665.6219,-148.6429 647.0058,-138.2142 628.06,-130.0399 608.089,-123.4263 586.1004,-116.2542 568.5916,-111.9789 548.9094,-107.9554 531.5749,-105.4405 513.1775,-103.4787 492.0895,-102.4767 471.0439,-101.9646 450.1374,-102.4077 428.8011,-103.3586 408.5106,-105.1932 391.1609,-107.6993 371.5475,-110.96 354.0811,-115.2669 332.6289,-122.2767 314.2769,-129.0986 294.899,-137.5254 277.2013,-147.2436 261.9162,-156.9767 249.4581,-167.2351 234.5039,-183.4828 222.9994,-197.7616 213.8113,-210.2214 202.9943,-229.1275 194.0545,-250.505 188.0383,-277.0531 181.5864,-307.2677 176.2047,-347.7969 174.4295,-383.7021 176.0943,-419.8125 182.3118,-451.5029 188.8935,-481.3819 194.5684,-499.796 203.7402,-521.0759 214.6778,-538.6921 227.0125,-552.6971 242.5459,-569.0912 259.1837,-585.8574 277.4917,-598.3241 296.863,-609.7594 314.4042,-617.1779 333.0614,-624.1624 355.293,-631.5032 373.0897,-635.8321 391.9777,-638.8993 409.9316,-641.464 428.7489,-643.1901 447.5566,-657.4871 460.8181,-669.7498 472.5462,-681.6331 485.3969,-692.6053 498.0958,-704.0009 509.6844,-701.6347 528.8078,-701.1838 548.5208,-700.1313 567.3522,-699.1785 586.9769,-697.2976 608.3752,-694.3441 628.4695,-691.3653 650.9553,-686.9274 671.2524,-682.4627 687.7159,-678.9116 700.9413,-675.4644 715.5463,-670.7489 723.678,-667.5315 736.6575,-661.6703 750.865,-653.0928 768.3381,-638.717 783.7751,-624.2528 799.2789,-608.5967 812.0334,-590.4143 824.2393,-568.6515 830.8497,-550.626 837.9209,-522.5116 844.2094,-483.739 847.3446,-448.0129 847.7063,-408.7813 846.4608,-368.1725 842.8095,-332.9329 836.4908,-300.9668 829.9978,-271.1537 824.8716,-251.2442 816.9796,-228.6758 806.3753,-206.1333 798.5039,-191.9411 790.0616,-176.9523 777.32,-157.1965 765.9713,-144.9193 755.4939,-135.1583 740.6361,-123.998 718.6865,-110.2185 700.8926,-101.2832 683.397,-92.7706 663.6828,-85.9322 647.4637,-80.8008 631.9708,-77.4589 615.0628,-74.2601 593.5926,-70.8229 572.4071,-68.331 549.6197,-65.805 528.509,-64.4189 506.364,-63.0049 488.7549,-62.406 471.2251,-62.3868 453.4276,-62.352 435.8494,-62.9046 418.3134,-63.4572 397.1143,-64.8101 380.0353,-66.038 358.8873,-68.5061 337.2178,-71.9819 315.6604,-75.9581 299.7819,-79.3528 278.1735,-85.6355 257.9824,-92.669 241.5272,-100.7618 223.1496,-110.0109 201.1209,-123.9391 186.1373,-135.2836 175.8837,-144.8971 164.1645,-157.7934 151.978,-177.0012 143.8234,-191.6064 135.7759,-206.175 125.1041,-229.1135 117.3536,-251.6307 112.3798,-271.2365 105.9514,-300.9772 99.5783,-333.6082 96.0093,-368.7331 94.4587,-401.7719 94.8738,-441.1514 101.2825,-482.1712 109.0746,-524.1689 120.4702,-558.8423 134.1956,-592.2406 148.7213,-616.6361 163.3097,-631.083 178.0199,-644.4709 191.8505,-653.032 206.7146,-661.9618 219.2383,-667.5638 227.477,-670.8144 242.0235,-675.4916 255.0604,-678.8729 271.1797,-682.3575 291.6707,-686.8783 314.3573,-691.359 334.1812,-694.3014 355.8227,-697.2934 375.4719,-699.1731 393.944,-700.1066 413.8991,-701.1774 429.1873,-701.6253 441.33,-702.0828 " stroke="none" fill="blue" stroke-width="0" shape-rendering="crispEdges" />
<polygon points="-473.359,661.2926 -468.9449,646.9567 -504.0435,636.2273 -514.4929,634.5867 -530.7714,630.6278 -548.783,626.3219 -571.368,617.8029 -590.2332,609.4873 -605.458,602.0772 -615.5201,596.4021 -630.2819,583.2952 -641.0772,569.3046 -655.7609,541.8798 -671.032,512.4482 -685.1765,484.5462 -692.8059,461.0458 -698.5188,431.7066 -700.3986,413.6621 -700.7927,387.3163 -700.8242,358.0766 -700.2943,332.1604 -694.7513,302.653 -686.5705,270.5977 -672.4425,240.107 -657.0405,211.0889 -642.4298,184.0386 -631.3079,170.0006 -616.7241,157.1435 -606.1354,150.8685 -590.7491,144.0206 -571.5481,136.5234 -549.7898,129.2343 -530.5289,124.9948 -509.7691,121.0928 -490.4537,119.3783 -471.3782,118.8872 -452.4002,119.254 -432.964,120.8551 -414.9854,123.1331 -395.7592,127.2883 -379.1932,131.4502 -360.6086,138.4243 -345.5336,144.91 -333.5096,150.8335 -325.4301,156.0173 -312.1028,168.429 -300.8805,182.3318 -285.6117,210.4824 -270.2358,239.5693 -256.4382,266.6405 -248.8353,289.296 -243.5058,317.1551 -241.9625,332.7874 -241.6913,358.1303 -241.8704,387.3754 -243.0033,415.075 -248.5686,446.053 -256.8976,479.9351 -271.5152,512.3385 -286.7401,541.7092 -300.7268,567.9738 -311.2483,581.9592 -325.7432,595.2497 -336.6057,601.689 -352.0469,609.2635 -370.7853,617.5645 -392.8097,625.9569 -411.4036,630.4927 -424.1359,638.6399 -440.0868,607.1581 -454.8175,573.9636 -470.3826,539.4673 -484.4142,503.7895 -502.3591,460.3303 -516.5279,453.9914 -527.7061,448.4218 -538.3429,437.049 -550.1118,420.2505 -557.6704,403.4575 -564.0647,375.7382 -566.8851,343.9114 -563.711,314.0446 -556.0008,288.4035 -545.2943,263.3706 -532.4006,248.0623 -523.6632,238.8863 -509.5329,231.7785 -497.1344,226.6252 -487.274,224.7763 -471.2771,224.5865 -456.37,224.5666 -446.6061,226.1139 -433.229,231.342 -420.4973,237.1635 -410.2715,247.1893 -398.039,261.1911 -386.6345,287.2249 -378.9324,312.4857 -375.5064,342.393 -378.1301,374.4349 -385.1651,402.5177 -397.1889,422.9793 -409.947,440.4402 -425.0619,452.8771 -439.3861,459.9338 -452.2139,463.3703 -461.3927,463.9966 -464.6664,465.8295 -467.9801,462.7733 -478.1496,473.7997 -474.8359,476.8559 -461.6712,478.9941 -451.2356,478.3384 -435.6469,474.4603 -418.5552,466.3924 -400.5333,452.1185 -385.1739,431.9594 -372.2468,410.1413 -363.6166,378.2241 -360.5606,343.6676 -364.022,310.8485 -372.2663,282.9174 -384.2882,255.1983 -398.8104,237.5124 -409.9723,226.4759 -426.6195,217.8767 -441.1215,212.1526 -453.7946,209.7894 -471.1922,209.5867 -487.4508,209.7773 -499.7516,211.8553 -515.125,217.8599 -530.3822,225.4753 -542.9556,237.4044 -556.7527,253.6905 -569.7254,282.3508 -578.0668,309.6957 -581.7943,342.2633 -579.0118,376.9964 -572.2953,406.7914 -563.8354,426.3053 -550.6839,445.5755 -538.7111,458.6144 -523.6467,467.1945 -508.5022,474.0147 -498.5431,508.8265 -484.3424,544.9559 -468.4916,580.1296 -453.7974,613.2424 -437.5183,645.4158 -408.4605,645.2011 -389.2598,640.5308 -365.4778,631.5941 -345.979,622.9814 -330.0041,615.1582 -318.1173,608.1666 -301.1962,593.0928 -288.8058,577.0782 -273.523,548.8022 -258.1982,519.242 -243.2264,486.1075 -234.0147,449.6841 -228.241,417.7351 -226.8844,388.0253 -226.6916,358.2248 -226.9634,332.6275 -228.5758,315.7077 -234.0993,286.4938 -242.2044,261.9077 -256.8533,232.7937 -272.3503,203.4728 -287.695,175.1803 -300.3703,159.083 -315.1606,145.084 -325.2642,138.303 -338.8505,131.4811 -354.671,124.6495 -373.9171,117.4087 -392.0653,112.7502 -411.8131,108.4724 -431.056,105.9769 -451.1629,104.3051 -471.0768,103.8903 -490.8337,104.3831 -511.0841,106.1505 -533.2755,110.2484 -553.0114,114.5844 -576.2873,122.2918 -596.1984,130.0454 -612.228,137.1616 -624.3212,144.2096 -641.1533,158.6839 -654.125,174.6459 -670.211,203.9098 -685.6918,233.0744 -700.1784,264.2871 -709.2716,298.8901 -715.0349,329.3827 -715.8197,357.7132 -715.7927,387.3312 -715.397,413.886 -713.4405,433.2373 -707.5322,463.8981 -699.4537,489.1466 -684.4304,519.1923 -669.0754,548.788 -654.3012,576.3846 -642.2071,592.394 -625.5529,607.553 -613.0046,615.0406 -596.8135,622.9669 -577.4219,631.527 -554.0833,640.3542 -534.304,645.2059 -518.0376,649.1619 -506.4041,651.0404 " stroke="none" fill="blue" stroke-width="0" shape-rendering="crispEdges" />
<polygon points="-467.3301,-45.3097 -468.9145,-30.3937 -438.2887,-27.2299 -426.8973,-27.7807 -411.2591,-28.3609 -391.9753,-29.6619 -372.2471,-30.8816 -352.9979,-33.2134 -333.7291,-35.2446 -314.2499,-38.9774 -295.6886,-42.1967 -275.7282,-48.0805 -258.9659,-52.9845 -243.9249,-58.7455 -228.7712,-65.4714 -214.7761,-73.7183 -201.8006,-82.2466 -186.5303,-95.7715 -171.2414,-109.5341 -159.8527,-122.1693 -146.0107,-138.6538 -134.6045,-157.3319 -125.2315,-172.1132 -115.0041,-188.9048 -103.3518,-207.985 -94.0108,-224.2096 -83.3727,-235.4191 -73.5414,-244.4079 -58.7667,-244.9477 -43.3138,-239.2907 -25.5966,-222.8419 -7.6444,-200.7045 8.1333,-176.2134 20.5918,-157.5752 36.5587,-134.1096 50.929,-115.4688 64.4426,-100.3075 79.2281,-84.6665 93.9183,-70.3846 107.7256,-60.5601 122.4932,-53.0015 138.9195,-44.9863 155.5157,-39.5927 175.5689,-32.4323 194.2617,-28.9386 215.0437,-25.4214 234.8029,-23.143 255.9496,-20.8524 276.0865,-19.3543 293.9613,-17.4018 313.0673,-15.4337 330.8071,-14.1348 349.3607,-12.8299 367.1987,-12.0051 388.589,-11.6298 406.3584,-11.2019 427.9056,-11.0656 449.5974,-10.918 471.2344,-10.9682 492.9294,-10.9866 514.6848,-11.2039 532.5535,-11.6706 550.35,-12.1439 568.4789,-12.9877 586.3025,-13.8487 604.55,-15.171 626.3695,-16.2595 645.077,-18.2323 666.2487,-19.7956 686.8413,-21.3716 707.7387,-23.6834 727.7856,-26.0386 749.0357,-29.7468 771.9217,-36.7423 791.0124,-43.6815 811.2755,-51.666 831.0415,-63.1313 852.176,-76.1988 869.0726,-91.7065 885.7726,-107.8666 899.9137,-123.6407 915.9434,-146.9962 927.3493,-166.833 935.2885,-180.3251 942.5152,-193.2704 949.0334,-204.9988 935.9222,-212.2855 929.404,-200.5571 922.1912,-187.6366 914.4224,-174.4418 902.9399,-154.4733 887.5537,-132.1395 874.6343,-117.9135 858.6499,-102.4938 842.0345,-87.2509 823.2257,-75.9341 803.7503,-64.6419 785.5704,-57.6595 766.7989,-50.8404 744.657,-44.0934 725.248,-40.8224 705.9964,-38.5819 685.1921,-36.2807 665.1072,-34.7521 643.9725,-33.1915 624.7993,-31.1771 603.8106,-30.1528 585.22,-28.8096 567.7571,-27.9704 549.6526,-27.1277 532.156,-26.6654 514.2931,-26.1988 492.7803,-25.9859 471.2219,-25.9682 449.5626,-25.918 428.0078,-26.0653 406.4533,-26.2016 388.9511,-26.6254 367.4619,-27.0027 350.0562,-27.8137 331.8612,-29.0977 314.1627,-30.3936 295.5009,-32.3226 277.7154,-34.2656 257.0657,-35.8108 236.4212,-38.0554 216.7621,-40.3227 196.7722,-43.727 178.3255,-47.1768 160.6256,-53.6955 143.559,-59.2508 129.128,-66.4543 114.5607,-73.9123 102.6756,-82.5629 89.7295,-95.3772 75.3458,-110.609 62.1282,-125.4477 48.446,-143.258 32.997,-166.0079 20.604,-184.5491 4.9657,-208.8276 -13.9317,-232.2722 -33.0749,-250.2526 -53.179,-258.8682 -73.5414,-259.4079 -92.2314,-247.5239 -104.8164,-234.6134 -116.2693,-215.6098 -127.8054,-196.7232 -138.0423,-179.916 -147.2718,-165.3657 -158.812,-146.4721 -171.2999,-131.8627 -182.3812,-119.5792 -196.5429,-106.9405 -211.7459,-93.4756 -222.9479,-86.2969 -236.3806,-78.398 -249.9674,-72.4746 -264.3231,-66.9953 -279.9193,-62.4831 -299.9298,-56.5846 -316.7725,-53.7637 -336.551,-49.9768 -354.5493,-48.1329 -374.0502,-45.7728 -392.8909,-44.6339 -412.2687,-43.3269 -427.4501,-42.7705 -439.0124,-42.2125 " stroke="none" fill="blue" stroke-width="0" shape-rendering="crispEdges" />
<polygon points="-947.8782,-213.8466 -937.0774,-203.4377 -894.1066,-254.5801 -885.6079,-251.5023 -874.1462,-244.4766 -860.9943,-234.793 -850.25,-223.9051 -839.9531,-206.3843 -828.4974,-187.5148 -816.7556,-169.3314 -804.4345,-152.0262 -788.1117,-130.0565 -768.9643,-110.107 -750.5581,-93.7242 -733.6386,-80.0142 -711.7475,-65.7249 -693.1766,-57.5415 -674.5357,-51.6179 -655.8441,-47.0027 -632.184,-41.0946 -612.9618,-38.178 -591.1047,-34.4761 -571.7087,-32.238 -550.8162,-29.9793 -531.4802,-28.777 -511.3377,-27.5714 -500.3825,-29.5264 -487.7746,-15.713 -475.7263,-1.7328 -463.6446,12.2129 -451.0999,26.7198 -430.9787,43.1093 -412.2845,43.5521 -392.8588,44.7273 -373.9911,45.7409 -354.9997,47.903 -333.6003,51.5465 -314.4406,55.1257 -291.6584,60.9106 -271.8765,66.7251 -254.9283,72.1078 -238.2791,79.5829 -217.6409,93.5313 -201.4753,107.0306 -185.1457,120.9128 -170.0027,135.3182 -157.3539,150.2793 -147.2839,165.4084 -138.0933,180.0571 -127.9671,196.8793 -116.4987,215.8808 -105.0762,235.0714 -92.6009,248.1633 -73.8306,260.2596 -53.2448,259.732 -32.8287,250.9547 -9.9661,227.6986 9.8506,202.9401 25.6633,178.3696 39.4663,155.6118 54.5471,133.376 67.7368,118.7295 83.8806,103.0271 99.4291,88.4559 118.811,76.5348 136.6426,67.5105 155.0444,60.2766 174.8529,54.673 196.4883,47.9354 217.125,44.312 237.1752,39.9302 258.3326,37.5292 277.676,34.5757 295.472,32.5664 314.1735,30.5731 331.8775,29.2259 349.9835,27.89 371.4554,27.1535 392.8853,26.6824 414.4934,26.196 436.0371,25.9279 453.6078,25.7156 471.1833,25.5288 488.8558,25.6493 506.4353,25.8018 527.9369,26.0081 549.623,26.4384 570.9921,26.8669 592.5737,27.5685 613.474,28.2466 631.3453,29.5784 651.8064,30.5988 669.8666,32.6028 689.6195,34.0982 708.0022,37.1013 726.8009,39.2834 745.5215,43.835 762.8773,47.064 781.9873,54.0879 797.7846,59.2472 812.9306,66.7637 826.5783,73.704 839.4162,83.0233 850.4876,91.0397 865.0639,106.5463 877.4469,120.0465 887.2519,132.5053 902.647,155.2901 914.1544,175.6698 921.9352,189.1989 929.2201,202.4736 935.896,214.693 949.0596,207.5014 942.3837,195.2819 935.0852,181.9824 927.158,168.1928 915.7087,147.915 899.6879,124.1181 889.2458,110.7844 876.1298,96.4199 861.4174,80.7664 848.3215,70.9528 835.3903,61.5653 819.8051,53.4318 804.4535,45.8112 786.7076,39.8499 768.0549,32.9858 748.3479,29.1037 730.3516,24.7097 709.7747,22.2064 692.0437,19.2954 671.0195,17.6472 653.4643,15.6907 632.1024,14.5975 614.5905,13.2882 593.0648,12.5766 571.4794,11.8749 549.9241,11.4414 528.2345,11.011 506.5795,10.8025 488.986,10.6499 471.2856,10.5291 453.4493,10.7164 435.8558,10.929 414.3068,11.1971 392.548,11.6862 371.1257,12.1571 349.4697,12.8988 330.7785,14.2662 313.0354,15.6163 293.8849,17.6505 275.9932,19.6703 256.0728,22.7004 235.4877,25.0255 213.9495,29.652 193.8985,33.1607 170.4303,40.3398 150.9628,45.8426 131.1797,53.5406 112.0599,63.1399 91.5852,75.6702 73.6975,92.0133 57.2794,107.9757 43.4088,123.3292 27.0737,147.1606 12.841,170.5857 -2.7623,194.8214 -21.6648,218.3102 -43.5129,240.4263 -58.7713,245.7872 -73.8306,245.2596 -83.6585,236.1204 -94.1499,224.7944 -103.5439,208.3196 -115.1246,189.1288 -125.242,172.3212 -134.5771,157.4374 -144.8658,141.9699 -158.5245,125.6615 -174.7841,110.0668 -191.7531,95.6079 -208.0261,82.0179 -229.8611,67.1677 -248.7054,58.4595 -267.2946,52.4421 -287.4268,46.5199 -310.7457,40.5879 -330.8345,36.8037 -352.4813,33.1159 -372.2856,30.8381 -392.0437,29.7495 -411.3786,28.5795 -430.6194,28.1136 -440.7873,15.8271 -452.2787,2.4244 -464.3891,-11.5546 -476.412,-25.5055 -489.3019,-39.6368 -510.8895,-42.5647 -530.5815,-43.75 -549.8853,-44.9504 -570.0908,-47.1505 -589.3852,-49.3772 -610.4498,-52.9662 -629.933,-55.9247 -652.1897,-61.5507 -670.9399,-66.1805 -688.6218,-71.8332 -705.669,-79.4381 -725.3907,-92.5431 -741.0943,-105.362 -758.988,-121.3085 -777.281,-140.4341 -792.3742,-160.9452 -804.5358,-178.0307 -815.8934,-195.6473 -827.13,-214.1669 -837.3176,-231.5047 -850.1776,-245.1853 -865.1778,-256.5002 -877.7407,-264.2737 -888.7896,-268.6061 " stroke="none" fill="blue" stroke-width="0" shape-rendering="crispEdges" />
<polygon points="-936.5556,206.4953 -948.4,215.6991 -926.813,243.2154 -916.5078,251.7897 -899.3462,260.6929 -878.0938,260.0008 -857.794,250.0078 -835.7235,226.3359 -815.56,200.7545 -797.9572,174.1389 -779.446,148.9519 -758.3261,123.7201 -740.9035,108.0635 -725.3722,94.9382 -705.0087,80.8959 -688.2051,73.0828 -671.2095,67.6449 -652.6019,62.8972 -630.1583,57.1195 -610.7871,54.0781 -589.5808,50.3876 -570.2046,48.0902 -549.8822,45.8144 -530.5043,44.5538 -511.03,43.3012 -494.961,43.4462 -482.5167,43.9875 -475.4041,44.3259 -469.9966,45.7014 -466.2987,31.1644 -471.7061,29.7888 -481.5381,29.0194 -494.3071,28.4605 -510.8905,28.3018 -531.452,29.5837 -550.856,30.8461 -571.8681,33.1827 -591.3469,35.4919 -613.3515,39.2989 -632.4843,42.301 -656.3203,48.3654 -674.918,53.1106 -692.7658,58.7929 -711.2911,67.2749 -733.8352,82.5536 -750.5643,96.5888 -768.3504,112.5615 -790.9269,139.2985 -810.0395,165.2496 -828.0689,192.4763 -847.4965,217.0409 -868.757,239.7701 -884.3874,246.3849 -899.3462,245.6929 -908.8957,238.8647 -917.1266,231.7623 " stroke="none" fill="blue" stroke-width="0" shape-rendering="crispEdges" />
<polygon points="-461.2127,-647.5007 -467.3957,-661.1671 -484.4267,-652.9841 -496.9108,-651.9455 -512.7348,-649.9825 -532.5798,-647.1705 -551.6624,-642.5634 -570.4119,-637.3112 -589.5424,-628.9624 -605.7946,-621.0857 -619.7745,-612.6873 -636.0925,-598.0819 -653.9196,-577.7665 -669.3202,-549.074 -684.8048,-519.3229 -700.2424,-488.9435 -708.36,-464.8811 -714.27,-434.1284 -715.9321,-415.3741 -716.1814,-386.6883 -716.268,-356.9608 -715.9007,-327.7657 -710.2081,-297.2354 -700.8967,-262.3218 -685.9724,-232.4743 -670.3468,-203.0017 -653.9684,-172.7108 -641.1029,-156.6776 -624.0546,-142.2584 -612.5637,-136.1177 -596.5721,-129.1802 -576.6633,-121.4945 -552.9601,-113.6121 -533.2958,-109.33 -511.2212,-105.3269 -490.9139,-103.6388 -471.0567,-103.2216 -451.114,-103.7518 -430.9166,-105.5472 -411.6698,-108.1787 -391.986,-112.5819 -373.8618,-117.3496 -354.6385,-124.679 -338.26,-132.063 -322.9653,-141.0203 -306.7521,-155.1711 -288.3607,-174.809 -272.1443,-203.9087 -256.5937,-233.1711 -241.9834,-261.9903 -233.8566,-285.8261 -228.2766,-314.9432 -226.7115,-331.6268 -226.4949,-358.1878 -226.6524,-388.2977 -229.3515,-426.1814 -234.9995,-458.0272 -242.3145,-492.1144 -250.3519,-516.5499 -261.2398,-542.8028 -274.5764,-562.7961 -285.9333,-577.981 -296.6365,-590.373 -313.2738,-605.159 -329.8081,-615.7955 -345.7636,-623.5294 -365.2622,-632.1144 -389.3036,-641.1594 -408.3841,-645.7698 -436.1097,-645.8838 -452.2404,-614.1032 -470.1829,-579.8179 -485.81,-545.1708 -504.8158,-505.7225 -517.6038,-469.3796 -534.6942,-460.8714 -549.2853,-447.2942 -564.3618,-426.908 -572.8006,-407.7239 -579.6558,-377.7699 -582.5446,-342.5548 -578.739,-309.4643 -570.3871,-281.9449 -557.6,-252.8576 -543.634,-236.3971 -530.9118,-224.4981 -515.7349,-217.1409 -499.4856,-211.1707 -481.3583,-209.9879 -464.632,-209.8467 -443.8581,-211.5349 -425.3573,-219.6917 -401.5351,-239.3145 -386.5227,-268.0181 -371.8316,-300.4864 -362.8288,-338.9959 -363.067,-378.9384 -371.6465,-410.9247 -384.6568,-432.5094 -400.1803,-452.7963 -418.2714,-467.0384 -435.3079,-474.9126 -451.2762,-478.8766 -461.9083,-479.5106 -474.9569,-477.5133 -478.5815,-474.4098 -468.8255,-463.0159 -465.2009,-466.1195 -461.5557,-464.5147 -452.2077,-463.9055 -439.0403,-460.3844 -424.661,-453.4673 -409.5647,-441.0945 -396.6527,-423.5039 -384.5055,-403.2015 -377.5905,-375.1878 -377.8288,-338.9959 -386.4198,-303.977 -400.1643,-274.2556 -414.8246,-246.2707 -434.6467,-231.4691 -449.7303,-225.3377 -465.5352,-224.8195 -481.2152,-224.9873 -498.4992,-226.1382 -510.2786,-231.1133 -524.3492,-237.9863 -533.1491,-247.124 -546.1471,-262.5442 -556.5933,-287.838 -564.3786,-313.7976 -567.6365,-344.213 -564.7112,-376.4824 -558.1868,-404.3419 -550.6722,-420.7766 -537.2907,-438.287 -524.5456,-449.8257 -511.1532,-455.8374 -490.936,-500.0346 -472.2986,-538.656 -456.5098,-573.6498 -438.9526,-607.1436 -422.7341,-639.0946 -411.4417,-631.0847 -392.8295,-626.5797 -370.576,-618.0872 -351.8149,-609.8041 -336.3545,-602.2994 -321.4254,-592.5673 -306.6467,-579.2019 -297.3239,-568.2213 -286.5965,-553.8229 -273.722,-534.4845 -264.2375,-510.8765 -256.5669,-487.438 -249.6695,-454.8979 -244.1213,-423.564 -241.6156,-387.2481 -241.4948,-358.1173 -241.711,-331.7494 -243.2087,-316.3696 -248.5853,-288.6663 -256.1665,-266.8729 -269.9572,-239.984 -285.3898,-210.9483 -301.4632,-182.1114 -317.609,-165.5213 -332.8117,-152.3362 -345.7372,-145.0665 -360.7747,-138.3665 -379.1972,-131.3687 -395.7678,-127.0974 -414.941,-122.8176 -432.9276,-120.4118 -452.4363,-118.6934 -471.4444,-118.2166 -490.5925,-118.6354 -509.9679,-120.2744 -530.596,-124.085 -549.7654,-128.2679 -571.905,-135.7197 -591.1647,-143.1717 -606.589,-149.8764 -616.9586,-155.4738 -631.3262,-168.0537 -642.207,-182.0204 -657.1278,-210.091 -672.7197,-239.5005 -687.48,-269.0294 -695.6977,-301.0362 -701.1531,-330.5058 -701.2685,-357.0905 -701.1814,-386.6443 -700.9327,-415.2436 -699.3303,-432.7847 -693.6331,-462.0321 -686.0427,-484.1093 -671.4479,-512.497 -656.0146,-542.1487 -640.7033,-570.6723 -624.8939,-588.1023 -609.7959,-601.4878 -598.1831,-608.1604 -583.0194,-615.455 -564.4159,-623.5617 -547.6723,-628.1039 -529.0625,-632.5887 -510.6569,-635.1271 -495.065,-637.0595 -483.1906,-638.0351 " stroke="none" fill="blue" stroke-width="0" shape-rendering="crispEdges" />
<polygon points="481.8171,406.6525 472.9629,394.5445 463.1026,407.3208 450.8956,401.0051 438.1283,383.0421 426.2749,362.0247 422.5361,338.3375 422.9414,317.5521 435.2524,299.7817 448.0825,291.6389 467.1484,288.62 483.0506,289.2689 498.5595,291.433 509.8217,299.1066 520.8632,314.4569 521.0154,337.1579 516.6,359.9202 504.9217,384.1478 493.8301,422.5633 479.8675,451.4004 464.4517,474.6572 453.2956,495.0906 445.3845,511.0827 428.8061,507.5442 409.9592,501.5313 393.8912,493.1792 377.167,483.7625 362.9673,472.6007 349.4411,459.9398 338.6035,446.1539 329.2257,429.8929 321.1303,412.9946 316.4405,387.323 313.3752,360.9028 313.2464,335.4414 318.0532,309.352 328.2486,280.3658 337.7853,262.1109 346.5384,248.1868 359.8269,233.8451 370.5453,224.6319 380.465,220.1681 395.8052,214.0595 414.0132,207.8073 430.951,204.2458 449.6916,201.5762 470.0313,199.8989 488.0197,200.483 506.9682,202.7024 530.2546,209.5223 549.9249,216.0288 563.6504,221.0703 583.5496,237.559 599.5828,254.3383 609.7718,279.3946 620.1328,308.4136 627.7931,345.1643 626.452,375.0633 622.2845,403.6603 614.3646,426.074 604.4609,445.2695 593.787,459.0453 580.0023,472.0859 566.2218,483.0411 548.8142,492.95 533.5068,501.0067 511.7997,509.7644 498.0514,527.2634 484.6719,543.5795 470.0858,557.8105 455.5029,571.5221 445.187,582.3181 428.0931,580.3757 407.953,576.8094 391.4979,572.2779 373.0398,566.5039 355.8441,558.6202 339.3628,550.6528 324.5462,541.1575 310.6495,530.9184 299.1461,520.4134 288.5958,508.3387 276.6155,490.8977 267.1445,474.3624 258.2583,453.2404 249.4935,428.1677 244.1027,406.5034 242.2573,377.398 241.1064,350.1642 241.2102,330.0783 248.6112,300.3867 256.9266,271.8023 265.8527,253.9565 281.3564,230.4555 297.5875,207.0914 314.6296,193.6547 330.6774,181.6394 347.4355,170.0613 362.1949,162.8364 374.9392,157.4169 382.9001,154.8597 397.6478,151.3563 410.6057,148.9405 426.534,147.2117 448.7146,145.8762 470.8568,144.6427 493.6738,145.7466 515.5624,146.9351 531.3014,148.532 544.6986,150.9755 559.6449,154.582 568.6425,157.7835 583.6374,164.867 604.6238,177.7839 623.1953,190.7553 639.2782,203.2423 661.2207,230.3893 676.5316,253.5458 685.8139,271.2806 693.1906,286.8517 700.4055,315.4829 701.3679,331.9349 701.3946,352.6584 699.5939,382.1395 695.3148,416.5837 686.4132,442.1208 676.6532,467.6073 666.1721,490.3457 654.3865,507.6316 643.9033,519.7756 632.4176,530.3832 618.3255,540.838 603.8719,550.1755 586.7816,558.4969 570.2885,566.1216 551.2351,572.1532 535.0967,576.6331 512.2719,582.3959 498.7893,596.3723 484.8476,609.9876 471.8897,622.1225 457.4331,634.1383 447.4515,644.0855 429.8706,643.0053 409.9828,641.2692 392.0061,638.7218 373.1281,635.6748 355.3125,631.3642 333.0744,624.0492 314.4025,617.0877 296.6001,609.5459 278.676,599.9628 263.6068,590.4625 251.8241,581.2383 236.3208,564.905 223.5865,550.3683 214.6536,538.736 203.7113,521.1259 194.671,500.3488 188.4276,473.3694 181.918,443.8903 176.4396,403.8694 174.7628,368.1487 179.2508,325.0392 185.1728,292.241 191.6757,262.3833 197.5,242.969 209.8533,218.1316 221.9011,202.3098 237.7044,185.0622 254.5243,167.9863 276.3572,148.9337 294.9987,137.6715 314.2698,129.2465 332.6209,122.365 353.8848,115.3269 374.8623,110.7796 394.3077,107.4651 415.7201,104.7753 436.1185,102.8252 453.4422,101.7088 471.1018,101.2958 488.7242,101.5979 506.1181,102.6212 526.5632,104.492 547.867,107.0873 567.3405,110.3581 588.3569,114.8725 606.1403,119.4827 624.668,126.4339 640.8673,132.6679 655.8171,140.0629 670.4137,149.2579 690.0234,167.8087 705.5821,184.6526 720.1619,201.3899 731.9081,216.7515 744.4413,241.3282 751.5845,269.8138 758.131,299.7259 763.6009,340.5899 768.0663,382.4584 763.0442,426.6171 756.7347,459.2085 750.2435,488.6967 744.7892,506.632 732.3566,530.961 723.2676,543.0526 710.3909,557.8242 694.806,574.2753 679.4892,589.9604 664.4154,599.5647 647.436,608.1653 629.5836,615.7865 609.4703,622.5759 587.5207,629.8315 569.3868,634.2515 549.4387,638.3907 531.4799,640.9438 510.3352,644.9159 496.9151,657.4238 483.6401,669.7361 472.6431,680.9525 459.448,692.2803 450.8062,701.8682 432.8154,701.4163 413.9614,700.9732 393.9852,699.9078 375.5315,698.9775 355.8612,697.1021 334.2004,694.1131 314.3567,691.1737 291.6503,686.6933 271.1432,682.1737 255.0383,678.6871 242.1211,675.3429 227.6016,670.6758 219.3739,667.4145 206.8675,661.8155 192.7218,653.3983 174.887,638.9478 159.1765,623.1481 139.5686,596.5937 123.419,560.1449 109.1631,523.6964 101.0905,492.2883 94.6989,451.1535 93.3896,418.2358 94.8937,385.0853 98.4912,349.7389 105.1641,307.4649 111.6506,277.6072 117.4817,251.9542 125.2629,229.5232 135.8938,206.7795 143.9328,192.349 159.2565,171.3163 178.821,148.293 197.8609,130.9421 220.878,115.8228 243.0747,101.763 260.073,93.3984 278.3441,85.93 299.9672,79.5564 315.889,76.075 337.4335,72.0279 358.919,68.5388 376.1434,66.4629 393.2569,65.1545 410.813,63.8533 428.2535,63.196 449.6784,62.6785 471.0795,62.1696 492.7684,62.5914 514.1082,63.0214 531.4034,63.6053 549.2225,64.8769 566.0607,66.1181 583.5798,68.2021 599.6986,70.2344 619.7597,73.7932 635.1052,76.8821 648.913,80 662.8653,84.0537 677.4546,89.128 691.0074,94.5658 706.9205,102.7158 724.2578,111.403 740.6234,123.6461 755.4707,135.0953 769.9986,150.4927 785.4042,171.6329 798.1248,191.4772 806.3427,206.1654 816.9275,228.7836 824.7799,251.3481 829.8853,271.3335 836.3273,301.1215 842.5826,333.1643 846.1818,368.3683 847.4037,408.8473 846.9853,448.0135 843.8445,483.6206 837.6219,522.0265 830.5773,550.0447 823.911,568.2001 811.7943,589.844 799.0499,608.0859 783.5616,623.8711 768.1612,638.3487 750.5896,652.7406 736.3467,661.3726 723.3896,667.246 715.3154,670.4788 700.7501,675.1954 687.7369,678.5855 671.4943,682.1147 653.2238,685.6793 630.8593,690.116 611.9934,692.516 590.5644,695.4825 570.6174,697.3933 549.8804,699.287 528.7011,700.5208 510.3713,704.5853 496.5026,708.1428 484.845,712.7178 478.1555,718.7139 488.1674,729.8835 494.8569,723.8874 501.2982,722.3555 514.0764,719.1205 531.9455,715.1657 550.6811,714.2656 571.9778,712.3314 591.9946,710.4142 614.0458,707.375 632.7519,704.9961 656.1312,700.3948 674.3667,696.8371 690.9203,693.2438 704.5249,689.7127 719.9248,684.7531 728.9386,681.1819 742.5319,675.038 758.3247,665.5923 777.6276,649.9843 793.826,634.8091 809.7537,618.5944 824.0526,598.4888 836.988,575.5481 844.6338,555.2805 852.1635,525.7064 858.6497,486.0303 861.9266,449.3398 862.4028,409.0161 861.175,367.918 857.5056,331.6467 851.0521,298.2614 844.5465,268.1637 839.3142,247.6391 831.0996,223.8692 819.9385,199.8289 811.2238,184.1687 798.0371,163.5454 782.1257,141.6648 766.4091,124.8311 749.8404,111.812 733.244,99.3926 713.7168,89.3437 697.8451,81.215 683.069,75.2183 667.8009,69.889 653.1081,65.5985 638.4233,62.2536 622.7217,59.0886 602.3202,55.4652 585.4646,53.321 567.8327,51.2231 550.3317,49.918 532.4712,48.6433 514.6187,48.0301 493.0711,47.5944 471.3712,47.1724 449.3267,47.6826 427.8913,48.2003 410.2486,48.8639 392.1523,50.1953 375,51.5065 357.1302,53.6459 335.0334,57.2212 313.1213,61.3325 296.766,64.9019 274.1151,71.5385 254.4241,79.5027 236.465,88.2978 212.872,103.138 189.6262,118.4046 168.756,137.1711 147.8461,161.5796 131.8166,183.5062 122.8135,199.4375 111.6792,223.1606 103.3183,247.0147 97.0295,274.257 90.5061,304.2802 83.6753,347.3959 79.9713,383.5617 78.4052,417.5506 79.7102,451.7375 86.2657,494.5741 94.6312,527.4144 109.4419,565.5892 125.8533,602.6674 147.0636,631.9956 164.2116,649.4851 183.2561,665.0345 199.1386,674.671 213.1937,681.0822 222.0616,684.6153 237.5155,689.6183 251.2652,693.2048 267.9638,696.8329 288.4219,701.3417 311.4517,705.8897 331.9962,708.9503 353.8105,711.9613 374.103,713.9093 393.2239,714.8885 413.1626,715.9519 432.4603,716.4121 450.4295,716.8635 469.0329,703.8185 482.4131,692.3343 494.3331,680.2556 507.1105,668.4262 520.5623,655.8888 533.2506,655.8389 551.5484,653.2416 572.4237,648.9409 591.0693,644.4057 614.1635,636.8228 634.3809,629.9987 653.3096,621.9675 671.1821,612.9517 687.5243,602.6267 705.4483,584.846 721.2793,568.1413 734.5714,552.9129 744.3355,539.989 758.1192,513.5102 764.5676,493.1486 771.3812,462.4461 777.7706,429.4692 782.9694,384.1609 778.5227,339.0608 772.9985,297.7371 766.2402,266.6188 758.9913,237.6815 745.315,210.0243 732.1353,192.3546 716.9007,174.8093 701.0435,157.6323 680.7288,138.3676 663.9095,127.4331 647.5531,119.2403 630.0814,112.4448 611.4096,105.4387 592.1526,100.3607 570.4957,95.6937 550.3574,92.2955 528.3825,89.6027 507.4874,87.6838 489.6086,86.624 471.3644,86.2981 453.0967,86.7128 435.1593,87.8559 414.2952,89.8432 392.4404,92.5818 372.3472,95.9919 350.7122,100.6662 327.9336,108.1162 309.0075,115.1998 288.997,123.9245 268.6374,136.0727 244.7055,156.6465 227.0281,174.5258 210.8438,192.174 197.9331,209.0262 184.1008,236.2264 177.3314,257.9971 170.519,289.0369 164.4899,322.3717 159.8441,366.5883 161.4545,404.538 167.0551,445.9133 173.7778,476.5918 180.0572,503.7304 189.9259,527.0387 201.8821,546.6029 211.6664,559.4738 225.0293,574.7794 240.9419,591.562 254.3006,602.2265 270.6473,612.6332 289.5147,622.767 308.5299,630.8903 327.8288,638.1021 350.622,645.612 369.5818,650.2496 389.5985,653.5273 407.8769,656.1207 428.5582,657.9477 446.5294,659.0571 466.5477,646.0514 481.474,633.6612 495.0928,620.9437 509.2686,607.1048 523.0657,592.8119 537.9158,591.3658 555.2264,586.6124 574.8119,580.4233 593.0331,572.1321 610.437,563.6625 626.4272,553.4618 641.3435,542.4385 654.0508,530.8223 665.712,517.4669 678.5458,498.8246 690.2501,473.9418 700.4176,447.4944 709.4783,421.5228 714.4707,384.0576 716.3662,353.5813 716.3679,331.9261 715.3805,314.6181 707.7517,283.2493 699.4205,264.9671 689.8243,246.5956 673.7443,222.1335 650.9532,193.8246 632.5018,178.9914 613.2201,165.4915 591.5064,152.0967 575.0854,144.2377 564.7269,140.4692 548.2572,136.4037 534.0066,133.7779 517.0984,132.014 494.4929,130.769 471.5817,129.6603 447.9068,130.898 425.6326,132.2388 408.995,134.0272 394.9223,136.6059 379.4422,140.2637 370.3883,143.124 356.3563,149.0194 340.8498,156.5844 322.1996,169.265 305.6433,181.6444 288.3016,195.3112 269.1293,221.7665 253.3332,245.6945 243.5285,265.0577 234.2253,296.1387 226.6563,326.4471 226.1081,349.9398 227.2704,378.0248 229.1327,407.4517 234.9189,431.7146 244.0921,458.1718 253.3146,480.1703 263.5785,498.3163 276.2213,516.8164 287.8204,530.2484 300.5007,541.9639 315.6192,553.2119 331.2575,563.2743 349.2773,572.1064 366.7871,580.1385 386.9772,586.5804 403.9661,591.2698 425.4546,595.1418 443.4806,597.2207 464.7395,583.341 480.3444,568.754 495.1462,554.3168 509.6303,536.7992 523.5939,519.0324 538.4013,515.1857 555.738,506.2564 573.6388,496.079 589.2807,483.872 604.0783,469.9581 616.2732,454.5144 627.6552,433.0281 636.4122,408.701 641.2846,377.298 642.7771,345.8565 634.8353,305.4409 623.9105,274.3849 613.4796,248.6919 594.6028,227.4187 573.2509,209.5451 555.4548,202.0854 534.9738,195.284 511.1869,188.3079 489.8425,185.5942 470.5422,184.9076 448.4945,186.624 428.8465,189.3941 410.9403,193.1254 390.9745,199.8587 374.9238,206.2291 364.399,210.949 350.2677,222.2856 335.5682,237.9567 325.1464,254.0326 314.9629,273.4024 303.9153,304.3401 298.504,332.6734 298.3752,360.9028 301.5373,389.0246 306.3728,415.6809 315.6159,436.1995 325.5981,453.6277 337.6098,469.1604 352.6659,483.5039 367.8777,495.54 386.474,506.217 403.0372,514.8387 424.1729,521.8107 442.22,525.7451 464.874,504.6269 477.5781,481.9166 492.3629,459.6989 507.3173,429.1282 519.3219,388.3474 530.0861,366.4873 535.7111,340.1638 535.8632,314.4569 522.5111,291.1079 507.4675,279.3645 485.8284,274.5283 467.8299,273.6354 445.8459,276.8066 427.6668,286.8412 410.8576,308.665 407.5777,337.2202 411.4406,364.2482 424.9292,390.1684 438.6478,409.6649 455.5609,420.2869 " stroke="none" fill="red" stroke-width="0" shape-rendering="crispEdges" />
<polygon points="467.9598,-394.3568 468.4241,-409.3496 430.1177,-406.3158 420.693,-388.2622 411.9482,-364.8822 406.7862,-338.857 407.9571,-310.6753 422.0679,-289.4084 438.2838,-278.3374 457.8362,-274.819 476.1776,-274.1479 499.321,-278.1258 516.9326,-289.2431 532.9444,-312.8658 534.6714,-339.1283 530.0513,-366.8467 516.889,-391.2974 503.7672,-408.7488 487.8282,-439.2232 472.3916,-461.4093 458.8007,-483.7691 442.1899,-501.903 415.9722,-517.7431 391.9892,-507.7459 370.4218,-493.3362 346.5277,-472.1235 327.5229,-445.4418 312.4126,-416.2012 302.6468,-379.7556 298.9135,-347.1653 299.1463,-318.511 305.5049,-293.865 316.3954,-267.34 326.0544,-252.295 335.6688,-238.0506 350.3884,-222.4351 364.5809,-211.1151 377.6351,-205.4348 393.7256,-199.074 414.578,-192.2543 432.583,-188.5483 453.437,-186.0105 472.8865,-185.3921 494.593,-187.1444 514.2161,-189.949 532.4724,-193.8152 551.7711,-200.3493 567.7528,-206.6972 579.5948,-212.3288 592.7151,-223.1934 607.5736,-239.2032 617.9122,-255.4344 628.3632,-280.9977 639.4128,-312.6142 642.738,-346.0617 641.2769,-377.421 636.3852,-409.1738 625.4668,-435.4845 609.7378,-459.6753 593.0182,-477.7582 571.2765,-494.1655 549.0551,-508.7021 525.2718,-518.1616 505.3927,-524.9249 488.71,-529.0014 484.7473,-526.6525 475.899,-541.2867 467.632,-555.0029 456.9197,-569.6409 440.758,-581.686 417.8378,-593.2326 394.2689,-587.9429 373.2988,-580.0859 350.0296,-570.817 329.1247,-559.0466 306.757,-543.3949 284.2453,-518.8329 265.4952,-489.1084 248.6184,-456.3315 236.0036,-424.9429 228.0249,-383.7335 226.1643,-353.3234 226.3031,-331.0479 230.6177,-305.1131 238.4422,-273.9334 245.7543,-257.0649 253.8776,-239.6907 266.9234,-217.2912 280.0968,-201.4 292.2953,-190.4507 308.6752,-178.0632 325.6772,-165.4706 340.928,-156.5864 356.4427,-149.0597 370.8573,-143.0823 385.5265,-139.2822 401.2472,-135.625 420.1362,-132.8364 436.5015,-131.1283 454.2876,-129.5252 471.2973,-129.4555 488.8494,-129.6275 506.3151,-131.3062 526.4177,-134.1419 548.3835,-138.1728 564.6825,-142.237 585.5276,-149.3136 602.229,-157.2985 620.4587,-169.6149 636.9477,-181.8572 655.6474,-196.8988 673.6953,-222.3572 689.7763,-246.7176 699.2826,-264.9536 707.5871,-283.1832 715.1388,-312.5662 716.4366,-328.4321 716.4459,-350.2051 714.5233,-381.1429 706.3258,-422.9127 694.0275,-455.4944 676.7852,-490.1233 657.5023,-520.1666 634.4934,-544.7819 612.7822,-559.6308 591.4611,-571.4946 568.9718,-580.3306 547.1483,-588.3727 524.0859,-593.3948 505.5679,-596.6752 488.715,-598.7694 484.3069,-596.4119 475.8917,-608.0471 469.2364,-620.7047 460.2529,-633.7903 447.3416,-645.7318 427.3713,-658.1267 407.8091,-656.3131 389.5558,-653.7025 369.5256,-650.4025 350.5863,-645.7456 327.7971,-638.2083 308.5151,-630.9735 289.2273,-622.6704 268.9771,-610.6732 248.5355,-596.4222 231.6543,-579.4049 215.7021,-562.5497 201.9036,-546.5548 189.9542,-526.9873 180.2281,-504.1954 174.2445,-484.6076 167.5853,-454.3544 161.1095,-420.4892 159.4483,-382.9508 161.3363,-345.8141 166.9173,-304.1348 173.4228,-273.6787 180.2301,-244.6839 189.9913,-221.6493 201.7428,-201.3134 211.3278,-188.3395 223.4999,-173.289 239.9616,-155.6241 253.8706,-144.3169 270.0016,-134.0844 288.9242,-123.7667 309.0549,-115.0369 327.9829,-108.0143 350.5074,-100.6988 369.0889,-96.1629 389.0254,-92.8521 407.1655,-90.2536 428.1348,-88.3734 449.825,-87.411 471.4103,-86.9691 492.8104,-87.4941 514.7725,-88.5637 533.7389,-90.5974 551.9177,-93.2602 572.1666,-97.4112 590.7519,-101.9936 612.8242,-109.1933 634.0292,-116.2787 654.364,-125.143 674.3566,-136.4485 694.7565,-151.1922 712.1688,-168.7984 728.3688,-186.3293 741.1063,-202.2835 752.7949,-222.6363 762.4835,-245.6575 768.234,-265.8943 774.8006,-296.4321 780.8878,-330.4054 782.7226,-368.1301 777.731,-412.7608 772.1112,-454.0985 765.4092,-484.4123 758.2334,-513.5858 744.1342,-540.4938 730.6598,-556.3318 714.6964,-573.2086 697.4695,-590.4724 673.0998,-611.1687 652.4345,-623.2716 633.6238,-631.2817 614.3836,-638.4572 591.3308,-646.0178 572.3984,-650.6011 552.7772,-653.7913 534.2787,-656.4055 513.8172,-658.2036 501.4575,-657.5714 487.69,-669.1759 475.747,-681.2444 462.81,-692.2957 450.5717,-704.2117 431.1918,-716.6196 413.0953,-716.1558 393.1808,-715.0872 374.0385,-714.1044 353.7682,-712.152 331.9727,-709.138 311.4497,-706.0745 288.439,-701.526 268.0045,-697.0176 251.2813,-693.389 237.4173,-689.7669 221.9583,-684.7623 213.0625,-681.2335 198.9888,-674.8192 183.8635,-665.7288 167.9179,-655.5591 152.6392,-641.6254 135.8117,-624.2744 120.3183,-597.9345 106.2117,-563.5 94.3261,-526.9041 86.458,-484.4593 79.8746,-441.3048 79.4754,-401.0635 81.0874,-367.2037 84.8566,-330.7322 91.2905,-297.8057 97.8451,-267.5292 103.1784,-246.7251 111.5083,-222.7768 122.646,-198.9221 130.7325,-184.2834 139.3501,-168.9058 153.0778,-147.6897 165.6556,-133.9251 177.0997,-123.3119 193.1216,-111.2502 216.4067,-96.6119 234.9466,-87.2823 253.0549,-78.5014 273.9979,-71.2284 296.6487,-64.6837 312.941,-61.2067 334.8468,-57.1705 357.1536,-53.6066 378.9599,-51.0766 396.1616,-49.8404 417.8409,-48.4646 435.3815,-47.9119 453.457,-47.352 471.245,-47.3868 489.2675,-47.4148 507.3198,-48.0354 529.497,-49.4515 551.2725,-50.8963 574.1638,-53.4342 595.9658,-56.0118 617.8536,-59.522 635.1631,-62.8025 651.9911,-66.5003 668.6331,-71.7726 689.9603,-79.2827 707.6465,-87.8898 726.675,-97.5227 749.6716,-112.0247 765.7368,-124.2 777.05,-134.8068 789.9302,-149.0735 803.1312,-169.5912 811.6291,-184.6795 819.9586,-199.7698 831.1442,-223.7399 839.3988,-247.5077 844.6544,-267.9624 851.2089,-298.0722 857.7305,-331.3952 861.4538,-367.7149 862.7055,-408.9284 862.2864,-449.3326 859.0142,-486.1511 852.4623,-526.1925 844.9077,-555.8578 837.3102,-576.0101 824.274,-599.0843 809.9346,-619.1539 794.0224,-635.2069 777.828,-650.3334 758.5783,-665.9576 742.8224,-675.3449 729.1725,-681.489 720.1437,-685.027 704.7175,-689.9813 690.8786,-693.5744 674.4736,-697.1128 653.8544,-701.6446 630.6688,-706.2032 610.4217,-709.2039 588.4024,-712.2297 568.1101,-714.1594 549.318,-715.1101 529.1613,-716.1796 510.5984,-716.598 494.4926,-718.136 482.9188,-719.2974 479.6389,-717.457 471.4414,-728.8462 459.267,-720.0835 467.4646,-708.6943 480.7689,-704.4522 492.986,-703.2119 509.1723,-701.6659 528.8078,-701.1838 548.5208,-700.1313 567.3522,-699.1785 586.9769,-697.2976 608.3752,-694.3441 628.4695,-691.3653 650.9553,-686.9274 671.2524,-682.4627 687.7159,-678.9116 700.9413,-675.4644 715.5463,-670.7489 723.678,-667.5315 736.6575,-661.6703 750.865,-653.0928 768.3381,-638.717 783.7751,-624.2528 799.2789,-608.5967 812.0334,-590.4143 824.2393,-568.6515 830.8497,-550.626 837.9209,-522.5116 844.2094,-483.739 847.3446,-448.0129 847.7063,-408.7813 846.4608,-368.1725 842.8095,-332.9329 836.4908,-300.9668 829.9978,-271.1537 824.8716,-251.2442 816.9796,-228.6758 806.3753,-206.1333 798.5039,-191.9411 790.0616,-176.9523 777.32,-157.1965 765.9713,-144.9193 755.4939,-135.1583 740.6361,-123.998 718.6865,-110.2185 700.8926,-101.2832 683.397,-92.7706 663.6828,-85.9322 647.4637,-80.8008 631.9708,-77.4589 615.0628,-74.2601 593.5926,-70.8229 572.4071,-68.331 549.6197,-65.805 528.509,-64.4189 506.364,-63.0049 488.7549,-62.406 471.2251,-62.3868 453.4276,-62.352 435.8494,-62.9046 418.3134,-63.4572 397.1143,-64.8101 380.0353,-66.038 358.8873,-68.5061 337.2178,-71.9819 315.6604,-75.9581 299.7819,-79.3528 278.1735,-85.6355 257.9824,-92.669 241.5272,-100.7618 223.1496,-110.0109 201.1209,-123.9391 186.1373,-135.2836 175.8837,-144.8971 164.1645,-157.7934 151.978,-177.0012 143.8234,-191.6064 135.7759,-206.175 125.1041,-229.1135 117.3536,-251.6307 112.3798,-271.2365 105.9514,-300.9772 99.5783,-333.6082 96.0093,-368.7331 94.4587,-401.7719 94.8738,-441.1514 101.2825,-482.1712 109.0746,-524.1689 120.4702,-558.8423 134.1956,-592.2406 148.7213,-616.6361 163.3097,-631.083 178.0199,-644.4709 191.8505,-653.032 206.7146,-661.9618 219.2383,-667.5638 227.477,-670.8144 242.0235,-675.4916 255.0604,-678.8729 271.1797,-682.3575 291.6707,-686.8783 314.3573,-691.359 334.1812,-694.3014 355.8227,-697.2934 375.4719,-699.1731 393.944,-700.1066 413.8991,-701.1774 431.5737,-701.6245 441.6275,-692.17 452.3015,-681.5919 465.9925,-669.8492 477.0116,-658.6415 491.7709,-646.1185 512.8095,-643.2375 532.9644,-641.4632 550.6698,-638.9401 569.9901,-635.7957 587.7846,-631.443 609.6952,-624.2087 628.3784,-617.2288 646.5525,-609.473 665.4854,-598.2451 687.7186,-579.0741 704.0681,-562.6237 719.7613,-546.0254 732.7045,-530.7798 744.9025,-506.7091 750.8176,-480.9359 757.4648,-450.8609 762.8665,-410.7494 767.8154,-366.4636 765.9074,-331.1733 760.0404,-299.1038 753.5696,-269.0495 748.0579,-249.7687 738.9827,-228.4861 728.1169,-209.7852 716.6875,-195.7393 701.1598,-178.9866 684.0932,-161.7418 665.6219,-148.6429 647.0058,-138.2142 628.06,-130.0399 608.089,-123.4263 586.1004,-116.2542 568.5916,-111.9789 548.9094,-107.9554 531.5749,-105.4405 513.1775,-103.4787 492.0895,-102.4767 471.0439,-101.9646 450.1374,-102.4077 428.8011,-103.3586 408.5106,-105.1932 391.1609,-107.6993 371.5475,-110.96 354.0811,-115.2669 332.6289,-122.2767 314.2769,-129.0986 294.899,-137.5254 277.2013,-147.2436 261.9162,-156.9767 249.4581,-167.2351 234.5039,-183.4828 222.9994,-197.7616 213.8113,-210.2214 202.9943,-229.1275 194.0545,-250.505 188.0383,-277.0531 181.5864,-307.2677 176.2047,-347.7969 174.4295,-383.7021 176.0943,-419.8125 182.3118,-451.5029 188.8935,-481.3819 194.5684,-499.796 203.7402,-521.0759 214.6778,-538.6921 227.0125,-552.6971 242.5459,-569.0912 259.1837,-585.8574 277.4917,-598.3241 296.863,-609.7594 314.4042,-617.1779 333.0614,-624.1624 355.293,-631.5032 373.0897,-635.8321 391.9777,-638.8993 409.9316,-641.464 428.7489,-643.1901 438.425,-633.6697 450.0383,-622.8057 456.7628,-612.3734 462.5939,-601.1068 472.1079,-587.6835 487.5763,-583.8127 503.7105,-581.7906 521.4615,-578.6261 543.9532,-573.7169 563.7397,-566.2726 585.9752,-557.5338 605.4514,-546.5442 626.0111,-532.4105 646.4876,-509.9845 664.1345,-482.0634 680.5926,-448.8233 692.2864,-417.631 699.7969,-378.2909 701.4728,-349.3059 701.4366,-328.4481 700.1907,-313.8129 693.0729,-286.9699 685.6694,-271.2527 676.478,-253.6569 661.1884,-230.6383 643.4114,-205.5753 627.699,-193.6667 611.5184,-181.6595 593.8358,-169.7305 579.1213,-162.8768 559.8932,-156.4519 544.7762,-152.7326 523.7197,-148.8973 504.2246,-146.1598 487.4206,-144.5593 471.1747,-144.455 454.3497,-144.5251 437.8719,-146.0655 421.6939,-147.7553 403.4433,-150.4634 388.9488,-153.8866 374.6209,-157.6025 362.2577,-162.8867 347.4838,-170.0779 333.2437,-178.4224 317.6292,-190.0976 301.3434,-202.4146 290.135,-212.546 278.5102,-226.8173 266.8689,-247.1891 259.3519,-263.3977 252.2057,-279.8971 245.1782,-308.7174 241.1019,-333.4964 241.1642,-353.3507 242.9965,-382.81 250.7257,-422.0691 262.5132,-450.6804 278.8255,-482.2307 296.9256,-510.8198 317.7774,-533.2189 337.642,-546.6993 357.3715,-557.7366 378.8116,-566.1357 399.531,-573.8962 421.0777,-578.5867 432.9382,-568.8856 447.9364,-557.6284 455.3466,-546.3966 463.0433,-533.5583 471.9112,-518.8914 486.8008,-514.1234 501.7902,-510.364 520.4214,-503.9675 543.5064,-494.7661 562.9899,-481.6623 583.9764,-465.7897 598.6728,-449.5479 612.8614,-427.3541 622.5054,-403.4861 626.4365,-375.2388 627.7534,-345.3817 624.4899,-314.134 614.2354,-286.0382 604.0293,-261.1147 594.9762,-247.346 581.7772,-233.4581 570.0703,-223.917 561.5801,-220.3682 546.2405,-214.2925 527.669,-208.0253 511.151,-204.6325 492.4824,-201.9952 471.6892,-200.3443 453.9514,-201.0017 434.4157,-203.4359 417.6221,-206.9422 398.4198,-213.3205 383.1601,-219.3802 370.5698,-224.8676 359.9272,-234.0115 346.6135,-248.3079 338.537,-260.6127 329.0184,-275.443 319.4064,-299.4997 313.6807,-322.2192 313.9135,-347.1653 317.5468,-378.0257 326.8929,-412.2872 340.8113,-438.4835 358.7261,-463.3943 380.3109,-482.0577 400.2902,-495.2521 421.6661,-503.8658 432.8928,-490.1317 447.698,-473.683 459.5307,-453.6893 475.51,-430.6638 490.4633,-401.8202 504.8604,-382.3356 516.8221,-359.7764 519.8394,-336.8898 517.984,-313.9552 504.8685,-298.157 491.6775,-291.0323 473.9888,-288.9874 458.4953,-289.8045 440.9931,-293.0907 431.0038,-301.4562 420.6153,-318.7232 421.7862,-338.857 426.6446,-361.8797 434.722,-382.9533 443.3957,-399.3377 " stroke="none" fill="red" stroke-width="0" shape-rendering="crispEdges" />
<polygon points="-471.95,475.7032 -474.1796,460.8698 -493.2852,464.9141 -504.2664,460.0943 -516.5279,453.9914 -527.7061,448.4218 -538.3429,437.049 -550.1118,420.2505 -557.6704,403.4575 -564.0647,375.7382 -566.8851,343.9114 -563.711,314.0446 -556.0008,288.4035 -545.2943,263.3706 -532.4006,248.0623 -523.6632,238.8863 -509.5329,231.7785 -497.1344,226.6252 -487.274,224.7763 -471.2771,224.5865 -456.37,224.5666 -446.6061,226.1139 -433.229,231.342 -420.4973,237.1635 -410.2715,247.1893 -398.039,261.1911 -386.6345,287.2249 -378.9324,312.4857 -375.5064,342.393 -378.1301,374.4349 -385.1651,402.5177 -397.1889,422.9793 -409.947,440.4402 -425.0619,452.8771 -440.1749,460.184 -458.9013,470.6457 -468.2143,506.1552 -480.8345,541.5861 -491.1399,574.9055 -502.9883,606.9729 -510.1956,634.7123 -530.7714,630.6278 -548.783,626.3219 -571.368,617.8029 -590.2332,609.4873 -605.458,602.0772 -615.5201,596.4021 -630.2819,583.2952 -641.0772,569.3046 -655.7609,541.8798 -671.032,512.4482 -685.1765,484.5462 -692.8059,461.0458 -698.5188,431.7066 -700.3986,413.6621 -700.7927,387.3163 -700.8242,358.0766 -700.2943,332.1604 -694.7513,302.653 -686.5705,270.5977 -672.4425,240.107 -657.0405,211.0889 -642.4298,184.0386 -631.3079,170.0006 -616.7241,157.1435 -606.1354,150.8685 -590.7491,144.0206 -571.5481,136.5234 -549.7898,129.2343 -530.5289,124.9948 -509.7691,121.0928 -490.4537,119.3783 -471.3782,118.8872 -452.4002,119.254 -432.964,120.8551 -414.9854,123.1331 -395.7592,127.2883 -379.1932,131.4502 -360.6086,138.4243 -345.5336,144.91 -333.5096,150.8335 -325.4301,156.0173 -312.1028,168.429 -300.8805,182.3318 -285.6117,210.4824 -270.2358,239.5693 -256.4382,266.6405 -248.8353,289.296 -243.5058,317.1551 -241.9625,332.7874 -241.6913,358.1303 -241.8704,387.3754 -243.0033,415.075 -248.5686,446.053 -256.8976,479.9351 -271.5152,512.3385 -286.7401,541.7092 -300.7268,567.9738 -311.2483,581.9592 -325.7432,595.2497 -336.6057,601.689 -352.0469,609.2635 -370.7853,617.5645 -392.8097,625.9569 -411.9569,630.6254 -432.5731,636.4134 -448.1917,640.0576 -460.9811,642.9428 -473.465,646.9902 -468.8389,661.259 -456.3551,657.2117 -444.9278,654.6982 -429.1652,651.0212 -407.9073,645.0684 -389.2598,640.5308 -365.4778,631.5941 -345.979,622.9814 -330.0041,615.1582 -318.1173,608.1666 -301.1962,593.0928 -288.8058,577.0782 -273.523,548.8022 -258.1982,519.242 -243.2264,486.1075 -234.0147,449.6841 -228.241,417.7351 -226.8844,388.0253 -226.6916,358.2248 -226.9634,332.6275 -228.5758,315.7077 -234.0993,286.4938 -242.2044,261.9077 -256.8533,232.7937 -272.3503,203.4728 -287.695,175.1803 -300.3703,159.083 -315.1606,145.084 -325.2642,138.303 -338.8505,131.4811 -354.671,124.6495 -373.9171,117.4087 -392.0653,112.7502 -411.8131,108.4724 -431.056,105.9769 -451.1629,104.3051 -471.0768,103.8903 -490.8337,104.3831 -511.0841,106.1505 -533.2755,110.2484 -553.0114,114.5844 -576.2873,122.2918 -596.1984,130.0454 -612.228,137.1616 -624.3212,144.2096 -641.1533,158.6839 -654.125,174.6459 -670.211,203.9098 -685.6918,233.0744 -700.1784,264.2871 -709.2716,298.8901 -715.0349,329.3827 -715.8197,357.7132 -715.7927,387.3312 -715.397,413.886 -713.4405,433.2373 -707.5322,463.8981 -699.4537,489.1466 -684.4304,519.1923 -669.0754,548.788 -654.3012,576.3846 -642.2071,592.394 -625.5529,607.553 -613.0046,615.0406 -596.8135,622.9669 -577.4219,631.527 -554.0833,640.3542 -534.304,645.2059 -513.1208,649.4243 -489.4893,613.5133 -477.0749,580.1185 -466.5057,546.0229 -454.0848,511.1908 -444.3948,474.4618 -434.8581,474.2101 -418.5552,466.3924 -400.5333,452.1185 -385.1739,431.9594 -372.2468,410.1413 -363.6166,378.2241 -360.5606,343.6676 -364.022,310.8485 -372.2663,282.9174 -384.2882,255.1983 -398.8104,237.5124 -409.9723,226.4759 -426.6195,217.8767 -441.1215,212.1526 -453.7946,209.7894 -471.1922,209.5867 -487.4508,209.7773 -499.7516,211.8553 -515.125,217.8599 -530.3822,225.4753 -542.9556,237.4044 -556.7527,253.6905 -569.7254,282.3508 -578.0668,309.6957 -581.7943,342.2633 -579.0118,376.9964 -572.2953,406.7914 -563.8354,426.3053 -550.6839,445.5755 -538.7111,458.6144 -523.6467,467.1945 -510.9541,473.521 -499.3236,478.645 " stroke="none" fill="red" stroke-width="0" shape-rendering="crispEdges" />
<polygon points="-468.9892,30.9803 -467.3061,45.8856 -439.1332,42.6151 -427.521,43.0973 -412.2845,43.5521 -392.8588,44.7273 -373.9911,45.7409 -354.9997,47.903 -333.6003,51.5465 -314.4406,55.1257 -291.6584,60.9106 -271.8765,66.7251 -254.9283,72.1078 -238.2791,79.5829 -217.6409,93.5313 -201.4753,107.0306 -185.1457,120.9128 -170.0027,135.3182 -157.3539,150.2793 -147.2839,165.4084 -138.0933,180.0571 -127.9671,196.8793 -116.4987,215.8808 -105.0762,235.0714 -92.6009,248.1633 -73.8306,260.2596 -53.2448,259.732 -32.8287,250.9547 -9.9661,227.6986 9.8506,202.9401 25.6633,178.3696 39.4663,155.6118 54.5471,133.376 67.7368,118.7295 83.8806,103.0271 99.4291,88.4559 118.811,76.5348 136.6426,67.5105 155.0444,60.2766 174.8529,54.673 196.4883,47.9354 217.125,44.312 237.1752,39.9302 258.3326,37.5292 277.676,34.5757 295.472,32.5664 314.1735,30.5731 331.8775,29.2259 349.9835,27.89 371.4554,27.1535 392.8853,26.6824 414.4934,26.196 436.0371,25.9279 453.6078,25.7156 471.1833,25.5288 488.8558,25.6493 506.4353,25.8018 527.9369,26.0081 549.623,26.4384 570.9921,26.8669 592.5737,27.5685 613.474,28.2466 631.3453,29.5784 651.8064,30.5988 669.8666,32.6028 689.6195,34.0982 708.0022,37.1013 726.8009,39.2834 745.5215,43.835 762.8773,47.064 781.9873,54.0879 797.7846,59.2472 812.9306,66.7637 826.5783,73.704 839.4162,83.0233 850.4876,91.0397 865.0639,106.5463 877.4469,120.0465 887.2519,132.5053 902.647,155.2901 914.1544,175.6698 921.9352,189.1989 929.2201,202.4736 935.896,214.693 949.0596,207.5014 942.3837,195.2819 935.0852,181.9824 927.158,168.1928 915.7087,147.915 899.6879,124.1181 889.2458,110.7844 876.1298,96.4199 861.4174,80.7664 848.3215,70.9528 835.3903,61.5653 819.8051,53.4318 804.4535,45.8112 786.7076,39.8499 768.0549,32.9858 748.3479,29.1037 730.3516,24.7097 709.7747,22.2064 692.0437,19.2954 671.0195,17.6472 653.4643,15.6907 632.1024,14.5975 614.5905,13.2882 593.0648,12.5766 571.4794,11.8749 549.9241,11.4414 528.2345,11.011 506.5795,10.8025 488.986,10.6499 471.2856,10.5291 453.4493,10.7164 435.8558,10.929 414.3068,11.1971 392.548,11.6862 371.1257,12.1571 349.4697,12.8988 330.7785,14.2662 313.0354,15.6163 293.8849,17.6505 275.9932,19.6703 256.0728,22.7004 235.4877,25.0255 213.9495,29.652 193.8985,33.1607 170.4303,40.3398 150.9628,45.8426 131.1797,53.5406 112.0599,63.1399 91.5852,75.6702 73.6975,92.0133 57.2794,107.9757 43.4088,123.3292 27.0737,147.1606 12.841,170.5857 -2.7623,194.8214 -21.6648,218.3102 -43.5129,240.4263 -58.7713,245.7872 -73.8306,245.2596 -83.6585,236.1204 -94.1499,224.7944 -103.5439,208.3196 -115.1246,189.1288 -125.242,172.3212 -134.5771,157.4374 -144.8658,141.9699 -158.5245,125.6615 -174.7841,110.0668 -191.7531,95.6079 -208.0261,82.0179 -229.8611,67.1677 -248.7054,58.4595 -267.2946,52.4421 -287.4268,46.5199 -310.7457,40.5879 -330.8345,36.8037 -352.4813,33.1159 -372.2856,30.8381 -392.0437,29.7495 -411.3786,28.5795 -427.07,28.1041 -438.5103,27.6281 " stroke="none" fill="red" stroke-width="0" shape-rendering="crispEdges" />
<polygon points="-936.5556,206.4953 -948.4,215.6991 -926.813,243.2154 -916.5078,251.7897 -899.3462,260.6929 -878.0938,260.0008 -857.794,250.0078 -835.7235,226.3359 -815.56,200.7545 -797.9572,174.1389 -779.446,148.9519 -758.3261,123.7201 -740.9035,108.0635 -725.3722,94.9382 -705.0087,80.8959 -688.2051,73.0828 -671.2095,67.6449 -652.6019,62.8972 -630.1583,57.1195 -610.7871,54.0781 -589.5808,50.3876 -570.2046,48.0902 -549.8822,45.8144 -530.5043,44.5538 -510.7107,43.2973 -489.1304,40.2902 -476.3414,26.1432 -464.2436,12.108 -452.2206,-1.9136 -440.6974,-15.3995 -430.4932,-27.7682 -411.2591,-28.3609 -391.9753,-29.6619 -372.2471,-30.8816 -352.9979,-33.2134 -333.7291,-35.2446 -314.2499,-38.9774 -295.6886,-42.1967 -275.7282,-48.0805 -258.9659,-52.9845 -243.9249,-58.7455 -228.7712,-65.4714 -214.7761,-73.7183 -201.8006,-82.2466 -186.5303,-95.7715 -171.2414,-109.5341 -159.8527,-122.1693 -146.0107,-138.6538 -134.6045,-157.3319 -125.2315,-172.1132 -115.0041,-188.9048 -103.3518,-207.985 -94.0108,-224.2096 -83.3727,-235.4191 -73.5414,-244.4079 -58.7667,-244.9477 -43.3138,-239.2907 -25.5966,-222.8419 -7.6444,-200.7045 8.1333,-176.2134 20.5918,-157.5752 36.5587,-134.1096 50.929,-115.4688 64.4426,-100.3075 79.2281,-84.6665 93.9183,-70.3846 107.7256,-60.5601 122.4932,-53.0015 138.9195,-44.9863 155.5157,-39.5927 175.5689,-32.4323 194.2617,-28.9386 215.0437,-25.4214 234.8029,-23.143 255.9496,-20.8524 276.0865,-19.3543 293.9613,-17.4018 313.0673,-15.4337 330.8071,-14.1348 349.3607,-12.8299 367.1987,-12.0051 388.589,-11.6298 406.3584,-11.2019 427.9056,-11.0656 449.5974,-10.918 471.2344,-10.9682 492.9294,-10.9866 514.6848,-11.2039 532.5535,-11.6706 550.35,-12.1439 568.4789,-12.9877 586.3025,-13.8487 604.55,-15.171 626.3695,-16.2595 645.077,-18.2323 666.2487,-19.7956 686.8413,-21.3716 707.7387,-23.6834 727.7856,-26.0386 749.0357,-29.7468 771.9217,-36.7423 791.0124,-43.6815 811.2755,-51.666 831.0415,-63.1313 852.176,-76.1988 869.0726,-91.7065 885.7726,-107.8666 899.9137,-123.6407 915.9434,-146.9962 927.3493,-166.833 935.2885,-180.3251 942.5152,-193.2704 949.0334,-204.9988 935.9222,-212.2855 929.404,-200.5571 922.1912,-187.6366 914.4224,-174.4418 902.9399,-154.4733 887.5537,-132.1395 874.6343,-117.9135 858.6499,-102.4938 842.0345,-87.2509 823.2257,-75.9341 803.7503,-64.6419 785.5704,-57.6595 766.7989,-50.8404 744.657,-44.0934 725.248,-40.8224 705.9964,-38.5819 685.1921,-36.2807 665.1072,-34.7521 643.9725,-33.1915 624.7993,-31.1771 603.8106,-30.1528 585.22,-28.8096 567.7571,-27.9704 549.6526,-27.1277 532.156,-26.6654 514.2931,-26.1988 492.7803,-25.9859 471.2219,-25.9682 449.5626,-25.918 428.0078,-26.0653 406.4533,-26.2016 388.9511,-26.6254 367.4619,-27.0027 350.0562,-27.8137 331.8612,-29.0977 314.1627,-30.3936 295.5009,-32.3226 277.7154,-34.2656 257.0657,-35.8108 236.4212,-38.0554 216.7621,-40.3227 196.7722,-43.727 178.3255,-47.1768 160.6256,-53.6955 143.559,-59.2508 129.128,-66.4543 114.5607,-73.9123 102.6756,-82.5629 89.7295,-95.3772 75.3458,-110.609 62.1282,-125.4477 48.446,-143.258 32.997,-166.0079 20.604,-184.5491 4.9657,-208.8276 -13.9317,-232.2722 -33.0749,-250.2526 -53.179,-258.8682 -73.5414,-259.4079 -92.2314,-247.5239 -104.8164,-234.6134 -116.2693,-215.6098 -127.8054,-196.7232 -138.0423,-179.916 -147.2718,-165.3657 -158.812,-146.4721 -171.2999,-131.8627 -182.3812,-119.5792 -196.5429,-106.9405 -211.7459,-93.4756 -222.9479,-86.2969 -236.3806,-78.398 -249.9674,-72.4746 -264.3231,-66.9953 -279.9193,-62.4831 -299.9298,-56.5846 -316.7725,-53.7637 -336.551,-49.9768 -354.5493,-48.1329 -374.0502,-45.7728 -392.8909,-44.6339 -412.2687,-43.3269 -430.9512,-42.7612 -451.0452,-26.2588 -463.6038,-11.682 -475.6306,2.3439 -487.7032,16.3498 -500.2565,30.2299 -511.2097,28.3056 -531.452,29.5837 -550.856,30.8461 -571.8681,33.1827 -591.3469,35.4919 -613.3515,39.2989 -632.4843,42.301 -656.3203,48.3654 -674.918,53.1106 -692.7658,58.7929 -711.2911,67.2749 -733.8352,82.5536 -750.5643,96.5888 -768.3504,112.5615 -790.9269,139.2985 -810.0395,165.2496 -828.0689,192.4763 -847.4965,217.0409 -868.757,239.7701 -884.3874,246.3849 -899.3462,245.6929 -908.8957,238.8647 -917.1266,231.7623 " stroke="none" fill="red" stroke-width="0" shape-rendering="crispEdges" />
<polygon points="-947.8782,-213.8466 -937.0774,-203.4377 -894.1066,-254.5801 -885.6079,-251.5023 -874.1462,-244.4766 -860.9943,-234.793 -850.25,-223.9051 -839.9531,-206.3843 -828.4974,-187.5148 -816.7556,-169.3314 -804.4345,-152.0262 -788.1117,-130.0565 -768.9643,-110.107 -750.5581,-93.7242 -733.6386,-80.0142 -711.7475,-65.7249 -693.1766,-57.5415 -674.5357,-51.6179 -655.8441,-47.0027 -632.184,-41.0946 -612.9618,-38.178 -591.1047,-34.4761 -571.7087,-32.238 -550.8162,-29.9793 -531.4802,-28.777 -511.0184,-27.5686 -494.4336,-27.7834 -481.5702,-28.3841 -471.7591,-29.1854 -466.2704,-30.5839 -469.9742,-45.1195 -475.4629,-43.7209 -482.6063,-43.3483 -495.131,-42.7672 -511.2088,-42.5674 -530.5815,-43.75 -549.8853,-44.9504 -570.0908,-47.1505 -589.3852,-49.3772 -610.4498,-52.9662 -629.933,-55.9247 -652.1897,-61.5507 -670.9399,-66.1805 -688.6218,-71.8332 -705.669,-79.4381 -725.3907,-92.5431 -741.0943,-105.362 -758.988,-121.3085 -777.281,-140.4341 -792.3742,-160.9452 -804.5358,-178.0307 -815.8934,-195.6473 -827.13,-214.1669 -837.3176,-231.5047 -850.1776,-245.1853 -865.1778,-256.5002 -877.7407,-264.2737 -888.7896,-268.6061 " stroke="none" fill="red" stroke-width="0" shape-rendering="crispEdges" />
<polygon points="-473.3402,-461.2217 -474.0668,-476.2041 -513.6148,-473.4799 -523.3872,-467.9313 -534.6942,-460.8714 -549.2853,-447.2942 -564.3618,-426.908 -572.8006,-407.7239 -579.6558,-377.7699 -582.5446,-342.5548 -578.739,-309.4643 -570.3871,-281.9449 -557.6,-252.8576 -543.634,-236.3971 -530.9118,-224.4981 -515.7349,-217.1409 -499.4856,-211.1707 -481.3583,-209.9879 -464.632,-209.8467 -443.8581,-211.5349 -425.3573,-219.6917 -401.5351,-239.3145 -386.5227,-268.0181 -371.8316,-300.4864 -362.8288,-338.9959 -363.067,-378.9384 -371.6465,-410.9247 -384.6568,-432.5094 -400.1803,-452.7963 -418.2714,-467.0384 -434.5262,-474.6655 -444.2865,-474.7648 -452.5319,-510.7811 -460.3767,-546.0353 -467.7621,-580.1357 -475.8605,-614.2103 -495.5794,-651.9031 -512.7348,-649.9825 -532.5798,-647.1705 -551.6624,-642.5634 -570.4119,-637.3112 -589.5424,-628.9624 -605.7946,-621.0857 -619.7745,-612.6873 -636.0925,-598.0819 -653.9196,-577.7665 -669.3202,-549.074 -684.8048,-519.3229 -700.2424,-488.9435 -708.36,-464.8811 -714.27,-434.1284 -715.9321,-415.3741 -716.1814,-386.6883 -716.268,-356.9608 -715.9007,-327.7657 -710.2081,-297.2354 -700.8967,-262.3218 -685.9724,-232.4743 -670.3468,-203.0017 -653.9684,-172.7108 -641.1029,-156.6776 -624.0546,-142.2584 -612.5637,-136.1177 -596.5721,-129.1802 -576.6633,-121.4945 -552.9601,-113.6121 -533.2958,-109.33 -511.2212,-105.3269 -490.9139,-103.6388 -471.0567,-103.2216 -451.114,-103.7518 -430.9166,-105.5472 -411.6698,-108.1787 -391.986,-112.5819 -373.8618,-117.3496 -354.6385,-124.679 -338.26,-132.063 -322.9653,-141.0203 -306.7521,-155.1711 -288.3607,-174.809 -272.1443,-203.9087 -256.5937,-233.1711 -241.9834,-261.9903 -233.8566,-285.8261 -228.2766,-314.9432 -226.7115,-331.6268 -226.4949,-358.1878 -226.6524,-388.2977 -229.3515,-426.1814 -234.9995,-458.0272 -242.3145,-492.1144 -250.3519,-516.5499 -261.2398,-542.8028 -274.5764,-562.7961 -285.9333,-577.981 -296.6365,-590.373 -313.2738,-605.159 -329.8081,-615.7955 -345.7636,-623.5294 -365.2622,-632.1144 -389.3036,-641.1594 -407.7894,-645.6203 -427.5757,-651.4549 -441.9343,-655.0478 -451.7159,-657.3646 -461.5115,-661.2946 -467.0968,-647.3732 -457.3012,-643.4432 -445.5002,-640.4778 -431.2169,-636.9036 -412.0365,-631.2341 -392.8295,-626.5797 -370.576,-618.0872 -351.8149,-609.8041 -336.3545,-602.2994 -321.4254,-592.5673 -306.6467,-579.2019 -297.3239,-568.2213 -286.5965,-553.8229 -273.722,-534.4845 -264.2375,-510.8765 -256.5669,-487.438 -249.6695,-454.8979 -244.1213,-423.564 -241.6156,-387.2481 -241.4948,-358.1173 -241.711,-331.7494 -243.2087,-316.3696 -248.5853,-288.6663 -256.1665,-266.8729 -269.9572,-239.984 -285.3898,-210.9483 -301.4632,-182.1114 -317.609,-165.5213 -332.8117,-152.3362 -345.7372,-145.0665 -360.7747,-138.3665 -379.1972,-131.3687 -395.7678,-127.0974 -414.941,-122.8176 -432.9276,-120.4118 -452.4363,-118.6934 -471.4444,-118.2166 -490.5925,-118.6354 -509.9679,-120.2744 -530.596,-124.085 -549.7654,-128.2679 -571.905,-135.7197 -591.1647,-143.1717 -606.589,-149.8764 -616.9586,-155.4738 -631.3262,-168.0537 -642.207,-182.0204 -657.1278,-210.091 -672.7197,-239.5005 -687.48,-269.0294 -695.6977,-301.0362 -701.1531,-330.5058 -701.2685,-357.0905 -701.1814,-386.6443 -700.9327,-415.2436 -699.3303,-432.7847 -693.6331,-462.0321 -686.0427,-484.1093 -671.4479,-512.497 -656.0146,-542.1487 -640.7033,-570.6723 -624.8939,-588.1023 -609.7959,-601.4878 -598.1831,-608.1604 -583.0194,-615.455 -564.4159,-623.5617 -547.6723,-628.1039 -529.0625,-632.5887 -510.6569,-635.1271 -493.913,-636.996 -489.97,-609.1187 -482.3604,-576.6877 -475.0369,-542.8608 -467.1737,-507.523 -458.9083,-471.4175 -439.822,-460.6315 -424.661,-453.4673 -409.5647,-441.0945 -396.6527,-423.5039 -384.5055,-403.2015 -377.5905,-375.1878 -377.8288,-338.9959 -386.4198,-303.977 -400.1643,-274.2556 -414.8246,-246.2707 -434.6467,-231.4691 -449.7303,-225.3377 -465.5352,-224.8195 -481.2152,-224.9873 -498.4992,-226.1382 -510.2786,-231.1133 -524.3492,-237.9863 -533.1491,-247.124 -546.1471,-262.5442 -556.5933,-287.838 -564.3786,-313.7976 -567.6365,-344.213 -564.7112,-376.4824 -558.1868,-404.3419 -550.6722,-420.7766 -537.2907,-438.287 -524.5456,-449.8257 -515.5799,-455.1232 -506.2129,-460.4335 " stroke="none" fill="red" stroke-width="0" shape-rendering="crispEdges" />
<line x1="942.4778" y1="750" x2="942.4778" y2="-750" stroke="red" stroke-width="0.1"/>
<line x1="942.4778" y1="-750" x2="-903.2079" y2="-750" stroke="red" stroke-width="0.1"/>
<line x1="-903.2079" y1="-750" x2="-903.2079" y2="750" stroke="red" stroke-width="0.1"/>
<line x1="-903.2079" y1="750" x2="942.4778" y2="750" stroke="red" stroke-width="0.1"/>
"/>
</svg>