<!DOCTYPE svg PUBLIC "-//W3C//DTD SVG 1.1//EN" "http://www.w3.org/Graphics/SVG/1.1/DTD/svg11.dtd">
<svg xmlns="http://www.w3.org/2000/svg" version="1.200000" width="-1861.3936mm" height="-5mm" xmlns:xlink="http://www.w3.org/1999/xlink">
<polygon points="458.9557,-2.0799 458.9557,-2.0299 458.9557,-2.0799 451.2944,-2.0777 444.3263,-2.0752 432.7016,-2.0693 421.0211,-2.0632 411.5105,-2.0574 400.523,-2.0447 389.5399,-2.0287 382.6705,-2.0106 374.9202,-1.9857 367.9934,-1.9548 366.0691,-1.9258 366.2983,-1.8615 366.5305,-1.8978 368.6292,-1.8702 369.8075,-1.8629 374.9206,-1.8857 382.6708,-1.9106 389.5401,-1.9287 400.5232,-1.9447 411.5105,-1.9574 421.0212,-1.9632 432.7017,-1.9693 444.3263,-1.9752 451.2945,-1.9777 458.9557,-1.9799 478.3171,-1.9817 485.0801,-1.9807 494.5049,-1.9787 505.3207,-1.9759 517.0921,-1.9711 526.9394,-1.9662 535.8584,-1.9607 544.185,-1.9534 552.2187,-1.9448 558.578,-1.9352 566.1808,-1.9216 573.1286,-1.9066 578.9391,-1.8863 582.5593,-1.8716 585.8334,-1.8917 587.597,-1.9063 587.0345,-1.9497 583.8017,-1.9666 578.9395,-1.9863 573.129,-2.0066 566.181,-2.0216 558.5782,-2.0352 552.2189,-2.0448 544.1851,-2.0534 535.8585,-2.0607 526.9394,-2.0662 517.0921,-2.0711 505.3207,-2.0759 494.5049,-2.0787 485.0801,-2.0807 478.3171,-2.0817 NaN,NaN 588.4548,-1.8401 587.7704,-1.8929 587.0335,-1.8497 583.8012,-1.8666 582.5593,-1.8716 581.7074,-1.8663 576.828,-1.8393 567.729,-1.8037 559.2839,-1.7781 551.9449,-1.7587 541.7841,-1.7392 528.5668,-1.7187 518.8163,-1.7079 504.9988,-1.6969 491.328,-1.6864 478.1398,-1.6833 467.7952,-1.6838 455.8117,-1.6878 446.0672,-1.6947 435.5543,-1.7036 426.8083,-1.7135 418.1307,-1.7251 411.2647,-1.7353 404.879,-1.748 397.6305,-1.7634 391.9852,-1.7778 386.5257,-1.7925 380.7126,-1.8112 375.7498,-1.8282 372.3615,-1.8471 369.8075,-1.8629 367.9938,-1.8548 366.4072,-1.8309 366.5244,-1.798 368.6279,-1.7702 372.3609,-1.7471 375.7493,-1.7282 380.7122,-1.7112 386.5253,-1.6925 391.9849,-1.6778 397.6303,-1.6634 404.8788,-1.648 411.2645,-1.6353 418.1305,-1.6251 426.8081,-1.6135 435.5542,-1.6036 446.0672,-1.5947 455.8116,-1.5878 467.7952,-1.5838 478.1398,-1.5833 491.328,-1.5864 504.9989,-1.5969 518.8164,-1.6079 528.5669,-1.6187 541.7843,-1.6392 551.9451,-1.6587 559.2841,-1.6781 567.7293,-1.7037 576.8283,-1.7393 581.7079,-1.7663 585.834,-1.7917 588.3862,-1.8128 NaN,NaN 458.9557,-1.9799 458.9557,-1.9799 458.9557,-2.0299 NaN,NaN 366.0706,-1.8258 366.4072,-1.8309 366.2983,-1.8615 NaN,NaN 588.3853,-1.9128 588.4122,-1.9305 588.0643,-1.9101 NaN,NaN 587.597,-1.9063 587.7704,-1.8929 588.0643,-1.9101 " stroke="none" fill="blue" stroke-width="0" shape-rendering="crispEdges" />
<polygon points="-417.0226,-2.05 -417.0226,-2 -417.0226,-2.05 -419.5687,-2.0517 -424.804,-2.0541 -430.9349,-2.0567 -440.6575,-2.0597 -450.3731,-2.062 -463.6391,-2.0634 -473.9595,-2.0632 -487.9292,-2.0605 -498.4746,-2.0574 -507.9935,-2.0541 -518.2895,-2.0458 -531.0588,-2.0311 -540.6511,-2.0105 -550.5941,-1.9856 -560.3024,-1.9599 -565.0149,-1.9349 -565.8453,-1.9113 -565.5417,-1.8526 -565.2376,-1.8944 -562.26,-1.8759 -559.6556,-1.8616 -550.5939,-1.8856 -540.6509,-1.9105 -531.0587,-1.9311 -518.2894,-1.9458 -507.9935,-1.9541 -498.4746,-1.9574 -487.9291,-1.9605 -473.9595,-1.9632 -463.6391,-1.9634 -450.3731,-1.962 -440.6576,-1.9597 -430.9349,-1.9567 -424.8041,-1.9541 -419.5688,-1.9517 -417.0227,-1.95 -400.9997,-1.9329 -395.4027,-1.9239 -389.5638,-1.9144 -383.4913,-1.9042 -376.9933,-1.8874 -372.9187,-1.8716 -370.1976,-1.8917 -370.6059,-1.9472 -372.2521,-1.969 -376.993,-1.9874 -383.4911,-2.0042 -389.5636,-2.0144 -395.4025,-2.0239 -400.9996,-2.0329 NaN,NaN -369.6826,-1.8217 -370.1456,-1.8846 -370.6087,-1.8473 -372.2535,-1.869 -372.9187,-1.8716 -374.1829,-1.8622 -381.1307,-1.8317 -391.4326,-1.8023 -402.0208,-1.7763 -411.977,-1.7546 -423.8782,-1.7375 -435.1512,-1.7256 -445.3442,-1.7202 -456.516,-1.7166 -470.1218,-1.7145 -480.4769,-1.7166 -491.6257,-1.7215 -500.6506,-1.728 -508.3283,-1.7342 -515.3278,-1.7441 -523.8222,-1.7573 -530.0037,-1.7689 -535.8469,-1.7804 -542.8111,-1.7978 -549.344,-1.8164 -553.5177,-1.8321 -557.901,-1.852 -559.6556,-1.8616 -560.3021,-1.8599 -565.0144,-1.8349 -565.3939,-1.8241 -565.2404,-1.7944 -562.2606,-1.776 -557.9015,-1.752 -553.5181,-1.7321 -549.3443,-1.7164 -542.8114,-1.6978 -535.8471,-1.6804 -530.0039,-1.6689 -523.8223,-1.6573 -515.3279,-1.6441 -508.3285,-1.6342 -500.6507,-1.628 -491.6257,-1.6215 -480.4769,-1.6166 -470.1218,-1.6145 -456.516,-1.6166 -445.3442,-1.6202 -435.1511,-1.6256 -423.8781,-1.6375 -411.9768,-1.6546 -402.0206,-1.6763 -391.4324,-1.7023 -381.1304,-1.7317 -374.1825,-1.7622 -370.1607,-1.792 NaN,NaN -417.0227,-1.95 -417.0227,-1.95 -417.0226,-2 NaN,NaN -565.8425,-1.8113 -565.3939,-1.8241 -565.5417,-1.8526 NaN,NaN -370.1614,-1.892 -370.1976,-1.8917 -370.1456,-1.8846 -369.6888,-1.9215 " stroke="none" fill="blue" stroke-width="0" shape-rendering="crispEdges" />
<polygon points="59.9644,1.075 59.9643,1.125 59.9643,1.075 55.6681,1.0694 50.5062,1.0638 43.2257,1.0562 34.328,1.048 24.0633,1.0408 13.4411,1.0348 1.8978,1.0316 -9.3766,1.0316 -21.8966,1.0341 -35.7432,1.0428 -48.683,1.0517 -58.4147,1.0605 -68.0617,1.0736 -77.0886,1.0918 -81.5162,1.116 -85.6035,1.1415 -87.5339,1.1724 -86.4974,1.2383 -85.4605,1.2042 -82.4038,1.2216 -81.5157,1.216 -77.0884,1.1918 -68.0616,1.1736 -58.4146,1.1605 -48.6829,1.1517 -35.7431,1.1428 -21.8966,1.1341 -9.3766,1.1316 1.8978,1.1316 13.441,1.1348 24.0632,1.1408 34.3279,1.148 43.2256,1.1562 50.5061,1.1638 55.668,1.1694 59.9642,1.175 68.4107,1.1995 71.4413,1.209 71.5594,1.2097 73.5404,1.2014 76.4387,1.1791 74.3185,1.1264 71.4419,1.109 68.411,1.0995 NaN,NaN 77.217,1.1984 77.1217,1.1961 77.117,1.1984 74.3177,1.2264 71.5594,1.2097 66.9122,1.2294 58.704,1.2512 47.5451,1.2711 34.9138,1.286 23.3336,1.2951 10.6378,1.3007 -1.7652,1.3046 -13.7843,1.3041 -24.7149,1.3011 -35.591,1.2958 -46.3317,1.2871 -55.7033,1.2785 -62.5338,1.2714 -69.4829,1.2594 -76.8312,1.243 -81.0934,1.229 -82.4038,1.2216 -85.6029,1.2415 -86.2776,1.2523 -85.462,1.3041 -81.094,1.329 -76.8315,1.343 -69.4832,1.3594 -62.5339,1.3714 -55.7034,1.3785 -46.3318,1.3871 -35.5911,1.3958 -24.7149,1.4011 -13.7843,1.4041 -1.7652,1.4046 10.6378,1.4007 23.3336,1.3951 34.9139,1.386 47.5453,1.3711 58.7041,1.3512 66.9124,1.3294 73.5408,1.3014 77.1673,1.2735 NaN,NaN 59.9642,1.175 59.9641,1.175 59.9643,1.125 NaN,NaN -87.5323,1.2724 -86.2776,1.2523 -86.4974,1.2383 NaN,NaN 77.1666,1.1735 76.4387,1.1791 77.1217,1.1961 " stroke="none" fill="blue" stroke-width="0" shape-rendering="crispEdges" />
<polygon points="-880.8594,1.075 -880.8597,1.175 -873.3198,1.1964 -870.1038,1.2065 -869.4607,1.21 -867.3819,1.2015 -864.6446,1.1788 -867.0194,1.1233 -870.1033,1.1065 -873.3195,1.0964 NaN,NaN -863.9155,1.1958 -864.0106,1.1936 -864.0155,1.1958 -867.0201,1.2233 -869.4607,1.21 -874.3806,1.2301 -883.1847,1.2534 -894.7341,1.2735 -907.3968,1.2873 -919.3791,1.2964 -928.8038,1.302 -936.291,1.3059 -941.0034,1.3075 -942.4778,1.308 -942.4778,1.408 -941.0034,1.4075 -936.291,1.4059 -928.8038,1.402 -919.379,1.3964 -907.3967,1.3873 -894.734,1.3735 -883.1845,1.3534 -874.3803,1.3301 -867.3815,1.3015 -863.965,1.2732 NaN,NaN -863.9659,1.1732 -864.6446,1.1788 -864.0106,1.1936 " stroke="none" fill="blue" stroke-width="0" shape-rendering="crispEdges" />
<polygon points="942.4778,1.408 942.4778,1.308 911.7108,1.2989 905.682,1.2941 896.9167,1.2859 887.777,1.2768 880.845,1.2688 874.1338,1.2566 867.1249,1.2406 863.0117,1.2263 862.1012,1.2296 860.2084,1.2415 859.0192,1.2592 862.7651,1.3255 867.1246,1.3406 874.1335,1.3566 880.8448,1.3688 887.7769,1.3768 896.9166,1.3859 905.6819,1.3941 911.7107,1.3989 NaN,NaN 858.5663,1.2512 858.6604,1.2529 858.6663,1.2512 860.2084,1.2415 860.6529,1.2349 862.1012,1.2296 862.7657,1.2255 863.0117,1.2263 868.9781,1.2046 880.1377,1.175 893.4263,1.1538 906.3496,1.1444 919.2355,1.1352 927.4464,1.1312 942.4778,1.1275 942.4778,1.0275 927.4463,1.0312 919.2354,1.0352 906.3496,1.0444 893.4263,1.0538 880.1375,1.075 868.9778,1.1046 860.6525,1.1349 858.6156,1.1652 NaN,NaN 858.6171,1.2652 859.0192,1.2592 858.6604,1.2529 " stroke="none" fill="blue" stroke-width="0" shape-rendering="crispEdges" />
<polygon points="-942.4778,1.0275 -942.4778,1.1275 -921.4771,1.1366 -915.1827,1.1412 -907.9584,1.147 -898.765,1.1553 -891.1537,1.1631 -885.7275,1.1689 -880.8596,1.175 -880.8594,1.075 -885.7273,1.0689 -891.1536,1.0631 -898.7649,1.0553 -907.9583,1.047 -915.1826,1.0412 -921.4771,1.0366 " stroke="none" fill="blue" stroke-width="0" shape-rendering="crispEdges" />
<polygon points="53.7059,-1.28 53.7058,-1.28 53.7059,-1.33 NaN,NaN 40.1918,-1.2923 53.7058,-1.28 59.5532,-1.2722 62.9492,-1.2673 68.3441,-1.2566 75.3529,-1.2406 79.4664,-1.2263 81.8244,-1.2349 83.8115,-1.2152 83.8235,-1.2118 83.9115,-1.2152 83.8618,-1.3012 79.7126,-1.3255 75.3532,-1.3406 68.3443,-1.3566 62.9493,-1.3673 59.5533,-1.3722 53.706,-1.38 53.7059,-1.33 53.7059,-1.38 40.1919,-1.3923 33.9855,-1.3959 24.5607,-1.4 13.6615,-1.4036 1.744,-1.4045 -10.4556,-1.4014 -23.0988,-1.3964 -35.0811,-1.3873 -47.7439,-1.3735 -59.2933,-1.3534 -68.0975,-1.3301 -75.0965,-1.3015 -77.7938,-1.2405 -75.4578,-1.2233 -72.8552,-1.2106 -68.0971,-1.2301 -59.2931,-1.2534 -47.7437,-1.2735 -35.081,-1.2873 -23.0987,-1.2964 -10.4555,-1.3014 1.744,-1.3045 13.6615,-1.3036 24.5607,-1.3 33.9855,-1.2959 NaN,NaN -75.0957,-1.2015 -78.4623,-1.2232 -78.467,-1.2253 -78.5623,-1.2232 -78.5127,-1.1458 -75.4583,-1.1233 -71.4905,-1.104 -65.4215,-1.089 -59.4478,-1.0762 -52.208,-1.0655 -43.7129,-1.0553 -34.5195,-1.047 -24.1649,-1.04 -13.5262,-1.0344 -1.9165,-1.0315 9.4734,-1.032 22.0285,-1.035 36.1282,-1.0444 49.0516,-1.0538 62.3403,-1.075 73.5,-1.1046 81.8259,-1.1349 83.5892,-1.2028 79.7122,-1.2255 79.4664,-1.2263 73.4996,-1.2046 62.3401,-1.175 49.0514,-1.1538 36.1281,-1.1444 22.0285,-1.135 9.4734,-1.132 -1.9165,-1.1315 -13.5262,-1.1344 -24.1648,-1.14 -34.5195,-1.147 -43.7128,-1.1553 -52.2079,-1.1655 -59.4477,-1.1762 -65.4213,-1.189 -71.4903,-1.204 -72.8552,-1.2106 NaN,NaN -78.512,-1.2458 -78.467,-1.2253 -77.7938,-1.2405 NaN,NaN 83.8612,-1.2012 83.8235,-1.2118 83.5892,-1.2028 " stroke="none" fill="blue" stroke-width="0" shape-rendering="crispEdges" />
<polygon points="-888.0972,-1.2818 -888.0971,-1.3818 -902.1843,-1.3942 -908.3381,-1.3974 -927.1877,-1.4047 -934.4944,-1.4069 -939.2068,-1.4076 -942.4778,-1.408 -942.4778,-1.308 -939.2068,-1.3076 -934.4944,-1.3069 -927.1877,-1.3047 -908.3382,-1.2974 -902.1844,-1.2942 " stroke="none" fill="blue" stroke-width="0" shape-rendering="crispEdges" />
<polygon points="942.4778,-1.308 942.4778,-1.408 911.2252,-1.3922 904.3573,-1.3849 894.9325,-1.3711 883.7736,-1.3512 875.5653,-1.3294 868.9368,-1.3014 866.1366,-1.2421 868.16,-1.2264 871.162,-1.2108 875.5657,-1.2294 883.7739,-1.2512 894.9327,-1.2711 904.3574,-1.2849 911.2253,-1.2922 NaN,NaN 868.9376,-1.2014 865.3608,-1.2235 865.3568,-1.2255 865.2608,-1.2235 865.3105,-1.1484 868.1594,-1.1264 872.0656,-1.1061 877.854,-1.0913 883.6358,-1.0783 890.9421,-1.0668 899.2521,-1.0562 908.1498,-1.048 915.3193,-1.042 921.649,-1.0372 942.4778,-1.0275 942.4778,-1.1275 921.649,-1.1372 915.3194,-1.142 908.1499,-1.148 899.2522,-1.1562 890.9422,-1.1668 883.636,-1.1783 877.8542,-1.1913 872.0659,-1.2061 871.162,-1.2108 NaN,NaN 865.3112,-1.2484 865.3568,-1.2255 866.1366,-1.2421 " stroke="none" fill="blue" stroke-width="0" shape-rendering="crispEdges" />
<polygon points="-942.4778,-1.1275 -942.4778,-1.0275 -927.6112,-1.0306 -919.3838,-1.0343 -906.7346,-1.0428 -893.7948,-1.0517 -884.0631,-1.0605 -874.4161,-1.0736 -865.3891,-1.0918 -860.9616,-1.116 -856.8738,-1.1415 -856.1465,-1.1908 -857.0169,-1.2041 -860.074,-1.2215 -860.9622,-1.216 -865.3896,-1.1918 -874.4163,-1.1736 -884.0632,-1.1605 -893.7949,-1.1517 -906.7347,-1.1428 -919.3839,-1.1343 -927.6112,-1.1306 NaN,NaN -856.8754,-1.2415 -855.9094,-1.2069 -854.944,-1.2724 -857.0163,-1.3041 -861.3839,-1.329 -865.6463,-1.343 -872.9946,-1.3594 -878.4925,-1.3698 -881.7536,-1.3739 -888.0971,-1.3818 -888.0972,-1.2818 -881.7537,-1.2739 -878.4927,-1.2698 -872.9948,-1.2594 -865.6466,-1.243 -861.3843,-1.229 -860.074,-1.2215 NaN,NaN -854.9455,-1.1724 -855.9094,-1.2069 -856.1465,-1.1908 " stroke="none" fill="blue" stroke-width="0" shape-rendering="crispEdges" />
<polygon points="447.677,1.6836 447.677,1.6836 447.677,1.6336 NaN,NaN 431.2466,1.6992 447.677,1.6836 456.7821,1.6818 465.2578,1.6826 474.6826,1.6838 486.6661,1.6878 496.4106,1.6947 506.9235,1.7036 515.6696,1.7135 524.3471,1.7251 531.2131,1.7353 537.5988,1.748 544.8473,1.7634 550.4926,1.7778 555.9522,1.7925 561.7653,1.8112 566.7281,1.8282 570.1163,1.8471 572.6704,1.8629 574.4834,1.8548 575.4475,1.8904 576.411,1.8259 575.951,1.7979 573.8495,1.7702 570.1169,1.7471 566.7284,1.7282 561.7656,1.7112 555.9524,1.6925 550.4929,1.6778 544.8475,1.6634 537.599,1.648 531.2133,1.6353 524.3473,1.6251 515.6697,1.6135 506.9236,1.6036 496.4106,1.5947 486.6662,1.5878 474.6826,1.5838 465.2578,1.5826 456.782,1.5818 447.6769,1.5836 447.677,1.6336 447.6769,1.5836 431.2465,1.5992 422.7415,1.6086 413.9109,1.6187 400.6935,1.6392 390.5327,1.6587 383.1936,1.6781 374.7485,1.7037 365.6494,1.7393 360.7699,1.7663 356.6437,1.7917 354.0707,1.8176 354.0666,1.8355 355.444,1.8497 358.6766,1.8666 359.9185,1.8716 360.7705,1.8663 365.6499,1.8393 374.7489,1.8037 383.1939,1.7781 390.5329,1.7587 400.6937,1.7392 413.911,1.7187 422.7417,1.7086 NaN,NaN 356.6445,1.8917 354.1134,1.908 354.0624,1.854 354.0438,1.9353 355.4435,1.9497 358.6762,1.9666 363.5383,1.9863 369.3489,2.0066 376.2968,2.0216 383.8996,2.0352 390.2589,2.0448 398.2927,2.0534 406.6193,2.0607 415.5384,2.0662 425.3857,2.0711 437.1571,2.0759 447.9729,2.0787 459.8543,2.0802 471.3298,2.0804 483.9043,2.0785 495.6949,2.0757 509.7762,2.0693 521.4567,2.0632 530.9673,2.0574 541.9548,2.0447 552.9379,2.0287 559.8073,2.0106 567.5576,1.9857 574.4849,1.9548 575.4365,1.8911 573.8489,1.8702 572.6704,1.8629 567.5572,1.8857 559.807,1.9106 552.9377,1.9287 541.9546,1.9447 530.9672,1.9574 521.4566,1.9632 509.7761,1.9693 495.6948,1.9757 483.9043,1.9785 471.3297,1.9804 459.8543,1.9802 447.9729,1.9787 437.1571,1.9759 425.3857,1.9711 415.5384,1.9662 406.6194,1.9607 398.2928,1.9534 390.259,1.9448 383.8998,1.9352 376.297,1.9216 369.3491,1.9066 363.5386,1.8863 359.9185,1.8716 NaN,NaN 354.0448,1.8353 354.0624,1.854 354.0666,1.8355 NaN,NaN 576.4049,1.9257 575.9497,1.8979 575.4844,1.8918 NaN,NaN 575.4844,1.8918 575.4475,1.8904 575.4365,1.8911 " stroke="none" fill="blue" stroke-width="0" shape-rendering="crispEdges" />
<polygon points="-443.0251,1.7252 -443.0252,1.7252 -443.0251,1.6752 NaN,NaN -455.3547,1.7171 -443.0251,1.7252 -437.0011,1.7312 -433.2191,1.7352 -427.15,1.7441 -418.6556,1.7573 -412.4741,1.7689 -406.6309,1.7804 -399.6667,1.7978 -393.1338,1.8164 -388.9601,1.8321 -384.5768,1.852 -382.8222,1.8616 -382.1758,1.8599 -377.4646,1.8349 -377.0482,1.8733 -376.6325,1.8113 -377.2385,1.7944 -380.2172,1.776 -384.5763,1.752 -388.9597,1.7321 -393.1335,1.7164 -399.6664,1.6978 -406.6307,1.6804 -412.4739,1.6689 -418.6555,1.6573 -427.1499,1.6441 -433.219,1.6352 -437.001,1.6312 -443.0251,1.6252 -443.0251,1.6752 -443.0251,1.6252 -455.3547,1.6171 -462.9312,1.6157 -472.356,1.6145 -485.9618,1.6166 -497.1336,1.6202 -507.3267,1.6256 -518.5997,1.6375 -530.501,1.6546 -540.4572,1.6763 -551.0454,1.7023 -561.3475,1.7317 -568.2954,1.7622 -572.3198,1.7921 -572.4614,1.8308 -571.8698,1.8472 -570.2248,1.869 -569.561,1.8716 -568.2947,1.8622 -561.347,1.8317 -551.0451,1.8023 -540.4569,1.7763 -530.5008,1.7546 -518.5996,1.7375 -507.3266,1.7256 -497.1336,1.7202 -485.9618,1.7166 -472.356,1.7145 -462.9313,1.7157 NaN,NaN -572.3136,1.8919 -572.5549,1.8564 -572.7935,1.9216 -571.8711,1.9472 -570.2252,1.969 -565.4848,1.9874 -558.9866,2.0042 -552.9142,2.0144 -544.666,2.0262 -535.532,2.0384 -528.6122,2.0459 -520.083,2.0517 -511.5429,2.0567 -501.8203,2.0597 -492.1047,2.062 -478.8387,2.0634 -468.5183,2.0632 -454.5486,2.0605 -444.0032,2.0574 -434.4843,2.0541 -424.1883,2.0458 -411.419,2.0311 -401.8267,2.0105 -391.8837,1.9856 -382.1753,1.9599 -377.4617,1.9349 -377.198,1.8956 -377.2391,1.8944 -380.2178,1.8759 -382.8222,1.8616 -391.8839,1.8856 -401.8269,1.9105 -411.4192,1.9311 -424.1884,1.9458 -434.4844,1.9541 -444.0033,1.9574 -454.5487,1.9605 -468.5183,1.9632 -478.8387,1.9634 -492.1047,1.962 -501.8202,1.9597 -511.5429,1.9567 -520.0829,1.9517 -528.6121,1.9459 -535.5319,1.9384 -544.6659,1.9262 -552.914,1.9144 -558.9865,1.9042 -565.4845,1.8874 -569.561,1.8716 NaN,NaN -572.7907,1.8216 -572.5549,1.8564 -572.4614,1.8308 NaN,NaN -376.6353,1.9113 -377.0482,1.8733 -377.198,1.8956 " stroke="none" fill="blue" stroke-width="0" shape-rendering="crispEdges" />
<polygon points="458.9557,-2.0799 458.9557,-2.0299 458.9557,-2.0799 451.2944,-2.0777 444.3263,-2.0752 432.7016,-2.0693 421.0211,-2.0632 411.5105,-2.0574 400.523,-2.0447 389.5399,-2.0287 382.6705,-2.0106 374.9202,-1.9857 367.9934,-1.9548 366.0691,-1.9258 366.2983,-1.8615 366.5305,-1.8978 368.6292,-1.8702 369.8075,-1.8629 374.9206,-1.8857 382.6708,-1.9106 389.5401,-1.9287 400.5232,-1.9447 411.5105,-1.9574 421.0212,-1.9632 432.7017,-1.9693 444.3263,-1.9752 451.2945,-1.9777 458.9557,-1.9799 478.3171,-1.9817 485.0801,-1.9807 494.5049,-1.9787 505.3207,-1.9759 517.0921,-1.9711 526.9394,-1.9662 535.8584,-1.9607 544.185,-1.9534 552.2187,-1.9448 558.578,-1.9352 566.1808,-1.9216 573.1286,-1.9066 578.9391,-1.8863 582.5593,-1.8716 585.8334,-1.8917 587.597,-1.9063 587.0345,-1.9497 583.8017,-1.9666 578.9395,-1.9863 573.129,-2.0066 566.181,-2.0216 558.5782,-2.0352 552.2189,-2.0448 544.1851,-2.0534 535.8585,-2.0607 526.9394,-2.0662 517.0921,-2.0711 505.3207,-2.0759 494.5049,-2.0787 485.0801,-2.0807 478.3171,-2.0817 NaN,NaN 588.4548,-1.8401 587.7704,-1.8929 587.0335,-1.8497 583.8012,-1.8666 582.5593,-1.8716 581.7074,-1.8663 576.828,-1.8393 567.729,-1.8037 559.2839,-1.7781 551.9449,-1.7587 541.7841,-1.7392 528.5668,-1.7187 518.8163,-1.7079 504.9988,-1.6969 491.328,-1.6864 478.1398,-1.6833 467.7952,-1.6838 455.8117,-1.6878 446.0672,-1.6947 435.5543,-1.7036 426.8083,-1.7135 418.1307,-1.7251 411.2647,-1.7353 404.879,-1.748 397.6305,-1.7634 391.9852,-1.7778 386.5257,-1.7925 380.7126,-1.8112 375.7498,-1.8282 372.3615,-1.8471 369.8075,-1.8629 367.9938,-1.8548 366.4072,-1.8309 366.5244,-1.798 368.6279,-1.7702 372.3609,-1.7471 375.7493,-1.7282 380.7122,-1.7112 386.5253,-1.6925 391.9849,-1.6778 397.6303,-1.6634 404.8788,-1.648 411.2645,-1.6353 418.1305,-1.6251 426.8081,-1.6135 435.5542,-1.6036 446.0672,-1.5947 455.8116,-1.5878 467.7952,-1.5838 478.1398,-1.5833 491.328,-1.5864 504.9989,-1.5969 518.8164,-1.6079 528.5669,-1.6187 541.7843,-1.6392 551.9451,-1.6587 559.2841,-1.6781 567.7293,-1.7037 576.8283,-1.7393 581.7079,-1.7663 585.834,-1.7917 588.3862,-1.8128 NaN,NaN 458.9557,-1.9799 458.9557,-1.9799 458.9557,-2.0299 NaN,NaN 366.0706,-1.8258 366.4072,-1.8309 366.2983,-1.8615 NaN,NaN 588.3853,-1.9128 588.4122,-1.9305 588.0643,-1.9101 NaN,NaN 587.597,-1.9063 587.7704,-1.8929 588.0643,-1.9101 " stroke="none" fill="red" stroke-width="0" shape-rendering="crispEdges" />
<polygon points="-417.0226,-2.05 -417.0226,-2 -417.0226,-2.05 -419.5687,-2.0517 -424.804,-2.0541 -430.9349,-2.0567 -440.6575,-2.0597 -450.3731,-2.062 -463.6391,-2.0634 -473.9595,-2.0632 -487.9292,-2.0605 -498.4746,-2.0574 -507.9935,-2.0541 -518.2895,-2.0458 -531.0588,-2.0311 -540.6511,-2.0105 -550.5941,-1.9856 -560.3024,-1.9599 -565.0149,-1.9349 -565.8453,-1.9113 -565.5417,-1.8526 -565.2376,-1.8944 -562.26,-1.8759 -559.6556,-1.8616 -550.5939,-1.8856 -540.6509,-1.9105 -531.0587,-1.9311 -518.2894,-1.9458 -507.9935,-1.9541 -498.4746,-1.9574 -487.9291,-1.9605 -473.9595,-1.9632 -463.6391,-1.9634 -450.3731,-1.962 -440.6576,-1.9597 -430.9349,-1.9567 -424.8041,-1.9541 -419.5688,-1.9517 -417.0227,-1.95 -400.9997,-1.9329 -395.4027,-1.9239 -389.5638,-1.9144 -383.4913,-1.9042 -376.9933,-1.8874 -372.9187,-1.8716 -370.1976,-1.8917 -370.6059,-1.9472 -372.2521,-1.969 -376.993,-1.9874 -383.4911,-2.0042 -389.5636,-2.0144 -395.4025,-2.0239 -400.9996,-2.0329 NaN,NaN -369.6826,-1.8217 -370.1456,-1.8846 -370.6087,-1.8473 -372.2535,-1.869 -372.9187,-1.8716 -374.1829,-1.8622 -381.1307,-1.8317 -391.4326,-1.8023 -402.0208,-1.7763 -411.977,-1.7546 -423.8782,-1.7375 -435.1512,-1.7256 -445.3442,-1.7202 -456.516,-1.7166 -470.1218,-1.7145 -480.4769,-1.7166 -491.6257,-1.7215 -500.6506,-1.728 -508.3283,-1.7342 -515.3278,-1.7441 -523.8222,-1.7573 -530.0037,-1.7689 -535.8469,-1.7804 -542.8111,-1.7978 -549.344,-1.8164 -553.5177,-1.8321 -557.901,-1.852 -559.6556,-1.8616 -560.3021,-1.8599 -565.0144,-1.8349 -565.3939,-1.8241 -565.2404,-1.7944 -562.2606,-1.776 -557.9015,-1.752 -553.5181,-1.7321 -549.3443,-1.7164 -542.8114,-1.6978 -535.8471,-1.6804 -530.0039,-1.6689 -523.8223,-1.6573 -515.3279,-1.6441 -508.3285,-1.6342 -500.6507,-1.628 -491.6257,-1.6215 -480.4769,-1.6166 -470.1218,-1.6145 -456.516,-1.6166 -445.3442,-1.6202 -435.1511,-1.6256 -423.8781,-1.6375 -411.9768,-1.6546 -402.0206,-1.6763 -391.4324,-1.7023 -381.1304,-1.7317 -374.1825,-1.7622 -370.1607,-1.792 NaN,NaN -417.0227,-1.95 -417.0227,-1.95 -417.0226,-2 NaN,NaN -565.8425,-1.8113 -565.3939,-1.8241 -565.5417,-1.8526 NaN,NaN -370.1614,-1.892 -370.1976,-1.8917 -370.1456,-1.8846 -369.6888,-1.9215 " stroke="none" fill="red" stroke-width="0" shape-rendering="crispEdges" />
<polygon points="59.9644,1.075 59.9643,1.125 59.9643,1.075 55.6681,1.0694 50.5062,1.0638 43.2257,1.0562 34.328,1.048 24.0633,1.0408 13.4411,1.0348 1.8978,1.0316 -9.3766,1.0316 -21.8966,1.0341 -35.7432,1.0428 -48.683,1.0517 -58.4147,1.0605 -68.0617,1.0736 -77.0886,1.0918 -81.5162,1.116 -85.6035,1.1415 -87.5339,1.1724 -86.4974,1.2383 -85.4605,1.2042 -82.4038,1.2216 -81.5157,1.216 -77.0884,1.1918 -68.0616,1.1736 -58.4146,1.1605 -48.6829,1.1517 -35.7431,1.1428 -21.8966,1.1341 -9.3766,1.1316 1.8978,1.1316 13.441,1.1348 24.0632,1.1408 34.3279,1.148 43.2256,1.1562 50.5061,1.1638 55.668,1.1694 59.9642,1.175 68.4107,1.1995 71.4413,1.209 71.5594,1.2097 73.5404,1.2014 76.4387,1.1791 74.3185,1.1264 71.4419,1.109 68.411,1.0995 NaN,NaN 77.217,1.1984 77.1217,1.1961 77.117,1.1984 74.3177,1.2264 71.5594,1.2097 66.9122,1.2294 58.704,1.2512 47.5451,1.2711 34.9138,1.286 23.3336,1.2951 10.6378,1.3007 -1.7652,1.3046 -13.7843,1.3041 -24.7149,1.3011 -35.591,1.2958 -46.3317,1.2871 -55.7033,1.2785 -62.5338,1.2714 -69.4829,1.2594 -76.8312,1.243 -81.0934,1.229 -82.4038,1.2216 -85.6029,1.2415 -86.2776,1.2523 -85.462,1.3041 -81.094,1.329 -76.8315,1.343 -69.4832,1.3594 -62.5339,1.3714 -55.7034,1.3785 -46.3318,1.3871 -35.5911,1.3958 -24.7149,1.4011 -13.7843,1.4041 -1.7652,1.4046 10.6378,1.4007 23.3336,1.3951 34.9139,1.386 47.5453,1.3711 58.7041,1.3512 66.9124,1.3294 73.5408,1.3014 77.1673,1.2735 NaN,NaN 59.9642,1.175 59.9641,1.175 59.9643,1.125 NaN,NaN -87.5323,1.2724 -86.2776,1.2523 -86.4974,1.2383 NaN,NaN 77.1666,1.1735 76.4387,1.1791 77.1217,1.1961 " stroke="none" fill="red" stroke-width="0" shape-rendering="crispEdges" />
<polygon points="-880.8594,1.075 -880.8597,1.175 -873.3198,1.1964 -870.1038,1.2065 -869.4607,1.21 -867.3819,1.2015 -864.6446,1.1788 -867.0194,1.1233 -870.1033,1.1065 -873.3195,1.0964 NaN,NaN -863.9155,1.1958 -864.0106,1.1936 -864.0155,1.1958 -867.0201,1.2233 -869.4607,1.21 -874.3806,1.2301 -883.1847,1.2534 -894.7341,1.2735 -907.3968,1.2873 -919.3791,1.2964 -928.8038,1.302 -936.291,1.3059 -941.0034,1.3075 -942.4778,1.308 -942.4778,1.408 -941.0034,1.4075 -936.291,1.4059 -928.8038,1.402 -919.379,1.3964 -907.3967,1.3873 -894.734,1.3735 -883.1845,1.3534 -874.3803,1.3301 -867.3815,1.3015 -863.965,1.2732 NaN,NaN -863.9659,1.1732 -864.6446,1.1788 -864.0106,1.1936 " stroke="none" fill="red" stroke-width="0" shape-rendering="crispEdges" />
<polygon points="942.4778,1.408 942.4778,1.308 911.7108,1.2989 905.682,1.2941 896.9167,1.2859 887.777,1.2768 880.845,1.2688 874.1338,1.2566 867.1249,1.2406 863.0117,1.2263 862.1012,1.2296 860.2084,1.2415 859.0192,1.2592 862.7651,1.3255 867.1246,1.3406 874.1335,1.3566 880.8448,1.3688 887.7769,1.3768 896.9166,1.3859 905.6819,1.3941 911.7107,1.3989 NaN,NaN 858.5663,1.2512 858.6604,1.2529 858.6663,1.2512 860.2084,1.2415 860.6529,1.2349 862.1012,1.2296 862.7657,1.2255 863.0117,1.2263 868.9781,1.2046 880.1377,1.175 893.4263,1.1538 906.3496,1.1444 919.2355,1.1352 927.4464,1.1312 942.4778,1.1275 942.4778,1.0275 927.4463,1.0312 919.2354,1.0352 906.3496,1.0444 893.4263,1.0538 880.1375,1.075 868.9778,1.1046 860.6525,1.1349 858.6156,1.1652 NaN,NaN 858.6171,1.2652 859.0192,1.2592 858.6604,1.2529 " stroke="none" fill="red" stroke-width="0" shape-rendering="crispEdges" />
<polygon points="-942.4778,1.0275 -942.4778,1.1275 -921.4771,1.1366 -915.1827,1.1412 -907.9584,1.147 -898.765,1.1553 -891.1537,1.1631 -885.7275,1.1689 -880.8596,1.175 -880.8594,1.075 -885.7273,1.0689 -891.1536,1.0631 -898.7649,1.0553 -907.9583,1.047 -915.1826,1.0412 -921.4771,1.0366 " stroke="none" fill="red" stroke-width="0" shape-rendering="crispEdges" />
<polygon points="53.7059,-1.28 53.7058,-1.28 53.7059,-1.33 NaN,NaN 40.1918,-1.2923 53.7058,-1.28 59.5532,-1.2722 62.9492,-1.2673 68.3441,-1.2566 75.3529,-1.2406 79.4664,-1.2263 81.8244,-1.2349 83.8115,-1.2152 83.8235,-1.2118 83.9115,-1.2152 83.8618,-1.3012 79.7126,-1.3255 75.3532,-1.3406 68.3443,-1.3566 62.9493,-1.3673 59.5533,-1.3722 53.706,-1.38 53.7059,-1.33 53.7059,-1.38 40.1919,-1.3923 33.9855,-1.3959 24.5607,-1.4 13.6615,-1.4036 1.744,-1.4045 -10.4556,-1.4014 -23.0988,-1.3964 -35.0811,-1.3873 -47.7439,-1.3735 -59.2933,-1.3534 -68.0975,-1.3301 -75.0965,-1.3015 -77.7938,-1.2405 -75.4578,-1.2233 -72.8552,-1.2106 -68.0971,-1.2301 -59.2931,-1.2534 -47.7437,-1.2735 -35.081,-1.2873 -23.0987,-1.2964 -10.4555,-1.3014 1.744,-1.3045 13.6615,-1.3036 24.5607,-1.3 33.9855,-1.2959 NaN,NaN -75.0957,-1.2015 -78.4623,-1.2232 -78.467,-1.2253 -78.5623,-1.2232 -78.5127,-1.1458 -75.4583,-1.1233 -71.4905,-1.104 -65.4215,-1.089 -59.4478,-1.0762 -52.208,-1.0655 -43.7129,-1.0553 -34.5195,-1.047 -24.1649,-1.04 -13.5262,-1.0344 -1.9165,-1.0315 9.4734,-1.032 22.0285,-1.035 36.1282,-1.0444 49.0516,-1.0538 62.3403,-1.075 73.5,-1.1046 81.8259,-1.1349 83.5892,-1.2028 79.7122,-1.2255 79.4664,-1.2263 73.4996,-1.2046 62.3401,-1.175 49.0514,-1.1538 36.1281,-1.1444 22.0285,-1.135 9.4734,-1.132 -1.9165,-1.1315 -13.5262,-1.1344 -24.1648,-1.14 -34.5195,-1.147 -43.7128,-1.1553 -52.2079,-1.1655 -59.4477,-1.1762 -65.4213,-1.189 -71.4903,-1.204 -72.8552,-1.2106 NaN,NaN -78.512,-1.2458 -78.467,-1.2253 -77.7938,-1.2405 NaN,NaN 83.8612,-1.2012 83.8235,-1.2118 83.5892,-1.2028 " stroke="none" fill="red" stroke-width="0" shape-rendering="crispEdges" />
<polygon points="-888.0972,-1.2818 -888.0971,-1.3818 -902.1843,-1.3942 -908.3381,-1.3974 -927.1877,-1.4047 -934.4944,-1.4069 -939.2068,-1.4076 -942.4778,-1.408 -942.4778,-1.308 -939.2068,-1.3076 -934.4944,-1.3069 -927.1877,-1.3047 -908.3382,-1.2974 -902.1844,-1.2942 " stroke="none" fill="red" stroke-width="0" shape-rendering="crispEdges" />
<polygon points="942.4778,-1.308 942.4778,-1.408 911.2252,-1.3922 904.3573,-1.3849 894.9325,-1.3711 883.7736,-1.3512 875.5653,-1.3294 868.9368,-1.3014 866.1366,-1.2421 868.16,-1.2264 871.162,-1.2108 875.5657,-1.2294 883.7739,-1.2512 894.9327,-1.2711 904.3574,-1.2849 911.2253,-1.2922 NaN,NaN 868.9376,-1.2014 865.3608,-1.2235 865.3568,-1.2255 865.2608,-1.2235 865.3105,-1.1484 868.1594,-1.1264 872.0656,-1.1061 877.854,-1.0913 883.6358,-1.0783 890.9421,-1.0668 899.2521,-1.0562 908.1498,-1.048 915.3193,-1.042 921.649,-1.0372 942.4778,-1.0275 942.4778,-1.1275 921.649,-1.1372 915.3194,-1.142 908.1499,-1.148 899.2522,-1.1562 890.9422,-1.1668 883.636,-1.1783 877.8542,-1.1913 872.0659,-1.2061 871.162,-1.2108 NaN,NaN 865.3112,-1.2484 865.3568,-1.2255 866.1366,-1.2421 " stroke="none" fill="red" stroke-width="0" shape-rendering="crispEdges" />
<polygon points="-942.4778,-1.1275 -942.4778,-1.0275 -927.6112,-1.0306 -919.3838,-1.0343 -906.7346,-1.0428 -893.7948,-1.0517 -884.0631,-1.0605 -874.4161,-1.0736 -865.3891,-1.0918 -860.9616,-1.116 -856.8738,-1.1415 -856.1465,-1.1908 -857.0169,-1.2041 -860.074,-1.2215 -860.9622,-1.216 -865.3896,-1.1918 -874.4163,-1.1736 -884.0632,-1.1605 -893.7949,-1.1517 -906.7347,-1.1428 -919.3839,-1.1343 -927.6112,-1.1306 NaN,NaN -856.8754,-1.2415 -855.9094,-1.2069 -854.944,-1.2724 -857.0163,-1.3041 -861.3839,-1.329 -865.6463,-1.343 -872.9946,-1.3594 -878.4925,-1.3698 -881.7536,-1.3739 -888.0971,-1.3818 -888.0972,-1.2818 -881.7537,-1.2739 -878.4927,-1.2698 -872.9948,-1.2594 -865.6466,-1.243 -861.3843,-1.229 -860.074,-1.2215 NaN,NaN -854.9455,-1.1724 -855.9094,-1.2069 -856.1465,-1.1908 " stroke="none" fill="red" stroke-width="0" shape-rendering="crispEdges" />
<polygon points="447.677,1.6836 447.677,1.6836 447.677,1.6336 NaN,NaN 431.2466,1.6992 447.677,1.6836 456.7821,1.6818 465.2578,1.6826 474.6826,1.6838 486.6661,1.6878 496.4106,1.6947 506.9235,1.7036 515.6696,1.7135 524.3471,1.7251 531.2131,1.7353 537.5988,1.748 544.8473,1.7634 550.4926,1.7778 555.9522,1.7925 561.7653,1.8112 566.7281,1.8282 570.1163,1.8471 572.6704,1.8629 574.4834,1.8548 575.4475,1.8904 576.411,1.8259 575.951,1.7979 573.8495,1.7702 570.1169,1.7471 566.7284,1.7282 561.7656,1.7112 555.9524,1.6925 550.4929,1.6778 544.8475,1.6634 537.599,1.648 531.2133,1.6353 524.3473,1.6251 515.6697,1.6135 506.9236,1.6036 496.4106,1.5947 486.6662,1.5878 474.6826,1.5838 465.2578,1.5826 456.782,1.5818 447.6769,1.5836 447.677,1.6336 447.6769,1.5836 431.2465,1.5992 422.7415,1.6086 413.9109,1.6187 400.6935,1.6392 390.5327,1.6587 383.1936,1.6781 374.7485,1.7037 365.6494,1.7393 360.7699,1.7663 356.6437,1.7917 354.0707,1.8176 354.0666,1.8355 355.444,1.8497 358.6766,1.8666 359.9185,1.8716 360.7705,1.8663 365.6499,1.8393 374.7489,1.8037 383.1939,1.7781 390.5329,1.7587 400.6937,1.7392 413.911,1.7187 422.7417,1.7086 NaN,NaN 356.6445,1.8917 354.1134,1.908 354.0624,1.854 354.0438,1.9353 355.4435,1.9497 358.6762,1.9666 363.5383,1.9863 369.3489,2.0066 376.2968,2.0216 383.8996,2.0352 390.2589,2.0448 398.2927,2.0534 406.6193,2.0607 415.5384,2.0662 425.3857,2.0711 437.1571,2.0759 447.9729,2.0787 459.8543,2.0802 471.3298,2.0804 483.9043,2.0785 495.6949,2.0757 509.7762,2.0693 521.4567,2.0632 530.9673,2.0574 541.9548,2.0447 552.9379,2.0287 559.8073,2.0106 567.5576,1.9857 574.4849,1.9548 575.4365,1.8911 573.8489,1.8702 572.6704,1.8629 567.5572,1.8857 559.807,1.9106 552.9377,1.9287 541.9546,1.9447 530.9672,1.9574 521.4566,1.9632 509.7761,1.9693 495.6948,1.9757 483.9043,1.9785 471.3297,1.9804 459.8543,1.9802 447.9729,1.9787 437.1571,1.9759 425.3857,1.9711 415.5384,1.9662 406.6194,1.9607 398.2928,1.9534 390.259,1.9448 383.8998,1.9352 376.297,1.9216 369.3491,1.9066 363.5386,1.8863 359.9185,1.8716 NaN,NaN 354.0448,1.8353 354.0624,1.854 354.0666,1.8355 NaN,NaN 576.4049,1.9257 575.9497,1.8979 575.4844,1.8918 NaN,NaN 575.4844,1.8918 575.4475,1.8904 575.4365,1.8911 " stroke="none" fill="red" stroke-width="0" shape-rendering="crispEdges" />
<polygon points="-443.0251,1.7252 -443.0252,1.7252 -443.0251,1.6752 NaN,NaN -455.3547,1.7171 -443.0251,1.7252 -437.0011,1.7312 -433.2191,1.7352 -427.15,1.7441 -418.6556,1.7573 -412.4741,1.7689 -406.6309,1.7804 -399.6667,1.7978 -393.1338,1.8164 -388.9601,1.8321 -384.5768,1.852 -382.8222,1.8616 -382.1758,1.8599 -377.4646,1.8349 -377.0482,1.8733 -376.6325,1.8113 -377.2385,1.7944 -380.2172,1.776 -384.5763,1.752 -388.9597,1.7321 -393.1335,1.7164 -399.6664,1.6978 -406.6307,1.6804 -412.4739,1.6689 -418.6555,1.6573 -427.1499,1.6441 -433.219,1.6352 -437.001,1.6312 -443.0251,1.6252 -443.0251,1.6752 -443.0251,1.6252 -455.3547,1.6171 -462.9312,1.6157 -472.356,1.6145 -485.9618,1.6166 -497.1336,1.6202 -507.3267,1.6256 -518.5997,1.6375 -530.501,1.6546 -540.4572,1.6763 -551.0454,1.7023 -561.3475,1.7317 -568.2954,1.7622 -572.3198,1.7921 -572.4614,1.8308 -571.8698,1.8472 -570.2248,1.869 -569.561,1.8716 -568.2947,1.8622 -561.347,1.8317 -551.0451,1.8023 -540.4569,1.7763 -530.5008,1.7546 -518.5996,1.7375 -507.3266,1.7256 -497.1336,1.7202 -485.9618,1.7166 -472.356,1.7145 -462.9313,1.7157 NaN,NaN -572.3136,1.8919 -572.5549,1.8564 -572.7935,1.9216 -571.8711,1.9472 -570.2252,1.969 -565.4848,1.9874 -558.9866,2.0042 -552.9142,2.0144 -544.666,2.0262 -535.532,2.0384 -528.6122,2.0459 -520.083,2.0517 -511.5429,2.0567 -501.8203,2.0597 -492.1047,2.062 -478.8387,2.0634 -468.5183,2.0632 -454.5486,2.0605 -444.0032,2.0574 -434.4843,2.0541 -424.1883,2.0458 -411.419,2.0311 -401.8267,2.0105 -391.8837,1.9856 -382.1753,1.9599 -377.4617,1.9349 -377.198,1.8956 -377.2391,1.8944 -380.2178,1.8759 -382.8222,1.8616 -391.8839,1.8856 -401.8269,1.9105 -411.4192,1.9311 -424.1884,1.9458 -434.4844,1.9541 -444.0033,1.9574 -454.5487,1.9605 -468.5183,1.9632 -478.8387,1.9634 -492.1047,1.962 -501.8202,1.9597 -511.5429,1.9567 -520.0829,1.9517 -528.6121,1.9459 -535.5319,1.9384 -544.6659,1.9262 -552.914,1.9144 -558.9865,1.9042 -565.4845,1.8874 -569.561,1.8716 NaN,NaN -572.7907,1.8216 -572.5549,1.8564 -572.4614,1.8308 NaN,NaN -376.6353,1.9113 -377.0482,1.8733 -377.198,1.8956 " stroke="none" fill="red" stroke-width="0" shape-rendering="crispEdges" />
<line x1="918.9159" y1="2.5" x2="918.9159" y2="-2.5" stroke="red" stroke-width="0.1"/>
<line x1="918.9159" y1="-2.5" x2="-942.4778" y2="-2.5" stroke="red" stroke-width="0.1"/>
<line x1="-942.4778" y1="-2.5" x2="-942.4778" y2="2.5" stroke="red" stroke-width="0.1"/>
<line x1="-942.4778" y1="2.5" x2="918.9159" y2="2.5" stroke="red" stroke-width="0.1"/>
"/>
</svg>