<!DOCTYPE svg PUBLIC "-//W3C//DTD SVG 1.1//EN" "http://www.w3.org/Graphics/SVG/1.1/DTD/svg11.dtd">
<svg xmlns="http://www.w3.org/2000/svg" version="1.200000" width="-1861.3936mm" height="-5mm" xmlns:xlink="http://www.w3.org/1999/xlink">
<polygon points="471.237,-1.9629 471.2367,-1.8629 543.3767,-1.6892 558.3668,-1.6893 615.8082,-1.6899 639.403,-1.6901 662.9908,-1.6903 676.4112,-1.6904 686.5695,-1.6904 699.9901,-1.6905 710.1374,-1.6905 723.5527,-1.6905 733.6942,-1.6905 747.0994,-1.6904 757.2408,-1.6904 770.6321,-1.6903 794.1541,-1.6901 851.3701,-1.6896 874.9041,-1.6894 898.4451,-1.6893 911.7644,-1.6892 929.7844,-1.6892 942.4778,-1.6891 942.4778,-1.7891 929.7844,-1.7892 911.7644,-1.7892 898.4451,-1.7893 874.9041,-1.7894 851.3701,-1.7896 817.6696,-1.7899 794.1541,-1.7901 770.6321,-1.7903 757.2408,-1.7904 747.0994,-1.7904 733.6942,-1.7905 723.5527,-1.7905 710.1374,-1.7905 699.9901,-1.7905 686.5695,-1.7904 676.4112,-1.7904 662.9908,-1.7903 639.403,-1.7901 615.8082,-1.7899 581.9815,-1.7896 543.3767,-1.7892 " stroke="none" fill="blue" stroke-width="0" shape-rendering="crispEdges" />
<polygon points="-942.4778,-1.7891 -942.4778,-1.6891 -917.457,-1.6892 -878.8828,-1.6894 -750.6675,-1.6907 -713.6391,-1.6909 -679.9649,-1.6908 -643.0006,-1.6907 -515.2251,-1.6896 -478.3359,-1.6894 -444.5498,-1.6895 -407.5963,-1.6897 -279.4214,-1.6907 -242.4003,-1.6909 -208.7333,-1.6908 -171.7836,-1.6906 -44.0233,-1.6893 -7.1591,-1.6892 26.644,-1.6892 63.57,-1.6893 191.7605,-1.6904 228.7516,-1.6905 262.4474,-1.6904 299.3702,-1.6902 368.9415,-1.6895 384.7818,-1.7315 395.6907,-1.7658 393.4143,-1.7893 299.3702,-1.7902 262.4474,-1.7904 238.896,-1.7905 205.181,-1.7904 168.1779,-1.7902 63.57,-1.7893 26.644,-1.7892 3.0772,-1.7892 -30.7036,-1.7893 -67.5588,-1.7895 -171.7836,-1.7906 -208.7333,-1.7908 -232.2847,-1.7909 -265.9718,-1.7908 -303.005,-1.7906 -407.5963,-1.7897 -444.5498,-1.7895 -468.119,-1.7894 -491.6773,-1.7895 -538.7638,-1.7897 -643.0006,-1.7907 -679.9649,-1.7908 -703.5211,-1.7909 -737.2178,-1.7908 -774.2559,-1.7905 -868.6507,-1.7895 -911.9292,-1.7892 NaN,NaN 403.1266,-1.6892 398.2704,-1.7392 393.4143,-1.6893 368.9415,-1.6895 363.053,-1.6739 344.2034,-1.6162 322.4469,-1.5585 315.6896,-1.5004 337.9725,-1.4997 344.2037,-1.5162 363.0533,-1.5739 384.7821,-1.6315 NaN,NaN 322.4472,-1.4585 313.2749,-1.4796 304.1027,-1.4007 327.064,-1.4 397.3991,-1.3977 420.8612,-1.3971 430.964,-1.3969 444.3497,-1.3966 454.4423,-1.3965 467.8724,-1.3964 477.9745,-1.3964 491.4336,-1.3965 501.5644,-1.3966 515.0338,-1.3968 525.2095,-1.397 538.6693,-1.3973 562.3325,-1.398 609.6982,-1.3996 633.3752,-1.4003 657.0319,-1.4009 667.5056,-1.4011 680.6583,-1.4013 691.1359,-1.4014 704.2477,-1.4014 714.7088,-1.4014 727.797,-1.4013 738.2223,-1.4011 751.3066,-1.4009 761.6798,-1.4006 774.7807,-1.4003 785.0898,-1.3999 798.2264,-1.3995 845.0732,-1.3976 868.4974,-1.3967 891.9382,-1.396 916.5693,-1.3953 942.4778,-1.395 942.4778,-1.495 916.5693,-1.4953 911.2753,-1.4954 891.9382,-1.496 878.543,-1.4964 855.1737,-1.4972 808.4647,-1.4991 785.0898,-1.4999 774.7807,-1.5003 761.6798,-1.5006 751.3066,-1.5009 738.2223,-1.5011 727.797,-1.5013 714.7088,-1.5014 704.2477,-1.5014 691.1359,-1.5014 680.6583,-1.5013 667.5056,-1.5011 657.0319,-1.5009 633.3752,-1.5003 620.1075,-1.4999 562.3325,-1.498 538.6693,-1.4973 525.2095,-1.497 515.0338,-1.4968 501.5644,-1.4966 491.4336,-1.4965 477.9745,-1.4964 467.8724,-1.4964 454.4423,-1.4965 444.3497,-1.4966 430.964,-1.4969 420.8612,-1.4971 407.5309,-1.4974 384.1295,-1.4981 337.9725,-1.4997 NaN,NaN 304.1027,-1.5007 313.2749,-1.4796 315.6896,-1.5004 NaN,NaN 403.1263,-1.7892 395.6907,-1.7658 398.2704,-1.7392 " stroke="none" fill="blue" stroke-width="0" shape-rendering="crispEdges" />
<polygon points="-942.4778,-1.495 -942.4778,-1.395 -930.8055,-1.395 -912.4959,-1.3951 -898.9204,-1.3952 -888.8737,-1.3954 -875.2989,-1.3956 -865.2009,-1.3959 -851.6472,-1.3963 -841.4911,-1.3966 -804.2974,-1.3977 -780.6252,-1.3984 -770.3192,-1.3987 -756.9718,-1.399 -746.6428,-1.3992 -733.3472,-1.3994 -723.0144,-1.3995 -709.7584,-1.3995 -699.4417,-1.3995 -686.2087,-1.3994 -675.9266,-1.3992 -662.6975,-1.399 -652.4658,-1.3987 -639.2207,-1.3984 -629.0505,-1.3981 -615.7707,-1.3976 -558.9373,-1.3955 -545.4778,-1.395 -535.5527,-1.3947 -522.0257,-1.3943 -512.1324,-1.3941 -498.5444,-1.3939 -488.6626,-1.3937 -475.0258,-1.3936 -465.134,-1.3936 -451.4654,-1.3937 -441.5427,-1.3938 -427.8625,-1.394 -417.8911,-1.3943 -404.2209,-1.3946 -394.1874,-1.3949 -380.5482,-1.3954 -370.4458,-1.3957 -333.1551,-1.3971 -309.461,-1.398 -299.1758,-1.3983 -285.7855,-1.3987 -275.466,-1.3989 -262.1386,-1.3992 -251.8041,-1.3994 -238.5274,-1.3995 -228.198,-1.3995 -214.9556,-1.3995 -204.65,-1.3994 -191.4225,-1.3993 -181.1564,-1.3991 -167.9239,-1.3988 -157.709,-1.3985 -144.4526,-1.3982 -87.5002,-1.3964 -74.0962,-1.396 -64.0843,-1.3958 -50.6235,-1.3955 -40.6336,-1.3953 -27.1221,-1.3951 -17.1345,-1.395 -3.5844,-1.395 6.422,-1.3951 19.994,-1.3952 30.039,-1.3953 43.6133,-1.3956 53.7137,-1.3959 67.2693,-1.3963 77.4374,-1.3966 90.9543,-1.3971 101.1958,-1.3975 138.3653,-1.399 161.5606,-1.3999 170.4823,-1.3647 173.9165,-1.3739 175.5417,-1.3891 170.4829,-1.4647 161.561,-1.4999 138.3653,-1.499 90.9543,-1.4971 77.4374,-1.4966 67.2693,-1.4963 53.7137,-1.4959 43.6133,-1.4956 30.039,-1.4953 19.994,-1.4952 6.4219,-1.4951 -3.5844,-1.495 -17.1345,-1.495 -27.1221,-1.4951 -40.6336,-1.4953 -50.6235,-1.4955 -64.0843,-1.4958 -74.0962,-1.496 -87.5002,-1.4964 -144.4526,-1.4982 -157.7089,-1.4985 -167.9239,-1.4988 -181.1564,-1.4991 -191.4225,-1.4993 -204.65,-1.4994 -214.9556,-1.4995 -228.198,-1.4995 -238.5274,-1.4995 -251.8041,-1.4994 -262.1386,-1.4992 -275.466,-1.4989 -285.7855,-1.4987 -299.1758,-1.4983 -309.461,-1.498 -322.9206,-1.4975 -380.5482,-1.4954 -394.1874,-1.4949 -404.2209,-1.4946 -417.8911,-1.4943 -427.8625,-1.494 -441.5427,-1.4938 -451.4654,-1.4937 -465.134,-1.4936 -475.0258,-1.4936 -488.6626,-1.4937 -498.5444,-1.4939 -512.1324,-1.4941 -522.0257,-1.4943 -535.5527,-1.4947 -545.4778,-1.495 -558.9373,-1.4955 -615.7707,-1.4976 -629.0505,-1.4981 -639.2207,-1.4984 -652.4658,-1.4987 -662.6975,-1.499 -675.9266,-1.4992 -686.2087,-1.4994 -699.4416,-1.4995 -709.7584,-1.4995 -723.0144,-1.4995 -733.3472,-1.4994 -746.6428,-1.4992 -756.9718,-1.499 -770.3192,-1.4987 -780.6252,-1.4984 -794.0311,-1.4981 -851.6472,-1.4963 -865.2009,-1.4959 -875.2989,-1.4956 -888.8737,-1.4954 -898.9204,-1.4952 -912.4959,-1.4951 -930.8055,-1.495 NaN,NaN 176.1751,-1.3797 176.0798,-1.3811 176.0751,-1.3797 173.9165,-1.3739 172.4059,-1.3597 163.4855,-1.3249 140.6969,-1.3267 105.6507,-1.3295 94.1361,-1.3304 82.4807,-1.3313 70.8226,-1.3321 59.2534,-1.3328 47.4613,-1.3335 35.9439,-1.334 24.0373,-1.3344 12.5337,-1.3346 0.54094,-1.3348 -10.9876,-1.3348 -23.0322,-1.3347 -34.6213,-1.3345 -46.6796,-1.3342 -58.3582,-1.3337 -70.3916,-1.3332 -82.1786,-1.3326 -94.1514,-1.3319 -129.9449,-1.3297 -141.7198,-1.329 -153.8144,-1.3283 -165.4747,-1.3277 -177.6238,-1.3272 -189.1773,-1.3268 -201.3424,-1.3265 -212.8098,-1.3263 -224.9504,-1.3263 -236.3632,-1.3263 -248.441,-1.3266 -259.8378,-1.3269 -271.8206,-1.3274 -283.2419,-1.3279 -295.107,-1.3286 -306.5912,-1.3293 -329.9054,-1.331 -341.5096,-1.3318 -364.6899,-1.3336 -376.5168,-1.3344 -387.8996,-1.3352 -399.8574,-1.3359 -411.1684,-1.3365 -423.247,-1.337 -434.5217,-1.3374 -446.7007,-1.3377 -457.9782,-1.3379 -470.229,-1.3379 -481.5493,-1.3378 -493.8366,-1.3376 -505.237,-1.3372 -517.5216,-1.3368 -529.0329,-1.3362 -541.2746,-1.3355 -552.9176,-1.3348 -565.0792,-1.3339 -588.9123,-1.3322 -600.828,-1.3313 -612.7469,-1.3304 -624.7757,-1.3296 -636.5551,-1.3288 -648.6659,-1.3281 -660.3122,-1.3275 -672.4662,-1.327 -683.9993,-1.3267 -696.1553,-1.3264 -707.6064,-1.3263 -719.7251,-1.3264 -731.1331,-1.3265 -743.1816,-1.3268 -754.5876,-1.3272 -766.5421,-1.3277 -777.9853,-1.3283 -801.346,-1.3296 -836.3322,-1.3318 -848.0468,-1.3324 -859.6084,-1.3331 -871.4316,-1.3336 -882.9435,-1.3341 -894.8655,-1.3345 -906.3633,-1.3347 -918.3637,-1.3349 -927.7885,-1.335 -935.1261,-1.335 -942.4778,-1.335 -942.4778,-1.235 -935.1261,-1.235 -927.7885,-1.235 -918.3637,-1.2349 -906.3633,-1.2347 -894.8655,-1.2345 -882.9436,-1.2341 -871.4316,-1.2336 -859.6084,-1.2331 -848.0468,-1.2324 -836.3322,-1.2318 -801.346,-1.2296 -777.9853,-1.2283 -766.5421,-1.2277 -754.5876,-1.2272 -743.1816,-1.2268 -731.1331,-1.2265 -719.7252,-1.2264 -707.6064,-1.2263 -696.1553,-1.2264 -683.9993,-1.2267 -672.4662,-1.227 -660.3121,-1.2275 -648.6659,-1.2281 -636.5551,-1.2288 -624.7757,-1.2296 -612.7469,-1.2304 -600.828,-1.2313 -588.9123,-1.2322 -565.0791,-1.2339 -552.9176,-1.2348 -541.2746,-1.2355 -529.0329,-1.2362 -517.5216,-1.2368 -505.237,-1.2372 -493.8366,-1.2376 -481.5493,-1.2378 -470.229,-1.2379 -457.9782,-1.2379 -446.7007,-1.2377 -434.5217,-1.2374 -423.247,-1.237 -411.1684,-1.2365 -399.8574,-1.2359 -387.8996,-1.2352 -376.5168,-1.2344 -364.6899,-1.2336 -329.9054,-1.231 -306.5912,-1.2293 -295.107,-1.2286 -283.242,-1.2279 -271.8206,-1.2274 -259.8378,-1.2269 -248.441,-1.2266 -236.3632,-1.2263 -224.9504,-1.2263 -212.8098,-1.2263 -201.3424,-1.2265 -189.1773,-1.2268 -177.6238,-1.2272 -165.4747,-1.2277 -153.8144,-1.2283 -141.7198,-1.229 -129.9449,-1.2297 -94.1514,-1.2319 -82.1786,-1.2326 -70.3916,-1.2332 -58.3582,-1.2337 -46.6796,-1.2342 -34.6213,-1.2345 -23.0321,-1.2347 -10.9876,-1.2348 0.54094,-1.2348 12.5337,-1.2346 24.0373,-1.2344 35.9439,-1.234 47.4612,-1.2335 59.2534,-1.2328 70.8226,-1.2321 82.4807,-1.2313 94.1361,-1.2304 105.6506,-1.2295 140.6969,-1.2267 163.4855,-1.2249 172.4063,-1.2597 176.1255,-1.2946 NaN,NaN 176.1246,-1.3946 175.5417,-1.3891 176.0798,-1.3811 " stroke="none" fill="blue" stroke-width="0" shape-rendering="crispEdges" />
<polygon points="942.4778,-1.235 942.4778,-1.335 912.0407,-1.334 895.6398,-1.3331 883.8212,-1.3324 871.8468,-1.3316 848.0064,-1.3298 811.8789,-1.3269 800.284,-1.3259 787.9003,-1.325 776.4587,-1.3242 763.9902,-1.3234 752.692,-1.3228 740.1809,-1.3223 729.0026,-1.322 716.4932,-1.3217 705.3997,-1.3216 692.9339,-1.3217 681.8831,-1.3219 669.4959,-1.3222 658.4434,-1.3226 646.1603,-1.3232 635.0642,-1.3238 611.7248,-1.3253 576.4702,-1.3277 553.2335,-1.3292 541.7153,-1.3298 529.9404,-1.3304 518.3105,-1.3309 506.566,-1.3312 494.8435,-1.3315 483.0915,-1.3316 471.3044,-1.3317 459.5071,-1.3315 447.6897,-1.3313 435.8122,-1.331 424.0022,-1.3305 412.0172,-1.3299 400.2526,-1.3293 376.4589,-1.3278 340.2911,-1.3253 328.8383,-1.3246 316.3916,-1.3238 311.8031,-1.2811 320.2642,-1.224 328.8383,-1.2246 340.2911,-1.2253 376.4589,-1.2278 400.2526,-1.2293 412.0172,-1.2299 424.0022,-1.2305 435.8122,-1.231 447.6897,-1.2313 459.5071,-1.2315 471.3044,-1.2317 483.0915,-1.2316 494.8435,-1.2315 506.566,-1.2312 518.3105,-1.2309 529.9404,-1.2304 541.7153,-1.2298 553.2335,-1.2292 576.4702,-1.2277 611.7248,-1.2253 635.0642,-1.2238 646.1603,-1.2232 658.4434,-1.2226 669.4959,-1.2222 681.8831,-1.2219 692.9339,-1.2217 705.3997,-1.2216 716.4932,-1.2217 729.0026,-1.222 740.1809,-1.2223 752.692,-1.2228 763.9902,-1.2234 776.4587,-1.2242 787.9004,-1.225 800.284,-1.2259 811.8789,-1.2269 848.0064,-1.2298 871.8468,-1.2316 883.8212,-1.2324 895.6398,-1.2331 912.0407,-1.234 NaN,NaN 316.3916,-1.2238 310.9814,-1.2735 305.571,-1.2232 323.9162,-1.0994 343.2885,-0.97578 362.138,-0.85237 381.6127,-0.72903 390.7855,-0.71741 381.6133,-0.82902 362.1387,-0.95237 343.2891,-1.0758 323.9168,-1.1994 320.2642,-1.224 NaN,NaN 305.5716,-1.3232 310.9814,-1.2735 311.8031,-1.2811 NaN,NaN 399.9578,-0.60579 391.7433,-0.70575 376.8798,-0.7057 364.9879,-0.70544 353.2475,-0.70527 341.3668,-0.70505 329.6565,-0.70505 317.8725,-0.70522 306.2025,-0.70566 294.5589,-0.7063 282.8776,-0.7071 271.3374,-0.70792 259.5595,-0.70866 248.0315,-0.70918 236.1132,-0.70946 224.5243,-0.70944 212.5026,-0.70922 188.8215,-0.70848 177.1771,-0.70819 165.204,-0.70805 153.6112,-0.70813 141.6964,-0.70831 130.154,-0.70864 106.7015,-0.70918 94.7324,-0.70924 83.1497,-0.70924 71.1301,-0.70898 59.47,-0.70869 47.443,-0.70822 23.7455,-0.70742 12.022,-0.70719 0.12011,-0.70708 -11.5627,-0.70715 -23.4063,-0.70736 -35.038,-0.70764 -46.8764,-0.70801 -70.3616,-0.70855 -93.9119,-0.70866 -105.5595,-0.70849 -117.5154,-0.70841 -129.1447,-0.70827 -141.0867,-0.70834 -152.6177,-0.70855 -164.5321,-0.70903 -175.9221,-0.70968 -187.8547,-0.71051 -199.1378,-0.71133 -211.1687,-0.71209 -222.4334,-0.71262 -234.6053,-0.71292 -245.9276,-0.71291 -258.2063,-0.71271 -281.888,-0.71195 -293.2793,-0.71165 -305.5191,-0.71146 -316.87,-0.71149 -329.0476,-0.7116 -340.3585,-0.71186 -363.8434,-0.71225 -376.0544,-0.71223 -387.4291,-0.71215 -399.6801,-0.7118 -411.1468,-0.71142 -423.3943,-0.71085 -447.1224,-0.70986 -458.684,-0.70954 -470.7793,-0.70932 -482.3141,-0.7093 -494.3353,-0.70942 -505.8311,-0.70961 -517.8314,-0.7099 -541.3408,-0.71027 -564.9171,-0.71019 -576.4717,-0.70993 -588.5514,-0.70974 -600.1078,-0.70948 -612.1595,-0.70943 -623.6385,-0.70951 -635.6459,-0.70985 -647.0041,-0.71037 -659.0097,-0.71106 -670.281,-0.71175 -682.3639,-0.71236 -693.6374,-0.71276 -705.8411,-0.71292 -717.1938,-0.71278 -729.4845,-0.71243 -753.2088,-0.7114 -764.6709,-0.71096 -776.8802,-0.71064 -788.3192,-0.71054 -800.4453,-0.71053 -811.8613,-0.71068 -823.9611,-0.71075 -835.3968,-0.71085 -847.5198,-0.71072 -859.0311,-0.71054 -871.1771,-0.71009 -882.794,-0.70962 -894.9202,-0.70896 -918.6738,-0.7078 -935.3313,-0.70707 -942.4778,-0.70684 -942.4778,-0.60684 -935.3313,-0.60707 -918.6738,-0.6078 -894.9202,-0.60896 -882.794,-0.60962 -871.1771,-0.61009 -859.0311,-0.61054 -847.5198,-0.61072 -835.3968,-0.61085 -823.9611,-0.61075 -811.8613,-0.61068 -800.4453,-0.61053 -788.3192,-0.61054 -776.8802,-0.61064 -764.6709,-0.61096 -753.2088,-0.6114 -729.4844,-0.61243 -717.1938,-0.61278 -705.8411,-0.61292 -693.6374,-0.61276 -682.3639,-0.61236 -670.281,-0.61175 -659.0097,-0.61106 -647.0041,-0.61037 -635.6459,-0.60985 -623.6385,-0.60951 -612.1595,-0.60943 -600.1078,-0.60948 -588.5514,-0.60974 -576.4717,-0.60993 -564.9171,-0.61019 -541.3408,-0.61027 -517.8314,-0.6099 -505.8311,-0.60961 -494.3353,-0.60942 -482.3141,-0.6093 -470.7793,-0.60932 -458.684,-0.60954 -447.1224,-0.60986 -423.3943,-0.61085 -411.1468,-0.61142 -399.6801,-0.6118 -387.4291,-0.61215 -376.0544,-0.61223 -363.8434,-0.61225 -340.3585,-0.61186 -329.0476,-0.6116 -316.87,-0.61149 -305.5191,-0.61146 -293.2793,-0.61165 -281.888,-0.61195 -258.2063,-0.61271 -245.9276,-0.61291 -234.6053,-0.61292 -222.4334,-0.61262 -211.1687,-0.61209 -199.1379,-0.61133 -187.8547,-0.61051 -175.9221,-0.60968 -164.5321,-0.60903 -152.6177,-0.60855 -141.0867,-0.60834 -129.1447,-0.60827 -117.5154,-0.60841 -105.5595,-0.60849 -93.9119,-0.60866 -70.3616,-0.60855 -46.8764,-0.60801 -35.038,-0.60764 -23.4063,-0.60736 -11.5627,-0.60715 0.12011,-0.60708 12.022,-0.60719 23.7455,-0.60742 47.443,-0.60822 59.47,-0.60869 71.1301,-0.60898 83.1497,-0.60924 94.7324,-0.60924 106.7015,-0.60918 130.154,-0.60864 141.6964,-0.60831 153.6112,-0.60813 165.204,-0.60805 177.1771,-0.60819 188.8215,-0.60848 212.5026,-0.60922 224.5243,-0.60944 236.1132,-0.60946 248.0315,-0.60918 259.5595,-0.60866 271.3374,-0.60792 282.8776,-0.6071 294.5589,-0.6063 306.2025,-0.60566 317.8725,-0.60522 329.6565,-0.60505 341.3668,-0.60505 353.2475,-0.60527 364.9879,-0.60544 376.8798,-0.6057 NaN,NaN 399.9578,-0.70579 390.7855,-0.71741 391.7433,-0.70575 " stroke="none" fill="blue" stroke-width="0" shape-rendering="crispEdges" />
<polygon points="942.4778,-0.60684 942.4778,-0.70684 911.9072,-0.70705 904.9226,-0.70714 895.4978,-0.70731 871.9567,-0.70748 848.3471,-0.7072 836.5447,-0.70684 824.683,-0.70656 812.8723,-0.70623 801.055,-0.70611 789.3205,-0.70614 777.5609,-0.70645 765.9475,-0.70696 754.1962,-0.70762 742.6666,-0.70832 730.8391,-0.70892 719.3019,-0.70932 707.3534,-0.70946 695.7341,-0.7093 683.7018,-0.70895 659.9791,-0.70793 648.265,-0.70752 636.3223,-0.70725 624.6423,-0.70721 612.7783,-0.70725 601.1315,-0.70748 589.2836,-0.70761 577.6272,-0.70779 565.7453,-0.70774 554.0252,-0.70763 542.6129,-0.70731 513.8354,-0.44445 485.3754,-0.18146 457.1011,0.08147 428.6416,0.34446 399.8646,0.60731 388.4536,0.60762 376.7337,0.60773 364.853,0.60778 353.1962,0.6076 341.3497,0.60746 329.702,0.60724 317.8392,0.60719 306.1579,0.60723 294.2163,0.60751 282.5009,0.60792 258.7777,0.60894 246.7455,0.6093 235.1252,0.60945 223.1767,0.60931 211.6388,0.60892 199.811,0.60832 188.2812,0.60763 176.5296,0.60697 164.9161,0.60646 153.1562,0.60615 141.4221,0.60611 129.6047,0.60623 117.7944,0.60656 105.933,0.60684 94.131,0.6072 70.5218,0.60748 46.9811,0.6073 35.1552,0.60712 23.4577,0.60701 11.5994,0.60698 -0.12234,0.60708 -12.0671,0.60739 -23.8031,0.60779 -47.5572,0.60896 -59.6837,0.60961 -71.3009,0.61009 -83.4475,0.61054 -94.9589,0.61073 -107.0824,0.61086 -118.5178,0.61076 -130.6182,0.61069 -142.0336,0.61054 -154.16,0.61055 -165.5984,0.61065 -177.8076,0.61097 -189.2691,0.6114 -212.9929,0.61243 -225.283,0.61277 -236.6358,0.61292 -248.8389,0.61276 -260.1127,0.61236 -272.1949,0.61174 -283.4667,0.61105 -295.4719,0.61037 -306.8307,0.60985 -318.8376,0.6095 -330.3173,0.60942 -342.3686,0.60948 -353.9254,0.60973 -366.005,0.60992 -377.5601,0.61019 -401.137,0.61027 -424.6468,0.6099 -436.6477,0.60962 -448.1434,0.60943 -460.165,0.60931 -471.6995,0.60933 -483.7953,0.60955 -495.3563,0.60986 -519.084,0.61086 -531.3315,0.61142 -542.7977,0.6118 -555.0485,0.61214 -566.423,0.61223 -578.6337,0.61225 -602.1182,0.61186 -613.4294,0.61159 -625.6065,0.61148 -636.9578,0.61146 -649.1971,0.61164 -660.5889,0.61195 -684.2708,0.6127 -696.5496,0.61291 -707.8723,0.61292 -720.0445,0.61262 -731.3094,0.61209 -743.3406,0.61134 -754.6238,0.61051 -766.557,0.60969 -777.9467,0.60904 -789.8618,0.60855 -801.3925,0.60835 -813.3347,0.60828 -824.9635,0.60842 -836.9195,0.6085 -848.5663,0.60866 -872.1163,0.60855 -895.6008,0.60801 -907.4387,0.60764 -919.0704,0.60736 -928.4952,0.60709 -942.4778,0.60682 -942.4778,0.70682 -928.4952,0.70709 -919.0704,0.70736 -907.4387,0.70764 -895.6008,0.70801 -872.1163,0.70855 -848.5664,0.70866 -836.9195,0.7085 -824.9634,0.70842 -813.3347,0.70828 -801.3925,0.70835 -789.8618,0.70855 -777.9467,0.70904 -766.557,0.70969 -754.6238,0.71051 -743.3407,0.71134 -731.3094,0.71209 -720.0445,0.71262 -707.8723,0.71292 -696.5496,0.71291 -684.2708,0.7127 -660.5889,0.71195 -649.197,0.71164 -636.9578,0.71146 -625.6065,0.71148 -613.4294,0.71159 -602.1182,0.71186 -578.6337,0.71225 -566.423,0.71223 -555.0485,0.71214 -542.7977,0.7118 -531.3315,0.71142 -519.084,0.71086 -495.3563,0.70986 -483.7953,0.70955 -471.6995,0.70933 -460.165,0.70931 -448.1434,0.70943 -436.6477,0.70962 -424.6468,0.7099 -401.137,0.71027 -377.5601,0.71019 -366.005,0.70992 -353.9254,0.70973 -342.3686,0.70948 -330.3173,0.70942 -318.8376,0.7095 -306.8307,0.70985 -295.4719,0.71037 -283.4667,0.71105 -272.1949,0.71174 -260.1127,0.71236 -248.8389,0.71276 -236.6358,0.71292 -225.283,0.71277 -212.9928,0.71243 -189.2691,0.7114 -177.8075,0.71097 -165.5984,0.71065 -154.16,0.71055 -142.0336,0.71054 -130.6182,0.71069 -118.5178,0.71076 -107.0824,0.71086 -94.9589,0.71073 -83.4475,0.71054 -71.3009,0.71009 -59.6837,0.70961 -47.5572,0.70896 -23.8031,0.70779 -12.0671,0.70739 -0.12234,0.70708 11.5994,0.70698 23.4577,0.70701 35.1552,0.70712 46.9811,0.7073 70.5218,0.70748 94.131,0.7072 105.933,0.70684 117.7944,0.70656 129.6047,0.70623 141.4221,0.70611 153.1562,0.70615 164.9161,0.70646 176.5296,0.70697 188.2812,0.70763 199.811,0.70832 211.6388,0.70892 223.1767,0.70931 235.1252,0.70945 246.7455,0.7093 258.7777,0.70894 282.5009,0.70792 294.2163,0.70751 306.1579,0.70723 317.8392,0.70719 329.702,0.70724 341.3497,0.70746 353.1962,0.7076 364.853,0.70778 376.7337,0.70773 388.4536,0.70762 399.8646,0.70731 428.6425,0.44446 457.102,0.18147 485.3763,-0.081467 513.8363,-0.34446 542.6138,-0.60731 554.0252,-0.60763 565.7453,-0.60774 577.6272,-0.60779 589.2836,-0.60761 601.1315,-0.60748 612.7783,-0.60725 624.6423,-0.60721 636.3223,-0.60725 648.265,-0.60752 659.9791,-0.60793 683.7018,-0.60895 695.7341,-0.6093 707.3534,-0.60946 719.3019,-0.60932 730.8391,-0.60892 742.6666,-0.60832 754.1962,-0.60762 765.9475,-0.60696 777.5609,-0.60645 789.3205,-0.60614 801.055,-0.60611 812.8723,-0.60623 824.683,-0.60656 836.5447,-0.60684 848.3471,-0.6072 871.9567,-0.60748 895.4978,-0.60731 904.9226,-0.60714 911.9072,-0.60705 " stroke="none" fill="blue" stroke-width="0" shape-rendering="crispEdges" />
<polygon points="942.4778,0.70682 942.4778,0.60682 911.7271,0.60751 904.4607,0.60785 883.009,0.60868 871.3482,0.60898 859.3284,0.60924 847.7452,0.60924 835.7759,0.60918 812.3232,0.60864 800.7811,0.60831 788.8663,0.60813 777.2736,0.60805 765.301,0.60819 753.6568,0.60847 729.9762,0.60922 717.9556,0.60943 706.3662,0.60945 694.4488,0.60917 682.9203,0.60864 671.1436,0.60791 659.6023,0.60708 647.9222,0.60628 636.2776,0.60564 624.6088,0.6052 612.8235,0.60504 601.1139,0.60504 589.2321,0.60526 577.4923,0.60543 565.5992,0.60569 553.8686,0.60573 548.9579,0.64903 557.3971,0.70572 565.5992,0.70569 577.4923,0.70543 589.2321,0.70526 601.1139,0.70504 612.8235,0.70504 624.6088,0.7052 636.2776,0.70564 647.9222,0.70628 659.6023,0.70708 671.1436,0.70791 682.9203,0.70864 694.4488,0.70917 706.3662,0.70945 717.9556,0.70943 729.9762,0.70922 753.6568,0.70847 765.301,0.70819 777.2736,0.70805 788.8663,0.70813 800.7811,0.70831 812.3232,0.70864 835.7759,0.70918 847.7452,0.70924 859.3284,0.70924 871.3482,0.70898 883.009,0.70868 904.4607,0.70785 911.7271,0.70751 NaN,NaN 553.8686,0.70573 548.1946,0.65576 542.5203,0.70579 560.8651,0.82902 580.3405,0.95236 599.1901,1.0758 618.5635,1.1994 627.7366,1.2113 618.5642,1.0994 599.1908,0.97577 580.3412,0.85236 560.8657,0.72902 557.3971,0.70572 NaN,NaN 542.5209,0.60579 548.1946,0.65576 548.9579,0.64903 NaN,NaN 636.9091,1.3232 628.7496,1.2236 613.6417,1.2246 602.1896,1.2253 566.0198,1.2278 542.2254,1.2293 530.4604,1.2299 518.4752,1.2305 506.6643,1.231 494.7869,1.2313 482.9681,1.2316 471.1712,1.2317 459.3824,1.2316 447.6314,1.2315 435.907,1.2313 424.1638,1.2309 412.5319,1.2304 400.7587,1.2298 389.2386,1.2292 366.002,1.2277 330.75,1.2253 307.4115,1.2238 296.3151,1.2232 284.0333,1.2226 272.9807,1.2222 260.5944,1.2219 249.5437,1.2217 237.0782,1.2216 225.9848,1.2217 213.4754,1.222 202.2968,1.2223 189.7855,1.2228 178.4867,1.2234 166.0182,1.2242 154.5754,1.225 142.192,1.226 130.5956,1.2269 94.4683,1.2298 70.6278,1.2316 58.6521,1.2324 46.8351,1.2331 34.7951,1.2337 23.1081,1.2342 11.0434,1.2346 -0.5428,1.2348 -12.593,1.2349 -24.1149,1.2349 -36.1154,1.2347 -47.6126,1.2345 -59.5345,1.2341 -71.0463,1.2336 -82.8696,1.2331 -94.4311,1.2324 -106.1459,1.2318 -141.1323,1.2296 -164.4928,1.2283 -175.9356,1.2277 -187.8899,1.2272 -199.2951,1.2268 -211.3437,1.2265 -222.7505,1.2264 -234.8696,1.2263 -246.3194,1.2264 -258.476,1.2266 -270.0074,1.227 -282.1625,1.2275 -293.8069,1.2281 -305.9191,1.2288 -317.6965,1.2295 -329.7271,1.2304 -377.3948,1.2339 -401.1998,1.2355 -413.4404,1.2362 -424.9537,1.2368 -437.2379,1.2372 -448.6399,1.2376 -460.9275,1.2378 -472.2488,1.2379 -484.5005,1.2379 -495.7782,1.2377 -507.9585,1.2374 -519.2329,1.237 -531.3128,1.2365 -542.6231,1.2359 -554.5823,1.2352 -577.7924,1.2336 -612.5752,1.231 -635.8889,1.2293 -647.3738,1.2286 -659.2376,1.2279 -670.6595,1.2274 -682.6413,1.2269 -694.0384,1.2266 -706.1153,1.2263 -717.5284,1.2263 -729.6684,1.2263 -741.1359,1.2265 -753.3008,1.2268 -764.8544,1.2272 -777.0033,1.2277 -788.6637,1.2283 -800.7582,1.229 -848.3258,1.2319 -872.0851,1.2332 -884.1177,1.2337 -895.7968,1.2342 -907.8542,1.2345 -919.4439,1.2347 -935.6856,1.2349 -942.4778,1.235 -942.4778,1.335 -935.6856,1.3349 -919.4439,1.3347 -907.8542,1.3345 -895.7968,1.3342 -884.1177,1.3337 -872.0851,1.3332 -848.3258,1.3319 -812.533,1.3297 -788.6637,1.3283 -777.0033,1.3277 -764.8544,1.3272 -753.3008,1.3268 -741.1359,1.3265 -729.6684,1.3263 -717.5284,1.3263 -706.1153,1.3263 -694.0384,1.3266 -682.6413,1.3269 -670.6595,1.3274 -659.2376,1.3279 -647.3738,1.3286 -635.8889,1.3293 -612.5752,1.331 -577.7924,1.3336 -554.5824,1.3352 -542.6231,1.3359 -531.3128,1.3365 -519.2329,1.337 -507.9585,1.3374 -495.7782,1.3377 -484.5005,1.3379 -472.2488,1.3379 -460.9275,1.3378 -448.6399,1.3376 -437.2379,1.3372 -424.9537,1.3368 -413.4404,1.3362 -401.1998,1.3355 -377.3948,1.3339 -341.644,1.3312 -317.6965,1.3295 -305.9191,1.3288 -293.8069,1.3281 -282.1625,1.3275 -270.0074,1.327 -258.476,1.3266 -246.3194,1.3264 -234.8696,1.3263 -222.7505,1.3264 -211.3437,1.3265 -199.2951,1.3268 -187.8899,1.3272 -175.9356,1.3277 -164.4928,1.3283 -141.1323,1.3296 -106.1459,1.3318 -94.4311,1.3324 -82.8696,1.3331 -71.0463,1.3336 -59.5346,1.3341 -47.6126,1.3345 -36.1154,1.3347 -24.1149,1.3349 -12.593,1.3349 -0.5428,1.3348 11.0434,1.3346 23.1081,1.3342 34.7951,1.3337 46.8351,1.3331 58.6521,1.3324 70.6278,1.3316 94.4683,1.3298 130.5956,1.3269 142.192,1.326 154.5754,1.325 166.0182,1.3242 178.4867,1.3234 189.7855,1.3228 202.2968,1.3223 213.4754,1.322 225.9848,1.3217 237.0782,1.3216 249.5437,1.3217 260.5943,1.3219 272.9807,1.3222 284.0333,1.3226 296.3151,1.3232 307.4115,1.3238 330.75,1.3253 366.002,1.3277 389.2386,1.3292 400.7587,1.3298 412.5319,1.3304 424.1638,1.3309 435.907,1.3313 447.6314,1.3315 459.3824,1.3316 471.1712,1.3317 482.9681,1.3316 494.7869,1.3313 506.6643,1.331 518.4752,1.3305 530.4604,1.3299 542.2254,1.3293 566.0198,1.3278 602.1896,1.3253 613.6417,1.3246 626.0897,1.3238 NaN,NaN 636.9091,1.2232 627.7366,1.2113 628.7496,1.2236 " stroke="none" fill="blue" stroke-width="0" shape-rendering="crispEdges" />
<polygon points="942.4778,1.335 942.4778,1.235 911.6362,1.2342 904.4428,1.2339 895.0181,1.2335 883.2267,1.2328 871.6567,1.2321 859.9993,1.2313 848.3431,1.2304 836.8292,1.2295 825.0586,1.2286 813.6865,1.2276 801.7819,1.2267 790.5383,1.2258 778.9931,1.2249 770.0722,1.2597 766.8346,1.3326 770.7628,1.357 778.9935,1.3249 790.5383,1.3258 801.7819,1.3267 813.6865,1.3276 825.0586,1.3286 836.8292,1.3295 848.3431,1.3304 859.9993,1.3313 871.6567,1.3321 883.2266,1.3328 895.0181,1.3335 904.4428,1.3339 911.6362,1.3342 NaN,NaN 770.0731,1.3597 766.4041,1.3446 766.3971,1.3425 766.3041,1.3446 766.3538,1.4297 771.9968,1.4647 780.9188,1.4999 793.7361,1.4994 804.1145,1.499 841.2846,1.4975 851.525,1.4971 865.0423,1.4966 875.2094,1.4963 888.7647,1.4959 898.8646,1.4956 912.438,1.4954 921.919,1.4952 930.78,1.4951 942.4778,1.495 942.4778,1.395 930.78,1.3951 921.919,1.3952 912.438,1.3954 898.8646,1.3956 888.7647,1.3959 875.2094,1.3963 865.0423,1.3966 851.525,1.3971 841.2846,1.3975 804.1145,1.399 793.7361,1.3994 780.9188,1.3999 771.9972,1.3647 770.7628,1.357 NaN,NaN 766.3544,1.3297 766.3971,1.3425 766.8346,1.3326 " stroke="none" fill="blue" stroke-width="0" shape-rendering="crispEdges" />
<polygon points="-942.4778,1.395 -942.4778,1.495 -916.4917,1.4951 -911.2128,1.4951 -891.858,1.4955 -878.3992,1.4958 -854.9837,1.4964 -798.0288,1.4982 -774.5573,1.4988 -761.3261,1.4991 -751.0584,1.4993 -737.8319,1.4994 -727.5247,1.4995 -714.2829,1.4995 -703.952,1.4995 -690.6758,1.4994 -680.3403,1.4992 -667.0129,1.4989 -656.6928,1.4987 -633.0165,1.498 -619.5565,1.4975 -561.9285,1.4954 -538.2561,1.4946 -524.5861,1.4943 -514.6151,1.494 -500.9355,1.4938 -491.0131,1.4937 -477.3455,1.4936 -467.4536,1.4937 -453.8181,1.4938 -443.9358,1.4939 -430.3494,1.4941 -420.4551,1.4944 -406.9298,1.4947 -383.5455,1.4955 -326.71,1.4976 -303.2598,1.4984 -290.0156,1.4988 -279.7825,1.499 -266.5539,1.4992 -256.2706,1.4994 -243.0379,1.4995 -232.7202,1.4995 -219.4642,1.4995 -209.1308,1.4994 -195.8351,1.4992 -185.5059,1.499 -172.1584,1.4987 -148.447,1.4981 -90.8321,1.4963 -67.1808,1.4957 -53.607,1.4954 -43.5594,1.4952 -29.9845,1.4951 -19.9753,1.495 -6.42,1.495 3.5682,1.4951 17.0846,1.4952 27.0717,1.4954 40.5332,1.4957 50.5398,1.496 63.9352,1.4964 87.3047,1.4972 134.0134,1.4991 157.3881,1.4999 167.6971,1.5003 180.7979,1.5006 191.1711,1.5009 204.2555,1.5011 214.6808,1.5013 227.7694,1.5014 238.2305,1.5014 251.343,1.5014 261.8205,1.5013 274.974,1.5011 285.4474,1.5009 309.1046,1.5003 322.3737,1.4999 380.1488,1.498 403.8121,1.4973 417.2735,1.497 427.4474,1.4968 440.9181,1.4966 451.0472,1.4965 464.5072,1.4964 474.6078,1.4964 488.0386,1.4965 498.1297,1.4966 511.5158,1.4969 521.6177,1.4971 534.948,1.4974 558.3485,1.4981 604.505,1.4997 620.0298,1.4585 630.8742,1.4243 628.5264,1.4004 615.4128,1.4 545.0791,1.3977 521.6177,1.3971 511.5158,1.3969 498.1298,1.3966 488.0386,1.3965 474.6078,1.3964 464.5072,1.3964 451.0472,1.3965 440.9181,1.3966 427.4474,1.3968 417.2735,1.397 403.8121,1.3973 380.1488,1.398 332.7821,1.3996 309.1046,1.4003 285.4474,1.4009 274.974,1.4011 261.8205,1.4013 251.343,1.4014 238.2305,1.4014 227.7694,1.4014 214.6808,1.4013 204.2555,1.4011 191.1711,1.4009 180.7979,1.4006 167.6971,1.4003 157.3881,1.3999 144.2515,1.3995 97.4051,1.3976 73.9808,1.3967 50.5398,1.396 40.5332,1.3957 27.0717,1.3954 17.0846,1.3952 3.5682,1.3951 -6.42,1.395 -19.9753,1.395 -29.9846,1.3951 -43.5594,1.3952 -53.607,1.3954 -67.1808,1.3957 -90.8321,1.3963 -138.1807,1.3978 -161.8524,1.3984 -185.5059,1.399 -195.8351,1.3992 -209.1308,1.3994 -219.4642,1.3995 -232.7202,1.3995 -243.0379,1.3995 -256.2706,1.3994 -266.5539,1.3992 -279.7825,1.399 -290.0156,1.3988 -303.2598,1.3984 -326.71,1.3976 -383.5455,1.3955 -406.9298,1.3947 -420.4551,1.3944 -430.3494,1.3941 -443.9358,1.3939 -453.8181,1.3938 -467.4536,1.3937 -477.3455,1.3936 -491.0131,1.3937 -500.9355,1.3938 -514.6151,1.394 -524.5861,1.3943 -538.2561,1.3946 -561.9285,1.3954 -609.3219,1.3971 -633.0165,1.398 -656.6928,1.3987 -667.0129,1.3989 -680.3403,1.3992 -690.6758,1.3994 -703.952,1.3995 -714.2829,1.3995 -727.5247,1.3995 -737.8319,1.3994 -751.0584,1.3993 -761.3261,1.3991 -774.5573,1.3988 -798.0288,1.3982 -854.9837,1.3964 -878.3992,1.3958 -891.858,1.3955 -916.4917,1.3951 NaN,NaN 638.3744,1.5007 633.4503,1.4505 628.5264,1.5004 604.505,1.4997 598.2727,1.5162 579.4232,1.5739 557.6935,1.6316 550.9723,1.6893 573.5334,1.6895 579.4235,1.6739 598.273,1.6162 620.03,1.5585 NaN,NaN 557.6938,1.7316 548.5214,1.7104 539.3492,1.7892 643.1061,1.7902 680.0305,1.7904 703.5829,1.7905 727.1461,1.7904 774.3025,1.7902 868.6724,1.7894 911.9401,1.7892 942.4778,1.7891 942.4778,1.6891 917.4705,1.6892 878.9102,1.6893 750.7197,1.6904 713.7284,1.6905 680.0305,1.6904 643.1061,1.6902 573.5334,1.6895 NaN,NaN 539.3492,1.6892 548.5214,1.7104 550.9723,1.6893 NaN,NaN 638.3741,1.4007 630.8742,1.4243 633.4503,1.4505 " stroke="none" fill="blue" stroke-width="0" shape-rendering="crispEdges" />
<polygon points="-942.4778,1.6891 -942.4778,1.7891 -929.7899,1.7892 -898.4556,1.7893 -874.9206,1.7895 -794.2092,1.7904 -757.2856,1.7907 -733.7442,1.7908 -710.1924,1.7909 -686.6294,1.7908 -663.0554,1.7907 -639.4719,1.7906 -568.6895,1.7899 -521.5079,1.7896 -497.9284,1.7895 -474.3592,1.7894 -450.8009,1.7895 -427.253,1.7896 -403.7141,1.7897 -322.9963,1.7905 -286.0572,1.7907 -262.5111,1.7908 -238.9547,1.7909 -215.3871,1.7908 -191.8086,1.7907 -168.2206,1.7905 -87.2074,1.7897 -50.2365,1.7894 -26.6535,1.7892 -3.0809,1.7892 20.4806,1.7892 44.0314,1.7893 67.5729,1.7894 148.3255,1.7901 185.2389,1.7904 208.7855,1.7904 232.3421,1.7905 255.9095,1.7904 279.4875,1.7903 303.0748,1.7901 384.1086,1.7893 406.8864,1.824 425.7364,1.8587 443.7838,1.8934 471.2408,1.9629 471.2411,1.8629 443.7841,1.7934 425.7366,1.7587 406.8866,1.724 384.1088,1.6893 303.0748,1.6901 266.0678,1.6904 242.4898,1.6905 218.9278,1.6905 195.3812,1.6904 171.8481,1.6903 67.5729,1.6894 30.7113,1.6892 7.1579,1.6892 -16.4117,1.6892 -39.9972,1.6893 -63.5969,1.6895 -181.6636,1.6906 -205.2572,1.6908 -228.8357,1.6908 -252.3978,1.6908 -275.9438,1.6908 -309.5945,1.6906 -403.7141,1.6897 -440.5936,1.6895 -464.1425,1.6895 -487.7071,1.6895 -511.2875,1.6895 -534.8818,1.6897 -652.9177,1.6907 -676.5046,1.6908 -700.0763,1.6909 -723.6315,1.6908 -747.1705,1.6907 -770.6954,1.6906 -888.2467,1.6894 -911.7754,1.6893 " stroke="none" fill="blue" stroke-width="0" shape-rendering="crispEdges" />
<polygon points="471.2408,1.8629 471.2411,1.9629 531.0651,1.7891 562.3745,1.7894 619.5903,1.79 643.1061,1.7902 656.4883,1.7903 666.6326,1.7904 680.0305,1.7904 690.1727,1.7904 703.5829,1.7905 713.7284,1.7905 727.1461,1.7904 737.2999,1.7904 750.7197,1.7904 774.3025,1.7902 797.8924,1.79 831.7006,1.7897 855.3088,1.7895 878.9102,1.7893 892.2578,1.7893 917.4705,1.7892 942.4778,1.7891 942.4778,1.6891 917.4705,1.6892 911.9401,1.6892 892.2578,1.6893 878.9102,1.6893 855.3088,1.6895 797.8924,1.69 774.3025,1.6902 750.7197,1.6904 737.2999,1.6904 727.1461,1.6904 713.7284,1.6905 703.5829,1.6905 690.1727,1.6904 680.0305,1.6904 666.6326,1.6904 656.4883,1.6903 643.1061,1.6902 619.5903,1.69 562.3745,1.6894 531.0651,1.6891 " stroke="none" fill="red" stroke-width="0" shape-rendering="crispEdges" />
<polygon points="-942.4778,1.6891 -942.4778,1.7891 -929.7899,1.7892 -874.9206,1.7895 -770.6954,1.7906 -733.7442,1.7908 -710.1924,1.7909 -676.5046,1.7908 -639.4719,1.7906 -534.8818,1.7897 -497.9284,1.7895 -474.3592,1.7894 -450.8009,1.7895 -403.7141,1.7897 -299.4756,1.7907 -262.5111,1.7908 -238.9547,1.7909 -205.2572,1.7908 -168.2206,1.7905 -63.5969,1.7895 -26.6535,1.7892 -3.0809,1.7892 20.4806,1.7892 67.5729,1.7894 171.8481,1.7903 208.7855,1.7904 232.3421,1.7905 255.9095,1.7904 303.0748,1.7901 396.9569,1.7892 472.8593,1.7315 551.2138,1.6736 626.612,1.6158 705.0161,1.5578 780.9188,1.4999 793.7361,1.4994 851.525,1.4971 875.2094,1.4963 888.7647,1.4959 898.8646,1.4956 912.438,1.4954 930.78,1.4951 942.4778,1.495 942.4778,1.395 930.78,1.3951 912.438,1.3954 898.8646,1.3956 888.7647,1.3959 875.2094,1.3963 851.525,1.3971 804.1145,1.399 780.9188,1.3999 705.0161,1.4578 626.612,1.5158 551.2137,1.5736 472.8592,1.6315 396.9568,1.6892 279.4875,1.6903 242.4898,1.6905 208.7855,1.6904 171.8481,1.6903 44.0314,1.6893 7.1579,1.6892 -26.6535,1.6892 -63.5969,1.6895 -191.8086,1.6907 -228.8357,1.6908 -262.5111,1.6908 -299.4756,1.6907 -427.253,1.6896 -464.1425,1.6895 -497.9284,1.6895 -534.8818,1.6897 -663.0554,1.6907 -700.0763,1.6909 -733.7442,1.6908 -770.6954,1.6906 -898.4556,1.6893 " stroke="none" fill="red" stroke-width="0" shape-rendering="crispEdges" />
<polygon points="-942.4778,1.395 -942.4778,1.495 -916.4917,1.4951 -911.2128,1.4951 -891.858,1.4955 -878.3992,1.4958 -868.3856,1.496 -854.9837,1.4964 -808.1888,1.4979 -784.7741,1.4986 -774.5573,1.4988 -761.3261,1.4991 -751.0584,1.4993 -737.8319,1.4994 -727.5247,1.4995 -714.2829,1.4995 -703.952,1.4995 -690.6758,1.4994 -680.3403,1.4992 -667.0129,1.4989 -656.6928,1.4987 -643.3022,1.4983 -633.0165,1.498 -619.5565,1.4975 -572.0305,1.4957 -548.2889,1.4949 -538.2561,1.4946 -524.5861,1.4943 -514.6151,1.494 -500.9355,1.4938 -491.0131,1.4937 -477.3455,1.4936 -467.4536,1.4937 -453.8181,1.4938 -443.9358,1.4939 -430.3494,1.4941 -420.4551,1.4944 -406.9298,1.4947 -397.0034,1.495 -383.5455,1.4955 -336.8141,1.4973 -313.4314,1.4981 -303.2598,1.4984 -290.0156,1.4988 -279.7825,1.499 -266.5539,1.4992 -256.2706,1.4994 -243.0379,1.4995 -232.7202,1.4995 -219.4642,1.4995 -209.1308,1.4994 -195.8351,1.4992 -185.5059,1.499 -172.1584,1.4987 -161.8524,1.4984 -148.447,1.4981 -90.8321,1.4963 -67.1808,1.4957 -53.607,1.4954 -43.5594,1.4952 -29.9845,1.4951 -19.9753,1.495 -6.42,1.495 3.5682,1.4951 17.0846,1.4952 27.0717,1.4954 40.5332,1.4957 50.5398,1.496 63.9352,1.4964 73.9808,1.4967 87.3047,1.4972 134.0134,1.4991 157.3881,1.4999 167.6971,1.5003 180.7979,1.5006 191.1711,1.5009 204.2555,1.5011 214.6808,1.5013 227.7694,1.5014 238.2305,1.5014 251.343,1.5014 261.8205,1.5013 274.974,1.5011 285.4474,1.5009 298.655,1.5006 309.1046,1.5003 322.3737,1.4999 380.1488,1.498 403.8121,1.4973 417.2735,1.497 427.4474,1.4968 440.9181,1.4966 451.0472,1.4965 464.5072,1.4964 474.6078,1.4964 488.0386,1.4965 498.1297,1.4966 511.5158,1.4969 521.6177,1.4971 534.948,1.4974 545.0791,1.4977 558.3485,1.4981 615.4128,1.5 638.3744,1.5007 647.2947,1.4651 650.8125,1.3908 647.0183,1.3662 638.374,1.4007 628.5264,1.4004 605.1202,1.3997 568.5244,1.3984 545.0791,1.3977 534.948,1.3974 521.6177,1.3971 511.5158,1.3969 498.1298,1.3966 488.0386,1.3965 474.6078,1.3964 464.5072,1.3964 451.0472,1.3965 440.9181,1.3966 427.4474,1.3968 417.2735,1.397 403.8121,1.3973 380.1488,1.398 332.7821,1.3996 309.1046,1.4003 298.655,1.4006 285.4474,1.4009 274.974,1.4011 261.8205,1.4013 251.343,1.4014 238.2305,1.4014 227.7694,1.4014 214.6808,1.4013 204.2555,1.4011 191.1711,1.4009 180.7979,1.4006 167.6971,1.4003 157.3881,1.3999 134.0134,1.3991 97.4051,1.3976 73.9808,1.3967 63.9352,1.3964 50.5398,1.396 40.5332,1.3957 27.0717,1.3954 17.0846,1.3952 3.5682,1.3951 -6.42,1.395 -19.9753,1.395 -29.9846,1.3951 -43.5594,1.3952 -53.607,1.3954 -67.1808,1.3957 -90.8321,1.3963 -138.1807,1.3978 -161.8524,1.3984 -172.1584,1.3987 -185.5059,1.399 -195.8351,1.3992 -209.1308,1.3994 -219.4642,1.3995 -232.7202,1.3995 -243.0379,1.3995 -256.2706,1.3994 -266.5539,1.3992 -279.7825,1.399 -290.0156,1.3988 -303.2598,1.3984 -313.4314,1.3981 -326.71,1.3976 -373.5699,1.3959 -397.0034,1.395 -406.9298,1.3947 -420.4551,1.3944 -430.3494,1.3941 -443.9358,1.3939 -453.8181,1.3938 -467.4536,1.3937 -477.3455,1.3936 -491.0131,1.3937 -500.9355,1.3938 -514.6151,1.394 -524.5861,1.3943 -538.2561,1.3946 -548.2889,1.3949 -561.9285,1.3954 -609.3219,1.3971 -633.0165,1.398 -643.3022,1.3983 -656.6928,1.3987 -667.0129,1.3989 -680.3403,1.3992 -690.6758,1.3994 -703.952,1.3995 -714.2829,1.3995 -727.5247,1.3995 -737.8319,1.3994 -751.0584,1.3993 -761.3261,1.3991 -774.5573,1.3988 -784.7741,1.3986 -798.0288,1.3982 -844.9312,1.3967 -868.3856,1.396 -878.3992,1.3958 -891.858,1.3955 -916.4917,1.3951 NaN,NaN 647.2938,1.3651 651.2495,1.3795 651.2562,1.3815 651.3495,1.3795 651.2998,1.294 645.8289,1.2585 636.9091,1.2232 626.0897,1.2238 613.6417,1.2246 602.1896,1.2253 566.0198,1.2278 542.2254,1.2293 530.4604,1.2299 518.4752,1.2305 506.6643,1.231 494.7869,1.2313 482.9681,1.2316 471.1712,1.2317 459.3824,1.2316 447.6314,1.2315 435.907,1.2313 424.1638,1.2309 412.5319,1.2304 400.7587,1.2298 389.2386,1.2292 377.401,1.2284 366.002,1.2277 330.75,1.2253 307.4115,1.2238 296.3151,1.2232 284.0333,1.2226 272.9807,1.2222 260.5944,1.2219 249.5437,1.2217 237.0782,1.2216 225.9848,1.2217 213.4754,1.222 202.2968,1.2223 189.7855,1.2228 178.4867,1.2234 166.0182,1.2242 154.5754,1.225 142.192,1.226 130.5956,1.2269 94.4683,1.2298 70.6278,1.2316 58.6521,1.2324 46.8351,1.2331 34.7951,1.2337 23.1081,1.2342 11.0434,1.2346 -0.5428,1.2348 -12.593,1.2349 -24.1149,1.2349 -36.1154,1.2347 -47.6126,1.2345 -59.5345,1.2341 -71.0463,1.2336 -82.8696,1.2331 -94.4311,1.2324 -106.1459,1.2318 -141.1323,1.2296 -164.4928,1.2283 -175.9356,1.2277 -187.8899,1.2272 -199.2951,1.2268 -211.3437,1.2265 -222.7505,1.2264 -234.8696,1.2263 -246.3194,1.2264 -258.476,1.2266 -270.0074,1.227 -282.1625,1.2275 -293.8069,1.2281 -305.9191,1.2288 -317.6965,1.2295 -341.644,1.2312 -377.3948,1.2339 -401.1998,1.2355 -413.4404,1.2362 -424.9537,1.2368 -437.2379,1.2372 -448.6399,1.2376 -460.9275,1.2378 -472.2488,1.2379 -484.5005,1.2379 -495.7782,1.2377 -507.9585,1.2374 -519.2329,1.237 -531.3128,1.2365 -542.6231,1.2359 -554.5823,1.2352 -565.964,1.2344 -577.7924,1.2336 -612.5752,1.231 -635.8889,1.2293 -647.3738,1.2286 -659.2376,1.2279 -670.6595,1.2274 -682.6413,1.2269 -694.0384,1.2266 -706.1153,1.2263 -717.5284,1.2263 -729.6684,1.2263 -741.1359,1.2265 -753.3008,1.2268 -764.8544,1.2272 -777.0033,1.2277 -788.6637,1.2283 -800.7582,1.229 -812.533,1.2297 -848.3258,1.2319 -872.0851,1.2332 -884.1177,1.2337 -895.7968,1.2342 -907.8542,1.2345 -919.4439,1.2347 -935.6856,1.2349 -942.4778,1.235 -942.4778,1.335 -935.6856,1.3349 -919.4439,1.3347 -907.8542,1.3345 -895.7968,1.3342 -884.1177,1.3337 -872.0851,1.3332 -848.3258,1.3319 -812.533,1.3297 -800.7582,1.329 -788.6637,1.3283 -777.0033,1.3277 -764.8544,1.3272 -753.3008,1.3268 -741.1359,1.3265 -729.6684,1.3263 -717.5284,1.3263 -706.1153,1.3263 -694.0384,1.3266 -682.6413,1.3269 -670.6595,1.3274 -659.2376,1.3279 -647.3738,1.3286 -635.8889,1.3293 -612.5752,1.331 -577.7924,1.3336 -565.964,1.3344 -554.5824,1.3352 -542.6231,1.3359 -531.3128,1.3365 -519.2329,1.337 -507.9585,1.3374 -495.7782,1.3377 -484.5005,1.3379 -472.2488,1.3379 -460.9275,1.3378 -448.6399,1.3376 -437.2379,1.3372 -424.9537,1.3368 -413.4404,1.3362 -401.1998,1.3355 -377.3948,1.3339 -341.644,1.3312 -317.6965,1.3295 -305.9191,1.3288 -293.8069,1.3281 -282.1625,1.3275 -270.0074,1.327 -258.476,1.3266 -246.3194,1.3264 -234.8696,1.3263 -222.7505,1.3264 -211.3437,1.3265 -199.2951,1.3268 -187.8899,1.3272 -175.9356,1.3277 -164.4928,1.3283 -141.1323,1.3296 -106.1459,1.3318 -94.4311,1.3324 -82.8696,1.3331 -71.0463,1.3336 -59.5346,1.3341 -47.6126,1.3345 -36.1154,1.3347 -24.1149,1.3349 -12.593,1.3349 -0.5428,1.3348 11.0434,1.3346 23.1081,1.3342 34.7951,1.3337 46.8351,1.3331 58.6521,1.3324 70.6278,1.3316 94.4683,1.3298 130.5956,1.3269 142.192,1.326 154.5754,1.325 166.0182,1.3242 178.4867,1.3234 189.7855,1.3228 202.2968,1.3223 213.4754,1.322 225.9848,1.3217 237.0782,1.3216 249.5437,1.3217 260.5943,1.3219 272.9807,1.3222 284.0333,1.3226 296.3151,1.3232 307.4115,1.3238 330.75,1.3253 366.002,1.3277 377.401,1.3284 389.2386,1.3292 400.7587,1.3298 412.5319,1.3304 424.1638,1.3309 435.907,1.3313 447.6314,1.3315 459.3824,1.3316 471.1712,1.3317 482.9681,1.3316 494.7869,1.3313 506.6643,1.331 518.4752,1.3305 530.4604,1.3299 542.2254,1.3293 566.0198,1.3278 602.1896,1.3253 613.6417,1.3246 626.0897,1.3238 636.9091,1.3232 645.8285,1.3585 647.0183,1.3662 NaN,NaN 651.2991,1.394 651.2562,1.3815 650.8125,1.3908 " stroke="none" fill="red" stroke-width="0" shape-rendering="crispEdges" />
<polygon points="942.4778,1.335 942.4778,1.235 911.6362,1.2342 895.0181,1.2335 883.2267,1.2328 871.6567,1.2321 859.9993,1.2313 836.8292,1.2295 801.7819,1.2267 778.9933,1.2249 703.092,1.1009 627.2239,0.97712 551.8256,0.85365 475.7659,0.7304 399.8646,0.60731 388.4536,0.60762 376.7337,0.60773 364.853,0.60778 353.1962,0.6076 341.3497,0.60746 329.702,0.60724 317.8392,0.60719 306.1579,0.60723 294.2163,0.60751 282.5009,0.60792 258.7777,0.60894 246.7455,0.6093 235.1252,0.60945 223.1767,0.60931 211.6388,0.60892 199.811,0.60832 188.2812,0.60763 176.5296,0.60697 164.9161,0.60646 153.1562,0.60615 141.4221,0.60611 129.6047,0.60623 117.7944,0.60656 105.933,0.60684 94.131,0.6072 70.5218,0.60748 46.9811,0.6073 35.1552,0.60712 23.4577,0.60701 11.5994,0.60698 -0.12234,0.60708 -12.0671,0.60739 -23.8031,0.60779 -47.5572,0.60896 -59.6837,0.60961 -71.3009,0.61009 -83.4475,0.61054 -94.9589,0.61073 -107.0824,0.61086 -118.5178,0.61076 -130.6182,0.61069 -142.0336,0.61054 -154.16,0.61055 -165.5984,0.61065 -177.8076,0.61097 -189.2691,0.6114 -212.9929,0.61243 -225.283,0.61277 -236.6358,0.61292 -248.8389,0.61276 -260.1127,0.61236 -272.1949,0.61174 -283.4667,0.61105 -295.4719,0.61037 -306.8307,0.60985 -318.8376,0.6095 -330.3173,0.60942 -342.3686,0.60948 -353.9254,0.60973 -366.005,0.60992 -377.5601,0.61019 -401.137,0.61027 -424.6468,0.6099 -436.6477,0.60962 -448.1434,0.60943 -460.165,0.60931 -471.6995,0.60933 -483.7953,0.60955 -495.3563,0.60986 -519.084,0.61086 -531.3315,0.61142 -542.7977,0.6118 -555.0485,0.61214 -566.423,0.61223 -578.6337,0.61225 -602.1182,0.61186 -613.4294,0.61159 -625.6065,0.61148 -636.9578,0.61146 -649.1971,0.61164 -660.5889,0.61195 -684.2708,0.6127 -696.5496,0.61291 -707.8723,0.61292 -720.0445,0.61262 -731.3094,0.61209 -743.3406,0.61134 -754.6238,0.61051 -766.557,0.60969 -777.9467,0.60904 -789.8618,0.60855 -801.3925,0.60835 -813.3347,0.60828 -824.9635,0.60842 -836.9195,0.6085 -848.5663,0.60866 -872.1163,0.60855 -895.6008,0.60801 -907.4387,0.60764 -919.0704,0.60736 -928.4952,0.60709 -942.4778,0.60682 -942.4778,0.70682 -928.4952,0.70709 -919.0704,0.70736 -907.4387,0.70764 -895.6008,0.70801 -872.1163,0.70855 -848.5664,0.70866 -836.9195,0.7085 -824.9634,0.70842 -813.3347,0.70828 -801.3925,0.70835 -789.8618,0.70855 -777.9467,0.70904 -766.557,0.70969 -754.6238,0.71051 -743.3407,0.71134 -731.3094,0.71209 -720.0445,0.71262 -707.8723,0.71292 -696.5496,0.71291 -684.2708,0.7127 -660.5889,0.71195 -649.197,0.71164 -636.9578,0.71146 -625.6065,0.71148 -613.4294,0.71159 -602.1182,0.71186 -578.6337,0.71225 -566.423,0.71223 -555.0485,0.71214 -542.7977,0.7118 -531.3315,0.71142 -519.084,0.71086 -495.3563,0.70986 -483.7953,0.70955 -471.6995,0.70933 -460.165,0.70931 -448.1434,0.70943 -436.6477,0.70962 -424.6468,0.7099 -401.137,0.71027 -377.5601,0.71019 -366.005,0.70992 -353.9254,0.70973 -342.3686,0.70948 -330.3173,0.70942 -318.8376,0.7095 -306.8307,0.70985 -295.4719,0.71037 -283.4667,0.71105 -272.1949,0.71174 -260.1127,0.71236 -248.8389,0.71276 -236.6358,0.71292 -225.283,0.71277 -212.9928,0.71243 -189.2691,0.7114 -177.8075,0.71097 -165.5984,0.71065 -154.16,0.71055 -142.0336,0.71054 -130.6182,0.71069 -118.5178,0.71076 -107.0824,0.71086 -94.9589,0.71073 -83.4475,0.71054 -71.3009,0.71009 -59.6837,0.70961 -47.5572,0.70896 -23.8031,0.70779 -12.0671,0.70739 -0.12234,0.70708 11.5994,0.70698 23.4577,0.70701 35.1552,0.70712 46.9811,0.7073 70.5218,0.70748 94.131,0.7072 105.933,0.70684 117.7944,0.70656 129.6047,0.70623 141.4221,0.70611 153.1562,0.70615 164.9161,0.70646 176.5296,0.70697 188.2812,0.70763 199.811,0.70832 211.6388,0.70892 223.1767,0.70931 235.1252,0.70945 246.7455,0.7093 258.7777,0.70894 282.5009,0.70792 294.2163,0.70751 306.1579,0.70723 317.8392,0.70719 329.702,0.70724 341.3497,0.70746 353.1962,0.7076 364.853,0.70778 376.7337,0.70773 388.4536,0.70762 399.8646,0.70731 475.7657,0.8304 551.8255,0.95365 627.2237,1.0771 703.0918,1.2009 778.9932,1.3249 801.7819,1.3267 836.8292,1.3295 859.9993,1.3313 871.6567,1.3321 883.2266,1.3328 895.0181,1.3335 911.6362,1.3342 " stroke="none" fill="red" stroke-width="0" shape-rendering="crispEdges" />
<polygon points="942.4778,0.70682 942.4778,0.60682 911.7271,0.60751 904.4607,0.60785 883.009,0.60868 871.3482,0.60898 859.3284,0.60924 847.7452,0.60924 835.7759,0.60918 812.3232,0.60864 800.7811,0.60831 788.8663,0.60813 777.2736,0.60805 765.301,0.60819 753.6568,0.60847 729.9762,0.60922 717.9556,0.60943 706.3662,0.60945 694.4488,0.60917 682.9203,0.60864 671.1436,0.60791 659.6023,0.60708 647.9222,0.60628 636.2776,0.60564 624.6088,0.6052 612.8235,0.60504 601.1139,0.60504 589.2321,0.60526 577.4923,0.60543 565.5992,0.60569 542.5211,0.60579 513.7424,0.34348 485.3767,0.081219 457.1023,-0.18121 428.737,-0.44347 399.9578,-0.70579 376.8798,-0.7057 364.9879,-0.70544 353.2475,-0.70527 341.3668,-0.70505 329.6565,-0.70505 317.8725,-0.70522 306.2025,-0.70566 294.5589,-0.7063 282.8776,-0.7071 271.3374,-0.70792 259.5595,-0.70866 248.0315,-0.70918 236.1132,-0.70946 224.5243,-0.70944 212.5026,-0.70922 188.8215,-0.70848 177.1771,-0.70819 165.204,-0.70805 153.6112,-0.70813 141.6964,-0.70831 130.154,-0.70864 106.7015,-0.70918 94.7324,-0.70924 83.1497,-0.70924 71.1301,-0.70898 59.47,-0.70869 47.443,-0.70822 23.7455,-0.70742 12.022,-0.70719 0.12011,-0.70708 -11.5627,-0.70715 -23.4063,-0.70736 -35.038,-0.70764 -46.8764,-0.70801 -70.3616,-0.70855 -93.9119,-0.70866 -105.5595,-0.70849 -117.5154,-0.70841 -129.1447,-0.70827 -141.0867,-0.70834 -152.6177,-0.70855 -164.5321,-0.70903 -175.9221,-0.70968 -187.8547,-0.71051 -199.1378,-0.71133 -211.1687,-0.71209 -222.4334,-0.71262 -234.6053,-0.71292 -245.9276,-0.71291 -258.2063,-0.71271 -281.888,-0.71195 -293.2793,-0.71165 -305.5191,-0.71146 -316.87,-0.71149 -329.0476,-0.7116 -340.3585,-0.71186 -363.8434,-0.71225 -376.0544,-0.71223 -387.4291,-0.71215 -399.6801,-0.7118 -411.1468,-0.71142 -423.3943,-0.71085 -447.1224,-0.70986 -458.684,-0.70954 -470.7793,-0.70932 -482.3141,-0.7093 -494.3353,-0.70942 -505.8311,-0.70961 -517.8314,-0.7099 -541.3408,-0.71027 -564.9171,-0.71019 -576.4717,-0.70993 -588.5514,-0.70974 -600.1078,-0.70948 -612.1595,-0.70943 -623.6385,-0.70951 -635.6459,-0.70985 -647.0041,-0.71037 -659.0097,-0.71106 -670.281,-0.71175 -682.3639,-0.71236 -693.6374,-0.71276 -705.8411,-0.71292 -717.1938,-0.71278 -729.4845,-0.71243 -753.2088,-0.7114 -764.6709,-0.71096 -776.8802,-0.71064 -788.3192,-0.71054 -800.4453,-0.71053 -811.8613,-0.71068 -823.9611,-0.71075 -835.3968,-0.71085 -847.5198,-0.71072 -859.0311,-0.71054 -871.1771,-0.71009 -882.794,-0.70962 -894.9202,-0.70896 -918.6738,-0.7078 -935.3313,-0.70707 -942.4778,-0.70684 -942.4778,-0.60684 -935.3313,-0.60707 -918.6738,-0.6078 -894.9202,-0.60896 -882.794,-0.60962 -871.1771,-0.61009 -859.0311,-0.61054 -847.5198,-0.61072 -835.3968,-0.61085 -823.9611,-0.61075 -811.8613,-0.61068 -800.4453,-0.61053 -788.3192,-0.61054 -776.8802,-0.61064 -764.6709,-0.61096 -753.2088,-0.6114 -729.4844,-0.61243 -717.1938,-0.61278 -705.8411,-0.61292 -693.6374,-0.61276 -682.3639,-0.61236 -670.281,-0.61175 -659.0097,-0.61106 -647.0041,-0.61037 -635.6459,-0.60985 -623.6385,-0.60951 -612.1595,-0.60943 -600.1078,-0.60948 -588.5514,-0.60974 -576.4717,-0.60993 -564.9171,-0.61019 -541.3408,-0.61027 -517.8314,-0.6099 -505.8311,-0.60961 -494.3353,-0.60942 -482.3141,-0.6093 -470.7793,-0.60932 -458.684,-0.60954 -447.1224,-0.60986 -423.3943,-0.61085 -411.1468,-0.61142 -399.6801,-0.6118 -387.4291,-0.61215 -376.0544,-0.61223 -363.8434,-0.61225 -340.3585,-0.61186 -329.0476,-0.6116 -316.87,-0.61149 -305.5191,-0.61146 -293.2793,-0.61165 -281.888,-0.61195 -258.2063,-0.61271 -245.9276,-0.61291 -234.6053,-0.61292 -222.4334,-0.61262 -211.1687,-0.61209 -199.1379,-0.61133 -187.8547,-0.61051 -175.9221,-0.60968 -164.5321,-0.60903 -152.6177,-0.60855 -141.0867,-0.60834 -129.1447,-0.60827 -117.5154,-0.60841 -105.5595,-0.60849 -93.9119,-0.60866 -70.3616,-0.60855 -46.8764,-0.60801 -35.038,-0.60764 -23.4063,-0.60736 -11.5627,-0.60715 0.12011,-0.60708 12.022,-0.60719 23.7455,-0.60742 47.443,-0.60822 59.47,-0.60869 71.1301,-0.60898 83.1497,-0.60924 94.7324,-0.60924 106.7015,-0.60918 130.154,-0.60864 141.6964,-0.60831 153.6112,-0.60813 165.204,-0.60805 177.1771,-0.60819 188.8215,-0.60848 212.5026,-0.60922 224.5243,-0.60944 236.1132,-0.60946 248.0315,-0.60918 259.5595,-0.60866 271.3374,-0.60792 282.8776,-0.6071 294.5589,-0.6063 306.2025,-0.60566 317.8725,-0.60522 329.6565,-0.60505 341.3668,-0.60505 353.2475,-0.60527 364.9879,-0.60544 376.8798,-0.6057 399.9578,-0.60579 428.7361,-0.34348 457.1014,-0.081219 485.3757,0.18121 513.7415,0.44347 542.5202,0.70578 565.5992,0.70569 577.4923,0.70543 589.2321,0.70526 601.1139,0.70504 612.8235,0.70504 624.6088,0.7052 636.2776,0.70564 647.9222,0.70628 659.6023,0.70708 671.1436,0.70791 682.9203,0.70864 694.4488,0.70917 706.3662,0.70945 717.9556,0.70943 729.9762,0.70922 753.6568,0.70847 765.301,0.70819 777.2736,0.70805 788.8663,0.70813 800.7811,0.70831 812.3232,0.70864 835.7759,0.70918 847.7452,0.70924 859.3284,0.70924 871.3482,0.70898 883.009,0.70868 904.4607,0.70785 911.7271,0.70751 " stroke="none" fill="red" stroke-width="0" shape-rendering="crispEdges" />
<polygon points="942.4778,-0.60684 942.4778,-0.70684 911.9072,-0.70705 904.9226,-0.70714 895.4978,-0.70731 871.9567,-0.70748 848.3471,-0.7072 836.5447,-0.70684 824.683,-0.70656 812.8723,-0.70623 801.055,-0.70611 789.3205,-0.70614 777.5609,-0.70645 765.9475,-0.70696 754.1962,-0.70762 742.6666,-0.70832 730.8391,-0.70892 719.3019,-0.70932 707.3534,-0.70946 695.7341,-0.7093 683.7018,-0.70895 659.9791,-0.70793 648.265,-0.70752 636.3223,-0.70725 624.6423,-0.70721 612.7783,-0.70725 601.1315,-0.70748 589.2836,-0.70761 577.6272,-0.70779 565.7453,-0.70774 554.0252,-0.70763 542.6134,-0.70731 466.7122,-0.8304 390.6526,-0.95365 315.2544,-1.0771 239.3869,-1.2009 163.4855,-1.3249 140.6969,-1.3267 105.6507,-1.3295 82.4807,-1.3313 70.8226,-1.3321 59.2534,-1.3328 47.4613,-1.3335 35.9439,-1.334 24.0373,-1.3344 12.5337,-1.3346 0.54094,-1.3348 -10.9876,-1.3348 -23.0322,-1.3347 -34.6213,-1.3345 -46.6796,-1.3342 -58.3582,-1.3337 -70.3916,-1.3332 -94.1514,-1.3319 -129.9449,-1.3297 -153.8144,-1.3283 -165.4747,-1.3277 -177.6238,-1.3272 -189.1773,-1.3268 -201.3424,-1.3265 -212.8098,-1.3263 -224.9504,-1.3263 -236.3632,-1.3263 -248.441,-1.3266 -259.8378,-1.3269 -271.8206,-1.3274 -283.2419,-1.3279 -295.107,-1.3286 -306.5912,-1.3293 -329.9054,-1.331 -364.6899,-1.3336 -387.8996,-1.3352 -399.8574,-1.3359 -411.1684,-1.3365 -423.247,-1.337 -434.5217,-1.3374 -446.7007,-1.3377 -457.9782,-1.3379 -470.229,-1.3379 -481.5493,-1.3378 -493.8366,-1.3376 -505.237,-1.3372 -517.5216,-1.3368 -529.0329,-1.3362 -541.2746,-1.3355 -565.0792,-1.3339 -600.828,-1.3313 -624.7757,-1.3296 -636.5551,-1.3288 -648.6659,-1.3281 -660.3122,-1.3275 -672.4662,-1.327 -683.9993,-1.3267 -696.1553,-1.3264 -707.6064,-1.3263 -719.7251,-1.3264 -731.1331,-1.3265 -743.1816,-1.3268 -754.5876,-1.3272 -766.5421,-1.3277 -777.9853,-1.3283 -801.346,-1.3296 -836.3322,-1.3318 -848.0468,-1.3324 -859.6084,-1.3331 -871.4316,-1.3336 -882.9435,-1.3341 -894.8655,-1.3345 -906.3633,-1.3347 -918.3637,-1.3349 -935.1261,-1.335 -942.4778,-1.335 -942.4778,-1.235 -935.1261,-1.235 -918.3637,-1.2349 -906.3633,-1.2347 -894.8655,-1.2345 -882.9436,-1.2341 -871.4316,-1.2336 -859.6084,-1.2331 -848.0468,-1.2324 -836.3322,-1.2318 -801.346,-1.2296 -777.9853,-1.2283 -766.5421,-1.2277 -754.5876,-1.2272 -743.1816,-1.2268 -731.1331,-1.2265 -719.7252,-1.2264 -707.6064,-1.2263 -696.1553,-1.2264 -683.9993,-1.2267 -672.4662,-1.227 -660.3121,-1.2275 -648.6659,-1.2281 -636.5551,-1.2288 -624.7757,-1.2296 -612.7469,-1.2304 -565.0791,-1.2339 -541.2746,-1.2355 -529.0329,-1.2362 -517.5216,-1.2368 -505.237,-1.2372 -493.8366,-1.2376 -481.5493,-1.2378 -470.229,-1.2379 -457.9782,-1.2379 -446.7007,-1.2377 -434.5217,-1.2374 -423.247,-1.237 -411.1684,-1.2365 -399.8574,-1.2359 -387.8996,-1.2352 -364.6899,-1.2336 -329.9054,-1.231 -306.5912,-1.2293 -295.107,-1.2286 -283.242,-1.2279 -271.8206,-1.2274 -259.8378,-1.2269 -248.441,-1.2266 -236.3632,-1.2263 -224.9504,-1.2263 -212.8098,-1.2263 -201.3424,-1.2265 -189.1773,-1.2268 -177.6238,-1.2272 -165.4747,-1.2277 -153.8144,-1.2283 -129.9449,-1.2297 -94.1514,-1.2319 -70.3916,-1.2332 -58.3582,-1.2337 -46.6796,-1.2342 -34.6213,-1.2345 -23.0321,-1.2347 -10.9876,-1.2348 0.54094,-1.2348 12.5337,-1.2346 24.0373,-1.2344 35.9439,-1.234 47.4612,-1.2335 59.2534,-1.2328 70.8226,-1.2321 82.4807,-1.2313 105.6506,-1.2295 140.6969,-1.2267 163.4855,-1.2249 239.3868,-1.1009 315.2543,-0.97712 390.6525,-0.85365 466.712,-0.7304 542.6132,-0.60731 554.0252,-0.60763 565.7453,-0.60774 577.6272,-0.60779 589.2836,-0.60761 601.1315,-0.60748 612.7783,-0.60725 624.6423,-0.60721 636.3223,-0.60725 648.265,-0.60752 659.9791,-0.60793 683.7018,-0.60895 695.7341,-0.6093 707.3534,-0.60946 719.3019,-0.60932 730.8391,-0.60892 742.6666,-0.60832 754.1962,-0.60762 765.9475,-0.60696 777.5609,-0.60645 789.3205,-0.60614 801.055,-0.60611 812.8723,-0.60623 824.683,-0.60656 836.5447,-0.60684 848.3471,-0.6072 871.9567,-0.60748 895.4978,-0.60731 904.9226,-0.60714 911.9072,-0.60705 " stroke="none" fill="red" stroke-width="0" shape-rendering="crispEdges" />
<polygon points="942.4778,-1.235 942.4778,-1.335 912.0407,-1.334 905.0645,-1.3337 895.6398,-1.3331 883.8212,-1.3324 871.8468,-1.3316 859.8797,-1.3307 848.0064,-1.3298 824.1427,-1.3279 811.8789,-1.3269 800.284,-1.3259 787.9003,-1.325 776.4587,-1.3242 763.9902,-1.3234 752.692,-1.3228 740.1809,-1.3223 729.0026,-1.322 716.4932,-1.3217 705.3997,-1.3216 692.9339,-1.3217 681.8831,-1.3219 669.4959,-1.3222 658.4434,-1.3226 646.1603,-1.3232 635.0642,-1.3238 622.8996,-1.3245 611.7248,-1.3253 576.4702,-1.3277 565.0729,-1.3284 553.2335,-1.3292 541.7153,-1.3298 529.9404,-1.3304 518.3105,-1.3309 506.566,-1.3312 494.8435,-1.3315 483.0915,-1.3316 471.3044,-1.3317 459.5071,-1.3315 447.6897,-1.3313 435.8122,-1.331 424.0022,-1.3305 412.0172,-1.3299 400.2526,-1.3293 388.1434,-1.3285 376.4589,-1.3278 340.2911,-1.3253 328.8383,-1.3246 316.3916,-1.3238 305.5715,-1.3232 296.652,-1.3585 293.4892,-1.35 291.7425,-1.3345 296.6513,-1.2585 305.5711,-1.2232 316.3916,-1.2238 328.8383,-1.2246 340.2911,-1.2253 376.4589,-1.2278 388.1434,-1.2285 400.2526,-1.2293 412.0172,-1.2299 424.0022,-1.2305 435.8122,-1.231 447.6897,-1.2313 459.5071,-1.2315 471.3044,-1.2317 483.0915,-1.2316 494.8435,-1.2315 506.566,-1.2312 518.3105,-1.2309 529.9404,-1.2304 541.7153,-1.2298 553.2335,-1.2292 565.0729,-1.2284 576.4702,-1.2277 611.7248,-1.2253 622.8996,-1.2245 635.0642,-1.2238 646.1603,-1.2232 658.4434,-1.2226 669.4959,-1.2222 681.8831,-1.2219 692.9339,-1.2217 705.3997,-1.2216 716.4932,-1.2217 729.0026,-1.222 740.1809,-1.2223 752.692,-1.2228 763.9902,-1.2234 776.4587,-1.2242 787.9004,-1.225 800.284,-1.2259 811.8789,-1.2269 824.1427,-1.2279 848.0064,-1.2298 859.8798,-1.2307 871.8468,-1.2316 883.8212,-1.2324 895.6398,-1.2331 905.0645,-1.2337 912.0407,-1.234 NaN,NaN 291.1294,-1.344 291.2243,-1.3425 291.2294,-1.344 293.4892,-1.35 295.1829,-1.3651 304.1027,-1.4007 313.9501,-1.4004 327.064,-1.4 337.3564,-1.3997 373.9532,-1.3984 384.1295,-1.3981 397.3991,-1.3977 407.5309,-1.3974 420.8612,-1.3971 430.964,-1.3969 444.3497,-1.3966 454.4423,-1.3965 467.8724,-1.3964 477.9745,-1.3964 491.4336,-1.3965 501.5644,-1.3966 515.0338,-1.3968 525.2095,-1.397 538.6693,-1.3973 548.9014,-1.3976 562.3325,-1.398 572.6267,-1.3983 609.6982,-1.3996 620.1075,-1.3999 633.3752,-1.4003 643.8253,-1.4006 657.0319,-1.4009 667.5056,-1.4011 680.6583,-1.4013 691.1359,-1.4014 704.2477,-1.4014 714.7088,-1.4014 727.797,-1.4013 738.2223,-1.4011 751.3066,-1.4009 761.6798,-1.4006 774.7807,-1.4003 785.0898,-1.3999 798.2264,-1.3995 808.4647,-1.3991 845.0732,-1.3976 855.1737,-1.3972 868.4974,-1.3967 878.543,-1.3964 891.9382,-1.396 911.2753,-1.3954 916.5693,-1.3953 942.4778,-1.395 942.4778,-1.495 916.5693,-1.4953 911.2753,-1.4954 891.9382,-1.496 878.543,-1.4964 868.4974,-1.4967 855.1737,-1.4972 845.0732,-1.4976 808.4647,-1.4991 798.2264,-1.4995 785.0898,-1.4999 774.7807,-1.5003 761.6798,-1.5006 751.3066,-1.5009 738.2223,-1.5011 727.797,-1.5013 714.7088,-1.5014 704.2477,-1.5014 691.1359,-1.5014 680.6583,-1.5013 667.5056,-1.5011 657.0319,-1.5009 643.8253,-1.5006 633.3752,-1.5003 620.1075,-1.4999 609.6982,-1.4996 572.6267,-1.4983 562.3325,-1.498 548.9014,-1.4976 538.6693,-1.4973 525.2095,-1.497 515.0338,-1.4968 501.5644,-1.4966 491.4336,-1.4965 477.9745,-1.4964 467.8724,-1.4964 454.4423,-1.4965 444.3497,-1.4966 430.964,-1.4969 420.8612,-1.4971 407.5309,-1.4974 397.3991,-1.4977 384.1295,-1.4981 373.9532,-1.4984 337.3564,-1.4997 327.064,-1.5 313.9501,-1.5004 304.1027,-1.5007 295.1825,-1.4651 291.1789,-1.4295 NaN,NaN 291.1798,-1.3295 291.7425,-1.3345 291.2243,-1.3425 " stroke="none" fill="red" stroke-width="0" shape-rendering="crispEdges" />
<polygon points="-942.4778,-1.495 -942.4778,-1.395 -930.8055,-1.395 -912.4959,-1.3951 -898.9204,-1.3952 -888.8737,-1.3954 -875.2989,-1.3956 -851.6472,-1.3963 -804.2974,-1.3977 -780.6252,-1.3984 -756.9718,-1.399 -746.6428,-1.3992 -733.3472,-1.3994 -723.0144,-1.3995 -709.7584,-1.3995 -699.4417,-1.3995 -686.2087,-1.3994 -675.9266,-1.3992 -662.6975,-1.399 -652.4658,-1.3987 -639.2207,-1.3984 -615.7707,-1.3976 -558.9373,-1.3955 -535.5527,-1.3947 -522.0257,-1.3943 -512.1324,-1.3941 -498.5444,-1.3939 -488.6626,-1.3937 -475.0258,-1.3936 -465.134,-1.3936 -451.4654,-1.3937 -441.5427,-1.3938 -427.8625,-1.394 -417.8911,-1.3943 -404.2209,-1.3946 -380.5482,-1.3954 -333.1551,-1.3971 -309.461,-1.398 -285.7855,-1.3987 -275.466,-1.3989 -262.1386,-1.3992 -251.8041,-1.3994 -238.5274,-1.3995 -228.198,-1.3995 -214.9556,-1.3995 -204.65,-1.3994 -191.4225,-1.3993 -181.1564,-1.3991 -167.9239,-1.3988 -144.4526,-1.3982 -87.5002,-1.3964 -64.0843,-1.3958 -50.6235,-1.3955 -40.6336,-1.3953 -27.1221,-1.3951 -17.1345,-1.395 -3.5844,-1.395 6.422,-1.3951 19.994,-1.3952 30.039,-1.3953 43.6133,-1.3956 53.7137,-1.3959 67.2693,-1.3963 90.9543,-1.3971 138.3653,-1.399 161.5608,-1.3999 237.4635,-1.4578 315.8658,-1.5158 391.264,-1.5736 469.6169,-1.6315 545.5193,-1.6892 662.9908,-1.6903 699.9901,-1.6905 733.6942,-1.6905 770.6321,-1.6903 898.4451,-1.6893 942.4778,-1.6891 942.4778,-1.7891 929.7844,-1.7892 874.9041,-1.7894 770.6321,-1.7903 733.6942,-1.7905 699.9901,-1.7905 686.5695,-1.7904 639.403,-1.7901 545.5193,-1.7892 469.6168,-1.7315 391.264,-1.6736 315.8657,-1.6158 237.4635,-1.5578 161.5607,-1.4999 148.7445,-1.4994 90.9543,-1.4971 67.2693,-1.4963 53.7137,-1.4959 43.6133,-1.4956 30.039,-1.4953 19.994,-1.4952 6.4219,-1.4951 -3.5844,-1.495 -17.1345,-1.495 -27.1221,-1.4951 -40.6336,-1.4953 -50.6235,-1.4955 -64.0843,-1.4958 -87.5002,-1.4964 -144.4526,-1.4982 -167.9239,-1.4988 -181.1564,-1.4991 -191.4225,-1.4993 -204.65,-1.4994 -214.9556,-1.4995 -228.198,-1.4995 -238.5274,-1.4995 -251.8041,-1.4994 -262.1386,-1.4992 -275.466,-1.4989 -285.7855,-1.4987 -309.461,-1.498 -322.9206,-1.4975 -380.5482,-1.4954 -404.2209,-1.4946 -417.8911,-1.4943 -427.8625,-1.494 -441.5427,-1.4938 -451.4654,-1.4937 -465.134,-1.4936 -475.0258,-1.4936 -488.6626,-1.4937 -498.5444,-1.4939 -512.1324,-1.4941 -522.0257,-1.4943 -535.5527,-1.4947 -558.9373,-1.4955 -615.7707,-1.4976 -639.2207,-1.4984 -652.4658,-1.4987 -662.6975,-1.499 -675.9266,-1.4992 -686.2087,-1.4994 -699.4416,-1.4995 -709.7584,-1.4995 -723.0144,-1.4995 -733.3472,-1.4994 -746.6428,-1.4992 -756.9718,-1.499 -770.3192,-1.4987 -794.0311,-1.4981 -851.6472,-1.4963 -875.2989,-1.4956 -888.8737,-1.4954 -898.9204,-1.4952 -912.4959,-1.4951 -930.8055,-1.495 " stroke="none" fill="red" stroke-width="0" shape-rendering="crispEdges" />
<polygon points="-942.4778,-1.7891 -942.4778,-1.6891 -917.457,-1.6892 -878.8828,-1.6894 -760.812,-1.6906 -737.2178,-1.6908 -713.6391,-1.6909 -690.0772,-1.6909 -666.5317,-1.6908 -632.8825,-1.6906 -538.7638,-1.6897 -501.8846,-1.6895 -478.3359,-1.6894 -454.7713,-1.6895 -431.1908,-1.6895 -407.5963,-1.6897 -289.5588,-1.6907 -265.9718,-1.6908 -242.4003,-1.6909 -218.8457,-1.6908 -195.3074,-1.6907 -171.7836,-1.6906 -54.2331,-1.6894 -30.7036,-1.6893 -7.1591,-1.6892 16.4018,-1.6892 39.9788,-1.6892 63.57,-1.6893 181.5954,-1.6903 205.181,-1.6904 228.7516,-1.6905 252.306,-1.6904 275.8449,-1.6904 299.3702,-1.6902 393.4144,-1.6893 413.0561,-1.724 431.9053,-1.7587 446.8518,-1.7934 471.237,-1.8629 471.2367,-1.9629 446.8515,-1.8934 431.9051,-1.8587 413.0559,-1.824 393.4142,-1.7893 333.0497,-1.7899 285.9889,-1.7903 262.4474,-1.7904 238.896,-1.7905 215.3336,-1.7905 191.7605,-1.7904 168.1779,-1.7902 87.1722,-1.7895 50.2213,-1.7893 26.644,-1.7892 3.0772,-1.7892 -20.4785,-1.7892 -44.0233,-1.7893 -67.5588,-1.7895 -148.2707,-1.7904 -185.1926,-1.7907 -208.7333,-1.7908 -232.2847,-1.7909 -255.8475,-1.7908 -279.4214,-1.7907 -303.005,-1.7906 -383.991,-1.7899 -420.9703,-1.7896 -444.5498,-1.7895 -468.119,-1.7894 -491.6773,-1.7895 -515.2251,-1.7896 -538.7638,-1.7897 -619.4805,-1.7905 -656.4193,-1.7907 -679.9649,-1.7908 -703.5211,-1.7909 -727.0887,-1.7908 -750.6675,-1.7907 -774.2559,-1.7905 -878.8828,-1.7894 -911.9292,-1.7892 " stroke="none" fill="red" stroke-width="0" shape-rendering="crispEdges" />
<line x1="918.9159" y1="2.5" x2="918.9159" y2="-2.5" stroke="red" stroke-width="0.1"/>
<line x1="918.9159" y1="-2.5" x2="-942.4778" y2="-2.5" stroke="red" stroke-width="0.1"/>
<line x1="-942.4778" y1="-2.5" x2="-942.4778" y2="2.5" stroke="red" stroke-width="0.1"/>
<line x1="-942.4778" y1="2.5" x2="918.9159" y2="2.5" stroke="red" stroke-width="0.1"/>
"/>
</svg>