<!DOCTYPE svg PUBLIC "-//W3C//DTD SVG 1.1//EN" "http://www.w3.org/Graphics/SVG/1.1/DTD/svg11.dtd">
<svg xmlns="http://www.w3.org/2000/svg" version="1.200000" width="-1845.6857mm" height="-1500mm" xmlns:xlink="http://www.w3.org/1999/xlink">
<polygon points="-525.2668,748.4904 -521.8677,763.1002 -456.5506,747.7058 -441.8387,747.6866 -426.0842,747.6069 -409.2634,747.4178 -392.4567,747.2276 -375.5244,746.8798 -358.6977,746.5295 -341.7347,745.9623 -319.0402,745.4932 -301.8668,744.5775 -279.523,743.833 -257.3954,743.0803 -235.1717,741.7915 -213.1964,740.4645 -191.1908,737.8521 -168.1694,734.4986 -151.1166,725.8647 -131.5877,716.4434 -119.8286,704.7868 -105.8577,687.1693 -97.4283,662.0718 -90.3237,630.1309 -84.6034,597.1226 -78.0347,563.4859 -73.6731,524.5253 -68.4235,484.4918 -64.5588,452.8807 -60.156,415.5132 -55.1303,373.7124 -48.701,328.9532 -43.5628,294.0046 -38.8286,264.0554 -30.8142,226.9514 -20.3649,190.9782 -10.5957,165.711 5.1867,135.8795 20.2449,107.3998 30.9594,93.3996 43.4994,82.0364 56.0437,74.5524 65.8628,70.5935 81.0884,64.4893 99.1148,58.5075 116.6509,54.6407 136.6133,50.6819 157.4672,45.8455 178.0662,43.1857 197.8137,39.8929 218.751,38.0282 237.8512,35.6997 259.0661,34.3619 277.8443,32.6779 295.7341,31.4595 314.1762,30.2497 332.0041,29.3902 350.0759,28.5367 371.4677,28.0472 392.8305,27.7209 414.3209,27.3876 435.7511,27.1967 453.4697,27.0471 471.2032,26.9146 488.9983,26.9901 506.7217,27.0872 528.1331,27.2232 549.6747,27.5062 571.0112,27.7926 592.4754,28.2469 613.5102,28.6935 631.4326,29.5296 652.2227,30.1771 670.2587,31.3717 690.6446,32.2771 708.9029,33.9558 728.8053,35.2036 747.2935,37.5612 766.453,39.2805 785.2974,42.6375 803.4558,45.0403 822.6392,50.004 839.2314,53.4964 858.7153,61.2689 873.8429,67.2445 885.921,73.3402 898.355,80.4848 911.5532,92.2048 919.3948,100.4146 927.2093,108.6356 933.6951,115.0022 935.783,119.1367 949.1726,112.3751 947.0847,108.2406 938.0848,98.3048 930.2668,90.0802 922.4004,81.8443 908.3303,69.2825 893.5241,60.4098 880.6161,53.8607 864.2524,47.3282 844.7893,39.564 825.8179,35.3447 807.2178,30.5197 787.3082,27.7729 769.0889,24.5139 748.6556,22.6231 730.7067,20.3245 709.8528,18.9859 692.0205,17.3403 670.9303,16.3868 653.2155,15.21 631.9029,14.5369 614.2099,13.7098 592.7955,13.2503 571.3286,12.7959 549.8761,12.5076 528.3301,12.2245 506.8171,12.0875 489.0805,11.9903 471.2668,11.9148 453.3581,12.0475 435.6244,12.1973 414.1873,12.3882 392.5979,12.7227 371.2386,13.0489 349.7329,13.5407 331.2984,14.4068 313.4539,15.2671 294.7531,16.4916 276.8251,17.7126 257.7277,19.4217 236.9091,20.7293 216.9455,23.1373 196.4858,24.9518 175.6149,28.3873 155.5497,30.9686 133.2491,36.064 113.7356,39.9267 95.8862,43.8591 76.3931,50.2431 60.2931,56.6659 50.4347,60.6406 35.8876,69.1112 20.9814,82.1996 8.3979,98.1994 -8.0501,128.8235 -23.8545,158.6964 -34.3455,185.543 -45.2156,222.7563 -53.4889,260.8813 -58.378,291.6568 -63.5414,326.7711 -69.9779,371.5796 -75.0487,413.7219 -79.4557,451.1255 -83.3126,482.6714 -88.5458,522.575 -92.9415,561.8166 -99.3232,594.2368 -105.1033,627.5688 -112.0696,658.8112 -120.0694,682.3706 -131.3716,695.2078 -142.1239,705.7668 -157.349,712.2207 -174.9408,721.114 -193.0749,722.9709 -214.9645,725.5691 -236.0672,726.8182 -258.2638,728.1055 -280.0314,728.8416 -302.3664,729.5858 -319.8376,730.5144 -342.0421,730.9654 -359.1985,731.5379 -375.836,731.8831 -392.7648,732.2308 -409.4329,732.4188 -426.2529,732.6078 -441.9144,732.6867 -456.5702,732.7058 " stroke="none" fill="blue" stroke-width="0" shape-rendering="crispEdges" />
<polygon points="-935.6794,112.5887 -949.2762,118.9231 -925.0605,170.688 -920.8055,185.4605 -916.5841,200.2412 -910.2042,225.4216 -905.2222,251.0606 -901.3455,274.1348 -896.6504,304.2726 -891.5646,339.1298 -887.3421,373.5191 -882.3094,415.5096 -877.9146,452.9407 -874.0636,484.559 -868.7842,524.8796 -861.3028,566.768 -854.8013,599.9555 -847.2859,633.5102 -837.9284,666.7138 -824.0635,692.2048 -810.735,708.1285 -792.9255,719.646 -775.0077,728.653 -751.2295,737.874 -728.8458,740.5131 -707.2919,741.7999 -684.9017,743.0942 -662.9489,743.8377 -640.7582,744.5746 -623.1919,745.5047 -600.8389,745.9617 -583.6851,746.5337 -566.9513,746.8813 -549.9516,747.2299 -533.2192,747.4187 -517.068,747.6036 -311.9879,740.5744 -108.795,733.485 84.4754,726.3955 271.9558,719.2133 355.0792,708.8818 354.9573,708.8745 333.3715,707.0434 330.9825,706.8313 271.353,704.2254 83.9012,711.4065 -109.3449,718.495 -312.511,725.5835 -517.5819,732.6124 -533.04,732.4197 -549.7824,732.2309 -566.6434,731.8844 -583.3736,731.5369 -600.3385,730.9701 -622.8848,730.5078 -639.9617,729.5957 -662.4501,728.846 -684.394,728.1028 -706.4248,726.825 -727.9518,725.5398 -749.4647,722.9782 -769.4442,714.7229 -786.1695,706.2536 -802.563,695.55 -812.3912,682.7837 -824.7198,659.6051 -832.8263,629.5202 -840.1631,596.681 -846.5824,563.8854 -854.0178,522.2427 -859.1902,482.6146 -863.0246,451.1273 -867.4117,413.7605 -872.4486,371.7341 -876.6764,337.3018 -881.8074,302.1078 -886.5242,271.826 -890.4294,248.5757 -895.4794,222.5617 -902.0419,196.5637 -906.3813,181.3444 -910.6465,166.5364 NaN,NaN 450.0907,712.0364 361.0167,708.1438 355.0792,708.8818 375.6235,710.1043 394.2813,710.7359 414.7497,711.4322 433.5258,711.7361 NaN,NaN 312.5346,705.1932 330.9825,706.8313 361.0167,708.1438 450.3626,697.0389 433.7676,696.7381 415.2596,696.4408 394.7868,695.7444 376.5129,695.1307 356.2252,693.9282 334.696,692.102 314.2771,690.2948 292.1456,687.7066 271.286,685.1047 254.4914,683.1424 236.8802,680.3872 220.8473,677.6566 208.0018,675.0742 193.098,671.4687 179.2771,667.5906 170.5764,664.453 156.2677,658.6287 139.7092,649.218 123.8307,639.2686 105.656,626.4483 84.0768,605.2204 66.9622,581.2963 54.4459,557.5564 42.9144,524.6411 34.9459,488.5486 31.3088,453.5339 30.3108,418.2809 30.9514,378.3021 34.8084,343.1697 41.1793,305.9695 52.6064,267.6935 64.8166,232.3701 78.7875,202.926 93.8928,176.8572 107.531,159.4751 122.4367,146.1059 140.9413,133.6425 159.049,122.8932 181.6501,112.3051 202.704,102.3395 224.1561,94.9667 242.4827,89.0691 257.9357,84.8909 274.3578,81.5313 296.4322,77.8248 313.9714,75.4983 335.9885,72.9868 359.1447,70.4875 376.1497,69.1357 393.0814,68.2597 410.3044,67.3874 427.4364,66.9374 449.2872,66.5814 471.1326,66.2301 493.1648,66.5073 514.9537,66.7892 531.9991,67.1817 549.4057,68.0234 566.1663,68.8531 583.3769,70.1983 599.6765,71.5218 621.6416,74.0061 637.4379,75.9437 654.0266,78.3091 669.0455,80.9365 683.6068,83.7634 697.5238,87.1061 712.8733,91.3243 730.6705,96.52 746.945,102.7776 765.0882,109.6304 782.3858,119.0446 798.4893,127.6496 811.9679,137.0126 825.2234,147.2729 836.8953,159.1682 849.2176,176.0257 863.5859,202.0696 877.4443,231.3167 889.8348,267.1561 901.1588,304.9917 907.6212,342.6201 911.4925,377.6012 912.1544,417.9583 911.1789,452.998 907.6393,487.7144 899.7769,523.7774 888.4452,556.5399 876.0383,580.3945 859.2269,604.2107 837.7487,625.6507 819.0147,639.008 803.0503,649.0374 787.0611,658.2042 772.2028,664.3296 763.7093,667.4229 749.6459,671.3988 734.7576,675.0146 721.8504,677.6206 705.6982,680.3775 688.2722,683.1116 671.2397,685.1074 653.0662,687.1143 631.1696,689.6801 612.6499,691.1161 591.2827,692.9292 570.8195,694.1429 549.8506,695.3493 529.3715,696.0453 513.9839,697.9968 500.0477,688.8156 488.5601,678.2237 475.7607,668.5196 464.1465,657.5805 445.7183,645.4424 429.2717,644.7629 408.7748,643.6483 390.8741,642.1322 370.9739,640.1748 353.1185,637.6632 333.0563,633.9885 314.8854,630.2279 293.2898,624.5713 274.2604,619.0176 257.5932,614.0925 240.4743,607.9061 225.378,601.5579 216.469,597.4803 203.9317,589.9905 190.4375,580.0289 176.0517,565.6364 160.4131,546.1334 142.2812,518.2988 128.3628,486.0128 116.7361,450.4249 111.8607,410.887 109.9793,372.4938 111.784,340.9096 115.3946,314.7707 121.5679,289.8949 128.4719,270.6444 136.6354,253.3157 145.2808,237.1617 156.4066,220.3382 169.1798,205.2117 184.956,190.5677 201.9214,176.9993 217.7858,164.84 236.7914,153.1892 254.3769,145.0161 272.6242,138.5826 292.0346,132.4657 314.3876,126.0685 333.2734,121.8017 353.8417,117.6246 374.2232,114.7999 393.6989,112.6729 414.3806,110.9478 434.438,109.7212 452.6965,109.0012 471.1277,108.66 489.6162,108.9167 507.8702,109.5591 527.9534,110.7191 548.6091,112.3818 568.09,114.4705 588.5167,117.2701 606.9347,120.2785 625.9027,124.5545 643.1518,128.5428 662.6531,134.6754 678.6125,139.8518 693.4566,145.5967 708.4423,153.1199 725.4687,164.2222 741.065,176.5337 757.184,189.7479 772.6657,204.1123 785.5669,219.2539 796.9542,236.264 805.8011,252.7142 813.7962,269.5811 821.413,292.9284 827.6239,317.6414 830.9208,345.7203 832.7608,377.557 832.9832,410.6883 829.8411,440.435 824.6875,467.6693 819.3666,487.9982 811.2952,507.0665 802.0174,524.0827 787.8261,542.22 773.5638,558.1273 759.3791,572.4716 742.8429,585.1894 727.9593,595.7116 717.6421,601.1474 702.3636,607.7862 685.3031,613.9782 668.4311,618.981 648.4103,624.2578 627.1647,629.8441 606.4365,633.6467 586.5099,637.2997 568.5152,639.8343 549.5243,642.0809 531.661,643.594 518.8051,646.0423 504.2969,636.138 490.7523,625.5057 475.7099,614.8394 462.0315,603.5392 442.1187,590.0148 425.9121,588.765 404.187,586.2053 388.4669,583.5049 367.8553,579.3428 351.6288,574.9036 332.5459,569.2346 315.498,562.4574 298.2797,555.357 280.2042,545.2762 264.7672,536.3858 253.8088,529.4073 241.8494,518.8691 228.9335,503.9985 220.0772,491.1249 210.6227,476.6721 200.5813,457.4679 193.2336,434.5095 189.7995,409.8277 188.8022,378.4029 190.6221,345.8708 200.2502,307.2529 212.4641,277.0891 223.2756,254.3908 240.5389,233.8993 259.1613,215.8186 275.4781,205.8515 292.9365,195.6572 315.523,183.919 331.7249,176.9759 350.6834,170.2965 367.3785,165.4646 388.5576,160.8654 404.2435,158.1326 426.2418,155.4287 449.3725,154.5119 471.0015,153.8131 493.6375,154.4768 516.5332,155.2498 531.9814,156.2937 539.7669,157.0764 554.8769,159.6778 564.7209,162.2245 580.1698,166.8786 599.3554,173.6133 621.9947,181.9331 644.9778,193.8371 666.7297,205.2406 682.0203,214.3957 701.4337,232.874 718.3799,252.6757 729.574,273.9607 741.777,303.9495 752.1576,339.2729 754.2173,372.3775 752.3226,404.7134 741.8312,442.9408 729.9384,471.9831 713.57,498.4307 696.2638,518.3886 678.1458,536.1261 662.3754,545.2663 644.987,555.0206 627.0964,562.4484 610.5681,569.0433 591.0237,574.8712 575.1172,579.2308 554.2318,583.4607 538.6553,586.1438 523.0465,590.3075 508.1024,578.3639 494.6177,567.9955 484.6073,553.5529 470.4224,541.634 455.6336,524.6964 440.1823,523.1045 424.6202,521.2737 410.8947,519.6737 396.9079,515.6595 382.7579,511.2318 369.8572,505.0644 354.196,496.3904 337.0625,486.4448 321.7079,474.5967 307.529,462.3758 297.1655,450.8986 287.4152,434.8807 279.0719,418.254 277.0352,389.4449 275.892,361.3397 275.8239,335.8798 277.916,317.8647 287.9799,295.7962 298.0644,284.486 314.0215,269.5094 329.7133,254.916 343.5646,241.8065 357.7335,233.725 370.0169,227.5803 378.9887,225.0244 394.5474,221.2546 411.64,217.4683 428.2738,215.3859 445.8352,213.6612 467.5243,212.4596 484.7172,212.6738 505.4014,214.0182 528.8228,218.1967 549.8615,222.2354 564.4536,225.6454 584.8201,234.5121 607.0333,250.2325 622.7478,264.7442 637.8822,278.6988 655.2538,302.7721 665.8475,323.7183 666.4615,350.4838 665.0536,380.0921 659.4583,412.8966 649.6804,437.5708 636.2277,459.7601 621.1486,474.3845 606.2397,485.9639 588.4489,496.3377 573.0269,504.8652 560.6694,510.8455 545.7531,515.5852 532.707,519.4217 524.6966,524.0732 509.8034,505.0876 495.7419,487.1688 484.346,465.5267 469.1612,444.2529 451.7589,414.4663 435.7615,407.0747 419.599,398.4347 406.4038,390.9269 399.3814,379.0444 398.9012,366.1572 404.2878,349.0437 412.6669,332.2026 421.328,318.4744 436.0249,308.6022 447.1424,302.8492 464.5287,302.16 480.2775,302.2726 494.5006,302.2399 506.6767,308.267 519.6262,316.7293 529.4427,331.599 537.6022,348.1764 543.1354,363.9708 543.9411,375.6083 538.6199,387.8908 522.0691,398.8601 515.786,404.4093 510.0352,409.1819 510.3128,410.0172 519.7424,406.2765 524.0207,417.0614 525.3494,415.9653 531.9936,410.1075 546.8593,400.4252 557.2461,382.5349 558.1354,364.0124 551.866,343.535 542.9266,325.0275 532.1722,308.5075 515.3066,295.9981 501.2353,288.8367 480.936,287.287 464.6407,287.1604 446.5552,287.8607 429.746,294.9795 413.027,305.9807 400.262,323.7695 390.8814,342.3155 384.616,361.5818 384.3819,379.1656 393.0675,397.793 411.3635,410.9717 428.6686,420.2918 445.4573,428.0784 455.8838,451.2323 472.1149,474.21 482.4499,494.1202 497.9548,514.2861 512.8945,533.3312 534.5509,534.3079 549.8884,530.004 565.2092,525.142 579.4908,518.4009 595.6976,509.47 613.7942,498.9226 630.3103,486.2615 646.6471,470.5506 662.4374,445.4613 673.38,418.4811 679.8277,382.6857 681.4431,351.2255 680.8438,323.3851 668.8208,296.3739 650.0818,269.9712 632.9939,253.789 617.2099,239.2126 593.5126,222.2875 570.5343,211.9331 553.3925,207.657 531.6564,203.4668 508.0364,199.2515 485.7226,197.7075 467.7206,197.4609 445.0172,198.6835 426.8136,200.4572 409.7791,202.5842 391.3297,206.6038 375.4581,210.4458 365.9161,213.1518 351.1391,220.2523 336.1445,228.7703 319.5159,243.9154 303.8063,258.5253 287.7992,273.5487 276.8027,285.7927 264.3493,311.4659 260.96,333.8637 260.892,361.3397 262.0475,390.0513 264.1091,419.31 273.832,441.2445 284.335,458.669 296.3159,472.3391 311.8767,485.9258 327.8915,498.3146 346.6251,509.3395 362.5881,518.1854 376.2758,524.7589 392.3589,529.9531 406.7538,534.0908 422.784,536.1609 438.4296,538.0018 454.0956,539.6173 458.0368,550.0955 474.8033,564.9056 482.1611,576.3522 498.7203,590.0676 513.6817,602.025 540.4658,601.0342 556.7697,598.2445 578.0925,593.9327 594.9739,589.3417 614.853,583.4183 632.6324,576.3895 650.738,568.8743 669.6814,558.3668 685.6668,549.1044 706.6652,529.1965 724.8916,508.2705 742.6694,479.9155 755.6938,448.6703 766.7821,408.7039 769.1872,373.3281 767.1303,338.3673 756.1891,299.7912 743.4749,268.3246 731.6661,245.7133 712.8965,223.1991 692.3796,203.5474 674.5576,192.4451 651.9512,180.5566 628.8936,168.6137 604.5627,159.5462 585.1388,152.7255 569.0543,147.8641 558.642,145.1581 542.336,142.2981 533.5166,141.3724 517.5489,140.2842 494.1464,139.4854 471.4412,138.8196 448.8978,139.5194 425.6479,140.4404 402.4302,143.2426 385.9921,146.0864 364.1997,150.8053 346.5273,155.8838 326.7492,162.8252 309.6273,170.1262 286.0302,182.3416 267.9203,192.8947 251.3431,203.0172 230.1622,223.0675 211.8189,244.7086 198.9813,270.5155 186.3498,301.6157 176.0742,342.2156 173.829,377.5055 174.8066,410.2889 178.3733,436.5517 186.275,461.9769 197.2951,483.555 207.5066,499.309 216.5741,512.4982 230.5019,528.6789 243.8463,540.6211 256.6252,548.9837 272.7112,558.2706 290.973,568.4571 309.7428,576.3093 327.004,583.1732 347.3361,589.2762 363.8953,593.8107 385.4861,598.2057 401.6443,600.9883 424.1499,603.6611 440.9597,604.97 453.0063,615.5203 466.1514,626.3994 482.0626,637.7323 495.029,647.9323 510.3363,658.4229 532.644,658.5618 550.7892,657.0275 570.2742,654.7308 588.6005,652.1533 609.1366,648.4017 629.8713,644.5979 652.2109,638.7683 672.254,633.4856 689.5645,628.3602 707.4708,621.89 723.6083,614.9098 734.9278,608.9946 751.4602,597.4671 768.5197,584.3649 784.1952,568.7091 798.9898,552.2387 813.8243,533.3347 824.429,514.3124 833.1691,493.8713 839.1848,471.52 844.5776,443.2343 847.8989,412.2764 847.7606,377.4774 845.8961,344.8596 842.5224,315.8991 835.9693,289.307 828.06,264.9397 819.3755,246.3318 810.1689,229.1669 798.0456,210.9303 784.1075,194.4125 767.4131,178.7768 750.5831,164.9403 734.7635,152.4491 716.6538,140.5671 700.2236,132.2098 684.0571,125.8748 667.2914,120.4106 647.6519,114.2337 629.2998,109.9442 610.2335,105.6458 590.9452,102.468 570.1287,99.6097 550.2106,97.4675 529.1588,95.7676 508.7365,94.5842 490.1454,93.926 471.3374,93.6615 452.4221,94.0038 433.8483,94.7328 413.4663,95.9757 392.4533,97.7247 372.5966,99.8884 351.7848,102.7663 330.2982,107.0997 311.0835,111.4369 287.9147,118.0426 268.1177,124.2756 249.3923,130.8686 230.4929,139.5756 209.9744,152.0344 192.8208,165.0754 175.5882,178.8526 158.9852,194.2086 144.9723,210.6297 132.7904,228.8557 123.423,246.214 114.9057,264.2445 107.4568,284.8079 100.8416,311.136 96.9283,338.8334 95.0044,371.6265 96.8779,411.6048 101.8479,452.2529 114.0877,490.6196 128.5011,524.2241 147.8186,554.2807 164.3352,575.0025 179.8055,590.61 194.9648,602.0152 208.7434,610.3378 219.0753,615.1695 234.6557,621.7316 252.4876,628.1969 269.9988,633.3995 289.0874,638.9706 311.0828,644.7379 330.0084,648.6755 350.4145,652.4174 368.8793,655.0278 389.4009,657.0597 407.5083,658.5947 428.4547,659.7407 445.0986,660.4296 455.1649,669.5943 465.4413,679.4059 479.4657,690.1523 489.8556,699.8211 505.6609,710.476 529.898,711.0361 550.3601,710.3406 571.6796,709.1182 592.1707,707.9029 613.9165,706.0626 632.3291,704.6353 654.8081,702.0128 672.886,700.0168 690.0177,698.0097 708.0185,695.197 724.3735,692.4069 737.7225,689.7186 753.1806,685.9763 767.7848,681.8586 777.3057,678.4349 792.772,672.0745 810.4683,662.0748 826.9894,651.7125 846.4501,637.869 869.7895,614.8611 888.2602,589.0907 901.735,563.4956 913.9414,528.7135 922.2904,490.9308 926.0994,454.5399 927.1483,418.3846 926.4905,377.358 922.5317,340.9839 915.9433,302.458 904.2108,262.8747 891.6218,226.4181 877.1499,195.6651 862.3549,168.7863 849.0297,150.3502 835.9782,136.8165 821.1987,125.1892 807.0556,115.3362 789.4906,105.8339 772.2588,96.4553 752.2936,88.7636 736.0538,82.5193 717.0963,76.931 701.4996,72.6426 687.114,69.1792 671.9114,66.2128 656.6127,63.5338 639.5586,61.0944 623.4692,59.1179 601.3626,56.6169 584.5943,55.2478 567.3352,53.8987 550.15,53.0419 532.7236,52.1992 515.301,51.7933 493.3592,51.5085 471.3213,51.2313 449.0482,51.5833 427.1921,51.9394 409.9108,52.3926 392.3246,53.2789 375.3748,54.1557 357.9585,55.5345 334.3808,58.0732 312.2715,60.5949 294.4608,62.9549 271.8769,66.7379 254.9333,70.1944 238.5804,74.5856 219.5674,80.6857 197.8296,88.1536 175.2586,98.735 152.6855,109.3098 133.3054,120.7315 114.0642,133.66 97.5539,148.2743 82.1386,167.5384 65.828,195.3729 51.27,225.9289 38.4354,262.7759 26.8069,301.6759 20.0272,340.6168 16.0416,376.6593 15.313,418.0284 16.3148,453.9551 20.0252,490.0895 28.2629,527.8559 40.2819,562.4942 53.6724,588.2521 71.8565,613.9188 95.0981,637.1033 115.1303,651.4876 131.736,661.9234 148.8512,671.667 164.8672,678.324 174.1777,681.6972 189.026,685.9055 204.4699,689.6524 217.8845,692.3611 234.3587,695.1738 252.1724,697.962 269.5403,700.0028 290.2889,702.5912 NaN,NaN 520.1919,420.22 510.8166,411.5331 515.051,424.2747 525.2735,420.2195 524.0207,417.0614 NaN,NaN 509.5199,410.3317 510.8166,411.5331 510.3128,410.0172 " stroke="none" fill="blue" stroke-width="0" shape-rendering="crispEdges" />
<polygon points="481.2086,-713.0369 471.4044,-724.3893 460.2162,-712.361 449.1581,-712.2851 433.473,-711.9829 414.6711,-711.6768 394.23,-710.978 375.5466,-710.3447 354.9069,-709.1137 333.3471,-707.284 312.5368,-705.4355 290.3193,-702.84 269.5986,-700.2585 252.206,-698.2246 234.3676,-695.4511 217.8518,-692.6516 204.1681,-689.8909 188.6938,-686.1582 174.0444,-682.0477 159.7104,-677.2667 144.3849,-671.001 127.6833,-663.5333 111.0938,-653.1965 90.4662,-638.2673 72.507,-617.2554 54.0993,-591.3499 39.7525,-562.729 27.5749,-527.9439 19.0204,-489.9307 15.1295,-453.1887 14.8356,-412.5623 15.5465,-371.7524 18.4069,-338.941 22.6033,-309.3274 28.0983,-281.8595 33.3198,-261.799 40.3644,-240.8881 49.5837,-219.0144 59.4135,-197.7135 70.3952,-179.3911 82.7032,-161.4321 93.7152,-148.5698 106.7619,-135.3986 121.1924,-124.2471 135.9701,-114.0718 152.8625,-105.1143 171.0043,-95.4488 190.36,-88.1922 211.8909,-80.9118 232.8021,-75.1498 249.1524,-70.898 271.4802,-66.3887 294.0345,-62.7345 312.3324,-60.3595 334.4441,-57.9251 358.0004,-55.4773 380.0857,-53.8689 397.0858,-53.0641 419.1071,-52.1695 436.3105,-51.8054 453.8732,-51.4373 471.2459,-51.4662 488.7757,-51.4906 506.3077,-51.9091 528.6644,-52.8508 550.7573,-53.8039 573.5622,-55.4421 595.7006,-57.1004 619.1367,-59.5785 636.1717,-61.5312 654.1634,-63.8824 670.8612,-66.8072 693.2629,-71.4048 709.2498,-75.6431 730.3942,-81.5355 752.7583,-89.1582 774.8759,-99.4808 792.4099,-108.9515 812.0389,-120.59 829.3185,-133.7573 845.925,-148.6057 861.2402,-167.9764 877.2577,-195.3738 891.6703,-225.9206 903.596,-257.4392 915.3737,-297.0254 922.2904,-335.1632 926.3009,-371.4673 928.189,-408.625 927.9502,-449.8748 925.6218,-483.186 921.5098,-511.8949 915.417,-539.075 907.0538,-563.3985 896.7312,-583.0483 884.1293,-601.3635 867.3187,-621.5707 846.4083,-638.3246 826.8408,-652.2465 810.3606,-662.5481 792.9435,-672.3994 777.4885,-678.7387 768.0456,-682.0987 753.4708,-686.1965 737.991,-689.9367 724.3983,-692.6789 708.0142,-695.4624 689.9885,-698.2684 672.9369,-700.2597 652.1018,-702.8571 629.7325,-705.4692 609.1021,-707.2973 587.3831,-709.1365 566.7398,-710.3604 548.251,-710.9829 527.6796,-711.683 505.774,-710.7253 489.9952,-700.0906 479.5785,-690.4311 465.5228,-679.6946 455.2304,-669.8968 445.0541,-660.7216 428.3922,-660.0266 407.4193,-658.869 389.3433,-657.3269 368.7976,-655.283 350.3627,-652.6684 329.985,-648.9272 311.0879,-644.9894 289.1238,-639.231 270.0616,-633.6675 252.5237,-628.4626 234.5449,-621.9454 218.9501,-615.4002 208.5776,-610.5942 194.7631,-602.2959 179.6098,-590.9611 164.1719,-575.3882 147.6655,-554.9173 128.2299,-524.7942 114.1344,-492.3438 101.7802,-454.0468 96.1518,-416.9643 94.1108,-376.6231 96.0381,-343.7681 99.6797,-314.2518 106.253,-287.9385 114.304,-263.4034 122.9034,-245.1626 132.2541,-227.9151 144.2428,-208.9257 158.0974,-192.7187 171.0767,-179.5465 185.3586,-167.2543 200.913,-154.7649 213.5389,-146.329 222.9107,-140.9164 238.0163,-133.9861 251.8258,-128.9913 268.2861,-123.7352 288.0678,-117.6254 311.1485,-111.1718 330.3613,-106.9252 351.6839,-102.713 370.6605,-99.8663 390.4559,-97.7902 409.1923,-96.1227 429.6054,-94.9735 450.5204,-94.334 471.3375,-94.1057 492.0899,-94.4051 513.1481,-95.1249 532.432,-96.5057 551.2196,-98.2294 571.292,-100.8467 590.2989,-103.7368 611.3502,-107.9358 632.0359,-112.1427 654.8321,-118.5827 674.3996,-124.2615 690.9946,-129.6236 704.8347,-134.6797 719.95,-141.741 728.9917,-147.0974 741.6805,-155.668 756.9303,-167.9854 771.6671,-180.6665 784.4765,-193.6978 798.5614,-210.3661 810.1989,-229.0501 819.4245,-246.1942 828.1342,-264.8119 836.0517,-289.1348 842.6239,-315.7438 846.0373,-344.703 847.9197,-377.3581 848.0524,-412.2034 844.7067,-443.315 839.3071,-471.635 833.2975,-494.067 824.5418,-514.5556 813.9073,-533.6018 799.0111,-552.5187 784.2032,-568.9985 768.5669,-584.6625 751.5036,-597.7683 734.9492,-609.292 723.6904,-615.1215 707.5618,-622.0861 689.5282,-628.6148 672.3862,-633.6963 653.1529,-639.3119 631.0128,-645.1064 612.319,-648.9869 591.8143,-652.7388 573.3729,-655.3364 553.0324,-657.3484 534.8486,-658.8921 510.4255,-658.7242 495.0828,-648.2519 480.4132,-636.4003 471.9525,-624.7553 467.1014,-615.185 463.8738,-606.8694 454.6824,-606.5159 438.8667,-605.1852 422.0567,-603.5856 398.009,-600.434 380.0235,-596.8041 355.9832,-591.2744 336.0142,-584.6254 312.4246,-576.3718 288.9591,-564.7474 267.1202,-553.7202 251.2425,-544.5727 238.3315,-536.7406 224.4891,-524.2349 216.4475,-512.8819 207.3195,-499.7139 196.9643,-483.7772 185.2109,-459.7867 177.2068,-434.1153 173.9336,-405.6497 172.8555,-372.9746 173.8796,-339.9047 177.8621,-312.4545 185.8932,-287.0578 196.44,-265.1847 206.3315,-249.4061 215.8638,-235.1785 229.6672,-218.8318 243.3288,-206.3253 256.0151,-197.8046 272.1163,-188.2607 290.6069,-177.6592 308.9841,-169.576 326.2463,-162.343 346.4559,-155.817 362.5303,-151.0626 378.4494,-146.9771 393.9226,-144.255 409.3564,-141.7489 424.6347,-140.6465 440.3058,-139.5544 455.2184,-138.6783 471.2595,-138.691 487.7109,-138.7509 501.8026,-139.6221 517.8652,-140.8397 540.3807,-143.6252 556.3774,-146.4475 577.9703,-151.1422 596.2887,-156.2537 616.1195,-163.1442 633.3184,-170.4322 656.7003,-182.4541 674.5768,-192.7985 690.6695,-202.3821 704.6694,-211.2335 718.4181,-224.2232 726.8831,-236.3281 735.9759,-250.0223 746.1909,-266.4187 757.111,-290.5466 765.041,-316.3215 767.9934,-345.3467 768.9377,-378.1991 766.4748,-413.8281 755.0684,-451.2444 742.3034,-482.0604 730.4109,-504.3132 712.0652,-525.3776 691.3179,-544.4719 674.9898,-553.941 653.4632,-564.8089 629.1703,-576.7874 606.3557,-584.7031 585.7855,-591.5068 562.2545,-596.8715 543.9745,-600.5329 515.8568,-602.1557 499.8974,-590.3732 483.7953,-578.1258 468.6125,-564.8843 452.6552,-551.296 440.9216,-538.3507 424.4725,-536.5321 407.4084,-534.3682 390.5282,-529.3074 370.8146,-521.8062 353.9374,-512.5665 331.3656,-497.3813 306.4895,-477.4199 286.6903,-450.094 270.8299,-419.2709 262.3465,-381.8773 260.6909,-351.1043 261.2092,-321.4623 269.8407,-299.623 281.4255,-278.8627 292.1949,-267.6865 308.0517,-253.0418 324.0605,-238.3429 336.1382,-228.5653 351.1385,-220.1854 366.1162,-213.1336 380.1301,-209.5919 396.1829,-205.7752 418.103,-201.6131 435.3348,-199.5176 457.2776,-198.0613 475.3425,-197.8454 497.9015,-199.0834 515.9413,-200.8523 533.4146,-203.0582 551.2208,-206.9375 567.1977,-210.7908 577.6092,-213.8587 591.5432,-220.639 607.5353,-229.8871 622.8009,-243.8722 638.5547,-258.3814 655.9609,-274.9839 668.8442,-296.6413 680.892,-323.5735 681.4265,-351.3854 679.7978,-383.1746 670.909,-421.1212 655.1646,-451.0225 634.5653,-478.8989 610.6427,-497.7571 587.9369,-512.9685 570.7077,-522.2708 551.4539,-529.4886 533.847,-534.6291 512.0511,-533.7324 496.8413,-514.7603 480.8377,-494.4152 471.1218,-474.4746 455.6454,-451.5703 445.3015,-428.4319 428.4023,-420.4012 409.1042,-408.5636 392.7061,-393.2954 384.0173,-374.6885 384.2863,-357.0799 391.1201,-337.1299 401.3668,-321.283 412.4407,-306.5314 428.3031,-295.5945 444.4674,-288.2464 461.9103,-287.5474 478.2336,-287.4556 498.6938,-288.7991 513.5737,-295.8177 531.3239,-308.2863 542.5275,-324.8312 551.8451,-343.516 558.209,-364.1428 557.259,-382.7448 546.8647,-400.8113 529.5853,-411.9777 513.0399,-418.2242 497.2886,-423.2835 480.5814,-425.962 471.4373,-422.672 476.5154,-408.5578 485.6595,-411.8477 493.8614,-408.6803 508.431,-403.9498 524.28,-397.9472 538.6119,-388.2857 543.9255,-375.8731 543.2094,-364.0276 537.5946,-348.1984 529.1308,-331.5785 518.9312,-316.7374 505.2654,-308.3066 492.3655,-302.3988 477.6805,-302.4454 462.001,-302.5472 445.0717,-303.2342 435.0164,-309.0083 421.0047,-318.8463 413.5726,-330.0019 403.7198,-345.2692 398.5318,-361.7773 399.0169,-374.582 406.0361,-386.4171 419.0786,-397.3605 436.1747,-407.5719 451.7108,-414.8702 468.9465,-444.6363 483.5353,-466.0541 494.3006,-487.8009 508.5679,-505.4068 523.7545,-524.3499 532.0085,-519.7422 547.1683,-515.1138 565.4299,-508.23 580.7617,-499.7959 602.2793,-485.305 625.2706,-467.1257 643.0293,-442.2058 657.62,-414.164 665.1716,-379.847 666.4434,-350.6725 665.895,-323.8709 655.2926,-303.072 643.0797,-282.6699 628.3376,-269.3637 612.6391,-254.9057 597.4027,-240.9474 584.1707,-233.7021 571.0585,-227.3528 563.1119,-225.2237 547.7092,-221.5207 530.2229,-217.7147 514.0885,-215.7374 496.4399,-214.012 474.5252,-212.8231 457.471,-213.0601 436.3355,-214.4842 419.9234,-216.5023 398.992,-220.5098 383.6067,-224.1835 369.7922,-227.6762 357.6522,-233.6973 343.4645,-241.6544 333.5873,-249.9292 318.2024,-264.0855 302.3719,-278.7059 292.2357,-289.2617 283.021,-306.784 275.1726,-326.9416 275.6909,-351.1043 277.3246,-381.0661 285.4485,-415.9101 299.9793,-443.1368 318.615,-468.5897 340.6504,-485.6003 362.3003,-500.1142 377.996,-508.637 395.8145,-515.2697 411.7012,-519.9956 426.2655,-521.6397 442.5696,-523.4415 462.8748,-540.316 478.3334,-553.4605 493.6542,-566.8208 508.9681,-578.4265 524.7656,-590.0878 541.992,-585.6645 559.2956,-582.1662 582.4499,-576.8824 601.6223,-570.4695 624.2531,-562.6162 646.7998,-551.3702 668.2294,-540.5508 683.784,-531.5011 701.834,-514.4084 719.0849,-494.4785 729.0181,-475.0961 741.2049,-445.5169 752.1228,-409.4669 753.9678,-377.2486 753.0001,-345.7924 750.119,-317.8495 742.7994,-295.0386 732.5387,-272.6328 723.272,-257.9979 714.3882,-244.6272 706.1269,-232.8212 694.4655,-222.228 682.7601,-215.1273 666.9028,-205.6868 649.1879,-195.4374 626.4643,-183.7746 610.2827,-176.962 591.3765,-170.4265 573.9498,-165.5933 553.199,-161.1069 537.7797,-158.3979 516.03,-155.727 500.6767,-154.5798 486.786,-153.7224 471.2167,-153.6909 455.2065,-153.6783 441.1992,-154.5277 425.6779,-155.6102 410.4359,-156.71 396.3561,-159.0563 381.0488,-161.7501 366.2794,-165.5865 350.7144,-170.1998 330.8572,-176.6168 314.8012,-183.4021 296.6469,-191.3894 279.6039,-201.2582 263.6641,-210.7079 251.7021,-218.7707 239.8485,-229.8473 227.3515,-244.824 218.8155,-257.7217 209.1503,-273.15 199.4173,-293.5463 192.1772,-316.9355 188.7318,-342.0053 187.849,-373.418 188.9253,-405.1482 192.1071,-432.3887 199.5079,-455.2484 210.4133,-477.1347 219.8741,-491.5053 228.7738,-504.3343 236.7293,-515.5644 248.2683,-525.504 258.9104,-531.6807 274.6077,-540.7226 295.7138,-551.3544 319.083,-562.9306 340.9344,-570.4553 360.7215,-577.0424 383.3652,-582.181 400.9745,-585.73 423.9948,-588.7113 440.2836,-590.2523 455.9396,-591.5687 464.4372,-591.88 478.8646,-605.8776 485.2473,-617.8092 492.4946,-627.5098 504.3385,-636.4479 518.8707,-646.3275 533.9991,-643.9161 551.7611,-642.4023 571.8958,-640.4093 589.7169,-637.8861 609.6148,-634.2327 627.9624,-630.4198 649.3487,-624.8023 668.1801,-619.2981 685.265,-614.2334 702.4458,-607.9855 717.7332,-601.3552 728.0325,-595.9819 742.894,-585.4852 759.4259,-572.7695 773.555,-558.4336 787.8495,-542.4978 802.1164,-524.3296 811.4123,-507.3018 819.4938,-488.197 824.8053,-467.8015 829.9703,-440.5153 833.1371,-410.6114 832.9199,-377.4353 831.0624,-345.571 827.7279,-317.5066 821.4972,-292.7635 813.8743,-269.4655 805.8559,-252.589 796.994,-236.1655 785.8347,-218.3052 773.0555,-203.422 760.9812,-191.1932 747.1617,-179.3685 732.2573,-167.3386 720.6189,-159.5431 712.3206,-154.6558 698.5157,-148.2838 685.8742,-143.7226 669.7916,-138.5362 650.6537,-132.989 627.9581,-126.5777 608.3758,-122.6379 587.3648,-118.447 569.0433,-115.6772 549.2813,-113.1036 531.0659,-111.4433 512.078,-110.0867 491.5812,-109.3964 471.1222,-109.1041 450.6867,-109.3331 430.0649,-109.9665 410.0373,-111.0989 391.7888,-112.7308 372.2257,-114.7844 353.915,-117.5462 333.2736,-121.6397 314.3872,-125.818 292.114,-132.0693 272.7145,-138.0666 256.3889,-143.2804 243.1235,-148.0899 229.1875,-154.5399 221.0814,-159.2947 209.2586,-167.2289 194.767,-178.9368 180.8643,-190.9133 168.7968,-203.2318 155.653,-218.6626 144.9665,-235.8772 136.0957,-252.3015 127.8756,-269.7919 120.5159,-292.5829 114.235,-317.8772 110.9288,-345.5763 109.0855,-377.4948 111.1318,-416.1896 116.6081,-451.7811 128.3986,-487.7034 141.9821,-518.8046 160.2465,-546.7492 175.8341,-565.9546 190.2435,-580.3816 203.6941,-590.2444 216.2722,-597.7181 225.2035,-601.7658 240.3466,-608.1129 257.6287,-614.3581 274.3189,-619.2844 293.3263,-624.8317 314.8901,-630.4793 333.0375,-634.241 353.0699,-637.9147 370.8989,-640.4309 390.8234,-642.4001 408.6938,-643.9233 429.2164,-645.0493 445.6786,-645.7346 464.1743,-657.8549 475.825,-668.7922 488.6548,-678.4887 500.1681,-689.0674 514.0969,-698.2462 527.4228,-696.6852 547.74,-695.9916 566.235,-695.3689 586.4936,-694.1629 607.8347,-692.3509 628.4085,-690.5277 650.3601,-687.9586 671.0811,-685.3749 688.2485,-683.3697 705.7025,-680.6416 721.8853,-677.8909 735.0209,-675.2337 749.9428,-671.6172 763.9809,-667.66 772.4346,-664.6157 787.2445,-658.5242 802.9358,-649.5146 818.8858,-639.5297 837.7055,-626.1073 857.9343,-609.8689 872.5397,-591.8409 884.3631,-574.5612 893.7577,-556.4549 901.2154,-534.2465 906.8678,-508.6372 910.7717,-481.0707 912.9861,-448.8377 913.1892,-408.5438 911.3205,-372.2333 907.3817,-336.8156 900.6157,-299.7091 889.2235,-261.7326 877.644,-231.237 863.6963,-201.7838 848.2979,-175.559 834.1869,-157.9448 819.3775,-144.9901 802.9588,-132.5295 784.7889,-121.8712 767.7509,-112.6806 746.4217,-102.754 725.5819,-95.7426 705.2307,-90.0947 689.4195,-85.9041 667.8535,-81.5025 651.578,-78.6579 634.2338,-76.4055 617.4292,-74.481 594.1235,-72.0172 572.4441,-70.4004 549.6825,-68.7654 528.02,-67.8369 505.6765,-66.8959 488.4188,-66.4864 471.2266,-66.4662 453.8483,-66.4373 436.6265,-66.8021 419.4245,-67.1661 397.6957,-68.0517 380.7951,-68.8521 359.0916,-70.4376 335.9966,-72.8445 313.974,-75.2694 295.9664,-77.6096 273.8816,-81.1953 252.1254,-85.6004 236.5872,-89.6644 215.876,-95.3728 195.1726,-102.3992 176.2727,-109.4932 159.9588,-118.3295 142.9974,-127.3239 129.7353,-136.5767 115.9407,-147.2624 104.4111,-159.0864 94.1081,-171.1751 82.7854,-187.8459 72.2843,-205.4169 63.2153,-225.2737 54.1877,-246.7117 47.5394,-266.5743 42.618,-285.625 37.3131,-312.2636 33.2594,-341.0396 30.4903,-373.0502 29.8335,-412.8169 30.1291,-453.0793 33.9354,-488.3362 42.2046,-524.6317 53.9033,-557.7536 67.4959,-584.6021 84.7102,-608.5328 101.8586,-628.5095 119.7813,-640.9684 135.6067,-650.7968 150.4525,-657.283 165.3844,-663.3813 178.7746,-667.813 192.7381,-671.7137 207.6809,-675.308 220.8126,-677.9467 236.8713,-680.6616 254.5099,-683.4026 271.3362,-685.3594 292.1736,-687.9551 314.2771,-690.5368 334.6722,-692.3427 356.1753,-694.1674 376.4379,-695.3712 394.7361,-695.9865 415.1836,-696.6856 433.7162,-696.9848 449.447,-697.2879 460.3184,-697.3614 " stroke="none" fill="blue" stroke-width="0" shape-rendering="crispEdges" />
<polygon points="-468.49,-618.0625 -482.736,-613.3666 -472.8343,-599.0757 -464.3118,-598.8085 -455.5136,-598.5239 -439.2041,-597.3991 -422.8431,-596.1033 -400.9932,-593.5103 -385.6124,-590.9843 -364.8948,-586.6387 -349.4603,-582.2365 -330.8476,-576.1819 -314.5973,-569.0491 -297.2743,-561.0537 -279.9718,-549.5813 -264.6942,-539.1074 -254.2898,-531.004 -242.5663,-518.8693 -229.8085,-501.6625 -221.3347,-487.848 -212.6575,-473.2456 -203.1582,-455.3809 -194.7628,-432.6633 -187.5896,-401.8634 -180.8344,-370.8845 -174.6378,-340.3103 -169.6483,-300.0294 -169.1474,-267.0684 -173.5255,-236.0823 -179.378,-203.64 -186.1081,-172.5647 -196.3866,-150.4768 -208.7153,-131.0759 -220.1245,-120.544 -237.2062,-110.0173 -252.4032,-100.7307 -270.7475,-93.8086 -285.9446,-88.6373 -299.2102,-84.8772 -314.0555,-81.8853 -328.6665,-79.2662 -344.5259,-77.2824 -360.2536,-75.5517 -382.3377,-73.4589 -398.6618,-72.4209 -420.7613,-71.2629 -437.5011,-70.7608 -454.2998,-70.2631 -471.2538,-70.2325 -488.0199,-70.2019 -504.8628,-70.6346 -527.6671,-71.7118 -549.6493,-72.772 -572.9819,-74.7852 -595.0876,-76.7822 -612.2991,-78.7739 -628.4843,-81.6522 -644.6323,-85.1079 -659.7348,-89.974 -679.8807,-99.2075 -700.4832,-109.4581 -718.6517,-122.4633 -737.0596,-138.3647 -751.9043,-162.9602 -761.9102,-183.2213 -769.3332,-216.7944 -773.6137,-246.6049 -773.7861,-285.7962 -768.8219,-326.2123 -762.6356,-369.7048 -755.3271,-401.3892 -740.3109,-444.9643 -727.2368,-474.5482 -717.7515,-492.9028 -701.4305,-513.8829 -682.326,-534.1744 -667.0685,-544.6125 -644.5701,-557.6035 -622.1133,-570.5351 -599.8188,-578.9176 -581.3284,-585.2421 -566.3118,-589.5436 -550.2595,-592.5016 -535.146,-594.9962 -526.8661,-600.89 -511.9574,-565.0957 -496.5544,-530.3971 -484.9034,-492.9121 -469.3895,-455.8552 -450.9714,-411.049 -434.7756,-406.4764 -418.0749,-400.572 -400.6738,-392.157 -387.7892,-382.5386 -377.3988,-368.6911 -369.0297,-350.7273 -362.4406,-334.1069 -360.6156,-318.5287 -359.9456,-306.5828 -366.1896,-293.2645 -380.9154,-279.7057 -396.5763,-267.123 -419.7177,-254.222 -439.6197,-243.329 -461.3364,-239.2379 -477.0946,-238.427 -497.0061,-240.7269 -512.3727,-245.6556 -530.0143,-252.9007 -546.3611,-264.56 -561.9499,-276.332 -572.4531,-286.2362 -579.8605,-294.7903 -583.9793,-305.0383 -582.7333,-318.8717 -580.8903,-333.2179 -573.9898,-351.2167 -566.2676,-368.1007 -555.5047,-381.891 -542.1356,-392.1929 -526.6655,-400.5658 -510.611,-404.6656 -496.7723,-407.3558 -488.3683,-408.2755 -477.8739,-406.1514 -474.8982,-420.8533 -485.3927,-422.9774 -497.905,-422.313 -513.4234,-419.3996 -530.3649,-415.1025 -549.1202,-405.4675 -564.5876,-393.8285 -577.9735,-377.48 -587.5604,-357.6073 -594.8907,-338.6021 -597.5845,-320.9793 -598.9179,-306.3942 -594.0778,-290.0081 -584.1761,-276.8783 -572.2931,-265.4684 -555.4291,-252.6114 -538.7264,-240.6901 -518.203,-231.835 -501.6125,-226.4517 -478.9165,-223.538 -460.6641,-224.253 -436.8904,-228.5794 -412.7146,-240.9571 -389.2733,-254.0209 -371.5786,-267.9658 -356.0398,-282.22 -346.5759,-299.782 -345.6162,-318.3865 -347.5363,-335.7988 -355.0139,-356.0713 -363.796,-375.0128 -375.7139,-391.4373 -391.4888,-404.0161 -411.4395,-414.0245 -429.7357,-420.6044 -446.8816,-425.4807 -455.1621,-460.6074 -471.0641,-498.6977 -482.2265,-534.8368 -498.2394,-571.1634 -513.0189,-606.6567 -536.3768,-609.9456 -552.6792,-607.3051 -569.0287,-604.2955 -585.428,-599.671 -604.666,-593.1128 -627.3903,-584.5763 -652.0077,-570.6297 -674.5691,-557.6025 -690.7814,-546.5642 -712.2903,-524.2301 -729.5783,-502.1293 -740.5221,-481.5125 -754.0277,-451.0346 -769.5058,-406.2844 -777.2475,-373.0946 -783.6711,-328.3339 -788.6742,-287.6254 -788.6136,-246.5614 -784.1858,-214.6972 -776.5586,-179.9924 -765.4126,-156.4389 -749.9104,-130.628 -728.6152,-111.2504 -709.2359,-97.2766 -686.6165,-85.8049 -665.9876,-76.3394 -649.2771,-70.8452 -631.6577,-66.9917 -614.93,-64.0064 -596.8236,-61.883 -574.3331,-59.8462 -550.9389,-57.8275 -528.3933,-56.7294 -505.5706,-55.6513 -488.4066,-55.2069 -471.229,-55.2325 -454.2727,-55.2631 -437.0594,-55.7673 -420.3116,-56.2696 -397.8782,-57.4414 -381.3863,-58.4892 -358.8409,-60.6184 -342.886,-62.3724 -326.8055,-64.3821 -311.419,-67.1189 -296.2485,-70.1725 -281.8766,-74.1995 -265.9246,-79.6051 -247.1104,-86.6955 -229.473,-97.1643 -212.2552,-107.774 -198.6321,-119.9705 -183.8134,-142.2967 -172.5271,-166.1962 -164.7361,-200.3821 -158.7642,-233.4166 -154.2952,-264.9673 -154.6494,-300.2175 -159.7496,-342.1378 -166.1312,-373.8535 -172.9339,-405.0587 -180.1537,-436.0653 -189.0761,-460.5477 -199.3901,-480.2441 -208.4353,-495.5035 -217.022,-509.5049 -230.5053,-527.7873 -243.4643,-541.387 -255.4124,-550.8908 -271.4793,-561.9457 -288.9846,-573.5549 -308.2522,-582.641 -324.8172,-589.9163 -344.7943,-596.4923 -360.7757,-601.0621 -382.5202,-605.6621 -398.5553,-608.3108 -421.0702,-610.9982 -438.0146,-612.3519 -454.4812,-613.4883 -463.8186,-613.8004 -472.3643,-614.0683 " stroke="none" fill="blue" stroke-width="0" shape-rendering="crispEdges" />
<polygon points="-468.4101,60.0273 -473.863,46.0536 -492.8812,53.9348 -507.2986,54.4039 -528.5349,55.4974 -550.938,56.6108 -574.1988,58.6181 -596.5964,60.6459 -615.917,62.9972 -632.7427,65.8939 -650.1274,69.5111 -666.9698,74.8942 -687.4012,84.0599 -708.6883,95.1219 -729.1192,110.242 -751.3662,137.4071 -767.4442,164.6264 -778.7174,201.408 -786.4806,236.5289 -790.8062,268.3611 -789.5002,300.9544 -784.5511,341.5714 -778.1539,372.0967 -771.2059,403.592 -763.3492,436.7243 -754.1973,461.4332 -743.7128,481.854 -734.6392,497.1647 -725.9985,511.1248 -716.9904,524.9674 -703.4389,538.7571 -690.4972,547.8758 -674.6008,558.698 -656.778,570.433 -632.7235,584.0588 -615.9174,591.3686 -598.5954,597.4655 -582.3899,602.0115 -560.8045,606.5188 -544.7769,609.0992 -522.3337,611.7334 -504.5494,613.2365 -487.5873,614.3604 -471.2215,614.3938 -454.4027,614.3388 -437.7998,613.2185 -419.9178,611.7005 -397.4003,609.0442 -381.3524,606.4455 -359.6103,601.881 -343.4398,597.3141 -326.0596,591.1648 -309.0456,583.6989 -285.2703,570.1599 -267.7778,558.6166 -251.8769,547.7825 -237.9773,537.8241 -224.5535,523.7594 -216.4367,511.041 -207.7712,497.0554 -198.5406,481.4696 -187.8736,460.5574 -178.7873,435.8106 -171.0707,403.2501 -164.0594,371.7864 -157.4863,340.8618 -152.5284,300.3951 -151.0786,267.5783 -155.387,236.6701 -163.278,201.318 -175.3944,162.9732 -191.452,136.3547 -214.8714,107.9854 -235.0322,93.4289 -255.2142,82.9835 -276.204,73.8336 -299.3063,67.7175 -316.1579,64.3763 -338.7253,60.9522 -358.4874,58.5737 -380.8754,56.6265 -397.5759,55.7001 -419.8661,54.6766 -443.6191,58.4001 -460.1417,91.384 -471.8207,123.5082 -487.5314,158.0755 -496.6036,191.0264 -505.788,223.0266 -521.9047,228.4062 -539.8298,237.0944 -556.0984,248.9848 -573.2817,262.3072 -585.4076,274.5049 -595.6559,289.4955 -600.0572,308.6506 -599.2213,325.0506 -596.9022,343.4007 -589.2336,362.8925 -578.9201,382.9804 -566.0196,396.3451 -550.3575,407.4611 -531.8312,417.515 -513.3059,424.1779 -493.8531,428.8048 -472.8725,430.549 -452.341,428.5278 -430.5397,424.142 -411.988,417.4027 -391.1078,406.9092 -375.104,395.5028 -362.1327,381.8004 -352.7672,363.0614 -344.7929,342.1908 -342.9339,325.1634 -342.3904,306.8836 -347.7328,286.68 -357.613,273.0956 -369.7497,261.0337 -386.4297,248.2215 -403.7011,235.8193 -421.2505,227.5795 -437.1208,222.604 -452.0495,218.6016 -461.6218,217.6244 -471.8661,218.9979 -479.2367,225.007 -479.9428,227.2911 -480.6996,230.6038 -466.0763,233.9444 -465.3195,230.6317 -464.9596,229.6075 -465.7782,232.707 -460.184,232.5553 -453.8426,233.4941 -441.0814,237.0717 -425.7421,241.8912 -410.1265,249.3735 -395.2529,260.3521 -378.8884,272.9284 -368.2266,283.6952 -359.9148,295.4321 -356.9909,310.3227 -357.9185,324.4839 -359.7028,340.5493 -366.7145,357.541 -375.541,375.0759 -385.7969,384.9832 -399.7379,394.6405 -418.6746,403.9756 -435.6252,410.0304 -455.2427,413.8112 -474.3158,415.6186 -492.5192,413.8642 -509.7746,409.5995 -526.7222,403.4119 -543.1475,394.3076 -557.3044,384.1367 -568.052,372.6419 -575.7888,356.2415 -582.9364,337.9275 -584.3151,323.3753 -585.076,307.9001 -581.093,293.0905 -573.291,283.3473 -562.701,272.9396 -546.9401,260.8645 -530.9801,249.2057 -515.4503,241.9465 -501.0887,237.2715 -482.5808,196.3518 -473.0733,162.071 -458.1806,129.7489 -446.048,96.519 -430.217,65.1368 -420.227,69.6723 -398.2652,70.6843 -381.7064,71.6034 -359.7896,73.5171 -340.5208,75.8444 -318.4104,79.2063 -302.2302,82.4298 -280.0519,88.3316 -261.2627,96.71 -241.9357,106.7459 -223.6935,120.1167 -203.0842,145.8253 -188.2573,170.6897 -177.6049,205.7612 -170.029,239.9277 -165.9366,269.6375 -167.5111,299.6741 -172.374,339.0301 -178.7287,368.6543 -185.7115,399.9874 -193.3829,432.3512 -201.9436,455.358 -211.8869,474.6231 -220.6716,489.4016 -229.1869,503.1395 -237.1976,515.6892 -248.7469,527.383 -260.5196,535.5228 -276.2233,546.22 -293.5316,557.6398 -316.4605,570.6598 -332.0559,577.4154 -348.4281,583.1679 -363.6736,587.4418 -384.4228,591.7631 -399.7908,594.2359 -421.6705,596.8033 -439.0652,598.2719 -455.4116,599.3727 -471.2564,599.3938 -487.5566,599.3604 -503.5438,598.2703 -521.0694,596.7868 -543.0257,594.2018 -558.414,591.7105 -579.3185,587.3293 -594.5289,583.0272 -610.9253,577.2237 -626.7261,570.3099 -649.3653,557.3927 -666.3423,546.1761 -682.0553,535.4768 -694.7984,526.4957 -706.2209,514.5262 -713.351,503.0601 -721.8844,489.2707 -730.808,474.2076 -740.8491,454.5902 -749.2722,431.5436 -756.6051,400.1546 -763.506,368.8657 -769.87,338.4949 -774.6091,299.1502 -775.8178,267.7719 -771.6248,238.6035 -764.073,204.6551 -753.1054,169.0309 -738.5043,145.1252 -717.5365,119.773 -699.8803,107.2636 -680.5324,97.3949 -660.8369,88.5832 -645.6005,83.8117 -629.7205,80.5863 -613.3755,77.7803 -594.7913,75.5369 -572.8486,73.5572 -549.6483,71.5552 -527.7938,70.4791 -506.5272,69.384 -492.3949,68.9269 " stroke="none" fill="blue" stroke-width="0" shape-rendering="crispEdges" />
<polygon points="-677.0554,-741.1657 -675.264,-726.273 -652.9124,-728.9779 -644.0475,-729.4585 -628.3034,-729.9476 -611.4618,-730.552 -594.4171,-731.1536 -577.7249,-731.5213 -555.3163,-731.7021 -538.5757,-731.9021 -516.1521,-731.986 -493.7125,-732.0698 -471.2391,-732.0691 -448.7943,-732.0685 -426.388,-731.9838 -409.4971,-731.7813 -392.7684,-731.5801 -375.7618,-731.2086 -359.0649,-730.8399 -341.8168,-730.229 -319.6966,-729.7484 -302.1146,-728.7573 -279.8585,-727.9633 -258.2086,-727.1787 -236.101,-725.8025 -215.1659,-724.4705 -193.39,-721.6848 -175.5773,-719.7306 -157.9665,-710.165 -142.9399,-702.9318 -132.4991,-692.6767 -121.3596,-679.7525 -113.2938,-656.1021 -107.3693,-636.2289 -101.3378,-603.8033 -95.0135,-573.6048 -91.7068,-545.0252 -87.7939,-517.3192 -84.9397,-490.637 -82.9521,-473.0853 -79.677,-443.9174 -75.8584,-411.291 -72.1023,-379.0668 -65.8959,-335.0884 -59.7687,-292.5429 -54.6712,-260.4134 -46.68,-222.1705 -35.2661,-183.4612 -19.5873,-152.275 -3.393,-121.7225 13.8577,-91.348 34.5443,-71.3349 56.2076,-56.4485 72.6167,-49.9249 92.432,-42.2208 116.2505,-34.5323 135.9658,-29.6234 154.7841,-27.2059 173.9223,-23.9449 193.8195,-22.2481 214.7409,-20.5479 235.1812,-19.3511 256.3454,-18.15 276.9457,-17.3047 294.852,-16.1745 313.4963,-15.036 331.3353,-14.2468 349.6658,-13.4539 367.5609,-12.9376 388.9071,-12.7046 406.7737,-12.4329 428.2084,-12.3518 449.7345,-12.2613 471.2363,-12.3031 492.7727,-12.3223 514.3403,-12.4737 532.2667,-12.7866 550.1512,-13.0994 568.2505,-13.6438 586.1384,-14.1939 604.2897,-15.0153 625.8808,-15.6697 644.2964,-16.836 665.4759,-17.7358 686.3035,-18.6333 707.3206,-19.8731 727.8559,-21.1179 749.116,-22.9174 769.4565,-26.1756 788.3717,-29.4927 810.0595,-34.3747 828.6754,-39.1452 847.2259,-43.1547 866.6839,-49.5016 882.4781,-55.709 893.6451,-60.223 908.4813,-69.0563 922.5314,-81.5126 930.4082,-89.6874 938.1967,-97.8418 947.113,-107.6527 949.1697,-111.7165 935.7859,-118.4897 933.7293,-114.4258 927.3431,-108.1955 919.561,-100.0478 911.7298,-91.9206 898.5447,-80.293 886.0781,-73.1745 876.9563,-69.6557 861.1972,-63.4621 842.5838,-57.4183 825.5377,-53.8134 806.3404,-48.9063 785.0797,-44.127 766.8722,-40.9513 746.7441,-37.7287 726.6057,-36.0657 706.4145,-34.8457 685.4202,-33.6072 664.8308,-32.7219 643.6597,-31.8225 624.934,-30.6398 603.8381,-30.0085 585.461,-29.1786 567.7901,-28.6367 549.7002,-28.0926 532.0049,-27.7843 514.0785,-27.4714 492.6677,-27.3219 471.2231,-27.3031 449.7054,-27.2613 428.2715,-27.3517 406.8304,-27.4328 389.1356,-27.7029 367.7246,-27.9367 350.0994,-28.4476 331.9842,-29.2327 314.1592,-30.0213 295.7671,-31.1465 277.8906,-32.2749 256.9617,-33.1373 236.0318,-34.327 215.6177,-35.5223 195.0358,-37.1987 175.1969,-38.8906 157.3244,-41.9892 137.8823,-44.5005 119.9122,-49.0785 97.0492,-56.4925 78.0608,-63.9021 61.7492,-70.3873 43.1331,-83.6325 24.3243,-102.0927 9.7166,-129.0121 -6.3337,-159.2993 -21.8641,-190.1982 -32.2794,-226.3686 -39.9865,-263.4729 -44.9533,-294.8893 -51.0491,-337.2264 -57.2494,-381.1628 -60.9591,-413.0267 -64.7787,-445.6611 -68.0458,-474.759 -70.035,-492.3248 -72.879,-518.9146 -76.8539,-547.1206 -80.1128,-575.3276 -86.6533,-606.8634 -92.6221,-638.9712 -98.9106,-660.3594 -107.1613,-684.5908 -120.8722,-702.1538 -132.3972,-713.602 -151.1735,-723.5387 -168.4159,-732.9106 -191.3516,-736.5457 -213.2623,-739.3492 -235.1379,-740.7716 -257.2767,-742.1497 -279.3135,-742.9534 -301.5798,-743.7477 -318.851,-744.7245 -341.488,-745.2254 -358.5333,-745.8305 -375.4301,-746.2049 -392.4408,-746.5765 -409.3163,-746.7802 -426.2082,-746.9828 -448.7374,-747.0684 -471.2387,-747.0691 -493.7121,-747.0698 -516.2081,-746.9859 -538.6318,-746.902 -555.4954,-746.701 -577.8459,-746.5208 -594.7467,-746.15 -611.9904,-745.5426 -628.8414,-744.9379 -644.5132,-744.4513 -653.721,-743.9561 " stroke="none" fill="blue" stroke-width="0" shape-rendering="crispEdges" />
<polygon points="-949.3762,-118.0463 -935.5794,-112.1599 -907.9681,-177.038 -903.5251,-192.9183 -896.5201,-223.0459 -888.4181,-260.9122 -883.5047,-291.9407 -878.4117,-326.8555 -872.0513,-371.466 -867.1051,-412.7034 -862.676,-450.19 -858.71,-482.0943 -853.4463,-521.8414 -845.7024,-564.2276 -838.955,-597.8316 -831.7117,-630.0035 -824.2302,-658.8651 -812.1771,-681.5568 -802.5118,-693.4622 -786.2827,-704.0064 -769.5017,-712.9914 -749.1782,-721.7616 -727.9387,-724.474 -708.1038,-725.3576 -694.5789,-726.2193 -676.1597,-726.2193 -676.1597,-741.2193 -694.5789,-741.2193 -709.0414,-740.3283 -728.6053,-739.4592 -751.0611,-736.6429 -775.2762,-726.8354 -793.3397,-717.2427 -810.6665,-706.0519 -823.6227,-691.2522 -837.4328,-665.9849 -846.2056,-633.8669 -853.5881,-601.1288 -860.4087,-567.1814 -868.202,-524.5376 -873.5798,-484.0669 -877.5615,-452.0406 -882.0014,-414.4635 -886.9446,-373.2524 -893.2614,-328.9733 -898.3476,-294.1059 -903.2335,-263.2585 -911.1872,-226.1884 -918.1353,-196.3159 -922.4115,-181.086 " stroke="none" fill="blue" stroke-width="0" shape-rendering="crispEdges" />
<polygon points="524.1752,420.5603 522.8014,414.5349 530.6613,411.0468 546.8593,400.4252 557.2461,382.5349 558.1354,364.0124 551.866,343.535 542.9266,325.0275 532.1722,308.5075 515.3066,295.9981 501.2353,288.8367 480.936,287.287 464.6407,287.1604 446.5552,287.8607 429.746,294.9795 413.027,305.9807 400.262,323.7695 390.8814,342.3155 384.616,361.5818 384.3819,379.1656 393.0675,397.793 411.3635,410.9717 428.6686,420.2918 444.5985,428.1739 457.9018,434.1278 495.7719,426.375 489.4346,438.4426 476.0824,465.6481 467.6708,487.5978 457.2836,508.6821 455.6336,524.6964 440.1823,523.1045 424.6202,521.2737 410.8947,519.6737 396.9079,515.6595 382.7579,511.2318 369.8572,505.0644 354.196,496.3904 337.0625,486.4448 321.7079,474.5967 307.529,462.3758 297.1655,450.8986 287.4152,434.8807 279.0719,418.254 277.0352,389.4449 275.892,361.3397 275.8239,335.8798 277.916,317.8647 287.9799,295.7962 298.0644,284.486 314.0215,269.5094 329.7133,254.916 343.5646,241.8065 357.7335,233.725 370.0169,227.5803 378.9887,225.0244 394.5474,221.2546 411.64,217.4683 428.2738,215.3859 445.8352,213.6612 467.5243,212.4596 484.7172,212.6738 505.4014,214.0182 528.8228,218.1967 549.8615,222.2354 564.4536,225.6454 584.8201,234.5121 607.0333,250.2325 622.7478,264.7442 637.8822,278.6988 655.2538,302.7721 665.8475,323.7183 666.4615,350.4838 665.0536,380.0921 659.4583,412.8966 649.6804,437.5708 636.2277,459.7601 621.1486,474.3845 606.2397,485.9639 588.4489,496.3377 573.0269,504.8652 560.6694,510.8455 545.7531,515.5852 532.707,519.4217 513.4497,523.4418 498.6757,538.4558 484.3985,552.8603 468.2863,566.3407 452.8991,579.4401 442.1187,590.0148 425.9121,588.765 404.187,586.2053 388.4669,583.5049 367.8553,579.3428 351.6288,574.9036 332.5459,569.2346 315.498,562.4574 298.2797,555.357 280.2042,545.2762 264.7672,536.3858 253.8088,529.4073 241.8494,518.8691 228.9335,503.9985 220.0772,491.1249 210.6227,476.6721 200.5813,457.4679 193.2336,434.5095 189.7995,409.8277 188.8022,378.4029 190.6221,345.8708 200.2502,307.2529 212.4641,277.0891 223.2756,254.3908 240.5389,233.8993 259.1613,215.8186 275.4781,205.8515 292.9365,195.6572 315.523,183.919 331.7249,176.9759 350.6834,170.2965 367.3785,165.4646 388.5576,160.8654 404.2435,158.1326 426.2418,155.4287 449.3725,154.5119 471.0015,153.8131 493.6375,154.4768 516.5332,155.2498 531.9814,156.2937 539.7669,157.0764 554.8769,159.6778 564.7209,162.2245 580.1698,166.8786 599.3554,173.6133 621.9947,181.9331 644.9778,193.8371 666.7297,205.2406 682.0203,214.3957 701.4337,232.874 718.3799,252.6757 729.574,273.9607 741.777,303.9495 752.1576,339.2729 754.2173,372.3775 752.3226,404.7134 741.8312,442.9408 729.9384,471.9831 713.57,498.4307 696.2638,518.3886 678.1458,536.1261 662.3754,545.2663 644.987,555.0206 627.0964,562.4484 610.5681,569.0433 591.0237,574.8712 575.1172,579.2308 554.2318,583.4607 538.6553,586.1438 513.6155,590.361 498.799,602.4811 483.6915,614.6069 470.7137,625.3661 455.1322,636.4454 445.7183,645.4424 429.2717,644.7629 408.7748,643.6483 390.8741,642.1322 370.9739,640.1748 353.1185,637.6632 333.0563,633.9885 314.8854,630.2279 293.2898,624.5713 274.2604,619.0176 257.5932,614.0925 240.4743,607.9061 225.378,601.5579 216.469,597.4803 203.9317,589.9905 190.4375,580.0289 176.0517,565.6364 160.4131,546.1334 142.2812,518.2988 128.3628,486.0128 116.7361,450.4249 111.8607,410.887 109.9793,372.4938 111.784,340.9096 115.3946,314.7707 121.5679,289.8949 128.4719,270.6444 136.6354,253.3157 145.2808,237.1617 156.4066,220.3382 169.1798,205.2117 184.956,190.5677 201.9214,176.9993 217.7858,164.84 236.7914,153.1892 254.3769,145.0161 272.6242,138.5826 292.0346,132.4657 314.3876,126.0685 333.2734,121.8017 353.8417,117.6246 374.2232,114.7999 393.6989,112.6729 414.3806,110.9478 434.438,109.7212 452.6965,109.0012 471.1277,108.66 489.6162,108.9167 507.8702,109.5591 527.9534,110.7191 548.6091,112.3818 568.09,114.4705 588.5167,117.2701 606.9347,120.2785 625.9027,124.5545 643.1518,128.5428 662.6531,134.6754 678.6125,139.8518 693.4566,145.5967 708.4423,153.1199 725.4687,164.2222 741.065,176.5337 757.184,189.7479 772.6657,204.1123 785.5669,219.2539 796.9542,236.264 805.8011,252.7142 813.7962,269.5811 821.413,292.9284 827.6239,317.6414 830.9208,345.7203 832.7608,377.557 832.9832,410.6883 829.8411,440.435 824.6875,467.6693 819.3666,487.9982 811.2952,507.0665 802.0174,524.0827 787.8261,542.22 773.5638,558.1273 759.3791,572.4716 742.8429,585.1894 727.9593,595.7116 717.6421,601.1474 702.3636,607.7862 685.3031,613.9782 668.4311,618.981 648.4103,624.2578 627.1647,629.8441 606.4365,633.6467 586.5099,637.2997 568.5152,639.8343 549.5243,642.0809 531.661,643.594 510.1291,646.1892 495.0367,657.29 481.3193,668.3454 470.9865,678.2005 457.2549,688.6845 450.3626,697.0389 433.7676,696.7381 415.2596,696.4408 394.7868,695.7444 376.5129,695.1307 356.2252,693.9282 334.696,692.102 314.2771,690.2948 292.1456,687.7066 271.286,685.1047 254.4914,683.1424 236.8802,680.3872 220.8473,677.6566 208.0018,675.0742 193.098,671.4687 179.2771,667.5906 170.5764,664.453 156.2677,658.6287 139.7092,649.218 123.8307,639.2686 105.656,626.4483 84.0768,605.2204 66.9622,581.2963 54.4459,557.5564 42.9144,524.6411 34.9459,488.5486 31.3088,453.5339 30.3108,418.2809 30.9514,378.3021 34.8084,343.1697 41.1793,305.9695 52.6064,267.6935 64.8166,232.3701 78.7875,202.926 93.8928,176.8572 107.531,159.4751 122.4367,146.1059 140.9413,133.6425 159.049,122.8932 181.6501,112.3051 202.704,102.3395 224.1561,94.9667 242.4827,89.0691 257.9357,84.8909 274.3578,81.5313 296.4322,77.8248 313.9714,75.4983 335.9885,72.9868 359.1447,70.4875 376.1497,69.1357 393.0814,68.2597 410.3044,67.3874 427.4364,66.9374 449.2872,66.5814 471.1326,66.2301 493.1648,66.5073 514.9537,66.7892 531.9991,67.1817 549.4057,68.0234 566.1663,68.8531 583.3769,70.1983 599.6765,71.5218 621.6416,74.0061 637.4379,75.9437 654.0266,78.3091 669.0455,80.9365 683.6068,83.7634 697.5238,87.1061 712.8733,91.3243 730.6705,96.52 746.945,102.7776 765.0882,109.6304 782.3858,119.0446 798.4893,127.6496 811.9679,137.0126 825.2234,147.2729 836.8953,159.1682 849.2176,176.0257 863.5859,202.0696 877.4443,231.3167 889.8348,267.1561 901.1588,304.9917 907.6212,342.6201 911.4925,377.6012 912.1544,417.9583 911.1789,452.998 907.6393,487.7144 899.7769,523.7774 888.4452,556.5399 876.0383,580.3945 859.2269,604.2107 837.7487,625.6507 819.0147,639.008 803.0503,649.0374 787.0611,658.2042 772.2028,664.3296 763.7093,667.4229 749.6459,671.3988 734.7576,675.0146 721.8504,677.6206 705.6982,680.3775 688.2722,683.1116 671.2397,685.1074 653.0662,687.1143 631.1696,689.6801 612.6499,691.1161 591.2827,692.9292 570.8195,694.1429 549.8506,695.3493 529.3715,696.0453 509.5517,696.7413 469.496,698.1882 480.0813,690.1287 491.6391,679.2312 504.4327,668.9824 519.0122,658.2759 532.644,658.5618 550.7892,657.0275 570.2742,654.7308 588.6005,652.1533 609.1366,648.4017 629.8713,644.5979 652.2109,638.7683 672.254,633.4856 689.5645,628.3602 707.4708,621.89 723.6083,614.9098 734.9278,608.9946 751.4602,597.4671 768.5197,584.3649 784.1952,568.7091 798.9898,552.2387 813.8243,533.3347 824.429,514.3124 833.1691,493.8713 839.1848,471.52 844.5776,443.2343 847.8989,412.2764 847.7606,377.4774 845.8961,344.8596 842.5224,315.8991 835.9693,289.307 828.06,264.9397 819.3755,246.3318 810.1689,229.1669 798.0456,210.9303 784.1075,194.4125 767.4131,178.7768 750.5831,164.9403 734.7635,152.4491 716.6538,140.5671 700.2236,132.2098 684.0571,125.8748 667.2914,120.4106 647.6519,114.2337 629.2998,109.9442 610.2335,105.6458 590.9452,102.468 570.1287,99.6097 550.2106,97.4675 529.1588,95.7676 508.7365,94.5842 490.1454,93.926 471.3374,93.6615 452.4221,94.0038 433.8483,94.7328 413.4663,95.9757 392.4533,97.7247 372.5966,99.8884 351.7848,102.7663 330.2982,107.0997 311.0835,111.4369 287.9147,118.0426 268.1177,124.2756 249.3923,130.8686 230.4929,139.5756 209.9744,152.0344 192.8208,165.0754 175.5882,178.8526 158.9852,194.2086 144.9723,210.6297 132.7904,228.8557 123.423,246.214 114.9057,264.2445 107.4568,284.8079 100.8416,311.136 96.9283,338.8334 95.0044,371.6265 96.8779,411.6048 101.8479,452.2529 114.0877,490.6196 128.5011,524.2241 147.8186,554.2807 164.3352,575.0025 179.8055,590.61 194.9648,602.0152 208.7434,610.3378 219.0753,615.1695 234.6557,621.7316 252.4876,628.1969 269.9988,633.3995 289.0874,638.9706 311.0828,644.7379 330.0084,648.6755 350.4145,652.4174 368.8793,655.0278 389.4009,657.0597 407.5083,658.5947 428.4547,659.7407 445.0986,660.4296 464.0355,648.5174 479.4054,637.5913 493.2513,626.1659 508.1877,614.1795 523.1127,601.9715 540.4658,601.0342 556.7697,598.2445 578.0925,593.9327 594.9739,589.3417 614.853,583.4183 632.6324,576.3895 650.738,568.8743 669.6814,558.3668 685.6668,549.1044 706.6652,529.1965 724.8916,508.2705 742.6694,479.9155 755.6938,448.6703 766.7821,408.7039 769.1872,373.3281 767.1303,338.3673 756.1891,299.7912 743.4749,268.3246 731.6661,245.7133 712.8965,223.1991 692.3796,203.5474 674.5576,192.4451 651.9512,180.5566 628.8936,168.6137 604.5627,159.5462 585.1388,152.7255 569.0543,147.8641 558.642,145.1581 542.336,142.2981 533.5166,141.3724 517.5489,140.2842 494.1464,139.4854 471.4412,138.8196 448.8978,139.5194 425.6479,140.4404 402.4302,143.2426 385.9921,146.0864 364.1997,150.8053 346.5273,155.8838 326.7492,162.8252 309.6273,170.1262 286.0302,182.3416 267.9203,192.8947 251.3431,203.0172 230.1622,223.0675 211.8189,244.7086 198.9813,270.5155 186.3498,301.6157 176.0742,342.2156 173.829,377.5055 174.8066,410.2889 178.3733,436.5517 186.275,461.9769 197.2951,483.555 207.5066,499.309 216.5741,512.4982 230.5019,528.6789 243.8463,540.6211 256.6252,548.9837 272.7112,558.2706 290.973,568.4571 309.7428,576.3093 327.004,583.1732 347.3361,589.2762 363.8953,593.8107 385.4861,598.2057 401.6443,600.9883 424.1499,603.6611 440.9597,604.97 461.9747,591.383 478.0034,577.7678 494.0237,564.3648 509.3129,549.0317 524.1414,533.9627 534.5509,534.3079 549.8884,530.004 565.2092,525.142 579.4908,518.4009 595.6976,509.47 613.7942,498.9226 630.3103,486.2615 646.6471,470.5506 662.4374,445.4613 673.38,418.4811 679.8277,382.6857 681.4431,351.2255 680.8438,323.3851 668.8208,296.3739 650.0818,269.9712 632.9939,253.789 617.2099,239.2126 593.5126,222.2875 570.5343,211.9331 553.3925,207.657 531.6564,203.4668 508.0364,199.2515 485.7226,197.7075 467.7206,197.4609 445.0172,198.6835 426.8136,200.4572 409.7791,202.5842 391.3297,206.6038 375.4581,210.4458 365.9161,213.1518 351.1391,220.2523 336.1445,228.7703 319.5159,243.9154 303.8063,258.5253 287.7992,273.5487 276.8027,285.7927 264.3493,311.4659 260.96,333.8637 260.892,361.3397 262.0475,390.0513 264.1091,419.31 273.832,441.2445 284.335,458.669 296.3159,472.3391 311.8767,485.9258 327.8915,498.3146 346.6251,509.3395 362.5881,518.1854 376.2758,524.7589 392.3589,529.9531 406.7538,534.0908 422.784,536.1609 438.4296,538.0018 454.0956,539.6173 470.9424,514.882 481.1255,494.2289 490.0821,471.0341 502.8936,445.0649 514.754,422.489 NaN,NaN 517.7567,416.7736 514.754,422.489 495.7719,426.375 504.2873,410.1597 520.8407,405.9357 522.8014,414.5349 NaN,NaN 466.9896,700.0966 450.0907,712.0364 433.5258,711.7361 414.7497,711.4322 394.2813,710.7359 375.6235,710.1043 354.9573,708.8745 333.3715,707.0434 312.5346,705.1932 303.8122,704.173 304.4528,704.1499 469.496,698.1882 NaN,NaN 290.2889,702.5912 303.8122,704.173 105.0043,711.3324 -84.5258,718.5146 -140.3452,720.6682 -151.1166,725.8647 -168.1694,734.4986 -189.2201,737.5651 -83.9475,733.5034 105.5724,726.3217 304.9926,719.1402 510.0931,711.7315 529.898,711.0361 550.3601,710.3406 571.6796,709.1182 592.1707,707.9029 613.9165,706.0626 632.3291,704.6353 654.8081,702.0128 672.886,700.0168 690.0177,698.0097 708.0185,695.197 724.3735,692.4069 737.7225,689.7186 753.1806,685.9763 767.7848,681.8586 777.3057,678.4349 792.772,672.0745 810.4683,662.0748 826.9894,651.7125 846.4501,637.869 869.7895,614.8611 888.2602,589.0907 901.735,563.4956 913.9414,528.7135 922.2904,490.9308 926.0994,454.5399 927.1483,418.3846 926.4905,377.358 922.5317,340.9839 915.9433,302.458 904.2108,262.8747 891.6218,226.4181 877.1499,195.6651 862.3549,168.7863 849.0297,150.3502 835.9782,136.8165 821.1987,125.1892 807.0556,115.3362 789.4906,105.8339 772.2588,96.4553 752.2936,88.7636 736.0538,82.5193 717.0963,76.931 701.4996,72.6426 687.114,69.1792 671.9114,66.2128 656.6127,63.5338 639.5586,61.0944 623.4692,59.1179 601.3626,56.6169 584.5943,55.2478 567.3352,53.8987 550.15,53.0419 532.7236,52.1992 515.301,51.7933 493.3592,51.5085 471.3213,51.2313 449.0482,51.5833 427.1921,51.9394 409.9108,52.3926 392.3246,53.2789 375.3748,54.1557 357.9585,55.5345 334.3808,58.0732 312.2715,60.5949 294.4608,62.9549 271.8769,66.7379 254.9333,70.1944 238.5804,74.5856 219.5674,80.6857 197.8296,88.1536 175.2586,98.735 152.6855,109.3098 133.3054,120.7315 114.0642,133.66 97.5539,148.2743 82.1386,167.5384 65.828,195.3729 51.27,225.9289 38.4354,262.7759 26.8069,301.6759 20.0272,340.6168 16.0416,376.6593 15.313,418.0284 16.3148,453.9551 20.0252,490.0895 28.2629,527.8559 40.2819,562.4942 53.6724,588.2521 71.8565,613.9188 95.0981,637.1033 115.1303,651.4876 131.736,661.9234 148.8512,671.667 164.8672,678.324 174.1777,681.6972 189.026,685.9055 204.4699,689.6524 217.8845,692.3611 234.3587,695.1738 252.1724,697.962 269.5403,700.0028 NaN,NaN -267.6657,740.5917 -355.3993,736.6319 -442.7369,747.6866 -426.0842,747.6069 -409.2634,747.4178 -392.4567,747.2276 -375.5244,746.8798 -358.6977,746.5295 -341.7347,745.9623 -319.0402,745.4932 -301.8668,744.5775 -279.523,743.833 -257.3954,743.0803 -235.1717,741.7915 -213.1964,740.4645 -191.1908,737.8521 -189.2201,737.5651 NaN,NaN -442.8085,732.6867 -355.3993,736.6319 -298.7903,729.4666 -302.3664,729.5858 -319.8376,730.5144 -342.0421,730.9654 -359.1985,731.5379 -375.836,731.8831 -392.7648,732.2308 -409.4329,732.4188 -426.2529,732.6078 NaN,NaN -280.0314,728.8416 -258.2638,728.1055 -236.0672,726.8182 -214.9645,725.5691 -193.0749,722.9709 -188.871,722.5405 -268.2735,725.604 -298.7903,729.4666 NaN,NaN -174.9408,721.114 -188.871,722.5405 -140.3452,720.6682 -131.5877,716.4434 -119.8286,704.7868 -105.8577,687.1693 -97.4283,662.0718 -90.3237,630.1309 -84.6034,597.1226 -78.0347,563.4859 -73.6731,524.5253 -68.4235,484.4918 -64.5588,452.8807 -60.156,415.5132 -55.1303,373.7124 -48.701,328.9532 -43.5628,294.0046 -38.8286,264.0554 -30.8142,226.9514 -20.3649,190.9782 -10.5957,165.711 5.1867,135.8795 20.2449,107.3998 30.9594,93.3996 43.4994,82.0364 56.0437,74.5524 65.8628,70.5935 81.0884,64.4893 99.1148,58.5075 116.6509,54.6407 136.6133,50.6819 157.4672,45.8455 178.0662,43.1857 197.8137,39.8929 218.751,38.0282 237.8512,35.6997 259.0661,34.3619 277.8443,32.6779 295.7341,31.4595 314.1762,30.2497 332.0041,29.3902 350.0759,28.5367 371.4677,28.0472 392.8305,27.7209 414.3209,27.3876 435.7511,27.1967 453.4697,27.0471 471.2032,26.9146 488.9983,26.9901 506.7217,27.0872 528.1331,27.2232 549.6747,27.5062 571.0112,27.7926 592.4754,28.2469 613.5102,28.6935 631.4326,29.5296 652.2227,30.1771 670.2587,31.3717 690.6446,32.2771 708.9029,33.9558 728.8053,35.2036 747.2935,37.5612 766.453,39.2805 785.2974,42.6375 803.4558,45.0403 822.6392,50.004 839.2314,53.4964 858.7153,61.2689 873.8429,67.2445 885.921,73.3402 898.355,80.4848 911.5532,92.2048 919.3948,100.4146 927.2093,108.6356 933.6951,115.0022 935.783,119.1367 949.1726,112.3751 947.0847,108.2406 938.0848,98.3048 930.2668,90.0802 922.4004,81.8443 908.3303,69.2825 893.5241,60.4098 880.6161,53.8607 864.2524,47.3282 844.7893,39.564 825.8179,35.3447 807.2178,30.5197 787.3082,27.7729 769.0889,24.5139 748.6556,22.6231 730.7067,20.3245 709.8528,18.9859 692.0205,17.3403 670.9303,16.3868 653.2155,15.21 631.9029,14.5369 614.2099,13.7098 592.7955,13.2503 571.3286,12.7959 549.8761,12.5076 528.3301,12.2245 506.8171,12.0875 489.0805,11.9903 471.2668,11.9148 453.3581,12.0475 435.6244,12.1973 414.1873,12.3882 392.5979,12.7227 371.2386,13.0489 349.7329,13.5407 331.2984,14.4068 313.4539,15.2671 294.7531,16.4916 276.8251,17.7126 257.7277,19.4217 236.9091,20.7293 216.9455,23.1373 196.4858,24.9518 175.6149,28.3873 155.5497,30.9686 133.2491,36.064 113.7356,39.9267 95.8862,43.8591 76.3931,50.2431 60.2931,56.6659 50.4347,60.6406 35.8876,69.1112 20.9814,82.1996 8.3979,98.1994 -8.0501,128.8235 -23.8545,158.6964 -34.3455,185.543 -45.2156,222.7563 -53.4889,260.8813 -58.378,291.6568 -63.5414,326.7711 -69.9779,371.5796 -75.0487,413.7219 -79.4557,451.1255 -83.3126,482.6714 -88.5458,522.575 -92.9415,561.8166 -99.3232,594.2368 -105.1033,627.5688 -112.0696,658.8112 -120.0694,682.3706 -131.3716,695.2078 -142.1239,705.7668 -157.349,712.2207 NaN,NaN 504.4771,409.7984 504.2873,410.1597 464.024,420.4341 451.2476,414.7281 435.7615,407.0747 419.599,398.4347 406.4038,390.9269 399.3814,379.0444 398.9012,366.1572 404.2878,349.0437 412.6669,332.2026 421.328,318.4744 436.0249,308.6022 447.1424,302.8492 464.5287,302.16 480.2775,302.2726 494.5006,302.2399 506.6767,308.267 519.6262,316.7293 529.4427,331.599 537.6022,348.1764 543.1354,363.9708 543.9411,375.6083 538.6199,387.8908 523.4014,397.9208 " stroke="none" fill="red" stroke-width="0" shape-rendering="crispEdges" />
<polygon points="-935.6794,112.5887 -949.2762,118.9231 -925.0605,170.688 -920.8055,185.4605 -916.5841,200.2412 -910.2042,225.4216 -905.2222,251.0606 -901.3455,274.1348 -896.6504,304.2726 -891.5646,339.1298 -887.3421,373.5191 -882.3094,415.5096 -877.9146,452.9407 -874.0636,484.559 -868.7842,524.8796 -861.3028,566.768 -854.8013,599.9555 -847.2859,633.5102 -837.9284,666.7138 -824.0635,692.2048 -810.735,708.1285 -792.9255,719.646 -775.0077,728.653 -751.2295,737.874 -728.8458,740.5131 -707.2919,741.7999 -684.9017,743.0942 -662.9489,743.8377 -640.7582,744.5746 -623.1919,745.5047 -600.8389,745.9617 -583.6851,746.5337 -566.9513,746.8813 -549.9516,747.2299 -536.5885,746.574 -530.6765,749.6274 -528.3054,751.0529 -518.2664,761.101 -512.0135,754.8539 -517.0608,740.3942 -522.8735,736.8167 -529.6707,733.2644 -549.7824,732.2309 -566.6434,731.8844 -583.3736,731.5369 -600.3385,730.9701 -622.8848,730.5078 -639.9617,729.5957 -662.4501,728.846 -684.394,728.1028 -706.4248,726.825 -727.9518,725.5398 -749.4647,722.9782 -769.4442,714.7229 -786.1695,706.2536 -802.563,695.55 -812.3912,682.7837 -824.7198,659.6051 -832.8263,629.5202 -840.1631,596.681 -846.5824,563.8854 -854.0178,522.2427 -859.1902,482.6146 -863.0246,451.1273 -867.4117,413.7605 -872.4486,371.7341 -876.6764,337.3018 -881.8074,302.1078 -886.5242,271.826 -890.4294,248.5757 -895.4794,222.5617 -902.0419,196.5637 -906.3813,181.3444 -910.6465,166.5364 NaN,NaN -528.8681,750.4896 -522.6153,744.2425 -526.0047,752.436 -528.3054,751.0529 " stroke="none" fill="red" stroke-width="0" shape-rendering="crispEdges" />
<polygon points="468.8867,-410.1063 479.0661,-421.1235 457.9323,-434.4507 444.6624,-428.5002 428.4023,-420.4012 409.1042,-408.5636 392.7061,-393.2954 384.0173,-374.6885 384.2863,-357.0799 391.1201,-337.1299 401.3668,-321.283 412.4407,-306.5314 428.3031,-295.5945 444.4674,-288.2464 461.9103,-287.5474 478.2336,-287.4556 498.6938,-288.7991 513.5737,-295.8177 531.3239,-308.2863 542.5275,-324.8312 551.8451,-343.516 558.209,-364.1428 557.259,-382.7448 546.8647,-400.8113 530.5472,-411.534 517.4452,-417.3341 502.5095,-445.5627 488.981,-472.9681 474.4732,-494.2258 463.2926,-516.5267 440.9216,-538.3507 424.4725,-536.5321 407.4084,-534.3682 390.5282,-529.3074 370.8146,-521.8062 353.9374,-512.5665 331.3656,-497.3813 306.4895,-477.4199 286.6903,-450.094 270.8299,-419.2709 262.3465,-381.8773 260.6909,-351.1043 261.2092,-321.4623 269.8407,-299.623 281.4255,-278.8627 292.1949,-267.6865 308.0517,-253.0418 324.0605,-238.3429 336.1382,-228.5653 351.1385,-220.1854 366.1162,-213.1336 380.1301,-209.5919 396.1829,-205.7752 418.103,-201.6131 435.3348,-199.5176 457.2776,-198.0613 475.3425,-197.8454 497.9015,-199.0834 515.9413,-200.8523 533.4146,-203.0582 551.2208,-206.9375 567.1977,-210.7908 577.6092,-213.8587 591.5432,-220.639 607.5353,-229.8871 622.8009,-243.8722 638.5547,-258.3814 655.9609,-274.9839 668.8442,-296.6413 680.892,-323.5735 681.4265,-351.3854 679.7978,-383.1746 670.909,-421.1212 655.1646,-451.0225 634.5653,-478.8989 610.6427,-497.7571 587.9369,-512.9685 570.7077,-522.2708 551.4539,-529.4886 533.847,-534.6291 523.2284,-534.3221 508.2401,-549.4366 494.3638,-562.7825 486.6378,-576.2428 479.0385,-590.5666 463.8738,-606.8694 454.6824,-606.5159 438.8667,-605.1852 422.0567,-603.5856 398.009,-600.434 380.0235,-596.8041 355.9832,-591.2744 336.0142,-584.6254 312.4246,-576.3718 288.9591,-564.7474 267.1202,-553.7202 251.2425,-544.5727 238.3315,-536.7406 224.4891,-524.2349 216.4475,-512.8819 207.3195,-499.7139 196.9643,-483.7772 185.2109,-459.7867 177.2068,-434.1153 173.9336,-405.6497 172.8555,-372.9746 173.8796,-339.9047 177.8621,-312.4545 185.8932,-287.0578 196.44,-265.1847 206.3315,-249.4061 215.8638,-235.1785 229.6672,-218.8318 243.3288,-206.3253 256.0151,-197.8046 272.1163,-188.2607 290.6069,-177.6592 308.9841,-169.576 326.2463,-162.343 346.4559,-155.817 362.5303,-151.0626 378.4494,-146.9771 393.9226,-144.255 409.3564,-141.7489 424.6347,-140.6465 440.3058,-139.5544 455.2184,-138.6783 471.2595,-138.691 487.7109,-138.7509 501.8026,-139.6221 517.8652,-140.8397 540.3807,-143.6252 556.3774,-146.4475 577.9703,-151.1422 596.2887,-156.2537 616.1195,-163.1442 633.3184,-170.4322 656.7003,-182.4541 674.5768,-192.7985 690.6695,-202.3821 704.6694,-211.2335 718.4181,-224.2232 726.8831,-236.3281 735.9759,-250.0223 746.1909,-266.4187 757.111,-290.5466 765.041,-316.3215 767.9934,-345.3467 768.9377,-378.1991 766.4748,-413.8281 755.0684,-451.2444 742.3034,-482.0604 730.4109,-504.3132 712.0652,-525.3776 691.3179,-544.4719 674.9898,-553.941 653.4632,-564.8089 629.1703,-576.7874 606.3557,-584.7031 585.7855,-591.5068 562.2545,-596.8715 543.9745,-600.5329 524.9604,-602.0069 509.2111,-614.4481 493.6428,-626.5055 479.5499,-637.9438 463.9852,-648.8394 445.0541,-660.7216 428.3922,-660.0266 407.4193,-658.869 389.3433,-657.3269 368.7976,-655.283 350.3627,-652.6684 329.985,-648.9272 311.0879,-644.9894 289.1238,-639.231 270.0616,-633.6675 252.5237,-628.4626 234.5449,-621.9454 218.9501,-615.4002 208.5776,-610.5942 194.7631,-602.2959 179.6098,-590.9611 164.1719,-575.3882 147.6655,-554.9173 128.2299,-524.7942 114.1344,-492.3438 101.7802,-454.0468 96.1518,-416.9643 94.1108,-376.6231 96.0381,-343.7681 99.6797,-314.2518 106.253,-287.9385 114.304,-263.4034 122.9034,-245.1626 132.2541,-227.9151 144.2428,-208.9257 158.0974,-192.7187 171.0767,-179.5465 185.3586,-167.2543 200.913,-154.7649 213.5389,-146.329 222.9107,-140.9164 238.0163,-133.9861 251.8258,-128.9913 268.2861,-123.7352 288.0678,-117.6254 311.1485,-111.1718 330.3613,-106.9252 351.6839,-102.713 370.6605,-99.8663 390.4559,-97.7902 409.1923,-96.1227 429.6054,-94.9735 450.5204,-94.334 471.3375,-94.1057 492.0899,-94.4051 513.1481,-95.1249 532.432,-96.5057 551.2196,-98.2294 571.292,-100.8467 590.2989,-103.7368 611.3502,-107.9358 632.0359,-112.1427 654.8321,-118.5827 674.3996,-124.2615 690.9946,-129.6236 704.8347,-134.6797 719.95,-141.741 728.9917,-147.0974 741.6805,-155.668 756.9303,-167.9854 771.6671,-180.6665 784.4765,-193.6978 798.5614,-210.3661 810.1989,-229.0501 819.4245,-246.1942 828.1342,-264.8119 836.0517,-289.1348 842.6239,-315.7438 846.0373,-344.703 847.9197,-377.3581 848.0524,-412.2034 844.7067,-443.315 839.3071,-471.635 833.2975,-494.067 824.5418,-514.5556 813.9073,-533.6018 799.0111,-552.5187 784.2032,-568.9985 768.5669,-584.6625 751.5036,-597.7683 734.9492,-609.292 723.6904,-615.1215 707.5618,-622.0861 689.5282,-628.6148 672.3862,-633.6963 653.1529,-639.3119 631.0128,-645.1064 612.319,-648.9869 591.8143,-652.7388 573.3729,-655.3364 553.0324,-657.3484 534.8486,-658.8921 519.0995,-658.562 504.5629,-669.2747 491.7389,-679.5199 480.1542,-690.4067 467.0275,-700.3682 450.0988,-712.2853 433.473,-711.9829 414.6711,-711.6768 394.23,-710.978 375.5466,-710.3447 354.9069,-709.1137 333.3471,-707.284 312.5368,-705.4355 290.3193,-702.84 269.5986,-700.2585 252.206,-698.2246 234.3676,-695.4511 217.8518,-692.6516 204.1681,-689.8909 188.6938,-686.1582 174.0444,-682.0477 159.7104,-677.2667 144.3849,-671.001 127.6833,-663.5333 111.0938,-653.1965 90.4662,-638.2673 72.507,-617.2554 54.0993,-591.3499 39.7525,-562.729 27.5749,-527.9439 19.0204,-489.9307 15.1295,-453.1887 14.8356,-412.5623 15.5465,-371.7524 18.4069,-338.941 22.6033,-309.3274 28.0983,-281.8595 33.3198,-261.799 40.3644,-240.8881 49.5837,-219.0144 59.4135,-197.7135 70.3952,-179.3911 82.7032,-161.4321 93.7152,-148.5698 106.7619,-135.3986 121.1924,-124.2471 135.9701,-114.0718 152.8625,-105.1143 171.0043,-95.4488 190.36,-88.1922 211.8909,-80.9118 232.8021,-75.1498 249.1524,-70.898 271.4802,-66.3887 294.0345,-62.7345 312.3324,-60.3595 334.4441,-57.9251 358.0004,-55.4773 380.0857,-53.8689 397.0858,-53.0641 419.1071,-52.1695 436.3105,-51.8054 453.8732,-51.4373 471.2459,-51.4662 488.7757,-51.4906 506.3077,-51.9091 528.6644,-52.8508 550.7573,-53.8039 573.5622,-55.4421 595.7006,-57.1004 619.1367,-59.5785 636.1717,-61.5312 654.1634,-63.8824 670.8612,-66.8072 693.2629,-71.4048 709.2498,-75.6431 730.3942,-81.5355 752.7583,-89.1582 774.8759,-99.4808 792.4099,-108.9515 812.0389,-120.59 829.3185,-133.7573 845.925,-148.6057 861.2402,-167.9764 877.2577,-195.3738 891.6703,-225.9206 903.596,-257.4392 915.3737,-297.0254 922.2904,-335.1632 926.3009,-371.4673 928.189,-408.625 927.9502,-449.8748 925.6218,-483.186 921.5098,-511.8949 915.417,-539.075 907.0538,-563.3985 896.7312,-583.0483 884.1293,-601.3635 867.3187,-621.5707 846.4083,-638.3246 826.8408,-652.2465 810.3606,-662.5481 792.9435,-672.3994 777.4885,-678.7387 768.0456,-682.0987 753.4708,-686.1965 737.991,-689.9367 724.3983,-692.6789 708.0142,-695.4624 689.9885,-698.2684 672.9369,-700.2597 652.1018,-702.8571 629.7325,-705.4692 609.1021,-707.2973 587.3831,-709.1365 566.7398,-710.3604 548.251,-710.9829 528.2219,-711.6541 511.9199,-713.1164 498.6767,-714.5624 493.633,-714.1816 481.0684,-724.5075 471.5446,-712.9188 484.1091,-702.593 496.5549,-699.7132 510.2873,-698.2055 526.8805,-696.7142 547.74,-695.9916 566.235,-695.3689 586.4936,-694.1629 607.8347,-692.3509 628.4085,-690.5277 650.3601,-687.9586 671.0811,-685.3749 688.2485,-683.3697 705.7025,-680.6416 721.8853,-677.8909 735.0209,-675.2337 749.9428,-671.6172 763.9809,-667.66 772.4346,-664.6157 787.2445,-658.5242 802.9358,-649.5146 818.8858,-639.5297 837.7055,-626.1073 857.9343,-609.8689 872.5397,-591.8409 884.3631,-574.5612 893.7577,-556.4549 901.2154,-534.2465 906.8678,-508.6372 910.7717,-481.0707 912.9861,-448.8377 913.1892,-408.5438 911.3205,-372.2333 907.3817,-336.8156 900.6157,-299.7091 889.2235,-261.7326 877.644,-231.237 863.6963,-201.7838 848.2979,-175.559 834.1869,-157.9448 819.3775,-144.9901 802.9588,-132.5295 784.7889,-121.8712 767.7509,-112.6806 746.4217,-102.754 725.5819,-95.7426 705.2307,-90.0947 689.4195,-85.9041 667.8535,-81.5025 651.578,-78.6579 634.2338,-76.4055 617.4292,-74.481 594.1235,-72.0172 572.4441,-70.4004 549.6825,-68.7654 528.02,-67.8369 505.6765,-66.8959 488.4188,-66.4864 471.2266,-66.4662 453.8483,-66.4373 436.6265,-66.8021 419.4245,-67.1661 397.6957,-68.0517 380.7951,-68.8521 359.0916,-70.4376 335.9966,-72.8445 313.974,-75.2694 295.9664,-77.6096 273.8816,-81.1953 252.1254,-85.6004 236.5872,-89.6644 215.876,-95.3728 195.1726,-102.3992 176.2727,-109.4932 159.9588,-118.3295 142.9974,-127.3239 129.7353,-136.5767 115.9407,-147.2624 104.4111,-159.0864 94.1081,-171.1751 82.7854,-187.8459 72.2843,-205.4169 63.2153,-225.2737 54.1877,-246.7117 47.5394,-266.5743 42.618,-285.625 37.3131,-312.2636 33.2594,-341.0396 30.4903,-373.0502 29.8335,-412.8169 30.1291,-453.0793 33.9354,-488.3362 42.2046,-524.6317 53.9033,-557.7536 67.4959,-584.6021 84.7102,-608.5328 101.8586,-628.5095 119.7813,-640.9684 135.6067,-650.7968 150.4525,-657.283 165.3844,-663.3813 178.7746,-667.813 192.7381,-671.7137 207.6809,-675.308 220.8126,-677.9467 236.8713,-680.6616 254.5099,-683.4026 271.3362,-685.3594 292.1736,-687.9551 314.2771,-690.5368 334.6722,-692.3427 356.1753,-694.1674 376.4379,-695.3712 394.7361,-695.9865 415.1836,-696.6856 433.7162,-696.9848 450.3716,-697.2877 457.3194,-688.9335 471.0786,-678.4638 481.4371,-668.6171 495.1825,-657.5697 510.1966,-646.4898 533.9991,-643.9161 551.7611,-642.4023 571.8958,-640.4093 589.7169,-637.8861 609.6148,-634.2327 627.9624,-630.4198 649.3487,-624.8023 668.1801,-619.2981 685.265,-614.2334 702.4458,-607.9855 717.7332,-601.3552 728.0325,-595.9819 742.894,-585.4852 759.4259,-572.7695 773.555,-558.4336 787.8495,-542.4978 802.1164,-524.3296 811.4123,-507.3018 819.4938,-488.197 824.8053,-467.8015 829.9703,-440.5153 833.1371,-410.6114 832.9199,-377.4353 831.0624,-345.571 827.7279,-317.5066 821.4972,-292.7635 813.8743,-269.4655 805.8559,-252.589 796.994,-236.1655 785.8347,-218.3052 773.0555,-203.422 760.9812,-191.1932 747.1617,-179.3685 732.2573,-167.3386 720.6189,-159.5431 712.3206,-154.6558 698.5157,-148.2838 685.8742,-143.7226 669.7916,-138.5362 650.6537,-132.989 627.9581,-126.5777 608.3758,-122.6379 587.3648,-118.447 569.0433,-115.6772 549.2813,-113.1036 531.0659,-111.4433 512.078,-110.0867 491.5812,-109.3964 471.1222,-109.1041 450.6867,-109.3331 430.0649,-109.9665 410.0373,-111.0989 391.7888,-112.7308 372.2257,-114.7844 353.915,-117.5462 333.2736,-121.6397 314.3872,-125.818 292.114,-132.0693 272.7145,-138.0666 256.3889,-143.2804 243.1235,-148.0899 229.1875,-154.5399 221.0814,-159.2947 209.2586,-167.2289 194.767,-178.9368 180.8643,-190.9133 168.7968,-203.2318 155.653,-218.6626 144.9665,-235.8772 136.0957,-252.3015 127.8756,-269.7919 120.5159,-292.5829 114.235,-317.8772 110.9288,-345.5763 109.0855,-377.4948 111.1318,-416.1896 116.6081,-451.7811 128.3986,-487.7034 141.9821,-518.8046 160.2465,-546.7492 175.8341,-565.9546 190.2435,-580.3816 203.6941,-590.2444 216.2722,-597.7181 225.2035,-601.7658 240.3466,-608.1129 257.6287,-614.3581 274.3189,-619.2844 293.3263,-624.8317 314.8901,-630.4793 333.0375,-634.241 353.0699,-637.9147 370.8989,-640.4309 390.8234,-642.4001 408.6938,-643.9233 429.2164,-645.0493 445.6786,-645.7346 455.0952,-636.7577 470.9464,-625.6564 484.1775,-614.869 500.0251,-602.5899 515.662,-590.2366 541.992,-585.6645 559.2956,-582.1662 582.4499,-576.8824 601.6223,-570.4695 624.2531,-562.6162 646.7998,-551.3702 668.2294,-540.5508 683.784,-531.5011 701.834,-514.4084 719.0849,-494.4785 729.0181,-475.0961 741.2049,-445.5169 752.1228,-409.4669 753.9678,-377.2486 753.0001,-345.7924 750.119,-317.8495 742.7994,-295.0386 732.5387,-272.6328 723.272,-257.9979 714.3882,-244.6272 706.1269,-232.8212 694.4655,-222.228 682.7601,-215.1273 666.9028,-205.6868 649.1879,-195.4374 626.4643,-183.7746 610.2827,-176.962 591.3765,-170.4265 573.9498,-165.5933 553.199,-161.1069 537.7797,-158.3979 516.03,-155.727 500.6767,-154.5798 486.786,-153.7224 471.2167,-153.6909 455.2065,-153.6783 441.1992,-154.5277 425.6779,-155.6102 410.4359,-156.71 396.3561,-159.0563 381.0488,-161.7501 366.2794,-165.5865 350.7144,-170.1998 330.8572,-176.6168 314.8012,-183.4021 296.6469,-191.3894 279.6039,-201.2582 263.6641,-210.7079 251.7021,-218.7707 239.8485,-229.8473 227.3515,-244.824 218.8155,-257.7217 209.1503,-273.15 199.4173,-293.5463 192.1772,-316.9355 188.7318,-342.0053 187.849,-373.418 188.9253,-405.1482 192.1071,-432.3887 199.5079,-455.2484 210.4133,-477.1347 219.8741,-491.5053 228.7738,-504.3343 236.7293,-515.5644 248.2683,-525.504 258.9104,-531.6807 274.6077,-540.7226 295.7138,-551.3544 319.083,-562.9306 340.9344,-570.4553 360.7215,-577.0424 383.3652,-582.181 400.9745,-585.73 423.9948,-588.7113 440.2836,-590.2523 455.9396,-591.5687 464.4372,-591.88 466.5564,-582.2481 473.3701,-569.245 481.3522,-555.3193 497.6906,-538.7732 512.5772,-523.7603 532.0085,-519.7422 547.1683,-515.1138 565.4299,-508.23 580.7617,-499.7959 602.2793,-485.305 625.2706,-467.1257 643.0293,-442.2058 657.62,-414.164 665.1716,-379.847 666.4434,-350.6725 665.895,-323.8709 655.2926,-303.072 643.0797,-282.6699 628.3376,-269.3637 612.6391,-254.9057 597.4027,-240.9474 584.1707,-233.7021 571.0585,-227.3528 563.1119,-225.2237 547.7092,-221.5207 530.2229,-217.7147 514.0885,-215.7374 496.4399,-214.012 474.5252,-212.8231 457.471,-213.0601 436.3355,-214.4842 419.9234,-216.5023 398.992,-220.5098 383.6067,-224.1835 369.7922,-227.6762 357.6522,-233.6973 343.4645,-241.6544 333.5873,-249.9292 318.2024,-264.0855 302.3719,-278.7059 292.2357,-289.2617 283.021,-306.784 275.1726,-326.9416 275.6909,-351.1043 277.3246,-381.0661 285.4485,-415.9101 299.9793,-443.1368 318.615,-468.5897 340.6504,-485.6003 362.3003,-500.1142 377.996,-508.637 395.8145,-515.2697 411.7012,-519.9956 426.2655,-521.6397 442.5696,-523.4415 451.7129,-506.992 461.0103,-487.6115 476.5675,-464.5476 489.0432,-438.9553 504.1859,-410.3205 523.3181,-398.3909 538.6119,-388.2857 543.9255,-375.8731 543.2094,-364.0276 537.5946,-348.1984 529.1308,-331.5785 518.9312,-316.7374 505.2654,-308.3066 492.3655,-302.3988 477.6805,-302.4454 462.001,-302.5472 445.0717,-303.2342 435.0164,-309.0083 421.0047,-318.8463 413.5726,-330.0019 403.7198,-345.2692 398.5318,-361.7773 399.0169,-374.582 406.0361,-386.4171 419.0786,-397.3605 436.1747,-407.5719 451.3305,-415.0638 464.0642,-420.7613 " stroke="none" fill="red" stroke-width="0" shape-rendering="crispEdges" />
<polygon points="-479.8228,-420.1686 -472.9493,-406.8361 -462.3278,-414.5183 -450.1827,-411.2418 -434.7756,-406.4764 -418.0749,-400.572 -400.6738,-392.157 -387.7892,-382.5386 -377.3988,-368.6911 -369.0297,-350.7273 -362.4406,-334.1069 -360.6156,-318.5287 -359.9456,-306.5828 -366.1896,-293.2645 -380.9154,-279.7057 -396.5763,-267.123 -419.7177,-254.222 -439.6197,-243.329 -461.3364,-239.2379 -477.0946,-238.427 -497.0061,-240.7269 -512.3727,-245.6556 -530.0143,-252.9007 -546.3611,-264.56 -561.9499,-276.332 -572.4531,-286.2362 -579.8605,-294.7903 -583.9793,-305.0383 -582.7333,-318.8717 -580.8903,-333.2179 -573.9898,-351.2167 -566.2676,-368.1007 -555.5047,-381.891 -542.1356,-392.1929 -525.934,-400.7923 -505.0119,-411.325 -489.951,-453.2865 -479.0331,-493.1482 -471.0991,-531.4072 -465.8582,-568.0022 -464.4459,-598.8031 -455.5136,-598.5239 -439.2041,-597.3991 -422.8431,-596.1033 -400.9932,-593.5103 -385.6124,-590.9843 -364.8948,-586.6387 -349.4603,-582.2365 -330.8476,-576.1819 -314.5973,-569.0491 -297.2743,-561.0537 -279.9718,-549.5813 -264.6942,-539.1074 -254.2898,-531.004 -242.5663,-518.8693 -229.8085,-501.6625 -221.3347,-487.848 -212.6575,-473.2456 -203.1582,-455.3809 -194.7628,-432.6633 -187.5896,-401.8634 -180.8344,-370.8845 -174.6378,-340.3103 -169.6483,-300.0294 -169.1474,-267.0684 -173.5255,-236.0823 -179.378,-203.64 -186.1081,-172.5647 -196.3866,-150.4768 -208.7153,-131.0759 -220.1245,-120.544 -237.2062,-110.0173 -252.4032,-100.7307 -270.7475,-93.8086 -285.9446,-88.6373 -299.2102,-84.8772 -314.0555,-81.8853 -328.6665,-79.2662 -344.5259,-77.2824 -360.2536,-75.5517 -382.3377,-73.4589 -398.6618,-72.4209 -420.7613,-71.2629 -437.5011,-70.7608 -454.2998,-70.2631 -471.2538,-70.2325 -488.0199,-70.2019 -504.8628,-70.6346 -527.6671,-71.7118 -549.6493,-72.772 -572.9819,-74.7852 -595.0876,-76.7822 -612.2991,-78.7739 -628.4843,-81.6522 -644.6323,-85.1079 -659.7348,-89.974 -679.8807,-99.2075 -700.4832,-109.4581 -718.6517,-122.4633 -737.0596,-138.3647 -751.9043,-162.9602 -761.9102,-183.2213 -769.3332,-216.7944 -773.6137,-246.6049 -773.7861,-285.7962 -768.8219,-326.2123 -762.6356,-369.7048 -755.3271,-401.3892 -740.3109,-444.9643 -727.2368,-474.5482 -717.7515,-492.9028 -701.4305,-513.8829 -682.326,-534.1744 -667.0685,-544.6125 -644.5701,-557.6035 -622.1133,-570.5351 -599.8188,-578.9176 -581.3284,-585.2421 -566.3118,-589.5436 -550.2595,-592.5016 -534.4036,-595.0948 -520.4257,-597.6679 -507.3881,-600.0521 -493.7005,-602.6045 -473.5057,-608.5167 -477.7202,-622.9125 -497.915,-617.0003 -510.0955,-614.8058 -523.1241,-612.4232 -537.1192,-609.847 -552.6792,-607.3051 -569.0287,-604.2955 -585.428,-599.671 -604.666,-593.1128 -627.3903,-584.5763 -652.0077,-570.6297 -674.5691,-557.6025 -690.7814,-546.5642 -712.2903,-524.2301 -729.5783,-502.1293 -740.5221,-481.5125 -754.0277,-451.0346 -769.5058,-406.2844 -777.2475,-373.0946 -783.6711,-328.3339 -788.6742,-287.6254 -788.6136,-246.5614 -784.1858,-214.6972 -776.5586,-179.9924 -765.4126,-156.4389 -749.9104,-130.628 -728.6152,-111.2504 -709.2359,-97.2766 -686.6165,-85.8049 -665.9876,-76.3394 -649.2771,-70.8452 -631.6577,-66.9917 -614.93,-64.0064 -596.8236,-61.883 -574.3331,-59.8462 -550.9389,-57.8275 -528.3933,-56.7294 -505.5706,-55.6513 -488.4066,-55.2069 -471.229,-55.2325 -454.2727,-55.2631 -437.0594,-55.7673 -420.3116,-56.2696 -397.8782,-57.4414 -381.3863,-58.4892 -358.8409,-60.6184 -342.886,-62.3724 -326.8055,-64.3821 -311.419,-67.1189 -296.2485,-70.1725 -281.8766,-74.1995 -265.9246,-79.6051 -247.1104,-86.6955 -229.473,-97.1643 -212.2552,-107.774 -198.6321,-119.9705 -183.8134,-142.2967 -172.5271,-166.1962 -164.7361,-200.3821 -158.7642,-233.4166 -154.2952,-264.9673 -154.6494,-300.2175 -159.7496,-342.1378 -166.1312,-373.8535 -172.9339,-405.0587 -180.1537,-436.0653 -189.0761,-460.5477 -199.3901,-480.2441 -208.4353,-495.5035 -217.022,-509.5049 -230.5053,-527.7873 -243.4643,-541.387 -255.4124,-550.8908 -271.4793,-561.9457 -288.9846,-573.5549 -308.2522,-582.641 -324.8172,-589.9163 -344.7943,-596.4923 -360.7757,-601.0621 -382.5202,-605.6621 -398.5553,-608.3108 -421.0702,-610.9982 -438.0146,-612.3519 -454.4812,-613.4883 -463.9686,-613.7955 -480.4282,-571.5678 -485.9456,-533.5478 -493.7195,-496.1994 -504.4167,-457.2541 -519.1275,-416.3994 -531.0964,-414.876 -549.1202,-405.4675 -564.5876,-393.8285 -577.9735,-377.48 -587.5604,-357.6073 -594.8907,-338.6021 -597.5845,-320.9793 -598.9179,-306.3942 -594.0778,-290.0081 -584.1761,-276.8783 -572.2931,-265.4684 -555.4291,-252.6114 -538.7264,-240.6901 -518.203,-231.835 -501.6125,-226.4517 -478.9165,-223.538 -460.6641,-224.253 -436.8904,-228.5794 -412.7146,-240.9571 -389.2733,-254.0209 -371.5786,-267.9658 -356.0398,-282.22 -346.5759,-299.782 -345.6162,-318.3865 -347.5363,-335.7988 -355.0139,-356.0713 -363.796,-375.0128 -375.7139,-391.4373 -391.4888,-404.0161 -411.4395,-414.0245 -429.7357,-420.6044 -445.7445,-425.5702 -458.415,-428.999 " stroke="none" fill="red" stroke-width="0" shape-rendering="crispEdges" />
<polygon points="-475.3305,239.5182 -472.0029,227.1087 -461.7315,232.5439 -453.8426,233.4941 -441.0814,237.0717 -425.7421,241.8912 -410.1265,249.3735 -395.2529,260.3521 -378.8884,272.9284 -368.2266,283.6952 -359.9148,295.4321 -356.9909,310.3227 -357.9185,324.4839 -359.7028,340.5493 -366.7145,357.541 -375.541,375.0759 -385.7969,384.9832 -399.7379,394.6405 -418.6746,403.9756 -435.6252,410.0304 -455.2427,413.8112 -474.3158,415.6186 -492.5192,413.8642 -509.7746,409.5995 -526.7222,403.4119 -543.1475,394.3076 -557.3044,384.1367 -568.052,372.6419 -575.7888,356.2415 -582.9364,337.9275 -584.3151,323.3753 -585.076,307.9001 -581.093,293.0905 -573.291,283.3473 -562.701,272.9396 -546.9401,260.8645 -530.9801,249.2057 -515.4503,241.9465 -502.9983,237.3489 -492.1057,233.7401 NaN,NaN -476.2128,224.8809 -476.293,223.9745 -471.4455,225.03 -472.0029,227.1087 NaN,NaN -479.1395,191.8094 -476.293,223.9745 -496.8291,219.5032 -508.2253,223.2891 -521.9047,228.4062 -539.8298,237.0944 -556.0984,248.9848 -573.2817,262.3072 -585.4076,274.5049 -595.6559,289.4955 -600.0572,308.6506 -599.2213,325.0506 -596.9022,343.4007 -589.2336,362.8925 -578.9201,382.9804 -566.0196,396.3451 -550.3575,407.4611 -531.8312,417.515 -513.3059,424.1779 -493.8531,428.8048 -472.8725,430.549 -452.341,428.5278 -430.5397,424.142 -411.988,417.4027 -391.1078,406.9092 -375.104,395.5028 -362.1327,381.8004 -352.7672,363.0614 -344.7929,342.1908 -342.9339,325.1634 -342.3904,306.8836 -347.7328,286.68 -357.613,273.0956 -369.7497,261.0337 -386.4297,248.2215 -403.7011,235.8193 -421.2505,227.5795 -437.1208,222.604 -452.0495,218.6016 -460.0742,217.6357 -461.2715,223.5558 -464.1562,191.1025 -465.8948,157.13 -473.8193,124.4205 -483.4149,90.7746 -505.9022,54.4008 -528.5349,55.4974 -550.938,56.6108 -574.1988,58.6181 -596.5964,60.6459 -615.917,62.9972 -632.7427,65.8939 -650.1274,69.5111 -666.9698,74.8942 -687.4012,84.0599 -708.6883,95.1219 -729.1192,110.242 -751.3662,137.4071 -767.4442,164.6264 -778.7174,201.408 -786.4806,236.5289 -790.8062,268.3611 -789.5002,300.9544 -784.5511,341.5714 -778.1539,372.0967 -771.2059,403.592 -763.3492,436.7243 -754.1973,461.4332 -743.7128,481.854 -734.6392,497.1647 -725.9985,511.1248 -716.9904,524.9674 -703.4389,538.7571 -690.4972,547.8758 -674.6008,558.698 -656.778,570.433 -632.7235,584.0588 -615.9174,591.3686 -598.5954,597.4655 -582.3899,602.0115 -560.8045,606.5188 -544.7769,609.0992 -522.3337,611.7334 -504.5494,613.2365 -487.5873,614.3604 -471.2215,614.3938 -454.4027,614.3388 -437.7998,613.2185 -419.9178,611.7005 -397.4003,609.0442 -381.3524,606.4455 -359.6103,601.881 -343.4398,597.3141 -326.0596,591.1648 -309.0456,583.6989 -285.2703,570.1599 -267.7778,558.6166 -251.8769,547.7825 -237.9773,537.8241 -224.5535,523.7594 -216.4367,511.041 -207.7712,497.0554 -198.5406,481.4696 -187.8736,460.5574 -178.7873,435.8106 -171.0707,403.2501 -164.0594,371.7864 -157.4863,340.8618 -152.5284,300.3951 -151.0786,267.5783 -155.387,236.6701 -163.278,201.318 -175.3944,162.9732 -191.452,136.3547 -214.8714,107.9854 -235.0322,93.4289 -255.2142,82.9835 -276.204,73.8336 -299.3063,67.7175 -316.1579,64.3763 -338.7253,60.9522 -358.4874,58.5737 -380.8754,56.6265 -397.5759,55.7001 -419.1504,54.7282 -435.9904,52.7017 -451.2765,50.726 -459.3369,49.3324 -468.5858,45.9875 -473.6873,60.0934 -464.4383,63.4383 -454.0126,65.4743 -437.9237,67.5766 -420.9428,69.6207 -398.2652,70.6843 -381.7064,71.6034 -359.7896,73.5171 -340.5208,75.8444 -318.4104,79.2063 -302.2302,82.4298 -280.0519,88.3316 -261.2627,96.71 -241.9357,106.7459 -223.6935,120.1167 -203.0842,145.8253 -188.2573,170.6897 -177.6049,205.7612 -170.029,239.9277 -165.9366,269.6375 -167.5111,299.6741 -172.374,339.0301 -178.7287,368.6543 -185.7115,399.9874 -193.3829,432.3512 -201.9436,455.358 -211.8869,474.6231 -220.6716,489.4016 -229.1869,503.1395 -237.1976,515.6892 -248.7469,527.383 -260.5196,535.5228 -276.2233,546.22 -293.5316,557.6398 -316.4605,570.6598 -332.0559,577.4154 -348.4281,583.1679 -363.6736,587.4418 -384.4228,591.7631 -399.7908,594.2359 -421.6705,596.8033 -439.0652,598.2719 -455.4116,599.3727 -471.2564,599.3938 -487.5566,599.3604 -503.5438,598.2703 -521.0694,596.7868 -543.0257,594.2018 -558.414,591.7105 -579.3185,587.3293 -594.5289,583.0272 -610.9253,577.2237 -626.7261,570.3099 -649.3653,557.3927 -666.3423,546.1761 -682.0553,535.4768 -694.7984,526.4957 -706.2209,514.5262 -713.351,503.0601 -721.8844,489.2707 -730.808,474.2076 -740.8491,454.5902 -749.2722,431.5436 -756.6051,400.1546 -763.506,368.8657 -769.87,338.4949 -774.6091,299.1502 -775.8178,267.7719 -771.6248,238.6035 -764.073,204.6551 -753.1054,169.0309 -738.5043,145.1252 -717.5365,119.773 -699.8803,107.2636 -680.5324,97.3949 -660.8369,88.5832 -645.6005,83.8117 -629.7205,80.5863 -613.3755,77.7803 -594.7913,75.5369 -572.8486,73.5572 -549.6483,71.5552 -527.7938,70.4791 -505.1762,69.3832 -496.9473,97.2455 -488.257,128.4891 -480.4736,160.6596 " stroke="none" fill="red" stroke-width="0" shape-rendering="crispEdges" />
<polygon points="-677.0554,-741.1657 -675.264,-726.273 -652.9124,-728.9779 -644.0475,-729.4585 -628.3034,-729.9476 -611.4618,-730.552 -594.4171,-731.1536 -577.7249,-731.5213 -555.3163,-731.7021 -538.5757,-731.9021 -516.1521,-731.986 -493.7125,-732.0698 -471.2391,-732.0691 -448.7943,-732.0685 -426.388,-731.9838 -409.4971,-731.7813 -392.7684,-731.5801 -375.7618,-731.2086 -359.0649,-730.8399 -341.8168,-730.229 -319.6966,-729.7484 -302.1146,-728.7573 -279.8585,-727.9633 -258.2086,-727.1787 -236.101,-725.8025 -215.1659,-724.4705 -193.39,-721.6848 -175.5773,-719.7306 -157.9665,-710.165 -142.9399,-702.9318 -132.4991,-692.6767 -121.3596,-679.7525 -113.2938,-656.1021 -107.3693,-636.2289 -101.3378,-603.8033 -95.0135,-573.6048 -91.7068,-545.0252 -87.7939,-517.3192 -84.9397,-490.637 -82.9521,-473.0853 -79.677,-443.9174 -75.8584,-411.291 -72.1023,-379.0668 -65.8959,-335.0884 -59.7687,-292.5429 -54.6712,-260.4134 -46.68,-222.1705 -35.2661,-183.4612 -19.5873,-152.275 -3.393,-121.7225 13.8577,-91.348 34.5443,-71.3349 56.2076,-56.4485 72.6167,-49.9249 92.432,-42.2208 116.2505,-34.5323 135.9658,-29.6234 154.7841,-27.2059 173.9223,-23.9449 193.8195,-22.2481 214.7409,-20.5479 235.1812,-19.3511 256.3454,-18.15 276.9457,-17.3047 294.852,-16.1745 313.4963,-15.036 331.3353,-14.2468 349.6658,-13.4539 367.5609,-12.9376 388.9071,-12.7046 406.7737,-12.4329 428.2084,-12.3518 449.7345,-12.2613 471.2363,-12.3031 492.7727,-12.3223 514.3403,-12.4737 532.2667,-12.7866 550.1512,-13.0994 568.2505,-13.6438 586.1384,-14.1939 604.2897,-15.0153 625.8808,-15.6697 644.2964,-16.836 665.4759,-17.7358 686.3035,-18.6333 707.3206,-19.8731 727.8559,-21.1179 749.116,-22.9174 769.4565,-26.1756 788.3717,-29.4927 810.0595,-34.3747 828.6754,-39.1452 847.2259,-43.1547 866.6839,-49.5016 882.4781,-55.709 893.6451,-60.223 908.4813,-69.0563 922.5314,-81.5126 930.4082,-89.6874 938.1967,-97.8418 947.113,-107.6527 949.1697,-111.7165 935.7859,-118.4897 933.7293,-114.4258 927.3431,-108.1955 919.561,-100.0478 911.7298,-91.9206 898.5447,-80.293 886.0781,-73.1745 876.9563,-69.6557 861.1972,-63.4621 842.5838,-57.4183 825.5377,-53.8134 806.3404,-48.9063 785.0797,-44.127 766.8722,-40.9513 746.7441,-37.7287 726.6057,-36.0657 706.4145,-34.8457 685.4202,-33.6072 664.8308,-32.7219 643.6597,-31.8225 624.934,-30.6398 603.8381,-30.0085 585.461,-29.1786 567.7901,-28.6367 549.7002,-28.0926 532.0049,-27.7843 514.0785,-27.4714 492.6677,-27.3219 471.2231,-27.3031 449.7054,-27.2613 428.2715,-27.3517 406.8304,-27.4328 389.1356,-27.7029 367.7246,-27.9367 350.0994,-28.4476 331.9842,-29.2327 314.1592,-30.0213 295.7671,-31.1465 277.8906,-32.2749 256.9617,-33.1373 236.0318,-34.327 215.6177,-35.5223 195.0358,-37.1987 175.1969,-38.8906 157.3244,-41.9892 137.8823,-44.5005 119.9122,-49.0785 97.0492,-56.4925 78.0608,-63.9021 61.7492,-70.3873 43.1331,-83.6325 24.3243,-102.0927 9.7166,-129.0121 -6.3337,-159.2993 -21.8641,-190.1982 -32.2794,-226.3686 -39.9865,-263.4729 -44.9533,-294.8893 -51.0491,-337.2264 -57.2494,-381.1628 -60.9591,-413.0267 -64.7787,-445.6611 -68.0458,-474.759 -70.035,-492.3248 -72.879,-518.9146 -76.8539,-547.1206 -80.1128,-575.3276 -86.6533,-606.8634 -92.6221,-638.9712 -98.9106,-660.3594 -107.1613,-684.5908 -120.8722,-702.1538 -132.3972,-713.602 -151.1735,-723.5387 -168.4159,-732.9106 -191.3516,-736.5457 -213.2623,-739.3492 -235.1379,-740.7716 -257.2767,-742.1497 -279.3135,-742.9534 -301.5798,-743.7477 -318.851,-744.7245 -341.488,-745.2254 -358.5333,-745.8305 -375.4301,-746.2049 -392.4408,-746.5765 -409.3163,-746.7802 -426.2082,-746.9828 -448.7374,-747.0684 -471.2387,-747.0691 -493.7121,-747.0698 -516.2081,-746.9859 -538.6318,-746.902 -555.4954,-746.701 -577.8459,-746.5208 -594.7467,-746.15 -611.9904,-745.5426 -628.8414,-744.9379 -644.5132,-744.4513 -653.721,-743.9561 " stroke="none" fill="red" stroke-width="0" shape-rendering="crispEdges" />
<polygon points="-949.3762,-118.0463 -935.5794,-112.1599 -907.9681,-177.038 -903.5251,-192.9183 -896.5201,-223.0459 -888.4181,-260.9122 -883.5047,-291.9407 -878.4117,-326.8555 -872.0513,-371.466 -867.1051,-412.7034 -862.676,-450.19 -858.71,-482.0943 -853.4463,-521.8414 -845.7024,-564.2276 -838.955,-597.8316 -831.7117,-630.0035 -824.2302,-658.8651 -812.1771,-681.5568 -802.5118,-693.4622 -786.2827,-704.0064 -769.5017,-712.9914 -749.1782,-721.7616 -727.9387,-724.474 -708.1038,-725.3576 -694.5789,-726.2193 -676.1597,-726.2193 -676.1597,-741.2193 -694.5789,-741.2193 -709.0414,-740.3283 -728.6053,-739.4592 -751.0611,-736.6429 -775.2762,-726.8354 -793.3397,-717.2427 -810.6665,-706.0519 -823.6227,-691.2522 -837.4328,-665.9849 -846.2056,-633.8669 -853.5881,-601.1288 -860.4087,-567.1814 -868.202,-524.5376 -873.5798,-484.0669 -877.5615,-452.0406 -882.0014,-414.4635 -886.9446,-373.2524 -893.2614,-328.9733 -898.3476,-294.1059 -903.2335,-263.2585 -911.1872,-226.1884 -918.1353,-196.3159 -922.4115,-181.086 " stroke="none" fill="red" stroke-width="0" shape-rendering="crispEdges" />
<line x1="942.4778" y1="750" x2="942.4778" y2="-750" stroke="red" stroke-width="0.1"/>
<line x1="942.4778" y1="-750" x2="-903.2079" y2="-750" stroke="red" stroke-width="0.1"/>
<line x1="-903.2079" y1="-750" x2="-903.2079" y2="750" stroke="red" stroke-width="0.1"/>
<line x1="-903.2079" y1="750" x2="942.4778" y2="750" stroke="red" stroke-width="0.1"/>
"/>
</svg>