<!DOCTYPE svg PUBLIC "-//W3C//DTD SVG 1.1//EN" "http://www.w3.org/Graphics/SVG/1.1/DTD/svg11.dtd">
<svg xmlns="http://www.w3.org/2000/svg" version="1.200000" width="-1845.6857mm" height="-1500mm" xmlns:xlink="http://www.w3.org/1999/xlink">
<polygon points="-634.0152,220.062 -628.3185,224.9403 -635.2049,221.9693 -635.2271,222.0207 -639.4425,238.1472 -643.1061,260.5852 -646.1859,291.0448 -648.2506,325.2869 -648.2498,365.5622 -643.2152,394.7695 -637.5169,418.4573 -628.943,439.5871 -618.7529,459.209 -608.1299,475.4688 -592.8805,493.002 -578.9264,507.8988 -567.1057,518.3566 -551.7446,528.4071 -537.9064,535.8963 -522.3863,540.3301 -506.6634,544.2349 -489.6771,547.7166 -471.3736,548.169 -454.1678,547.8395 -436.1853,544.272 -420.3322,540.3152 -406.2288,536.441 -391.3439,528.6137 -376.3368,518.8985 -364.1116,508.2606 -349.8203,493.0748 -335.0348,476.1881 -324.1525,459.7388 -312.7758,435.9328 -303.875,408.6183 -297.6993,377.7707 -296.3469,333.8598 -296.2788,293.8482 -299.3333,262.9895 -307.5233,232.0806 -319.7434,206.8664 -331.1846,194.0847 -347.4501,179.4837 -363.5586,165.2527 -377.7936,155.7251 -393.7469,147.8997 -407.665,142.2012 -423.9528,139.0993 -439.4113,136.5591 -453.9794,134.7405 -471.2236,134.6557 -487.5984,134.7799 -502.4552,136.6221 -518.0644,139.2979 -532.9736,142.1154 -547.8694,148.0978 -563.4183,155.7026 -577.9207,165.1367 -589.6097,173.4663 -600.668,181.4444 NaN,NaN -621.4321,227.9113 -621.4543,227.9628 -621.6231,228.6418 -622.6218,229.8186 -628.3185,224.9403 NaN,NaN -624.9093,241.8601 -621.6231,228.6418 -591.8916,193.6089 -580.8998,185.6785 -569.6993,177.6829 -556.816,169.1714 -542.1435,161.9619 -530.1872,156.8543 -515.5235,154.0811 -500.5564,151.5014 -487.4844,149.7794 -471.2487,149.6557 -455.8317,149.6257 -441.8427,151.3607 -426.6135,153.8615 -413.334,156.0887 -400.3023,161.3914 -386.0849,168.2253 -373.4898,176.4942 -357.454,190.6606 -342.1736,204.2946 -333.2086,213.4762 -322.011,235.9672 -314.2585,264.4856 -311.2788,293.8237 -311.3408,333.4339 -312.4123,374.8501 -318.1472,404.0025 -326.3271,429.5015 -336.6925,451.5079 -346.3222,466.3091 -360.7608,482.813 -374.0131,496.9928 -384.5054,506.3178 -398.4772,515.4184 -410.2042,521.9773 -423.9706,525.7632 -439.2049,529.5791 -454.4596,532.8424 -471.1067,533.1714 -486.6706,533.021 -503.0498,529.6767 -518.4401,525.8585 -530.7873,522.6933 -543.5876,515.8189 -557.191,507.1006 -567.9813,497.6419 -581.5928,483.1234 -595.5883,467.2403 -605.4507,452.277 -615.0654,433.894 -622.935,414.9403 -628.4431,392.1649 -633.2498,365.5568 -633.2776,326.1871 -631.2613,292.5471 -628.2989,262.9828 " stroke="none" fill="blue" stroke-width="0" shape-rendering="crispEdges" />
<polygon points="636.2376,223.642 628.8616,225 634.7813,220.3949 634.3859,219.8866 626.0979,210.5789 610.3881,196.3027 594.5562,182.052 578.4955,167.7904 560.7536,152.9838 543.4385,144.5551 533.0691,141.4889 516.539,138.6717 493.3675,136.6894 471.6512,135.4109 449.6077,136.7333 426.4818,139.03 403.8372,145.4408 386.4054,153.329 367.0658,163.7482 347.7243,179.5024 331.7489,193.7749 321.0995,205.083 308.1242,230.6973 299.4456,259.7687 296.1383,291.1914 294.0916,325.464 294.1473,365.6756 299.2039,394.8888 304.9207,418.5356 313.513,439.663 323.7166,459.2584 334.3473,475.4751 349.6024,492.9695 363.5724,507.8465 375.4548,518.309 390.8207,528.3363 404.6516,535.8083 420.1816,540.2399 435.8947,544.1379 452.8169,547.5956 471.1067,548.0418 488.2973,547.7141 506.2057,544.1724 522.0513,540.2204 536.1681,536.3435 551.0428,528.5325 566.0593,518.8341 578.3345,508.2024 592.654,493.0336 607.4477,476.1898 618.3342,459.8203 629.7471,436.0156 638.6883,408.627 644.8959,377.7833 646.3196,334.0131 646.5171,294.3278 643.6298,263.947 NaN,NaN 622.9419,229.6051 622.5464,229.0968 621.8476,228.3164 621.4856,226.358 628.8616,225 NaN,NaN 614.9092,220.5696 621.8476,228.3164 628.6989,265.3848 631.5173,294.254 631.3264,333.5612 630.186,374.8474 624.4186,404.0037 616.2035,429.5679 605.8144,451.5586 596.1754,466.2935 581.7289,482.7554 568.4603,496.9108 557.9044,506.2445 543.9176,515.3328 532.1938,521.8796 518.4153,525.6677 503.1949,529.4776 488.007,532.7169 471.3691,533.0441 455.8142,532.8981 439.5045,529.5788 424.1244,525.7674 411.7611,522.6001 398.9636,515.7389 385.3423,507.0291 374.5049,497.5762 360.8775,483.0765 346.8759,467.2269 337.0111,452.3118 327.3863,433.9593 319.4985,415.002 313.9743,392.2744 309.1473,365.6495 309.0651,326.3554 311.0622,292.7006 313.8342,264.0077 321.5814,237.3232 332.0384,215.3465 341.7457,204.9581 357.263,191.0787 374.1899,176.9485 392.6481,166.9683 407.999,159.8519 427.9674,153.9563 450.5433,151.7041 470.7713,150.385 492.105,151.6362 514.0607,153.4656 528.9465,155.9112 537.0435,158.1236 551.1443,164.5017 568.5358,179.0067 584.521,193.2007 600.3222,207.4238 " stroke="none" fill="blue" stroke-width="0" shape-rendering="crispEdges" />
<polygon points="-611.4703,-447.1606 -611.9338,-446.0309 -612.7247,-445.1108 -618.4121,-450 NaN,NaN -620.1842,-425.9193 -611.9338,-446.0309 -593.449,-467.5336 -579.9306,-481.9867 -565.6138,-496.9175 -544.692,-513.9984 -528.5476,-523.0511 -514.3044,-526.561 -497.1374,-530.2528 -474.9394,-532.8165 -459.0063,-532.4373 -438.472,-529.68 -423.7278,-525.9627 -409.9814,-522.2068 -398.2273,-515.6525 -384.2786,-506.5984 -373.9351,-497.3523 -360.6344,-483.1056 -346.1532,-466.5842 -336.5511,-451.8833 -326.1514,-429.7938 -317.9732,-404.1815 -312.2867,-375.0314 -311.3158,-333.4252 -311.2913,-293.6391 -314.3117,-264.3634 -317.6774,-241.0382 -328.7075,-219.5122 -341.9806,-208.1889 -357.6823,-194.1263 -375.52,-179.3555 -397.9354,-163.5798 -412.5615,-156.6909 -426.4587,-153.8538 -441.8884,-151.0893 -455.8664,-149.2707 -471.2929,-149.2225 -487.5803,-149.2766 -501.1817,-151.0831 -516.2747,-153.6055 -530.8974,-156.2768 -542.9163,-161.3536 -557.5306,-168.4562 -569.8909,-176.7743 -585.1445,-190.2629 -600.9736,-204.4039 -610.7771,-215.2495 -621.4118,-237.4687 -629.1729,-264.3934 -632.0297,-293.3094 -633.945,-327.0275 -633.6331,-366.0801 -628.7587,-392.8294 -624.1588,-413.5704 NaN,NaN -624.0995,-454.8891 -618.4121,-450 -625.3538,-452.8394 -634.4738,-430.4808 -638.804,-416.8137 -643.5261,-395.4607 -648.6326,-366.1939 -648.9207,-326.1733 -646.9506,-291.7711 -643.5693,-260.1808 -634.8644,-230.8334 -621.877,-205.1603 -610.9668,-193.2174 -595.0444,-178.9938 -578.2075,-164.2909 -564.0746,-154.9589 -548.5834,-147.4653 -533.592,-141.5208 -518.7422,-138.8099 -503.0938,-136.2055 -487.6297,-134.2766 -471.1908,-134.2229 -453.9222,-134.3973 -439.238,-136.3253 -423.2518,-139.2006 -406.0821,-143.1626 -389.2922,-151.3204 -365.9504,-167.8046 -347.675,-182.9526 -331.9068,-197.0751 -315.255,-212.8766 -302.8306,-238.9001 -299.3889,-262.8438 -296.2913,-293.6492 -296.3208,-333.8134 -297.5692,-377.9288 -303.695,-408.7786 -312.5994,-436.2236 -324.0257,-460.1365 -334.8748,-476.4735 -349.6877,-493.3607 -364.0056,-508.5953 -376.13,-519.1921 -391.1112,-528.857 -406.0299,-536.677 -420.1062,-540.5189 -436.5093,-544.551 -458.7145,-547.4344 -476.6833,-547.7148 -500.2978,-544.9161 -518.1399,-541.0623 -535.9601,-536.0917 -554.2014,-525.5989 -576.441,-507.2988 -590.8889,-492.2296 -604.8238,-477.3119 " stroke="none" fill="blue" stroke-width="0" shape-rendering="crispEdges" />
<polygon points="584.2308,-484.5943 583.4555,-485.2542 582.9051,-486.0403 589.0486,-490.3423 NaN,NaN 547.2619,-516.0601 583.4555,-485.2542 595.6,-467.9108 603.1823,-455.3587 613.7739,-432.9588 624.7968,-403.907 630.333,-375.129 631.3472,-333.5918 631.4099,-293.6819 628.3517,-264.3637 620.5115,-236.0386 609.264,-213.6229 600.2741,-204.5181 584.996,-191.0281 566.8418,-176.3412 549.6428,-167.0211 534.338,-159.7885 515.0303,-154.1007 500.1346,-151.4478 486.5879,-149.7246 471.1834,-149.6692 454.9277,-149.7033 441.6446,-151.4237 426.6138,-153.9297 411.9477,-156.6097 399.9898,-161.6923 385.3381,-168.8531 372.7091,-177.2892 357.4417,-190.8393 341.7353,-204.8371 332.0233,-215.1217 322.485,-232.2155 314.4068,-252.378 311.5471,-274.3035 308.5914,-304.0585 308.6889,-343.1466 313.4524,-377.4253 324.9071,-414.1857 343.0665,-448.6237 361.4916,-477.747 377.3908,-497.1721 397.8248,-513.816 413.9871,-522.973 428.2772,-526.5758 449.4595,-529.5922 472.1139,-532.2864 493.3234,-529.5901 515.223,-526.4997 530.364,-522.4644 539.4161,-519.2315 NaN,NaN 595.1922,-494.6442 589.0486,-490.3423 593.8664,-496.0902 552.872,-529.9714 544.4229,-533.3712 534.1794,-536.971 517.3176,-541.3528 495.0712,-544.4879 470.3409,-547.1812 447.3075,-544.4371 424.3668,-541.0571 406.5188,-535.9817 388.2873,-525.3934 365.7626,-506.6476 348.8097,-485.7576 329.7759,-455.5777 310.5748,-418.611 298.5912,-379.4608 293.6889,-343.1695 293.6652,-302.5727 296.6934,-272.2137 300.5005,-246.7552 309.4665,-224.7644 321.1368,-204.8026 331.7554,-193.6388 347.5239,-179.586 364.43,-164.7809 378.7644,-155.3703 394.2955,-147.8152 409.2523,-141.8539 424.1528,-139.1329 439.7804,-136.54 454.8965,-134.7034 471.2899,-134.6696 488.4918,-134.8459 502.8101,-136.6883 519.3304,-139.7302 540.758,-146.2318 556.8691,-153.8765 576.2798,-164.6826 594.9416,-179.7994 611.2101,-194.2514 622.7081,-206.9702 634.9815,-232.0867 643.2729,-262.8281 646.4098,-293.7063 646.3417,-333.9955 645.0524,-378.0169 638.8171,-409.2389 627.3244,-439.3918 616.0129,-463.1289 607.8872,-476.5147 " stroke="none" fill="blue" stroke-width="0" shape-rendering="crispEdges" />
<polygon points="-634.0152,220.062 -628.3185,224.9403 -635.2049,221.9693 -635.2271,222.0207 -639.4425,238.1472 -643.1061,260.5852 -646.1859,291.0448 -648.2506,325.2869 -648.2498,365.5622 -643.2152,394.7695 -637.5169,418.4573 -628.943,439.5871 -618.7529,459.209 -608.1299,475.4688 -592.8805,493.002 -578.9264,507.8988 -567.1057,518.3566 -551.7446,528.4071 -537.9064,535.8963 -522.3863,540.3301 -506.6634,544.2349 -489.6771,547.7166 -471.3736,548.169 -454.1678,547.8395 -436.1853,544.272 -420.3322,540.3152 -406.2288,536.441 -391.3439,528.6137 -376.3368,518.8985 -364.1116,508.2606 -349.8203,493.0748 -335.0348,476.1881 -324.1525,459.7388 -312.7758,435.9328 -303.875,408.6183 -297.6993,377.7707 -296.3469,333.8598 -296.2788,293.8482 -299.3333,262.9895 -307.5233,232.0806 -319.7434,206.8664 -331.1846,194.0847 -347.4501,179.4837 -363.5586,165.2527 -377.7936,155.7251 -393.7469,147.8997 -407.665,142.2012 -423.9528,139.0993 -439.4113,136.5591 -453.9794,134.7405 -471.2236,134.6557 -487.5984,134.7799 -502.4552,136.6221 -518.0644,139.2979 -532.9736,142.1154 -547.8694,148.0978 -563.4183,155.7026 -577.9207,165.1367 -589.6097,173.4663 -600.668,181.4444 NaN,NaN -621.4321,227.9113 -621.4543,227.9628 -621.6231,228.6418 -622.6218,229.8186 -628.3185,224.9403 NaN,NaN -624.9093,241.8601 -621.6231,228.6418 -591.8916,193.6089 -580.8998,185.6785 -569.6993,177.6829 -556.816,169.1714 -542.1435,161.9619 -530.1872,156.8543 -515.5235,154.0811 -500.5564,151.5014 -487.4844,149.7794 -471.2487,149.6557 -455.8317,149.6257 -441.8427,151.3607 -426.6135,153.8615 -413.334,156.0887 -400.3023,161.3914 -386.0849,168.2253 -373.4898,176.4942 -357.454,190.6606 -342.1736,204.2946 -333.2086,213.4762 -322.011,235.9672 -314.2585,264.4856 -311.2788,293.8237 -311.3408,333.4339 -312.4123,374.8501 -318.1472,404.0025 -326.3271,429.5015 -336.6925,451.5079 -346.3222,466.3091 -360.7608,482.813 -374.0131,496.9928 -384.5054,506.3178 -398.4772,515.4184 -410.2042,521.9773 -423.9706,525.7632 -439.2049,529.5791 -454.4596,532.8424 -471.1067,533.1714 -486.6706,533.021 -503.0498,529.6767 -518.4401,525.8585 -530.7873,522.6933 -543.5876,515.8189 -557.191,507.1006 -567.9813,497.6419 -581.5928,483.1234 -595.5883,467.2403 -605.4507,452.277 -615.0654,433.894 -622.935,414.9403 -628.4431,392.1649 -633.2498,365.5568 -633.2776,326.1871 -631.2613,292.5471 -628.2989,262.9828 " stroke="none" fill="red" stroke-width="0" shape-rendering="crispEdges" />
<polygon points="636.2376,223.642 628.8616,225 634.7813,220.3949 634.3859,219.8866 626.0979,210.5789 610.3881,196.3027 594.5562,182.052 578.4955,167.7904 560.7536,152.9838 543.4385,144.5551 533.0691,141.4889 516.539,138.6717 493.3675,136.6894 471.6512,135.4109 449.6077,136.7333 426.4818,139.03 403.8372,145.4408 386.4054,153.329 367.0658,163.7482 347.7243,179.5024 331.7489,193.7749 321.0995,205.083 308.1242,230.6973 299.4456,259.7687 296.1383,291.1914 294.0916,325.464 294.1473,365.6756 299.2039,394.8888 304.9207,418.5356 313.513,439.663 323.7166,459.2584 334.3473,475.4751 349.6024,492.9695 363.5724,507.8465 375.4548,518.309 390.8207,528.3363 404.6516,535.8083 420.1816,540.2399 435.8947,544.1379 452.8169,547.5956 471.1067,548.0418 488.2973,547.7141 506.2057,544.1724 522.0513,540.2204 536.1681,536.3435 551.0428,528.5325 566.0593,518.8341 578.3345,508.2024 592.654,493.0336 607.4477,476.1898 618.3342,459.8203 629.7471,436.0156 638.6883,408.627 644.8959,377.7833 646.3196,334.0131 646.5171,294.3278 643.6298,263.947 NaN,NaN 622.9419,229.6051 622.5464,229.0968 621.8476,228.3164 621.4856,226.358 628.8616,225 NaN,NaN 614.9092,220.5696 621.8476,228.3164 628.6989,265.3848 631.5173,294.254 631.3264,333.5612 630.186,374.8474 624.4186,404.0037 616.2035,429.5679 605.8144,451.5586 596.1754,466.2935 581.7289,482.7554 568.4603,496.9108 557.9044,506.2445 543.9176,515.3328 532.1938,521.8796 518.4153,525.6677 503.1949,529.4776 488.007,532.7169 471.3691,533.0441 455.8142,532.8981 439.5045,529.5788 424.1244,525.7674 411.7611,522.6001 398.9636,515.7389 385.3423,507.0291 374.5049,497.5762 360.8775,483.0765 346.8759,467.2269 337.0111,452.3118 327.3863,433.9593 319.4985,415.002 313.9743,392.2744 309.1473,365.6495 309.0651,326.3554 311.0622,292.7006 313.8342,264.0077 321.5814,237.3232 332.0384,215.3465 341.7457,204.9581 357.263,191.0787 374.1899,176.9485 392.6481,166.9683 407.999,159.8519 427.9674,153.9563 450.5433,151.7041 470.7713,150.385 492.105,151.6362 514.0607,153.4656 528.9465,155.9112 537.0435,158.1236 551.1443,164.5017 568.5358,179.0067 584.521,193.2007 600.3222,207.4238 " stroke="none" fill="red" stroke-width="0" shape-rendering="crispEdges" />
<polygon points="-611.4703,-447.1606 -611.9338,-446.0309 -612.7247,-445.1108 -618.4121,-450 NaN,NaN -620.1842,-425.9193 -611.9338,-446.0309 -593.449,-467.5336 -579.9306,-481.9867 -565.6138,-496.9175 -544.692,-513.9984 -528.5476,-523.0511 -514.3044,-526.561 -497.1374,-530.2528 -474.9394,-532.8165 -459.0063,-532.4373 -438.472,-529.68 -423.7278,-525.9627 -409.9814,-522.2068 -398.2273,-515.6525 -384.2786,-506.5984 -373.9351,-497.3523 -360.6344,-483.1056 -346.1532,-466.5842 -336.5511,-451.8833 -326.1514,-429.7938 -317.9732,-404.1815 -312.2867,-375.0314 -311.3158,-333.4252 -311.2913,-293.6391 -314.3117,-264.3634 -317.6774,-241.0382 -328.7075,-219.5122 -341.9806,-208.1889 -357.6823,-194.1263 -375.52,-179.3555 -397.9354,-163.5798 -412.5615,-156.6909 -426.4587,-153.8538 -441.8884,-151.0893 -455.8664,-149.2707 -471.2929,-149.2225 -487.5803,-149.2766 -501.1817,-151.0831 -516.2747,-153.6055 -530.8974,-156.2768 -542.9163,-161.3536 -557.5306,-168.4562 -569.8909,-176.7743 -585.1445,-190.2629 -600.9736,-204.4039 -610.7771,-215.2495 -621.4118,-237.4687 -629.1729,-264.3934 -632.0297,-293.3094 -633.945,-327.0275 -633.6331,-366.0801 -628.7587,-392.8294 -624.1588,-413.5704 NaN,NaN -624.0995,-454.8891 -618.4121,-450 -625.3538,-452.8394 -634.4738,-430.4808 -638.804,-416.8137 -643.5261,-395.4607 -648.6326,-366.1939 -648.9207,-326.1733 -646.9506,-291.7711 -643.5693,-260.1808 -634.8644,-230.8334 -621.877,-205.1603 -610.9668,-193.2174 -595.0444,-178.9938 -578.2075,-164.2909 -564.0746,-154.9589 -548.5834,-147.4653 -533.592,-141.5208 -518.7422,-138.8099 -503.0938,-136.2055 -487.6297,-134.2766 -471.1908,-134.2229 -453.9222,-134.3973 -439.238,-136.3253 -423.2518,-139.2006 -406.0821,-143.1626 -389.2922,-151.3204 -365.9504,-167.8046 -347.675,-182.9526 -331.9068,-197.0751 -315.255,-212.8766 -302.8306,-238.9001 -299.3889,-262.8438 -296.2913,-293.6492 -296.3208,-333.8134 -297.5692,-377.9288 -303.695,-408.7786 -312.5994,-436.2236 -324.0257,-460.1365 -334.8748,-476.4735 -349.6877,-493.3607 -364.0056,-508.5953 -376.13,-519.1921 -391.1112,-528.857 -406.0299,-536.677 -420.1062,-540.5189 -436.5093,-544.551 -458.7145,-547.4344 -476.6833,-547.7148 -500.2978,-544.9161 -518.1399,-541.0623 -535.9601,-536.0917 -554.2014,-525.5989 -576.441,-507.2988 -590.8889,-492.2296 -604.8238,-477.3119 " stroke="none" fill="red" stroke-width="0" shape-rendering="crispEdges" />
<polygon points="584.2308,-484.5943 583.4555,-485.2542 582.9051,-486.0403 589.0486,-490.3423 NaN,NaN 547.2619,-516.0601 583.4555,-485.2542 595.6,-467.9108 603.1823,-455.3587 613.7739,-432.9588 624.7968,-403.907 630.333,-375.129 631.3472,-333.5918 631.4099,-293.6819 628.3517,-264.3637 620.5115,-236.0386 609.264,-213.6229 600.2741,-204.5181 584.996,-191.0281 566.8418,-176.3412 549.6428,-167.0211 534.338,-159.7885 515.0303,-154.1007 500.1346,-151.4478 486.5879,-149.7246 471.1834,-149.6692 454.9277,-149.7033 441.6446,-151.4237 426.6138,-153.9297 411.9477,-156.6097 399.9898,-161.6923 385.3381,-168.8531 372.7091,-177.2892 357.4417,-190.8393 341.7353,-204.8371 332.0233,-215.1217 322.485,-232.2155 314.4068,-252.378 311.5471,-274.3035 308.5914,-304.0585 308.6889,-343.1466 313.4524,-377.4253 324.9071,-414.1857 343.0665,-448.6237 361.4916,-477.747 377.3908,-497.1721 397.8248,-513.816 413.9871,-522.973 428.2772,-526.5758 449.4595,-529.5922 472.1139,-532.2864 493.3234,-529.5901 515.223,-526.4997 530.364,-522.4644 539.4161,-519.2315 NaN,NaN 595.1922,-494.6442 589.0486,-490.3423 593.8664,-496.0902 552.872,-529.9714 544.4229,-533.3712 534.1794,-536.971 517.3176,-541.3528 495.0712,-544.4879 470.3409,-547.1812 447.3075,-544.4371 424.3668,-541.0571 406.5188,-535.9817 388.2873,-525.3934 365.7626,-506.6476 348.8097,-485.7576 329.7759,-455.5777 310.5748,-418.611 298.5912,-379.4608 293.6889,-343.1695 293.6652,-302.5727 296.6934,-272.2137 300.5005,-246.7552 309.4665,-224.7644 321.1368,-204.8026 331.7554,-193.6388 347.5239,-179.586 364.43,-164.7809 378.7644,-155.3703 394.2955,-147.8152 409.2523,-141.8539 424.1528,-139.1329 439.7804,-136.54 454.8965,-134.7034 471.2899,-134.6696 488.4918,-134.8459 502.8101,-136.6883 519.3304,-139.7302 540.758,-146.2318 556.8691,-153.8765 576.2798,-164.6826 594.9416,-179.7994 611.2101,-194.2514 622.7081,-206.9702 634.9815,-232.0867 643.2729,-262.8281 646.4098,-293.7063 646.3417,-333.9955 645.0524,-378.0169 638.8171,-409.2389 627.3244,-439.3918 616.0129,-463.1289 607.8872,-476.5147 " stroke="none" fill="red" stroke-width="0" shape-rendering="crispEdges" />
<line x1="942.4778" y1="750" x2="942.4778" y2="-750" stroke="red" stroke-width="0.1"/>
<line x1="942.4778" y1="-750" x2="-903.2079" y2="-750" stroke="red" stroke-width="0.1"/>
<line x1="-903.2079" y1="-750" x2="-903.2079" y2="750" stroke="red" stroke-width="0.1"/>
<line x1="-903.2079" y1="750" x2="942.4778" y2="750" stroke="red" stroke-width="0.1"/>
"/>
</svg>