<!DOCTYPE svg PUBLIC "-//W3C//DTD SVG 1.1//EN" "http://www.w3.org/Graphics/SVG/1.1/DTD/svg11.dtd">
<svg xmlns="http://www.w3.org/2000/svg" version="1.200000" width="-1861.3936mm" height="-5mm" xmlns:xlink="http://www.w3.org/1999/xlink">
<polygon points="471.3165,-1.5918 471.3164,-1.498 476.9635,-1.491 537.6385,-1.4826 544.5754,-1.4821 553.7592,-1.4814 576.8959,-1.4795 599.8987,-1.4769 611.7889,-1.4752 622.7479,-1.4737 634.8224,-1.4714 645.4167,-1.4695 667.8687,-1.4644 680.4717,-1.4607 690.0545,-1.4579 699.4332,-1.4548 708.4132,-1.4516 717.1199,-1.4482 725.3981,-1.4447 734.6648,-1.4404 745.6694,-1.4351 755.5389,-1.4291 766.5914,-1.4224 777.1627,-1.4138 786.8483,-1.4059 794.3308,-1.3987 802.5141,-1.3901 810.3111,-1.3801 816.6633,-1.3711 824.5087,-1.3579 832.5516,-1.3437 838.5055,-1.3307 844.7438,-1.3154 850.1797,-1.2986 854.6572,-1.2819 859.5253,-1.2586 863.8532,-1.2364 867.0396,-1.2121 869.6291,-1.1877 871.0053,-1.172 871.1789,-1.1743 872.3054,-1.1969 871.9949,-1.242 871.45,-1.2668 869.6303,-1.2877 867.0405,-1.3121 863.854,-1.3364 859.5258,-1.3586 854.6577,-1.3819 850.1801,-1.3986 844.7441,-1.4154 838.5057,-1.4307 832.5518,-1.4437 824.5088,-1.4579 816.6634,-1.4711 810.3113,-1.4801 802.5142,-1.4901 794.3309,-1.4987 786.8484,-1.5059 777.1628,-1.5138 766.5915,-1.5224 755.539,-1.5291 745.6694,-1.5351 734.6648,-1.5404 725.3981,-1.5447 717.1199,-1.5482 708.4133,-1.5516 699.4333,-1.5548 690.0546,-1.5579 680.4717,-1.5607 667.8688,-1.5644 645.4167,-1.5695 634.8224,-1.5714 622.748,-1.5737 611.7889,-1.5752 599.8987,-1.5769 576.8959,-1.5795 553.7592,-1.5814 544.5754,-1.5821 537.6385,-1.5826 NaN,NaN 872.5039,-1.1681 872.4222,-1.18 872.4039,-1.1681 871.9897,-1.1421 871.4454,-1.1669 871.0053,-1.172 868.8701,-1.1438 865.6127,-1.1186 860.8231,-1.0871 854.3673,-1.0506 845.9763,-1.0159 837.5515,-0.9838 827.6893,-0.94921 818.6199,-0.91819 810.9385,-0.88958 805.2801,-0.8618 800.5613,-0.83401 798.0524,-0.8061 794.8762,-0.77362 791.1607,-0.73973 787.3945,-0.71216 779.0842,-0.67745 771.0715,-0.6523 764.2879,-0.63431 753.8663,-0.61261 742.3218,-0.59018 732.8333,-0.57144 720.3423,-0.54658 706.3848,-0.52013 695.8779,-0.50145 683.8604,-0.48243 671.0994,-0.46733 660.0284,-0.45733 646.2699,-0.44677 633.2148,-0.43686 623.662,-0.43054 612.8611,-0.4237 602.006,-0.4174 592.2026,-0.41188 580.4087,-0.40587 566.3996,-0.399 554.0551,-0.39445 541.3482,-0.39004 528.6664,-0.38692 516.8983,-0.38432 504.0151,-0.38235 492.7977,-0.38084 479.9391,-0.37994 469.059,-0.37959 456.4005,-0.3799 445.7218,-0.38081 433.3879,-0.38235 422.6846,-0.38425 410.8365,-0.38681 399.9331,-0.38986 388.7254,-0.3934 377.4973,-0.39794 367.0775,-0.4025 355.3636,-0.40862 345.8446,-0.41389 337.7578,-0.41862 329.0489,-0.4237 320.6192,-0.42877 312.8715,-0.43353 303.541,-0.43977 292.695,-0.44732 282.5543,-0.45614 272.641,-0.46491 264.7514,-0.47296 256.6636,-0.48302 249.105,-0.4945 243.1427,-0.50546 236.4206,-0.51926 229.2735,-0.53382 223.2241,-0.54624 216.4212,-0.55917 208.3264,-0.57498 201.4305,-0.58756 195.9406,-0.59815 188.5276,-0.61252 181.1933,-0.62832 175.9418,-0.6396 170.3216,-0.65202 163.3927,-0.67099 158.1404,-0.69066 154.7568,-0.70893 151.4698,-0.73514 148.3638,-0.76208 145.8681,-0.78932 144.0988,-0.81353 142.4036,-0.835 139.1345,-0.8539 134.7102,-0.87696 130.4629,-0.89434 126.0481,-0.91032 119.8941,-0.93053 114.4963,-0.94914 109.6508,-0.96398 104.4733,-0.98122 98.7155,-1.0007 94.272,-1.018 89.8697,-1.0359 85.3136,-1.0586 81.3934,-1.0797 77.7265,-1.1067 74.4966,-1.1315 72.3985,-1.1511 71.5323,-1.1676 70.6172,-1.1413 70.3305,-1.128 71.1143,-1.0755 72.3966,-1.0512 74.4957,-1.0316 77.7257,-1.0067 81.3927,-0.97973 85.3131,-0.95859 89.8692,-0.93594 94.2716,-0.91804 98.7151,-0.90075 104.4729,-0.88122 109.6505,-0.86398 114.496,-0.84914 119.8938,-0.83053 126.0477,-0.81033 130.4626,-0.79434 134.7098,-0.77696 139.134,-0.7539 142.403,-0.73501 144.0976,-0.71354 145.8667,-0.68933 148.3627,-0.66208 151.469,-0.63515 154.756,-0.60893 158.1398,-0.59066 163.3923,-0.571 170.3213,-0.55202 175.9416,-0.5396 181.1931,-0.52832 188.5274,-0.51252 195.9404,-0.49815 201.4303,-0.48756 208.3262,-0.47498 216.421,-0.45917 223.2239,-0.44624 229.2733,-0.43382 236.4204,-0.41926 243.1425,-0.40546 249.1048,-0.3945 256.6635,-0.38302 264.7513,-0.37296 272.6409,-0.36491 282.5542,-0.35614 292.6949,-0.34732 303.5409,-0.33977 312.8715,-0.33353 320.6192,-0.32877 329.0488,-0.3237 337.7577,-0.31862 345.8445,-0.31389 355.3635,-0.30862 367.0774,-0.3025 377.4973,-0.29794 388.7254,-0.2934 399.9331,-0.28986 410.8365,-0.28681 422.6846,-0.28425 433.3879,-0.28235 445.7218,-0.28081 456.4005,-0.2799 469.059,-0.27959 479.9391,-0.27994 492.7977,-0.28084 504.0151,-0.28235 516.8984,-0.28432 528.6665,-0.28692 541.3483,-0.29004 554.0551,-0.29445 566.3997,-0.299 580.4088,-0.30587 592.2026,-0.31188 602.006,-0.3174 612.8611,-0.3237 623.662,-0.33054 633.2149,-0.33686 646.2699,-0.34677 660.0285,-0.35733 671.0995,-0.36733 683.8605,-0.38243 695.8781,-0.40145 706.385,-0.42013 720.3425,-0.44659 732.8335,-0.47144 742.322,-0.49018 753.8665,-0.51261 764.2881,-0.53431 771.0717,-0.5523 779.0845,-0.57745 787.3949,-0.61216 791.1615,-0.63973 794.8771,-0.67362 798.0534,-0.70611 800.5624,-0.73402 805.2807,-0.7618 810.939,-0.78958 818.6203,-0.81819 827.6896,-0.84921 837.5519,-0.8838 845.9766,-0.91587 854.3677,-0.9506 860.8237,-0.98714 865.6134,-1.0186 868.8709,-1.0438 871.1803,-1.0743 872.4549,-1.0999 NaN,NaN 70.0252,-1.1484 70.1162,-1.1423 70.1252,-1.1484 71.1165,-1.1755 71.5323,-1.1676 71.5692,-1.1687 74.1805,-1.1943 79.1409,-1.2279 85.194,-1.2609 94.1346,-1.2927 106.642,-1.3279 118.4095,-1.3537 128.2829,-1.3713 141.0793,-1.3892 153.0849,-1.4017 163.2508,-1.4103 176.6428,-1.42 190.3314,-1.4298 203.3343,-1.437 214.8906,-1.4431 224.4988,-1.4475 234.6687,-1.4515 244.9019,-1.4551 255.4609,-1.4584 266.1763,-1.4614 280.1301,-1.4651 304.5481,-1.4704 315.9269,-1.4723 328.7734,-1.4745 340.374,-1.476 352.8466,-1.4777 364.6132,-1.4789 376.7963,-1.4802 388.6815,-1.4811 400.1386,-1.4819 428.6017,-1.4484 458.1091,-1.4142 466.0859,-1.4044 469.6123,-1.404 469.6123,-1.4001 486.3834,-1.3795 515.3829,-1.3439 544.1615,-1.3077 556.0784,-1.3048 566.6408,-1.3016 578.1208,-1.2978 589.0724,-1.2934 599.7963,-1.2889 611.2525,-1.2831 621.0771,-1.2778 630.2438,-1.2724 638.858,-1.2662 646.9836,-1.2596 654.12,-1.2522 663.1449,-1.2418 671.5353,-1.2313 678.9966,-1.2209 686.8479,-1.2074 693.8487,-1.1906 698.6375,-1.1765 702.6137,-1.1946 706.3608,-1.215 706.0949,-1.2411 703.3204,-1.2613 698.8765,-1.2758 693.849,-1.2906 686.8482,-1.3074 678.9967,-1.3209 671.5354,-1.3313 663.145,-1.3418 654.1201,-1.3522 646.9837,-1.3596 638.8581,-1.3662 630.2439,-1.3724 621.0772,-1.3778 611.2525,-1.3831 599.7963,-1.3889 589.0724,-1.3934 578.1208,-1.3978 566.6408,-1.4016 556.0785,-1.4048 544.1616,-1.4077 515.383,-1.4439 476.9635,-1.491 471.3164,-1.4918 471.3164,-1.498 458.1092,-1.5142 428.6018,-1.5484 400.1387,-1.5819 388.6815,-1.5811 376.7963,-1.5802 364.6131,-1.5789 352.8466,-1.5777 340.374,-1.576 328.7734,-1.5745 315.9268,-1.5723 304.548,-1.5704 280.13,-1.5651 266.1763,-1.5614 255.4609,-1.5584 244.9019,-1.5551 234.6686,-1.5515 224.4988,-1.5475 214.8906,-1.5431 203.3343,-1.537 190.3313,-1.5298 176.6427,-1.52 163.2507,-1.5103 153.0848,-1.5017 141.0791,-1.4892 128.2828,-1.4713 118.4094,-1.4537 106.6418,-1.4279 94.1343,-1.3927 85.1937,-1.3609 79.1404,-1.3279 74.1798,-1.2943 71.5682,-1.2687 70.6143,-1.2413 70.0729,-1.2161 NaN,NaN 707.3266,-1.1203 706.7103,-1.1807 706.0932,-1.1411 703.3196,-1.1613 698.8762,-1.1758 698.6375,-1.1765 696.926,-1.1687 687.0073,-1.1385 674.3026,-1.1124 660.5065,-1.0896 648.5544,-1.0757 635.0775,-1.0616 624.859,-1.0522 614.0018,-1.0439 602.5147,-1.0362 590.9049,-1.0294 578.5562,-1.0233 565.2128,-1.017 552.3133,-1.0123 540.2385,-1.0083 527.0277,-1.005 515.8144,-1.0026 502.4838,-1.0007 491.8214,-0.99947 478.5341,-0.99877 468.1829,-0.99861 455.0895,-0.99906 444.8582,-0.99985 432.1057,-1.0014 421.831,-1.0032 409.5667,-1.0059 399.0982,-1.0088 387.4689,-1.0125 376.6594,-1.0168 365.8108,-1.0215 354.5132,-1.0273 344.5912,-1.0328 335.1987,-1.0387 326.3863,-1.0449 318.3854,-1.0509 310.8573,-1.0576 301.9297,-1.0661 293.2977,-1.075 283.9235,-1.0858 274.7865,-1.0969 268.1775,-1.1058 261.256,-1.1177 253.5414,-1.1338 248.4414,-1.1471 243.4414,-1.1634 242.4798,-1.1676 242.1314,-1.1667 237.4191,-1.1432 235.2238,-1.1216 235.2736,-1.1042 238.2888,-1.0858 243.4409,-1.0634 248.4411,-1.0471 253.5411,-1.0338 261.2557,-1.0177 268.1773,-1.0058 274.7863,-0.99687 283.9234,-0.98583 293.2976,-0.97495 301.9296,-0.96611 310.8572,-0.95756 318.3853,-0.95087 326.3863,-0.94487 335.1986,-0.93868 344.5912,-0.93284 354.5131,-0.92735 365.8107,-0.92147 376.6594,-0.91679 387.4688,-0.91253 399.0982,-0.90881 409.5667,-0.90589 421.831,-0.90321 432.1056,-0.90143 444.8581,-0.89985 455.0895,-0.89906 468.1829,-0.89861 478.5341,-0.89877 491.8214,-0.89947 502.4838,-0.90066 515.8144,-0.90259 527.0277,-0.90502 540.2385,-0.90827 552.3133,-0.91234 565.2128,-0.917 578.5563,-0.92332 590.9049,-0.92942 602.5148,-0.93621 614.0019,-0.94388 624.8591,-0.95224 635.0776,-0.96157 648.5545,-0.97573 660.5066,-0.98965 674.3027,-1.0124 687.0075,-1.0385 696.9263,-1.0687 702.6142,-1.0946 NaN,NaN 234.9448,-1.2189 235.1104,-1.1611 235.2781,-1.2041 238.2894,-1.1858 242.4798,-1.1676 249.5919,-1.1865 259.5266,-1.2084 271.8221,-1.2312 283.2102,-1.245 293.2571,-1.256 305.0858,-1.2665 316.3548,-1.2745 327.6213,-1.2808 339.7663,-1.2867 353.2813,-1.293 366.0386,-1.2978 378.3315,-1.3021 391.4927,-1.3057 412.0091,-1.3068 430.5333,-1.3071 445.725,-1.3066 469.6123,-1.304 469.6123,-1.4001 466.0859,-1.4044 445.725,-1.4066 430.5333,-1.4071 412.0091,-1.4068 391.4927,-1.4057 378.3315,-1.4021 366.0386,-1.3978 353.2813,-1.393 339.7663,-1.3867 327.6212,-1.3808 316.3547,-1.3745 305.0857,-1.3665 293.257,-1.356 283.2101,-1.345 271.8219,-1.3312 259.5265,-1.3084 249.5917,-1.2865 242.1311,-1.2667 237.4186,-1.2432 NaN,NaN 234.9457,-1.1189 235.2238,-1.1216 235.1104,-1.1611 NaN,NaN 707.3261,-1.2203 706.3608,-1.215 706.7103,-1.1807 NaN,NaN 70.0775,-1.1162 70.3305,-1.128 70.1162,-1.1423 NaN,NaN 872.4529,-1.1999 872.3054,-1.1969 872.4222,-1.18 " stroke="none" fill="blue" stroke-width="0" shape-rendering="crispEdges" />
<polygon points="-460.4859,1.5917 -460.4859,1.4948 -463.1921,1.4913 -525.5633,1.4831 -532.663,1.4827 -553.7596,1.4814 -576.8963,1.4795 -599.8991,1.4769 -611.7891,1.4752 -622.7482,1.4737 -634.8225,1.4714 -645.4168,1.4695 -667.8686,1.4644 -680.4715,1.4607 -690.0542,1.4579 -699.4316,1.4548 -708.4114,1.4516 -717.1181,1.4482 -725.3961,1.4447 -734.663,1.4404 -745.6687,1.4351 -755.5384,1.4291 -766.5906,1.4224 -777.1622,1.4138 -786.8475,1.4059 -794.3295,1.3987 -802.5126,1.3901 -810.31,1.3801 -816.662,1.3711 -824.5074,1.3579 -832.551,1.3437 -838.5051,1.3307 -844.7434,1.3154 -850.1795,1.2986 -854.6572,1.2819 -859.5255,1.2586 -863.8535,1.2364 -867.0399,1.2121 -869.6295,1.1878 -871.0056,1.172 -871.179,1.1743 -872.3056,1.1969 -871.9951,1.242 -871.4504,1.2668 -869.6306,1.2877 -867.0408,1.3121 -863.8543,1.3364 -859.526,1.3586 -854.6577,1.3819 -850.1799,1.3985 -844.7437,1.4154 -838.5053,1.4307 -832.5512,1.4437 -824.5076,1.4579 -816.6621,1.4711 -810.3101,1.4801 -802.5128,1.4901 -794.3297,1.4987 -786.8476,1.5059 -777.1623,1.5138 -766.5907,1.5224 -755.5385,1.5291 -745.6687,1.5351 -734.663,1.5404 -725.3962,1.5447 -717.1182,1.5482 -708.4114,1.5516 -699.4316,1.5548 -690.0543,1.5579 -680.4716,1.5607 -667.8687,1.5644 -645.4168,1.5695 -634.8225,1.5714 -622.7482,1.5737 -611.7892,1.5752 -599.8991,1.5769 -576.8963,1.5795 -553.7597,1.5814 -532.663,1.5827 -525.5633,1.5831 NaN,NaN -872.5041,1.1681 -872.4224,1.18 -872.4041,1.1681 -871.9899,1.1421 -871.4458,1.1669 -871.0056,1.172 -868.87,1.1438 -865.6126,1.1186 -860.823,1.0871 -854.3672,1.0506 -845.9762,1.0159 -837.5515,0.9838 -827.6893,0.94921 -818.6199,0.91819 -810.9386,0.88958 -805.2801,0.8618 -800.5614,0.83401 -798.0524,0.8061 -794.8761,0.77362 -791.1605,0.73973 -787.3943,0.71216 -779.084,0.67745 -771.0713,0.6523 -764.2877,0.63431 -753.8662,0.61261 -742.3216,0.59018 -732.833,0.57144 -720.3416,0.54659 -706.3843,0.52013 -695.8776,0.50145 -683.8603,0.48243 -671.0993,0.46733 -660.0288,0.45733 -646.2707,0.44677 -633.2154,0.43686 -623.6624,0.43054 -612.8614,0.4237 -602.006,0.41739 -592.2021,0.41188 -580.408,0.40587 -566.3991,0.399 -554.0544,0.39445 -541.3478,0.39004 -528.6657,0.38692 -516.8979,0.38431 -504.0146,0.38235 -492.7974,0.38084 -479.9388,0.37994 -469.0589,0.37959 -456.4004,0.3799 -445.7218,0.38081 -433.388,0.38235 -422.6847,0.38425 -410.8369,0.38681 -399.9334,0.38986 -388.7261,0.3934 -377.4979,0.39794 -367.0783,0.40251 -355.3642,0.40862 -345.8457,0.4139 -337.7608,0.41863 -329.0522,0.4237 -320.6222,0.42877 -312.8749,0.43353 -303.5438,0.43977 -292.6959,0.44732 -282.5549,0.45614 -272.6418,0.46491 -264.7521,0.47296 -256.6644,0.48302 -249.1055,0.4945 -243.1433,0.50546 -236.421,0.51926 -229.2735,0.53382 -223.224,0.54624 -216.421,0.55916 -208.3257,0.57498 -201.4297,0.58756 -195.9399,0.59814 -188.5267,0.61252 -181.1925,0.62832 -175.941,0.6396 -170.3203,0.65202 -163.391,0.67099 -158.1383,0.69065 -154.7541,0.70892 -151.4668,0.73514 -148.3609,0.76207 -145.8656,0.78931 -144.0964,0.81352 -142.4012,0.835 -139.1324,0.85389 -134.7082,0.87695 -130.4607,0.89433 -126.0464,0.91032 -119.893,0.93053 -114.4954,0.94914 -109.6503,0.96398 -104.4729,0.98122 -98.7152,1.0007 -94.2718,1.018 -89.8696,1.0359 -85.3135,1.0586 -81.3933,1.0797 -77.7264,1.1067 -74.4964,1.1315 -72.3982,1.1511 -71.5314,1.1676 -70.6165,1.1413 -70.3299,1.128 -71.1139,1.0755 -72.3963,1.0512 -74.4955,1.0315 -77.7256,1.0067 -81.3926,0.97973 -85.313,0.95859 -89.8691,0.93594 -94.2714,0.91804 -98.7148,0.90075 -104.4726,0.88122 -109.65,0.86398 -114.4951,0.84914 -119.8926,0.83053 -126.046,0.81032 -130.4604,0.79433 -134.7078,0.77695 -139.1319,0.75389 -142.4006,0.735 -144.0951,0.71352 -145.8642,0.68932 -148.3598,0.66208 -151.4659,0.63514 -154.7533,0.60892 -158.1378,0.59066 -163.3906,0.57099 -170.32,0.55202 -175.9408,0.5396 -181.1923,0.52832 -188.5264,0.51252 -195.9397,0.49814 -201.4295,0.48756 -208.3255,0.47498 -216.4208,0.45917 -223.2238,0.44624 -229.2733,0.43382 -236.4208,0.41926 -243.1431,0.40546 -249.1054,0.3945 -256.6642,0.38302 -264.7519,0.37296 -272.6417,0.36491 -282.5548,0.35614 -292.6958,0.34732 -303.5438,0.33977 -312.8748,0.33353 -320.6221,0.32877 -329.0521,0.3237 -337.7607,0.31863 -345.8456,0.3139 -355.3642,0.30862 -367.0783,0.30251 -377.4978,0.29794 -388.726,0.2934 -399.9334,0.28986 -410.8368,0.28681 -422.6847,0.28425 -433.388,0.28235 -445.7218,0.28081 -456.4004,0.2799 -469.0589,0.27959 -479.9388,0.27994 -492.7974,0.28084 -504.0146,0.28235 -516.8979,0.28431 -528.6658,0.28692 -541.3478,0.29004 -554.0544,0.29445 -566.3992,0.299 -580.4081,0.30587 -592.2022,0.31188 -602.0061,0.31739 -612.8614,0.3237 -623.6624,0.33054 -633.2155,0.33686 -646.2708,0.34677 -660.0288,0.35733 -671.0994,0.36733 -683.8604,0.38243 -695.8778,0.40145 -706.3844,0.42013 -720.3418,0.44659 -732.8332,0.47144 -742.3218,0.49018 -753.8664,0.51261 -764.2879,0.53431 -771.0716,0.5523 -779.0843,0.57745 -787.3947,0.61216 -791.1613,0.63973 -794.877,0.67362 -798.0534,0.70611 -800.5625,0.73402 -805.2807,0.7618 -810.939,0.78958 -818.6203,0.81819 -827.6896,0.84921 -837.5519,0.8838 -845.9766,0.91587 -854.3676,0.9506 -860.8236,0.98714 -865.6133,1.0186 -868.8708,1.0438 -871.1803,1.0743 -872.4551,1.0999 NaN,NaN -70.0246,1.1484 -70.1156,1.1423 -70.1246,1.1484 -71.1161,1.1755 -71.5314,1.1676 -71.5682,1.1687 -74.1794,1.1943 -79.14,1.2279 -85.1928,1.2609 -94.1335,1.2927 -106.6413,1.3279 -118.4091,1.3537 -128.2825,1.3713 -141.0792,1.3892 -153.0848,1.4017 -163.2507,1.4103 -176.6426,1.42 -190.3311,1.4298 -203.3351,1.437 -214.8914,1.4431 -224.4994,1.4475 -234.6695,1.4515 -244.9025,1.4551 -255.4606,1.4584 -266.1758,1.4614 -280.1298,1.4651 -304.5478,1.4704 -315.9265,1.4723 -328.7732,1.4745 -340.3737,1.476 -352.8465,1.4777 -364.613,1.4789 -376.7963,1.4802 -388.2885,1.481 -417.7904,1.448 -445.2035,1.4146 -453.1501,1.4044 -462.2643,1.4038 -462.2643,1.3925 -471.1361,1.381 -498.273,1.3466 -524.4798,1.3118 -533.687,1.31 -543.973,1.3077 -556.0788,1.3048 -566.6411,1.3016 -578.1212,1.2978 -589.0726,1.2934 -599.7967,1.2889 -611.2527,1.2831 -621.0775,1.2778 -630.2444,1.2724 -638.8587,1.2662 -646.9842,1.2596 -654.1207,1.2522 -663.1455,1.2418 -671.5355,1.2313 -678.9968,1.2209 -686.8483,1.2074 -693.849,1.1906 -698.638,1.1765 -702.6139,1.1946 -706.361,1.215 -706.0951,1.2411 -703.3207,1.2613 -698.8768,1.2758 -693.8493,1.2906 -686.8485,1.3074 -678.997,1.3209 -671.5356,1.3313 -663.1456,1.3418 -654.1208,1.3522 -646.9843,1.3596 -638.8588,1.3662 -630.2445,1.3724 -621.0775,1.3778 -611.2528,1.3831 -599.7967,1.3889 -589.0727,1.3934 -578.1212,1.3978 -566.6411,1.4016 -556.0789,1.4048 -543.973,1.4077 -533.687,1.41 -524.4798,1.4118 -498.2731,1.4466 -471.1362,1.481 -463.1921,1.4913 -460.4859,1.4917 -460.4859,1.4948 -445.2036,1.5146 -417.7905,1.548 -388.2886,1.581 -376.7962,1.5802 -364.613,1.5789 -352.8465,1.5777 -340.3737,1.576 -328.7732,1.5745 -315.9265,1.5723 -304.5478,1.5704 -280.1297,1.5651 -266.1758,1.5614 -255.4605,1.5584 -244.9025,1.5551 -234.6694,1.5515 -224.4994,1.5475 -214.8914,1.5431 -203.335,1.537 -190.3311,1.5298 -176.6425,1.52 -163.2506,1.5103 -153.0847,1.5017 -141.0791,1.4892 -128.2824,1.4713 -118.409,1.4537 -106.6411,1.4279 -94.1333,1.3927 -85.1924,1.3609 -79.1394,1.3279 -74.1787,1.2943 -71.5672,1.2687 -70.6136,1.2413 -70.0723,1.2161 NaN,NaN -707.3268,1.1203 -706.7104,1.1807 -706.0934,1.1411 -703.3199,1.1613 -698.8765,1.1758 -698.638,1.1765 -696.9262,1.1687 -687.0075,1.1385 -674.3026,1.1124 -660.5065,1.0896 -648.5546,1.0757 -635.0776,1.0616 -624.859,1.0522 -614.002,1.0439 -602.5148,1.0362 -590.9048,1.0294 -578.556,1.0233 -565.2127,1.017 -552.3131,1.0123 -540.2384,1.0083 -527.0276,1.005 -515.8144,1.0026 -502.4838,1.0007 -491.8214,0.99947 -478.5342,0.99877 -468.183,0.99861 -455.0896,0.99906 -444.8583,0.99985 -432.1059,1.0014 -421.8312,1.0032 -409.5669,1.0059 -399.0984,1.0088 -387.4692,1.0125 -376.6596,1.0168 -365.8111,1.0215 -354.5134,1.0273 -344.5915,1.0328 -335.1992,1.0387 -326.387,1.0449 -318.386,1.0509 -310.8579,1.0576 -301.9302,1.0661 -293.2979,1.075 -283.9238,1.0858 -274.7868,1.0969 -268.1777,1.1058 -261.2563,1.1177 -253.5417,1.1338 -248.4418,1.1471 -243.4416,1.1634 -242.4806,1.1676 -242.1319,1.1667 -237.4196,1.1432 -235.2242,1.1216 -235.274,1.1042 -238.2892,1.0858 -243.4412,1.0634 -248.4414,1.0471 -253.5415,1.0338 -261.256,1.0177 -268.1775,1.0058 -274.7867,0.99687 -283.9236,0.98583 -293.2977,0.97495 -301.9301,0.96611 -310.8578,0.95756 -318.3859,0.95088 -326.3869,0.94488 -335.1992,0.93869 -344.5915,0.93284 -354.5133,0.92735 -365.8111,0.92147 -376.6596,0.91679 -387.4691,0.91253 -399.0984,0.90881 -409.5669,0.90589 -421.8312,0.90322 -432.1059,0.90143 -444.8583,0.89985 -455.0896,0.89906 -468.183,0.89861 -478.5342,0.89877 -491.8214,0.89947 -502.4838,0.90066 -515.8144,0.90259 -527.0276,0.90502 -540.2384,0.90827 -552.3131,0.91234 -565.2127,0.917 -578.5561,0.92332 -590.9048,0.92942 -602.5149,0.93621 -614.0021,0.94388 -624.8591,0.95224 -635.0777,0.96157 -648.5547,0.97573 -660.5066,0.98965 -674.3027,1.0124 -687.0077,1.0385 -696.9265,1.0687 -702.6143,1.0946 NaN,NaN -234.9451,1.2189 -235.1108,1.1611 -235.2785,1.2041 -238.2898,1.1858 -242.4806,1.1676 -249.5919,1.1865 -259.5266,1.2084 -271.8224,1.2312 -283.2102,1.245 -293.257,1.256 -305.086,1.2665 -316.355,1.2745 -327.6211,1.2808 -339.766,1.2867 -353.2812,1.293 -366.0385,1.2978 -378.3315,1.3021 -400.0985,1.3041 -419.1453,1.3051 -436.2,1.3054 -462.2643,1.3038 -462.2643,1.3925 -453.1501,1.4044 -436.2,1.4054 -419.1453,1.4051 -400.0985,1.4041 -378.3315,1.4021 -366.0385,1.3978 -353.2811,1.393 -339.766,1.3867 -327.621,1.3808 -316.355,1.3745 -305.086,1.3665 -293.2569,1.356 -283.2101,1.345 -271.8223,1.3312 -259.5264,1.3084 -249.5917,1.2865 -242.1316,1.2667 -237.4191,1.2432 NaN,NaN -234.946,1.1189 -235.2242,1.1216 -235.1108,1.1611 NaN,NaN -707.3262,1.2203 -706.361,1.215 -706.7104,1.1807 NaN,NaN -70.077,1.1162 -70.3299,1.128 -70.1156,1.1423 NaN,NaN -872.4531,1.1999 -872.3056,1.1969 -872.4224,1.18 " stroke="none" fill="blue" stroke-width="0" shape-rendering="crispEdges" />
<polygon points="-476.1976,-0.35343 -476.1975,-0.25343 -417.6101,-0.28543 -410.5545,-0.28735 -401.1297,-0.29004 -388.4231,-0.29445 -376.0785,-0.299 -362.07,-0.30587 -350.276,-0.31188 -340.471,-0.31739 -329.6156,-0.32369 -318.8152,-0.33054 -309.2618,-0.33686 -296.2074,-0.34676 -282.4505,-0.35732 -271.3786,-0.36732 -258.617,-0.38243 -246.5988,-0.40145 -236.0913,-0.42012 -222.1342,-0.44658 -209.6442,-0.47143 -200.1555,-0.49018 -188.6117,-0.51261 -178.1901,-0.53431 -171.4061,-0.5523 -163.3934,-0.57745 -155.0831,-0.61216 -151.3167,-0.63973 -147.6011,-0.67362 -144.4247,-0.70611 -141.916,-0.73401 -137.1976,-0.7618 -131.5392,-0.78958 -123.858,-0.81819 -114.7886,-0.84921 -104.9262,-0.8838 -96.5012,-0.91587 -88.11,-0.9506 -81.654,-0.98714 -76.8641,-1.0186 -73.6062,-1.0438 -71.2966,-1.0743 -70.2889,-1.1318 -70.487,-1.1421 -71.0297,-1.1669 -71.4723,-1.172 -73.6075,-1.1438 -76.8649,-1.1186 -81.6546,-1.0871 -88.1106,-1.0506 -96.5016,-1.0159 -104.9266,-0.9838 -114.789,-0.94921 -123.8584,-0.91819 -131.5396,-0.88958 -137.1981,-0.8618 -141.9166,-0.83401 -144.4258,-0.8061 -147.6021,-0.77362 -151.3176,-0.73973 -155.0839,-0.71216 -163.3938,-0.67745 -171.4064,-0.6523 -178.1903,-0.63431 -188.6119,-0.61261 -200.1557,-0.59018 -209.6444,-0.57143 -222.1344,-0.54658 -236.0914,-0.52012 -246.599,-0.50145 -258.6172,-0.48243 -271.3787,-0.46732 -282.4506,-0.45732 -296.2075,-0.44676 -309.2619,-0.43686 -318.8153,-0.43054 -329.6156,-0.42369 -340.471,-0.41739 -350.2761,-0.41188 -362.07,-0.40587 -376.0786,-0.399 -388.4232,-0.39445 -401.1297,-0.39004 -410.5545,-0.38735 -417.6101,-0.38543 NaN,NaN -71.2986,-1.1742 -70.0731,-1.1499 -70.0652,-1.1446 -69.9731,-1.1499 -70.0205,-1.218 -70.4824,-1.242 -71.0285,-1.2669 -72.8467,-1.2877 -75.4363,-1.3121 -78.6228,-1.3364 -82.9511,-1.3586 -87.8194,-1.3819 -92.297,-1.3986 -97.7333,-1.4154 -103.9718,-1.4307 -109.9257,-1.4437 -117.9691,-1.4579 -125.8149,-1.4711 -132.1671,-1.4801 -139.9643,-1.4901 -148.1476,-1.4987 -155.6299,-1.5059 -165.3154,-1.5138 -175.8869,-1.5224 -186.9392,-1.5291 -196.809,-1.5351 -207.8147,-1.5404 -217.0816,-1.5447 -225.3596,-1.5482 -234.0664,-1.5516 -243.0462,-1.5548 -252.4236,-1.5579 -262.0063,-1.5607 -274.6093,-1.5644 -297.0612,-1.5695 -307.6554,-1.5714 -319.7299,-1.5737 -330.6889,-1.5752 -342.5791,-1.5769 -365.5819,-1.5795 -388.7187,-1.5814 -400.3904,-1.5821 -411.9754,-1.5828 -423.7873,-1.5833 -435.3425,-1.5837 -447.2552,-1.584 -458.815,-1.5841 -470.792,-1.5842 -482.3916,-1.5841 -494.3983,-1.5839 -506.0751,-1.5836 -518.0772,-1.5832 -541.835,-1.582 -553.7963,-1.5811 -565.6815,-1.5802 -577.8646,-1.5789 -589.6312,-1.5777 -602.1038,-1.576 -613.7044,-1.5745 -626.5509,-1.5723 -637.9298,-1.5704 -662.3479,-1.5651 -676.3018,-1.5614 -687.0172,-1.5584 -697.5752,-1.5551 -707.8084,-1.5515 -717.9785,-1.5475 -727.5865,-1.5431 -739.143,-1.537 -752.1469,-1.5298 -765.8356,-1.52 -779.2275,-1.5103 -789.3932,-1.5017 -801.3986,-1.4892 -814.1951,-1.4713 -824.0684,-1.4537 -835.8362,-1.4279 -848.3441,-1.3927 -857.285,-1.3609 -863.3381,-1.3279 -868.2989,-1.2943 -870.9112,-1.2686 -871.8649,-1.2412 -872.2302,-1.1946 -871.3619,-1.1755 -870.946,-1.1676 -870.9083,-1.1687 -868.2979,-1.1943 -863.3374,-1.2279 -857.2844,-1.2609 -848.3438,-1.2927 -835.8359,-1.3279 -824.0682,-1.3537 -814.195,-1.3713 -801.3985,-1.3892 -789.3931,-1.4017 -779.2274,-1.4103 -765.8356,-1.42 -752.1469,-1.4298 -739.143,-1.437 -727.5865,-1.4431 -717.9784,-1.4475 -707.8083,-1.4515 -697.5752,-1.4551 -687.0171,-1.4584 -676.3017,-1.4614 -662.3478,-1.4651 -637.9297,-1.4704 -626.5509,-1.4723 -613.7044,-1.4745 -602.1038,-1.476 -589.6312,-1.4777 -577.8646,-1.4789 -565.6815,-1.4802 -553.7963,-1.4811 -541.835,-1.482 -518.0772,-1.4832 -506.0751,-1.4836 -494.3983,-1.4839 -482.3916,-1.4841 -470.792,-1.4842 -458.815,-1.4841 -447.2552,-1.484 -435.3425,-1.4837 -423.7873,-1.4833 -411.9754,-1.4828 -400.3904,-1.4821 -388.7187,-1.4814 -365.5819,-1.4795 -342.5791,-1.4769 -330.6889,-1.4752 -319.7299,-1.4737 -307.6554,-1.4714 -297.0612,-1.4695 -274.6093,-1.4644 -262.0063,-1.4607 -252.4236,-1.4579 -243.0462,-1.4548 -234.0664,-1.4516 -225.3597,-1.4482 -217.0816,-1.4447 -207.8148,-1.4404 -196.809,-1.4351 -186.9393,-1.4291 -175.887,-1.4224 -165.3154,-1.4138 -155.63,-1.4059 -148.1477,-1.3987 -139.9644,-1.3901 -132.1672,-1.3801 -125.815,-1.3711 -117.9693,-1.3579 -109.9259,-1.3437 -103.972,-1.3307 -97.7335,-1.3154 -92.2973,-1.2986 -87.8198,-1.2819 -82.9515,-1.2586 -78.6233,-1.2364 -75.4371,-1.2121 -72.8476,-1.1878 -71.4723,-1.172 NaN,NaN -70.0257,-1.1182 -70.0652,-1.1446 -70.2889,-1.1318 NaN,NaN -871.8603,-1.1414 -872.3531,-1.1662 -872.3693,-1.1768 -872.4531,-1.1662 -872.4042,-1.0984 -871.3638,-1.0755 -870.0811,-1.0512 -867.9823,-1.0315 -864.7523,-1.0067 -861.0853,-0.97972 -857.1649,-0.95859 -852.6086,-0.93594 -848.2063,-0.91804 -843.7628,-0.90075 -838.005,-0.88122 -832.8276,-0.86398 -827.9825,-0.84914 -822.5849,-0.83053 -816.4315,-0.81032 -812.0172,-0.79433 -807.7698,-0.77695 -803.3457,-0.75389 -800.0772,-0.735 -798.3824,-0.71353 -796.613,-0.68932 -794.1174,-0.66208 -791.0114,-0.63515 -787.7239,-0.60892 -784.3396,-0.59066 -779.087,-0.57099 -772.1576,-0.55202 -766.5371,-0.5396 -761.2859,-0.52832 -753.952,-0.51251 -746.5387,-0.49814 -741.0491,-0.48756 -734.1539,-0.47498 -726.0587,-0.45916 -719.2555,-0.44624 -713.2065,-0.43382 -706.0598,-0.41926 -699.3371,-0.40546 -693.3744,-0.39449 -685.8159,-0.38302 -677.7278,-0.37296 -669.8373,-0.36491 -659.9238,-0.35613 -649.7831,-0.34732 -638.9359,-0.33977 -629.6051,-0.33353 -621.8574,-0.32877 -613.4275,-0.3237 -604.7186,-0.31862 -596.6325,-0.3139 -587.1138,-0.30862 -575.3995,-0.30251 -564.9799,-0.29794 -553.7515,-0.2934 -544.0039,-0.29014 -515.7049,-0.41113 -488.4824,-0.53334 -460.2081,-0.65712 -431.949,-0.78208 -402.2147,-0.90828 -390.1648,-0.91234 -377.2652,-0.917 -363.9219,-0.92332 -351.5732,-0.92942 -339.9629,-0.93621 -328.4756,-0.94388 -317.6186,-0.95224 -307.4,-0.96157 -293.9229,-0.97573 -281.9713,-0.98965 -268.1749,-1.0124 -255.4698,-1.0385 -245.5507,-1.0687 -239.8628,-1.0946 -237.7463,-1.151 -239.1569,-1.1613 -243.6007,-1.1758 -243.8387,-1.1765 -245.5512,-1.1687 -255.4702,-1.1385 -268.1751,-1.1124 -281.9714,-1.0896 -293.9231,-1.0757 -307.4001,-1.0616 -317.6187,-1.0522 -328.4757,-1.0439 -339.9629,-1.0362 -351.5732,-1.0294 -363.922,-1.0233 -377.2652,-1.017 -390.1648,-1.0123 -402.2148,-1.0083 -431.9494,-0.88208 -460.2085,-0.75712 -488.4829,-0.63334 -515.7053,-0.51113 -544.0043,-0.39014 -553.7515,-0.3934 -564.9798,-0.39794 -575.3995,-0.40251 -587.1137,-0.40862 -596.6325,-0.4139 -604.7185,-0.41862 -613.4275,-0.4237 -621.8573,-0.42877 -629.6051,-0.43353 -638.9359,-0.43977 -649.7831,-0.44732 -659.9237,-0.45613 -669.8372,-0.46491 -677.7277,-0.47296 -685.8158,-0.48302 -693.3743,-0.49449 -699.3369,-0.50546 -706.0596,-0.51926 -713.2063,-0.53382 -719.2553,-0.54624 -726.0585,-0.55916 -734.1537,-0.57498 -741.049,-0.58756 -746.5385,-0.59814 -753.9518,-0.61251 -761.2857,-0.62832 -766.5369,-0.6396 -772.1574,-0.65201 -779.0867,-0.67099 -784.3393,-0.69065 -787.7234,-0.70892 -791.0106,-0.73514 -794.1165,-0.76208 -796.6119,-0.78931 -798.381,-0.81352 -800.076,-0.83499 -803.3451,-0.85389 -807.7693,-0.87695 -812.0167,-0.89433 -816.4312,-0.91032 -822.5846,-0.93053 -827.9821,-0.94914 -832.8273,-0.96398 -838.0047,-0.98122 -843.7625,-1.0007 -848.2059,-1.018 -852.6082,-1.0359 -857.1644,-1.0586 -861.0847,-1.0797 -864.7516,-1.1067 -867.9816,-1.1315 -870.0802,-1.1511 -870.946,-1.1676 NaN,NaN -872.402,-1.1984 -872.3693,-1.1768 -872.2302,-1.1946 NaN,NaN -239.8634,-1.1946 -237.5066,-1.1574 -235.1499,-1.2203 -236.3827,-1.2411 -239.1566,-1.2613 -243.6004,-1.2758 -248.6281,-1.2906 -255.6288,-1.3074 -263.4804,-1.3209 -270.942,-1.3313 -279.3321,-1.3418 -288.3569,-1.3522 -295.4934,-1.3596 -303.619,-1.3662 -312.2333,-1.3724 -321.4004,-1.3778 -331.2251,-1.3831 -342.6813,-1.3889 -353.4053,-1.3934 -364.3568,-1.3978 -375.8369,-1.4016 -386.3993,-1.4048 -398.505,-1.4077 -408.7912,-1.41 -421.4016,-1.4121 -431.5256,-1.4136 -444.5252,-1.4149 -454.6065,-1.4155 -467.8823,-1.4159 -478.0503,-1.4158 -491.4882,-1.4153 -501.889,-1.4144 -515.3696,-1.4129 -526.1743,-1.4111 -539.5682,-1.4086 -550.9852,-1.4057 -564.1464,-1.4021 -576.4393,-1.3978 -589.1966,-1.393 -602.7116,-1.3867 -614.8566,-1.3808 -626.1231,-1.3745 -637.3921,-1.3665 -649.2208,-1.356 -659.2677,-1.345 -670.6559,-1.3312 -682.9514,-1.3084 -692.8863,-1.2865 -700.347,-1.2667 -705.0596,-1.2432 -705.984,-1.1968 -704.1887,-1.1858 -699.9985,-1.1676 -692.886,-1.1865 -682.9512,-1.2084 -670.6557,-1.2312 -659.2676,-1.245 -649.2207,-1.256 -637.392,-1.2665 -626.123,-1.2745 -614.8565,-1.2808 -602.7116,-1.2867 -589.1965,-1.293 -576.4393,-1.2978 -564.1463,-1.3021 -550.9852,-1.3057 -539.5682,-1.3086 -526.1743,-1.3111 -515.3696,-1.3129 -501.8889,-1.3144 -491.4882,-1.3153 -478.0503,-1.3158 -467.8823,-1.3159 -454.6065,-1.3155 -444.5252,-1.3149 -431.5256,-1.3136 -421.4016,-1.3121 -408.7912,-1.31 -398.5051,-1.3077 -386.3993,-1.3048 -375.8369,-1.3016 -364.3569,-1.2978 -353.4053,-1.2934 -342.6813,-1.2889 -331.2252,-1.2831 -321.4004,-1.2778 -312.2334,-1.2724 -303.6191,-1.2662 -295.4935,-1.2596 -288.357,-1.2522 -279.3322,-1.2418 -270.9421,-1.2313 -263.4806,-1.2209 -255.629,-1.2074 -248.6284,-1.1906 -243.8387,-1.1765 NaN,NaN -235.1516,-1.1203 -236.3834,-1.1411 -236.5482,-1.1423 NaN,NaN -700.3465,-1.1667 -705.0587,-1.1432 -706.2969,-1.1811 -707.535,-1.1189 -707.2025,-1.1042 -704.1892,-1.0858 -699.037,-1.0634 -694.0369,-1.0471 -688.9369,-1.0338 -681.2222,-1.0177 -674.3006,-1.0058 -667.6915,-0.99687 -658.5545,-0.98583 -649.1803,-0.97495 -640.5483,-0.96611 -631.6207,-0.95756 -624.0925,-0.95087 -616.0916,-0.94487 -607.2792,-0.93869 -597.8865,-0.93284 -587.9646,-0.92735 -576.6669,-0.92147 -565.8183,-0.91679 -555.0087,-0.91253 -534.3999,-0.91512 -515.9956,-0.91867 -499.4641,-0.92294 -473.465,-0.9337 -473.465,-1.0337 -499.4642,-1.0229 -515.9956,-1.0187 -534.3999,-1.0151 -555.0087,-1.0125 -565.8182,-1.0168 -576.6669,-1.0215 -587.9645,-1.0273 -597.8865,-1.0328 -607.2791,-1.0387 -616.0915,-1.0449 -624.0925,-1.0509 -631.6206,-1.0576 -640.5482,-1.0661 -649.1802,-1.075 -658.5544,-1.0858 -667.6914,-1.0969 -674.3005,-1.1058 -681.222,-1.1177 -688.9367,-1.1338 -694.0366,-1.1471 -699.0367,-1.1634 -699.9985,-1.1676 NaN,NaN -707.5305,-1.2188 -707.2019,-1.2042 -707.0148,-1.2031 NaN,NaN -707.0148,-1.2031 -706.2969,-1.1811 -705.984,-1.1968 NaN,NaN -236.5482,-1.1423 -237.5066,-1.1574 -237.7463,-1.151 " stroke="none" fill="blue" stroke-width="0" shape-rendering="crispEdges" />
<polygon points="482.0401,1.4917 485.5366,1.4912 495.2141,1.4787 523.4884,1.4426 552.1308,1.4055 564.1463,1.4021 576.4391,1.3978 589.1965,1.393 602.7115,1.3867 614.8565,1.3808 626.123,1.3745 637.3921,1.3665 649.2208,1.356 659.2677,1.345 670.6559,1.3312 682.9514,1.3084 692.8862,1.2865 700.3469,1.2667 705.0595,1.2432 705.9839,1.1968 704.1885,1.1858 699.9982,1.1676 692.886,1.1865 682.9512,1.2084 670.6557,1.2312 659.2676,1.245 649.2207,1.256 637.392,1.2665 626.1229,1.2745 614.8564,1.2808 602.7114,1.2867 589.1964,1.293 576.4391,1.2978 564.1462,1.3021 552.1308,1.3055 523.4883,1.3426 495.214,1.3787 479.2086,1.3993 479.2086,1.4038 475.1133,1.4046 467.7842,1.414 439.5099,1.4487 411.439,1.4828 400.3902,1.4821 388.7184,1.4814 365.5817,1.4795 342.5789,1.4769 330.6888,1.4752 319.7298,1.4737 307.6554,1.4714 297.0611,1.4695 274.6092,1.4644 262.0063,1.4607 252.4236,1.4579 243.046,1.4548 234.0661,1.4516 225.3594,1.4482 217.0813,1.4447 207.8145,1.4404 196.809,1.4351 186.9393,1.4291 175.887,1.4224 165.3155,1.4138 155.6301,1.4059 148.1481,1.3987 139.965,1.3901 132.1678,1.3801 125.8158,1.3711 117.9705,1.3579 109.927,1.3437 103.973,1.3307 97.7349,1.3154 92.299,1.2985 87.8213,1.2819 82.9533,1.2586 78.6254,1.2364 75.4389,1.2121 72.8491,1.1877 71.4737,1.1719 71.2993,1.1742 70.0741,1.1499 70.0662,1.1446 69.9741,1.1499 70.0215,1.218 70.4836,1.242 71.03,1.2669 72.8482,1.2877 75.4381,1.3121 78.6249,1.3364 82.9528,1.3586 87.8209,1.3819 92.2987,1.3985 97.7346,1.4154 103.9728,1.4307 109.9269,1.4437 117.9703,1.4579 125.8156,1.4711 132.1676,1.4801 139.9649,1.4901 148.148,1.4987 155.6301,1.5059 165.3154,1.5138 175.8869,1.5224 186.9392,1.5291 196.8089,1.5351 207.8145,1.5404 217.0813,1.5447 225.3593,1.5482 234.0661,1.5516 243.0459,1.5548 252.4236,1.5579 262.0063,1.5607 274.6092,1.5644 297.0611,1.5695 307.6554,1.5714 319.7298,1.5737 330.6888,1.5752 342.5789,1.5769 365.5817,1.5795 388.7184,1.5814 400.3902,1.5821 411.4391,1.5828 439.51,1.5487 467.7843,1.514 482.0401,1.4957 NaN,NaN 549.0077,1.4817 485.5366,1.4912 482.0401,1.4957 482.0401,1.5917 549.0077,1.5817 556.2567,1.581 565.6814,1.5802 577.8646,1.5789 589.6312,1.5777 602.1038,1.576 613.7044,1.5745 626.5509,1.5723 637.9298,1.5704 662.3479,1.5651 676.3017,1.5614 687.0171,1.5584 697.5756,1.5551 707.8087,1.5515 717.9787,1.5475 727.5868,1.5431 739.1432,1.537 752.1467,1.5298 765.8353,1.52 779.2272,1.5103 789.3931,1.5017 801.3987,1.4892 814.1952,1.4713 824.0686,1.4537 835.8363,1.4279 848.3441,1.3927 857.285,1.3609 863.3381,1.3279 868.2989,1.2943 870.9113,1.2686 871.865,1.2412 872.2302,1.1946 871.3619,1.1755 870.9461,1.1676 870.9084,1.1687 868.2979,1.1943 863.3374,1.2279 857.2844,1.2609 848.3438,1.2927 835.836,1.3279 824.0684,1.3537 814.195,1.3713 801.3985,1.3892 789.393,1.4017 779.2271,1.4103 765.8352,1.42 752.1466,1.4298 739.1431,1.437 727.5868,1.4431 717.9787,1.4475 707.8087,1.4515 697.5755,1.4551 687.017,1.4584 676.3017,1.4614 662.3478,1.4651 637.9297,1.4704 626.5509,1.4723 613.7044,1.4745 602.1038,1.476 589.6311,1.4777 577.8646,1.4789 565.6814,1.4802 556.2567,1.481 NaN,NaN 871.8603,1.1414 872.3531,1.1662 872.3693,1.1769 872.4531,1.1662 872.4042,1.0984 871.3637,1.0755 870.081,1.0512 867.9822,1.0315 864.7521,1.0067 861.085,0.97973 857.1647,0.95859 852.6085,0.93594 848.2061,0.91804 843.7627,0.90075 838.005,0.88122 832.8275,0.86398 827.9823,0.84914 822.5847,0.83053 816.4313,0.81032 812.0169,0.79433 807.7696,0.77696 803.3455,0.75389 800.077,0.735 798.3822,0.71353 796.6128,0.68932 794.1172,0.66208 791.0111,0.63515 787.7237,0.60892 784.3394,0.59066 779.0868,0.57099 772.1575,0.55202 766.537,0.5396 761.2859,0.52832 753.952,0.51251 746.5387,0.49814 741.0491,0.48756 734.1537,0.47498 726.0584,0.45916 719.2552,0.44624 713.206,0.43382 706.0591,0.41926 699.3364,0.40546 693.3738,0.3945 685.8152,0.38302 677.7272,0.37296 669.8371,0.36491 659.9236,0.35614 649.783,0.34732 638.9363,0.33977 629.6057,0.33353 621.858,0.32877 613.4282,0.3237 604.7193,0.31862 596.6329,0.31389 587.114,0.30862 575.4,0.3025 564.9802,0.29794 553.752,0.2934 542.5445,0.28986 531.641,0.28681 519.7931,0.28425 509.0897,0.28235 496.7559,0.28081 486.0771,0.2799 473.4186,0.27959 462.5385,0.27994 449.68,0.28084 438.4625,0.28235 425.5793,0.28432 413.8111,0.28692 401.1293,0.29004 388.4223,0.29445 376.0778,0.29901 362.0687,0.30587 350.275,0.31188 340.4717,0.3174 329.6168,0.3237 318.8158,0.33054 309.2631,0.33686 296.2082,0.34677 282.4495,0.35733 271.3779,0.36732 258.6169,0.38243 246.5988,0.40145 236.0917,0.42012 222.1359,0.44658 209.6454,0.47143 200.1562,0.49017 188.6124,0.5126 178.1903,0.5343 171.4041,0.5523 163.3908,0.57745 155.0804,0.61217 151.3134,0.63974 147.5983,0.67362 144.4224,0.7061 141.9129,0.73402 137.1947,0.7618 131.5368,0.78958 123.8553,0.81819 114.7864,0.84921 104.9254,0.88379 96.5008,0.91587 88.1096,0.9506 81.6539,0.98714 76.8642,1.0186 73.6066,1.0438 71.2973,1.0743 70.29,1.1318 70.4881,1.1421 71.0311,1.1669 71.4737,1.1719 73.6079,1.1438 76.8649,1.1186 81.6545,1.0871 88.1101,1.0506 96.5012,1.0159 104.9257,0.98379 114.7868,0.94921 123.8557,0.91819 131.5372,0.88958 137.1952,0.8618 141.9135,0.83401 144.4235,0.8061 147.5993,0.77362 151.3144,0.73973 155.0811,0.71216 163.3912,0.67745 171.4044,0.6523 178.1906,0.6343 188.6126,0.6126 200.1564,0.59017 209.6456,0.57143 222.1361,0.54658 236.0918,0.52012 246.5989,0.50145 258.6171,0.48243 271.3781,0.46732 282.4496,0.45733 296.2083,0.44677 309.2631,0.43686 318.8159,0.43054 329.6168,0.4237 340.4718,0.4174 350.275,0.41188 362.0687,0.40587 376.0779,0.39901 388.4223,0.39445 401.1293,0.39004 413.8111,0.38692 425.5793,0.38432 438.4625,0.38235 449.68,0.38084 462.5385,0.37994 473.4186,0.37959 486.0771,0.3799 496.7559,0.38081 509.0896,0.38235 519.7931,0.38425 531.641,0.38681 542.5445,0.38986 553.752,0.3934 564.9802,0.39794 575.4,0.4025 587.114,0.40862 596.6329,0.41389 604.7193,0.41862 613.4282,0.4237 621.8579,0.42877 629.6056,0.43353 638.9363,0.43977 649.7829,0.44732 659.9235,0.45614 669.837,0.46491 677.7271,0.47296 685.8151,0.48302 693.3736,0.4945 699.3362,0.50546 706.0589,0.51926 713.2058,0.53382 719.255,0.54624 726.0582,0.55916 734.1535,0.57498 741.0489,0.58756 746.5385,0.59814 753.9518,0.61251 761.2857,0.62832 766.5368,0.6396 772.1573,0.65202 779.0865,0.67099 784.3391,0.69065 787.7232,0.70892 791.0103,0.73514 794.1163,0.76208 796.6117,0.78931 798.3808,0.81352 800.0757,0.83499 803.3449,0.85389 807.7691,0.87695 812.0165,0.89433 816.431,0.91032 822.5844,0.93053 827.982,0.94914 832.8272,0.96398 838.0046,0.98122 843.7624,1.0007 848.2057,1.018 852.6081,1.0359 857.1642,1.0586 861.0845,1.0797 864.7514,1.1067 867.9814,1.1315 870.08,1.1511 870.9461,1.1676 NaN,NaN 872.402,1.1984 872.3693,1.1769 872.2302,1.1946 NaN,NaN 70.0267,1.1182 70.0662,1.1446 70.29,1.1318 NaN,NaN 700.3464,1.1667 705.0586,1.1432 706.2967,1.1811 707.5348,1.1189 707.2023,1.1042 704.189,1.0858 699.0369,1.0634 694.0367,1.0471 688.9366,1.0338 681.222,1.0177 674.3004,1.0058 667.6914,0.99687 658.5544,0.98583 649.1803,0.97495 640.5484,0.96611 631.6208,0.95756 624.0927,0.95087 616.0918,0.94487 607.2794,0.93868 597.8866,0.93284 587.9647,0.92735 576.667,0.92147 565.8183,0.91679 555.0088,0.91253 543.3795,0.90881 532.911,0.90589 520.6467,0.90322 510.3719,0.90143 497.6195,0.89985 487.3881,0.89906 474.2947,0.89861 463.9434,0.89877 450.6562,0.89947 439.9937,0.90066 426.6632,0.90259 415.4498,0.90502 402.2391,0.90827 390.1643,0.91234 377.2648,0.917 363.9214,0.92332 351.5728,0.92942 339.9628,0.93621 328.4757,0.94388 317.6187,0.95224 307.4002,0.96157 293.923,0.97573 281.971,0.98965 268.1746,1.0124 255.4696,1.0385 245.5504,1.0687 239.8627,1.0946 237.7461,1.151 239.1568,1.1613 243.6006,1.1758 243.8382,1.1765 245.5509,1.1687 255.4699,1.1385 268.1748,1.1124 281.9712,1.0896 293.9231,1.0757 307.4003,1.0616 317.6188,1.0522 328.4758,1.0439 339.9629,1.0362 351.5729,1.0294 363.9215,1.0233 377.2649,1.017 390.1643,1.0123 402.2392,1.0083 415.4498,1.005 426.6632,1.0026 439.9937,1.0007 450.6562,0.99947 463.9434,0.99877 474.2947,0.99861 487.3881,0.99906 497.6195,0.99985 510.3719,1.0014 520.6467,1.0032 532.9109,1.0059 543.3795,1.0088 555.0088,1.0125 565.8183,1.0168 576.667,1.0215 587.9646,1.0273 597.8866,1.0328 607.2793,1.0387 616.0917,1.0449 624.0926,1.0509 631.6207,1.0576 640.5483,1.0661 649.1802,1.075 658.5542,1.0858 667.6913,1.0969 674.3003,1.1058 681.2218,1.1177 688.9364,1.1338 694.0364,1.1471 699.0365,1.1634 699.9982,1.1676 NaN,NaN 707.5304,1.2188 707.2017,1.2042 707.0147,1.2031 NaN,NaN 239.8633,1.1946 237.5065,1.1574 235.1497,1.2203 236.3826,1.2411 239.1565,1.2613 243.6003,1.2758 248.628,1.2906 255.6287,1.3074 263.4803,1.3209 270.9419,1.3313 279.3318,1.3418 288.3565,1.3522 295.4931,1.3596 303.6186,1.3662 312.233,1.3724 321.4002,1.3778 331.225,1.3831 342.6811,1.3889 353.4051,1.3934 364.3566,1.3978 375.8367,1.4016 386.399,1.4048 398.5048,1.4077 408.7909,1.41 427.7077,1.4098 443.4388,1.4088 458.0324,1.4076 475.1133,1.4046 479.2086,1.3993 479.2086,1.3038 458.0324,1.3076 443.4388,1.3088 427.7077,1.3098 408.7909,1.31 398.5049,1.3077 386.399,1.3048 375.8367,1.3016 364.3566,1.2978 353.4052,1.2934 342.6811,1.2889 331.225,1.2831 321.4003,1.2778 312.233,1.2724 303.6187,1.2662 295.4932,1.2596 288.3566,1.2522 279.3319,1.2418 270.942,1.2313 263.4805,1.2209 255.6288,1.2074 248.6283,1.1906 243.8382,1.1765 NaN,NaN 235.1514,1.1203 236.3834,1.1411 236.548,1.1423 NaN,NaN 705.9839,1.1968 707.0147,1.2031 706.2967,1.1811 NaN,NaN 236.548,1.1423 237.5065,1.1574 237.7461,1.151 " stroke="none" fill="blue" stroke-width="0" shape-rendering="crispEdges" />
<polygon points="469.6123,-1.404 478.4424,-1.4046 486.5839,-1.4146 513.509,-1.4485 542.5917,-1.4821 553.7592,-1.4814 576.8959,-1.4795 599.8987,-1.4769 611.7889,-1.4752 622.7479,-1.4737 634.8224,-1.4714 645.4167,-1.4695 667.8687,-1.4644 680.4717,-1.4607 690.0545,-1.4579 699.4332,-1.4548 708.4132,-1.4516 717.1199,-1.4482 725.3981,-1.4447 734.6648,-1.4404 745.6694,-1.4351 755.5389,-1.4291 766.5914,-1.4224 777.1627,-1.4138 786.8483,-1.4059 794.3308,-1.3987 802.5141,-1.3901 810.3111,-1.3801 816.6633,-1.3711 824.5087,-1.3579 832.5516,-1.3437 838.5055,-1.3307 844.7438,-1.3154 850.1797,-1.2986 854.6572,-1.2819 859.5253,-1.2586 863.8532,-1.2364 867.0396,-1.2121 869.6291,-1.1877 871.0053,-1.172 871.1789,-1.1743 872.3054,-1.1969 871.9949,-1.242 871.45,-1.2668 869.6303,-1.2877 867.0405,-1.3121 863.854,-1.3364 859.5258,-1.3586 854.6577,-1.3819 850.1801,-1.3986 844.7441,-1.4154 838.5057,-1.4307 832.5518,-1.4437 824.5088,-1.4579 816.6634,-1.4711 810.3113,-1.4801 802.5142,-1.4901 794.3309,-1.4987 786.8484,-1.5059 777.1628,-1.5138 766.5915,-1.5224 755.539,-1.5291 745.6694,-1.5351 734.6648,-1.5404 725.3981,-1.5447 717.1199,-1.5482 708.4133,-1.5516 699.4333,-1.5548 690.0546,-1.5579 680.4717,-1.5607 667.8688,-1.5644 645.4167,-1.5695 634.8224,-1.5714 622.748,-1.5737 611.7889,-1.5752 599.8987,-1.5769 576.8959,-1.5795 553.7592,-1.5814 542.5917,-1.5821 513.5089,-1.5485 486.5838,-1.5146 471.3165,-1.4958 471.3165,-1.4918 467.6055,-1.4913 458.3094,-1.4799 430.8797,-1.4446 402.1011,-1.4085 391.4927,-1.4057 378.3315,-1.4021 366.0386,-1.3978 353.2813,-1.393 339.7663,-1.3867 327.6212,-1.3808 316.3547,-1.3745 305.0857,-1.3665 293.257,-1.356 283.2101,-1.345 271.8219,-1.3312 259.5265,-1.3084 249.5917,-1.2865 242.1311,-1.2667 237.4186,-1.2432 234.9448,-1.2189 235.1104,-1.1611 235.2781,-1.2041 238.2894,-1.1858 242.4798,-1.1676 249.5919,-1.1865 259.5266,-1.2084 271.8221,-1.2312 283.2102,-1.245 293.2571,-1.256 305.0858,-1.2665 316.3548,-1.2745 327.6213,-1.2808 339.7663,-1.2867 353.2813,-1.293 366.0386,-1.2978 378.3315,-1.3021 391.4927,-1.3057 402.1012,-1.3085 430.8798,-1.3446 458.3096,-1.3799 469.6123,-1.3937 NaN,NaN 541.6976,-1.4086 478.4424,-1.4046 469.6123,-1.3937 469.6123,-1.304 541.6975,-1.3086 547.5475,-1.3071 556.0784,-1.3048 566.6408,-1.3016 578.1208,-1.2978 589.0724,-1.2934 599.7963,-1.2889 611.2525,-1.2831 621.0771,-1.2778 630.2438,-1.2724 638.858,-1.2662 646.9836,-1.2596 654.12,-1.2522 663.1449,-1.2418 671.5353,-1.2313 678.9966,-1.2209 686.8479,-1.2074 693.8487,-1.1906 698.6375,-1.1765 702.6137,-1.1946 706.3608,-1.215 706.0949,-1.2411 703.3204,-1.2613 698.8765,-1.2758 693.849,-1.2906 686.8482,-1.3074 678.9967,-1.3209 671.5354,-1.3313 663.145,-1.3418 654.1201,-1.3522 646.9837,-1.3596 638.8581,-1.3662 630.2439,-1.3724 621.0772,-1.3778 611.2525,-1.3831 599.7963,-1.3889 589.0724,-1.3934 578.1208,-1.3978 566.6408,-1.4016 556.0785,-1.4048 547.5475,-1.4071 NaN,NaN 707.3266,-1.1203 706.7103,-1.1807 706.0932,-1.1411 703.3196,-1.1613 698.8762,-1.1758 698.6375,-1.1765 696.926,-1.1687 687.0073,-1.1385 674.3026,-1.1124 660.5065,-1.0896 648.5544,-1.0757 635.0775,-1.0616 624.859,-1.0522 614.0018,-1.0439 602.5147,-1.0362 590.9049,-1.0294 578.5562,-1.0233 565.2128,-1.017 552.3133,-1.0123 540.2385,-1.0083 527.0277,-1.005 515.8144,-1.0026 502.4838,-1.0007 491.8214,-0.99947 478.5341,-0.99877 468.1829,-0.99861 455.0895,-0.99906 444.8582,-0.99985 432.1057,-1.0014 421.831,-1.0032 409.5667,-1.0059 399.0982,-1.0088 387.4689,-1.0125 376.6594,-1.0168 365.8108,-1.0215 354.5132,-1.0273 344.5912,-1.0328 335.1987,-1.0387 326.3863,-1.0449 318.3854,-1.0509 310.8573,-1.0576 301.9297,-1.0661 293.2977,-1.075 283.9235,-1.0858 274.7865,-1.0969 268.1775,-1.1058 261.256,-1.1177 253.5414,-1.1338 248.4414,-1.1471 243.4414,-1.1634 242.4798,-1.1676 242.1314,-1.1667 237.4191,-1.1432 235.2238,-1.1216 235.2736,-1.1042 238.2888,-1.0858 243.4409,-1.0634 248.4411,-1.0471 253.5411,-1.0338 261.2557,-1.0177 268.1773,-1.0058 274.7863,-0.99687 283.9234,-0.98583 293.2976,-0.97495 301.9296,-0.96611 310.8572,-0.95756 318.3853,-0.95087 326.3863,-0.94487 335.1986,-0.93868 344.5912,-0.93284 354.5131,-0.92735 365.8107,-0.92147 376.6594,-0.91679 387.4688,-0.91253 399.0982,-0.90881 409.5667,-0.90589 421.831,-0.90321 432.1056,-0.90143 444.8581,-0.89985 455.0895,-0.89906 468.1829,-0.89861 478.5341,-0.89877 491.8214,-0.89947 502.4838,-0.90066 515.8144,-0.90259 527.0277,-0.90502 540.2385,-0.90827 552.3133,-0.91234 565.2128,-0.917 578.5563,-0.92332 590.9049,-0.92942 602.5148,-0.93621 614.0019,-0.94388 624.8591,-0.95224 635.0776,-0.96157 648.5545,-0.97573 660.5066,-0.98965 674.3027,-1.0124 687.0075,-1.0385 696.9263,-1.0687 702.6142,-1.0946 NaN,NaN 872.5039,-1.1681 872.4222,-1.18 872.4039,-1.1681 871.9897,-1.1421 871.4454,-1.1669 871.0053,-1.172 868.8701,-1.1438 865.6127,-1.1186 860.8231,-1.0871 854.3673,-1.0506 845.9763,-1.0159 837.5515,-0.9838 827.6893,-0.94921 818.6199,-0.91819 810.9385,-0.88958 805.2801,-0.8618 800.5613,-0.83401 798.0524,-0.8061 794.8762,-0.77362 791.1607,-0.73973 787.3945,-0.71216 779.0842,-0.67745 771.0715,-0.6523 764.2879,-0.63431 753.8663,-0.61261 742.3218,-0.59018 732.8333,-0.57144 720.3423,-0.54658 706.3848,-0.52013 695.8779,-0.50145 683.8604,-0.48243 671.0994,-0.46733 660.0284,-0.45733 646.2699,-0.44677 633.2148,-0.43686 623.662,-0.43054 612.8611,-0.4237 602.006,-0.4174 592.2026,-0.41188 580.4087,-0.40587 566.3996,-0.399 554.0551,-0.39445 541.3482,-0.39004 528.6664,-0.38692 516.8983,-0.38432 504.0151,-0.38235 492.7977,-0.38084 479.9391,-0.37994 469.059,-0.37959 456.4005,-0.3799 445.7218,-0.38081 433.3879,-0.38235 422.6846,-0.38425 410.8365,-0.38681 399.9331,-0.38986 388.7254,-0.3934 377.4973,-0.39794 367.0775,-0.4025 355.3636,-0.40862 345.8446,-0.41389 337.7578,-0.41862 329.0489,-0.4237 320.6192,-0.42877 312.8715,-0.43353 303.541,-0.43977 292.695,-0.44732 282.5543,-0.45614 272.641,-0.46491 264.7514,-0.47296 256.6636,-0.48302 249.105,-0.4945 243.1427,-0.50546 236.4206,-0.51926 229.2735,-0.53382 223.2241,-0.54624 216.4212,-0.55917 208.3264,-0.57498 201.4305,-0.58756 195.9406,-0.59815 188.5276,-0.61252 181.1933,-0.62832 175.9418,-0.6396 170.3216,-0.65202 163.3927,-0.67099 158.1404,-0.69066 154.7568,-0.70893 151.4698,-0.73514 148.3638,-0.76208 145.8681,-0.78932 144.0988,-0.81353 142.4036,-0.835 139.1345,-0.8539 134.7102,-0.87696 130.4629,-0.89434 126.0481,-0.91032 119.8941,-0.93053 114.4963,-0.94914 109.6508,-0.96398 104.4733,-0.98122 98.7155,-1.0007 94.272,-1.018 89.8697,-1.0359 85.3136,-1.0586 81.3934,-1.0797 77.7265,-1.1067 74.4966,-1.1315 72.3985,-1.1511 71.5323,-1.1676 70.6172,-1.1413 70.3305,-1.128 71.1143,-1.0755 72.3966,-1.0512 74.4957,-1.0316 77.7257,-1.0067 81.3927,-0.97973 85.3131,-0.95859 89.8692,-0.93594 94.2716,-0.91804 98.7151,-0.90075 104.4729,-0.88122 109.6505,-0.86398 114.496,-0.84914 119.8938,-0.83053 126.0477,-0.81033 130.4626,-0.79434 134.7098,-0.77696 139.134,-0.7539 142.403,-0.73501 144.0976,-0.71354 145.8667,-0.68933 148.3627,-0.66208 151.469,-0.63515 154.756,-0.60893 158.1398,-0.59066 163.3923,-0.571 170.3213,-0.55202 175.9416,-0.5396 181.1931,-0.52832 188.5274,-0.51252 195.9404,-0.49815 201.4303,-0.48756 208.3262,-0.47498 216.421,-0.45917 223.2239,-0.44624 229.2733,-0.43382 236.4204,-0.41926 243.1425,-0.40546 249.1048,-0.3945 256.6635,-0.38302 264.7513,-0.37296 272.6409,-0.36491 282.5542,-0.35614 292.6949,-0.34732 303.5409,-0.33977 312.8715,-0.33353 320.6192,-0.32877 329.0488,-0.3237 337.7577,-0.31862 345.8445,-0.31389 355.3635,-0.30862 367.0774,-0.3025 377.4973,-0.29794 388.7254,-0.2934 399.9331,-0.28986 410.8365,-0.28681 422.6846,-0.28425 433.3879,-0.28235 445.7218,-0.28081 456.4005,-0.2799 469.059,-0.27959 479.9391,-0.27994 492.7977,-0.28084 504.0151,-0.28235 516.8984,-0.28432 528.6665,-0.28692 541.3483,-0.29004 554.0551,-0.29445 566.3997,-0.299 580.4088,-0.30587 592.2026,-0.31188 602.006,-0.3174 612.8611,-0.3237 623.662,-0.33054 633.2149,-0.33686 646.2699,-0.34677 660.0285,-0.35733 671.0995,-0.36733 683.8605,-0.38243 695.8781,-0.40145 706.385,-0.42013 720.3425,-0.44659 732.8335,-0.47144 742.322,-0.49018 753.8665,-0.51261 764.2881,-0.53431 771.0717,-0.5523 779.0845,-0.57745 787.3949,-0.61216 791.1615,-0.63973 794.8771,-0.67362 798.0534,-0.70611 800.5624,-0.73402 805.2807,-0.7618 810.939,-0.78958 818.6203,-0.81819 827.6896,-0.84921 837.5519,-0.8838 845.9766,-0.91587 854.3677,-0.9506 860.8237,-0.98714 865.6134,-1.0186 868.8709,-1.0438 871.1803,-1.0743 872.4549,-1.0999 NaN,NaN 70.0252,-1.1484 70.1162,-1.1423 70.1252,-1.1484 71.1165,-1.1755 71.5323,-1.1676 71.5692,-1.1687 74.1805,-1.1943 79.1409,-1.2279 85.194,-1.2609 94.1346,-1.2927 106.642,-1.3279 118.4095,-1.3537 128.2829,-1.3713 141.0793,-1.3892 153.0849,-1.4017 163.2508,-1.4103 176.6428,-1.42 190.3314,-1.4298 203.3343,-1.437 214.8906,-1.4431 224.4988,-1.4475 234.6687,-1.4515 244.9019,-1.4551 255.4609,-1.4584 266.1763,-1.4614 280.1301,-1.4651 304.5481,-1.4704 315.9269,-1.4723 328.7734,-1.4745 340.374,-1.476 352.8466,-1.4777 364.6132,-1.4789 376.7963,-1.4802 388.6815,-1.4811 410.0832,-1.4837 428.9482,-1.4859 445.4715,-1.4881 467.6055,-1.4913 471.3165,-1.4958 471.3164,-1.5918 445.4715,-1.5881 428.9482,-1.5859 410.0832,-1.5837 388.6815,-1.5811 376.7963,-1.5802 364.6131,-1.5789 352.8466,-1.5777 340.374,-1.576 328.7734,-1.5745 315.9268,-1.5723 304.548,-1.5704 280.13,-1.5651 266.1763,-1.5614 255.4609,-1.5584 244.9019,-1.5551 234.6686,-1.5515 224.4988,-1.5475 214.8906,-1.5431 203.3343,-1.537 190.3313,-1.5298 176.6427,-1.52 163.2507,-1.5103 153.0848,-1.5017 141.0791,-1.4892 128.2828,-1.4713 118.4094,-1.4537 106.6418,-1.4279 94.1343,-1.3927 85.1937,-1.3609 79.1404,-1.3279 74.1798,-1.2943 71.5682,-1.2687 70.6143,-1.2413 70.0729,-1.2161 NaN,NaN 70.0775,-1.1162 70.3305,-1.128 70.1162,-1.1423 NaN,NaN 872.4529,-1.1999 872.3054,-1.1969 872.4222,-1.18 NaN,NaN 234.9457,-1.1189 235.2238,-1.1216 235.1104,-1.1611 NaN,NaN 707.3261,-1.2203 706.3608,-1.215 706.7103,-1.1807 " stroke="none" fill="red" stroke-width="0" shape-rendering="crispEdges" />
<polygon points="-462.2643,1.4038 -467.2028,1.4046 -474.5023,1.414 -502.7767,1.4486 -531.039,1.4828 -542.0878,1.4821 -553.7596,1.4814 -576.8963,1.4795 -599.8991,1.4769 -611.7891,1.4752 -622.7482,1.4737 -634.8225,1.4714 -645.4168,1.4695 -667.8686,1.4644 -680.4715,1.4607 -690.0542,1.4579 -699.4316,1.4548 -708.4114,1.4516 -717.1181,1.4482 -725.3961,1.4447 -734.663,1.4404 -745.6687,1.4351 -755.5384,1.4291 -766.5906,1.4224 -777.1622,1.4138 -786.8475,1.4059 -794.3295,1.3987 -802.5126,1.3901 -810.31,1.3801 -816.662,1.3711 -824.5074,1.3579 -832.551,1.3437 -838.5051,1.3307 -844.7434,1.3154 -850.1795,1.2986 -854.6572,1.2819 -859.5255,1.2586 -863.8535,1.2364 -867.0399,1.2121 -869.6295,1.1878 -871.0056,1.172 -871.179,1.1743 -872.3056,1.1969 -871.9951,1.242 -871.4504,1.2668 -869.6306,1.2877 -867.0408,1.3121 -863.8543,1.3364 -859.526,1.3586 -854.6577,1.3819 -850.1799,1.3985 -844.7437,1.4154 -838.5053,1.4307 -832.5512,1.4437 -824.5076,1.4579 -816.6621,1.4711 -810.3101,1.4801 -802.5128,1.4901 -794.3297,1.4987 -786.8476,1.5059 -777.1623,1.5138 -766.5907,1.5224 -755.5385,1.5291 -745.6687,1.5351 -734.663,1.5404 -725.3962,1.5447 -717.1182,1.5482 -708.4114,1.5516 -699.4316,1.5548 -690.0543,1.5579 -680.4716,1.5607 -667.8687,1.5644 -645.4168,1.5695 -634.8225,1.5714 -622.7482,1.5737 -611.7892,1.5752 -599.8991,1.5769 -576.8963,1.5795 -553.7597,1.5814 -542.0878,1.5821 -531.039,1.5828 -502.7765,1.5486 -474.5022,1.514 -460.4859,1.4959 -460.4859,1.4917 -456.7404,1.4911 -447.0723,1.4787 -418.798,1.4425 -390.1555,1.4055 -378.3315,1.4021 -366.0385,1.3978 -353.2811,1.393 -339.766,1.3867 -327.621,1.3808 -316.355,1.3745 -305.086,1.3665 -293.2569,1.356 -283.2101,1.345 -271.8223,1.3312 -259.5264,1.3084 -249.5917,1.2865 -242.1316,1.2667 -237.4191,1.2432 -234.9451,1.2189 -235.1108,1.1611 -235.2785,1.2041 -238.2898,1.1858 -242.4806,1.1676 -249.5919,1.1865 -259.5266,1.2084 -271.8224,1.2312 -283.2102,1.245 -293.257,1.256 -305.086,1.2665 -316.355,1.2745 -327.6211,1.2808 -339.766,1.2867 -353.2812,1.293 -366.0385,1.2978 -378.3315,1.3021 -390.1556,1.3055 -418.7981,1.3425 -447.0725,1.3787 -462.2643,1.3982 NaN,NaN -519.3541,1.4127 -467.2028,1.4046 -462.2643,1.3982 -462.2643,1.3038 -519.3541,1.3127 -524.9277,1.3117 -533.687,1.31 -543.973,1.3077 -556.0788,1.3048 -566.6411,1.3016 -578.1212,1.2978 -589.0726,1.2934 -599.7967,1.2889 -611.2527,1.2831 -621.0775,1.2778 -630.2444,1.2724 -638.8587,1.2662 -646.9842,1.2596 -654.1207,1.2522 -663.1455,1.2418 -671.5355,1.2313 -678.9968,1.2209 -686.8483,1.2074 -693.849,1.1906 -698.638,1.1765 -702.6139,1.1946 -706.361,1.215 -706.0951,1.2411 -703.3207,1.2613 -698.8768,1.2758 -693.8493,1.2906 -686.8485,1.3074 -678.997,1.3209 -671.5356,1.3313 -663.1456,1.3418 -654.1208,1.3522 -646.9843,1.3596 -638.8588,1.3662 -630.2445,1.3724 -621.0775,1.3778 -611.2528,1.3831 -599.7967,1.3889 -589.0727,1.3934 -578.1212,1.3978 -566.6411,1.4016 -556.0789,1.4048 -543.973,1.4077 -533.687,1.41 -524.9277,1.4117 NaN,NaN -707.3268,1.1203 -706.7104,1.1807 -706.0934,1.1411 -703.3199,1.1613 -698.8765,1.1758 -698.638,1.1765 -696.9262,1.1687 -687.0075,1.1385 -674.3026,1.1124 -660.5065,1.0896 -648.5546,1.0757 -635.0776,1.0616 -624.859,1.0522 -614.002,1.0439 -602.5148,1.0362 -590.9048,1.0294 -578.556,1.0233 -565.2127,1.017 -552.3131,1.0123 -540.2384,1.0083 -527.0276,1.005 -515.8144,1.0026 -502.4838,1.0007 -491.8214,0.99947 -478.5342,0.99877 -468.183,0.99861 -455.0896,0.99906 -444.8583,0.99985 -432.1059,1.0014 -421.8312,1.0032 -409.5669,1.0059 -399.0984,1.0088 -387.4692,1.0125 -376.6596,1.0168 -365.8111,1.0215 -354.5134,1.0273 -344.5915,1.0328 -335.1992,1.0387 -326.387,1.0449 -318.386,1.0509 -310.8579,1.0576 -301.9302,1.0661 -293.2979,1.075 -283.9238,1.0858 -274.7868,1.0969 -268.1777,1.1058 -261.2563,1.1177 -253.5417,1.1338 -248.4418,1.1471 -243.4416,1.1634 -242.4806,1.1676 -242.1319,1.1667 -237.4196,1.1432 -235.2242,1.1216 -235.274,1.1042 -238.2892,1.0858 -243.4412,1.0634 -248.4414,1.0471 -253.5415,1.0338 -261.256,1.0177 -268.1775,1.0058 -274.7867,0.99687 -283.9236,0.98583 -293.2977,0.97495 -301.9301,0.96611 -310.8578,0.95756 -318.3859,0.95088 -326.3869,0.94488 -335.1992,0.93869 -344.5915,0.93284 -354.5133,0.92735 -365.8111,0.92147 -376.6596,0.91679 -387.4691,0.91253 -399.0984,0.90881 -409.5669,0.90589 -421.8312,0.90322 -432.1059,0.90143 -444.8583,0.89985 -455.0896,0.89906 -468.183,0.89861 -478.5342,0.89877 -491.8214,0.89947 -502.4838,0.90066 -515.8144,0.90259 -527.0276,0.90502 -540.2384,0.90827 -552.3131,0.91234 -565.2127,0.917 -578.5561,0.92332 -590.9048,0.92942 -602.5149,0.93621 -614.0021,0.94388 -624.8591,0.95224 -635.0777,0.96157 -648.5547,0.97573 -660.5066,0.98965 -674.3027,1.0124 -687.0077,1.0385 -696.9265,1.0687 -702.6143,1.0946 NaN,NaN -872.5041,1.1681 -872.4224,1.18 -872.4041,1.1681 -871.9899,1.1421 -871.4458,1.1669 -871.0056,1.172 -868.87,1.1438 -865.6126,1.1186 -860.823,1.0871 -854.3672,1.0506 -845.9762,1.0159 -837.5515,0.9838 -827.6893,0.94921 -818.6199,0.91819 -810.9386,0.88958 -805.2801,0.8618 -800.5614,0.83401 -798.0524,0.8061 -794.8761,0.77362 -791.1605,0.73973 -787.3943,0.71216 -779.084,0.67745 -771.0713,0.6523 -764.2877,0.63431 -753.8662,0.61261 -742.3216,0.59018 -732.833,0.57144 -720.3416,0.54659 -706.3843,0.52013 -695.8776,0.50145 -683.8603,0.48243 -671.0993,0.46733 -660.0288,0.45733 -646.2707,0.44677 -633.2154,0.43686 -623.6624,0.43054 -612.8614,0.4237 -602.006,0.41739 -592.2021,0.41188 -580.408,0.40587 -566.3991,0.399 -554.0544,0.39445 -541.3478,0.39004 -528.6657,0.38692 -516.8979,0.38431 -504.0146,0.38235 -492.7974,0.38084 -479.9388,0.37994 -469.0589,0.37959 -456.4004,0.3799 -445.7218,0.38081 -433.388,0.38235 -422.6847,0.38425 -410.8369,0.38681 -399.9334,0.38986 -388.7261,0.3934 -377.4979,0.39794 -367.0783,0.40251 -355.3642,0.40862 -345.8457,0.4139 -337.7608,0.41863 -329.0522,0.4237 -320.6222,0.42877 -312.8749,0.43353 -303.5438,0.43977 -292.6959,0.44732 -282.5549,0.45614 -272.6418,0.46491 -264.7521,0.47296 -256.6644,0.48302 -249.1055,0.4945 -243.1433,0.50546 -236.421,0.51926 -229.2735,0.53382 -223.224,0.54624 -216.421,0.55916 -208.3257,0.57498 -201.4297,0.58756 -195.9399,0.59814 -188.5267,0.61252 -181.1925,0.62832 -175.941,0.6396 -170.3203,0.65202 -163.391,0.67099 -158.1383,0.69065 -154.7541,0.70892 -151.4668,0.73514 -148.3609,0.76207 -145.8656,0.78931 -144.0964,0.81352 -142.4012,0.835 -139.1324,0.85389 -134.7082,0.87695 -130.4607,0.89433 -126.0464,0.91032 -119.893,0.93053 -114.4954,0.94914 -109.6503,0.96398 -104.4729,0.98122 -98.7152,1.0007 -94.2718,1.018 -89.8696,1.0359 -85.3135,1.0586 -81.3933,1.0797 -77.7264,1.1067 -74.4964,1.1315 -72.3982,1.1511 -71.5314,1.1676 -70.6165,1.1413 -70.3299,1.128 -71.1139,1.0755 -72.3963,1.0512 -74.4955,1.0315 -77.7256,1.0067 -81.3926,0.97973 -85.313,0.95859 -89.8691,0.93594 -94.2714,0.91804 -98.7148,0.90075 -104.4726,0.88122 -109.65,0.86398 -114.4951,0.84914 -119.8926,0.83053 -126.046,0.81032 -130.4604,0.79433 -134.7078,0.77695 -139.1319,0.75389 -142.4006,0.735 -144.0951,0.71352 -145.8642,0.68932 -148.3598,0.66208 -151.4659,0.63514 -154.7533,0.60892 -158.1378,0.59066 -163.3906,0.57099 -170.32,0.55202 -175.9408,0.5396 -181.1923,0.52832 -188.5264,0.51252 -195.9397,0.49814 -201.4295,0.48756 -208.3255,0.47498 -216.4208,0.45917 -223.2238,0.44624 -229.2733,0.43382 -236.4208,0.41926 -243.1431,0.40546 -249.1054,0.3945 -256.6642,0.38302 -264.7519,0.37296 -272.6417,0.36491 -282.5548,0.35614 -292.6958,0.34732 -303.5438,0.33977 -312.8748,0.33353 -320.6221,0.32877 -329.0521,0.3237 -337.7607,0.31863 -345.8456,0.3139 -355.3642,0.30862 -367.0783,0.30251 -377.4978,0.29794 -388.726,0.2934 -399.9334,0.28986 -410.8368,0.28681 -422.6847,0.28425 -433.388,0.28235 -445.7218,0.28081 -456.4004,0.2799 -469.0589,0.27959 -479.9388,0.27994 -492.7974,0.28084 -504.0146,0.28235 -516.8979,0.28431 -528.6658,0.28692 -541.3478,0.29004 -554.0544,0.29445 -566.3992,0.299 -580.4081,0.30587 -592.2022,0.31188 -602.0061,0.31739 -612.8614,0.3237 -623.6624,0.33054 -633.2155,0.33686 -646.2708,0.34677 -660.0288,0.35733 -671.0994,0.36733 -683.8604,0.38243 -695.8778,0.40145 -706.3844,0.42013 -720.3418,0.44659 -732.8332,0.47144 -742.3218,0.49018 -753.8664,0.51261 -764.2879,0.53431 -771.0716,0.5523 -779.0843,0.57745 -787.3947,0.61216 -791.1613,0.63973 -794.877,0.67362 -798.0534,0.70611 -800.5625,0.73402 -805.2807,0.7618 -810.939,0.78958 -818.6203,0.81819 -827.6896,0.84921 -837.5519,0.8838 -845.9766,0.91587 -854.3676,0.9506 -860.8236,0.98714 -865.6133,1.0186 -868.8708,1.0438 -871.1803,1.0743 -872.4551,1.0999 NaN,NaN -70.0246,1.1484 -70.1156,1.1423 -70.1246,1.1484 -71.1161,1.1755 -71.5314,1.1676 -71.5682,1.1687 -74.1794,1.1943 -79.14,1.2279 -85.1928,1.2609 -94.1335,1.2927 -106.6413,1.3279 -118.4091,1.3537 -128.2825,1.3713 -141.0792,1.3892 -153.0848,1.4017 -163.2507,1.4103 -176.6426,1.42 -190.3311,1.4298 -203.3351,1.437 -214.8914,1.4431 -224.4994,1.4475 -234.6695,1.4515 -244.9025,1.4551 -255.4606,1.4584 -266.1758,1.4614 -280.1298,1.4651 -304.5478,1.4704 -315.9265,1.4723 -328.7732,1.4745 -340.3737,1.476 -352.8465,1.4777 -364.613,1.4789 -376.7963,1.4802 -398.2076,1.4829 -434.1421,1.4877 -456.7404,1.4911 -460.4859,1.4959 -460.4859,1.5917 -434.1421,1.5877 -398.2076,1.5829 -376.7962,1.5802 -364.613,1.5789 -352.8465,1.5777 -340.3737,1.576 -328.7732,1.5745 -315.9265,1.5723 -304.5478,1.5704 -280.1297,1.5651 -266.1758,1.5614 -255.4605,1.5584 -244.9025,1.5551 -234.6694,1.5515 -224.4994,1.5475 -214.8914,1.5431 -203.335,1.537 -190.3311,1.5298 -176.6425,1.52 -163.2506,1.5103 -153.0847,1.5017 -141.0791,1.4892 -128.2824,1.4713 -118.409,1.4537 -106.6411,1.4279 -94.1333,1.3927 -85.1924,1.3609 -79.1394,1.3279 -74.1787,1.2943 -71.5672,1.2687 -70.6136,1.2413 -70.0723,1.2161 NaN,NaN -70.077,1.1162 -70.3299,1.128 -70.1156,1.1423 NaN,NaN -872.4531,1.1999 -872.3056,1.1969 -872.4224,1.18 NaN,NaN -234.946,1.1189 -235.2242,1.1216 -235.1108,1.1611 NaN,NaN -707.3262,1.2203 -706.361,1.215 -706.7104,1.1807 " stroke="none" fill="red" stroke-width="0" shape-rendering="crispEdges" />
<polygon points="-473.465,-1.0337 -473.465,-0.9337 -409.189,-0.90617 -401.0018,-0.9086 -390.1648,-0.91234 -377.2652,-0.917 -363.9219,-0.92332 -351.5732,-0.92942 -339.9629,-0.93621 -328.4756,-0.94388 -317.6186,-0.95224 -307.4,-0.96157 -293.9229,-0.97573 -281.9713,-0.98965 -268.1749,-1.0124 -255.4698,-1.0385 -245.5507,-1.0687 -239.8628,-1.0946 -237.7463,-1.151 -239.1569,-1.1613 -243.6007,-1.1758 -243.8387,-1.1765 -245.5512,-1.1687 -255.4702,-1.1385 -268.1751,-1.1124 -281.9714,-1.0896 -293.9231,-1.0757 -307.4001,-1.0616 -317.6187,-1.0522 -328.4757,-1.0439 -339.9629,-1.0362 -351.5732,-1.0294 -363.922,-1.0233 -377.2652,-1.017 -390.1648,-1.0123 -401.0019,-1.0086 -409.189,-1.0062 NaN,NaN -239.8634,-1.1946 -237.5066,-1.1574 -235.1499,-1.2203 -236.3827,-1.2411 -239.1566,-1.2613 -243.6004,-1.2758 -248.6281,-1.2906 -255.6288,-1.3074 -263.4804,-1.3209 -270.942,-1.3313 -279.3321,-1.3418 -288.3569,-1.3522 -295.4934,-1.3596 -303.619,-1.3662 -312.2333,-1.3724 -321.4004,-1.3778 -331.2251,-1.3831 -342.6813,-1.3889 -353.4053,-1.3934 -364.3568,-1.3978 -375.8369,-1.4016 -386.3993,-1.4048 -398.505,-1.4077 -408.7912,-1.41 -421.4016,-1.4121 -431.5256,-1.4136 -444.5252,-1.4149 -454.6065,-1.4155 -467.8823,-1.4159 -478.0503,-1.4158 -491.4882,-1.4153 -501.889,-1.4144 -515.3696,-1.4129 -526.1743,-1.4111 -539.5682,-1.4086 -550.9852,-1.4057 -564.1464,-1.4021 -576.4393,-1.3978 -589.1966,-1.393 -602.7116,-1.3867 -614.8566,-1.3808 -626.1231,-1.3745 -637.3921,-1.3665 -649.2208,-1.356 -659.2677,-1.345 -670.6559,-1.3312 -682.9514,-1.3084 -692.8863,-1.2865 -700.347,-1.2667 -705.0596,-1.2432 -705.984,-1.1968 -704.1887,-1.1858 -699.9985,-1.1676 -692.886,-1.1865 -682.9512,-1.2084 -670.6557,-1.2312 -659.2676,-1.245 -649.2207,-1.256 -637.392,-1.2665 -626.123,-1.2745 -614.8565,-1.2808 -602.7116,-1.2867 -589.1965,-1.293 -576.4393,-1.2978 -564.1463,-1.3021 -550.9852,-1.3057 -539.5682,-1.3086 -526.1743,-1.3111 -515.3696,-1.3129 -501.8889,-1.3144 -491.4882,-1.3153 -478.0503,-1.3158 -467.8823,-1.3159 -454.6065,-1.3155 -444.5252,-1.3149 -431.5256,-1.3136 -421.4016,-1.3121 -408.7912,-1.31 -398.5051,-1.3077 -386.3993,-1.3048 -375.8369,-1.3016 -364.3569,-1.2978 -353.4053,-1.2934 -342.6813,-1.2889 -331.2252,-1.2831 -321.4004,-1.2778 -312.2334,-1.2724 -303.6191,-1.2662 -295.4935,-1.2596 -288.357,-1.2522 -279.3322,-1.2418 -270.9421,-1.2313 -263.4806,-1.2209 -255.629,-1.2074 -248.6284,-1.1906 -243.8387,-1.1765 NaN,NaN -235.1516,-1.1203 -236.3834,-1.1411 -236.5482,-1.1423 NaN,NaN -700.3465,-1.1667 -705.0587,-1.1432 -706.2969,-1.1811 -707.535,-1.1189 -707.2025,-1.1042 -704.1892,-1.0858 -699.037,-1.0634 -694.0369,-1.0471 -688.9369,-1.0338 -681.2222,-1.0177 -674.3006,-1.0058 -667.6915,-0.99687 -658.5545,-0.98583 -649.1803,-0.97495 -640.5483,-0.96611 -631.6207,-0.95756 -624.0925,-0.95087 -616.0916,-0.94487 -607.2792,-0.93869 -597.8865,-0.93284 -587.9646,-0.92735 -576.6669,-0.92147 -565.8183,-0.91679 -555.0087,-0.91253 -544.3445,-0.90902 -516.5439,-0.78256 -490.1425,-0.65689 -464.788,-0.5326 -437.8984,-0.40922 -411.0282,-0.28729 -401.1297,-0.29004 -388.4231,-0.29445 -376.0785,-0.299 -362.07,-0.30587 -350.276,-0.31188 -340.471,-0.31739 -329.6156,-0.32369 -318.8152,-0.33054 -309.2618,-0.33686 -296.2074,-0.34676 -282.4505,-0.35732 -271.3786,-0.36732 -258.617,-0.38243 -246.5988,-0.40145 -236.0913,-0.42012 -222.1342,-0.44658 -209.6442,-0.47143 -200.1555,-0.49018 -188.6117,-0.51261 -178.1901,-0.53431 -171.4061,-0.5523 -163.3934,-0.57745 -155.0831,-0.61216 -151.3167,-0.63973 -147.6011,-0.67362 -144.4247,-0.70611 -141.916,-0.73401 -137.1976,-0.7618 -131.5392,-0.78958 -123.858,-0.81819 -114.7886,-0.84921 -104.9262,-0.8838 -96.5012,-0.91587 -88.11,-0.9506 -81.654,-0.98714 -76.8641,-1.0186 -73.6062,-1.0438 -71.2966,-1.0743 -70.2889,-1.1318 -70.487,-1.1421 -71.0297,-1.1669 -71.4723,-1.172 -73.6075,-1.1438 -76.8649,-1.1186 -81.6546,-1.0871 -88.1106,-1.0506 -96.5016,-1.0159 -104.9266,-0.9838 -114.789,-0.94921 -123.8584,-0.91819 -131.5396,-0.88958 -137.1981,-0.8618 -141.9166,-0.83401 -144.4258,-0.8061 -147.6021,-0.77362 -151.3176,-0.73973 -155.0839,-0.71216 -163.3938,-0.67745 -171.4064,-0.6523 -178.1903,-0.63431 -188.6119,-0.61261 -200.1557,-0.59018 -209.6444,-0.57143 -222.1344,-0.54658 -236.0914,-0.52012 -246.599,-0.50145 -258.6172,-0.48243 -271.3787,-0.46732 -282.4506,-0.45732 -296.2075,-0.44676 -309.2619,-0.43686 -318.8153,-0.43054 -329.6156,-0.42369 -340.471,-0.41739 -350.2761,-0.41188 -362.07,-0.40587 -376.0786,-0.399 -388.4232,-0.39445 -401.1297,-0.39004 -411.0282,-0.38729 -437.8979,-0.50922 -464.7875,-0.6326 -490.142,-0.75689 -516.5434,-0.88256 -544.344,-1.009 -555.0087,-1.0125 -565.8182,-1.0168 -576.6669,-1.0215 -587.9645,-1.0273 -597.8865,-1.0328 -607.2791,-1.0387 -616.0915,-1.0449 -624.0925,-1.0509 -631.6206,-1.0576 -640.5482,-1.0661 -649.1802,-1.075 -658.5544,-1.0858 -667.6914,-1.0969 -674.3005,-1.1058 -681.222,-1.1177 -688.9367,-1.1338 -694.0366,-1.1471 -699.0367,-1.1634 -699.9985,-1.1676 NaN,NaN -707.5305,-1.2188 -707.2019,-1.2042 -707.0148,-1.2031 NaN,NaN -71.2986,-1.1742 -70.0731,-1.1499 -70.0652,-1.1446 -69.9731,-1.1499 -70.0205,-1.218 -70.4824,-1.242 -71.0285,-1.2669 -72.8467,-1.2877 -75.4363,-1.3121 -78.6228,-1.3364 -82.9511,-1.3586 -87.8194,-1.3819 -92.297,-1.3986 -97.7333,-1.4154 -103.9718,-1.4307 -109.9257,-1.4437 -117.9691,-1.4579 -125.8149,-1.4711 -132.1671,-1.4801 -139.9643,-1.4901 -148.1476,-1.4987 -155.6299,-1.5059 -165.3154,-1.5138 -175.8869,-1.5224 -186.9392,-1.5291 -196.809,-1.5351 -207.8147,-1.5404 -217.0816,-1.5447 -225.3596,-1.5482 -234.0664,-1.5516 -243.0462,-1.5548 -252.4236,-1.5579 -262.0063,-1.5607 -274.6093,-1.5644 -297.0612,-1.5695 -307.6554,-1.5714 -319.7299,-1.5737 -330.6889,-1.5752 -342.5791,-1.5769 -365.5819,-1.5795 -388.7187,-1.5814 -400.3904,-1.5821 -411.9754,-1.5828 -423.7873,-1.5833 -435.3425,-1.5837 -447.2552,-1.584 -458.815,-1.5841 -470.792,-1.5842 -482.3916,-1.5841 -494.3983,-1.5839 -506.0751,-1.5836 -518.0772,-1.5832 -541.835,-1.582 -553.7963,-1.5811 -565.6815,-1.5802 -577.8646,-1.5789 -589.6312,-1.5777 -602.1038,-1.576 -613.7044,-1.5745 -626.5509,-1.5723 -637.9298,-1.5704 -662.3479,-1.5651 -676.3018,-1.5614 -687.0172,-1.5584 -697.5752,-1.5551 -707.8084,-1.5515 -717.9785,-1.5475 -727.5865,-1.5431 -739.143,-1.537 -752.1469,-1.5298 -765.8356,-1.52 -779.2275,-1.5103 -789.3932,-1.5017 -801.3986,-1.4892 -814.1951,-1.4713 -824.0684,-1.4537 -835.8362,-1.4279 -848.3441,-1.3927 -857.285,-1.3609 -863.3381,-1.3279 -868.2989,-1.2943 -870.9112,-1.2686 -871.8649,-1.2412 -872.2302,-1.1946 -871.3619,-1.1755 -870.946,-1.1676 -870.9083,-1.1687 -868.2979,-1.1943 -863.3374,-1.2279 -857.2844,-1.2609 -848.3438,-1.2927 -835.8359,-1.3279 -824.0682,-1.3537 -814.195,-1.3713 -801.3985,-1.3892 -789.3931,-1.4017 -779.2274,-1.4103 -765.8356,-1.42 -752.1469,-1.4298 -739.143,-1.437 -727.5865,-1.4431 -717.9784,-1.4475 -707.8083,-1.4515 -697.5752,-1.4551 -687.0171,-1.4584 -676.3017,-1.4614 -662.3478,-1.4651 -637.9297,-1.4704 -626.5509,-1.4723 -613.7044,-1.4745 -602.1038,-1.476 -589.6312,-1.4777 -577.8646,-1.4789 -565.6815,-1.4802 -553.7963,-1.4811 -541.835,-1.482 -518.0772,-1.4832 -506.0751,-1.4836 -494.3983,-1.4839 -482.3916,-1.4841 -470.792,-1.4842 -458.815,-1.4841 -447.2552,-1.484 -435.3425,-1.4837 -423.7873,-1.4833 -411.9754,-1.4828 -400.3904,-1.4821 -388.7187,-1.4814 -365.5819,-1.4795 -342.5791,-1.4769 -330.6889,-1.4752 -319.7299,-1.4737 -307.6554,-1.4714 -297.0612,-1.4695 -274.6093,-1.4644 -262.0063,-1.4607 -252.4236,-1.4579 -243.0462,-1.4548 -234.0664,-1.4516 -225.3597,-1.4482 -217.0816,-1.4447 -207.8148,-1.4404 -196.809,-1.4351 -186.9393,-1.4291 -175.887,-1.4224 -165.3154,-1.4138 -155.63,-1.4059 -148.1477,-1.3987 -139.9644,-1.3901 -132.1672,-1.3801 -125.815,-1.3711 -117.9693,-1.3579 -109.9259,-1.3437 -103.972,-1.3307 -97.7335,-1.3154 -92.2973,-1.2986 -87.8198,-1.2819 -82.9515,-1.2586 -78.6233,-1.2364 -75.4371,-1.2121 -72.8476,-1.1878 -71.4723,-1.172 NaN,NaN -70.0257,-1.1182 -70.0652,-1.1446 -70.2889,-1.1318 NaN,NaN -871.8603,-1.1414 -872.3531,-1.1662 -872.3693,-1.1768 -872.4531,-1.1662 -872.4042,-1.0984 -871.3638,-1.0755 -870.0811,-1.0512 -867.9823,-1.0315 -864.7523,-1.0067 -861.0853,-0.97972 -857.1649,-0.95859 -852.6086,-0.93594 -848.2063,-0.91804 -843.7628,-0.90075 -838.005,-0.88122 -832.8276,-0.86398 -827.9825,-0.84914 -822.5849,-0.83053 -816.4315,-0.81032 -812.0172,-0.79433 -807.7698,-0.77695 -803.3457,-0.75389 -800.0772,-0.735 -798.3824,-0.71353 -796.613,-0.68932 -794.1174,-0.66208 -791.0114,-0.63515 -787.7239,-0.60892 -784.3396,-0.59066 -779.087,-0.57099 -772.1576,-0.55202 -766.5371,-0.5396 -761.2859,-0.52832 -753.952,-0.51251 -746.5387,-0.49814 -741.0491,-0.48756 -734.1539,-0.47498 -726.0587,-0.45916 -719.2555,-0.44624 -713.2065,-0.43382 -706.0598,-0.41926 -699.3371,-0.40546 -693.3744,-0.39449 -685.8159,-0.38302 -677.7278,-0.37296 -669.8373,-0.36491 -659.9238,-0.35613 -649.7831,-0.34732 -638.9359,-0.33977 -629.6051,-0.33353 -621.8574,-0.32877 -613.4275,-0.3237 -604.7186,-0.31862 -596.6325,-0.3139 -587.1138,-0.30862 -575.3995,-0.30251 -564.9799,-0.29794 -553.7515,-0.2934 -534.111,-0.28382 -516.2532,-0.27503 -500.6848,-0.26714 -476.1976,-0.25343 -476.1975,-0.35343 -500.6848,-0.36714 -516.2532,-0.37503 -534.111,-0.38382 -553.7514,-0.3934 -564.9798,-0.39794 -575.3995,-0.40251 -587.1137,-0.40862 -596.6325,-0.4139 -604.7185,-0.41862 -613.4275,-0.4237 -621.8573,-0.42877 -629.6051,-0.43353 -638.9359,-0.43977 -649.7831,-0.44732 -659.9237,-0.45613 -669.8372,-0.46491 -677.7277,-0.47296 -685.8158,-0.48302 -693.3743,-0.49449 -699.3369,-0.50546 -706.0596,-0.51926 -713.2063,-0.53382 -719.2553,-0.54624 -726.0585,-0.55916 -734.1537,-0.57498 -741.049,-0.58756 -746.5385,-0.59814 -753.9518,-0.61251 -761.2857,-0.62832 -766.5369,-0.6396 -772.1574,-0.65201 -779.0867,-0.67099 -784.3393,-0.69065 -787.7234,-0.70892 -791.0106,-0.73514 -794.1165,-0.76208 -796.6119,-0.78931 -798.381,-0.81352 -800.076,-0.83499 -803.3451,-0.85389 -807.7693,-0.87695 -812.0167,-0.89433 -816.4312,-0.91032 -822.5846,-0.93053 -827.9821,-0.94914 -832.8273,-0.96398 -838.0047,-0.98122 -843.7625,-1.0007 -848.2059,-1.018 -852.6082,-1.0359 -857.1644,-1.0586 -861.0847,-1.0797 -864.7516,-1.1067 -867.9816,-1.1315 -870.0802,-1.1511 -870.946,-1.1676 NaN,NaN -872.402,-1.1984 -872.3693,-1.1768 -872.2302,-1.1946 NaN,NaN -707.0148,-1.2031 -706.2969,-1.1811 -705.984,-1.1968 NaN,NaN -236.5482,-1.1423 -237.5066,-1.1574 -237.7463,-1.151 " stroke="none" fill="red" stroke-width="0" shape-rendering="crispEdges" />
<polygon points="479.2086,1.3038 479.2086,1.3915 489.118,1.4043 548.017,1.4071 554.7215,1.4051 564.1463,1.4021 576.4391,1.3978 589.1965,1.393 602.7115,1.3867 614.8565,1.3808 626.123,1.3745 637.3921,1.3665 649.2208,1.356 659.2677,1.345 670.6559,1.3312 682.9514,1.3084 692.8862,1.2865 700.3469,1.2667 705.0595,1.2432 705.9839,1.1968 704.1885,1.1858 699.9982,1.1676 692.886,1.1865 682.9512,1.2084 670.6557,1.2312 659.2676,1.245 649.2207,1.256 637.392,1.2665 626.1229,1.2745 614.8564,1.2808 602.7114,1.2867 589.1964,1.293 576.4391,1.2978 564.1462,1.3021 554.7214,1.3051 548.0169,1.3071 NaN,NaN 700.3464,1.1667 705.0586,1.1432 706.2967,1.1811 707.5348,1.1189 707.2023,1.1042 704.189,1.0858 699.0369,1.0634 694.0367,1.0471 688.9366,1.0338 681.222,1.0177 674.3004,1.0058 667.6914,0.99687 658.5544,0.98583 649.1803,0.97495 640.5484,0.96611 631.6208,0.95756 624.0927,0.95087 616.0918,0.94487 607.2794,0.93868 597.8866,0.93284 587.9647,0.92735 576.667,0.92147 565.8183,0.91679 555.0088,0.91253 543.3795,0.90881 532.911,0.90589 520.6467,0.90322 510.3719,0.90143 497.6195,0.89985 487.3881,0.89906 474.2947,0.89861 463.9434,0.89877 450.6562,0.89947 439.9937,0.90066 426.6632,0.90259 415.4498,0.90502 402.2391,0.90827 390.1643,0.91234 377.2648,0.917 363.9214,0.92332 351.5728,0.92942 339.9628,0.93621 328.4757,0.94388 317.6187,0.95224 307.4002,0.96157 293.923,0.97573 281.971,0.98965 268.1746,1.0124 255.4696,1.0385 245.5504,1.0687 239.8627,1.0946 237.7461,1.151 239.1568,1.1613 243.6006,1.1758 243.8382,1.1765 245.5509,1.1687 255.4699,1.1385 268.1748,1.1124 281.9712,1.0896 293.9231,1.0757 307.4003,1.0616 317.6188,1.0522 328.4758,1.0439 339.9629,1.0362 351.5729,1.0294 363.9215,1.0233 377.2649,1.017 390.1643,1.0123 402.2392,1.0083 415.4498,1.005 426.6632,1.0026 439.9937,1.0007 450.6562,0.99947 463.9434,0.99877 474.2947,0.99861 487.3881,0.99906 497.6195,0.99985 510.3719,1.0014 520.6467,1.0032 532.9109,1.0059 543.3795,1.0088 555.0088,1.0125 565.8183,1.0168 576.667,1.0215 587.9646,1.0273 597.8866,1.0328 607.2793,1.0387 616.0917,1.0449 624.0926,1.0509 631.6207,1.0576 640.5483,1.0661 649.1802,1.075 658.5542,1.0858 667.6913,1.0969 674.3003,1.1058 681.2218,1.1177 688.9364,1.1338 694.0364,1.1471 699.0365,1.1634 699.9982,1.1676 NaN,NaN 707.5304,1.2188 707.2017,1.2042 707.0147,1.2031 NaN,NaN 239.8633,1.1946 237.5065,1.1574 235.1497,1.2203 236.3826,1.2411 239.1565,1.2613 243.6003,1.2758 248.628,1.2906 255.6287,1.3074 263.4803,1.3209 270.9419,1.3313 279.3318,1.3418 288.3565,1.3522 295.4931,1.3596 303.6186,1.3662 312.233,1.3724 321.4002,1.3778 331.225,1.3831 342.6811,1.3889 353.4051,1.3934 364.3566,1.3978 375.8367,1.4016 386.399,1.4048 398.5048,1.4077 408.7909,1.41 417.8066,1.4118 444.0134,1.4466 471.1503,1.481 479.0824,1.4913 482.0401,1.4917 482.0401,1.4951 497.0828,1.5146 524.4959,1.548 554.1892,1.581 565.6814,1.5802 577.8646,1.5789 589.6312,1.5777 602.1038,1.576 613.7044,1.5745 626.5509,1.5723 637.9298,1.5704 662.3479,1.5651 676.3017,1.5614 687.0171,1.5584 697.5756,1.5551 707.8087,1.5515 717.9787,1.5475 727.5868,1.5431 739.1432,1.537 752.1467,1.5298 765.8353,1.52 779.2272,1.5103 789.3931,1.5017 801.3987,1.4892 814.1952,1.4713 824.0686,1.4537 835.8363,1.4279 848.3441,1.3927 857.285,1.3609 863.3381,1.3279 868.2989,1.2943 870.9113,1.2686 871.865,1.2412 872.2302,1.1946 871.3619,1.1755 870.9461,1.1676 870.9084,1.1687 868.2979,1.1943 863.3374,1.2279 857.2844,1.2609 848.3438,1.2927 835.836,1.3279 824.0684,1.3537 814.195,1.3713 801.3985,1.3892 789.393,1.4017 779.2271,1.4103 765.8352,1.42 752.1466,1.4298 739.1431,1.437 727.5868,1.4431 717.9787,1.4475 707.8087,1.4515 697.5755,1.4551 687.017,1.4584 676.3017,1.4614 662.3478,1.4651 637.9297,1.4704 626.5509,1.4723 613.7044,1.4745 602.1038,1.476 589.6311,1.4777 577.8646,1.4789 565.6814,1.4802 554.1892,1.481 524.496,1.448 497.0829,1.4146 489.118,1.4043 479.2086,1.4038 479.2086,1.3915 471.1504,1.381 444.0136,1.3466 417.8067,1.3118 408.7909,1.31 398.5049,1.3077 386.399,1.3048 375.8367,1.3016 364.3566,1.2978 353.4052,1.2934 342.6811,1.2889 331.225,1.2831 321.4003,1.2778 312.233,1.2724 303.6187,1.2662 295.4932,1.2596 288.3566,1.2522 279.3319,1.2418 270.942,1.2313 263.4805,1.2209 255.6288,1.2074 248.6283,1.1906 243.8382,1.1765 NaN,NaN 235.1514,1.1203 236.3834,1.1411 236.548,1.1423 NaN,NaN 871.8603,1.1414 872.3531,1.1662 872.3693,1.1769 872.4531,1.1662 872.4042,1.0984 871.3637,1.0755 870.081,1.0512 867.9822,1.0315 864.7521,1.0067 861.085,0.97973 857.1647,0.95859 852.6085,0.93594 848.2061,0.91804 843.7627,0.90075 838.005,0.88122 832.8275,0.86398 827.9823,0.84914 822.5847,0.83053 816.4313,0.81032 812.0169,0.79433 807.7696,0.77696 803.3455,0.75389 800.077,0.735 798.3822,0.71353 796.6128,0.68932 794.1172,0.66208 791.0111,0.63515 787.7237,0.60892 784.3394,0.59066 779.0868,0.57099 772.1575,0.55202 766.537,0.5396 761.2859,0.52832 753.952,0.51251 746.5387,0.49814 741.0491,0.48756 734.1537,0.47498 726.0584,0.45916 719.2552,0.44624 713.206,0.43382 706.0591,0.41926 699.3364,0.40546 693.3738,0.3945 685.8152,0.38302 677.7272,0.37296 669.8371,0.36491 659.9236,0.35614 649.783,0.34732 638.9363,0.33977 629.6057,0.33353 621.858,0.32877 613.4282,0.3237 604.7193,0.31862 596.6329,0.31389 587.114,0.30862 575.4,0.3025 564.9802,0.29794 553.752,0.2934 542.5445,0.28986 531.641,0.28681 519.7931,0.28425 509.0897,0.28235 496.7559,0.28081 486.0771,0.2799 473.4186,0.27959 462.5385,0.27994 449.68,0.28084 438.4625,0.28235 425.5793,0.28432 413.8111,0.28692 401.1293,0.29004 388.4223,0.29445 376.0778,0.29901 362.0687,0.30587 350.275,0.31188 340.4717,0.3174 329.6168,0.3237 318.8158,0.33054 309.2631,0.33686 296.2082,0.34677 282.4495,0.35733 271.3779,0.36732 258.6169,0.38243 246.5988,0.40145 236.0917,0.42012 222.1359,0.44658 209.6454,0.47143 200.1562,0.49017 188.6124,0.5126 178.1903,0.5343 171.4041,0.5523 163.3908,0.57745 155.0804,0.61217 151.3134,0.63974 147.5983,0.67362 144.4224,0.7061 141.9129,0.73402 137.1947,0.7618 131.5368,0.78958 123.8553,0.81819 114.7864,0.84921 104.9254,0.88379 96.5008,0.91587 88.1096,0.9506 81.6539,0.98714 76.8642,1.0186 73.6066,1.0438 71.2973,1.0743 70.29,1.1318 70.4881,1.1421 71.0311,1.1669 71.4737,1.1719 73.6079,1.1438 76.8649,1.1186 81.6545,1.0871 88.1101,1.0506 96.5012,1.0159 104.9257,0.98379 114.7868,0.94921 123.8557,0.91819 131.5372,0.88958 137.1952,0.8618 141.9135,0.83401 144.4235,0.8061 147.5993,0.77362 151.3144,0.73973 155.0811,0.71216 163.3912,0.67745 171.4044,0.6523 178.1906,0.6343 188.6126,0.6126 200.1564,0.59017 209.6456,0.57143 222.1361,0.54658 236.0918,0.52012 246.5989,0.50145 258.6171,0.48243 271.3781,0.46732 282.4496,0.45733 296.2083,0.44677 309.2631,0.43686 318.8159,0.43054 329.6168,0.4237 340.4718,0.4174 350.275,0.41188 362.0687,0.40587 376.0779,0.39901 388.4223,0.39445 401.1293,0.39004 413.8111,0.38692 425.5793,0.38432 438.4625,0.38235 449.68,0.38084 462.5385,0.37994 473.4186,0.37959 486.0771,0.3799 496.7559,0.38081 509.0896,0.38235 519.7931,0.38425 531.641,0.38681 542.5445,0.38986 553.752,0.3934 564.9802,0.39794 575.4,0.4025 587.114,0.40862 596.6329,0.41389 604.7193,0.41862 613.4282,0.4237 621.8579,0.42877 629.6056,0.43353 638.9363,0.43977 649.7829,0.44732 659.9235,0.45614 669.837,0.46491 677.7271,0.47296 685.8151,0.48302 693.3736,0.4945 699.3362,0.50546 706.0589,0.51926 713.2058,0.53382 719.255,0.54624 726.0582,0.55916 734.1535,0.57498 741.0489,0.58756 746.5385,0.59814 753.9518,0.61251 761.2857,0.62832 766.5368,0.6396 772.1573,0.65202 779.0865,0.67099 784.3391,0.69065 787.7232,0.70892 791.0103,0.73514 794.1163,0.76208 796.6117,0.78931 798.3808,0.81352 800.0757,0.83499 803.3449,0.85389 807.7691,0.87695 812.0165,0.89433 816.431,0.91032 822.5844,0.93053 827.982,0.94914 832.8272,0.96398 838.0046,0.98122 843.7624,1.0007 848.2057,1.018 852.6081,1.0359 857.1642,1.0586 861.0845,1.0797 864.7514,1.1067 867.9814,1.1315 870.08,1.1511 870.9461,1.1676 NaN,NaN 872.402,1.1984 872.3693,1.1769 872.2302,1.1946 NaN,NaN 71.2993,1.1742 70.0741,1.1499 70.0662,1.1446 69.9741,1.1499 70.0215,1.218 70.4836,1.242 71.03,1.2669 72.8482,1.2877 75.4381,1.3121 78.6249,1.3364 82.9528,1.3586 87.8209,1.3819 92.2987,1.3985 97.7346,1.4154 103.9728,1.4307 109.9269,1.4437 117.9703,1.4579 125.8156,1.4711 132.1676,1.4801 139.9649,1.4901 148.148,1.4987 155.6301,1.5059 165.3154,1.5138 175.8869,1.5224 186.9392,1.5291 196.8089,1.5351 207.8145,1.5404 217.0813,1.5447 225.3593,1.5482 234.0661,1.5516 243.0459,1.5548 252.4236,1.5579 262.0063,1.5607 274.6092,1.5644 297.0611,1.5695 307.6554,1.5714 319.7298,1.5737 330.6888,1.5752 342.5789,1.5769 365.5817,1.5795 388.7184,1.5814 400.3902,1.5821 440.0846,1.5864 456.382,1.5883 482.0401,1.5917 482.0401,1.4951 479.0824,1.4913 456.382,1.4883 440.0846,1.4864 400.3902,1.4821 388.7184,1.4814 365.5817,1.4795 342.5789,1.4769 330.6888,1.4752 319.7298,1.4737 307.6554,1.4714 297.0611,1.4695 274.6092,1.4644 262.0063,1.4607 252.4236,1.4579 243.046,1.4548 234.0661,1.4516 225.3594,1.4482 217.0813,1.4447 207.8145,1.4404 196.809,1.4351 186.9393,1.4291 175.887,1.4224 165.3155,1.4138 155.6301,1.4059 148.1481,1.3987 139.965,1.3901 132.1678,1.3801 125.8158,1.3711 117.9705,1.3579 109.927,1.3437 103.973,1.3307 97.7349,1.3154 92.299,1.2985 87.8213,1.2819 82.9533,1.2586 78.6254,1.2364 75.4389,1.2121 72.8491,1.1877 71.4737,1.1719 NaN,NaN 70.0267,1.1182 70.0662,1.1446 70.29,1.1318 NaN,NaN 236.548,1.1423 237.5065,1.1574 237.7461,1.151 NaN,NaN 705.9839,1.1968 707.0147,1.2031 706.2967,1.1811 " stroke="none" fill="red" stroke-width="0" shape-rendering="crispEdges" />
<line x1="918.9159" y1="2.5" x2="918.9159" y2="-2.5" stroke="red" stroke-width="0.1"/>
<line x1="918.9159" y1="-2.5" x2="-942.4778" y2="-2.5" stroke="red" stroke-width="0.1"/>
<line x1="-942.4778" y1="-2.5" x2="-942.4778" y2="2.5" stroke="red" stroke-width="0.1"/>
<line x1="-942.4778" y1="2.5" x2="918.9159" y2="2.5" stroke="red" stroke-width="0.1"/>
"/>
</svg>