<!DOCTYPE svg PUBLIC "-//W3C//DTD SVG 1.1//EN" "http://www.w3.org/Graphics/SVG/1.1/DTD/svg11.dtd">
<svg xmlns="http://www.w3.org/2000/svg" version="1.200000" width="-1861.3936mm" height="-5mm" xmlns:xlink="http://www.w3.org/1999/xlink">
<polygon points="445.437,-1.7563 445.4368,-1.8563 377.6381,-1.6928 338.7635,-1.6935 315.2837,-1.6938 291.7861,-1.6941 280.9373,-1.6942 268.2644,-1.6943 257.3934,-1.6944 244.7147,-1.6944 233.8298,-1.6944 210.2467,-1.6943 186.6458,-1.694 163.0307,-1.6937 102.9385,-1.6926 68.5426,-1.6921 44.9439,-1.6918 32.0618,-1.6918 21.3638,-1.6917 8.4881,-1.6917 -2.1958,-1.6917 -25.7355,-1.6918 -49.2574,-1.6921 -72.7656,-1.6924 -132.476,-1.6935 -155.9549,-1.6938 -179.4518,-1.6941 -190.3007,-1.6942 -202.9727,-1.6943 -213.8441,-1.6944 -226.5218,-1.6944 -237.4072,-1.6944 -260.9901,-1.6943 -284.5909,-1.694 -308.2059,-1.6937 -368.2967,-1.6927 -391.9428,-1.6923 -415.5706,-1.692 -426.2926,-1.6919 -439.1735,-1.6918 -449.8727,-1.6917 -462.7475,-1.6917 -473.4326,-1.6917 -496.9725,-1.6918 -520.4947,-1.6921 -544.0033,-1.6924 -603.7147,-1.6935 -627.1942,-1.6938 -650.6915,-1.6941 -661.5403,-1.6942 -674.2129,-1.6943 -685.0839,-1.6944 -697.7623,-1.6944 -708.6473,-1.6944 -732.2304,-1.6943 -755.8313,-1.694 -779.4463,-1.6937 -839.5383,-1.6926 -873.9346,-1.6921 -897.5334,-1.6918 -910.4152,-1.6918 -921.1135,-1.6917 -942.4778,-1.6916 -942.4778,-1.5916 -910.4152,-1.5918 -897.5334,-1.5918 -873.9346,-1.5921 -850.3209,-1.5925 -779.4463,-1.5937 -755.8313,-1.594 -732.2304,-1.5943 -708.6473,-1.5944 -697.7623,-1.5944 -685.0839,-1.5944 -674.2129,-1.5943 -661.5403,-1.5942 -650.6915,-1.5941 -638.0146,-1.594 -614.5033,-1.5936 -544.0033,-1.5924 -520.4947,-1.5921 -496.9725,-1.5918 -473.4326,-1.5917 -462.7475,-1.5917 -449.8727,-1.5917 -439.1735,-1.5918 -426.2926,-1.5919 -415.5706,-1.592 -402.6938,-1.5921 -379.0801,-1.5925 -308.2058,-1.5937 -284.5909,-1.594 -260.9901,-1.5943 -237.4072,-1.5944 -226.5218,-1.5944 -213.8441,-1.5944 -202.9727,-1.5943 -190.3007,-1.5942 -179.4518,-1.5941 -166.7753,-1.594 -143.2643,-1.5936 -72.7656,-1.5924 -49.2574,-1.5921 -25.7355,-1.5918 -2.1958,-1.5917 8.4881,-1.5917 21.3638,-1.5917 32.0618,-1.5918 44.9439,-1.5918 68.5426,-1.5921 92.1563,-1.5925 163.0308,-1.5937 186.6458,-1.594 210.2467,-1.5943 233.8298,-1.5944 244.7147,-1.5944 257.3934,-1.5944 268.2644,-1.5943 280.9373,-1.5942 291.7861,-1.5941 304.4632,-1.594 327.9747,-1.5936 377.6381,-1.5928 " stroke="none" fill="blue" stroke-width="0" shape-rendering="crispEdges" />
<polygon points="942.4778,-1.5916 942.4778,-1.6916 910.7687,-1.6918 893.2208,-1.6921 880.4151,-1.6922 869.7126,-1.6924 846.2129,-1.6928 833.4717,-1.693 810.003,-1.6935 786.5243,-1.6938 775.7035,-1.694 763.0276,-1.6941 752.1782,-1.6943 739.5068,-1.6943 728.6349,-1.6944 715.9579,-1.6944 705.0718,-1.6944 692.3795,-1.6944 681.4889,-1.6943 668.7731,-1.6942 657.8882,-1.6941 645.1428,-1.6939 634.2732,-1.6937 610.6491,-1.6933 574.1825,-1.6927 563.3985,-1.6925 550.5361,-1.6923 539.7846,-1.6921 526.908,-1.692 516.2433,-1.6919 506.876,-1.6574 503.7941,-1.5855 507.8995,-1.5611 516.2437,-1.5919 526.908,-1.592 539.7846,-1.5921 550.5361,-1.5923 563.3985,-1.5925 574.1825,-1.5927 610.6491,-1.5933 634.2732,-1.5937 645.1428,-1.5939 657.8882,-1.5941 668.7731,-1.5942 681.4889,-1.5943 692.3795,-1.5944 705.0718,-1.5944 715.9579,-1.5944 728.6349,-1.5944 739.5068,-1.5943 752.1782,-1.5943 763.0276,-1.5941 775.7035,-1.594 786.5243,-1.5938 810.003,-1.5935 846.2129,-1.5928 869.7126,-1.5924 880.415,-1.5922 893.2208,-1.5921 910.7687,-1.5918 NaN,NaN 506.877,-1.5574 503.3545,-1.5729 503.3475,-1.5751 503.2545,-1.5729 503.3042,-1.4884 509.1304,-1.4538 518.4975,-1.4192 530.1774,-1.4189 541.8994,-1.4185 553.5607,-1.4181 565.3236,-1.4176 576.9004,-1.4171 588.7248,-1.4165 600.2168,-1.416 612.1175,-1.4154 635.5175,-1.4143 646.8707,-1.4139 658.9406,-1.4134 670.254,-1.4131 682.401,-1.4128 693.7009,-1.4126 705.9096,-1.4125 717.2243,-1.4125 729.473,-1.4125 740.8297,-1.4127 753.0917,-1.4129 764.5133,-1.4132 776.7605,-1.4136 788.263,-1.4141 800.4682,-1.4146 812.0591,-1.4151 824.1994,-1.4157 835.877,-1.4163 847.9365,-1.4169 871.6613,-1.4179 883.4736,-1.4184 895.358,-1.4188 907.2059,-1.4191 916.7248,-1.4194 923.8602,-1.4195 942.4778,-1.4198 942.4778,-1.5198 923.8602,-1.5195 916.7248,-1.5194 907.2059,-1.5191 895.358,-1.5188 883.4736,-1.5184 871.6613,-1.5179 847.9365,-1.5169 835.877,-1.5163 824.1994,-1.5157 812.059,-1.5151 800.4682,-1.5146 788.263,-1.5141 776.7605,-1.5136 764.5133,-1.5132 753.0917,-1.5129 740.8297,-1.5127 729.473,-1.5125 717.2243,-1.5125 705.9096,-1.5125 693.7009,-1.5126 682.401,-1.5128 670.254,-1.5131 658.9406,-1.5134 646.8707,-1.5139 635.5175,-1.5143 612.1175,-1.5154 600.2168,-1.516 588.7248,-1.5165 576.9004,-1.5171 565.3236,-1.5176 553.5607,-1.5181 541.8994,-1.5185 530.1774,-1.5189 518.4975,-1.5192 509.1307,-1.5538 507.8995,-1.5611 NaN,NaN 503.3048,-1.5884 503.3475,-1.5751 503.7941,-1.5855 " stroke="none" fill="blue" stroke-width="0" shape-rendering="crispEdges" />
<polygon points="-942.4778,-1.5198 -942.4778,-1.4198 -923.338,-1.4197 -906.9786,-1.4195 -895.2743,-1.4192 -883.5354,-1.4189 -871.8146,-1.4185 -860.1519,-1.4181 -836.8121,-1.4171 -801.5964,-1.4154 -778.1964,-1.4144 -754.7735,-1.4134 -743.459,-1.4131 -731.3133,-1.4128 -720.0124,-1.4126 -707.8049,-1.4125 -696.4894,-1.4125 -684.2419,-1.4125 -672.8845,-1.4127 -660.6235,-1.4129 -649.2014,-1.4132 -636.955,-1.4137 -625.4521,-1.4141 -601.6566,-1.4151 -565.7802,-1.4169 -542.0558,-1.4179 -518.3596,-1.4188 -506.5125,-1.4191 -494.704,-1.4194 -482.8472,-1.4196 -471.097,-1.4197 -459.2567,-1.4197 -447.5419,-1.4196 -435.7425,-1.4195 -424.0373,-1.4192 -412.2993,-1.4189 -400.5776,-1.4185 -388.916,-1.4181 -365.5762,-1.4171 -330.3595,-1.4154 -306.9594,-1.4143 -283.5364,-1.4134 -272.2228,-1.4131 -260.0762,-1.4128 -248.7761,-1.4126 -236.5677,-1.4125 -225.2528,-1.4125 -213.0045,-1.4125 -201.6478,-1.4127 -189.386,-1.4129 -177.9644,-1.4132 -165.7173,-1.4136 -154.2149,-1.4141 -130.4188,-1.4151 -94.5414,-1.4169 -70.8166,-1.4179 -47.1198,-1.4188 -35.2718,-1.4191 -23.4636,-1.4194 -11.6058,-1.4196 0.14386,-1.4197 11.9854,-1.4197 23.6994,-1.4196 35.5001,-1.4195 47.2042,-1.4192 58.9436,-1.4189 70.6641,-1.4186 82.3273,-1.4181 105.6673,-1.4171 140.8827,-1.4154 164.2828,-1.4144 187.7058,-1.4135 199.021,-1.4131 211.1659,-1.4128 222.4674,-1.4126 234.6742,-1.4125 245.9903,-1.4125 258.237,-1.4125 269.5947,-1.4127 281.8552,-1.4129 293.2773,-1.4132 305.5232,-1.4137 317.0259,-1.4141 340.8209,-1.4151 375.7438,-1.4168 404.0759,-1.3703 433.6178,-1.3237 461.8922,-1.2769 491.3061,-1.2299 520.5336,-1.1828 533.2341,-1.1825 543.9378,-1.1822 556.6259,-1.1817 579.9839,-1.1808 614.2006,-1.1794 637.6241,-1.1784 661.0715,-1.1777 673.467,-1.1774 684.5546,-1.1771 696.9446,-1.177 708.0819,-1.1769 720.4913,-1.1769 731.6578,-1.177 744.1096,-1.1771 755.2815,-1.1773 767.7946,-1.1777 778.9472,-1.178 791.534,-1.1785 815.3093,-1.1794 850.0734,-1.1809 873.7742,-1.1818 897.447,-1.1825 910.3237,-1.1828 927.9853,-1.1832 942.4778,-1.1834 942.4778,-1.2834 927.9853,-1.2832 919.821,-1.283 897.447,-1.2825 873.7742,-1.2818 850.0734,-1.2809 815.3093,-1.2794 791.534,-1.2785 778.9472,-1.278 767.7946,-1.2777 755.2815,-1.2773 744.1096,-1.2771 731.6578,-1.277 720.4913,-1.2769 708.0819,-1.2769 696.9446,-1.277 684.5546,-1.2771 673.467,-1.2774 661.0715,-1.2777 637.6241,-1.2784 614.2006,-1.2794 579.9839,-1.2808 556.6259,-1.2817 543.9378,-1.2822 533.2341,-1.2825 520.5336,-1.2828 491.3063,-1.3299 461.8923,-1.3769 433.618,-1.4237 404.0761,-1.4703 375.744,-1.5168 340.8209,-1.5151 317.0259,-1.5141 305.5232,-1.5137 293.2773,-1.5132 281.8551,-1.5129 269.5947,-1.5127 258.237,-1.5125 245.9903,-1.5125 234.6742,-1.5125 222.4674,-1.5126 211.1659,-1.5128 199.021,-1.5131 187.7058,-1.5135 164.2828,-1.5144 140.8827,-1.5154 105.6673,-1.5171 82.3273,-1.5181 70.6641,-1.5186 58.9436,-1.5189 47.2042,-1.5192 35.5001,-1.5195 23.6994,-1.5196 11.9854,-1.5197 0.14386,-1.5197 -11.6058,-1.5196 -23.4636,-1.5194 -35.2718,-1.5191 -47.1198,-1.5188 -70.8166,-1.5179 -94.5414,-1.5169 -130.4188,-1.5151 -154.2149,-1.5141 -165.7173,-1.5136 -177.9644,-1.5132 -189.386,-1.5129 -201.6478,-1.5127 -213.0045,-1.5125 -225.2528,-1.5125 -236.5677,-1.5125 -248.7761,-1.5126 -260.0762,-1.5128 -272.2228,-1.5131 -283.5364,-1.5134 -306.9594,-1.5143 -330.3595,-1.5154 -365.5762,-1.5171 -388.916,-1.5181 -400.5776,-1.5185 -412.2993,-1.5189 -424.0373,-1.5192 -435.7425,-1.5195 -447.5419,-1.5196 -459.2567,-1.5197 -471.097,-1.5197 -482.8472,-1.5196 -494.704,-1.5194 -506.5125,-1.5191 -518.3596,-1.5188 -542.0558,-1.5179 -565.7802,-1.5169 -601.6566,-1.5151 -625.4522,-1.5141 -636.955,-1.5137 -649.2014,-1.5132 -660.6235,-1.5129 -672.8845,-1.5127 -684.2419,-1.5125 -696.4894,-1.5125 -707.8049,-1.5125 -720.0124,-1.5126 -731.3133,-1.5128 -743.459,-1.5131 -754.7735,-1.5134 -778.1964,-1.5144 -801.5964,-1.5154 -836.8121,-1.5171 -860.1519,-1.5181 -871.8146,-1.5185 -883.5353,-1.5189 -895.2743,-1.5192 -906.9786,-1.5195 -923.338,-1.5197 " stroke="none" fill="blue" stroke-width="0" shape-rendering="crispEdges" />
<polygon points="-942.4778,-1.2834 -942.4778,-1.1834 -919.2565,-1.1832 -913.286,-1.1832 -893.2405,-1.1828 -880.4821,-1.1825 -869.7786,-1.1822 -857.0903,-1.1817 -833.7323,-1.1808 -799.5158,-1.1794 -776.0923,-1.1784 -752.6449,-1.1777 -740.2494,-1.1774 -729.1619,-1.1771 -716.7718,-1.177 -705.6346,-1.1769 -693.2252,-1.1769 -682.0588,-1.177 -669.6069,-1.1771 -658.4351,-1.1773 -645.9219,-1.1777 -634.7694,-1.178 -622.1826,-1.1785 -598.4074,-1.1794 -563.6434,-1.1809 -539.9426,-1.1818 -516.2698,-1.1825 -503.3932,-1.1828 -492.6353,-1.183 -479.7563,-1.1832 -469.0453,-1.1833 -456.1869,-1.1833 -445.5015,-1.1832 -432.6847,-1.183 -422.0017,-1.1828 -409.2434,-1.1825 -398.5398,-1.1822 -385.8516,-1.1817 -362.4936,-1.1808 -328.2771,-1.1794 -304.8537,-1.1784 -281.4063,-1.1777 -269.0109,-1.1774 -257.9233,-1.1771 -245.5334,-1.177 -234.3961,-1.1769 -221.9869,-1.1769 -210.8203,-1.177 -198.3686,-1.1771 -187.1966,-1.1773 -174.6837,-1.1777 -163.531,-1.178 -150.9443,-1.1784 -127.169,-1.1794 -92.4047,-1.1809 -68.7038,-1.1818 -45.0309,-1.1825 -32.1543,-1.1828 -21.3963,-1.183 -8.5172,-1.1832 2.1938,-1.1833 15.0524,-1.1833 25.7377,-1.1832 38.5547,-1.183 49.2375,-1.1828 61.996,-1.1825 72.6994,-1.1822 85.3879,-1.1817 108.746,-1.1808 142.9624,-1.1794 166.3858,-1.1784 189.8332,-1.1777 202.2288,-1.1774 213.3161,-1.1771 225.7063,-1.177 236.8433,-1.1769 249.2528,-1.1769 260.4191,-1.177 272.871,-1.1771 284.0427,-1.1773 296.5558,-1.1777 307.7083,-1.178 320.2951,-1.1785 344.0703,-1.1794 377.8803,-1.1808 406.2123,-1.1444 434.804,-1.1078 463.0784,-1.071 491.4932,-1.0339 520.7214,-0.99664 533.4042,-0.99586 543.9837,-0.99509 556.5585,-0.99406 567.24,-0.99308 579.6379,-0.99189 613.6716,-0.98843 625.7434,-0.98726 636.9074,-0.98622 648.8604,-0.98523 660.1973,-0.98438 672.0785,-0.98367 683.5687,-0.9831 695.4342,-0.98273 707.0432,-0.98252 718.9529,-0.98253 730.6336,-0.9827 742.645,-0.98311 754.3415,-0.98365 766.5023,-0.98441 778.1545,-0.98526 790.4967,-0.98631 802.0472,-0.98738 814.5823,-0.98862 849.9211,-0.99221 862.7924,-0.99342 873.8193,-0.99442 886.8,-0.99543 897.644,-0.99619 910.6809,-0.99689 920.2711,-0.99733 928.5955,-0.99767 942.4778,-0.99803 942.4778,-1.098 928.5955,-1.0977 920.2711,-1.0973 910.6809,-1.0969 897.644,-1.0962 886.8,-1.0954 873.8193,-1.0944 862.7924,-1.0934 849.921,-1.0922 814.5823,-1.0886 802.0472,-1.0874 790.4967,-1.0863 778.1545,-1.0853 766.5023,-1.0844 754.3414,-1.0836 742.645,-1.0831 730.6336,-1.0827 718.9529,-1.0825 707.0432,-1.0825 695.4342,-1.0827 683.5687,-1.0831 672.0785,-1.0837 660.1973,-1.0844 648.8604,-1.0852 636.9074,-1.0862 625.7434,-1.0873 613.6716,-1.0884 579.6379,-1.0919 567.24,-1.0931 556.5585,-1.0941 543.9837,-1.0951 533.4043,-1.0959 520.7215,-1.0966 491.4933,-1.1339 463.0785,-1.171 434.8042,-1.2078 406.2124,-1.2444 377.8805,-1.2808 344.0703,-1.2794 320.2951,-1.2785 307.7083,-1.278 296.5558,-1.2777 284.0427,-1.2773 272.8709,-1.2771 260.4191,-1.277 249.2528,-1.2769 236.8433,-1.2769 225.7063,-1.277 213.3161,-1.2771 202.2288,-1.2774 189.8332,-1.2777 166.3858,-1.2784 142.9624,-1.2794 108.746,-1.2808 85.3879,-1.2817 72.6995,-1.2822 61.996,-1.2825 49.2375,-1.2828 38.5547,-1.283 25.7377,-1.2832 15.0524,-1.2833 2.1938,-1.2833 -8.5172,-1.2832 -21.3963,-1.283 -32.1543,-1.2828 -45.0309,-1.2825 -68.7038,-1.2818 -92.4047,-1.2809 -127.169,-1.2794 -150.9443,-1.2784 -163.531,-1.278 -174.6837,-1.2777 -187.1966,-1.2773 -198.3686,-1.2771 -210.8203,-1.277 -221.9869,-1.2769 -234.3961,-1.2769 -245.5334,-1.277 -257.9233,-1.2771 -269.0109,-1.2774 -281.4063,-1.2777 -304.8537,-1.2784 -328.2771,-1.2794 -362.4936,-1.2808 -385.8516,-1.2817 -398.5398,-1.2822 -409.2434,-1.2825 -422.0017,-1.2828 -432.6847,-1.283 -445.5015,-1.2832 -456.1869,-1.2833 -469.0453,-1.2833 -479.7563,-1.2832 -492.6353,-1.283 -503.3932,-1.2828 -516.2698,-1.2825 -539.9426,-1.2818 -563.6434,-1.2809 -598.4074,-1.2794 -622.1826,-1.2785 -634.7694,-1.278 -645.922,-1.2777 -658.4351,-1.2773 -669.6069,-1.2771 -682.0588,-1.277 -693.2252,-1.2769 -705.6346,-1.2769 -716.7718,-1.277 -729.1619,-1.2771 -740.2494,-1.2774 -752.6449,-1.2777 -776.0923,-1.2784 -799.5158,-1.2794 -833.7323,-1.2808 -857.0903,-1.2817 -869.7786,-1.2822 -880.4821,-1.2825 -893.2405,-1.2828 -903.9234,-1.283 -919.2565,-1.2832 " stroke="none" fill="blue" stroke-width="0" shape-rendering="crispEdges" />
<polygon points="-942.4778,-1.098 -942.4778,-0.99803 -918.6597,-0.99774 -912.8468,-0.99755 -893.0532,-0.99664 -880.313,-0.99586 -869.7334,-0.99509 -857.1588,-0.99406 -846.4771,-0.99308 -834.0794,-0.99189 -800.0455,-0.98843 -787.9739,-0.98726 -776.8097,-0.98622 -764.8569,-0.98523 -753.5198,-0.98438 -741.6387,-0.98367 -730.1484,-0.9831 -718.283,-0.98273 -706.6739,-0.98252 -694.7643,-0.98253 -683.0834,-0.9827 -671.0722,-0.9831 -659.3756,-0.98364 -647.2149,-0.98441 -635.5625,-0.98526 -623.2204,-0.98631 -611.6697,-0.98738 -599.1348,-0.98862 -563.7959,-0.99221 -550.9245,-0.99342 -539.8975,-0.99442 -526.9169,-0.99542 -516.0727,-0.99619 -503.0359,-0.99689 -492.3453,-0.99736 -479.3085,-0.99769 -468.7272,-0.99783 -455.7447,-0.99777 -445.2196,-0.99758 -432.3391,-0.99714 -421.814,-0.99664 -409.0735,-0.99586 -398.4941,-0.99509 -385.9192,-0.99406 -375.2378,-0.99309 -362.8398,-0.99189 -328.8062,-0.98843 -316.7344,-0.98726 -305.5704,-0.98622 -293.6176,-0.98523 -282.2806,-0.98438 -270.3996,-0.98367 -258.9094,-0.9831 -247.0441,-0.98273 -235.435,-0.98252 -223.5255,-0.98253 -211.8446,-0.9827 -199.8335,-0.9831 -188.1369,-0.98364 -175.9763,-0.98441 -164.3238,-0.98526 -151.9819,-0.98631 -140.431,-0.98738 -127.8962,-0.98862 -92.5571,-0.99221 -79.6858,-0.99342 -68.6587,-0.99442 -55.6781,-0.99542 -44.8339,-0.99618 -31.7971,-0.99689 -21.1064,-0.99736 -8.0697,-0.99769 2.5117,-0.99783 15.4941,-0.99777 26.0192,-0.99758 38.8996,-0.99714 49.4248,-0.99664 62.1652,-0.99586 72.7447,-0.99509 85.3194,-0.99406 96.0009,-0.99308 108.3988,-0.99189 142.4324,-0.98843 154.504,-0.98726 165.6682,-0.98622 177.6209,-0.98523 188.958,-0.98438 200.8389,-0.98366 212.3292,-0.9831 224.1944,-0.98273 235.8036,-0.98251 247.713,-0.98253 259.394,-0.9827 271.4051,-0.9831 283.1019,-0.98364 295.2624,-0.98441 306.915,-0.98526 319.257,-0.98631 330.8079,-0.98738 343.3428,-0.98862 377.7326,-0.99212 406.0576,-0.84474 434.9903,-0.69649 463.2646,-0.54799 491.7955,-0.39867 521.0191,-0.24817 533.3484,-0.24546 543.717,-0.24204 555.2902,-0.23781 565.8777,-0.23367 576.9089,-0.22965 588.091,-0.22264 597.8442,-0.21694 607.01,-0.21124 616.0417,-0.20492 623.8601,-0.19993 631.7651,-0.19909 640.8615,-0.19895 648.5739,-0.19942 658.1156,-0.20046 667.5296,-0.20117 673.7617,-0.20108 678.5387,-0.20035 687.7865,-0.20137 693.4533,-0.20317 702.8888,-0.20328 712.3574,-0.20349 723.3002,-0.20349 732.6254,-0.20173 741.372,-0.1997 746.47,-0.19962 755.851,-0.20153 764.4593,-0.20356 773.9836,-0.20424 783.6606,-0.20514 808.8111,-0.21219 822.1821,-0.21814 834.5726,-0.2256 848.4575,-0.23343 861.42,-0.23897 873.583,-0.24394 887.2698,-0.24726 898.4412,-0.25089 912.1312,-0.2537 922.2835,-0.25563 931.261,-0.25674 942.4778,-0.25619 942.4778,-0.35619 931.261,-0.35674 922.2835,-0.35563 912.1312,-0.3537 898.4412,-0.35089 887.2697,-0.34726 873.5829,-0.34394 861.4199,-0.33897 848.4575,-0.33343 834.5725,-0.3256 822.1821,-0.31814 808.8111,-0.31219 783.6606,-0.30514 773.9836,-0.30424 764.4593,-0.30356 755.851,-0.30153 746.47,-0.29962 741.372,-0.2997 732.6255,-0.30173 723.3002,-0.30349 712.3574,-0.30349 702.8888,-0.30328 693.4533,-0.30317 687.7864,-0.30137 678.5387,-0.30035 673.7617,-0.30108 667.5296,-0.30117 658.1156,-0.30046 648.5739,-0.29942 640.8615,-0.29895 631.7651,-0.29909 623.8601,-0.29993 616.0417,-0.30492 607.0101,-0.31124 597.8442,-0.31694 588.0911,-0.32264 576.909,-0.32965 565.8778,-0.33367 555.2902,-0.33781 543.7171,-0.34204 533.3484,-0.34546 521.0192,-0.34817 491.796,-0.49867 463.2651,-0.64799 434.9908,-0.79648 406.0581,-0.94474 377.7332,-1.0921 343.3428,-1.0886 330.8078,-1.0874 319.257,-1.0863 306.915,-1.0853 295.2624,-1.0844 283.1018,-1.0836 271.4051,-1.0831 259.394,-1.0827 247.713,-1.0825 235.8036,-1.0825 224.1944,-1.0827 212.3292,-1.0831 200.8389,-1.0837 188.958,-1.0844 177.6209,-1.0852 165.6682,-1.0862 154.504,-1.0873 142.4324,-1.0884 108.3988,-1.0919 96.001,-1.0931 85.3194,-1.0941 72.7447,-1.0951 62.1652,-1.0959 49.4248,-1.0966 38.8996,-1.0971 26.0192,-1.0976 15.4941,-1.0978 2.5117,-1.0978 -8.0697,-1.0977 -21.1064,-1.0974 -31.7971,-1.0969 -44.8339,-1.0962 -55.6781,-1.0954 -68.6587,-1.0944 -79.6858,-1.0934 -92.5571,-1.0922 -127.8962,-1.0886 -140.431,-1.0874 -151.9819,-1.0863 -164.3238,-1.0853 -175.9763,-1.0844 -188.1369,-1.0836 -199.8335,-1.0831 -211.8446,-1.0827 -223.5255,-1.0825 -235.435,-1.0825 -247.0441,-1.0827 -258.9094,-1.0831 -270.3996,-1.0837 -282.2806,-1.0844 -293.6175,-1.0852 -305.5704,-1.0862 -316.7344,-1.0873 -328.8062,-1.0884 -362.8398,-1.0919 -375.2378,-1.0931 -385.9192,-1.0941 -398.4941,-1.0951 -409.0735,-1.0959 -421.8139,-1.0966 -432.3391,-1.0971 -445.2196,-1.0976 -455.7447,-1.0978 -468.7272,-1.0978 -479.3085,-1.0977 -492.3453,-1.0974 -503.0359,-1.0969 -516.0728,-1.0962 -526.9169,-1.0954 -539.8975,-1.0944 -550.9245,-1.0934 -563.7959,-1.0922 -599.1348,-1.0886 -611.6697,-1.0874 -623.2204,-1.0863 -635.5625,-1.0853 -647.2149,-1.0844 -659.3756,-1.0836 -671.0722,-1.0831 -683.0834,-1.0827 -694.7643,-1.0825 -706.6739,-1.0825 -718.283,-1.0827 -730.1484,-1.0831 -741.6387,-1.0837 -753.5198,-1.0844 -764.8569,-1.0852 -776.8097,-1.0862 -787.9739,-1.0873 -800.0455,-1.0884 -834.0794,-1.0919 -846.4771,-1.0931 -857.1588,-1.0941 -869.7334,-1.0951 -880.313,-1.0959 -893.0532,-1.0966 -912.8468,-1.0976 -918.6597,-1.0977 " stroke="none" fill="blue" stroke-width="0" shape-rendering="crispEdges" />
<polygon points="-942.4778,-0.35619 -942.4778,-0.25619 -917.4266,-0.252 -911.9548,-0.25144 -902.9339,-0.25037 -892.7497,-0.24817 -880.3707,-0.24545 -870.0012,-0.24203 -858.4289,-0.2378 -847.8407,-0.23366 -836.8103,-0.22964 -825.6273,-0.22263 -815.8751,-0.21693 -806.7146,-0.21123 -797.6839,-0.20491 -789.8648,-0.19992 -781.9534,-0.19909 -772.856,-0.19894 -765.1381,-0.19941 -755.6104,-0.20046 -746.197,-0.20116 -739.9712,-0.20106 -735.1907,-0.20034 -725.9423,-0.20136 -720.261,-0.20316 -710.8249,-0.20327 -701.3567,-0.20348 -690.4301,-0.20348 -681.1053,-0.20173 -672.3582,-0.1997 -667.2586,-0.19962 -657.8772,-0.20153 -649.2565,-0.20356 -639.7319,-0.20424 -630.0554,-0.20514 -616.3055,-0.20898 -604.907,-0.21219 -591.5356,-0.21814 -579.1455,-0.22559 -565.26,-0.23342 -552.2977,-0.23897 -540.1343,-0.24394 -526.4472,-0.24726 -515.2754,-0.25089 -501.5852,-0.2537 -490.9855,-0.25556 -477.6074,-0.25584 -467.7325,-0.25509 -454.5396,-0.25359 -431.6935,-0.25038 -421.5096,-0.24818 -409.1299,-0.24546 -398.7609,-0.24204 -387.1875,-0.23781 -376.6,-0.23367 -365.5686,-0.22965 -354.3864,-0.22265 -344.6331,-0.21694 -335.4667,-0.21124 -326.435,-0.20492 -318.6167,-0.19993 -310.7106,-0.19909 -301.6144,-0.19895 -293.903,-0.19942 -284.3703,-0.20046 -274.9567,-0.20117 -268.7257,-0.20107 -263.9465,-0.20034 -254.6985,-0.20136 -249.0232,-0.20316 -239.5873,-0.20327 -230.1198,-0.20348 -219.2198,-0.20348 -209.896,-0.20172 -201.1489,-0.19969 -196.0452,-0.19961 -186.6631,-0.20152 -178.0153,-0.20355 -168.4896,-0.20423 -158.8145,-0.20513 -145.0687,-0.20896 -133.6711,-0.21217 -120.299,-0.21813 -107.9091,-0.22558 -94.0222,-0.23342 -81.0595,-0.23896 -68.8952,-0.24394 -55.2078,-0.24726 -44.0358,-0.25089 -30.3452,-0.25371 -19.7459,-0.25556 -6.3675,-0.25584 3.5071,-0.25509 16.7002,-0.25359 39.546,-0.25038 49.7295,-0.24818 62.1093,-0.24546 72.4782,-0.24204 84.0513,-0.23781 94.6388,-0.23367 105.6698,-0.22965 116.8519,-0.22264 126.6046,-0.21693 135.7663,-0.21123 144.7972,-0.20492 152.6157,-0.19992 160.5278,-0.19909 169.6247,-0.19894 177.3403,-0.19941 186.8501,-0.20046 196.2627,-0.20116 202.4878,-0.20105 207.2727,-0.20033 216.5213,-0.20135 222.2197,-0.20315 231.6566,-0.20326 241.1233,-0.20347 251.9906,-0.20347 261.3137,-0.20172 270.0615,-0.19968 275.1678,-0.1996 284.5507,-0.20152 293.2251,-0.20355 302.7516,-0.20422 312.4265,-0.20512 326.1698,-0.20896 337.5677,-0.21217 350.9401,-0.21813 363.3304,-0.22559 376.3834,-0.23312 384.9222,-0.12115 389.3708,-0.058064 389.4197,0.00651 384.3072,0.12006 375.7165,0.23352 365.5717,0.22963 354.3888,0.22263 344.6375,0.21692 335.482,0.21122 326.4521,0.20491 318.6326,0.19991 310.7131,0.19908 301.6149,0.19893 293.8929,0.1994 284.3883,0.20045 274.9759,0.20115 268.7582,0.20105 263.9721,0.20033 254.7227,0.20135 249.0182,0.20314 239.5811,0.20325 230.114,0.20347 219.2262,0.20347 209.9021,0.20172 201.1544,0.19969 196.0521,0.19961 186.6697,0.20152 178.0157,0.20356 168.4903,0.20423 158.8133,0.20514 145.066,0.20898 133.6661,0.21219 120.2948,0.21815 107.9035,0.22561 94.0186,0.23344 81.0549,0.23898 68.8928,0.24395 55.2051,0.24727 44.0344,0.2509 30.3437,0.25371 19.7455,0.25557 6.3674,0.25584 -3.5069,0.25509 -16.6996,0.25359 -39.5447,0.25038 -49.7285,0.24817 -62.1073,0.24545 -72.4765,0.24203 -84.0484,0.2378 -94.6365,0.23365 -105.6665,0.22963 -116.8497,0.22263 -126.6011,0.21692 -135.7581,0.21122 -144.7882,0.20491 -152.6078,0.19991 -160.5235,0.19908 -169.6216,0.19894 -177.3429,0.1994 -186.8632,0.20045 -196.2763,0.20116 -202.4978,0.20106 -207.2801,0.20033 -216.529,0.20135 -222.2182,0.20315 -231.6546,0.20327 -241.1229,0.20348 -252.0559,0.20348 -261.3813,0.20173 -270.1284,0.1997 -275.2256,0.19962 -284.6069,0.20153 -293.2201,0.20357 -302.7442,0.20424 -312.4223,0.20515 -326.1748,0.20899 -337.5754,0.2122 -350.946,0.21816 -363.3373,0.22561 -377.221,0.23344 -390.1845,0.23898 -402.3458,0.24395 -416.0333,0.24727 -427.204,0.2509 -440.8942,0.25371 -451.4927,0.25556 -464.8705,0.25584 -474.745,0.25509 -487.9375,0.25359 -510.7829,0.25037 -520.967,0.24817 -533.346,0.24545 -543.7155,0.24203 -555.2878,0.2378 -565.876,0.23366 -576.9065,0.22964 -588.0895,0.22263 -597.842,0.21693 -607.0043,0.21123 -616.0352,0.20492 -623.8542,0.19992 -631.7646,0.19909 -640.8617,0.19894 -648.5778,0.19941 -658.1044,0.20046 -667.5177,0.20116 -673.7446,0.20106 -678.5253,0.20034 -687.7737,0.20136 -693.4559,0.20316 -702.8921,0.20327 -712.3599,0.20348 -723.2713,0.20348 -732.5955,0.20173 -741.3425,0.19969 -746.4447,0.19961 -755.8264,0.20152 -764.4617,0.20356 -773.987,0.20423 -783.6634,0.20513 -797.4108,0.20897 -808.8091,0.21218 -822.1808,0.21814 -834.571,0.22559 -848.4565,0.23342 -861.4188,0.23897 -873.5825,0.24394 -887.2693,0.24726 -898.4411,0.25088 -912.1311,0.2537 -922.7307,0.25556 -932.1555,0.25659 -937.3183,0.25652 -942.0307,0.25627 -942.4778,0.25619 -942.4778,0.35619 -942.0307,0.35627 -937.3183,0.35652 -932.1555,0.35659 -922.7307,0.35556 -912.1311,0.3537 -898.4411,0.35088 -887.2693,0.34726 -873.5825,0.34394 -861.4188,0.33897 -848.4565,0.33342 -834.5709,0.32559 -822.1808,0.31814 -808.8091,0.31218 -797.4108,0.30897 -783.6634,0.30513 -773.987,0.30423 -764.4617,0.30356 -755.8264,0.30152 -746.4447,0.29961 -741.3425,0.29969 -732.5956,0.30173 -723.2713,0.30348 -712.3599,0.30348 -702.8921,0.30327 -693.4559,0.30316 -687.7737,0.30136 -678.5253,0.30034 -673.7446,0.30106 -667.5177,0.30116 -658.1044,0.30046 -648.5778,0.29941 -640.8617,0.29894 -631.7646,0.29909 -623.8543,0.29992 -616.0353,0.30492 -607.0044,0.31123 -597.842,0.31693 -588.0896,0.32263 -576.9066,0.32964 -565.876,0.33366 -555.2878,0.3378 -543.7155,0.34203 -533.346,0.34545 -520.967,0.34817 -510.7829,0.35037 -487.9375,0.35359 -474.745,0.35509 -464.8705,0.35584 -451.4927,0.35556 -440.8942,0.35371 -427.2039,0.3509 -416.0333,0.34727 -402.3458,0.34395 -390.1844,0.33898 -377.221,0.33344 -363.3372,0.32561 -350.9459,0.31816 -337.5753,0.3122 -326.1747,0.30899 -312.4223,0.30515 -302.7442,0.30424 -293.2201,0.30357 -284.6068,0.30153 -275.2255,0.29962 -270.1284,0.2997 -261.3814,0.30173 -252.0559,0.30348 -241.1229,0.30348 -231.6546,0.30327 -222.2182,0.30315 -216.529,0.30135 -207.2801,0.30033 -202.4978,0.30106 -196.2763,0.30116 -186.8632,0.30045 -177.3429,0.2994 -169.6216,0.29894 -160.5235,0.29908 -152.6078,0.29991 -144.7883,0.30491 -135.7581,0.31122 -126.6012,0.31692 -116.8498,0.32263 -105.6666,0.32963 -94.6365,0.33365 -84.0485,0.3378 -72.4765,0.34203 -62.1073,0.34545 -49.7285,0.34817 -39.5447,0.35038 -16.6996,0.35359 -3.5069,0.35509 6.3674,0.35584 19.7455,0.35557 30.3438,0.35371 44.0344,0.3509 55.2052,0.34727 68.8928,0.34395 81.0549,0.33898 94.0186,0.33344 107.9036,0.32561 120.2948,0.31815 133.6661,0.31219 145.066,0.30898 158.8133,0.30514 168.4903,0.30423 178.0157,0.30356 186.6697,0.30152 196.0521,0.29961 201.1544,0.29969 209.9021,0.30172 219.2262,0.30347 230.114,0.30347 239.5811,0.30325 249.0182,0.30314 254.7227,0.30135 263.9721,0.30033 268.7582,0.30105 274.9759,0.30115 284.3883,0.30045 293.8929,0.2994 301.6149,0.29893 310.7131,0.29908 318.6326,0.29991 326.452,0.30491 335.4819,0.31122 344.6374,0.31692 354.3888,0.32263 365.5717,0.32963 375.7164,0.33352 384.3085,0.22006 389.4219,0.10649 389.4708,-0.058064 384.9247,-0.22112 376.3847,-0.33312 363.3304,-0.32559 350.94,-0.31813 337.5676,-0.31217 326.1697,-0.30896 312.4265,-0.30512 302.7515,-0.30422 293.2251,-0.30355 284.5506,-0.30152 275.1677,-0.2996 270.0615,-0.29968 261.3138,-0.30172 251.9906,-0.30347 241.1233,-0.30347 231.6566,-0.30326 222.2197,-0.30315 216.5213,-0.30135 207.2727,-0.30033 202.4878,-0.30105 196.2627,-0.30116 186.85,-0.30046 177.3403,-0.29941 169.6247,-0.29894 160.5278,-0.29909 152.6157,-0.29992 144.7972,-0.30492 135.7664,-0.31123 126.6046,-0.31693 116.852,-0.32264 105.6699,-0.32965 94.6388,-0.33367 84.0513,-0.33781 72.4782,-0.34204 62.1094,-0.34546 49.7295,-0.34818 39.546,-0.35038 16.7002,-0.35359 3.5071,-0.35509 -6.3675,-0.35584 -19.7459,-0.35556 -30.3452,-0.35371 -44.0358,-0.35089 -55.2078,-0.34726 -68.8952,-0.34394 -81.0596,-0.33896 -94.0222,-0.33342 -107.9091,-0.32558 -120.2991,-0.31813 -133.6711,-0.31217 -145.0687,-0.30896 -158.8146,-0.30513 -168.4896,-0.30423 -178.0153,-0.30355 -186.6632,-0.30152 -196.0452,-0.29961 -201.1489,-0.29969 -209.896,-0.30172 -219.2198,-0.30348 -230.1198,-0.30348 -239.5873,-0.30327 -249.0232,-0.30316 -254.6986,-0.30136 -263.9465,-0.30034 -268.7257,-0.30107 -274.9567,-0.30117 -284.3703,-0.30046 -293.903,-0.29942 -301.6144,-0.29895 -310.7106,-0.29909 -318.6167,-0.29993 -326.4349,-0.30492 -335.4666,-0.31124 -344.633,-0.31694 -354.3863,-0.32265 -365.5685,-0.32965 -376.5999,-0.33367 -387.1875,-0.33781 -398.7609,-0.34204 -409.1299,-0.34546 -421.5096,-0.34818 -431.6934,-0.35038 -454.5396,-0.35359 -467.7325,-0.35509 -477.6074,-0.35584 -490.9855,-0.35556 -501.5852,-0.3537 -515.2754,-0.35089 -526.4472,-0.34726 -540.1343,-0.34394 -552.2977,-0.33897 -565.26,-0.33342 -579.1455,-0.32559 -591.5356,-0.31814 -604.907,-0.31219 -616.3055,-0.30898 -630.0554,-0.30514 -639.7319,-0.30424 -649.2566,-0.30356 -657.8772,-0.30153 -667.2586,-0.29962 -672.3582,-0.2997 -681.1052,-0.30173 -690.4301,-0.30348 -701.3567,-0.30348 -710.8249,-0.30327 -720.261,-0.30316 -725.9423,-0.30136 -735.1907,-0.30034 -739.9712,-0.30106 -746.197,-0.30116 -755.6104,-0.30046 -765.1382,-0.29941 -772.856,-0.29894 -781.9534,-0.29909 -789.8648,-0.29992 -797.6838,-0.30491 -806.7145,-0.31123 -815.8751,-0.31693 -825.6272,-0.32263 -836.8102,-0.32964 -847.8407,-0.33366 -858.4288,-0.3378 -870.0011,-0.34203 -880.3707,-0.34545 -892.7497,-0.34817 -902.9339,-0.35037 -911.9548,-0.35144 -917.4266,-0.352 " stroke="none" fill="blue" stroke-width="0" shape-rendering="crispEdges" />
<polygon points="942.4778,0.35619 942.4778,0.25619 910.4358,0.25159 902.1743,0.25045 892.7495,0.24817 880.3705,0.24545 870.001,0.24203 858.4285,0.2378 847.8404,0.23366 836.8096,0.22964 825.6267,0.22264 815.8741,0.21693 806.7113,0.21123 797.6801,0.20492 789.8614,0.19992 781.953,0.19909 772.856,0.19894 765.1404,0.19941 755.603,0.20046 746.1893,0.20117 739.9605,0.20107 735.1823,0.20034 725.9342,0.20136 720.2626,0.20316 710.8268,0.20328 701.3578,0.20349 690.4013,0.20349 681.0757,0.20174 672.3291,0.19971 667.2325,0.19962 657.8519,0.20153 649.258,0.20357 639.7341,0.20424 630.056,0.20515 604.9027,0.2122 591.5321,0.21816 579.1408,0.22561 565.2569,0.23344 552.2931,0.23899 540.1315,0.24395 526.4435,0.24727 515.3184,0.25088 486.0938,0.40138 458.043,0.55078 429.7687,0.69924 402.6078,0.84629 374.288,0.993 362.8406,0.99189 328.8067,0.98843 316.7352,0.98726 305.5709,0.98622 293.6181,0.98523 282.281,0.98438 270.4,0.98366 258.9096,0.9831 247.0443,0.98273 235.4351,0.98251 223.5255,0.98253 211.8446,0.9827 199.8333,0.9831 188.1367,0.98364 175.976,0.98441 164.3236,0.98526 151.9814,0.98631 140.4307,0.98738 127.8956,0.98862 92.5567,0.99221 79.6853,0.99342 68.6584,0.99442 55.6776,0.99543 44.8336,0.99619 31.7966,0.99689 21.1062,0.99736 8.0693,0.99769 -2.5118,0.99783 -15.4943,0.99777 -26.0193,0.99758 -38.8997,0.99714 -49.4248,0.99664 -62.1651,0.99586 -72.7445,0.99509 -85.3192,0.99406 -96.0008,0.99308 -108.3985,0.99189 -142.4323,0.98843 -154.5039,0.98726 -165.6681,0.98622 -177.6209,0.98523 -188.958,0.98438 -200.839,0.98367 -212.3294,0.9831 -224.1948,0.98273 -235.8039,0.98252 -247.7135,0.98253 -259.3944,0.9827 -271.4057,0.9831 -283.1023,0.98364 -295.2631,0.98441 -306.9155,0.98526 -319.2577,0.98631 -330.8083,0.98738 -343.3434,0.98862 -378.6823,0.99221 -391.5538,0.99342 -402.5806,0.99442 -415.5614,0.99543 -426.4053,0.99619 -439.4422,0.99689 -450.1327,0.99736 -463.1694,0.99769 -473.7506,0.99783 -486.733,0.99777 -497.258,0.99758 -510.1383,0.99714 -520.6635,0.99664 -533.4037,0.99586 -543.9832,0.99509 -556.5579,0.99406 -567.2395,0.99308 -579.6372,0.99189 -613.6712,0.98843 -625.7428,0.98726 -636.907,0.98622 -648.8599,0.98523 -660.197,0.98438 -672.0781,0.98367 -683.5684,0.9831 -695.4337,0.98273 -707.0428,0.98252 -718.9524,0.98253 -730.6333,0.9827 -742.6446,0.9831 -754.3411,0.98364 -766.5019,0.98441 -778.1542,0.98526 -790.4963,0.98631 -802.047,0.98738 -814.5819,0.98862 -849.9208,0.99221 -862.7921,0.99342 -873.8191,0.99442 -886.7997,0.99542 -897.6439,0.99618 -910.6807,0.99689 -921.3713,0.99735 -930.7961,0.99772 -942.4778,0.99803 -942.4778,1.098 -930.7961,1.0977 -921.3713,1.0974 -910.6806,1.0969 -897.6439,1.0962 -886.7997,1.0954 -873.8191,1.0944 -862.7921,1.0934 -849.9208,1.0922 -814.5819,1.0886 -802.047,1.0874 -790.4963,1.0863 -778.1542,1.0853 -766.5019,1.0844 -754.3411,1.0836 -742.6446,1.0831 -730.6333,1.0827 -718.9524,1.0825 -707.0428,1.0825 -695.4337,1.0827 -683.5684,1.0831 -672.0781,1.0837 -660.197,1.0844 -648.8599,1.0852 -636.9071,1.0862 -625.7428,1.0873 -613.6712,1.0884 -579.6373,1.0919 -567.2396,1.0931 -556.5579,1.0941 -543.9833,1.0951 -533.4037,1.0959 -520.6635,1.0966 -510.1383,1.0971 -497.258,1.0976 -486.733,1.0978 -473.7506,1.0978 -463.1694,1.0977 -450.1327,1.0974 -439.4422,1.0969 -426.4053,1.0962 -415.5614,1.0954 -402.5806,1.0944 -391.5538,1.0934 -378.6823,1.0922 -343.3434,1.0886 -330.8083,1.0874 -319.2576,1.0863 -306.9154,1.0853 -295.2631,1.0844 -283.1023,1.0836 -271.4057,1.0831 -259.3944,1.0827 -247.7135,1.0825 -235.8039,1.0825 -224.1948,1.0827 -212.3294,1.0831 -200.8391,1.0837 -188.958,1.0844 -177.6209,1.0852 -165.6681,1.0862 -154.5039,1.0873 -142.4323,1.0884 -108.3985,1.0919 -96.0008,1.0931 -85.3192,1.0941 -72.7445,1.0951 -62.1651,1.0959 -49.4248,1.0966 -38.8997,1.0971 -26.0193,1.0976 -15.4943,1.0978 -2.5118,1.0978 8.0693,1.0977 21.1062,1.0974 31.7966,1.0969 44.8336,1.0962 55.6776,1.0954 68.6584,1.0944 79.6853,1.0934 92.5567,1.0922 127.8957,1.0886 140.4307,1.0874 151.9814,1.0863 164.3236,1.0853 175.976,1.0844 188.1367,1.0836 199.8334,1.0831 211.8446,1.0827 223.5255,1.0825 235.4351,1.0825 247.0443,1.0827 258.9096,1.0831 270.4,1.0837 282.281,1.0844 293.6181,1.0852 305.5709,1.0862 316.7352,1.0873 328.8067,1.0884 362.8406,1.0919 374.288,1.093 402.6083,0.94629 429.7692,0.79924 458.0436,0.65078 486.0943,0.50138 515.3189,0.35088 526.4435,0.34727 540.1315,0.34395 552.2932,0.33899 565.257,0.33344 579.1408,0.32561 591.5322,0.31816 604.9027,0.3122 630.0561,0.30515 639.7341,0.30424 649.258,0.30357 657.852,0.30153 667.2325,0.29962 672.3291,0.29971 681.0756,0.30174 690.4013,0.30349 701.3578,0.30349 710.8268,0.30328 720.2626,0.30316 725.9343,0.30136 735.1823,0.30034 739.9604,0.30107 746.1893,0.30117 755.603,0.30046 765.1404,0.29941 772.856,0.29894 781.953,0.29909 789.8614,0.29992 797.6801,0.30492 806.7112,0.31123 815.874,0.31693 825.6266,0.32264 836.8095,0.32964 847.8404,0.33366 858.4284,0.3378 870.001,0.34203 880.3704,0.34545 892.7495,0.34817 902.1743,0.35045 910.4358,0.35159 " stroke="none" fill="blue" stroke-width="0" shape-rendering="crispEdges" />
<polygon points="942.4778,1.098 942.4778,0.99803 910.6458,0.99754 893.0531,0.99664 880.3128,0.99586 869.7333,0.99509 857.1586,0.99406 846.477,0.99308 834.0791,0.99189 800.0453,0.98843 787.9736,0.98726 776.8095,0.98622 764.8566,0.98523 753.5196,0.98438 741.6384,0.98367 730.1482,0.9831 718.2827,0.98273 706.6737,0.98252 694.764,0.98253 683.0832,0.9827 671.0718,0.98311 659.3753,0.98365 647.2144,0.98441 635.5622,0.98526 623.2199,0.98631 611.6694,0.98738 599.1342,0.98862 563.7955,0.99221 550.9239,0.99343 539.8971,0.99442 526.9163,0.99543 516.1301,0.99618 486.9023,1.0337 458.741,1.0709 430.4667,1.108 402.4848,1.1447 374.1528,1.1813 362.4933,1.1808 328.2768,1.1794 304.8534,1.1784 281.406,1.1777 269.0105,1.1774 257.923,1.1771 245.5329,1.177 234.3958,1.1769 221.9863,1.1769 210.8199,1.177 198.3681,1.1771 187.1962,1.1773 174.683,1.1777 163.5305,1.178 150.9436,1.1785 127.1683,1.1794 92.4043,1.1809 68.7034,1.1818 45.0306,1.1825 32.1538,1.1828 21.396,1.183 8.5168,1.1832 -2.194,1.1833 -15.0526,1.1833 -25.7377,1.1832 -38.5547,1.183 -49.2375,1.1828 -61.9959,1.1825 -72.6993,1.1822 -85.3877,1.1817 -108.7456,1.1808 -142.962,1.1794 -166.3855,1.1784 -189.8329,1.1777 -202.2284,1.1774 -213.3159,1.1771 -225.706,1.177 -236.8431,1.1769 -249.2526,1.1769 -260.419,1.177 -272.8709,1.1771 -284.0427,1.1773 -296.5559,1.1777 -307.7084,1.178 -320.2953,1.1785 -344.0706,1.1794 -378.8346,1.1809 -402.5355,1.1818 -426.2083,1.1825 -439.085,1.1828 -449.8428,1.183 -462.7219,1.1832 -473.4328,1.1833 -486.2913,1.1833 -496.9765,1.1832 -509.7934,1.183 -520.4762,1.1828 -533.2346,1.1825 -543.9381,1.1822 -556.6263,1.1817 -579.9843,1.1808 -614.2009,1.1794 -637.6243,1.1784 -661.0718,1.1777 -673.4673,1.1774 -684.5548,1.1771 -696.9449,1.177 -708.0821,1.1769 -720.4916,1.1769 -731.658,1.177 -744.1099,1.1771 -755.2817,1.1773 -767.7949,1.1777 -778.9474,1.178 -791.5343,1.1785 -815.3095,1.1794 -850.0735,1.1809 -873.7743,1.1818 -897.4471,1.1825 -910.3239,1.1828 -930.5065,1.1832 -942.4778,1.1834 -942.4778,1.2834 -930.5065,1.2832 -910.3239,1.2828 -897.4471,1.2825 -873.7743,1.2818 -850.0735,1.2809 -815.3095,1.2794 -791.5343,1.2785 -778.9474,1.278 -767.7949,1.2777 -755.2817,1.2773 -744.1099,1.2771 -731.658,1.277 -720.4916,1.2769 -708.0821,1.2769 -696.9449,1.277 -684.5548,1.2771 -673.4673,1.2774 -661.0718,1.2777 -637.6243,1.2784 -614.2009,1.2794 -579.9843,1.2808 -556.6263,1.2817 -543.9381,1.2822 -533.2346,1.2825 -520.4762,1.2828 -509.7934,1.283 -496.9765,1.2832 -486.2913,1.2833 -473.4328,1.2833 -462.7219,1.2832 -449.8428,1.283 -439.085,1.2828 -426.2083,1.2825 -402.5355,1.2818 -378.8346,1.2809 -344.0706,1.2794 -320.2953,1.2785 -307.7084,1.278 -296.5559,1.2777 -284.0427,1.2773 -272.8709,1.2771 -260.419,1.277 -249.2526,1.2769 -236.8431,1.2769 -225.706,1.277 -213.3159,1.2771 -202.2284,1.2774 -189.8329,1.2777 -166.3855,1.2784 -142.9621,1.2794 -108.7456,1.2808 -85.3877,1.2817 -72.6993,1.2822 -61.9959,1.2825 -49.2375,1.2828 -38.5547,1.283 -25.7377,1.2832 -15.0526,1.2833 -2.194,1.2833 8.5168,1.2832 21.396,1.283 32.1538,1.2828 45.0306,1.2825 68.7034,1.2818 92.4043,1.2809 127.1683,1.2794 150.9437,1.2785 163.5305,1.278 174.683,1.2777 187.1962,1.2773 198.3681,1.2771 210.8199,1.277 221.9863,1.2769 234.3958,1.2769 245.5329,1.277 257.923,1.2771 269.0105,1.2774 281.406,1.2777 304.8534,1.2784 328.2768,1.2794 374.1528,1.2813 402.485,1.2447 430.4668,1.208 458.7412,1.1709 486.9024,1.1337 516.1302,1.0962 526.9163,1.0954 539.8971,1.0944 550.9239,1.0934 563.7955,1.0922 599.1342,1.0886 611.6694,1.0874 623.2199,1.0863 635.5622,1.0853 647.2144,1.0844 659.3753,1.0836 671.0718,1.0831 683.0832,1.0827 694.764,1.0825 706.6737,1.0825 718.2827,1.0827 730.1482,1.0831 741.6384,1.0837 753.5196,1.0844 764.8566,1.0852 776.8095,1.0862 787.9736,1.0873 800.0453,1.0884 834.0791,1.0919 846.4769,1.0931 857.1585,1.0941 869.7333,1.0951 880.3128,1.0959 893.0531,1.0966 910.6458,1.0975 " stroke="none" fill="blue" stroke-width="0" shape-rendering="crispEdges" />
<polygon points="942.4778,1.2834 942.4778,1.1834 910.7697,1.1832 902.6651,1.183 880.4819,1.1825 869.7785,1.1822 857.0901,1.1817 833.7321,1.1808 799.5157,1.1794 776.0923,1.1784 752.6449,1.1777 740.2493,1.1774 729.1619,1.1771 716.7718,1.177 705.6346,1.1769 693.2252,1.1769 682.0588,1.177 669.6069,1.1771 658.435,1.1773 645.9219,1.1777 634.7694,1.178 622.1825,1.1785 598.4071,1.1794 563.6431,1.1809 539.9423,1.1818 516.3271,1.1825 487.0991,1.2299 459.8904,1.277 431.616,1.3241 404.5306,1.3709 376.1986,1.4176 365.5746,1.4171 330.3586,1.4154 306.9587,1.4143 283.5359,1.4134 272.2222,1.4131 260.0759,1.4128 248.7758,1.4126 236.5676,1.4125 225.2528,1.4125 213.0046,1.4125 201.648,1.4127 189.3861,1.4129 177.9648,1.4132 165.7176,1.4136 154.2154,1.4141 130.4195,1.4151 94.5421,1.4169 70.8173,1.4179 47.1206,1.4188 35.2732,1.4191 23.4646,1.4194 11.6075,1.4196 -0.14262,1.4197 -11.9833,1.4197 -23.6978,1.4196 -35.4977,1.4195 -47.2025,1.4192 -58.941,1.4189 -70.6622,1.4185 -82.3243,1.4181 -105.6641,1.4171 -140.8802,1.4154 -164.2802,1.4143 -187.7032,1.4134 -199.0171,1.4131 -211.1634,1.4128 -222.4637,1.4126 -234.6718,1.4125 -245.9869,1.4125 -258.2349,1.4125 -269.5919,1.4127 -281.8535,1.4129 -293.2753,1.4132 -305.5221,1.4137 -317.0248,1.4141 -340.8207,1.4151 -376.6977,1.4169 -400.4224,1.4179 -424.1189,1.4188 -435.9665,1.4191 -447.7748,1.4194 -459.6321,1.4196 -471.3819,1.4197 -483.2227,1.4197 -494.937,1.4196 -506.737,1.4195 -518.4416,1.4192 -530.1801,1.4189 -541.9012,1.4185 -553.5634,1.4181 -576.9031,1.4171 -612.1192,1.4154 -635.5192,1.4143 -658.9423,1.4134 -670.2562,1.4131 -682.4024,1.4128 -693.7029,1.4126 -705.9109,1.4125 -717.2261,1.4125 -729.474,1.4125 -740.8312,1.4127 -753.0927,1.4129 -764.5146,1.4132 -776.7613,1.4137 -788.2641,1.4141 -812.06,1.4151 -847.9368,1.4169 -871.6615,1.4179 -895.3581,1.4188 -907.2059,1.4191 -919.014,1.4194 -928.4388,1.4196 -942.4778,1.4198 -942.4778,1.5198 -935.476,1.5197 -919.014,1.5194 -907.2059,1.5191 -895.3581,1.5188 -871.6615,1.5179 -847.9368,1.5169 -812.06,1.5151 -788.2641,1.5141 -776.7613,1.5137 -764.5146,1.5132 -753.0927,1.5129 -740.8312,1.5127 -729.474,1.5125 -717.2261,1.5125 -705.9109,1.5125 -693.7029,1.5126 -682.4024,1.5128 -670.2562,1.5131 -658.9423,1.5134 -635.5192,1.5143 -612.1193,1.5154 -576.9031,1.5171 -553.5634,1.5181 -541.9012,1.5185 -530.1801,1.5189 -518.4416,1.5192 -506.737,1.5195 -494.937,1.5196 -483.2227,1.5197 -471.3819,1.5197 -459.6321,1.5196 -447.7748,1.5194 -435.9665,1.5191 -424.1189,1.5188 -400.4223,1.5179 -376.6977,1.5169 -340.8207,1.5151 -317.0248,1.5141 -305.5221,1.5137 -293.2753,1.5132 -281.8535,1.5129 -269.5919,1.5127 -258.2349,1.5125 -245.9869,1.5125 -234.6718,1.5125 -222.4637,1.5126 -211.1634,1.5128 -199.0171,1.5131 -187.7032,1.5134 -164.2802,1.5143 -140.8802,1.5154 -105.6641,1.5171 -82.3243,1.5181 -70.6622,1.5185 -58.941,1.5189 -47.2025,1.5192 -35.4977,1.5195 -23.6978,1.5196 -11.9833,1.5197 -0.14262,1.5197 11.6075,1.5196 23.4646,1.5194 35.2732,1.5191 47.1206,1.5188 70.8173,1.5179 94.5421,1.5169 130.4195,1.5151 154.2154,1.5141 165.7176,1.5136 177.9648,1.5132 189.3861,1.5129 201.648,1.5127 213.0046,1.5125 225.2528,1.5125 236.5676,1.5125 248.7758,1.5126 260.0759,1.5128 272.2222,1.5131 283.5359,1.5134 306.9587,1.5143 330.3586,1.5154 365.5746,1.5171 376.1986,1.5176 404.5308,1.4709 431.6162,1.4241 459.8905,1.377 487.0992,1.3299 516.3273,1.2825 539.9423,1.2818 563.6431,1.2809 598.4071,1.2794 622.1825,1.2785 634.7694,1.278 645.9219,1.2777 658.435,1.2773 669.6069,1.2771 682.0588,1.277 693.2252,1.2769 705.6346,1.2769 716.7718,1.277 729.1619,1.2771 740.2493,1.2774 752.6449,1.2777 776.0923,1.2784 799.5157,1.2794 833.7321,1.2808 857.0901,1.2817 869.7785,1.2822 880.4819,1.2825 893.2404,1.2828 910.7697,1.2832 " stroke="none" fill="blue" stroke-width="0" shape-rendering="crispEdges" />
<polygon points="942.4778,1.5198 942.4778,1.4198 911.7872,1.4196 904.6995,1.4195 895.2747,1.4192 883.5361,1.4189 871.8151,1.4185 860.1528,1.4181 848.391,1.4176 836.8132,1.4171 824.9899,1.4165 813.497,1.416 801.5974,1.4154 778.1976,1.4143 766.8438,1.4139 754.7748,1.4134 743.4611,1.4131 731.3148,1.4128 720.0148,1.4126 707.8066,1.4125 696.4919,1.4125 684.2437,1.4125 672.8872,1.4127 660.6252,1.4129 649.204,1.4132 636.9567,1.4136 625.4547,1.4141 613.2492,1.4146 601.6588,1.4151 589.5181,1.4157 577.841,1.4163 565.7812,1.4169 542.0563,1.4179 530.2445,1.4184 518.4171,1.4188 509.0498,1.4535 505.8822,1.5258 509.9574,1.5502 518.4175,1.5188 530.2445,1.5184 542.0563,1.5179 565.7812,1.5169 577.841,1.5163 589.5181,1.5157 601.6588,1.5151 613.2492,1.5146 625.4547,1.5141 636.9568,1.5136 649.204,1.5132 660.6252,1.5129 672.8872,1.5127 684.2437,1.5125 696.4919,1.5125 707.8066,1.5125 720.0148,1.5126 731.3148,1.5128 743.4611,1.5131 754.7748,1.5134 766.8438,1.5139 778.1976,1.5143 801.5974,1.5154 813.497,1.516 824.9899,1.5165 836.8132,1.5171 848.391,1.5176 860.1528,1.5181 871.8151,1.5185 883.5361,1.5189 895.2747,1.5192 904.6995,1.5195 911.7872,1.5196 NaN,NaN 509.0508,1.5535 505.4378,1.5383 505.4309,1.5361 505.3378,1.5383 505.3875,1.6229 511.1844,1.6575 520.5516,1.6921 533.2987,1.6923 544.0021,1.6924 567.502,1.6928 580.2425,1.6931 603.7116,1.6935 627.1909,1.6939 638.0123,1.694 650.6881,1.6942 661.538,1.6943 674.2095,1.6943 685.0817,1.6944 697.7589,1.6944 708.6451,1.6944 721.3378,1.6944 732.2283,1.6943 744.9446,1.6942 755.8293,1.694 768.5752,1.6939 779.4445,1.6937 803.0687,1.6933 839.536,1.6927 850.3194,1.6925 863.1824,1.6923 873.9332,1.6921 886.8104,1.692 897.5321,1.6919 910.4134,1.6918 928.0252,1.6917 942.4778,1.6917 942.4778,1.5917 928.0252,1.5917 910.4134,1.5918 897.5321,1.5919 886.8104,1.592 873.9332,1.5921 863.1824,1.5923 850.3194,1.5925 839.536,1.5927 803.0687,1.5933 779.4445,1.5937 768.5752,1.5939 755.8293,1.594 744.9446,1.5942 732.2283,1.5943 721.3378,1.5944 708.6451,1.5944 697.7589,1.5944 685.0817,1.5944 674.2095,1.5943 661.538,1.5943 650.6881,1.5942 638.0123,1.594 627.1909,1.5939 603.7116,1.5935 567.502,1.5928 544.0021,1.5924 533.2987,1.5923 520.5516,1.5921 511.1848,1.5575 509.9574,1.5502 NaN,NaN 505.3881,1.5229 505.4309,1.5361 505.8822,1.5258 " stroke="none" fill="blue" stroke-width="0" shape-rendering="crispEdges" />
<polygon points="-942.4778,1.5917 -942.4778,1.6917 -919.2682,1.6918 -893.2219,1.6921 -869.7136,1.6924 -810.0034,1.6935 -786.5242,1.6938 -763.0272,1.6941 -752.1778,1.6942 -739.506,1.6943 -728.6343,1.6944 -715.9568,1.6944 -705.0711,1.6944 -681.4881,1.6943 -657.8873,1.694 -634.2723,1.6937 -574.1811,1.6927 -539.7839,1.6921 -516.185,1.6919 -503.3039,1.6918 -492.6048,1.6917 -479.73,1.6917 -469.045,1.6917 -445.5053,1.6918 -421.9833,1.6921 -398.4749,1.6924 -338.7648,1.6935 -315.2856,1.6938 -291.7884,1.6941 -280.939,1.6943 -268.2672,1.6943 -257.3955,1.6944 -244.718,1.6944 -233.8322,1.6944 -210.2492,1.6943 -186.6483,1.694 -163.0333,1.6937 -102.9423,1.6927 -79.2962,1.6923 -55.6686,1.692 -44.9466,1.6919 -32.0658,1.6918 -21.3665,1.6917 -8.4921,1.6917 2.1932,1.6917 25.7328,1.6918 49.2547,1.6921 72.7629,1.6924 132.4725,1.6935 155.9519,1.6939 179.4491,1.6942 190.2991,1.6943 202.9706,1.6943 213.8428,1.6944 226.5201,1.6944 237.4063,1.6944 260.9894,1.6943 284.5904,1.694 308.2056,1.6937 368.2968,1.6927 388.0564,1.7253 406.4573,1.7579 421.472,1.7907 445.4338,1.8562 445.434,1.7562 421.4723,1.6907 406.4575,1.6579 388.0566,1.6253 368.297,1.5927 308.2056,1.5937 284.5904,1.594 260.9894,1.5943 237.4063,1.5944 226.5201,1.5944 213.8428,1.5944 202.9706,1.5943 190.2991,1.5943 179.4491,1.5942 166.7734,1.594 143.2621,1.5937 72.7629,1.5924 49.2547,1.5921 25.7328,1.5918 2.1932,1.5917 -8.4921,1.5917 -21.3665,1.5917 -32.0658,1.5918 -44.9466,1.5919 -55.6686,1.592 -68.5452,1.5921 -92.1589,1.5925 -163.0333,1.5937 -186.6483,1.594 -210.2492,1.5943 -233.8322,1.5944 -244.718,1.5944 -257.3955,1.5944 -268.2672,1.5943 -280.939,1.5943 -291.7884,1.5941 -304.4646,1.594 -327.9757,1.5936 -398.4749,1.5924 -421.9833,1.5921 -445.5053,1.5918 -469.045,1.5917 -479.73,1.5917 -492.6048,1.5917 -503.3039,1.5918 -516.185,1.5919 -539.7839,1.5921 -563.3976,1.5925 -634.2723,1.5937 -657.8873,1.594 -681.4881,1.5943 -705.0711,1.5944 -715.9568,1.5944 -728.6343,1.5944 -739.506,1.5943 -752.1778,1.5942 -763.0272,1.5941 -775.7033,1.594 -799.2144,1.5936 -869.7136,1.5924 -893.2219,1.5921 -919.2682,1.5918 " stroke="none" fill="blue" stroke-width="0" shape-rendering="crispEdges" />
<polygon points="445.4338,1.7562 445.434,1.8562 517.9365,1.692 523.9276,1.6921 544.0021,1.6924 567.502,1.6928 603.7116,1.6935 627.1909,1.6939 638.0123,1.694 650.6881,1.6942 661.538,1.6943 674.2095,1.6943 685.0817,1.6944 697.7589,1.6944 708.6451,1.6944 721.3378,1.6944 732.2283,1.6943 744.9446,1.6942 755.8293,1.694 768.5752,1.6939 779.4445,1.6937 803.0687,1.6933 839.536,1.6927 863.1824,1.6923 873.9332,1.6921 886.8104,1.692 897.5321,1.6919 910.4134,1.6918 928.0252,1.6917 942.4778,1.6917 942.4778,1.5917 928.0252,1.5917 910.4134,1.5918 897.5321,1.5919 886.8104,1.592 873.9332,1.5921 863.1824,1.5923 839.536,1.5927 803.0687,1.5933 779.4445,1.5937 768.5752,1.5939 755.8293,1.594 744.9446,1.5942 732.2283,1.5943 721.3378,1.5944 708.6451,1.5944 697.7589,1.5944 685.0817,1.5944 674.2095,1.5943 661.538,1.5943 650.6881,1.5942 638.0123,1.594 627.1909,1.5939 603.7116,1.5935 567.502,1.5928 544.0021,1.5924 523.9276,1.5921 517.9365,1.592 " stroke="none" fill="red" stroke-width="0" shape-rendering="crispEdges" />
<polygon points="-942.4778,1.5917 -942.4778,1.6917 -919.2682,1.6918 -893.2219,1.6921 -869.7136,1.6924 -810.0034,1.6935 -786.5242,1.6938 -763.0272,1.6941 -752.1778,1.6942 -739.506,1.6943 -728.6343,1.6944 -715.9568,1.6944 -705.0711,1.6944 -681.4881,1.6943 -657.8873,1.694 -634.2723,1.6937 -574.1811,1.6927 -550.5348,1.6923 -526.9069,1.692 -516.185,1.6919 -503.3039,1.6918 -492.6048,1.6917 -479.73,1.6917 -469.045,1.6917 -445.5053,1.6918 -421.9833,1.6921 -398.4749,1.6924 -338.7648,1.6935 -315.2856,1.6938 -291.7884,1.6941 -280.939,1.6943 -268.2672,1.6943 -257.3955,1.6944 -244.718,1.6944 -233.8322,1.6944 -210.2492,1.6943 -186.6483,1.694 -163.0333,1.6937 -102.9423,1.6927 -79.2962,1.6923 -55.6686,1.692 -44.9466,1.6919 -32.0658,1.6918 -21.3665,1.6917 -8.4921,1.6917 2.1932,1.6917 25.7328,1.6918 49.2547,1.6921 72.7629,1.6924 132.4725,1.6935 155.9519,1.6939 179.4491,1.6942 190.2991,1.6943 202.9706,1.6943 213.8428,1.6944 226.5201,1.6944 237.4063,1.6944 260.9894,1.6943 284.5904,1.694 308.2056,1.6937 378.1256,1.6925 386.5969,1.6576 389.8365,1.5847 385.9101,1.5604 378.1252,1.5925 308.2056,1.5937 284.5904,1.594 260.9894,1.5943 237.4063,1.5944 226.5201,1.5944 213.8428,1.5944 202.9706,1.5943 190.2991,1.5943 179.4491,1.5942 166.7734,1.594 143.2621,1.5937 72.7629,1.5924 49.2547,1.5921 25.7328,1.5918 2.1932,1.5917 -8.4921,1.5917 -21.3665,1.5917 -32.0658,1.5918 -44.9466,1.5919 -55.6686,1.592 -68.5452,1.5921 -92.1589,1.5925 -163.0333,1.5937 -186.6483,1.594 -210.2492,1.5943 -233.8322,1.5944 -244.718,1.5944 -257.3955,1.5944 -268.2672,1.5943 -280.939,1.5943 -291.7884,1.5941 -304.4646,1.594 -327.9757,1.5936 -398.4749,1.5924 -421.9833,1.5921 -445.5053,1.5918 -469.045,1.5917 -479.73,1.5917 -492.6048,1.5917 -503.3039,1.5918 -516.185,1.5919 -526.9069,1.592 -539.7839,1.5921 -563.3976,1.5925 -634.2723,1.5937 -657.8873,1.594 -681.4881,1.5943 -705.0711,1.5944 -715.9568,1.5944 -728.6343,1.5944 -739.506,1.5943 -752.1778,1.5942 -763.0272,1.5941 -775.7033,1.594 -799.2144,1.5936 -869.7136,1.5924 -893.2219,1.5921 -919.2682,1.5918 NaN,NaN 386.596,1.5576 390.2712,1.5727 390.2781,1.5748 390.3712,1.5727 390.3215,1.4877 384.6686,1.4527 376.1986,1.4176 365.5746,1.4171 342.2583,1.416 330.3586,1.4154 306.9587,1.4143 283.5359,1.4134 272.2222,1.4131 260.0759,1.4128 248.7758,1.4126 236.5676,1.4125 225.2528,1.4125 213.0046,1.4125 201.648,1.4127 189.3861,1.4129 177.9648,1.4132 165.7176,1.4136 154.2154,1.4141 130.4195,1.4151 94.5421,1.4169 70.8173,1.4179 47.1206,1.4188 35.2732,1.4191 23.4646,1.4194 11.6075,1.4196 -0.14262,1.4197 -11.9833,1.4197 -23.6978,1.4196 -35.4977,1.4195 -47.2025,1.4192 -58.941,1.4189 -70.6622,1.4185 -82.3243,1.4181 -105.6641,1.4171 -128.9804,1.416 -140.8802,1.4154 -164.2802,1.4143 -187.7032,1.4134 -199.0171,1.4131 -211.1634,1.4128 -222.4637,1.4126 -234.6718,1.4125 -245.9869,1.4125 -258.2349,1.4125 -269.5919,1.4127 -281.8535,1.4129 -293.2753,1.4132 -305.5221,1.4137 -317.0248,1.4141 -340.8207,1.4151 -376.6977,1.4169 -400.4224,1.4179 -424.1189,1.4188 -435.9665,1.4191 -447.7748,1.4194 -459.6321,1.4196 -471.3819,1.4197 -483.2227,1.4197 -494.937,1.4196 -506.737,1.4195 -518.4416,1.4192 -530.1801,1.4189 -541.9012,1.4185 -553.5634,1.4181 -576.9031,1.4171 -600.2195,1.416 -612.1192,1.4154 -635.5192,1.4143 -658.9423,1.4134 -670.2562,1.4131 -682.4024,1.4128 -693.7029,1.4126 -705.9109,1.4125 -717.2261,1.4125 -729.474,1.4125 -740.8312,1.4127 -753.0927,1.4129 -764.5146,1.4132 -776.7613,1.4137 -788.2641,1.4141 -812.06,1.4151 -847.9368,1.4169 -871.6615,1.4179 -895.3581,1.4188 -907.2059,1.4191 -919.014,1.4194 -935.476,1.4197 -942.4778,1.4198 -942.4778,1.5198 -935.476,1.5197 -919.014,1.5194 -907.2059,1.5191 -895.3581,1.5188 -871.6615,1.5179 -847.9368,1.5169 -812.06,1.5151 -788.2641,1.5141 -776.7613,1.5137 -764.5146,1.5132 -753.0927,1.5129 -740.8312,1.5127 -729.474,1.5125 -717.2261,1.5125 -705.9109,1.5125 -693.7029,1.5126 -682.4024,1.5128 -670.2562,1.5131 -658.9423,1.5134 -635.5192,1.5143 -612.1193,1.5154 -600.2195,1.516 -576.9031,1.5171 -553.5634,1.5181 -541.9012,1.5185 -530.1801,1.5189 -518.4416,1.5192 -506.737,1.5195 -494.937,1.5196 -483.2227,1.5197 -471.3819,1.5197 -459.6321,1.5196 -447.7748,1.5194 -435.9665,1.5191 -424.1189,1.5188 -400.4223,1.5179 -376.6977,1.5169 -340.8207,1.5151 -317.0248,1.5141 -305.5221,1.5137 -293.2753,1.5132 -281.8535,1.5129 -269.5919,1.5127 -258.2349,1.5125 -245.9869,1.5125 -234.6718,1.5125 -222.4637,1.5126 -211.1634,1.5128 -199.0171,1.5131 -187.7032,1.5134 -164.2802,1.5143 -140.8802,1.5154 -128.9804,1.516 -105.6641,1.5171 -82.3243,1.5181 -70.6622,1.5185 -58.941,1.5189 -47.2025,1.5192 -35.4977,1.5195 -23.6978,1.5196 -11.9833,1.5197 -0.14262,1.5197 11.6075,1.5196 23.4646,1.5194 35.2732,1.5191 47.1206,1.5188 70.8173,1.5179 94.5421,1.5169 130.4195,1.5151 154.2154,1.5141 165.7176,1.5136 177.9648,1.5132 189.3861,1.5129 201.648,1.5127 213.0046,1.5125 225.2528,1.5125 236.5676,1.5125 248.7758,1.5126 260.0759,1.5128 272.2222,1.5131 283.5359,1.5134 306.9587,1.5143 330.3586,1.5154 342.2583,1.516 365.5746,1.5171 376.1986,1.5176 384.6682,1.5527 385.9101,1.5604 NaN,NaN 390.3209,1.5877 390.2781,1.5748 389.8365,1.5847 " stroke="none" fill="red" stroke-width="0" shape-rendering="crispEdges" />
<polygon points="942.4778,1.5198 942.4778,1.4198 911.7872,1.4196 904.6995,1.4195 883.5361,1.4189 871.8151,1.4185 860.1528,1.4181 836.8132,1.4171 801.5974,1.4154 778.1976,1.4143 754.7748,1.4134 743.4611,1.4131 731.3148,1.4128 720.0148,1.4126 707.8066,1.4125 696.4919,1.4125 684.2437,1.4125 672.8872,1.4127 660.6252,1.4129 649.204,1.4132 636.9567,1.4136 625.4547,1.4141 601.6588,1.4151 565.7812,1.4169 542.0563,1.4179 518.4174,1.4188 489.1896,1.3716 459.9101,1.3243 431.6358,1.2768 402.485,1.2291 374.1528,1.1813 362.4933,1.1808 328.2768,1.1794 304.8534,1.1784 281.406,1.1777 269.0105,1.1774 257.923,1.1771 245.5329,1.177 234.3958,1.1769 221.9863,1.1769 210.8199,1.177 198.3681,1.1771 187.1962,1.1773 174.683,1.1777 163.5305,1.178 150.9436,1.1785 127.1683,1.1794 92.4043,1.1809 68.7034,1.1818 45.0306,1.1825 32.1538,1.1828 21.396,1.183 8.5168,1.1832 -2.194,1.1833 -15.0526,1.1833 -25.7377,1.1832 -38.5547,1.183 -49.2375,1.1828 -61.9959,1.1825 -72.6993,1.1822 -85.3877,1.1817 -108.7456,1.1808 -142.962,1.1794 -166.3855,1.1784 -189.8329,1.1777 -202.2284,1.1774 -213.3159,1.1771 -225.706,1.177 -236.8431,1.1769 -249.2526,1.1769 -260.419,1.177 -272.8709,1.1771 -284.0427,1.1773 -296.5559,1.1777 -307.7084,1.178 -320.2953,1.1785 -344.0706,1.1794 -378.8346,1.1809 -402.5355,1.1818 -426.2083,1.1825 -439.085,1.1828 -449.8428,1.183 -462.7219,1.1832 -473.4328,1.1833 -486.2913,1.1833 -496.9765,1.1832 -509.7934,1.183 -520.4762,1.1828 -533.2346,1.1825 -543.9381,1.1822 -556.6263,1.1817 -579.9843,1.1808 -614.2009,1.1794 -637.6243,1.1784 -661.0718,1.1777 -673.4673,1.1774 -684.5548,1.1771 -696.9449,1.177 -708.0821,1.1769 -720.4916,1.1769 -731.658,1.177 -744.1099,1.1771 -755.2817,1.1773 -767.7949,1.1777 -778.9474,1.178 -791.5343,1.1785 -815.3095,1.1794 -850.0735,1.1809 -873.7743,1.1818 -897.4471,1.1825 -910.3239,1.1828 -930.5065,1.1832 -942.4778,1.1834 -942.4778,1.2834 -930.5065,1.2832 -910.3239,1.2828 -897.4471,1.2825 -873.7743,1.2818 -850.0735,1.2809 -815.3095,1.2794 -791.5343,1.2785 -778.9474,1.278 -767.7949,1.2777 -755.2817,1.2773 -744.1099,1.2771 -731.658,1.277 -720.4916,1.2769 -708.0821,1.2769 -696.9449,1.277 -684.5548,1.2771 -673.4673,1.2774 -661.0718,1.2777 -637.6243,1.2784 -614.2009,1.2794 -579.9843,1.2808 -556.6263,1.2817 -543.9381,1.2822 -533.2346,1.2825 -520.4762,1.2828 -509.7934,1.283 -496.9765,1.2832 -486.2913,1.2833 -473.4328,1.2833 -462.7219,1.2832 -449.8428,1.283 -439.085,1.2828 -426.2083,1.2825 -402.5355,1.2818 -378.8346,1.2809 -344.0706,1.2794 -320.2953,1.2785 -307.7084,1.278 -296.5559,1.2777 -284.0427,1.2773 -272.8709,1.2771 -260.419,1.277 -249.2526,1.2769 -236.8431,1.2769 -225.706,1.277 -213.3159,1.2771 -202.2284,1.2774 -189.8329,1.2777 -166.3855,1.2784 -142.9621,1.2794 -108.7456,1.2808 -85.3877,1.2817 -72.6993,1.2822 -61.9959,1.2825 -49.2375,1.2828 -38.5547,1.283 -25.7377,1.2832 -15.0526,1.2833 -2.194,1.2833 8.5168,1.2832 21.396,1.283 32.1538,1.2828 45.0306,1.2825 68.7034,1.2818 92.4043,1.2809 127.1683,1.2794 150.9437,1.2785 163.5305,1.278 174.683,1.2777 187.1962,1.2773 198.3681,1.2771 210.8199,1.277 221.9863,1.2769 234.3958,1.2769 245.5329,1.277 257.923,1.2771 269.0105,1.2774 281.406,1.2777 304.8534,1.2784 328.2768,1.2794 374.1528,1.2813 402.4848,1.3291 431.6356,1.3768 459.91,1.4243 489.1895,1.4716 518.4172,1.5188 542.0563,1.5179 565.7812,1.5169 601.6588,1.5151 625.4547,1.5141 636.9568,1.5136 649.204,1.5132 660.6252,1.5129 672.8872,1.5127 684.2437,1.5125 696.4919,1.5125 707.8066,1.5125 720.0148,1.5126 731.3148,1.5128 743.4611,1.5131 754.7748,1.5134 778.1976,1.5143 801.5974,1.5154 836.8132,1.5171 860.1528,1.5181 871.8151,1.5185 883.5361,1.5189 895.2747,1.5192 911.7872,1.5196 " stroke="none" fill="red" stroke-width="0" shape-rendering="crispEdges" />
<polygon points="942.4778,1.2834 942.4778,1.1834 910.7697,1.1832 902.6651,1.183 880.4819,1.1825 869.7785,1.1822 857.0901,1.1817 833.7321,1.1808 799.5157,1.1794 776.0923,1.1784 752.6449,1.1777 740.2493,1.1774 729.1619,1.1771 716.7718,1.177 705.6346,1.1769 693.2252,1.1769 682.0588,1.177 669.6069,1.1771 658.435,1.1773 645.9219,1.1777 634.7694,1.178 622.1825,1.1785 598.4071,1.1794 563.6431,1.1809 539.9423,1.1818 516.3273,1.1825 487.1027,1.1452 458.8924,1.1075 430.618,1.0697 402.6202,1.0314 374.288,0.993 362.8406,0.99189 328.8067,0.98843 316.7352,0.98726 305.5709,0.98622 293.6181,0.98523 282.281,0.98438 270.4,0.98366 258.9096,0.9831 247.0443,0.98273 235.4351,0.98251 223.5255,0.98253 211.8446,0.9827 199.8333,0.9831 188.1367,0.98364 175.976,0.98441 164.3236,0.98526 151.9814,0.98631 140.4307,0.98738 127.8956,0.98862 92.5567,0.99221 79.6853,0.99342 68.6584,0.99442 55.6776,0.99543 44.8336,0.99619 31.7966,0.99689 21.1062,0.99736 8.0693,0.99769 -2.5118,0.99783 -15.4943,0.99777 -26.0193,0.99758 -38.8997,0.99714 -49.4248,0.99664 -62.1651,0.99586 -72.7445,0.99509 -85.3192,0.99406 -96.0008,0.99308 -108.3985,0.99189 -142.4323,0.98843 -154.5039,0.98726 -165.6681,0.98622 -177.6209,0.98523 -188.958,0.98438 -200.839,0.98367 -212.3294,0.9831 -224.1948,0.98273 -235.8039,0.98252 -247.7135,0.98253 -259.3944,0.9827 -271.4057,0.9831 -283.1023,0.98364 -295.2631,0.98441 -306.9155,0.98526 -319.2577,0.98631 -330.8083,0.98738 -343.3434,0.98862 -378.6823,0.99221 -391.5538,0.99342 -402.5806,0.99442 -415.5614,0.99543 -426.4053,0.99619 -439.4422,0.99689 -450.1327,0.99736 -463.1694,0.99769 -473.7506,0.99783 -486.733,0.99777 -497.258,0.99758 -510.1383,0.99714 -520.6635,0.99664 -533.4037,0.99586 -543.9832,0.99509 -556.5579,0.99406 -567.2395,0.99308 -579.6372,0.99189 -613.6712,0.98843 -625.7428,0.98726 -636.907,0.98622 -648.8599,0.98523 -660.197,0.98438 -672.0781,0.98367 -683.5684,0.9831 -695.4337,0.98273 -707.0428,0.98252 -718.9524,0.98253 -730.6333,0.9827 -742.6446,0.9831 -754.3411,0.98364 -766.5019,0.98441 -778.1542,0.98526 -790.4963,0.98631 -802.047,0.98738 -814.5819,0.98862 -849.9208,0.99221 -862.7921,0.99342 -873.8191,0.99442 -886.7997,0.99542 -897.6439,0.99618 -910.6807,0.99689 -921.3713,0.99735 -930.7961,0.99772 -942.4778,0.99803 -942.4778,1.098 -930.7961,1.0977 -921.3713,1.0974 -910.6806,1.0969 -897.6439,1.0962 -886.7997,1.0954 -873.8191,1.0944 -862.7921,1.0934 -849.9208,1.0922 -814.5819,1.0886 -802.047,1.0874 -790.4963,1.0863 -778.1542,1.0853 -766.5019,1.0844 -754.3411,1.0836 -742.6446,1.0831 -730.6333,1.0827 -718.9524,1.0825 -707.0428,1.0825 -695.4337,1.0827 -683.5684,1.0831 -672.0781,1.0837 -660.197,1.0844 -648.8599,1.0852 -636.9071,1.0862 -625.7428,1.0873 -613.6712,1.0884 -579.6373,1.0919 -567.2396,1.0931 -556.5579,1.0941 -543.9833,1.0951 -533.4037,1.0959 -520.6635,1.0966 -510.1383,1.0971 -497.258,1.0976 -486.733,1.0978 -473.7506,1.0978 -463.1694,1.0977 -450.1327,1.0974 -439.4422,1.0969 -426.4053,1.0962 -415.5614,1.0954 -402.5806,1.0944 -391.5538,1.0934 -378.6823,1.0922 -343.3434,1.0886 -330.8083,1.0874 -319.2576,1.0863 -306.9154,1.0853 -295.2631,1.0844 -283.1023,1.0836 -271.4057,1.0831 -259.3944,1.0827 -247.7135,1.0825 -235.8039,1.0825 -224.1948,1.0827 -212.3294,1.0831 -200.8391,1.0837 -188.958,1.0844 -177.6209,1.0852 -165.6681,1.0862 -154.5039,1.0873 -142.4323,1.0884 -108.3985,1.0919 -96.0008,1.0931 -85.3192,1.0941 -72.7445,1.0951 -62.1651,1.0959 -49.4248,1.0966 -38.8997,1.0971 -26.0193,1.0976 -15.4943,1.0978 -2.5118,1.0978 8.0693,1.0977 21.1062,1.0974 31.7966,1.0969 44.8336,1.0962 55.6776,1.0954 68.6584,1.0944 79.6853,1.0934 92.5567,1.0922 127.8957,1.0886 140.4307,1.0874 151.9814,1.0863 164.3236,1.0853 175.976,1.0844 188.1367,1.0836 199.8334,1.0831 211.8446,1.0827 223.5255,1.0825 235.4351,1.0825 247.0443,1.0827 258.9096,1.0831 270.4,1.0837 282.281,1.0844 293.6181,1.0852 305.5709,1.0862 316.7352,1.0873 328.8067,1.0884 362.8406,1.0919 374.288,1.093 402.6201,1.1314 430.6179,1.1697 458.8922,1.2075 487.1026,1.2452 516.3272,1.2825 539.9423,1.2818 563.6431,1.2809 598.4071,1.2794 622.1825,1.2785 634.7694,1.278 645.9219,1.2777 658.435,1.2773 669.6069,1.2771 682.0588,1.277 693.2252,1.2769 705.6346,1.2769 716.7718,1.277 729.1619,1.2771 740.2493,1.2774 752.6449,1.2777 776.0923,1.2784 799.5157,1.2794 833.7321,1.2808 857.0901,1.2817 869.7785,1.2822 880.4819,1.2825 893.2404,1.2828 910.7697,1.2832 " stroke="none" fill="red" stroke-width="0" shape-rendering="crispEdges" />
<polygon points="942.4778,1.098 942.4778,0.99803 910.6458,0.99754 893.0531,0.99664 880.3128,0.99586 869.7333,0.99509 857.1586,0.99406 846.477,0.99308 834.0791,0.99189 800.0453,0.98843 787.9736,0.98726 776.8095,0.98622 764.8566,0.98523 753.5196,0.98438 741.6384,0.98367 730.1482,0.9831 718.2827,0.98273 706.6737,0.98252 694.764,0.98253 683.0832,0.9827 671.0718,0.98311 659.3753,0.98365 647.2144,0.98441 635.5622,0.98526 623.2199,0.98631 611.6694,0.98738 599.1342,0.98862 563.7955,0.99221 550.9239,0.99343 539.8971,0.99442 526.9163,0.99543 516.1304,0.99618 486.9707,0.84546 459.1889,0.69415 430.9145,0.54148 404.0488,0.38775 375.7165,0.23352 365.5717,0.22963 354.3888,0.22263 344.6375,0.21692 335.482,0.21122 326.4521,0.20491 318.6326,0.19991 310.7131,0.19908 301.6149,0.19893 293.8929,0.1994 284.3883,0.20045 274.9759,0.20115 268.7582,0.20105 263.9721,0.20033 254.7227,0.20135 249.0182,0.20314 239.5811,0.20325 230.114,0.20347 219.2262,0.20347 209.9021,0.20172 201.1544,0.19969 196.0521,0.19961 186.6697,0.20152 178.0157,0.20356 168.4903,0.20423 158.8133,0.20514 133.6661,0.21219 120.2948,0.21815 107.9035,0.22561 94.0186,0.23344 81.0549,0.23898 68.8928,0.24395 55.2051,0.24727 44.0344,0.2509 30.3437,0.25371 19.7455,0.25557 6.3674,0.25584 -3.5069,0.25509 -16.6996,0.25359 -39.5447,0.25038 -49.7285,0.24817 -62.1073,0.24545 -72.4765,0.24203 -84.0484,0.2378 -94.6365,0.23365 -105.6665,0.22963 -116.8497,0.22263 -126.6011,0.21692 -135.7581,0.21122 -144.7882,0.20491 -152.6078,0.19991 -160.5235,0.19908 -169.6216,0.19894 -177.3429,0.1994 -186.8632,0.20045 -196.2763,0.20116 -202.4978,0.20106 -207.2801,0.20033 -216.529,0.20135 -222.2182,0.20315 -231.6546,0.20327 -241.1229,0.20348 -252.0559,0.20348 -261.3813,0.20173 -270.1284,0.1997 -275.2256,0.19962 -284.6069,0.20153 -293.2201,0.20357 -302.7442,0.20424 -312.4223,0.20515 -337.5754,0.2122 -350.946,0.21816 -363.3373,0.22561 -377.221,0.23344 -390.1845,0.23898 -402.3458,0.24395 -416.0333,0.24727 -427.204,0.2509 -440.8942,0.25371 -451.4927,0.25556 -464.8705,0.25584 -474.745,0.25509 -487.9375,0.25359 -510.7829,0.25037 -520.967,0.24817 -533.346,0.24545 -543.7155,0.24203 -555.2878,0.2378 -565.876,0.23366 -576.9065,0.22964 -588.0895,0.22263 -597.842,0.21693 -607.0043,0.21123 -616.0352,0.20492 -623.8542,0.19992 -631.7646,0.19909 -640.8617,0.19894 -648.5778,0.19941 -658.1044,0.20046 -667.5177,0.20116 -673.7446,0.20106 -678.5253,0.20034 -687.7737,0.20136 -693.4559,0.20316 -702.8921,0.20327 -712.3599,0.20348 -723.2713,0.20348 -732.5955,0.20173 -741.3425,0.19969 -746.4447,0.19961 -755.8264,0.20152 -764.4617,0.20356 -773.987,0.20423 -783.6634,0.20513 -808.8091,0.21218 -822.1808,0.21814 -834.571,0.22559 -848.4565,0.23342 -861.4188,0.23897 -873.5825,0.24394 -887.2693,0.24726 -898.4411,0.25088 -912.1311,0.2537 -922.7307,0.25556 -932.1555,0.25659 -937.3183,0.25652 -942.0307,0.25627 -942.4778,0.25619 -942.4778,0.35619 -942.0307,0.35627 -937.3183,0.35652 -932.1555,0.35659 -922.7307,0.35556 -912.1311,0.3537 -898.4411,0.35088 -887.2693,0.34726 -873.5825,0.34394 -861.4188,0.33897 -848.4565,0.33342 -834.5709,0.32559 -822.1808,0.31814 -808.8091,0.31218 -783.6634,0.30513 -773.987,0.30423 -764.4617,0.30356 -755.8264,0.30152 -746.4447,0.29961 -741.3425,0.29969 -732.5956,0.30173 -723.2713,0.30348 -712.3599,0.30348 -702.8921,0.30327 -693.4559,0.30316 -687.7737,0.30136 -678.5253,0.30034 -673.7446,0.30106 -667.5177,0.30116 -658.1044,0.30046 -648.5778,0.29941 -640.8617,0.29894 -631.7646,0.29909 -623.8543,0.29992 -616.0353,0.30492 -607.0044,0.31123 -597.842,0.31693 -588.0896,0.32263 -576.9066,0.32964 -565.876,0.33366 -555.2878,0.3378 -543.7155,0.34203 -533.346,0.34545 -520.967,0.34817 -510.7829,0.35037 -487.9375,0.35359 -474.745,0.35509 -464.8705,0.35584 -451.4927,0.35556 -440.8942,0.35371 -427.2039,0.3509 -416.0333,0.34727 -402.3458,0.34395 -390.1844,0.33898 -377.221,0.33344 -363.3372,0.32561 -350.9459,0.31816 -337.5753,0.3122 -312.4223,0.30515 -302.7442,0.30424 -293.2201,0.30357 -284.6068,0.30153 -275.2255,0.29962 -270.1284,0.2997 -261.3814,0.30173 -252.0559,0.30348 -241.1229,0.30348 -231.6546,0.30327 -222.2182,0.30315 -216.529,0.30135 -207.2801,0.30033 -202.4978,0.30106 -196.2763,0.30116 -186.8632,0.30045 -177.3429,0.2994 -169.6216,0.29894 -160.5235,0.29908 -152.6078,0.29991 -144.7883,0.30491 -135.7581,0.31122 -126.6012,0.31692 -116.8498,0.32263 -105.6666,0.32963 -94.6365,0.33365 -84.0485,0.3378 -72.4765,0.34203 -62.1073,0.34545 -49.7285,0.34817 -39.5447,0.35038 -16.6996,0.35359 -3.5069,0.35509 6.3674,0.35584 19.7455,0.35557 30.3438,0.35371 44.0344,0.3509 55.2052,0.34727 68.8928,0.34395 81.0549,0.33898 94.0186,0.33344 107.9036,0.32561 120.2948,0.31815 133.6661,0.31219 158.8133,0.30514 168.4903,0.30423 178.0157,0.30356 186.6697,0.30152 196.0521,0.29961 201.1544,0.29969 209.9021,0.30172 219.2262,0.30347 230.114,0.30347 239.5811,0.30325 249.0182,0.30314 254.7227,0.30135 263.9721,0.30033 268.7582,0.30105 274.9759,0.30115 284.3883,0.30045 293.8929,0.2994 301.6149,0.29893 310.7131,0.29908 318.6326,0.29991 326.452,0.30491 335.4819,0.31122 344.6374,0.31692 354.3888,0.32263 365.5717,0.32963 375.7164,0.33352 404.0483,0.48775 430.914,0.64148 459.1883,0.79415 486.9702,0.94546 516.1299,1.0962 526.9163,1.0954 539.8971,1.0944 550.9239,1.0934 563.7955,1.0922 599.1342,1.0886 611.6694,1.0874 623.2199,1.0863 635.5622,1.0853 647.2144,1.0844 659.3753,1.0836 671.0718,1.0831 683.0832,1.0827 694.764,1.0825 706.6737,1.0825 718.2827,1.0827 730.1482,1.0831 741.6384,1.0837 753.5196,1.0844 764.8566,1.0852 776.8095,1.0862 787.9736,1.0873 800.0453,1.0884 834.0791,1.0919 846.4769,1.0931 857.1585,1.0941 869.7333,1.0951 880.3128,1.0959 893.0531,1.0966 910.6458,1.0975 " stroke="none" fill="red" stroke-width="0" shape-rendering="crispEdges" />
<polygon points="942.4778,0.35619 942.4778,0.25619 910.4358,0.25159 902.1743,0.25045 892.7495,0.24817 880.3705,0.24545 870.001,0.24203 858.4285,0.2378 847.8404,0.23366 836.8096,0.22964 825.6267,0.22264 815.8741,0.21693 806.7113,0.21123 797.6801,0.20492 789.8614,0.19992 781.953,0.19909 772.856,0.19894 765.1404,0.19941 755.603,0.20046 746.1893,0.20117 739.9605,0.20107 735.1823,0.20034 725.9342,0.20136 720.2626,0.20316 710.8268,0.20328 701.3578,0.20349 690.4013,0.20349 681.0757,0.20174 672.3291,0.19971 667.2325,0.19962 657.8519,0.20153 649.258,0.20357 639.7341,0.20424 630.056,0.20515 616.303,0.20899 604.9027,0.2122 591.5321,0.21816 579.1408,0.22561 565.2569,0.23344 552.2931,0.23899 540.1315,0.24395 526.4435,0.24727 515.3193,0.25089 505.9473,0.13191 503.8772,0.062447 503.828,-0.0076965 511.6407,-0.12842 521.0191,-0.24817 533.3484,-0.24546 543.717,-0.24204 555.2902,-0.23781 565.8777,-0.23367 576.9089,-0.22965 588.091,-0.22264 597.8442,-0.21694 607.01,-0.21124 616.0417,-0.20492 623.8601,-0.19993 631.7651,-0.19909 640.8615,-0.19895 648.5739,-0.19942 658.1156,-0.20046 667.5296,-0.20117 673.7617,-0.20108 678.5387,-0.20035 687.7865,-0.20137 693.4533,-0.20317 702.8888,-0.20328 712.3574,-0.20349 723.3002,-0.20349 732.6254,-0.20173 741.372,-0.1997 746.47,-0.19962 755.851,-0.20153 764.4593,-0.20356 773.9836,-0.20424 783.6606,-0.20514 797.4122,-0.20898 808.8111,-0.21219 822.1821,-0.21814 834.5726,-0.2256 848.4575,-0.23343 861.42,-0.23897 873.583,-0.24394 887.2698,-0.24726 898.4412,-0.25089 912.1312,-0.2537 922.2835,-0.25563 931.261,-0.25674 942.4778,-0.25619 942.4778,-0.35619 931.261,-0.35674 922.2835,-0.35563 912.1312,-0.3537 898.4412,-0.35089 887.2697,-0.34726 873.5829,-0.34394 861.4199,-0.33897 848.4575,-0.33343 834.5725,-0.3256 822.1821,-0.31814 808.8111,-0.31219 797.4121,-0.30898 783.6606,-0.30514 773.9836,-0.30424 764.4593,-0.30356 755.851,-0.30153 746.47,-0.29962 741.372,-0.2997 732.6255,-0.30173 723.3002,-0.30349 712.3574,-0.30349 702.8888,-0.30328 693.4533,-0.30317 687.7864,-0.30137 678.5387,-0.30035 673.7617,-0.30108 667.5296,-0.30117 658.1156,-0.30046 648.5739,-0.29942 640.8615,-0.29895 631.7651,-0.29909 623.8601,-0.29993 616.0417,-0.30492 607.0101,-0.31124 597.8442,-0.31694 588.0911,-0.32264 576.909,-0.32965 565.8778,-0.33367 555.2902,-0.33781 543.7171,-0.34204 533.3484,-0.34546 521.0192,-0.34817 511.6394,-0.22841 503.8264,-0.10768 503.7772,0.062447 505.9417,0.23175 515.318,0.35088 526.4435,0.34727 540.1315,0.34395 552.2932,0.33899 565.257,0.33344 579.1408,0.32561 591.5322,0.31816 604.9027,0.3122 616.303,0.30899 630.0561,0.30515 639.7341,0.30424 649.258,0.30357 657.852,0.30153 667.2325,0.29962 672.3291,0.29971 681.0756,0.30174 690.4013,0.30349 701.3578,0.30349 710.8268,0.30328 720.2626,0.30316 725.9343,0.30136 735.1823,0.30034 739.9604,0.30107 746.1893,0.30117 755.603,0.30046 765.1404,0.29941 772.856,0.29894 781.953,0.29909 789.8614,0.29992 797.6801,0.30492 806.7112,0.31123 815.874,0.31693 825.6266,0.32264 836.8095,0.32964 847.8404,0.33366 858.4284,0.3378 870.001,0.34203 880.3704,0.34545 892.7495,0.34817 902.1743,0.35045 910.4358,0.35159 " stroke="none" fill="red" stroke-width="0" shape-rendering="crispEdges" />
<polygon points="-942.4778,-0.35619 -942.4778,-0.25619 -917.4266,-0.252 -911.9548,-0.25144 -902.9339,-0.25037 -892.7497,-0.24817 -880.3707,-0.24545 -870.0012,-0.24203 -858.4289,-0.2378 -847.8407,-0.23366 -836.8103,-0.22964 -825.6273,-0.22263 -815.8751,-0.21693 -806.7146,-0.21123 -797.6839,-0.20491 -789.8648,-0.19992 -781.9534,-0.19909 -772.856,-0.19894 -765.1381,-0.19941 -755.6104,-0.20046 -746.197,-0.20116 -739.9712,-0.20106 -735.1907,-0.20034 -725.9423,-0.20136 -720.261,-0.20316 -710.8249,-0.20327 -701.3567,-0.20348 -690.4301,-0.20348 -681.1053,-0.20173 -672.3582,-0.1997 -667.2586,-0.19962 -657.8772,-0.20153 -649.2565,-0.20356 -639.7319,-0.20424 -630.0554,-0.20514 -604.907,-0.21219 -591.5356,-0.21814 -579.1455,-0.22559 -565.26,-0.23342 -552.2977,-0.23897 -540.1343,-0.24394 -526.4472,-0.24726 -515.2754,-0.25089 -501.5852,-0.2537 -490.9855,-0.25556 -477.6074,-0.25584 -467.7325,-0.25509 -454.5396,-0.25359 -431.6935,-0.25038 -421.5096,-0.24818 -409.1299,-0.24546 -398.7609,-0.24204 -387.1875,-0.23781 -376.6,-0.23367 -365.5686,-0.22965 -354.3864,-0.22265 -344.6331,-0.21694 -335.4667,-0.21124 -326.435,-0.20492 -318.6167,-0.19993 -310.7106,-0.19909 -301.6144,-0.19895 -293.903,-0.19942 -284.3703,-0.20046 -274.9567,-0.20117 -268.7257,-0.20107 -263.9465,-0.20034 -254.6985,-0.20136 -249.0232,-0.20316 -239.5873,-0.20327 -230.1198,-0.20348 -219.2198,-0.20348 -209.896,-0.20172 -201.1489,-0.19969 -196.0452,-0.19961 -186.6631,-0.20152 -178.0153,-0.20355 -168.4896,-0.20423 -158.8145,-0.20513 -133.6711,-0.21217 -120.299,-0.21813 -107.9091,-0.22558 -94.0222,-0.23342 -81.0595,-0.23896 -68.8952,-0.24394 -55.2078,-0.24726 -44.0358,-0.25089 -30.3452,-0.25371 -19.7459,-0.25556 -6.3675,-0.25584 3.5071,-0.25509 16.7002,-0.25359 39.546,-0.25038 49.7295,-0.24818 62.1093,-0.24546 72.4782,-0.24204 84.0513,-0.23781 94.6388,-0.23367 105.6698,-0.22965 116.8519,-0.22264 126.6046,-0.21693 135.7663,-0.21123 144.7972,-0.20492 152.6157,-0.19992 160.5278,-0.19909 169.6247,-0.19894 177.3403,-0.19941 186.8501,-0.20046 196.2627,-0.20116 202.4878,-0.20105 207.2727,-0.20033 216.5213,-0.20135 222.2197,-0.20315 231.6566,-0.20326 241.1233,-0.20347 251.9906,-0.20347 261.3137,-0.20172 270.0615,-0.19968 275.1678,-0.1996 284.5507,-0.20152 293.2251,-0.20355 302.7516,-0.20422 312.4265,-0.20512 337.5677,-0.21217 350.9401,-0.21813 363.3304,-0.22559 376.3843,-0.23312 404.7163,-0.38885 434.5752,-0.54305 462.8496,-0.69446 491.614,-0.84576 520.7214,-0.99664 533.4042,-0.99586 543.9837,-0.99509 556.5585,-0.99406 567.24,-0.99308 579.6379,-0.99189 613.6716,-0.98843 625.7434,-0.98726 636.9074,-0.98622 648.8604,-0.98523 660.1973,-0.98438 672.0785,-0.98367 683.5687,-0.9831 695.4342,-0.98273 707.0432,-0.98252 718.9529,-0.98253 730.6336,-0.9827 742.645,-0.98311 754.3415,-0.98365 766.5023,-0.98441 778.1545,-0.98526 790.4967,-0.98631 802.0472,-0.98738 814.5823,-0.98862 849.9211,-0.99221 862.7924,-0.99342 873.8193,-0.99442 886.8,-0.99543 897.644,-0.99619 910.6809,-0.99689 920.2711,-0.99733 928.5955,-0.99767 942.4778,-0.99803 942.4778,-1.098 928.5955,-1.0977 920.2711,-1.0973 910.6809,-1.0969 897.644,-1.0962 886.8,-1.0954 873.8193,-1.0944 862.7924,-1.0934 849.921,-1.0922 814.5823,-1.0886 802.0472,-1.0874 790.4967,-1.0863 778.1545,-1.0853 766.5023,-1.0844 754.3414,-1.0836 742.645,-1.0831 730.6336,-1.0827 718.9529,-1.0825 707.0432,-1.0825 695.4342,-1.0827 683.5687,-1.0831 672.0785,-1.0837 660.1973,-1.0844 648.8604,-1.0852 636.9074,-1.0862 625.7434,-1.0873 613.6716,-1.0884 579.6379,-1.0919 567.24,-1.0931 556.5585,-1.0941 543.9837,-1.0951 533.4043,-1.0959 520.7215,-1.0966 491.6135,-0.94575 462.849,-0.79445 434.5747,-0.64305 404.7157,-0.48885 376.3838,-0.33312 363.3304,-0.32559 350.94,-0.31813 337.5676,-0.31217 312.4265,-0.30512 302.7515,-0.30422 293.2251,-0.30355 284.5506,-0.30152 275.1677,-0.2996 270.0615,-0.29968 261.3138,-0.30172 251.9906,-0.30347 241.1233,-0.30347 231.6566,-0.30326 222.2197,-0.30315 216.5213,-0.30135 207.2727,-0.30033 202.4878,-0.30105 196.2627,-0.30116 186.85,-0.30046 177.3403,-0.29941 169.6247,-0.29894 160.5278,-0.29909 152.6157,-0.29992 144.7972,-0.30492 135.7664,-0.31123 126.6046,-0.31693 116.852,-0.32264 105.6699,-0.32965 94.6388,-0.33367 84.0513,-0.33781 72.4782,-0.34204 62.1094,-0.34546 49.7295,-0.34818 39.546,-0.35038 16.7002,-0.35359 3.5071,-0.35509 -6.3675,-0.35584 -19.7459,-0.35556 -30.3452,-0.35371 -44.0358,-0.35089 -55.2078,-0.34726 -68.8952,-0.34394 -81.0596,-0.33896 -94.0222,-0.33342 -107.9091,-0.32558 -120.2991,-0.31813 -133.6711,-0.31217 -158.8146,-0.30513 -168.4896,-0.30423 -178.0153,-0.30355 -186.6632,-0.30152 -196.0452,-0.29961 -201.1489,-0.29969 -209.896,-0.30172 -219.2198,-0.30348 -230.1198,-0.30348 -239.5873,-0.30327 -249.0232,-0.30316 -254.6986,-0.30136 -263.9465,-0.30034 -268.7257,-0.30107 -274.9567,-0.30117 -284.3703,-0.30046 -293.903,-0.29942 -301.6144,-0.29895 -310.7106,-0.29909 -318.6167,-0.29993 -326.4349,-0.30492 -335.4666,-0.31124 -344.633,-0.31694 -354.3863,-0.32265 -365.5685,-0.32965 -376.5999,-0.33367 -387.1875,-0.33781 -398.7609,-0.34204 -409.1299,-0.34546 -421.5096,-0.34818 -431.6934,-0.35038 -454.5396,-0.35359 -467.7325,-0.35509 -477.6074,-0.35584 -490.9855,-0.35556 -501.5852,-0.3537 -515.2754,-0.35089 -526.4472,-0.34726 -540.1343,-0.34394 -552.2977,-0.33897 -565.26,-0.33342 -579.1455,-0.32559 -591.5356,-0.31814 -604.907,-0.31219 -630.0554,-0.30514 -639.7319,-0.30424 -649.2566,-0.30356 -657.8772,-0.30153 -667.2586,-0.29962 -672.3582,-0.2997 -681.1052,-0.30173 -690.4301,-0.30348 -701.3567,-0.30348 -710.8249,-0.30327 -720.261,-0.30316 -725.9423,-0.30136 -735.1907,-0.30034 -739.9712,-0.30106 -746.197,-0.30116 -755.6104,-0.30046 -765.1382,-0.29941 -772.856,-0.29894 -781.9534,-0.29909 -789.8648,-0.29992 -797.6838,-0.30491 -806.7145,-0.31123 -815.8751,-0.31693 -825.6272,-0.32263 -836.8102,-0.32964 -847.8407,-0.33366 -858.4288,-0.3378 -870.0011,-0.34203 -880.3707,-0.34545 -892.7497,-0.34817 -902.9339,-0.35037 -911.9548,-0.35144 -917.4266,-0.352 " stroke="none" fill="red" stroke-width="0" shape-rendering="crispEdges" />
<polygon points="-942.4778,-1.098 -942.4778,-0.99803 -918.6597,-0.99774 -912.8468,-0.99755 -893.0532,-0.99664 -880.313,-0.99586 -869.7334,-0.99509 -857.1588,-0.99406 -846.4771,-0.99308 -834.0794,-0.99189 -800.0455,-0.98843 -787.9739,-0.98726 -776.8097,-0.98622 -764.8569,-0.98523 -753.5198,-0.98438 -741.6387,-0.98367 -730.1484,-0.9831 -718.283,-0.98273 -706.6739,-0.98252 -694.7643,-0.98253 -683.0834,-0.9827 -671.0722,-0.9831 -659.3756,-0.98364 -647.2149,-0.98441 -635.5625,-0.98526 -623.2204,-0.98631 -611.6697,-0.98738 -599.1348,-0.98862 -563.7959,-0.99221 -550.9245,-0.99342 -539.8975,-0.99442 -526.9169,-0.99542 -516.0727,-0.99619 -503.0359,-0.99689 -492.3453,-0.99736 -479.3085,-0.99769 -468.7272,-0.99783 -455.7447,-0.99777 -445.2196,-0.99758 -432.3391,-0.99714 -421.814,-0.99664 -409.0735,-0.99586 -398.4941,-0.99509 -385.9192,-0.99406 -375.2378,-0.99309 -362.8398,-0.99189 -328.8062,-0.98843 -316.7344,-0.98726 -305.5704,-0.98622 -293.6176,-0.98523 -282.2806,-0.98438 -270.3996,-0.98367 -258.9094,-0.9831 -247.0441,-0.98273 -235.435,-0.98252 -223.5255,-0.98253 -211.8446,-0.9827 -199.8335,-0.9831 -188.1369,-0.98364 -175.9763,-0.98441 -164.3238,-0.98526 -151.9819,-0.98631 -140.431,-0.98738 -127.8962,-0.98862 -92.5571,-0.99221 -79.6858,-0.99342 -68.6587,-0.99442 -55.6781,-0.99542 -44.8339,-0.99618 -31.7971,-0.99689 -21.1064,-0.99736 -8.0697,-0.99769 2.5117,-0.99783 15.4941,-0.99777 26.0192,-0.99758 38.8996,-0.99714 49.4248,-0.99664 62.1652,-0.99586 72.7447,-0.99509 85.3194,-0.99406 96.0009,-0.99308 108.3988,-0.99189 142.4324,-0.98843 154.504,-0.98726 165.6682,-0.98622 177.6209,-0.98523 188.958,-0.98438 200.8389,-0.98366 212.3292,-0.9831 224.1944,-0.98273 235.8036,-0.98251 247.713,-0.98253 259.394,-0.9827 271.4051,-0.9831 283.1019,-0.98364 295.2624,-0.98441 306.915,-0.98526 319.257,-0.98631 330.8079,-0.98738 343.3428,-0.98862 377.733,-0.99212 406.065,-1.0308 434.6627,-1.0692 462.9371,-1.1074 491.3103,-1.1451 520.5336,-1.1828 533.2341,-1.1825 543.9378,-1.1822 556.6259,-1.1817 579.9839,-1.1808 614.2006,-1.1794 637.6241,-1.1784 661.0715,-1.1777 673.467,-1.1774 684.5546,-1.1771 696.9446,-1.177 708.0819,-1.1769 720.4913,-1.1769 731.6578,-1.177 744.1096,-1.1771 755.2815,-1.1773 767.7946,-1.1777 778.9472,-1.178 791.534,-1.1785 815.3093,-1.1794 850.0734,-1.1809 873.7742,-1.1818 897.447,-1.1825 910.3237,-1.1828 927.9853,-1.1832 942.4778,-1.1834 942.4778,-1.2834 927.9853,-1.2832 919.821,-1.283 897.447,-1.2825 873.7742,-1.2818 850.0734,-1.2809 815.3093,-1.2794 791.534,-1.2785 778.9472,-1.278 767.7946,-1.2777 755.2815,-1.2773 744.1096,-1.2771 731.6578,-1.277 720.4913,-1.2769 708.0819,-1.2769 696.9446,-1.277 684.5546,-1.2771 673.467,-1.2774 661.0715,-1.2777 637.6241,-1.2784 614.2006,-1.2794 579.9839,-1.2808 556.6259,-1.2817 543.9378,-1.2822 533.2341,-1.2825 520.5336,-1.2828 491.3102,-1.2451 462.9369,-1.2074 434.6626,-1.1692 406.0649,-1.1308 377.7328,-1.0921 343.3428,-1.0886 330.8078,-1.0874 319.257,-1.0863 306.915,-1.0853 295.2624,-1.0844 283.1018,-1.0836 271.4051,-1.0831 259.394,-1.0827 247.713,-1.0825 235.8036,-1.0825 224.1944,-1.0827 212.3292,-1.0831 200.8389,-1.0837 188.958,-1.0844 177.6209,-1.0852 165.6682,-1.0862 154.504,-1.0873 142.4324,-1.0884 108.3988,-1.0919 96.001,-1.0931 85.3194,-1.0941 72.7447,-1.0951 62.1652,-1.0959 49.4248,-1.0966 38.8996,-1.0971 26.0192,-1.0976 15.4941,-1.0978 2.5117,-1.0978 -8.0697,-1.0977 -21.1064,-1.0974 -31.7971,-1.0969 -44.8339,-1.0962 -55.6781,-1.0954 -68.6587,-1.0944 -79.6858,-1.0934 -92.5571,-1.0922 -127.8962,-1.0886 -140.431,-1.0874 -151.9819,-1.0863 -164.3238,-1.0853 -175.9763,-1.0844 -188.1369,-1.0836 -199.8335,-1.0831 -211.8446,-1.0827 -223.5255,-1.0825 -235.435,-1.0825 -247.0441,-1.0827 -258.9094,-1.0831 -270.3996,-1.0837 -282.2806,-1.0844 -293.6175,-1.0852 -305.5704,-1.0862 -316.7344,-1.0873 -328.8062,-1.0884 -362.8398,-1.0919 -375.2378,-1.0931 -385.9192,-1.0941 -398.4941,-1.0951 -409.0735,-1.0959 -421.8139,-1.0966 -432.3391,-1.0971 -445.2196,-1.0976 -455.7447,-1.0978 -468.7272,-1.0978 -479.3085,-1.0977 -492.3453,-1.0974 -503.0359,-1.0969 -516.0728,-1.0962 -526.9169,-1.0954 -539.8975,-1.0944 -550.9245,-1.0934 -563.7959,-1.0922 -599.1348,-1.0886 -611.6697,-1.0874 -623.2204,-1.0863 -635.5625,-1.0853 -647.2149,-1.0844 -659.3756,-1.0836 -671.0722,-1.0831 -683.0834,-1.0827 -694.7643,-1.0825 -706.6739,-1.0825 -718.283,-1.0827 -730.1484,-1.0831 -741.6387,-1.0837 -753.5198,-1.0844 -764.8569,-1.0852 -776.8097,-1.0862 -787.9739,-1.0873 -800.0455,-1.0884 -834.0794,-1.0919 -846.4771,-1.0931 -857.1588,-1.0941 -869.7334,-1.0951 -880.313,-1.0959 -893.0532,-1.0966 -912.8468,-1.0976 -918.6597,-1.0977 " stroke="none" fill="red" stroke-width="0" shape-rendering="crispEdges" />
<polygon points="-942.4778,-1.2834 -942.4778,-1.1834 -919.2565,-1.1832 -913.286,-1.1832 -893.2405,-1.1828 -880.4821,-1.1825 -869.7786,-1.1822 -857.0903,-1.1817 -833.7323,-1.1808 -799.5158,-1.1794 -776.0923,-1.1784 -752.6449,-1.1777 -740.2494,-1.1774 -729.1619,-1.1771 -716.7718,-1.177 -705.6346,-1.1769 -693.2252,-1.1769 -682.0588,-1.177 -669.6069,-1.1771 -658.4351,-1.1773 -645.9219,-1.1777 -634.7694,-1.178 -622.1826,-1.1785 -598.4074,-1.1794 -563.6434,-1.1809 -539.9426,-1.1818 -516.2698,-1.1825 -503.3932,-1.1828 -492.6353,-1.183 -479.7563,-1.1832 -469.0453,-1.1833 -456.1869,-1.1833 -445.5015,-1.1832 -432.6847,-1.183 -422.0017,-1.1828 -409.2434,-1.1825 -398.5398,-1.1822 -385.8516,-1.1817 -362.4936,-1.1808 -328.2771,-1.1794 -304.8537,-1.1784 -281.4063,-1.1777 -269.0109,-1.1774 -257.9233,-1.1771 -245.5334,-1.177 -234.3961,-1.1769 -221.9869,-1.1769 -210.8203,-1.177 -198.3686,-1.1771 -187.1966,-1.1773 -174.6837,-1.1777 -163.531,-1.178 -150.9443,-1.1784 -127.169,-1.1794 -92.4047,-1.1809 -68.7038,-1.1818 -45.0309,-1.1825 -32.1543,-1.1828 -21.3963,-1.183 -8.5172,-1.1832 2.1938,-1.1833 15.0524,-1.1833 25.7377,-1.1832 38.5547,-1.183 49.2375,-1.1828 61.996,-1.1825 72.6994,-1.1822 85.3879,-1.1817 108.746,-1.1808 142.9624,-1.1794 166.3858,-1.1784 189.8332,-1.1777 202.2288,-1.1774 213.3161,-1.1771 225.7063,-1.177 236.8433,-1.1769 249.2528,-1.1769 260.4191,-1.177 272.871,-1.1771 284.0427,-1.1773 296.5558,-1.1777 307.7083,-1.178 320.2951,-1.1785 344.0703,-1.1794 377.8805,-1.1808 406.2126,-1.2288 433.6617,-1.2766 461.936,-1.3243 489.2694,-1.3718 518.4975,-1.4192 530.1774,-1.4189 541.8994,-1.4185 553.5607,-1.4181 576.9004,-1.4171 612.1175,-1.4154 635.5175,-1.4143 658.9406,-1.4134 670.254,-1.4131 682.401,-1.4128 693.7009,-1.4126 705.9096,-1.4125 717.2243,-1.4125 729.473,-1.4125 740.8297,-1.4127 753.0917,-1.4129 764.5133,-1.4132 776.7605,-1.4136 788.263,-1.4141 812.0591,-1.4151 847.9365,-1.4169 871.6613,-1.4179 895.358,-1.4188 916.7248,-1.4194 923.8602,-1.4195 942.4778,-1.4198 942.4778,-1.5198 923.8602,-1.5195 916.7248,-1.5194 895.358,-1.5188 871.6613,-1.5179 847.9365,-1.5169 812.059,-1.5151 788.263,-1.5141 776.7605,-1.5136 764.5133,-1.5132 753.0917,-1.5129 740.8297,-1.5127 729.473,-1.5125 717.2243,-1.5125 705.9096,-1.5125 693.7009,-1.5126 682.401,-1.5128 670.254,-1.5131 658.9406,-1.5134 635.5175,-1.5143 612.1175,-1.5154 576.9004,-1.5171 553.5607,-1.5181 541.8994,-1.5185 530.1774,-1.5189 518.4975,-1.5192 489.2692,-1.4718 461.9359,-1.4243 433.6615,-1.3766 406.2124,-1.3288 377.8803,-1.2808 344.0703,-1.2794 320.2951,-1.2785 307.7083,-1.278 296.5558,-1.2777 284.0427,-1.2773 272.8709,-1.2771 260.4191,-1.277 249.2528,-1.2769 236.8433,-1.2769 225.7063,-1.277 213.3161,-1.2771 202.2288,-1.2774 189.8332,-1.2777 166.3858,-1.2784 142.9624,-1.2794 108.746,-1.2808 85.3879,-1.2817 72.6995,-1.2822 61.996,-1.2825 49.2375,-1.2828 38.5547,-1.283 25.7377,-1.2832 15.0524,-1.2833 2.1938,-1.2833 -8.5172,-1.2832 -21.3963,-1.283 -32.1543,-1.2828 -45.0309,-1.2825 -68.7038,-1.2818 -92.4047,-1.2809 -127.169,-1.2794 -150.9443,-1.2784 -163.531,-1.278 -174.6837,-1.2777 -187.1966,-1.2773 -198.3686,-1.2771 -210.8203,-1.277 -221.9869,-1.2769 -234.3961,-1.2769 -245.5334,-1.277 -257.9233,-1.2771 -269.0109,-1.2774 -281.4063,-1.2777 -304.8537,-1.2784 -328.2771,-1.2794 -362.4936,-1.2808 -385.8516,-1.2817 -398.5398,-1.2822 -409.2434,-1.2825 -422.0017,-1.2828 -432.6847,-1.283 -445.5015,-1.2832 -456.1869,-1.2833 -469.0453,-1.2833 -479.7563,-1.2832 -492.6353,-1.283 -503.3932,-1.2828 -516.2698,-1.2825 -539.9426,-1.2818 -563.6434,-1.2809 -598.4074,-1.2794 -622.1826,-1.2785 -634.7694,-1.278 -645.922,-1.2777 -658.4351,-1.2773 -669.6069,-1.2771 -682.0588,-1.277 -693.2252,-1.2769 -705.6346,-1.2769 -716.7718,-1.277 -729.1619,-1.2771 -740.2494,-1.2774 -752.6449,-1.2777 -776.0923,-1.2784 -799.5158,-1.2794 -833.7323,-1.2808 -857.0903,-1.2817 -869.7786,-1.2822 -880.4821,-1.2825 -893.2405,-1.2828 -903.9234,-1.283 -919.2565,-1.2832 " stroke="none" fill="red" stroke-width="0" shape-rendering="crispEdges" />
<polygon points="-942.4778,-1.5198 -942.4778,-1.4198 -923.338,-1.4197 -916.3461,-1.4196 -906.9786,-1.4195 -895.2743,-1.4192 -883.5354,-1.4189 -871.8146,-1.4185 -860.1519,-1.4181 -836.8121,-1.4171 -813.4957,-1.416 -801.5964,-1.4154 -778.1964,-1.4144 -754.7735,-1.4134 -743.459,-1.4131 -731.3133,-1.4128 -720.0124,-1.4126 -707.8049,-1.4125 -696.4894,-1.4125 -684.2419,-1.4125 -672.8845,-1.4127 -660.6235,-1.4129 -649.2014,-1.4132 -636.955,-1.4137 -625.4521,-1.4141 -601.6566,-1.4151 -565.7802,-1.4169 -542.0558,-1.4179 -518.3596,-1.4188 -506.5125,-1.4191 -494.704,-1.4194 -482.8472,-1.4196 -471.097,-1.4197 -459.2567,-1.4197 -447.5419,-1.4196 -435.7425,-1.4195 -424.0373,-1.4192 -412.2993,-1.4189 -400.5776,-1.4185 -388.916,-1.4181 -365.5762,-1.4171 -342.2598,-1.416 -330.3595,-1.4154 -306.9594,-1.4143 -283.5364,-1.4134 -272.2228,-1.4131 -260.0762,-1.4128 -248.7761,-1.4126 -236.5677,-1.4125 -225.2528,-1.4125 -213.0045,-1.4125 -201.6478,-1.4127 -189.386,-1.4129 -177.9644,-1.4132 -165.7173,-1.4136 -154.2149,-1.4141 -130.4188,-1.4151 -94.5414,-1.4169 -70.8166,-1.4179 -47.1198,-1.4188 -35.2718,-1.4191 -23.4636,-1.4194 -11.6058,-1.4196 0.14386,-1.4197 11.9854,-1.4197 23.6994,-1.4196 35.5001,-1.4195 47.2042,-1.4192 58.9436,-1.4189 70.6641,-1.4186 82.3273,-1.4181 105.6673,-1.4171 128.9839,-1.416 140.8827,-1.4154 164.2828,-1.4144 187.7058,-1.4135 199.021,-1.4131 211.1659,-1.4128 222.4674,-1.4126 234.6742,-1.4125 245.9903,-1.4125 258.237,-1.4125 269.5947,-1.4127 281.8552,-1.4129 293.2773,-1.4132 305.5232,-1.4137 317.0259,-1.4141 340.8209,-1.4151 375.7441,-1.4168 384.2153,-1.4522 387.6018,-1.5257 383.7159,-1.5501 375.7437,-1.5168 340.8209,-1.5151 317.0259,-1.5141 305.5232,-1.5137 293.2773,-1.5132 281.8551,-1.5129 269.5947,-1.5127 258.237,-1.5125 245.9903,-1.5125 234.6742,-1.5125 222.4674,-1.5126 211.1659,-1.5128 199.021,-1.5131 187.7058,-1.5135 164.2828,-1.5144 140.8827,-1.5154 128.9839,-1.516 105.6673,-1.5171 82.3273,-1.5181 70.6641,-1.5186 58.9436,-1.5189 47.2042,-1.5192 35.5001,-1.5195 23.6994,-1.5196 11.9854,-1.5197 0.14386,-1.5197 -11.6058,-1.5196 -23.4636,-1.5194 -35.2718,-1.5191 -47.1198,-1.5188 -70.8166,-1.5179 -94.5414,-1.5169 -130.4188,-1.5151 -154.2149,-1.5141 -165.7173,-1.5136 -177.9644,-1.5132 -189.386,-1.5129 -201.6478,-1.5127 -213.0045,-1.5125 -225.2528,-1.5125 -236.5677,-1.5125 -248.7761,-1.5126 -260.0762,-1.5128 -272.2228,-1.5131 -283.5364,-1.5134 -306.9594,-1.5143 -330.3595,-1.5154 -342.2598,-1.516 -365.5762,-1.5171 -388.916,-1.5181 -400.5776,-1.5185 -412.2993,-1.5189 -424.0373,-1.5192 -435.7425,-1.5195 -447.5419,-1.5196 -459.2567,-1.5197 -471.097,-1.5197 -482.8472,-1.5196 -494.704,-1.5194 -506.5125,-1.5191 -518.3596,-1.5188 -542.0558,-1.5179 -565.7802,-1.5169 -601.6566,-1.5151 -625.4522,-1.5141 -636.955,-1.5137 -649.2014,-1.5132 -660.6235,-1.5129 -672.8845,-1.5127 -684.2419,-1.5125 -696.4894,-1.5125 -707.8049,-1.5125 -720.0124,-1.5126 -731.3133,-1.5128 -743.459,-1.5131 -754.7735,-1.5134 -778.1964,-1.5144 -801.5964,-1.5154 -813.4957,-1.516 -836.8121,-1.5171 -860.1519,-1.5181 -871.8146,-1.5185 -883.5353,-1.5189 -895.2743,-1.5192 -906.9786,-1.5195 -916.3461,-1.5196 -923.338,-1.5197 NaN,NaN 384.2144,-1.5521 388.0431,-1.5374 388.0498,-1.5354 388.1431,-1.5374 388.0934,-1.6226 382.4926,-1.6577 374.0207,-1.6928 338.7635,-1.6935 315.2837,-1.6938 291.7861,-1.6941 280.9373,-1.6942 268.2644,-1.6943 257.3934,-1.6944 244.7147,-1.6944 233.8298,-1.6944 210.2467,-1.6943 186.6458,-1.694 163.0307,-1.6937 102.9385,-1.6926 79.2924,-1.6923 55.6646,-1.6919 44.9439,-1.6918 32.0618,-1.6918 21.3638,-1.6917 8.4881,-1.6917 -2.1958,-1.6917 -25.7355,-1.6918 -49.2574,-1.6921 -72.7656,-1.6924 -132.476,-1.6935 -155.9549,-1.6938 -179.4518,-1.6941 -190.3007,-1.6942 -202.9727,-1.6943 -213.8441,-1.6944 -226.5218,-1.6944 -237.4072,-1.6944 -260.9901,-1.6943 -284.5909,-1.694 -308.2059,-1.6937 -368.2967,-1.6927 -391.9428,-1.6923 -415.5706,-1.692 -426.2926,-1.6919 -439.1735,-1.6918 -449.8727,-1.6917 -462.7475,-1.6917 -473.4326,-1.6917 -496.9725,-1.6918 -520.4947,-1.6921 -544.0033,-1.6924 -603.7147,-1.6935 -627.1942,-1.6938 -650.6915,-1.6941 -661.5403,-1.6942 -674.2129,-1.6943 -685.0839,-1.6944 -697.7623,-1.6944 -708.6473,-1.6944 -732.2304,-1.6943 -755.8313,-1.694 -779.4463,-1.6937 -839.5383,-1.6926 -863.1845,-1.6923 -886.8123,-1.692 -897.5334,-1.6918 -910.4152,-1.6918 -921.1135,-1.6917 -942.4778,-1.6916 -942.4778,-1.5916 -910.4152,-1.5918 -897.5334,-1.5918 -886.8123,-1.592 -873.9346,-1.5921 -850.3209,-1.5925 -779.4463,-1.5937 -755.8313,-1.594 -732.2304,-1.5943 -708.6473,-1.5944 -697.7623,-1.5944 -685.0839,-1.5944 -674.2129,-1.5943 -661.5403,-1.5942 -650.6915,-1.5941 -638.0146,-1.594 -614.5033,-1.5936 -544.0033,-1.5924 -520.4947,-1.5921 -496.9725,-1.5918 -473.4326,-1.5917 -462.7475,-1.5917 -449.8727,-1.5917 -439.1735,-1.5918 -426.2926,-1.5919 -415.5706,-1.592 -402.6938,-1.5921 -379.0801,-1.5925 -308.2058,-1.5937 -284.5909,-1.594 -260.9901,-1.5943 -237.4072,-1.5944 -226.5218,-1.5944 -213.8441,-1.5944 -202.9727,-1.5943 -190.3007,-1.5942 -179.4518,-1.5941 -166.7753,-1.594 -143.2643,-1.5936 -72.7656,-1.5924 -49.2574,-1.5921 -25.7355,-1.5918 -2.1958,-1.5917 8.4881,-1.5917 21.3638,-1.5917 32.0618,-1.5918 44.9439,-1.5918 55.6646,-1.5919 68.5426,-1.5921 92.1563,-1.5925 163.0308,-1.5937 186.6458,-1.594 210.2467,-1.5943 233.8298,-1.5944 244.7147,-1.5944 257.3934,-1.5944 268.2644,-1.5943 280.9373,-1.5942 291.7861,-1.5941 304.4632,-1.594 327.9747,-1.5936 374.0207,-1.5928 382.4922,-1.5577 383.7159,-1.5501 NaN,NaN 388.0928,-1.5226 388.0498,-1.5354 387.6018,-1.5257 " stroke="none" fill="red" stroke-width="0" shape-rendering="crispEdges" />
<polygon points="942.4778,-1.5916 942.4778,-1.6916 910.7687,-1.6918 893.2208,-1.6921 880.4151,-1.6922 869.7126,-1.6924 846.2129,-1.6928 810.003,-1.6935 786.5243,-1.6938 775.7035,-1.694 763.0276,-1.6941 752.1782,-1.6943 739.5068,-1.6943 728.6349,-1.6944 715.9579,-1.6944 705.0718,-1.6944 692.3795,-1.6944 681.4889,-1.6943 668.7731,-1.6942 657.8882,-1.6941 645.1428,-1.6939 634.2732,-1.6937 610.6491,-1.6933 574.1825,-1.6927 550.5361,-1.6923 539.7846,-1.6921 526.9081,-1.692 506.313,-1.7248 487.0155,-1.7576 471.1556,-1.7905 445.4371,-1.8563 445.4368,-1.7563 471.1553,-1.6905 487.0153,-1.6576 506.3128,-1.6248 526.908,-1.592 539.7846,-1.5921 550.5361,-1.5923 574.1825,-1.5927 610.6491,-1.5933 634.2732,-1.5937 645.1428,-1.5939 657.8882,-1.5941 668.7731,-1.5942 681.4889,-1.5943 692.3795,-1.5944 705.0718,-1.5944 715.9579,-1.5944 728.6349,-1.5944 739.5068,-1.5943 752.1782,-1.5943 763.0276,-1.5941 775.7035,-1.594 786.5243,-1.5938 810.003,-1.5935 846.2129,-1.5928 869.7126,-1.5924 880.415,-1.5922 893.2208,-1.5921 910.7687,-1.5918 " stroke="none" fill="red" stroke-width="0" shape-rendering="crispEdges" />
<line x1="918.9159" y1="2.5" x2="918.9159" y2="-2.5" stroke="red" stroke-width="0.1"/>
<line x1="918.9159" y1="-2.5" x2="-942.4778" y2="-2.5" stroke="red" stroke-width="0.1"/>
<line x1="-942.4778" y1="-2.5" x2="-942.4778" y2="2.5" stroke="red" stroke-width="0.1"/>
<line x1="-942.4778" y1="2.5" x2="918.9159" y2="2.5" stroke="red" stroke-width="0.1"/>
"/>
</svg>